<?xml version="1.0" encoding="UTF-8"?>
<svg xmlns="http://www.w3.org/2000/svg" xmlns:xlink="http://www.w3.org/1999/xlink" width="511px" height="300px" viewBox="0 0 511 300" version="1.1">
<g id="surface1">
<path style=" stroke:none;fill-rule:nonzero;fill:rgb(0%,0%,0%);fill-opacity:1;" d="M 109.839844 68.542969 C 107.785156 72.082031 105.726562 72.738281 103.507812 72.90625 C 102.847656 72.988281 102.355469 72.988281 102.355469 73.976562 C 102.355469 74.304688 102.601562 74.550781 103.011719 74.550781 C 104.492188 74.550781 106.058594 74.386719 107.539062 74.386719 C 109.265625 74.386719 111.074219 74.550781 112.722656 74.550781 C 113.050781 74.550781 113.707031 74.550781 113.707031 73.5625 C 113.707031 72.988281 113.296875 72.90625 112.886719 72.90625 C 111.734375 72.820312 110.417969 72.410156 110.417969 71.09375 C 110.417969 70.515625 110.746094 69.941406 111.15625 69.199219 L 115.191406 62.53125 L 128.273438 62.53125 C 128.355469 63.601562 129.09375 70.683594 129.09375 71.175781 C 129.09375 72.738281 126.378906 72.90625 125.3125 72.90625 C 124.570312 72.90625 124.078125 72.90625 124.078125 73.976562 C 124.078125 74.550781 124.734375 74.550781 124.816406 74.550781 C 126.957031 74.550781 129.179688 74.386719 131.316406 74.386719 C 132.632812 74.386719 135.925781 74.550781 137.242188 74.550781 C 137.570312 74.550781 138.148438 74.550781 138.148438 73.480469 C 138.148438 72.90625 137.652344 72.90625 136.996094 72.90625 C 133.703125 72.90625 133.703125 72.574219 133.539062 71.09375 L 130.410156 38.410156 C 130.246094 37.421875 130.246094 37.175781 129.425781 37.175781 C 128.519531 37.175781 128.355469 37.503906 128.027344 38.082031 Z M 116.175781 60.886719 L 126.378906 43.679688 L 128.109375 60.886719 Z M 116.175781 60.886719 "/>
<path style=" stroke:none;fill-rule:nonzero;fill:rgb(0%,0%,0%);fill-opacity:1;" d="M 400.039062 70.515625 C 399.546875 72.492188 399.464844 72.90625 395.351562 72.90625 C 394.445312 72.90625 393.949219 72.90625 393.949219 73.976562 C 393.949219 74.550781 394.363281 74.550781 395.351562 74.550781 L 413.945312 74.550781 C 422.171875 74.550781 428.34375 68.375 428.34375 63.273438 C 428.34375 59.484375 425.300781 56.523438 420.28125 55.945312 C 425.710938 54.957031 431.140625 51.089844 431.140625 46.066406 C 431.140625 42.28125 427.6875 38.902344 421.433594 38.902344 L 403.90625 38.902344 C 402.917969 38.902344 402.425781 38.902344 402.425781 39.972656 C 402.425781 40.550781 402.917969 40.550781 403.90625 40.550781 C 403.988281 40.550781 404.976562 40.550781 405.882812 40.632812 C 406.785156 40.714844 407.28125 40.796875 407.28125 41.457031 C 407.28125 41.703125 407.199219 41.785156 407.035156 42.445312 Z M 407.9375 55.453125 L 411.148438 42.527344 C 411.640625 40.714844 411.722656 40.550781 414.027344 40.550781 L 420.773438 40.550781 C 425.300781 40.550781 426.453125 43.597656 426.453125 45.902344 C 426.453125 50.511719 421.925781 55.453125 415.589844 55.453125 Z M 405.636719 72.90625 C 404.894531 72.90625 404.8125 72.90625 404.484375 72.90625 C 403.90625 72.820312 403.742188 72.738281 403.742188 72.328125 C 403.742188 72.164062 403.742188 72.082031 404.070312 71.175781 L 407.609375 56.605469 L 417.484375 56.605469 C 422.503906 56.605469 423.492188 60.472656 423.492188 62.695312 C 423.492188 67.882812 418.882812 72.90625 412.710938 72.90625 Z M 405.636719 72.90625 "/>
<path style=" stroke:none;fill-rule:nonzero;fill:rgb(0%,0%,0%);fill-opacity:1;" d="M 55.742188 239.851562 C 53.683594 243.390625 51.625 244.050781 49.40625 244.214844 C 48.746094 244.296875 48.253906 244.296875 48.253906 245.285156 C 48.253906 245.617188 48.5 245.863281 48.910156 245.863281 C 50.390625 245.863281 51.957031 245.699219 53.4375 245.699219 C 55.164062 245.699219 56.976562 245.863281 58.621094 245.863281 C 58.949219 245.863281 59.609375 245.863281 59.609375 244.875 C 59.609375 244.296875 59.195312 244.214844 58.785156 244.214844 C 57.632812 244.132812 56.316406 243.722656 56.316406 242.40625 C 56.316406 241.828125 56.644531 241.253906 57.058594 240.511719 L 61.089844 233.84375 L 74.171875 233.84375 C 74.253906 234.914062 74.996094 241.992188 74.996094 242.488281 C 74.996094 244.050781 72.277344 244.214844 71.210938 244.214844 C 70.46875 244.214844 69.976562 244.214844 69.976562 245.285156 C 69.976562 245.863281 70.632812 245.863281 70.714844 245.863281 C 72.855469 245.863281 75.078125 245.699219 77.214844 245.699219 C 78.53125 245.699219 81.824219 245.863281 83.140625 245.863281 C 83.46875 245.863281 84.046875 245.863281 84.046875 244.792969 C 84.046875 244.214844 83.550781 244.214844 82.894531 244.214844 C 79.601562 244.214844 79.601562 243.886719 79.4375 242.40625 L 76.3125 209.722656 C 76.144531 208.734375 76.144531 208.488281 75.324219 208.488281 C 74.417969 208.488281 74.253906 208.816406 73.925781 209.390625 Z M 62.078125 232.195312 L 72.277344 214.992188 L 74.007812 232.195312 Z M 62.078125 232.195312 "/>
<path style=" stroke:none;fill-rule:nonzero;fill:rgb(0%,0%,0%);fill-opacity:1;" d="M 108.445312 208.734375 C 108.691406 207.992188 108.691406 207.828125 108.691406 207.746094 C 108.691406 207.167969 108.28125 206.675781 107.707031 206.675781 C 107.292969 206.675781 106.964844 206.839844 106.800781 207.167969 L 88.699219 256.894531 C 88.453125 257.632812 88.453125 257.800781 88.453125 257.882812 C 88.453125 258.457031 88.945312 258.953125 89.519531 258.953125 C 90.179688 258.953125 90.34375 258.539062 90.589844 257.632812 Z M 108.445312 208.734375 "/>
<path style=" stroke:none;fill-rule:nonzero;fill:rgb(0%,0%,0%);fill-opacity:1;" d="M 163.835938 228.410156 C 163.835938 227.257812 163.507812 226.761719 163.097656 226.761719 C 162.847656 226.761719 162.4375 227.09375 162.355469 228.078125 C 162.109375 233.101562 158.734375 235.984375 155.03125 235.984375 C 151.742188 235.984375 149.273438 233.761719 146.722656 231.539062 C 144.007812 229.066406 141.292969 226.679688 137.753906 226.679688 C 132.074219 226.679688 129.03125 232.441406 129.03125 237.21875 C 129.03125 238.863281 129.691406 238.863281 129.773438 238.863281 C 130.347656 238.863281 130.511719 237.792969 130.511719 237.628906 C 130.675781 231.949219 134.625 229.644531 137.753906 229.644531 C 141.042969 229.644531 143.59375 231.867188 146.144531 234.089844 C 148.777344 236.558594 151.496094 238.945312 155.03125 238.945312 C 160.710938 238.945312 163.835938 233.183594 163.835938 228.410156 Z M 163.835938 228.410156 "/>
<path style=" stroke:none;fill-rule:nonzero;fill:rgb(0%,0%,0%);fill-opacity:1;" d="M 181.621094 239.289062 L 185.15625 239.289062 C 185.898438 239.289062 186.390625 239.289062 186.390625 238.464844 C 186.390625 237.972656 185.898438 237.972656 185.238281 237.972656 L 181.867188 237.972656 C 182.6875 233.277344 183.019531 231.632812 183.265625 230.5625 C 183.429688 229.738281 184.253906 228.996094 185.15625 228.996094 C 185.15625 228.996094 186.144531 228.996094 186.886719 229.410156 C 185.320312 229.902344 185.238281 231.21875 185.238281 231.46875 C 185.238281 232.207031 185.898438 232.785156 186.71875 232.785156 C 187.707031 232.785156 188.777344 231.960938 188.777344 230.5625 C 188.777344 228.914062 186.96875 227.925781 185.15625 227.925781 C 183.511719 227.925781 181.703125 228.914062 180.714844 230.726562 C 180.054688 232.042969 179.726562 233.691406 178.984375 237.972656 L 176.105469 237.972656 C 175.367188 237.972656 174.871094 237.972656 174.871094 238.710938 C 174.871094 239.289062 175.367188 239.289062 176.023438 239.289062 L 178.738281 239.289062 C 178.65625 239.453125 176.351562 252.625 175.53125 256.578125 C 175.285156 257.316406 174.707031 260.117188 172.898438 260.117188 C 172.898438 260.117188 171.992188 260.117188 171.332031 259.703125 C 172.816406 259.210938 172.898438 257.894531 172.898438 257.648438 C 172.898438 256.90625 172.320312 256.328125 171.5 256.328125 C 170.511719 256.328125 169.359375 257.152344 169.359375 258.550781 C 169.359375 260.199219 171.085938 261.1875 172.898438 261.1875 C 175.285156 261.1875 176.847656 258.71875 177.339844 257.976562 C 178.65625 255.507812 179.480469 250.980469 179.5625 250.566406 Z M 181.621094 239.289062 "/>
<path style=" stroke:none;fill-rule:nonzero;fill:rgb(0%,0%,0%);fill-opacity:1;" d="M 373.128906 222.8125 L 365.804688 223.386719 L 365.804688 224.953125 C 369.261719 224.953125 369.671875 225.28125 369.671875 227.832031 L 369.671875 241.910156 C 369.671875 244.214844 369.09375 244.214844 365.640625 244.214844 L 365.640625 245.863281 C 367.285156 245.78125 370.082031 245.699219 371.398438 245.699219 C 373.210938 245.699219 375.019531 245.78125 376.828125 245.863281 L 376.828125 244.214844 C 373.375 244.214844 373.128906 243.96875 373.128906 241.910156 Z M 373.375 213.671875 C 373.375 212.027344 372.058594 210.957031 370.578125 210.957031 C 368.929688 210.957031 367.859375 212.355469 367.859375 213.671875 C 367.859375 215.15625 368.929688 216.472656 370.578125 216.472656 C 372.058594 216.472656 373.375 215.402344 373.375 213.671875 Z M 373.375 213.671875 "/>
<path style=" stroke:none;fill-rule:nonzero;fill:rgb(0%,0%,0%);fill-opacity:1;" d="M 384.164062 227.914062 L 384.164062 241.910156 C 384.164062 244.214844 383.589844 244.214844 380.050781 244.214844 L 380.050781 245.863281 C 381.859375 245.78125 384.578125 245.699219 385.976562 245.699219 C 387.292969 245.699219 390.007812 245.78125 391.816406 245.863281 L 391.816406 244.214844 C 388.277344 244.214844 387.703125 244.214844 387.703125 241.910156 L 387.703125 232.277344 C 387.703125 226.84375 391.488281 223.964844 394.777344 223.964844 C 398.070312 223.964844 398.644531 226.761719 398.644531 229.726562 L 398.644531 241.910156 C 398.644531 244.214844 398.070312 244.214844 394.613281 244.214844 L 394.613281 245.863281 C 396.425781 245.78125 399.058594 245.699219 400.457031 245.699219 C 401.855469 245.699219 404.570312 245.78125 406.296875 245.863281 L 406.296875 244.214844 C 402.84375 244.214844 402.265625 244.214844 402.265625 241.910156 L 402.265625 232.277344 C 402.265625 226.84375 405.96875 223.964844 409.261719 223.964844 C 412.550781 223.964844 413.128906 226.761719 413.128906 229.726562 L 413.128906 241.910156 C 413.128906 244.214844 412.550781 244.214844 409.097656 244.214844 L 409.097656 245.863281 C 410.90625 245.78125 413.539062 245.699219 414.9375 245.699219 C 416.335938 245.699219 419.050781 245.78125 420.78125 245.863281 L 420.78125 244.214844 C 418.066406 244.214844 416.832031 244.214844 416.75 242.652344 L 416.75 232.691406 C 416.75 228.246094 416.75 226.597656 415.101562 224.703125 C 414.363281 223.800781 412.714844 222.8125 409.671875 222.8125 C 405.3125 222.8125 403.007812 225.941406 402.101562 227.914062 C 401.363281 223.386719 397.496094 222.8125 395.191406 222.8125 C 391.324219 222.8125 388.855469 225.035156 387.457031 228.246094 L 387.457031 222.8125 L 380.050781 223.386719 L 380.050781 224.953125 C 383.753906 224.953125 384.164062 225.363281 384.164062 227.914062 Z M 384.164062 227.914062 "/>
<path style=" stroke:none;fill-rule:nonzero;fill:rgb(0%,0%,0%);fill-opacity:1;" d="M 449.746094 224.953125 L 454.191406 224.953125 C 455.261719 224.953125 455.753906 224.953125 455.753906 223.964844 C 455.753906 223.386719 455.261719 223.386719 454.355469 223.386719 L 449.996094 223.386719 L 451.144531 217.378906 C 451.3125 216.308594 452.050781 212.601562 452.378906 212.027344 C 452.875 210.957031 453.695312 210.214844 454.847656 210.214844 C 455.011719 210.214844 456.414062 210.214844 457.398438 211.121094 C 455.097656 211.367188 454.601562 213.179688 454.601562 214.003906 C 454.601562 215.15625 455.507812 215.8125 456.496094 215.8125 C 457.894531 215.8125 459.375 214.660156 459.375 212.683594 C 459.375 210.296875 456.988281 209.0625 454.847656 209.0625 C 453.039062 209.0625 449.746094 209.96875 448.183594 215.15625 C 447.855469 216.308594 447.773438 216.800781 446.457031 223.386719 L 442.917969 223.386719 C 441.929688 223.386719 441.355469 223.386719 441.355469 224.375 C 441.355469 224.953125 441.765625 224.953125 442.753906 224.953125 L 446.210938 224.953125 L 442.34375 245.617188 C 441.355469 250.636719 440.449219 255.410156 437.734375 255.410156 C 437.570312 255.410156 436.253906 255.410156 435.265625 254.507812 C 437.652344 254.339844 438.144531 252.449219 438.144531 251.625 C 438.144531 250.472656 437.242188 249.8125 436.171875 249.8125 C 434.855469 249.8125 433.375 250.964844 433.375 252.941406 C 433.375 255.328125 435.59375 256.566406 437.734375 256.566406 C 440.613281 256.566406 442.753906 253.519531 443.660156 251.460938 C 445.304688 248.25 446.539062 241.910156 446.621094 241.5 Z M 449.746094 224.953125 "/>
<path style="fill:none;stroke-width:0.39848;stroke-linecap:butt;stroke-linejoin:miter;stroke:rgb(0%,0%,0%);stroke-opacity:1;stroke-miterlimit:10;" d="M -17.360229 32.697619 L 21.398117 32.697619 " transform="matrix(5.236775,0,0,-5.239518,254.091305,232.81585)"/>
<path style="fill:none;stroke-width:0.39848;stroke-linecap:round;stroke-linejoin:round;stroke:rgb(0%,0%,0%);stroke-opacity:1;stroke-miterlimit:10;" d="M -2.071354 2.392724 C -1.693915 0.954585 -0.849527 0.279129 -0.00140805 0.000298698 C -0.849527 -0.278532 -1.693915 -0.958461 -2.071354 -2.392127 " transform="matrix(5.236775,0,0,-5.239518,367.183155,61.497659)"/>
<path style=" stroke:none;fill-rule:nonzero;fill:rgb(0%,0%,0%);fill-opacity:1;" d="M 268.375 27.707031 L 271.914062 27.707031 C 272.65625 27.707031 273.148438 27.707031 273.148438 26.882812 C 273.148438 26.390625 272.65625 26.390625 271.996094 26.390625 L 268.625 26.390625 C 269.445312 21.695312 269.777344 20.050781 270.023438 18.980469 C 270.1875 18.15625 271.011719 17.414062 271.914062 17.414062 C 271.914062 17.414062 272.902344 17.414062 273.644531 17.828125 C 272.078125 18.320312 271.996094 19.636719 271.996094 19.886719 C 271.996094 20.625 272.65625 21.203125 273.476562 21.203125 C 274.464844 21.203125 275.535156 20.378906 275.535156 18.980469 C 275.535156 17.332031 273.726562 16.34375 271.914062 16.34375 C 270.269531 16.34375 268.460938 17.332031 267.472656 19.144531 C 266.8125 20.460938 266.484375 22.109375 265.742188 26.390625 L 262.863281 26.390625 C 262.125 26.390625 261.628906 26.390625 261.628906 27.128906 C 261.628906 27.707031 262.125 27.707031 262.78125 27.707031 L 265.496094 27.707031 C 265.414062 27.871094 263.109375 41.042969 262.289062 44.996094 C 262.042969 45.734375 261.464844 48.535156 259.65625 48.535156 C 259.65625 48.535156 258.75 48.535156 258.089844 48.121094 C 259.574219 47.628906 259.65625 46.3125 259.65625 46.066406 C 259.65625 45.324219 259.078125 44.746094 258.257812 44.746094 C 257.269531 44.746094 256.117188 45.570312 256.117188 46.96875 C 256.117188 48.617188 257.84375 49.605469 259.65625 49.605469 C 262.042969 49.605469 263.605469 47.136719 264.097656 46.394531 C 265.414062 43.925781 266.238281 39.394531 266.320312 38.984375 Z M 268.375 27.707031 "/>
<path style="fill:none;stroke-width:0.39848;stroke-linecap:butt;stroke-linejoin:miter;stroke:rgb(0%,0%,0%);stroke-opacity:1;stroke-miterlimit:10;" d="M -25.585561 26.361307 L -25.585561 9.223667 " transform="matrix(5.236775,0,0,-5.239518,254.091305,232.81585)"/>
<path style="fill:none;stroke-width:0.39848;stroke-linecap:round;stroke-linejoin:round;stroke:rgb(0%,0%,0%);stroke-opacity:1;stroke-miterlimit:10;" d="M -2.071227 2.391552 C -1.693986 0.957881 -0.849294 0.278342 -0.000873573 -0.000634785 C -0.849294 -0.279611 -1.693986 -0.955421 -2.071227 -2.389092 " transform="matrix(0,5.239518,5.236775,0,120.108793,185.524108)"/>
<path style=" stroke:none;fill-rule:nonzero;fill:rgb(0%,0%,0%);fill-opacity:1;" d="M 93.480469 135.242188 L 97.84375 135.242188 C 97.265625 137.382812 96.441406 140.757812 96.441406 143.640625 C 96.441406 145.121094 96.691406 146.109375 96.855469 146.851562 C 97.429688 148.742188 97.925781 148.824219 98.5 148.824219 C 99.40625 148.824219 100.226562 148.085938 100.226562 147.179688 C 100.226562 146.933594 100.144531 146.765625 99.980469 146.4375 C 99.242188 145.039062 98.582031 142.980469 98.582031 140.015625 C 98.582031 139.277344 98.582031 137.792969 99.074219 135.242188 L 103.683594 135.242188 C 104.34375 135.242188 104.671875 135.242188 105 134.914062 C 105.578125 134.582031 105.660156 134.007812 105.660156 133.84375 C 105.660156 132.773438 104.671875 132.773438 104.09375 132.773438 L 90.273438 132.773438 C 88.789062 132.773438 87.804688 133.101562 86.15625 134.582031 C 85.171875 135.40625 83.773438 137.382812 83.773438 137.710938 C 83.773438 138.207031 84.265625 138.207031 84.429688 138.207031 C 84.757812 138.207031 84.839844 138.125 85.089844 137.792969 C 86.898438 135.242188 89.203125 135.242188 89.941406 135.242188 L 92.246094 135.242188 C 91.09375 139.277344 89.121094 143.558594 87.96875 145.78125 C 87.804688 146.191406 87.390625 147.015625 87.308594 147.179688 C 87.308594 147.261719 87.226562 147.425781 87.226562 147.671875 C 87.226562 148.25 87.640625 148.824219 88.460938 148.824219 C 89.941406 148.824219 90.355469 147.179688 91.257812 143.886719 Z M 93.480469 135.242188 "/>
<path style="fill:none;stroke-width:0.39848;stroke-linecap:butt;stroke-linejoin:miter;stroke:rgb(0%,0%,0%);stroke-opacity:1;stroke-miterlimit:10;" d="M -7.029145 -0.000106141 L 16.08339 -0.000106141 " transform="matrix(5.236775,0,0,-5.239518,254.091305,232.81585)"/>
<path style="fill:none;stroke-width:0.39848;stroke-linecap:round;stroke-linejoin:round;stroke:rgb(0%,0%,0%);stroke-opacity:1;stroke-miterlimit:10;" d="M -2.070592 2.392319 C -1.693154 0.954926 -0.848765 0.278724 0.000099806 -0.000106141 C -0.848765 -0.278937 -1.693154 -0.95812 -2.070592 -2.391786 " transform="matrix(5.236775,0,0,-5.239518,339.366665,232.81585)"/>
<path style="fill:none;stroke-width:0.339;stroke-linecap:butt;stroke-linejoin:miter;stroke:rgb(0%,0%,0%);stroke-opacity:1;stroke-miterlimit:10;" d="M 0.00114391 0.000217722 L 4.667661 0.000217722 " transform="matrix(5.236775,0,0,-5.239518,266.622916,247.758953)"/>
<path style=" stroke:none;fill-rule:nonzero;fill:rgb(0%,0%,0%);fill-opacity:1;" d="M 281.515625 264.9375 L 285.054688 264.9375 C 285.792969 264.9375 286.289062 264.9375 286.289062 264.113281 C 286.289062 263.617188 285.792969 263.617188 285.136719 263.617188 L 281.761719 263.617188 C 282.585938 258.925781 282.914062 257.28125 283.160156 256.210938 C 283.324219 255.386719 284.148438 254.644531 285.054688 254.644531 C 285.054688 254.644531 286.042969 254.644531 286.78125 255.058594 C 285.21875 255.550781 285.136719 256.867188 285.136719 257.113281 C 285.136719 257.855469 285.792969 258.433594 286.617188 258.433594 C 287.605469 258.433594 288.675781 257.609375 288.675781 256.210938 C 288.675781 254.5625 286.863281 253.574219 285.054688 253.574219 C 283.410156 253.574219 281.597656 254.5625 280.609375 256.375 C 279.953125 257.691406 279.625 259.335938 278.882812 263.617188 L 276.003906 263.617188 C 275.261719 263.617188 274.769531 263.617188 274.769531 264.359375 C 274.769531 264.9375 275.261719 264.9375 275.921875 264.9375 L 278.636719 264.9375 C 278.554688 265.101562 276.25 278.273438 275.425781 282.222656 C 275.179688 282.964844 274.605469 285.765625 272.792969 285.765625 C 272.792969 285.765625 271.890625 285.765625 271.230469 285.351562 C 272.710938 284.859375 272.792969 283.542969 272.792969 283.292969 C 272.792969 282.554688 272.21875 281.976562 271.394531 281.976562 C 270.40625 281.976562 269.257812 282.800781 269.257812 284.199219 C 269.257812 285.847656 270.984375 286.835938 272.792969 286.835938 C 275.179688 286.835938 276.742188 284.363281 277.238281 283.625 C 278.554688 281.152344 279.375 276.625 279.457031 276.214844 Z M 281.515625 264.9375 "/>
<path style="fill:none;stroke-width:0.39848;stroke-linecap:butt;stroke-linejoin:miter;stroke:rgb(0%,0%,0%);stroke-opacity:1;stroke-miterlimit:10;" d="M 30.311194 8.272363 L 30.311194 25.960954 " transform="matrix(5.236775,0,0,-5.239518,254.091305,232.81585)"/>
<path style="fill:none;stroke-width:0.39848;stroke-linecap:round;stroke-linejoin:round;stroke:rgb(0%,0%,0%);stroke-opacity:1;stroke-miterlimit:10;" d="M -2.07088 2.389334 C -1.693639 0.955663 -0.848947 0.279854 -0.000526387 0.000877341 C -0.848947 -0.278099 -1.693639 -0.957638 -2.07088 -2.391309 " transform="matrix(0,-5.239518,-5.236775,0,412.828813,95.739429)"/>
<path style=" stroke:none;fill-rule:nonzero;fill:rgb(0%,0%,0%);fill-opacity:1;" d="M 436.945312 131.285156 C 436.945312 130.707031 436.535156 129.96875 435.464844 129.96875 C 434.476562 129.96875 433.410156 130.871094 433.410156 131.941406 C 433.410156 132.601562 433.902344 133.34375 434.890625 133.34375 C 435.960938 133.34375 436.945312 132.273438 436.945312 131.285156 Z M 429.460938 149.890625 C 429.375 150.382812 429.128906 150.796875 429.128906 151.453125 C 429.128906 153.183594 430.609375 154.5 432.585938 154.5 C 436.289062 154.5 437.851562 149.476562 437.851562 148.984375 C 437.851562 148.492188 437.441406 148.492188 437.277344 148.492188 C 436.78125 148.492188 436.78125 148.65625 436.617188 149.066406 C 435.792969 152.03125 434.148438 153.511719 432.75 153.511719 C 432.011719 153.511719 431.84375 153.019531 431.84375 152.195312 C 431.84375 151.371094 432.09375 150.714844 432.421875 149.890625 C 432.75 148.902344 433.160156 147.914062 433.574219 147.007812 C 433.902344 146.101562 435.21875 142.726562 435.382812 142.316406 C 435.464844 141.988281 435.546875 141.492188 435.546875 141.164062 C 435.546875 139.433594 434.148438 138.035156 432.09375 138.035156 C 428.472656 138.035156 426.824219 143.058594 426.824219 143.632812 C 426.824219 144.128906 427.320312 144.128906 427.402344 144.128906 C 427.976562 144.128906 427.976562 143.960938 428.058594 143.550781 C 429.046875 140.421875 430.609375 139.105469 432.011719 139.105469 C 432.585938 139.105469 432.914062 139.351562 432.914062 140.339844 C 432.914062 141.164062 432.667969 141.738281 431.761719 144.042969 Z M 429.460938 149.890625 "/>
</g>
</svg>
