<?xml version="1.0" encoding="UTF-8"?>
<svg xmlns="http://www.w3.org/2000/svg" xmlns:xlink="http://www.w3.org/1999/xlink" width="511pt" height="300pt" viewBox="0 0 511 300" version="1.1">
<g id="surface1">
<path style=" stroke:none;fill-rule:nonzero;fill:rgb(0%,0%,0%);fill-opacity:1;" d="M 108.589844 68.707031 C 106.527344 72.257812 104.464844 72.917969 102.238281 73.082031 C 101.578125 73.164062 101.085938 73.164062 101.085938 74.15625 C 101.085938 74.484375 101.332031 74.734375 101.746094 74.734375 C 103.230469 74.734375 104.796875 74.566406 106.28125 74.566406 C 108.011719 74.566406 109.828125 74.734375 111.476562 74.734375 C 111.808594 74.734375 112.46875 74.734375 112.46875 73.742188 C 112.46875 73.164062 112.054688 73.082031 111.640625 73.082031 C 110.488281 73 109.167969 72.585938 109.167969 71.265625 C 109.167969 70.691406 109.496094 70.113281 109.910156 69.371094 L 113.953125 62.683594 L 127.066406 62.683594 C 127.148438 63.757812 127.890625 70.855469 127.890625 71.351562 C 127.890625 72.917969 125.167969 73.082031 124.097656 73.082031 C 123.355469 73.082031 122.859375 73.082031 122.859375 74.15625 C 122.859375 74.734375 123.519531 74.734375 123.601562 74.734375 C 125.746094 74.734375 127.972656 74.566406 130.117188 74.566406 C 131.4375 74.566406 134.738281 74.734375 136.058594 74.734375 C 136.386719 74.734375 136.964844 74.734375 136.964844 73.660156 C 136.964844 73.082031 136.46875 73.082031 135.808594 73.082031 C 132.511719 73.082031 132.511719 72.753906 132.34375 71.265625 L 129.210938 38.503906 C 129.046875 37.515625 129.046875 37.265625 128.222656 37.265625 C 127.3125 37.265625 127.148438 37.597656 126.820312 38.175781 Z M 114.941406 61.035156 L 125.167969 43.785156 L 126.902344 61.035156 Z M 114.941406 61.035156 "/>
<path style=" stroke:none;fill-rule:nonzero;fill:rgb(0%,0%,0%);fill-opacity:1;" d="M 399.5 70.691406 C 399.003906 72.671875 398.921875 73.082031 394.796875 73.082031 C 393.890625 73.082031 393.394531 73.082031 393.394531 74.15625 C 393.394531 74.734375 393.808594 74.734375 394.796875 74.734375 L 413.4375 74.734375 C 421.6875 74.734375 427.875 68.542969 427.875 63.425781 C 427.875 59.632812 424.820312 56.660156 419.789062 56.082031 C 425.234375 55.09375 430.675781 51.214844 430.675781 46.179688 C 430.675781 42.382812 427.214844 39 420.945312 39 L 403.375 39 C 402.386719 39 401.890625 39 401.890625 40.074219 C 401.890625 40.648438 402.386719 40.648438 403.375 40.648438 C 403.457031 40.648438 404.449219 40.648438 405.355469 40.734375 C 406.261719 40.816406 406.757812 40.898438 406.757812 41.558594 C 406.757812 41.804688 406.675781 41.886719 406.511719 42.546875 Z M 407.417969 55.585938 L 410.632812 42.628906 C 411.128906 40.816406 411.210938 40.648438 413.519531 40.648438 L 420.285156 40.648438 C 424.820312 40.648438 425.976562 43.703125 425.976562 46.015625 C 425.976562 50.636719 421.4375 55.585938 415.089844 55.585938 Z M 405.109375 73.082031 C 404.367188 73.082031 404.28125 73.082031 403.953125 73.082031 C 403.375 73 403.210938 72.917969 403.210938 72.503906 C 403.210938 72.339844 403.210938 72.257812 403.539062 71.351562 L 407.085938 56.742188 L 416.984375 56.742188 C 422.015625 56.742188 423.007812 60.621094 423.007812 62.847656 C 423.007812 68.046875 418.386719 73.082031 412.203125 73.082031 Z M 405.109375 73.082031 "/>
<path style=" stroke:none;fill-rule:nonzero;fill:rgb(0%,0%,0%);fill-opacity:1;" d="M 54.355469 240.441406 C 52.292969 243.988281 50.234375 244.648438 48.003906 244.8125 C 47.347656 244.894531 46.851562 244.894531 46.851562 245.886719 C 46.851562 246.214844 47.097656 246.464844 47.511719 246.464844 C 48.996094 246.464844 50.5625 246.300781 52.046875 246.300781 C 53.78125 246.300781 55.59375 246.464844 57.242188 246.464844 C 57.574219 246.464844 58.234375 246.464844 58.234375 245.472656 C 58.234375 244.894531 57.820312 244.8125 57.410156 244.8125 C 56.253906 244.730469 54.933594 244.316406 54.933594 242.996094 C 54.933594 242.421875 55.265625 241.84375 55.675781 241.101562 L 59.71875 234.414062 L 72.832031 234.414062 C 72.914062 235.488281 73.65625 242.585938 73.65625 243.082031 C 73.65625 244.648438 70.9375 244.8125 69.863281 244.8125 C 69.121094 244.8125 68.625 244.8125 68.625 245.886719 C 68.625 246.464844 69.285156 246.464844 69.367188 246.464844 C 71.511719 246.464844 73.742188 246.300781 75.886719 246.300781 C 77.203125 246.300781 80.503906 246.464844 81.824219 246.464844 C 82.152344 246.464844 82.730469 246.464844 82.730469 245.390625 C 82.730469 244.8125 82.234375 244.8125 81.578125 244.8125 C 78.277344 244.8125 78.277344 244.484375 78.113281 242.996094 L 74.976562 210.234375 C 74.8125 209.246094 74.8125 208.996094 73.988281 208.996094 C 73.082031 208.996094 72.914062 209.328125 72.585938 209.90625 Z M 60.707031 232.765625 L 70.9375 215.515625 L 72.667969 232.765625 Z M 60.707031 232.765625 "/>
<path style=" stroke:none;fill-rule:nonzero;fill:rgb(0%,0%,0%);fill-opacity:1;" d="M 107.191406 209.246094 C 107.4375 208.5 107.4375 208.335938 107.4375 208.253906 C 107.4375 207.675781 107.027344 207.179688 106.449219 207.179688 C 106.035156 207.179688 105.707031 207.347656 105.542969 207.675781 L 87.394531 257.523438 C 87.148438 258.265625 87.148438 258.429688 87.148438 258.511719 C 87.148438 259.089844 87.644531 259.585938 88.21875 259.585938 C 88.878906 259.585938 89.046875 259.171875 89.292969 258.265625 Z M 107.191406 209.246094 "/>
<path style=" stroke:none;fill-rule:nonzero;fill:rgb(0%,0%,0%);fill-opacity:1;" d="M 162.71875 228.96875 C 162.71875 227.8125 162.386719 227.316406 161.976562 227.316406 C 161.726562 227.316406 161.316406 227.648438 161.234375 228.636719 C 160.984375 233.671875 157.605469 236.5625 153.890625 236.5625 C 150.59375 236.5625 148.117188 234.332031 145.5625 232.105469 C 142.839844 229.628906 140.117188 227.234375 136.570312 227.234375 C 130.878906 227.234375 127.828125 233.011719 127.828125 237.796875 C 127.828125 239.449219 128.488281 239.449219 128.570312 239.449219 C 129.148438 239.449219 129.3125 238.375 129.3125 238.210938 C 129.476562 232.515625 133.4375 230.207031 136.570312 230.207031 C 139.871094 230.207031 142.425781 232.433594 144.984375 234.664062 C 147.625 237.136719 150.34375 239.53125 153.890625 239.53125 C 159.582031 239.53125 162.71875 233.753906 162.71875 228.96875 Z M 162.71875 228.96875 "/>
<path style=" stroke:none;fill-rule:nonzero;fill:rgb(0%,0%,0%);fill-opacity:1;" d="M 180.542969 239.875 L 184.089844 239.875 C 184.832031 239.875 185.328125 239.875 185.328125 239.046875 C 185.328125 238.554688 184.832031 238.554688 184.171875 238.554688 L 180.792969 238.554688 C 181.617188 233.851562 181.945312 232.199219 182.191406 231.125 C 182.359375 230.300781 183.183594 229.558594 184.089844 229.558594 C 184.089844 229.558594 185.082031 229.558594 185.824219 229.972656 C 184.253906 230.464844 184.171875 231.785156 184.171875 232.035156 C 184.171875 232.777344 184.832031 233.355469 185.65625 233.355469 C 186.648438 233.355469 187.71875 232.527344 187.71875 231.125 C 187.71875 229.476562 185.90625 228.484375 184.089844 228.484375 C 182.441406 228.484375 180.625 229.476562 179.636719 231.292969 C 178.976562 232.613281 178.644531 234.261719 177.902344 238.554688 L 175.015625 238.554688 C 174.273438 238.554688 173.78125 238.554688 173.78125 239.296875 C 173.78125 239.875 174.273438 239.875 174.933594 239.875 L 177.65625 239.875 C 177.574219 240.039062 175.265625 253.242188 174.441406 257.203125 C 174.191406 257.949219 173.613281 260.753906 171.800781 260.753906 C 171.800781 260.753906 170.894531 260.753906 170.234375 260.339844 C 171.71875 259.84375 171.800781 258.523438 171.800781 258.277344 C 171.800781 257.535156 171.222656 256.957031 170.398438 256.957031 C 169.410156 256.957031 168.253906 257.78125 168.253906 259.183594 C 168.253906 260.835938 169.984375 261.824219 171.800781 261.824219 C 174.191406 261.824219 175.757812 259.351562 176.253906 258.609375 C 177.574219 256.132812 178.398438 251.59375 178.480469 251.179688 Z M 180.542969 239.875 "/>
<path style=" stroke:none;fill-rule:nonzero;fill:rgb(0%,0%,0%);fill-opacity:1;" d="M 372.519531 223.355469 L 365.179688 223.933594 L 365.179688 225.503906 C 368.644531 225.503906 369.054688 225.832031 369.054688 228.390625 L 369.054688 242.503906 C 369.054688 244.8125 368.480469 244.8125 365.015625 244.8125 L 365.015625 246.464844 C 366.664062 246.382812 369.46875 246.300781 370.789062 246.300781 C 372.601562 246.300781 374.417969 246.382812 376.230469 246.464844 L 376.230469 244.8125 C 372.769531 244.8125 372.519531 244.566406 372.519531 242.503906 Z M 372.769531 214.195312 C 372.769531 212.546875 371.449219 211.472656 369.964844 211.472656 C 368.3125 211.472656 367.242188 212.875 367.242188 214.195312 C 367.242188 215.679688 368.3125 217.003906 369.964844 217.003906 C 371.449219 217.003906 372.769531 215.929688 372.769531 214.195312 Z M 372.769531 214.195312 "/>
<path style=" stroke:none;fill-rule:nonzero;fill:rgb(0%,0%,0%);fill-opacity:1;" d="M 383.585938 228.472656 L 383.585938 242.503906 C 383.585938 244.8125 383.007812 244.8125 379.460938 244.8125 L 379.460938 246.464844 C 381.277344 246.382812 383.996094 246.300781 385.398438 246.300781 C 386.71875 246.300781 389.441406 246.382812 391.257812 246.464844 L 391.257812 244.8125 C 387.710938 244.8125 387.132812 244.8125 387.132812 242.503906 L 387.132812 232.847656 C 387.132812 227.398438 390.925781 224.511719 394.226562 224.511719 C 397.523438 224.511719 398.101562 227.316406 398.101562 230.289062 L 398.101562 242.503906 C 398.101562 244.8125 397.523438 244.8125 394.058594 244.8125 L 394.058594 246.464844 C 395.875 246.382812 398.515625 246.300781 399.917969 246.300781 C 401.320312 246.300781 404.039062 246.382812 405.773438 246.464844 L 405.773438 244.8125 C 402.308594 244.8125 401.730469 244.8125 401.730469 242.503906 L 401.730469 232.847656 C 401.730469 227.398438 405.441406 224.511719 408.742188 224.511719 C 412.042969 224.511719 412.617188 227.316406 412.617188 230.289062 L 412.617188 242.503906 C 412.617188 244.8125 412.042969 244.8125 408.578125 244.8125 L 408.578125 246.464844 C 410.390625 246.382812 413.03125 246.300781 414.433594 246.300781 C 415.835938 246.300781 418.558594 246.382812 420.289062 246.464844 L 420.289062 244.8125 C 417.566406 244.8125 416.332031 244.8125 416.25 243.246094 L 416.25 233.257812 C 416.25 228.804688 416.25 227.152344 414.597656 225.253906 C 413.855469 224.347656 412.207031 223.355469 409.15625 223.355469 C 404.78125 223.355469 402.472656 226.492188 401.566406 228.472656 C 400.824219 223.933594 396.945312 223.355469 394.636719 223.355469 C 390.761719 223.355469 388.285156 225.585938 386.882812 228.804688 L 386.882812 223.355469 L 379.460938 223.933594 L 379.460938 225.503906 C 383.171875 225.503906 383.585938 225.914062 383.585938 228.472656 Z M 383.585938 228.472656 "/>
<path style=" stroke:none;fill-rule:nonzero;fill:rgb(0%,0%,0%);fill-opacity:1;" d="M 449.328125 225.503906 L 453.78125 225.503906 C 454.855469 225.503906 455.347656 225.503906 455.347656 224.511719 C 455.347656 223.933594 454.855469 223.933594 453.945312 223.933594 L 449.574219 223.933594 L 450.730469 217.910156 C 450.894531 216.835938 451.636719 213.125 451.96875 212.546875 C 452.460938 211.472656 453.289062 210.730469 454.441406 210.730469 C 454.605469 210.730469 456.007812 210.730469 457 211.636719 C 454.691406 211.886719 454.195312 213.699219 454.195312 214.527344 C 454.195312 215.679688 455.101562 216.339844 456.09375 216.339844 C 457.492188 216.339844 458.980469 215.1875 458.980469 213.207031 C 458.980469 210.8125 456.585938 209.574219 454.441406 209.574219 C 452.628906 209.574219 449.328125 210.480469 447.761719 215.679688 C 447.429688 216.835938 447.347656 217.332031 446.027344 223.933594 L 442.480469 223.933594 C 441.492188 223.933594 440.914062 223.933594 440.914062 224.925781 C 440.914062 225.503906 441.328125 225.503906 442.316406 225.503906 L 445.78125 225.503906 L 441.90625 246.214844 C 440.914062 251.25 440.007812 256.035156 437.285156 256.035156 C 437.121094 256.035156 435.800781 256.035156 434.8125 255.128906 C 437.203125 254.964844 437.699219 253.066406 437.699219 252.242188 C 437.699219 251.085938 436.789062 250.425781 435.71875 250.425781 C 434.398438 250.425781 432.914062 251.582031 432.914062 253.5625 C 432.914062 255.953125 435.140625 257.191406 437.285156 257.191406 C 440.171875 257.191406 442.316406 254.140625 443.222656 252.074219 C 444.875 248.855469 446.113281 242.503906 446.195312 242.089844 Z M 449.328125 225.503906 "/>
<path style="fill:none;stroke-width:0.39848;stroke-linecap:butt;stroke-linejoin:miter;stroke:rgb(0%,0%,0%);stroke-opacity:1;stroke-miterlimit:10;" d="M -17.360304 32.697266 L 21.397926 32.697266 " transform="matrix(5.249591,0,0,-5.25234,253.193083,233.385586)"/>
<path style="fill:none;stroke-width:0.39848;stroke-linecap:round;stroke-linejoin:round;stroke:rgb(0%,0%,0%);stroke-opacity:1;stroke-miterlimit:10;" d="M -2.071438 2.39248 C -1.694176 0.954877 -0.849616 0.278839 -0.00133596 -0.0000544694 C -0.849616 -0.278948 -1.694176 -0.957961 -2.071438 -2.391846 " transform="matrix(5.249591,0,0,-5.25234,366.561701,61.648151)"/>
<path style=" stroke:none;fill-rule:nonzero;fill:rgb(0%,0%,0%);fill-opacity:1;" d="M 267.511719 27.773438 L 271.058594 27.773438 C 271.800781 27.773438 272.296875 27.773438 272.296875 26.949219 C 272.296875 26.453125 271.800781 26.453125 271.144531 26.453125 L 267.761719 26.453125 C 268.585938 21.75 268.914062 20.097656 269.164062 19.027344 C 269.328125 18.199219 270.152344 17.457031 271.058594 17.457031 C 271.058594 17.457031 272.050781 17.457031 272.792969 17.871094 C 271.226562 18.367188 271.144531 19.6875 271.144531 19.933594 C 271.144531 20.675781 271.800781 21.253906 272.628906 21.253906 C 273.617188 21.253906 274.691406 20.429688 274.691406 19.027344 C 274.691406 17.375 272.875 16.386719 271.058594 16.386719 C 269.410156 16.386719 267.597656 17.375 266.605469 19.191406 C 265.945312 20.511719 265.617188 22.164062 264.875 26.453125 L 261.988281 26.453125 C 261.246094 26.453125 260.75 26.453125 260.75 27.195312 C 260.75 27.773438 261.246094 27.773438 261.90625 27.773438 L 264.625 27.773438 C 264.542969 27.9375 262.234375 41.144531 261.410156 45.105469 C 261.164062 45.847656 260.585938 48.652344 258.769531 48.652344 C 258.769531 48.652344 257.863281 48.652344 257.203125 48.242188 C 258.6875 47.746094 258.769531 46.425781 258.769531 46.175781 C 258.769531 45.433594 258.191406 44.855469 257.367188 44.855469 C 256.378906 44.855469 255.222656 45.683594 255.222656 47.085938 C 255.222656 48.734375 256.957031 49.726562 258.769531 49.726562 C 261.164062 49.726562 262.730469 47.25 263.222656 46.507812 C 264.542969 44.03125 265.367188 39.492188 265.453125 39.082031 Z M 267.511719 27.773438 "/>
<path style="fill:none;stroke-width:0.39848;stroke-linecap:butt;stroke-linejoin:miter;stroke:rgb(0%,0%,0%);stroke-opacity:1;stroke-miterlimit:10;" d="M -25.585648 26.361548 L -25.585648 9.223352 " transform="matrix(5.249591,0,0,-5.25234,253.193083,233.385586)"/>
<path style="fill:none;stroke-width:0.39848;stroke-linecap:round;stroke-linejoin:round;stroke:rgb(0%,0%,0%);stroke-opacity:1;stroke-miterlimit:10;" d="M -2.0708 2.391579 C -1.693736 0.957688 -0.849618 0.278319 -0.00103785 -0.00072034 C -0.849618 -0.27976 -1.693736 -0.955408 -2.0708 -2.389299 " transform="matrix(0,5.25234,5.249591,0,118.882688,185.978107)"/>
<path style=" stroke:none;fill-rule:nonzero;fill:rgb(0%,0%,0%);fill-opacity:1;" d="M 92.191406 135.574219 L 96.5625 135.574219 C 95.984375 137.71875 95.160156 141.101562 95.160156 143.992188 C 95.160156 145.476562 95.40625 146.464844 95.570312 147.210938 C 96.148438 149.105469 96.644531 149.191406 97.222656 149.191406 C 98.128906 149.191406 98.953125 148.445312 98.953125 147.539062 C 98.953125 147.292969 98.871094 147.125 98.707031 146.796875 C 97.964844 145.394531 97.304688 143.332031 97.304688 140.359375 C 97.304688 139.617188 97.304688 138.132812 97.796875 135.574219 L 102.417969 135.574219 C 103.078125 135.574219 103.40625 135.574219 103.738281 135.242188 C 104.316406 134.914062 104.398438 134.335938 104.398438 134.171875 C 104.398438 133.097656 103.40625 133.097656 102.828125 133.097656 L 88.972656 133.097656 C 87.488281 133.097656 86.5 133.425781 84.847656 134.914062 C 83.859375 135.738281 82.457031 137.71875 82.457031 138.046875 C 82.457031 138.542969 82.953125 138.542969 83.117188 138.542969 C 83.445312 138.542969 83.527344 138.460938 83.777344 138.132812 C 85.589844 135.574219 87.902344 135.574219 88.644531 135.574219 L 90.953125 135.574219 C 89.796875 139.617188 87.816406 143.90625 86.664062 146.136719 C 86.5 146.550781 86.085938 147.375 86.003906 147.539062 C 86.003906 147.621094 85.921875 147.785156 85.921875 148.035156 C 85.921875 148.613281 86.332031 149.191406 87.15625 149.191406 C 88.644531 149.191406 89.054688 147.539062 89.960938 144.238281 Z M 92.191406 135.574219 "/>
<path style="fill:none;stroke-width:0.39848;stroke-linecap:butt;stroke-linejoin:miter;stroke:rgb(0%,0%,0%);stroke-opacity:1;stroke-miterlimit:10;" d="M -7.029141 0.000528101 L 16.083524 0.000528101 " transform="matrix(5.249591,0,0,-5.25234,253.193083,233.385586)"/>
<path style="fill:none;stroke-width:0.39848;stroke-linecap:round;stroke-linejoin:round;stroke:rgb(0%,0%,0%);stroke-opacity:1;stroke-miterlimit:10;" d="M -2.070358 2.392319 C -1.693097 0.954716 -0.848537 0.279422 -0.000256464 0.000528101 C -0.848537 -0.278365 -1.693097 -0.958122 -2.070358 -2.392007 " transform="matrix(5.249591,0,0,-5.25234,338.677128,233.385586)"/>
<path style="fill:none;stroke-width:0.339;stroke-linecap:butt;stroke-linejoin:miter;stroke:rgb(0%,0%,0%);stroke-opacity:1;stroke-miterlimit:10;" d="M 0.00121162 0.000377179 L 4.667498 0.000377179 " transform="matrix(5.249591,0,0,-5.25234,265.755358,248.365262)"/>
<path style=" stroke:none;fill-rule:nonzero;fill:rgb(0%,0%,0%);fill-opacity:1;" d="M 280.683594 265.585938 L 284.230469 265.585938 C 284.972656 265.585938 285.46875 265.585938 285.46875 264.757812 C 285.46875 264.265625 284.972656 264.265625 284.3125 264.265625 L 280.933594 264.265625 C 281.757812 259.558594 282.085938 257.910156 282.335938 256.835938 C 282.5 256.011719 283.324219 255.269531 284.230469 255.269531 C 284.230469 255.269531 285.222656 255.269531 285.964844 255.679688 C 284.398438 256.175781 284.3125 257.496094 284.3125 257.746094 C 284.3125 258.488281 284.972656 259.066406 285.796875 259.066406 C 286.789062 259.066406 287.859375 258.238281 287.859375 256.835938 C 287.859375 255.1875 286.046875 254.195312 284.230469 254.195312 C 282.582031 254.195312 280.765625 255.1875 279.777344 257 C 279.117188 258.320312 278.789062 259.972656 278.046875 264.265625 L 275.160156 264.265625 C 274.417969 264.265625 273.921875 264.265625 273.921875 265.007812 C 273.921875 265.585938 274.417969 265.585938 275.074219 265.585938 L 277.796875 265.585938 C 277.714844 265.75 275.40625 278.953125 274.582031 282.914062 C 274.332031 283.65625 273.757812 286.464844 271.941406 286.464844 C 271.941406 286.464844 271.035156 286.464844 270.375 286.050781 C 271.859375 285.554688 271.941406 284.234375 271.941406 283.988281 C 271.941406 283.246094 271.363281 282.667969 270.539062 282.667969 C 269.550781 282.667969 268.394531 283.492188 268.394531 284.894531 C 268.394531 286.546875 270.128906 287.535156 271.941406 287.535156 C 274.332031 287.535156 275.902344 285.058594 276.394531 284.316406 C 277.714844 281.84375 278.539062 277.304688 278.621094 276.890625 Z M 280.683594 265.585938 "/>
<path style="fill:none;stroke-width:0.39848;stroke-linecap:butt;stroke-linejoin:miter;stroke:rgb(0%,0%,0%);stroke-opacity:1;stroke-miterlimit:10;" d="M 30.310824 8.272883 L 30.310824 25.960685 " transform="matrix(5.249591,0,0,-5.25234,253.193083,233.385586)"/>
<path style="fill:none;stroke-width:0.39848;stroke-linecap:round;stroke-linejoin:round;stroke:rgb(0%,0%,0%);stroke-opacity:1;stroke-miterlimit:10;" d="M -2.071046 2.38908 C -1.693982 0.955933 -0.849121 0.280285 -0.000540504 0.00124532 C -0.849121 -0.277794 -1.693982 -0.957163 -2.071046 -2.391054 " transform="matrix(0,-5.25234,-5.249591,0,412.319037,95.973724)"/>
<path style=" stroke:none;fill-rule:nonzero;fill:rgb(0%,0%,0%);fill-opacity:1;" d="M 436.496094 131.605469 C 436.496094 131.027344 436.082031 130.285156 435.011719 130.285156 C 434.023438 130.285156 432.949219 131.191406 432.949219 132.265625 C 432.949219 132.925781 433.445312 133.667969 434.433594 133.667969 C 435.507812 133.667969 436.496094 132.597656 436.496094 131.605469 Z M 428.988281 150.257812 C 428.90625 150.75 428.660156 151.164062 428.660156 151.824219 C 428.660156 153.558594 430.144531 154.878906 432.125 154.878906 C 435.835938 154.878906 437.402344 149.84375 437.402344 149.347656 C 437.402344 148.855469 436.992188 148.855469 436.824219 148.855469 C 436.332031 148.855469 436.332031 149.019531 436.167969 149.429688 C 435.339844 152.402344 433.691406 153.886719 432.289062 153.886719 C 431.546875 153.886719 431.382812 153.390625 431.382812 152.566406 C 431.382812 151.742188 431.628906 151.082031 431.960938 150.257812 C 432.289062 149.265625 432.703125 148.277344 433.113281 147.367188 C 433.445312 146.460938 434.765625 143.078125 434.929688 142.664062 C 435.011719 142.335938 435.09375 141.839844 435.09375 141.507812 C 435.09375 139.777344 433.691406 138.371094 431.628906 138.371094 C 428 138.371094 426.351562 143.40625 426.351562 143.984375 C 426.351562 144.480469 426.84375 144.480469 426.929688 144.480469 C 427.503906 144.480469 427.503906 144.316406 427.589844 143.902344 C 428.578125 140.765625 430.144531 139.445312 431.546875 139.445312 C 432.125 139.445312 432.453125 139.691406 432.453125 140.683594 C 432.453125 141.507812 432.207031 142.085938 431.300781 144.398438 Z M 428.988281 150.257812 "/>
</g>
</svg>
