<?xml version="1.0" encoding="UTF-8"?>
<svg xmlns="http://www.w3.org/2000/svg" xmlns:xlink="http://www.w3.org/1999/xlink" width="305pt" height="300pt" viewBox="0 0 305 300" version="1.1">
<defs>
<clipPath id="clip1">
  <path d="M 0.0117188 66 L 40 66 L 40 229 L 0.0117188 229 Z M 0.0117188 66 "/>
</clipPath>
<clipPath id="clip2">
  <path d="M 25.628906 224.359375 L 182 224.359375 L 182 296.824219 L 25.628906 296.824219 Z M 25.628906 224.359375 "/>
</clipPath>
</defs>
<g id="surface1">
<path style=" stroke:none;fill-rule:nonzero;fill:rgb(0%,0%,0%);fill-opacity:1;" d="M 270.753906 143.296875 C 270.953125 142.445312 271.703125 139.539062 273.90625 139.539062 C 274.058594 139.539062 274.808594 139.539062 275.507812 139.941406 C 274.609375 140.140625 273.957031 140.890625 273.957031 141.695312 C 273.957031 142.195312 274.308594 142.796875 275.160156 142.796875 C 275.859375 142.796875 276.910156 142.195312 276.910156 140.941406 C 276.910156 139.289062 275.007812 138.839844 273.957031 138.839844 C 272.105469 138.839844 271.003906 140.542969 270.601562 141.242188 C 269.800781 139.1875 268.101562 138.839844 267.199219 138.839844 C 263.894531 138.839844 262.09375 142.945312 262.09375 143.746094 C 262.09375 144.046875 262.394531 144.046875 262.492188 144.046875 C 262.746094 144.046875 262.84375 143.996094 262.894531 143.695312 C 263.945312 140.339844 266.046875 139.539062 267.148438 139.539062 C 267.75 139.539062 268.851562 139.839844 268.851562 141.695312 C 268.851562 142.644531 268.300781 144.796875 267.148438 149.207031 C 266.597656 151.160156 265.496094 152.511719 264.097656 152.511719 C 263.945312 152.511719 263.195312 152.511719 262.542969 152.109375 C 263.34375 151.960938 264.046875 151.257812 264.046875 150.40625 C 264.046875 149.554688 263.34375 149.253906 262.84375 149.253906 C 261.894531 149.253906 261.09375 150.105469 261.09375 151.109375 C 261.09375 152.5625 262.695312 153.210938 264.097656 153.210938 C 266.199219 153.210938 267.300781 151.007812 267.398438 150.808594 C 267.800781 151.960938 268.953125 153.210938 270.855469 153.210938 C 274.109375 153.210938 275.910156 149.105469 275.910156 148.304688 C 275.910156 148.003906 275.609375 148.003906 275.507812 148.003906 C 275.257812 148.003906 275.160156 148.152344 275.109375 148.355469 C 274.058594 151.757812 271.90625 152.511719 270.902344 152.511719 C 269.652344 152.511719 269.152344 151.507812 269.152344 150.40625 C 269.152344 149.707031 269.351562 149.003906 269.703125 147.652344 Z M 270.753906 143.296875 "/>
<path style=" stroke:none;fill-rule:nonzero;fill:rgb(0%,0%,0%);fill-opacity:1;" d="M 285.707031 143.496094 C 285.707031 142.894531 285.707031 142.894531 285.054688 142.894531 C 283.65625 144.296875 281.601562 144.296875 280.699219 144.296875 L 280.699219 145.097656 C 281.25 145.097656 282.703125 145.097656 283.953125 144.496094 L 283.953125 155.816406 C 283.953125 156.515625 283.953125 156.816406 281.703125 156.816406 L 280.851562 156.816406 L 280.851562 157.617188 C 281.25 157.617188 284.003906 157.515625 284.804688 157.515625 C 285.507812 157.515625 288.308594 157.617188 288.8125 157.617188 L 288.8125 156.816406 L 287.960938 156.816406 C 285.707031 156.816406 285.707031 156.515625 285.707031 155.816406 Z M 285.707031 143.496094 "/>
<path style="fill:none;stroke-width:0.3985;stroke-linecap:butt;stroke-linejoin:miter;stroke:rgb(0%,0%,0%);stroke-opacity:1;stroke-miterlimit:10;" d="M 42.107118 5.916702 C 40.139269 19.914244 31.342906 32.019662 18.997781 38.041061 " transform="matrix(3.180025,0,0,-3.181362,141.137353,148.416923)"/>
<path style="fill:none;stroke-width:0.3985;stroke-linecap:round;stroke-linejoin:round;stroke:rgb(0%,0%,0%);stroke-opacity:1;stroke-miterlimit:10;" d="M -2.071626 2.391365 C -1.694432 0.955941 -0.85013 0.280881 -0.00187827 -0.000000300568 C -0.852452 -0.278664 -1.691676 -0.954939 -2.073031 -2.393966 " transform="matrix(-2.866856,-1.398878,-1.39829,2.868061,200.982896,27.114561)"/>
<path style=" stroke:none;fill-rule:nonzero;fill:rgb(0%,0%,0%);fill-opacity:1;" d="M 177.324219 14.644531 C 177.523438 13.792969 178.277344 10.890625 180.476562 10.890625 C 180.628906 10.890625 181.378906 10.890625 182.082031 11.289062 C 181.179688 11.488281 180.527344 12.242188 180.527344 13.042969 C 180.527344 13.542969 180.878906 14.144531 181.730469 14.144531 C 182.429688 14.144531 183.480469 13.542969 183.480469 12.292969 C 183.480469 10.636719 181.578125 10.1875 180.527344 10.1875 C 178.675781 10.1875 177.574219 11.890625 177.175781 12.589844 C 176.375 10.539062 174.671875 10.1875 173.769531 10.1875 C 170.464844 10.1875 168.664062 14.292969 168.664062 15.09375 C 168.664062 15.394531 168.964844 15.394531 169.066406 15.394531 C 169.316406 15.394531 169.414062 15.347656 169.464844 15.046875 C 170.515625 11.691406 172.617188 10.890625 173.71875 10.890625 C 174.320312 10.890625 175.421875 11.1875 175.421875 13.042969 C 175.421875 13.992188 174.871094 16.148438 173.71875 20.554688 C 173.167969 22.507812 172.066406 23.859375 170.667969 23.859375 C 170.515625 23.859375 169.765625 23.859375 169.113281 23.457031 C 169.914062 23.308594 170.617188 22.609375 170.617188 21.757812 C 170.617188 20.90625 169.914062 20.605469 169.414062 20.605469 C 168.464844 20.605469 167.664062 21.457031 167.664062 22.457031 C 167.664062 23.910156 169.265625 24.5625 170.667969 24.5625 C 172.769531 24.5625 173.871094 22.355469 173.96875 22.15625 C 174.371094 23.308594 175.523438 24.5625 177.425781 24.5625 C 180.679688 24.5625 182.480469 20.453125 182.480469 19.652344 C 182.480469 19.351562 182.179688 19.351562 182.082031 19.351562 C 181.828125 19.351562 181.730469 19.503906 181.679688 19.703125 C 180.628906 23.109375 178.476562 23.859375 177.476562 23.859375 C 176.222656 23.859375 175.722656 22.859375 175.722656 21.757812 C 175.722656 21.054688 175.921875 20.355469 176.273438 19 Z M 177.324219 14.644531 "/>
<path style=" stroke:none;fill-rule:nonzero;fill:rgb(0%,0%,0%);fill-opacity:1;" d="M 196.082031 24.910156 L 195.332031 24.910156 C 195.230469 25.410156 195.03125 26.710938 194.730469 26.964844 C 194.582031 27.0625 192.828125 27.0625 192.527344 27.0625 L 188.472656 27.0625 C 190.777344 25.011719 191.578125 24.410156 192.878906 23.355469 C 194.53125 22.054688 196.082031 20.652344 196.082031 18.550781 C 196.082031 15.894531 193.730469 14.242188 190.875 14.242188 C 188.121094 14.242188 186.269531 16.144531 186.269531 18.199219 C 186.269531 19.351562 187.222656 19.449219 187.421875 19.449219 C 187.972656 19.449219 188.625 19.050781 188.625 18.25 C 188.625 17.898438 188.472656 17.097656 187.320312 17.097656 C 187.972656 15.542969 189.523438 15.042969 190.527344 15.042969 C 192.777344 15.042969 193.929688 16.746094 193.929688 18.550781 C 193.929688 20.503906 192.527344 22.003906 191.828125 22.804688 L 186.472656 28.113281 C 186.269531 28.316406 186.269531 28.367188 186.269531 28.964844 L 195.382812 28.964844 Z M 196.082031 24.910156 "/>
<path style="fill:none;stroke-width:0.3985;stroke-linecap:butt;stroke-linejoin:miter;stroke:rgb(0%,0%,0%);stroke-opacity:1;stroke-miterlimit:10;" d="M 7.384765 41.874423 C -6.535131 44.330132 -20.769491 39.706031 -30.309017 29.824258 " transform="matrix(3.180025,0,0,-3.181362,141.137353,148.416923)"/>
<path style="fill:none;stroke-width:0.3985;stroke-linecap:round;stroke-linejoin:round;stroke:rgb(0%,0%,0%);stroke-opacity:1;stroke-miterlimit:10;" d="M -2.072003 2.392471 C -1.694043 0.955869 -0.849162 0.278381 -0.00172727 0.000117885 C -0.851 -0.280219 -1.692376 -0.956503 -2.072239 -2.39271 " transform="matrix(-2.215271,2.294939,2.293975,2.216202,44.312309,53.991984)"/>
<path style=" stroke:none;fill-rule:nonzero;fill:rgb(0%,0%,0%);fill-opacity:1;" d="M 26.148438 63.789062 C 26.347656 62.9375 27.101562 60.03125 29.304688 60.03125 C 29.453125 60.03125 30.203125 60.03125 30.90625 60.433594 C 30.003906 60.632812 29.351562 61.382812 29.351562 62.183594 C 29.351562 62.6875 29.703125 63.285156 30.554688 63.285156 C 31.253906 63.285156 32.304688 62.6875 32.304688 61.433594 C 32.304688 59.78125 30.402344 59.332031 29.351562 59.332031 C 27.5 59.332031 26.398438 61.03125 26 61.734375 C 25.199219 59.679688 23.496094 59.332031 22.59375 59.332031 C 19.292969 59.332031 17.488281 63.4375 17.488281 64.238281 C 17.488281 64.539062 17.789062 64.539062 17.890625 64.539062 C 18.140625 64.539062 18.238281 64.488281 18.289062 64.1875 C 19.339844 60.832031 21.445312 60.03125 22.546875 60.03125 C 23.144531 60.03125 24.246094 60.332031 24.246094 62.183594 C 24.246094 63.136719 23.695312 65.289062 22.546875 69.695312 C 21.996094 71.648438 20.894531 73.003906 19.492188 73.003906 C 19.339844 73.003906 18.589844 73.003906 17.941406 72.601562 C 18.742188 72.453125 19.441406 71.75 19.441406 70.898438 C 19.441406 70.046875 18.742188 69.746094 18.238281 69.746094 C 17.289062 69.746094 16.488281 70.597656 16.488281 71.601562 C 16.488281 73.050781 18.089844 73.703125 19.492188 73.703125 C 21.59375 73.703125 22.695312 71.5 22.796875 71.300781 C 23.195312 72.453125 24.347656 73.703125 26.25 73.703125 C 29.503906 73.703125 31.304688 69.597656 31.304688 68.796875 C 31.304688 68.496094 31.003906 68.496094 30.90625 68.496094 C 30.65625 68.496094 30.554688 68.644531 30.503906 68.84375 C 29.453125 72.25 27.300781 73.003906 26.300781 73.003906 C 25.046875 73.003906 24.546875 72 24.546875 70.898438 C 24.546875 70.199219 24.746094 69.496094 25.097656 68.144531 Z M 26.148438 63.789062 "/>
<path style=" stroke:none;fill-rule:nonzero;fill:rgb(0%,0%,0%);fill-opacity:1;" d="M 39.75 70.695312 C 41.453125 70.695312 42.703125 71.894531 42.703125 74.25 C 42.703125 77.003906 41.101562 77.855469 39.851562 77.855469 C 38.949219 77.855469 36.996094 77.605469 36.046875 76.304688 C 37.097656 76.253906 37.347656 75.5 37.347656 75.050781 C 37.347656 74.351562 36.796875 73.847656 36.148438 73.847656 C 35.496094 73.847656 34.894531 74.199219 34.894531 75.101562 C 34.894531 77.203125 37.199219 78.554688 39.902344 78.554688 C 42.953125 78.554688 45.105469 76.503906 45.105469 74.25 C 45.105469 72.546875 43.65625 70.792969 41.253906 70.292969 C 43.554688 69.441406 44.40625 67.789062 44.40625 66.4375 C 44.40625 64.683594 42.402344 63.382812 39.902344 63.382812 C 37.449219 63.382812 35.597656 64.585938 35.597656 66.335938 C 35.597656 67.089844 36.046875 67.539062 36.746094 67.539062 C 37.398438 67.539062 37.847656 67.039062 37.847656 66.386719 C 37.847656 65.734375 37.398438 65.285156 36.746094 65.234375 C 37.5 64.285156 39.050781 64.03125 39.851562 64.03125 C 40.851562 64.03125 42.253906 64.484375 42.253906 66.4375 C 42.253906 67.386719 41.953125 68.390625 41.351562 69.089844 C 40.652344 69.941406 40 69.941406 38.898438 70.042969 C 38.347656 70.09375 38.300781 70.09375 38.199219 70.09375 C 38.148438 70.09375 37.949219 70.144531 37.949219 70.394531 C 37.949219 70.695312 38.148438 70.695312 38.550781 70.695312 Z M 39.75 70.695312 "/>
<g clip-path="url(#clip1)" clip-rule="nonzero">
<path style="fill:none;stroke-width:0.3985;stroke-linecap:butt;stroke-linejoin:miter;stroke:rgb(0%,0%,0%);stroke-opacity:1;stroke-miterlimit:10;" d="M -37.542892 19.96213 C -44.177322 7.482217 -44.177322 -7.484102 -37.732061 -19.609166 " transform="matrix(3.180025,0,0,-3.181362,141.137353,148.416923)"/>
</g>
<path style="fill:none;stroke-width:0.3985;stroke-linecap:round;stroke-linejoin:round;stroke:rgb(0%,0%,0%);stroke-opacity:1;stroke-miterlimit:10;" d="M -2.072435 2.392702 C -1.690892 0.95671 -0.850019 0.27745 -0.000130079 -0.000657994 C -0.850852 -0.278195 -1.694132 -0.957291 -2.072237 -2.389762 " transform="matrix(1.493975,2.810987,2.809806,-1.494603,21.451262,211.362663)"/>
<path style=" stroke:none;fill-rule:nonzero;fill:rgb(0%,0%,0%);fill-opacity:1;" d="M 26.148438 222.808594 C 26.347656 221.957031 27.101562 219.050781 29.304688 219.050781 C 29.453125 219.050781 30.203125 219.050781 30.90625 219.453125 C 30.003906 219.652344 29.351562 220.402344 29.351562 221.207031 C 29.351562 221.707031 29.703125 222.308594 30.554688 222.308594 C 31.253906 222.308594 32.304688 221.707031 32.304688 220.453125 C 32.304688 218.800781 30.402344 218.351562 29.351562 218.351562 C 27.5 218.351562 26.398438 220.054688 26 220.753906 C 25.199219 218.703125 23.496094 218.351562 22.59375 218.351562 C 19.292969 218.351562 17.488281 222.457031 17.488281 223.257812 C 17.488281 223.558594 17.789062 223.558594 17.890625 223.558594 C 18.140625 223.558594 18.238281 223.507812 18.289062 223.207031 C 19.339844 219.851562 21.445312 219.050781 22.546875 219.050781 C 23.144531 219.050781 24.246094 219.351562 24.246094 221.207031 C 24.246094 222.15625 23.695312 224.308594 22.546875 228.71875 C 21.996094 230.671875 20.894531 232.023438 19.492188 232.023438 C 19.339844 232.023438 18.589844 232.023438 17.941406 231.621094 C 18.742188 231.472656 19.441406 230.769531 19.441406 229.917969 C 19.441406 229.066406 18.742188 228.765625 18.238281 228.765625 C 17.289062 228.765625 16.488281 229.617188 16.488281 230.621094 C 16.488281 232.074219 18.089844 232.722656 19.492188 232.722656 C 21.59375 232.722656 22.695312 230.519531 22.796875 230.320312 C 23.195312 231.472656 24.347656 232.722656 26.25 232.722656 C 29.503906 232.722656 31.304688 228.617188 31.304688 227.816406 C 31.304688 227.515625 31.003906 227.515625 30.90625 227.515625 C 30.65625 227.515625 30.554688 227.664062 30.503906 227.867188 C 29.453125 231.269531 27.300781 232.023438 26.300781 232.023438 C 25.046875 232.023438 24.546875 231.019531 24.546875 229.917969 C 24.546875 229.21875 24.746094 228.515625 25.097656 227.164062 Z M 26.148438 222.808594 "/>
<path style=" stroke:none;fill-rule:nonzero;fill:rgb(0%,0%,0%);fill-opacity:1;" d="M 45.40625 233.46875 L 45.40625 232.667969 L 42.953125 232.667969 L 42.953125 222.804688 C 42.953125 222.351562 42.953125 222.152344 42.453125 222.152344 C 42.203125 222.152344 42.105469 222.152344 41.902344 222.503906 L 34.542969 232.667969 L 34.542969 233.46875 L 41.101562 233.46875 L 41.101562 235.324219 C 41.101562 236.074219 41.101562 236.324219 39.300781 236.324219 L 38.699219 236.324219 L 38.699219 237.125 C 39.800781 237.074219 41.203125 237.027344 42.003906 237.027344 C 42.855469 237.027344 44.257812 237.074219 45.359375 237.125 L 45.359375 236.324219 L 44.757812 236.324219 C 42.953125 236.324219 42.953125 236.074219 42.953125 235.324219 L 42.953125 233.46875 Z M 41.253906 224.554688 L 41.253906 232.667969 L 35.394531 232.667969 Z M 41.253906 224.554688 "/>
<g clip-path="url(#clip2)" clip-rule="nonzero">
<path style="fill:none;stroke-width:0.3985;stroke-linecap:butt;stroke-linejoin:miter;stroke:rgb(0%,0%,0%);stroke-opacity:1;stroke-miterlimit:10;" d="M -30.585401 -29.537598 C -20.769491 -39.703005 -6.535131 -44.327105 6.990458 -41.942612 " transform="matrix(3.180025,0,0,-3.181362,141.137353,148.416923)"/>
</g>
<path style="fill:none;stroke-width:0.3985;stroke-linecap:round;stroke-linejoin:round;stroke:rgb(0%,0%,0%);stroke-opacity:1;stroke-miterlimit:10;" d="M -2.072794 2.391624 C -1.695372 0.956317 -0.847714 0.280041 -0.000219536 -0.00139403 C -0.851492 -0.278507 -1.692577 -0.95721 -2.073661 -2.39081 " transform="matrix(3.13506,-0.552952,-0.55272,-3.136378,163.992105,281.745506)"/>
<path style=" stroke:none;fill-rule:nonzero;fill:rgb(0%,0%,0%);fill-opacity:1;" d="M 177.324219 271.945312 C 177.523438 271.097656 178.277344 268.191406 180.476562 268.191406 C 180.628906 268.191406 181.378906 268.191406 182.082031 268.589844 C 181.179688 268.792969 180.527344 269.542969 180.527344 270.34375 C 180.527344 270.84375 180.878906 271.445312 181.730469 271.445312 C 182.429688 271.445312 183.480469 270.84375 183.480469 269.59375 C 183.480469 267.941406 181.578125 267.488281 180.527344 267.488281 C 178.675781 267.488281 177.574219 269.191406 177.175781 269.894531 C 176.375 267.839844 174.671875 267.488281 173.769531 267.488281 C 170.464844 267.488281 168.664062 271.597656 168.664062 272.398438 C 168.664062 272.699219 168.964844 272.699219 169.066406 272.699219 C 169.316406 272.699219 169.414062 272.648438 169.464844 272.347656 C 170.515625 268.992188 172.617188 268.191406 173.71875 268.191406 C 174.320312 268.191406 175.421875 268.492188 175.421875 270.34375 C 175.421875 271.296875 174.871094 273.449219 173.71875 277.855469 C 173.167969 279.808594 172.066406 281.160156 170.667969 281.160156 C 170.515625 281.160156 169.765625 281.160156 169.113281 280.761719 C 169.914062 280.609375 170.617188 279.910156 170.617188 279.058594 C 170.617188 278.207031 169.914062 277.90625 169.414062 277.90625 C 168.464844 277.90625 167.664062 278.757812 167.664062 279.757812 C 167.664062 281.210938 169.265625 281.863281 170.667969 281.863281 C 172.769531 281.863281 173.871094 279.660156 173.96875 279.460938 C 174.371094 280.609375 175.523438 281.863281 177.425781 281.863281 C 180.679688 281.863281 182.480469 277.757812 182.480469 276.957031 C 182.480469 276.65625 182.179688 276.65625 182.082031 276.65625 C 181.828125 276.65625 181.730469 276.804688 181.679688 277.003906 C 180.628906 280.410156 178.476562 281.160156 177.476562 281.160156 C 176.222656 281.160156 175.722656 280.160156 175.722656 279.058594 C 175.722656 278.355469 175.921875 277.65625 176.273438 276.304688 Z M 177.324219 271.945312 "/>
<path style=" stroke:none;fill-rule:nonzero;fill:rgb(0%,0%,0%);fill-opacity:1;" d="M 188.324219 273.898438 C 189.425781 274.199219 190.125 274.199219 190.476562 274.199219 C 193.378906 274.199219 195.132812 272.195312 195.132812 271.84375 C 195.132812 271.59375 194.980469 271.546875 194.832031 271.546875 C 194.78125 271.546875 194.78125 271.546875 194.679688 271.59375 C 194.128906 271.796875 192.980469 272.246094 191.328125 272.246094 C 190.726562 272.246094 189.523438 272.195312 188.074219 271.644531 C 187.871094 271.546875 187.824219 271.546875 187.773438 271.546875 C 187.523438 271.546875 187.523438 271.796875 187.523438 272.144531 L 187.523438 278.65625 C 187.523438 279.058594 187.523438 279.308594 187.871094 279.308594 C 188.074219 279.308594 188.074219 279.257812 188.324219 279.007812 C 189.273438 277.804688 190.625 277.605469 191.375 277.605469 C 192.726562 277.605469 193.328125 278.65625 193.429688 278.855469 C 193.828125 279.609375 193.980469 280.410156 193.980469 281.710938 C 193.980469 282.363281 193.980469 283.714844 193.277344 284.664062 C 192.726562 285.46875 191.777344 286.019531 190.726562 286.019531 C 189.273438 286.019531 187.773438 285.21875 187.222656 283.714844 C 188.074219 283.816406 188.472656 283.265625 188.472656 282.664062 C 188.472656 281.710938 187.671875 281.511719 187.371094 281.511719 C 187.320312 281.511719 186.269531 281.511719 186.269531 282.710938 C 186.269531 284.714844 188.074219 286.71875 190.726562 286.71875 C 193.578125 286.71875 196.082031 284.617188 196.082031 281.8125 C 196.082031 279.308594 194.179688 277.003906 191.425781 277.003906 C 190.425781 277.003906 189.273438 277.253906 188.324219 278.105469 Z M 188.324219 273.898438 "/>
<path style="fill:none;stroke-width:0.3985;stroke-linecap:butt;stroke-linejoin:miter;stroke:rgb(0%,0%,0%);stroke-opacity:1;stroke-miterlimit:10;" d="M 18.639097 -38.216073 C 31.342906 -32.021547 40.139269 -19.916129 42.051842 -6.311501 " transform="matrix(3.180025,0,0,-3.181362,141.137353,148.416923)"/>
<path style="fill:none;stroke-width:0.3985;stroke-linecap:round;stroke-linejoin:round;stroke:rgb(0%,0%,0%);stroke-opacity:1;stroke-miterlimit:10;" d="M -2.071615 2.390177 C -1.695399 0.957107 -0.848528 0.277338 0.00131718 -0.000139572 C -0.849759 -0.278513 -1.692868 -0.95764 -2.071786 -2.390164 " transform="matrix(0.442596,-3.150631,-3.149308,-0.442782,274.948196,167.871276)"/>
</g>
</svg>
