<?xml version="1.0" encoding="UTF-8"?>
<svg xmlns="http://www.w3.org/2000/svg" xmlns:xlink="http://www.w3.org/1999/xlink" width="305px" height="300px" viewBox="0 0 305 300" version="1.1">
<defs>
<clipPath id="clip1">
  <path d="M 0.0117188 67 L 40 67 L 40 230 L 0.0117188 230 Z M 0.0117188 67 "/>
</clipPath>
<clipPath id="clip2">
  <path d="M 25.605469 224.757812 L 182 224.757812 L 182 297.148438 L 25.605469 297.148438 Z M 25.605469 224.757812 "/>
</clipPath>
</defs>
<g id="surface1">
<path style=" stroke:none;fill-rule:nonzero;fill:rgb(0%,0%,0%);fill-opacity:1;" d="M 270.472656 143.777344 C 270.671875 142.929688 271.421875 140.027344 273.621094 140.027344 C 273.773438 140.027344 274.523438 140.027344 275.222656 140.425781 C 274.324219 140.625 273.671875 141.378906 273.671875 142.175781 C 273.671875 142.679688 274.023438 143.277344 274.871094 143.277344 C 275.574219 143.277344 276.625 142.679688 276.625 141.425781 C 276.625 139.777344 274.722656 139.324219 273.671875 139.324219 C 271.824219 139.324219 270.722656 141.027344 270.324219 141.726562 C 269.523438 139.675781 267.820312 139.324219 266.921875 139.324219 C 263.621094 139.324219 261.820312 143.429688 261.820312 144.230469 C 261.820312 144.527344 262.121094 144.527344 262.222656 144.527344 C 262.472656 144.527344 262.570312 144.480469 262.621094 144.179688 C 263.671875 140.828125 265.773438 140.027344 266.871094 140.027344 C 267.472656 140.027344 268.570312 140.328125 268.570312 142.175781 C 268.570312 143.128906 268.023438 145.277344 266.871094 149.683594 C 266.320312 151.632812 265.222656 152.984375 263.820312 152.984375 C 263.671875 152.984375 262.921875 152.984375 262.269531 152.582031 C 263.070312 152.433594 263.769531 151.734375 263.769531 150.882812 C 263.769531 150.03125 263.070312 149.730469 262.570312 149.730469 C 261.621094 149.730469 260.820312 150.582031 260.820312 151.582031 C 260.820312 153.035156 262.421875 153.683594 263.820312 153.683594 C 265.921875 153.683594 267.023438 151.484375 267.121094 151.28125 C 267.523438 152.433594 268.671875 153.683594 270.574219 153.683594 C 273.824219 153.683594 275.625 149.582031 275.625 148.78125 C 275.625 148.480469 275.324219 148.480469 275.222656 148.480469 C 274.972656 148.480469 274.871094 148.632812 274.824219 148.832031 C 273.773438 152.234375 271.621094 152.984375 270.621094 152.984375 C 269.371094 152.984375 268.871094 151.984375 268.871094 150.882812 C 268.871094 150.183594 269.070312 149.480469 269.421875 148.128906 Z M 270.472656 143.777344 "/>
<path style=" stroke:none;fill-rule:nonzero;fill:rgb(0%,0%,0%);fill-opacity:1;" d="M 285.410156 143.976562 C 285.410156 143.375 285.410156 143.375 284.761719 143.375 C 283.359375 144.777344 281.308594 144.777344 280.410156 144.777344 L 280.410156 145.578125 C 280.960938 145.578125 282.410156 145.578125 283.660156 144.976562 L 283.660156 156.285156 C 283.660156 156.984375 283.660156 157.285156 281.410156 157.285156 L 280.558594 157.285156 L 280.558594 158.085938 C 280.960938 158.085938 283.710938 157.984375 284.511719 157.984375 C 285.210938 157.984375 288.011719 158.085938 288.511719 158.085938 L 288.511719 157.285156 L 287.660156 157.285156 C 285.410156 157.285156 285.410156 156.984375 285.410156 156.285156 Z M 285.410156 143.976562 "/>
<path style="fill:none;stroke-width:0.3985;stroke-linecap:butt;stroke-linejoin:miter;stroke:rgb(0%,0%,0%);stroke-opacity:1;stroke-miterlimit:10;" d="M 42.10607 5.916882 C 40.138633 19.914231 31.34296 32.019946 18.997293 38.041461 " transform="matrix(3.176722,0,0,-3.178057,140.990729,148.894032)"/>
<path style="fill:none;stroke-width:0.3985;stroke-linecap:round;stroke-linejoin:round;stroke:rgb(0%,0%,0%);stroke-opacity:1;stroke-miterlimit:10;" d="M -2.071888 2.391503 C -1.694839 0.955687 -0.850197 0.281027 -0.00159941 0.000954428 C -0.852521 -0.2791 -1.692053 -0.95444 -2.07324 -2.393325 " transform="matrix(-2.863878,-1.397425,-1.396838,2.865081,200.774096,27.717687)"/>
<path style=" stroke:none;fill-rule:nonzero;fill:rgb(0%,0%,0%);fill-opacity:1;" d="M 177.140625 15.261719 C 177.339844 14.410156 178.089844 11.507812 180.289062 11.507812 C 180.441406 11.507812 181.191406 11.507812 181.890625 11.910156 C 180.992188 12.109375 180.339844 12.859375 180.339844 13.660156 C 180.339844 14.160156 180.691406 14.761719 181.539062 14.761719 C 182.242188 14.761719 183.292969 14.160156 183.292969 12.910156 C 183.292969 11.257812 181.390625 10.808594 180.339844 10.808594 C 178.492188 10.808594 177.390625 12.507812 176.992188 13.210938 C 176.191406 11.160156 174.488281 10.808594 173.589844 10.808594 C 170.289062 10.808594 168.488281 14.910156 168.488281 15.710938 C 168.488281 16.011719 168.789062 16.011719 168.890625 16.011719 C 169.140625 16.011719 169.238281 15.960938 169.289062 15.660156 C 170.339844 12.308594 172.441406 11.507812 173.539062 11.507812 C 174.140625 11.507812 175.238281 11.808594 175.238281 13.660156 C 175.238281 14.609375 174.691406 16.761719 173.539062 21.164062 C 172.988281 23.117188 171.890625 24.464844 170.488281 24.464844 C 170.339844 24.464844 169.589844 24.464844 168.9375 24.066406 C 169.738281 23.914062 170.4375 23.214844 170.4375 22.363281 C 170.4375 21.515625 169.738281 21.214844 169.238281 21.214844 C 168.289062 21.214844 167.488281 22.066406 167.488281 23.066406 C 167.488281 24.515625 169.089844 25.167969 170.488281 25.167969 C 172.589844 25.167969 173.691406 22.964844 173.789062 22.765625 C 174.191406 23.914062 175.339844 25.167969 177.242188 25.167969 C 180.492188 25.167969 182.289062 21.0625 182.289062 20.265625 C 182.289062 19.964844 181.992188 19.964844 181.890625 19.964844 C 181.640625 19.964844 181.539062 20.113281 181.492188 20.3125 C 180.441406 23.714844 178.289062 24.464844 177.289062 24.464844 C 176.039062 24.464844 175.539062 23.464844 175.539062 22.363281 C 175.539062 21.664062 175.738281 20.964844 176.089844 19.613281 Z M 177.140625 15.261719 "/>
<path style=" stroke:none;fill-rule:nonzero;fill:rgb(0%,0%,0%);fill-opacity:1;" d="M 195.878906 25.515625 L 195.128906 25.515625 C 195.027344 26.015625 194.828125 27.316406 194.527344 27.566406 C 194.378906 27.667969 192.628906 27.667969 192.328125 27.667969 L 188.277344 27.667969 C 190.578125 25.617188 191.378906 25.015625 192.679688 23.964844 C 194.328125 22.664062 195.878906 21.261719 195.878906 19.160156 C 195.878906 16.511719 193.527344 14.859375 190.679688 14.859375 C 187.925781 14.859375 186.078125 16.761719 186.078125 18.8125 C 186.078125 19.960938 187.027344 20.0625 187.226562 20.0625 C 187.777344 20.0625 188.425781 19.660156 188.425781 18.863281 C 188.425781 18.511719 188.277344 17.710938 187.128906 17.710938 C 187.777344 16.160156 189.328125 15.660156 190.328125 15.660156 C 192.578125 15.660156 193.726562 17.359375 193.726562 19.160156 C 193.726562 21.113281 192.328125 22.613281 191.628906 23.414062 L 186.277344 28.71875 C 186.078125 28.917969 186.078125 28.96875 186.078125 29.566406 L 195.179688 29.566406 Z M 195.878906 25.515625 "/>
<path style="fill:none;stroke-width:0.3985;stroke-linecap:butt;stroke-linejoin:miter;stroke:rgb(0%,0%,0%);stroke-opacity:1;stroke-miterlimit:10;" d="M 7.384496 41.873893 C -6.53512 44.329698 -20.769527 39.705705 -30.309137 29.823488 " transform="matrix(3.176722,0,0,-3.178057,140.990729,148.894032)"/>
<path style="fill:none;stroke-width:0.3985;stroke-linecap:round;stroke-linejoin:round;stroke:rgb(0%,0%,0%);stroke-opacity:1;stroke-miterlimit:10;" d="M -2.071642 2.391908 C -1.694992 0.955576 -0.849233 0.277383 -0.00176844 -0.00028676 C -0.851042 -0.280064 -1.692412 -0.956199 -2.071788 -2.393049 " transform="matrix(-2.212969,2.292555,2.291592,2.2139,44.266275,54.567189)"/>
<path style=" stroke:none;fill-rule:nonzero;fill:rgb(0%,0%,0%);fill-opacity:1;" d="M 26.121094 64.351562 C 26.320312 63.5 27.070312 60.601562 29.273438 60.601562 C 29.421875 60.601562 30.171875 60.601562 30.871094 61 C 29.972656 61.199219 29.324219 61.949219 29.324219 62.75 C 29.324219 63.25 29.671875 63.851562 30.523438 63.851562 C 31.222656 63.851562 32.273438 63.25 32.273438 62 C 32.273438 60.351562 30.371094 59.898438 29.324219 59.898438 C 27.472656 59.898438 26.371094 61.601562 25.972656 62.300781 C 25.171875 60.25 23.472656 59.898438 22.570312 59.898438 C 19.269531 59.898438 17.472656 64.003906 17.472656 64.800781 C 17.472656 65.101562 17.769531 65.101562 17.871094 65.101562 C 18.121094 65.101562 18.222656 65.054688 18.269531 64.753906 C 19.320312 61.402344 21.421875 60.601562 22.523438 60.601562 C 23.121094 60.601562 24.222656 60.902344 24.222656 62.75 C 24.222656 63.703125 23.671875 65.851562 22.523438 70.253906 C 21.972656 72.207031 20.871094 73.558594 19.472656 73.558594 C 19.320312 73.558594 18.570312 73.558594 17.921875 73.15625 C 18.722656 73.007812 19.421875 72.308594 19.421875 71.457031 C 19.421875 70.605469 18.722656 70.304688 18.222656 70.304688 C 17.269531 70.304688 16.46875 71.15625 16.46875 72.15625 C 16.46875 73.609375 18.070312 74.257812 19.472656 74.257812 C 21.570312 74.257812 22.671875 72.058594 22.773438 71.855469 C 23.171875 73.007812 24.320312 74.257812 26.222656 74.257812 C 29.472656 74.257812 31.273438 70.15625 31.273438 69.355469 C 31.273438 69.054688 30.972656 69.054688 30.871094 69.054688 C 30.621094 69.054688 30.523438 69.207031 30.472656 69.40625 C 29.421875 72.808594 27.273438 73.558594 26.273438 73.558594 C 25.023438 73.558594 24.523438 72.558594 24.523438 71.457031 C 24.523438 70.757812 24.722656 70.054688 25.070312 68.703125 Z M 26.121094 64.351562 "/>
<path style=" stroke:none;fill-rule:nonzero;fill:rgb(0%,0%,0%);fill-opacity:1;" d="M 39.710938 71.25 C 41.410156 71.25 42.660156 72.453125 42.660156 74.804688 C 42.660156 77.554688 41.058594 78.40625 39.808594 78.40625 C 38.910156 78.40625 36.960938 78.15625 36.007812 76.855469 C 37.058594 76.804688 37.308594 76.054688 37.308594 75.605469 C 37.308594 74.902344 36.757812 74.402344 36.109375 74.402344 C 35.460938 74.402344 34.859375 74.753906 34.859375 75.652344 C 34.859375 77.753906 37.160156 79.105469 39.859375 79.105469 C 42.910156 79.105469 45.058594 77.054688 45.058594 74.804688 C 45.058594 73.101562 43.609375 71.351562 41.210938 70.851562 C 43.511719 70 44.359375 68.351562 44.359375 67 C 44.359375 65.25 42.359375 63.949219 39.859375 63.949219 C 37.410156 63.949219 35.558594 65.148438 35.558594 66.898438 C 35.558594 67.648438 36.007812 68.101562 36.710938 68.101562 C 37.359375 68.101562 37.808594 67.597656 37.808594 66.949219 C 37.808594 66.300781 37.359375 65.847656 36.710938 65.796875 C 37.460938 64.847656 39.007812 64.597656 39.808594 64.597656 C 40.808594 64.597656 42.210938 65.046875 42.210938 67 C 42.210938 67.949219 41.910156 68.949219 41.308594 69.652344 C 40.609375 70.5 39.960938 70.5 38.859375 70.601562 C 38.308594 70.652344 38.257812 70.652344 38.160156 70.652344 C 38.109375 70.652344 37.910156 70.703125 37.910156 70.953125 C 37.910156 71.25 38.109375 71.25 38.507812 71.25 Z M 39.710938 71.25 "/>
<g clip-path="url(#clip1)" clip-rule="nonzero">
<path style="fill:none;stroke-width:0.3985;stroke-linecap:butt;stroke-linejoin:miter;stroke:rgb(0%,0%,0%);stroke-opacity:1;stroke-miterlimit:10;" d="M -37.543157 19.962167 C -44.178338 7.482795 -44.178338 -7.484338 -37.731293 -19.608491 " transform="matrix(3.176722,0,0,-3.178057,140.990729,148.894032)"/>
</g>
<path style="fill:none;stroke-width:0.3985;stroke-linecap:round;stroke-linejoin:round;stroke:rgb(0%,0%,0%);stroke-opacity:1;stroke-miterlimit:10;" d="M -2.071941 2.393371 C -1.691086 0.956462 -0.849846 0.278158 -0.000158005 0.000337007 C -0.851765 -0.277488 -1.693176 -0.957359 -2.072759 -2.390743 " transform="matrix(1.492423,2.808067,2.806887,-1.49305,21.428977,211.774384)"/>
<path style=" stroke:none;fill-rule:nonzero;fill:rgb(0%,0%,0%);fill-opacity:1;" d="M 26.121094 223.207031 C 26.320312 222.355469 27.070312 219.457031 29.273438 219.457031 C 29.421875 219.457031 30.171875 219.457031 30.871094 219.855469 C 29.972656 220.054688 29.324219 220.804688 29.324219 221.605469 C 29.324219 222.105469 29.671875 222.707031 30.523438 222.707031 C 31.222656 222.707031 32.273438 222.105469 32.273438 220.855469 C 32.273438 219.207031 30.371094 218.753906 29.324219 218.753906 C 27.472656 218.753906 26.371094 220.457031 25.972656 221.15625 C 25.171875 219.105469 23.472656 218.753906 22.570312 218.753906 C 19.269531 218.753906 17.472656 222.855469 17.472656 223.65625 C 17.472656 223.957031 17.769531 223.957031 17.871094 223.957031 C 18.121094 223.957031 18.222656 223.90625 18.269531 223.609375 C 19.320312 220.257812 21.421875 219.457031 22.523438 219.457031 C 23.121094 219.457031 24.222656 219.753906 24.222656 221.605469 C 24.222656 222.558594 23.671875 224.707031 22.523438 229.109375 C 21.972656 231.0625 20.871094 232.414062 19.472656 232.414062 C 19.320312 232.414062 18.570312 232.414062 17.921875 232.011719 C 18.722656 231.863281 19.421875 231.160156 19.421875 230.3125 C 19.421875 229.460938 18.722656 229.160156 18.222656 229.160156 C 17.269531 229.160156 16.46875 230.011719 16.46875 231.011719 C 16.46875 232.460938 18.070312 233.113281 19.472656 233.113281 C 21.570312 233.113281 22.671875 230.910156 22.773438 230.710938 C 23.171875 231.863281 24.320312 233.113281 26.222656 233.113281 C 29.472656 233.113281 31.273438 229.011719 31.273438 228.210938 C 31.273438 227.910156 30.972656 227.910156 30.871094 227.910156 C 30.621094 227.910156 30.523438 228.058594 30.472656 228.261719 C 29.421875 231.664062 27.273438 232.414062 26.273438 232.414062 C 25.023438 232.414062 24.523438 231.414062 24.523438 230.3125 C 24.523438 229.609375 24.722656 228.910156 25.070312 227.558594 Z M 26.121094 223.207031 "/>
<path style=" stroke:none;fill-rule:nonzero;fill:rgb(0%,0%,0%);fill-opacity:1;" d="M 45.359375 233.859375 L 45.359375 233.058594 L 42.910156 233.058594 L 42.910156 223.203125 C 42.910156 222.753906 42.910156 222.550781 42.410156 222.550781 C 42.160156 222.550781 42.058594 222.550781 41.859375 222.902344 L 34.507812 233.058594 L 34.507812 233.859375 L 41.058594 233.859375 L 41.058594 235.710938 C 41.058594 236.460938 41.058594 236.710938 39.257812 236.710938 L 38.660156 236.710938 L 38.660156 237.511719 C 39.757812 237.460938 41.160156 237.410156 41.960938 237.410156 C 42.808594 237.410156 44.210938 237.460938 45.308594 237.511719 L 45.308594 236.710938 L 44.710938 236.710938 C 42.910156 236.710938 42.910156 236.460938 42.910156 235.710938 L 42.910156 233.859375 Z M 41.210938 224.953125 L 41.210938 233.058594 L 35.359375 233.058594 Z M 41.210938 224.953125 "/>
<g clip-path="url(#clip2)" clip-rule="nonzero">
<path style="fill:none;stroke-width:0.3985;stroke-linecap:butt;stroke-linejoin:miter;stroke:rgb(0%,0%,0%);stroke-opacity:1;stroke-miterlimit:10;" d="M -30.584578 -29.537415 C -20.769527 -39.703561 -6.53512 -44.327554 6.991009 -41.94181 " transform="matrix(3.176722,0,0,-3.178057,140.990729,148.894032)"/>
</g>
<path style="fill:none;stroke-width:0.3985;stroke-linecap:round;stroke-linejoin:round;stroke:rgb(0%,0%,0%);stroke-opacity:1;stroke-miterlimit:10;" d="M -2.073277 2.392168 C -1.695462 0.955369 -0.847919 0.279812 0.000456068 -0.00191592 C -0.851489 -0.278108 -1.693235 -0.956308 -2.073292 -2.390402 " transform="matrix(3.131804,-0.552377,-0.552145,-3.13312,163.821733,282.084093)"/>
<path style=" stroke:none;fill-rule:nonzero;fill:rgb(0%,0%,0%);fill-opacity:1;" d="M 177.140625 272.296875 C 177.339844 271.445312 178.089844 268.542969 180.289062 268.542969 C 180.441406 268.542969 181.191406 268.542969 181.890625 268.945312 C 180.992188 269.144531 180.339844 269.894531 180.339844 270.695312 C 180.339844 271.195312 180.691406 271.796875 181.539062 271.796875 C 182.242188 271.796875 183.292969 271.195312 183.292969 269.945312 C 183.292969 268.292969 181.390625 267.84375 180.339844 267.84375 C 178.492188 267.84375 177.390625 269.542969 176.992188 270.246094 C 176.191406 268.195312 174.488281 267.84375 173.589844 267.84375 C 170.289062 267.84375 168.488281 271.945312 168.488281 272.746094 C 168.488281 273.046875 168.789062 273.046875 168.890625 273.046875 C 169.140625 273.046875 169.238281 272.996094 169.289062 272.695312 C 170.339844 269.34375 172.441406 268.542969 173.539062 268.542969 C 174.140625 268.542969 175.238281 268.84375 175.238281 270.695312 C 175.238281 271.644531 174.691406 273.796875 173.539062 278.199219 C 172.988281 280.148438 171.890625 281.5 170.488281 281.5 C 170.339844 281.5 169.589844 281.5 168.9375 281.101562 C 169.738281 280.949219 170.4375 280.25 170.4375 279.398438 C 170.4375 278.550781 169.738281 278.25 169.238281 278.25 C 168.289062 278.25 167.488281 279.101562 167.488281 280.101562 C 167.488281 281.550781 169.089844 282.203125 170.488281 282.203125 C 172.589844 282.203125 173.691406 280 173.789062 279.800781 C 174.191406 280.949219 175.339844 282.203125 177.242188 282.203125 C 180.492188 282.203125 182.289062 278.097656 182.289062 277.296875 C 182.289062 277 181.992188 277 181.890625 277 C 181.640625 277 181.539062 277.148438 181.492188 277.347656 C 180.441406 280.75 178.289062 281.5 177.289062 281.5 C 176.039062 281.5 175.539062 280.5 175.539062 279.398438 C 175.539062 278.699219 175.738281 278 176.089844 276.648438 Z M 177.140625 272.296875 "/>
<path style=" stroke:none;fill-rule:nonzero;fill:rgb(0%,0%,0%);fill-opacity:1;" d="M 188.128906 274.246094 C 189.226562 274.546875 189.929688 274.546875 190.277344 274.546875 C 193.179688 274.546875 194.929688 272.542969 194.929688 272.195312 C 194.929688 271.945312 194.777344 271.894531 194.628906 271.894531 C 194.578125 271.894531 194.578125 271.894531 194.476562 271.945312 C 193.929688 272.144531 192.777344 272.59375 191.128906 272.59375 C 190.527344 272.59375 189.328125 272.542969 187.878906 271.996094 C 187.675781 271.894531 187.628906 271.894531 187.578125 271.894531 C 187.328125 271.894531 187.328125 272.144531 187.328125 272.496094 L 187.328125 279 C 187.328125 279.398438 187.328125 279.648438 187.675781 279.648438 C 187.878906 279.648438 187.878906 279.597656 188.128906 279.347656 C 189.078125 278.148438 190.429688 277.949219 191.179688 277.949219 C 192.527344 277.949219 193.128906 279 193.226562 279.199219 C 193.628906 279.949219 193.777344 280.75 193.777344 282.050781 C 193.777344 282.699219 193.777344 284.050781 193.078125 285 C 192.527344 285.800781 191.578125 286.351562 190.527344 286.351562 C 189.078125 286.351562 187.578125 285.550781 187.027344 284.050781 C 187.878906 284.152344 188.277344 283.601562 188.277344 283 C 188.277344 282.050781 187.476562 281.851562 187.175781 281.851562 C 187.128906 281.851562 186.078125 281.851562 186.078125 283.050781 C 186.078125 285.050781 187.878906 287.050781 190.527344 287.050781 C 193.378906 287.050781 195.878906 284.953125 195.878906 282.148438 C 195.878906 279.648438 193.976562 277.347656 191.226562 277.347656 C 190.226562 277.347656 189.078125 277.597656 188.128906 278.449219 Z M 188.128906 274.246094 "/>
<path style="fill:none;stroke-width:0.3985;stroke-linecap:butt;stroke-linejoin:miter;stroke:rgb(0%,0%,0%);stroke-opacity:1;stroke-miterlimit:10;" d="M 18.639465 -38.215083 C 31.34296 -32.02149 40.138633 -19.915774 42.051965 -6.310518 " transform="matrix(3.176722,0,0,-3.178057,140.990729,148.894032)"/>
<path style="fill:none;stroke-width:0.3985;stroke-linecap:round;stroke-linejoin:round;stroke:rgb(0%,0%,0%);stroke-opacity:1;stroke-miterlimit:10;" d="M -2.072229 2.39024 C -1.695792 0.956898 -0.848212 0.277639 0.00129999 -0.000298107 C -0.850662 -0.278961 -1.692385 -0.957235 -2.071867 -2.390031 " transform="matrix(0.442136,-3.147358,-3.146036,-0.442322,274.66255,168.328178)"/>
</g>
</svg>
