<?xml version="1.0" encoding="UTF-8"?>
<svg xmlns="http://www.w3.org/2000/svg" xmlns:xlink="http://www.w3.org/1999/xlink" width="426px" height="300px" viewBox="0 0 426 300" version="1.1">
<g id="surface1">
<path style=" stroke:none;fill-rule:nonzero;fill:rgb(0%,0%,0%);fill-opacity:1;" d="M 23.960938 14.757812 C 23.960938 14.28125 23.960938 14.25 23.519531 14.25 C 22.285156 15.515625 20.515625 15.515625 19.851562 15.515625 L 19.851562 16.148438 C 20.261719 16.148438 21.464844 16.148438 22.476562 15.640625 L 22.476562 26.027344 C 22.476562 26.753906 22.445312 26.976562 20.640625 26.976562 L 19.976562 26.976562 L 19.976562 27.609375 C 20.671875 27.546875 22.445312 27.546875 23.234375 27.546875 C 24.023438 27.546875 25.765625 27.546875 26.492188 27.609375 L 26.492188 26.976562 L 25.828125 26.976562 C 24.023438 26.976562 23.960938 26.753906 23.960938 26.027344 Z M 23.960938 14.757812 "/>
<path style=" stroke:none;fill-rule:nonzero;fill:rgb(0%,0%,0%);fill-opacity:1;" d="M 96 26.058594 L 98.117188 24 C 101.246094 21.214844 102.449219 20.136719 102.449219 18.144531 C 102.449219 15.832031 100.648438 14.25 98.179688 14.25 C 95.933594 14.25 94.449219 16.085938 94.449219 17.890625 C 94.449219 19 95.429688 19 95.492188 19 C 95.839844 19 96.535156 18.746094 96.535156 17.921875 C 96.535156 17.414062 96.1875 16.878906 95.492188 16.878906 C 95.335938 16.878906 95.269531 16.878906 95.207031 16.910156 C 95.683594 15.609375 96.757812 14.851562 97.925781 14.851562 C 99.761719 14.851562 100.613281 16.496094 100.613281 18.144531 C 100.613281 19.726562 99.601562 21.339844 98.496094 22.574219 L 94.667969 26.882812 C 94.449219 27.101562 94.449219 27.136719 94.449219 27.609375 L 101.878906 27.609375 L 102.449219 24.128906 L 101.945312 24.128906 C 101.847656 24.730469 101.691406 25.617188 101.5 25.902344 C 101.34375 26.058594 100.046875 26.058594 99.601562 26.058594 Z M 96 26.058594 "/>
<path style=" stroke:none;fill-rule:nonzero;fill:rgb(0%,0%,0%);fill-opacity:1;" d="M 174.613281 20.550781 C 176.257812 20.011719 177.429688 18.585938 177.429688 17.003906 C 177.429688 15.359375 175.65625 14.25 173.730469 14.25 C 171.703125 14.25 170.1875 15.453125 170.1875 16.972656 C 170.1875 17.636719 170.628906 18.015625 171.199219 18.015625 C 171.832031 18.015625 172.210938 17.574219 172.210938 17.003906 C 172.210938 15.992188 171.292969 15.992188 170.976562 15.992188 C 171.609375 15.007812 172.9375 14.757812 173.632812 14.757812 C 174.457031 14.757812 175.5625 15.199219 175.5625 17.003906 C 175.5625 17.226562 175.53125 18.398438 175.027344 19.285156 C 174.425781 20.234375 173.730469 20.296875 173.222656 20.328125 C 173.066406 20.328125 172.589844 20.390625 172.433594 20.390625 C 172.273438 20.390625 172.148438 20.421875 172.148438 20.613281 C 172.148438 20.835938 172.273438 20.835938 172.621094 20.835938 L 173.507812 20.835938 C 175.152344 20.835938 175.878906 22.195312 175.878906 24.191406 C 175.878906 26.914062 174.519531 27.484375 173.632812 27.484375 C 172.78125 27.484375 171.261719 27.136719 170.566406 25.964844 C 171.261719 26.058594 171.894531 25.617188 171.894531 24.855469 C 171.894531 24.128906 171.355469 23.746094 170.757812 23.746094 C 170.28125 23.746094 169.648438 24.03125 169.648438 24.886719 C 169.648438 26.722656 171.515625 28.054688 173.695312 28.054688 C 176.132812 28.054688 177.964844 26.21875 177.964844 24.191406 C 177.964844 22.542969 176.703125 20.960938 174.613281 20.550781 Z M 174.613281 20.550781 "/>
<path style=" stroke:none;fill-rule:nonzero;fill:rgb(0%,0%,0%);fill-opacity:1;" d="M 23.960938 142.660156 C 23.960938 142.183594 23.960938 142.152344 23.519531 142.152344 C 22.285156 143.417969 20.515625 143.417969 19.851562 143.417969 L 19.851562 144.050781 C 20.261719 144.050781 21.464844 144.050781 22.476562 143.546875 L 22.476562 153.929688 C 22.476562 154.65625 22.445312 154.878906 20.640625 154.878906 L 19.976562 154.878906 L 19.976562 155.511719 C 20.671875 155.449219 22.445312 155.449219 23.234375 155.449219 C 24.023438 155.449219 25.765625 155.449219 26.492188 155.511719 L 26.492188 154.878906 L 25.828125 154.878906 C 24.023438 154.878906 23.960938 154.65625 23.960938 153.929688 Z M 23.960938 142.660156 "/>
<path style=" stroke:none;fill-rule:nonzero;fill:rgb(0%,0%,0%);fill-opacity:1;" d="M 96 153.960938 L 98.117188 151.902344 C 101.246094 149.117188 102.449219 148.039062 102.449219 146.046875 C 102.449219 143.734375 100.648438 142.152344 98.179688 142.152344 C 95.933594 142.152344 94.449219 143.988281 94.449219 145.792969 C 94.449219 146.902344 95.429688 146.902344 95.492188 146.902344 C 95.839844 146.902344 96.535156 146.648438 96.535156 145.824219 C 96.535156 145.316406 96.1875 144.78125 95.492188 144.78125 C 95.335938 144.78125 95.269531 144.78125 95.207031 144.8125 C 95.683594 143.511719 96.757812 142.753906 97.925781 142.753906 C 99.761719 142.753906 100.613281 144.398438 100.613281 146.046875 C 100.613281 147.628906 99.601562 149.242188 98.496094 150.480469 L 94.667969 154.785156 C 94.449219 155.007812 94.449219 155.039062 94.449219 155.511719 L 101.878906 155.511719 L 102.449219 152.03125 L 101.945312 152.03125 C 101.847656 152.632812 101.691406 153.519531 101.5 153.804688 C 101.34375 153.960938 100.046875 153.960938 99.601562 153.960938 Z M 96 153.960938 "/>
<path style=" stroke:none;fill-rule:nonzero;fill:rgb(0%,0%,0%);fill-opacity:1;" d="M 174.613281 148.453125 C 176.257812 147.914062 177.429688 146.488281 177.429688 144.90625 C 177.429688 143.261719 175.65625 142.152344 173.730469 142.152344 C 171.703125 142.152344 170.1875 143.355469 170.1875 144.875 C 170.1875 145.539062 170.628906 145.917969 171.199219 145.917969 C 171.832031 145.917969 172.210938 145.476562 172.210938 144.90625 C 172.210938 143.894531 171.292969 143.894531 170.976562 143.894531 C 171.609375 142.910156 172.9375 142.660156 173.632812 142.660156 C 174.457031 142.660156 175.5625 143.101562 175.5625 144.90625 C 175.5625 145.128906 175.53125 146.300781 175.027344 147.1875 C 174.425781 148.136719 173.730469 148.199219 173.222656 148.230469 C 173.066406 148.230469 172.589844 148.292969 172.433594 148.292969 C 172.273438 148.292969 172.148438 148.324219 172.148438 148.515625 C 172.148438 148.738281 172.273438 148.738281 172.621094 148.738281 L 173.507812 148.738281 C 175.152344 148.738281 175.878906 150.097656 175.878906 152.09375 C 175.878906 154.816406 174.519531 155.386719 173.632812 155.386719 C 172.78125 155.386719 171.261719 155.039062 170.566406 153.867188 C 171.261719 153.960938 171.894531 153.519531 171.894531 152.757812 C 171.894531 152.03125 171.355469 151.648438 170.757812 151.648438 C 170.28125 151.648438 169.648438 151.933594 169.648438 152.789062 C 169.648438 154.625 171.515625 155.957031 173.695312 155.957031 C 176.132812 155.957031 177.964844 154.121094 177.964844 152.09375 C 177.964844 150.445312 176.703125 148.863281 174.613281 148.453125 Z M 174.613281 148.453125 "/>
<path style=" stroke:none;fill-rule:nonzero;fill:rgb(0%,0%,0%);fill-opacity:1;" d="M 23.960938 270.5625 C 23.960938 270.089844 23.960938 270.058594 23.519531 270.058594 C 22.285156 271.324219 20.515625 271.324219 19.851562 271.324219 L 19.851562 271.957031 C 20.261719 271.957031 21.464844 271.957031 22.476562 271.449219 L 22.476562 281.835938 C 22.476562 282.5625 22.445312 282.785156 20.640625 282.785156 L 19.976562 282.785156 L 19.976562 283.417969 C 20.671875 283.355469 22.445312 283.355469 23.234375 283.355469 C 24.023438 283.355469 25.765625 283.355469 26.492188 283.417969 L 26.492188 282.785156 L 25.828125 282.785156 C 24.023438 282.785156 23.960938 282.5625 23.960938 281.835938 Z M 23.960938 270.5625 "/>
<path style=" stroke:none;fill-rule:nonzero;fill:rgb(0%,0%,0%);fill-opacity:1;" d="M 96 281.867188 L 98.117188 279.808594 C 101.246094 277.023438 102.449219 275.945312 102.449219 273.949219 C 102.449219 271.640625 100.648438 270.058594 98.179688 270.058594 C 95.933594 270.058594 94.449219 271.894531 94.449219 273.699219 C 94.449219 274.804688 95.429688 274.804688 95.492188 274.804688 C 95.839844 274.804688 96.535156 274.550781 96.535156 273.730469 C 96.535156 273.222656 96.1875 272.683594 95.492188 272.683594 C 95.335938 272.683594 95.269531 272.683594 95.207031 272.714844 C 95.683594 271.417969 96.757812 270.660156 97.925781 270.660156 C 99.761719 270.660156 100.613281 272.304688 100.613281 273.949219 C 100.613281 275.535156 99.601562 277.148438 98.496094 278.382812 L 94.667969 282.6875 C 94.449219 282.910156 94.449219 282.941406 94.449219 283.417969 L 101.878906 283.417969 L 102.449219 279.933594 L 101.945312 279.933594 C 101.847656 280.535156 101.691406 281.421875 101.5 281.707031 C 101.34375 281.867188 100.046875 281.867188 99.601562 281.867188 Z M 96 281.867188 "/>
<path style=" stroke:none;fill-rule:nonzero;fill:rgb(0%,0%,0%);fill-opacity:1;" d="M 174.613281 276.355469 C 176.257812 275.820312 177.429688 274.394531 177.429688 272.8125 C 177.429688 271.164062 175.65625 270.058594 173.730469 270.058594 C 171.703125 270.058594 170.1875 271.261719 170.1875 272.78125 C 170.1875 273.445312 170.628906 273.824219 171.199219 273.824219 C 171.832031 273.824219 172.210938 273.382812 172.210938 272.8125 C 172.210938 271.796875 171.292969 271.796875 170.976562 271.796875 C 171.609375 270.816406 172.9375 270.5625 173.632812 270.5625 C 174.457031 270.5625 175.5625 271.007812 175.5625 272.8125 C 175.5625 273.03125 175.53125 274.203125 175.027344 275.089844 C 174.425781 276.039062 173.730469 276.105469 173.222656 276.136719 C 173.066406 276.136719 172.589844 276.199219 172.433594 276.199219 C 172.273438 276.199219 172.148438 276.230469 172.148438 276.421875 C 172.148438 276.640625 172.273438 276.640625 172.621094 276.640625 L 173.507812 276.640625 C 175.152344 276.640625 175.878906 278.003906 175.878906 280 C 175.878906 282.722656 174.519531 283.289062 173.632812 283.289062 C 172.78125 283.289062 171.261719 282.941406 170.566406 281.769531 C 171.261719 281.867188 171.894531 281.421875 171.894531 280.664062 C 171.894531 279.933594 171.355469 279.554688 170.757812 279.554688 C 170.28125 279.554688 169.648438 279.839844 169.648438 280.695312 C 169.648438 282.53125 171.515625 283.859375 173.695312 283.859375 C 176.132812 283.859375 177.964844 282.023438 177.964844 280 C 177.964844 278.351562 176.703125 276.769531 174.613281 276.355469 Z M 174.613281 276.355469 "/>
<path style="fill:none;stroke-width:0.39848;stroke-linecap:butt;stroke-linejoin:miter;stroke:rgb(0%,0%,0%);stroke-opacity:1;stroke-miterlimit:10;" d="M -37.473656 120.717042 C -37.473656 85.783512 37.470782 106.234159 37.470782 71.69835 " transform="matrix(2.011125,0,0,-2.013422,98.446249,278.402005)"/>
<path style="fill:none;stroke-width:0.39848;stroke-linecap:round;stroke-linejoin:round;stroke:rgb(0%,0%,0%);stroke-opacity:1;stroke-miterlimit:10;" d="M -2.073599 2.390751 C -1.691398 0.955376 -0.851333 0.279448 -0.00156665 -0.000245709 C -0.851333 -0.27994 -1.691398 -0.955867 -2.073599 -2.391242 " transform="matrix(0,2.013422,2.011125,0,173.805182,134.440654)"/>
<path style="fill:none;stroke-width:0.39848;stroke-linecap:butt;stroke-linejoin:miter;stroke:rgb(0%,0%,0%);stroke-opacity:1;stroke-miterlimit:10;" d="M -0.000465782 120.717042 C -0.000465782 96.558855 -37.473656 95.458816 -37.473656 71.69835 " transform="matrix(2.011125,0,0,-2.013422,98.446249,278.402005)"/>
<path style="fill:none;stroke-width:0.39848;stroke-linecap:round;stroke-linejoin:round;stroke:rgb(0%,0%,0%);stroke-opacity:1;stroke-miterlimit:10;" d="M -2.073599 2.39225 C -1.691398 0.956875 -0.851333 0.277063 -0.00156665 -0.00263105 C -0.851333 -0.276498 -1.691398 -0.95631 -2.073599 -2.391685 " transform="matrix(0,2.013422,2.011125,0,23.087323,134.440654)"/>
<path style="fill:none;stroke-width:0.39848;stroke-linecap:butt;stroke-linejoin:miter;stroke:rgb(0%,0%,0%);stroke-opacity:1;stroke-miterlimit:10;" d="M 37.470782 120.717042 C 37.470782 96.558855 -0.000465782 95.458816 -0.000465782 71.69835 " transform="matrix(2.011125,0,0,-2.013422,98.446249,278.402005)"/>
<path style="fill:none;stroke-width:0.39848;stroke-linecap:round;stroke-linejoin:round;stroke:rgb(0%,0%,0%);stroke-opacity:1;stroke-miterlimit:10;" d="M -2.073599 2.388588 C -1.691398 0.959041 -0.851333 0.277286 -0.00156665 -0.000465782 C -0.851333 -0.28016 -1.691398 -0.956087 -2.073599 -2.391462 " transform="matrix(0,2.013422,2.011125,0,98.446249,134.440654)"/>
<path style="fill:none;stroke-width:0.39848;stroke-linecap:butt;stroke-linejoin:miter;stroke:rgb(0%,0%,0%);stroke-opacity:1;stroke-miterlimit:10;" d="M -37.473656 57.188306 L -37.473656 8.175434 " transform="matrix(2.011125,0,0,-2.013422,98.446249,278.402005)"/>
<path style="fill:none;stroke-width:0.39848;stroke-linecap:round;stroke-linejoin:round;stroke:rgb(0%,0%,0%);stroke-opacity:1;stroke-miterlimit:10;" d="M -2.071373 2.39225 C -1.694992 0.956875 -0.849106 0.277063 -0.00128062 -0.00263105 C -0.849106 -0.276498 -1.694992 -0.95631 -2.071373 -2.391685 " transform="matrix(0,2.013422,2.011125,0,23.087323,262.346328)"/>
<path style="fill:none;stroke-width:0.39848;stroke-linecap:butt;stroke-linejoin:miter;stroke:rgb(0%,0%,0%);stroke-opacity:1;stroke-miterlimit:10;" d="M -0.000465782 57.188306 C -0.000465782 33.032059 37.470782 31.935899 37.470782 8.175434 " transform="matrix(2.011125,0,0,-2.013422,98.446249,278.402005)"/>
<path style="fill:none;stroke-width:0.39848;stroke-linecap:round;stroke-linejoin:round;stroke:rgb(0%,0%,0%);stroke-opacity:1;stroke-miterlimit:10;" d="M -2.071373 2.390751 C -1.694992 0.955376 -0.849106 0.279448 -0.00128062 -0.000245709 C -0.849106 -0.27994 -1.694992 -0.955867 -2.071373 -2.391242 " transform="matrix(0,2.013422,2.011125,0,173.805182,262.346328)"/>
<path style="fill:none;stroke-width:0.39848;stroke-linecap:butt;stroke-linejoin:miter;stroke:rgb(0%,0%,0%);stroke-opacity:1;stroke-miterlimit:10;" d="M 37.470782 57.188306 C 37.470782 33.032059 -0.000465782 31.935899 -0.000465782 8.175434 " transform="matrix(2.011125,0,0,-2.013422,98.446249,278.402005)"/>
<path style="fill:none;stroke-width:0.39848;stroke-linecap:round;stroke-linejoin:round;stroke:rgb(0%,0%,0%);stroke-opacity:1;stroke-miterlimit:10;" d="M -2.071373 2.388588 C -1.694992 0.959041 -0.849106 0.277286 -0.00128062 -0.000465782 C -0.849106 -0.28016 -1.694992 -0.956087 -2.071373 -2.391462 " transform="matrix(0,2.013422,2.011125,0,98.446249,262.346328)"/>
<path style=" stroke:none;fill-rule:nonzero;fill:rgb(0%,0%,0%);fill-opacity:1;" d="M 251.996094 15.644531 C 251.996094 15.171875 251.996094 15.140625 251.550781 15.140625 C 250.320312 16.40625 248.546875 16.40625 247.882812 16.40625 L 247.882812 17.039062 C 248.296875 17.039062 249.496094 17.039062 250.507812 16.53125 L 250.507812 26.917969 C 250.507812 27.644531 250.476562 27.867188 248.675781 27.867188 L 248.011719 27.867188 L 248.011719 28.5 C 248.707031 28.4375 250.476562 28.4375 251.269531 28.4375 C 252.058594 28.4375 253.796875 28.4375 254.523438 28.5 L 254.523438 27.867188 L 253.859375 27.867188 C 252.058594 27.867188 251.996094 27.644531 251.996094 26.917969 Z M 251.996094 15.644531 "/>
<path style=" stroke:none;fill-rule:nonzero;fill:rgb(0%,0%,0%);fill-opacity:1;" d="M 324.03125 26.949219 L 326.152344 24.890625 C 329.28125 22.105469 330.484375 21.027344 330.484375 19.035156 C 330.484375 16.722656 328.679688 15.140625 326.214844 15.140625 C 323.96875 15.140625 322.480469 16.976562 322.480469 18.78125 C 322.480469 19.886719 323.460938 19.886719 323.527344 19.886719 C 323.875 19.886719 324.570312 19.636719 324.570312 18.8125 C 324.570312 18.304688 324.222656 17.765625 323.527344 17.765625 C 323.367188 17.765625 323.304688 17.765625 323.242188 17.796875 C 323.714844 16.5 324.789062 15.742188 325.960938 15.742188 C 327.796875 15.742188 328.648438 17.386719 328.648438 19.035156 C 328.648438 20.617188 327.636719 22.230469 326.53125 23.464844 L 322.703125 27.773438 C 322.480469 27.992188 322.480469 28.023438 322.480469 28.5 L 329.914062 28.5 L 330.484375 25.015625 L 329.976562 25.015625 C 329.882812 25.617188 329.722656 26.503906 329.535156 26.789062 C 329.375 26.949219 328.078125 26.949219 327.636719 26.949219 Z M 324.03125 26.949219 "/>
<path style=" stroke:none;fill-rule:nonzero;fill:rgb(0%,0%,0%);fill-opacity:1;" d="M 402.648438 21.441406 C 404.292969 20.902344 405.460938 19.476562 405.460938 17.894531 C 405.460938 16.246094 403.691406 15.140625 401.761719 15.140625 C 399.738281 15.140625 398.21875 16.34375 398.21875 17.863281 C 398.21875 18.527344 398.664062 18.90625 399.234375 18.90625 C 399.863281 18.90625 400.246094 18.464844 400.246094 17.894531 C 400.246094 16.878906 399.328125 16.878906 399.011719 16.878906 C 399.644531 15.898438 400.972656 15.644531 401.667969 15.644531 C 402.488281 15.644531 403.597656 16.089844 403.597656 17.894531 C 403.597656 18.117188 403.566406 19.285156 403.058594 20.171875 C 402.457031 21.125 401.761719 21.1875 401.257812 21.21875 C 401.097656 21.21875 400.625 21.28125 400.464844 21.28125 C 400.308594 21.28125 400.179688 21.3125 400.179688 21.503906 C 400.179688 21.726562 400.308594 21.726562 400.65625 21.726562 L 401.539062 21.726562 C 403.183594 21.726562 403.914062 23.085938 403.914062 25.082031 C 403.914062 27.804688 402.554688 28.375 401.667969 28.375 C 400.8125 28.375 399.296875 28.023438 398.601562 26.855469 C 399.296875 26.949219 399.929688 26.503906 399.929688 25.746094 C 399.929688 25.015625 399.390625 24.636719 398.789062 24.636719 C 398.316406 24.636719 397.683594 24.921875 397.683594 25.777344 C 397.683594 27.613281 399.546875 28.941406 401.730469 28.941406 C 404.164062 28.941406 406 27.105469 406 25.082031 C 406 23.433594 404.734375 21.851562 402.648438 21.441406 Z M 402.648438 21.441406 "/>
<path style=" stroke:none;fill-rule:nonzero;fill:rgb(0%,0%,0%);fill-opacity:1;" d="M 251.996094 270.5625 C 251.996094 270.089844 251.996094 270.058594 251.550781 270.058594 C 250.320312 271.324219 248.546875 271.324219 247.882812 271.324219 L 247.882812 271.957031 C 248.296875 271.957031 249.496094 271.957031 250.507812 271.449219 L 250.507812 281.835938 C 250.507812 282.5625 250.476562 282.785156 248.675781 282.785156 L 248.011719 282.785156 L 248.011719 283.417969 C 248.707031 283.355469 250.476562 283.355469 251.269531 283.355469 C 252.058594 283.355469 253.796875 283.355469 254.523438 283.417969 L 254.523438 282.785156 L 253.859375 282.785156 C 252.058594 282.785156 251.996094 282.5625 251.996094 281.835938 Z M 251.996094 270.5625 "/>
<path style=" stroke:none;fill-rule:nonzero;fill:rgb(0%,0%,0%);fill-opacity:1;" d="M 324.03125 281.867188 L 326.152344 279.808594 C 329.28125 277.023438 330.484375 275.945312 330.484375 273.949219 C 330.484375 271.640625 328.679688 270.058594 326.214844 270.058594 C 323.96875 270.058594 322.480469 271.894531 322.480469 273.699219 C 322.480469 274.804688 323.460938 274.804688 323.527344 274.804688 C 323.875 274.804688 324.570312 274.550781 324.570312 273.730469 C 324.570312 273.222656 324.222656 272.683594 323.527344 272.683594 C 323.367188 272.683594 323.304688 272.683594 323.242188 272.714844 C 323.714844 271.417969 324.789062 270.660156 325.960938 270.660156 C 327.796875 270.660156 328.648438 272.304688 328.648438 273.949219 C 328.648438 275.535156 327.636719 277.148438 326.53125 278.382812 L 322.703125 282.6875 C 322.480469 282.910156 322.480469 282.941406 322.480469 283.417969 L 329.914062 283.417969 L 330.484375 279.933594 L 329.976562 279.933594 C 329.882812 280.535156 329.722656 281.421875 329.535156 281.707031 C 329.375 281.867188 328.078125 281.867188 327.636719 281.867188 Z M 324.03125 281.867188 "/>
<path style=" stroke:none;fill-rule:nonzero;fill:rgb(0%,0%,0%);fill-opacity:1;" d="M 402.648438 276.355469 C 404.292969 275.820312 405.460938 274.394531 405.460938 272.8125 C 405.460938 271.164062 403.691406 270.058594 401.761719 270.058594 C 399.738281 270.058594 398.21875 271.261719 398.21875 272.78125 C 398.21875 273.445312 398.664062 273.824219 399.234375 273.824219 C 399.863281 273.824219 400.246094 273.382812 400.246094 272.8125 C 400.246094 271.796875 399.328125 271.796875 399.011719 271.796875 C 399.644531 270.816406 400.972656 270.5625 401.667969 270.5625 C 402.488281 270.5625 403.597656 271.007812 403.597656 272.8125 C 403.597656 273.03125 403.566406 274.203125 403.058594 275.089844 C 402.457031 276.039062 401.761719 276.105469 401.257812 276.136719 C 401.097656 276.136719 400.625 276.199219 400.464844 276.199219 C 400.308594 276.199219 400.179688 276.230469 400.179688 276.421875 C 400.179688 276.640625 400.308594 276.640625 400.65625 276.640625 L 401.539062 276.640625 C 403.183594 276.640625 403.914062 278.003906 403.914062 280 C 403.914062 282.722656 402.554688 283.289062 401.667969 283.289062 C 400.8125 283.289062 399.296875 282.941406 398.601562 281.769531 C 399.296875 281.867188 399.929688 281.421875 399.929688 280.664062 C 399.929688 279.933594 399.390625 279.554688 398.789062 279.554688 C 398.316406 279.554688 397.683594 279.839844 397.683594 280.695312 C 397.683594 282.53125 399.546875 283.859375 401.730469 283.859375 C 404.164062 283.859375 406 282.023438 406 280 C 406 278.351562 404.734375 276.769531 402.648438 276.355469 Z M 402.648438 276.355469 "/>
<path style="fill:none;stroke-width:0.3985;stroke-linecap:butt;stroke-linejoin:miter;stroke:rgb(0%,0%,0%);stroke-opacity:1;stroke-miterlimit:10;" d="M 75.917074 120.272758 C 75.917074 83.633876 150.857627 100.16357 150.857627 63.526628 " transform="matrix(2.011125,0,0,-2.013422,98.446249,278.402005)"/>
<path style="fill:none;stroke-width:0.3985;stroke-linecap:butt;stroke-linejoin:miter;stroke:rgb(0%,0%,0%);stroke-opacity:1;stroke-miterlimit:10;" d="M 150.857627 63.526628 C 150.857627 37.292529 113.388322 34.005991 113.388322 8.175434 " transform="matrix(2.011125,0,0,-2.013422,98.446249,278.402005)"/>
<path style="fill:none;stroke-width:0.3985;stroke-linecap:round;stroke-linejoin:round;stroke:rgb(0%,0%,0%);stroke-opacity:1;stroke-miterlimit:10;" d="M -2.071373 2.392038 C -1.694992 0.956663 -0.849106 0.276851 -0.00128062 0.00104164 C -0.849106 -0.27671 -1.694992 -0.956522 -2.071373 -2.391897 " transform="matrix(0,2.013422,2.011125,0,326.48228,262.346328)"/>
<path style="fill:none;stroke-width:0.3985;stroke-linecap:butt;stroke-linejoin:miter;stroke:rgb(0%,0%,0%);stroke-opacity:1;stroke-miterlimit:10;" d="M 113.388322 120.272758 C 113.388322 93.6972 75.917074 90.104126 75.917074 63.526628 " transform="matrix(2.011125,0,0,-2.013422,98.446249,278.402005)"/>
<path style="fill:none;stroke-width:0.3985;stroke-linecap:butt;stroke-linejoin:miter;stroke:rgb(0%,0%,0%);stroke-opacity:1;stroke-miterlimit:10;" d="M 75.917074 63.526628 L 75.917074 8.175434 " transform="matrix(2.011125,0,0,-2.013422,98.446249,278.402005)"/>
<path style="fill:none;stroke-width:0.3985;stroke-linecap:round;stroke-linejoin:round;stroke:rgb(0%,0%,0%);stroke-opacity:1;stroke-miterlimit:10;" d="M -2.071373 2.391826 C -1.694992 0.956451 -0.849106 0.280523 -0.00128062 0.000829247 C -0.849106 -0.278865 -1.694992 -0.958677 -2.071373 -2.39211 " transform="matrix(0,2.013422,2.011125,0,251.123332,262.346328)"/>
<path style="fill:none;stroke-width:0.3985;stroke-linecap:butt;stroke-linejoin:miter;stroke:rgb(0%,0%,0%);stroke-opacity:1;stroke-miterlimit:10;" d="M 150.857627 120.272758 C 150.857627 93.6972 113.388322 90.104126 113.388322 63.526628 " transform="matrix(2.011125,0,0,-2.013422,98.446249,278.402005)"/>
<path style="fill:none;stroke-width:0.3985;stroke-linecap:butt;stroke-linejoin:miter;stroke:rgb(0%,0%,0%);stroke-opacity:1;stroke-miterlimit:10;" d="M 113.388322 63.526628 C 113.388322 37.292529 150.857627 34.005991 150.857627 8.175434 " transform="matrix(2.011125,0,0,-2.013422,98.446249,278.402005)"/>
<path style="fill:none;stroke-width:0.3985;stroke-linecap:round;stroke-linejoin:round;stroke:rgb(0%,0%,0%);stroke-opacity:1;stroke-miterlimit:10;" d="M -2.071373 2.392243 C -1.694992 0.95881 -0.849106 0.277056 -0.00128062 -0.000695962 C -0.849106 -0.28039 -1.694992 -0.956318 -2.071373 -2.391693 " transform="matrix(0,2.013422,2.011125,0,401.841243,262.346328)"/>
</g>
</svg>
