<?xml version="1.0" encoding="UTF-8"?>
<svg xmlns="http://www.w3.org/2000/svg" xmlns:xlink="http://www.w3.org/1999/xlink" width="426pt" height="300pt" viewBox="0 0 426 300" version="1.1">
<g id="surface1">
<path style=" stroke:none;fill-rule:nonzero;fill:rgb(0%,0%,0%);fill-opacity:1;" d="M 23.957031 14.761719 C 23.957031 14.285156 23.957031 14.253906 23.515625 14.253906 C 22.28125 15.523438 20.507812 15.523438 19.84375 15.523438 L 19.84375 16.15625 C 20.253906 16.15625 21.457031 16.15625 22.46875 15.648438 L 22.46875 26.035156 C 22.46875 26.765625 22.4375 26.988281 20.636719 26.988281 L 19.972656 26.988281 L 19.972656 27.621094 C 20.667969 27.558594 22.4375 27.558594 23.230469 27.558594 C 24.019531 27.558594 25.761719 27.558594 26.488281 27.621094 L 26.488281 26.988281 L 25.824219 26.988281 C 24.019531 26.988281 23.957031 26.765625 23.957031 26.035156 Z M 23.957031 14.761719 "/>
<path style=" stroke:none;fill-rule:nonzero;fill:rgb(0%,0%,0%);fill-opacity:1;" d="M 96.019531 26.070312 L 98.140625 24.011719 C 101.273438 21.222656 102.472656 20.144531 102.472656 18.152344 C 102.472656 15.839844 100.671875 14.253906 98.203125 14.253906 C 95.957031 14.253906 94.46875 16.09375 94.46875 17.898438 C 94.46875 19.003906 95.453125 19.003906 95.515625 19.003906 C 95.863281 19.003906 96.558594 18.753906 96.558594 17.929688 C 96.558594 17.421875 96.210938 16.882812 95.515625 16.882812 C 95.355469 16.882812 95.292969 16.882812 95.230469 16.914062 C 95.703125 15.617188 96.78125 14.855469 97.949219 14.855469 C 99.785156 14.855469 100.640625 16.503906 100.640625 18.152344 C 100.640625 19.734375 99.628906 21.347656 98.519531 22.585938 L 94.691406 26.890625 C 94.46875 27.113281 94.46875 27.144531 94.46875 27.621094 L 101.90625 27.621094 L 102.472656 24.136719 L 101.96875 24.136719 C 101.875 24.738281 101.714844 25.625 101.523438 25.910156 C 101.367188 26.070312 100.070312 26.070312 99.628906 26.070312 Z M 96.019531 26.070312 "/>
<path style=" stroke:none;fill-rule:nonzero;fill:rgb(0%,0%,0%);fill-opacity:1;" d="M 174.667969 20.558594 C 176.3125 20.019531 177.480469 18.59375 177.480469 17.011719 C 177.480469 15.363281 175.710938 14.253906 173.78125 14.253906 C 171.757812 14.253906 170.238281 15.457031 170.238281 16.980469 C 170.238281 17.644531 170.679688 18.023438 171.25 18.023438 C 171.882812 18.023438 172.261719 17.582031 172.261719 17.011719 C 172.261719 15.996094 171.34375 15.996094 171.027344 15.996094 C 171.660156 15.015625 172.988281 14.761719 173.6875 14.761719 C 174.507812 14.761719 175.617188 15.203125 175.617188 17.011719 C 175.617188 17.230469 175.585938 18.402344 175.078125 19.289062 C 174.476562 20.242188 173.78125 20.304688 173.273438 20.335938 C 173.117188 20.335938 172.640625 20.398438 172.484375 20.398438 C 172.324219 20.398438 172.199219 20.429688 172.199219 20.621094 C 172.199219 20.84375 172.324219 20.84375 172.671875 20.84375 L 173.558594 20.84375 C 175.203125 20.84375 175.933594 22.203125 175.933594 24.199219 C 175.933594 26.921875 174.570312 27.492188 173.6875 27.492188 C 172.832031 27.492188 171.3125 27.144531 170.617188 25.972656 C 171.3125 26.070312 171.945312 25.625 171.945312 24.863281 C 171.945312 24.136719 171.40625 23.757812 170.808594 23.757812 C 170.332031 23.757812 169.699219 24.042969 169.699219 24.898438 C 169.699219 26.734375 171.566406 28.0625 173.75 28.0625 C 176.183594 28.0625 178.019531 26.226562 178.019531 24.199219 C 178.019531 22.554688 176.753906 20.96875 174.667969 20.558594 Z M 174.667969 20.558594 "/>
<path style=" stroke:none;fill-rule:nonzero;fill:rgb(0%,0%,0%);fill-opacity:1;" d="M 23.957031 142.710938 C 23.957031 142.238281 23.957031 142.207031 23.515625 142.207031 C 22.28125 143.472656 20.507812 143.472656 19.84375 143.472656 L 19.84375 144.105469 C 20.253906 144.105469 21.457031 144.105469 22.46875 143.597656 L 22.46875 153.988281 C 22.46875 154.714844 22.4375 154.9375 20.636719 154.9375 L 19.972656 154.9375 L 19.972656 155.570312 C 20.667969 155.507812 22.4375 155.507812 23.230469 155.507812 C 24.019531 155.507812 25.761719 155.507812 26.488281 155.570312 L 26.488281 154.9375 L 25.824219 154.9375 C 24.019531 154.9375 23.957031 154.714844 23.957031 153.988281 Z M 23.957031 142.710938 "/>
<path style=" stroke:none;fill-rule:nonzero;fill:rgb(0%,0%,0%);fill-opacity:1;" d="M 96.019531 154.019531 L 98.140625 151.960938 C 101.273438 149.171875 102.472656 148.097656 102.472656 146.101562 C 102.472656 143.789062 100.671875 142.207031 98.203125 142.207031 C 95.957031 142.207031 94.46875 144.042969 94.46875 145.847656 C 94.46875 146.957031 95.453125 146.957031 95.515625 146.957031 C 95.863281 146.957031 96.558594 146.703125 96.558594 145.878906 C 96.558594 145.375 96.210938 144.835938 95.515625 144.835938 C 95.355469 144.835938 95.292969 144.835938 95.230469 144.867188 C 95.703125 143.566406 96.78125 142.808594 97.949219 142.808594 C 99.785156 142.808594 100.640625 144.453125 100.640625 146.101562 C 100.640625 147.683594 99.628906 149.300781 98.519531 150.535156 L 94.691406 154.84375 C 94.46875 155.066406 94.46875 155.097656 94.46875 155.570312 L 101.90625 155.570312 L 102.472656 152.085938 L 101.96875 152.085938 C 101.875 152.6875 101.714844 153.578125 101.523438 153.859375 C 101.367188 154.019531 100.070312 154.019531 99.628906 154.019531 Z M 96.019531 154.019531 "/>
<path style=" stroke:none;fill-rule:nonzero;fill:rgb(0%,0%,0%);fill-opacity:1;" d="M 174.667969 148.507812 C 176.3125 147.96875 177.480469 146.546875 177.480469 144.960938 C 177.480469 143.3125 175.710938 142.207031 173.78125 142.207031 C 171.757812 142.207031 170.238281 143.410156 170.238281 144.929688 C 170.238281 145.59375 170.679688 145.976562 171.25 145.976562 C 171.882812 145.976562 172.261719 145.53125 172.261719 144.960938 C 172.261719 143.949219 171.34375 143.949219 171.027344 143.949219 C 171.660156 142.964844 172.988281 142.710938 173.6875 142.710938 C 174.507812 142.710938 175.617188 143.15625 175.617188 144.960938 C 175.617188 145.183594 175.585938 146.355469 175.078125 147.242188 C 174.476562 148.191406 173.78125 148.253906 173.273438 148.285156 C 173.117188 148.285156 172.640625 148.351562 172.484375 148.351562 C 172.324219 148.351562 172.199219 148.382812 172.199219 148.570312 C 172.199219 148.792969 172.324219 148.792969 172.671875 148.792969 L 173.558594 148.792969 C 175.203125 148.792969 175.933594 150.15625 175.933594 152.152344 C 175.933594 154.875 174.570312 155.445312 173.6875 155.445312 C 172.832031 155.445312 171.3125 155.097656 170.617188 153.925781 C 171.3125 154.019531 171.945312 153.578125 171.945312 152.816406 C 171.945312 152.085938 171.40625 151.707031 170.808594 151.707031 C 170.332031 151.707031 169.699219 151.992188 169.699219 152.847656 C 169.699219 154.683594 171.566406 156.015625 173.75 156.015625 C 176.183594 156.015625 178.019531 154.179688 178.019531 152.152344 C 178.019531 150.503906 176.753906 148.921875 174.667969 148.507812 Z M 174.667969 148.507812 "/>
<path style=" stroke:none;fill-rule:nonzero;fill:rgb(0%,0%,0%);fill-opacity:1;" d="M 23.957031 270.664062 C 23.957031 270.191406 23.957031 270.160156 23.515625 270.160156 C 22.28125 271.425781 20.507812 271.425781 19.84375 271.425781 L 19.84375 272.058594 C 20.253906 272.058594 21.457031 272.058594 22.46875 271.550781 L 22.46875 281.941406 C 22.46875 282.667969 22.4375 282.890625 20.636719 282.890625 L 19.972656 282.890625 L 19.972656 283.523438 C 20.667969 283.460938 22.4375 283.460938 23.230469 283.460938 C 24.019531 283.460938 25.761719 283.460938 26.488281 283.523438 L 26.488281 282.890625 L 25.824219 282.890625 C 24.019531 282.890625 23.957031 282.667969 23.957031 281.941406 Z M 23.957031 270.664062 "/>
<path style=" stroke:none;fill-rule:nonzero;fill:rgb(0%,0%,0%);fill-opacity:1;" d="M 96.019531 281.972656 L 98.140625 279.914062 C 101.273438 277.125 102.472656 276.050781 102.472656 274.054688 C 102.472656 271.742188 100.671875 270.160156 98.203125 270.160156 C 95.957031 270.160156 94.46875 271.996094 94.46875 273.800781 C 94.46875 274.910156 95.453125 274.910156 95.515625 274.910156 C 95.863281 274.910156 96.558594 274.65625 96.558594 273.832031 C 96.558594 273.328125 96.210938 272.789062 95.515625 272.789062 C 95.355469 272.789062 95.292969 272.789062 95.230469 272.820312 C 95.703125 271.519531 96.78125 270.761719 97.949219 270.761719 C 99.785156 270.761719 100.640625 272.40625 100.640625 274.054688 C 100.640625 275.636719 99.628906 277.253906 98.519531 278.488281 L 94.691406 282.796875 C 94.46875 283.019531 94.46875 283.050781 94.46875 283.523438 L 101.90625 283.523438 L 102.472656 280.039062 L 101.96875 280.039062 C 101.875 280.640625 101.714844 281.53125 101.523438 281.8125 C 101.367188 281.972656 100.070312 281.972656 99.628906 281.972656 Z M 96.019531 281.972656 "/>
<path style=" stroke:none;fill-rule:nonzero;fill:rgb(0%,0%,0%);fill-opacity:1;" d="M 174.667969 276.460938 C 176.3125 275.921875 177.480469 274.5 177.480469 272.914062 C 177.480469 271.265625 175.710938 270.160156 173.78125 270.160156 C 171.757812 270.160156 170.238281 271.363281 170.238281 272.882812 C 170.238281 273.546875 170.679688 273.929688 171.25 273.929688 C 171.882812 273.929688 172.261719 273.484375 172.261719 272.914062 C 172.261719 271.902344 171.34375 271.902344 171.027344 271.902344 C 171.660156 270.917969 172.988281 270.664062 173.6875 270.664062 C 174.507812 270.664062 175.617188 271.109375 175.617188 272.914062 C 175.617188 273.136719 175.585938 274.308594 175.078125 275.195312 C 174.476562 276.144531 173.78125 276.207031 173.273438 276.238281 C 173.117188 276.238281 172.640625 276.304688 172.484375 276.304688 C 172.324219 276.304688 172.199219 276.335938 172.199219 276.523438 C 172.199219 276.746094 172.324219 276.746094 172.671875 276.746094 L 173.558594 276.746094 C 175.203125 276.746094 175.933594 278.109375 175.933594 280.105469 C 175.933594 282.828125 174.570312 283.398438 173.6875 283.398438 C 172.832031 283.398438 171.3125 283.050781 170.617188 281.878906 C 171.3125 281.972656 171.945312 281.53125 171.945312 280.769531 C 171.945312 280.039062 171.40625 279.660156 170.808594 279.660156 C 170.332031 279.660156 169.699219 279.945312 169.699219 280.800781 C 169.699219 282.636719 171.566406 283.96875 173.75 283.96875 C 176.183594 283.96875 178.019531 282.132812 178.019531 280.105469 C 178.019531 278.457031 176.753906 276.875 174.667969 276.460938 Z M 174.667969 276.460938 "/>
<path style="fill:none;stroke-width:0.39848;stroke-linecap:butt;stroke-linejoin:miter;stroke:rgb(0%,0%,0%);stroke-opacity:1;stroke-miterlimit:10;" d="M -37.473093 120.715933 C -37.473093 85.783979 37.470182 106.234648 37.470182 71.698326 " transform="matrix(2.011886,0,0,-2.014184,98.469726,278.507355)"/>
<path style="fill:none;stroke-width:0.39848;stroke-linecap:round;stroke-linejoin:round;stroke:rgb(0%,0%,0%);stroke-opacity:1;stroke-miterlimit:10;" d="M -2.072857 2.389248 C -1.69274 0.954416 -0.851053 0.278744 -0.00160811 -0.000844692 C -0.851053 -0.278491 -1.69274 -0.956105 -2.072857 -2.390937 " transform="matrix(0,2.014184,2.011886,0,173.857168,134.49152)"/>
<path style="fill:none;stroke-width:0.39848;stroke-linecap:butt;stroke-linejoin:miter;stroke:rgb(0%,0%,0%);stroke-opacity:1;stroke-miterlimit:10;" d="M -0.000485055 120.715933 C -0.000485055 96.559125 -37.473093 95.459502 -37.473093 71.698326 " transform="matrix(2.011886,0,0,-2.014184,98.469726,278.507355)"/>
<path style="fill:none;stroke-width:0.39848;stroke-linecap:round;stroke-linejoin:round;stroke:rgb(0%,0%,0%);stroke-opacity:1;stroke-miterlimit:10;" d="M -2.072857 2.391908 C -1.69274 0.957076 -0.851053 0.277521 -0.00160811 -0.002067 C -0.851053 -0.277772 -1.69274 -0.957327 -2.072857 -2.392159 " transform="matrix(0,2.014184,2.011886,0,23.082284,134.49152)"/>
<path style="fill:none;stroke-width:0.39848;stroke-linecap:butt;stroke-linejoin:miter;stroke:rgb(0%,0%,0%);stroke-opacity:1;stroke-miterlimit:10;" d="M 37.470182 120.715933 C 37.470182 96.559125 -0.000485055 95.459502 -0.000485055 71.698326 " transform="matrix(2.011886,0,0,-2.014184,98.469726,278.507355)"/>
<path style="fill:none;stroke-width:0.39848;stroke-linecap:round;stroke-linejoin:round;stroke:rgb(0%,0%,0%);stroke-opacity:1;stroke-miterlimit:10;" d="M -2.072857 2.389607 C -1.69274 0.958658 -0.851053 0.277162 -0.00160811 -0.000485055 C -0.851053 -0.280073 -1.69274 -0.955745 -2.072857 -2.390577 " transform="matrix(0,2.014184,2.011886,0,98.469726,134.49152)"/>
<path style="fill:none;stroke-width:0.39848;stroke-linecap:butt;stroke-linejoin:miter;stroke:rgb(0%,0%,0%);stroke-opacity:1;stroke-miterlimit:10;" d="M -37.473093 57.18989 L -37.473093 8.176162 " transform="matrix(2.011886,0,0,-2.014184,98.469726,278.507355)"/>
<path style="fill:none;stroke-width:0.39848;stroke-linecap:round;stroke-linejoin:round;stroke:rgb(0%,0%,0%);stroke-opacity:1;stroke-miterlimit:10;" d="M -2.071393 2.391908 C -1.695154 0.957076 -0.849589 0.277521 -0.00014408 -0.002067 C -0.849589 -0.277772 -1.695154 -0.957327 -2.071393 -2.392159 " transform="matrix(0,2.014184,2.011886,0,23.082284,262.445603)"/>
<path style="fill:none;stroke-width:0.39848;stroke-linecap:butt;stroke-linejoin:miter;stroke:rgb(0%,0%,0%);stroke-opacity:1;stroke-miterlimit:10;" d="M -0.000485055 57.18989 C -0.000485055 33.031143 37.470182 31.935398 37.470182 8.176162 " transform="matrix(2.011886,0,0,-2.014184,98.469726,278.507355)"/>
<path style="fill:none;stroke-width:0.39848;stroke-linecap:round;stroke-linejoin:round;stroke:rgb(0%,0%,0%);stroke-opacity:1;stroke-miterlimit:10;" d="M -2.071393 2.389248 C -1.695154 0.954416 -0.849589 0.278744 -0.00014408 -0.000844692 C -0.849589 -0.278491 -1.695154 -0.956105 -2.071393 -2.390937 " transform="matrix(0,2.014184,2.011886,0,173.857168,262.445603)"/>
<path style="fill:none;stroke-width:0.39848;stroke-linecap:butt;stroke-linejoin:miter;stroke:rgb(0%,0%,0%);stroke-opacity:1;stroke-miterlimit:10;" d="M 37.470182 57.18989 C 37.470182 33.031143 -0.000485055 31.935398 -0.000485055 8.176162 " transform="matrix(2.011886,0,0,-2.014184,98.469726,278.507355)"/>
<path style="fill:none;stroke-width:0.39848;stroke-linecap:round;stroke-linejoin:round;stroke:rgb(0%,0%,0%);stroke-opacity:1;stroke-miterlimit:10;" d="M -2.071393 2.389607 C -1.695154 0.958658 -0.849589 0.277162 -0.00014408 -0.000485055 C -0.849589 -0.280073 -1.695154 -0.955745 -2.071393 -2.390577 " transform="matrix(0,2.014184,2.011886,0,98.469726,262.445603)"/>
<path style=" stroke:none;fill-rule:nonzero;fill:rgb(0%,0%,0%);fill-opacity:1;" d="M 252.078125 15.652344 C 252.078125 15.175781 252.078125 15.144531 251.632812 15.144531 C 250.398438 16.410156 248.628906 16.410156 247.964844 16.410156 L 247.964844 17.046875 C 248.375 17.046875 249.578125 17.046875 250.589844 16.539062 L 250.589844 26.925781 C 250.589844 27.65625 250.558594 27.878906 248.753906 27.878906 L 248.089844 27.878906 L 248.089844 28.511719 C 248.785156 28.449219 250.558594 28.449219 251.347656 28.449219 C 252.140625 28.449219 253.878906 28.449219 254.609375 28.511719 L 254.609375 27.878906 L 253.945312 27.878906 C 252.140625 27.878906 252.078125 27.65625 252.078125 26.925781 Z M 252.078125 15.652344 "/>
<path style=" stroke:none;fill-rule:nonzero;fill:rgb(0%,0%,0%);fill-opacity:1;" d="M 324.140625 26.957031 L 326.261719 24.898438 C 329.390625 22.113281 330.59375 21.035156 330.59375 19.039062 C 330.59375 16.730469 328.789062 15.144531 326.324219 15.144531 C 324.078125 15.144531 322.589844 16.980469 322.589844 18.789062 C 322.589844 19.894531 323.570312 19.894531 323.632812 19.894531 C 323.980469 19.894531 324.679688 19.640625 324.679688 18.820312 C 324.679688 18.3125 324.332031 17.773438 323.632812 17.773438 C 323.476562 17.773438 323.414062 17.773438 323.347656 17.804688 C 323.824219 16.507812 324.898438 15.746094 326.070312 15.746094 C 327.90625 15.746094 328.757812 17.394531 328.757812 19.039062 C 328.757812 20.625 327.746094 22.238281 326.640625 23.476562 L 322.8125 27.78125 C 322.589844 28.003906 322.589844 28.035156 322.589844 28.511719 L 330.023438 28.511719 L 330.59375 25.027344 L 330.089844 25.027344 C 329.992188 25.628906 329.835938 26.515625 329.644531 26.800781 C 329.488281 26.957031 328.191406 26.957031 327.746094 26.957031 Z M 324.140625 26.957031 "/>
<path style=" stroke:none;fill-rule:nonzero;fill:rgb(0%,0%,0%);fill-opacity:1;" d="M 402.785156 21.449219 C 404.429688 20.910156 405.601562 19.484375 405.601562 17.902344 C 405.601562 16.253906 403.832031 15.144531 401.902344 15.144531 C 399.875 15.144531 398.355469 16.347656 398.355469 17.867188 C 398.355469 18.535156 398.800781 18.914062 399.371094 18.914062 C 400.003906 18.914062 400.382812 18.46875 400.382812 17.902344 C 400.382812 16.886719 399.464844 16.886719 399.148438 16.886719 C 399.78125 15.90625 401.109375 15.652344 401.804688 15.652344 C 402.628906 15.652344 403.734375 16.09375 403.734375 17.902344 C 403.734375 18.121094 403.703125 19.292969 403.199219 20.179688 C 402.597656 21.132812 401.902344 21.195312 401.394531 21.226562 C 401.234375 21.226562 400.761719 21.289062 400.605469 21.289062 C 400.445312 21.289062 400.320312 21.320312 400.320312 21.511719 C 400.320312 21.734375 400.445312 21.734375 400.792969 21.734375 L 401.679688 21.734375 C 403.324219 21.734375 404.050781 23.09375 404.050781 25.089844 C 404.050781 27.8125 402.691406 28.382812 401.804688 28.382812 C 400.953125 28.382812 399.433594 28.035156 398.738281 26.863281 C 399.433594 26.957031 400.066406 26.515625 400.066406 25.753906 C 400.066406 25.027344 399.527344 24.648438 398.925781 24.648438 C 398.453125 24.648438 397.820312 24.933594 397.820312 25.785156 C 397.820312 27.625 399.6875 28.953125 401.867188 28.953125 C 404.304688 28.953125 406.140625 27.117188 406.140625 25.089844 C 406.140625 23.441406 404.875 21.859375 402.785156 21.449219 Z M 402.785156 21.449219 "/>
<path style=" stroke:none;fill-rule:nonzero;fill:rgb(0%,0%,0%);fill-opacity:1;" d="M 252.078125 270.664062 C 252.078125 270.191406 252.078125 270.160156 251.632812 270.160156 C 250.398438 271.425781 248.628906 271.425781 247.964844 271.425781 L 247.964844 272.058594 C 248.375 272.058594 249.578125 272.058594 250.589844 271.550781 L 250.589844 281.941406 C 250.589844 282.667969 250.558594 282.890625 248.753906 282.890625 L 248.089844 282.890625 L 248.089844 283.523438 C 248.785156 283.460938 250.558594 283.460938 251.347656 283.460938 C 252.140625 283.460938 253.878906 283.460938 254.609375 283.523438 L 254.609375 282.890625 L 253.945312 282.890625 C 252.140625 282.890625 252.078125 282.667969 252.078125 281.941406 Z M 252.078125 270.664062 "/>
<path style=" stroke:none;fill-rule:nonzero;fill:rgb(0%,0%,0%);fill-opacity:1;" d="M 324.140625 281.972656 L 326.261719 279.914062 C 329.390625 277.125 330.59375 276.050781 330.59375 274.054688 C 330.59375 271.742188 328.789062 270.160156 326.324219 270.160156 C 324.078125 270.160156 322.589844 271.996094 322.589844 273.800781 C 322.589844 274.910156 323.570312 274.910156 323.632812 274.910156 C 323.980469 274.910156 324.679688 274.65625 324.679688 273.832031 C 324.679688 273.328125 324.332031 272.789062 323.632812 272.789062 C 323.476562 272.789062 323.414062 272.789062 323.347656 272.820312 C 323.824219 271.519531 324.898438 270.761719 326.070312 270.761719 C 327.90625 270.761719 328.757812 272.40625 328.757812 274.054688 C 328.757812 275.636719 327.746094 277.253906 326.640625 278.488281 L 322.8125 282.796875 C 322.589844 283.019531 322.589844 283.050781 322.589844 283.523438 L 330.023438 283.523438 L 330.59375 280.039062 L 330.089844 280.039062 C 329.992188 280.640625 329.835938 281.53125 329.644531 281.8125 C 329.488281 281.972656 328.191406 281.972656 327.746094 281.972656 Z M 324.140625 281.972656 "/>
<path style=" stroke:none;fill-rule:nonzero;fill:rgb(0%,0%,0%);fill-opacity:1;" d="M 402.785156 276.460938 C 404.429688 275.921875 405.601562 274.5 405.601562 272.914062 C 405.601562 271.265625 403.832031 270.160156 401.902344 270.160156 C 399.875 270.160156 398.355469 271.363281 398.355469 272.882812 C 398.355469 273.546875 398.800781 273.929688 399.371094 273.929688 C 400.003906 273.929688 400.382812 273.484375 400.382812 272.914062 C 400.382812 271.902344 399.464844 271.902344 399.148438 271.902344 C 399.78125 270.917969 401.109375 270.664062 401.804688 270.664062 C 402.628906 270.664062 403.734375 271.109375 403.734375 272.914062 C 403.734375 273.136719 403.703125 274.308594 403.199219 275.195312 C 402.597656 276.144531 401.902344 276.207031 401.394531 276.238281 C 401.234375 276.238281 400.761719 276.304688 400.605469 276.304688 C 400.445312 276.304688 400.320312 276.335938 400.320312 276.523438 C 400.320312 276.746094 400.445312 276.746094 400.792969 276.746094 L 401.679688 276.746094 C 403.324219 276.746094 404.050781 278.109375 404.050781 280.105469 C 404.050781 282.828125 402.691406 283.398438 401.804688 283.398438 C 400.953125 283.398438 399.433594 283.050781 398.738281 281.878906 C 399.433594 281.972656 400.066406 281.53125 400.066406 280.769531 C 400.066406 280.039062 399.527344 279.660156 398.925781 279.660156 C 398.453125 279.660156 397.820312 279.945312 397.820312 280.800781 C 397.820312 282.636719 399.6875 283.96875 401.867188 283.96875 C 404.304688 283.96875 406.140625 282.132812 406.140625 280.105469 C 406.140625 278.457031 404.875 276.875 402.785156 276.460938 Z M 402.785156 276.460938 "/>
<path style="fill:none;stroke-width:0.3985;stroke-linecap:butt;stroke-linejoin:miter;stroke:rgb(0%,0%,0%);stroke-opacity:1;stroke-miterlimit:10;" d="M 75.917466 120.271817 C 75.917466 83.633216 150.856858 100.164416 150.856858 63.525816 " transform="matrix(2.011886,0,0,-2.014184,98.469726,278.507355)"/>
<path style="fill:none;stroke-width:0.3985;stroke-linecap:butt;stroke-linejoin:miter;stroke:rgb(0%,0%,0%);stroke-opacity:1;stroke-miterlimit:10;" d="M 150.856858 63.525816 C 150.856858 37.293881 113.390075 34.006647 113.390075 8.176162 " transform="matrix(2.011886,0,0,-2.014184,98.469726,278.507355)"/>
<path style="fill:none;stroke-width:0.3985;stroke-linecap:round;stroke-linejoin:round;stroke:rgb(0%,0%,0%);stroke-opacity:1;stroke-miterlimit:10;" d="M -2.071382 2.392878 C -1.695144 0.958046 -0.849579 0.276549 -0.000134016 0.00278575 C -0.849579 -0.276803 -1.695144 -0.956358 -2.071382 -2.39119 " transform="matrix(0,2.014184,2.011886,0,326.592052,262.445582)"/>
<path style="fill:none;stroke-width:0.3985;stroke-linecap:butt;stroke-linejoin:miter;stroke:rgb(0%,0%,0%);stroke-opacity:1;stroke-miterlimit:10;" d="M 113.390075 120.271817 C 113.390075 93.698553 75.917466 90.104898 75.917466 63.525816 " transform="matrix(2.011886,0,0,-2.014184,98.469726,278.507355)"/>
<path style="fill:none;stroke-width:0.3985;stroke-linecap:butt;stroke-linejoin:miter;stroke:rgb(0%,0%,0%);stroke-opacity:1;stroke-miterlimit:10;" d="M 75.917466 63.525816 L 75.917466 8.176162 " transform="matrix(2.011886,0,0,-2.014184,98.469726,278.507355)"/>
<path style="fill:none;stroke-width:0.3985;stroke-linecap:round;stroke-linejoin:round;stroke:rgb(0%,0%,0%);stroke-opacity:1;stroke-miterlimit:10;" d="M -2.071382 2.391315 C -1.695144 0.956483 -0.849579 0.280811 -0.000134016 0.00122292 C -0.849579 -0.278365 -1.695144 -0.957921 -2.071382 -2.392753 " transform="matrix(0,2.014184,2.011886,0,251.204571,262.445582)"/>
<path style="fill:none;stroke-width:0.3985;stroke-linecap:butt;stroke-linejoin:miter;stroke:rgb(0%,0%,0%);stroke-opacity:1;stroke-miterlimit:10;" d="M 150.856858 120.271817 C 150.856858 93.698553 113.390075 90.104898 113.390075 63.525816 " transform="matrix(2.011886,0,0,-2.014184,98.469726,278.507355)"/>
<path style="fill:none;stroke-width:0.3985;stroke-linecap:butt;stroke-linejoin:miter;stroke:rgb(0%,0%,0%);stroke-opacity:1;stroke-miterlimit:10;" d="M 113.390075 63.525816 C 113.390075 37.293881 150.856858 34.006647 150.856858 8.176162 " transform="matrix(2.011886,0,0,-2.014184,98.469726,278.507355)"/>
<path style="fill:none;stroke-width:0.3985;stroke-linecap:round;stroke-linejoin:round;stroke:rgb(0%,0%,0%);stroke-opacity:1;stroke-miterlimit:10;" d="M -2.071382 2.392508 C -1.695144 0.957676 -0.849579 0.278121 -0.000134016 -0.00146713 C -0.849579 -0.281056 -1.695144 -0.956727 -2.071382 -2.391559 " transform="matrix(0,2.014184,2.011886,0,401.979514,262.445582)"/>
</g>
</svg>
