<?xml version="1.0" encoding="UTF-8"?>
<svg xmlns="http://www.w3.org/2000/svg" xmlns:xlink="http://www.w3.org/1999/xlink" width="300pt" height="300pt" viewBox="0 0 300 300" version="1.1">
<defs>
<clipPath id="clip1">
  <path d="M 0 0 L 299.921875 0 L 299.921875 299.921875 L 0 299.921875 Z M 0 0 "/>
</clipPath>
</defs>
<g id="surface1">
<g clip-path="url(#clip1)" clip-rule="nonzero">
<path style="fill-rule:nonzero;fill:rgb(100%,74.901961%,74.901961%);fill-opacity:1;stroke-width:0.3985;stroke-linecap:butt;stroke-linejoin:miter;stroke:rgb(0%,0%,0%);stroke-opacity:1;stroke-miterlimit:10;" d="M 0.00106652 -0.000944957 L 113.386974 -0.000944957 L 113.386974 113.384963 L 0.00106652 113.384963 Z M 0.00106652 -0.000944957 " transform="matrix(2.635841,0,0,-2.635841,0.524533,299.39204)"/>
</g>
<path style="fill-rule:nonzero;fill:rgb(50.196078%,83.921569%,96.862745%);fill-opacity:1;stroke-width:0.3985;stroke-linecap:butt;stroke-linejoin:miter;stroke:rgb(0%,0%,0%);stroke-opacity:1;stroke-miterlimit:10;" d="M 86.582492 56.692009 C 86.582492 73.199729 73.20174 86.580481 56.694021 86.580481 C 40.186301 86.580481 26.805549 73.199729 26.805549 56.692009 C 26.805549 40.188735 40.186301 26.803537 56.694021 26.803537 C 73.20174 26.803537 86.582492 40.188735 86.582492 56.692009 Z M 86.582492 56.692009 " transform="matrix(2.635841,0,0,-2.635841,0.524533,299.39204)"/>
<path style=" stroke:none;fill-rule:nonzero;fill:rgb(0%,0%,0%);fill-opacity:1;" d="M 144.816406 155.917969 C 143.742188 157.652344 142.75 158.023438 141.597656 158.105469 C 141.265625 158.148438 141.019531 158.148438 141.019531 158.640625 C 141.019531 158.808594 141.140625 158.929688 141.390625 158.929688 C 142.089844 158.929688 142.875 158.847656 143.617188 158.847656 C 144.484375 158.847656 145.390625 158.929688 146.257812 158.929688 C 146.425781 158.929688 146.753906 158.929688 146.753906 158.433594 C 146.753906 158.148438 146.507812 158.105469 146.339844 158.105469 C 145.722656 158.0625 145.105469 157.859375 145.105469 157.199219 C 145.105469 156.867188 145.269531 156.578125 145.476562 156.207031 L 147.457031 152.863281 L 154.058594 152.863281 C 154.097656 153.402344 154.46875 156.992188 154.46875 157.238281 C 154.46875 158.023438 153.109375 158.105469 152.574219 158.105469 C 152.199219 158.105469 151.953125 158.105469 151.953125 158.640625 C 151.953125 158.929688 152.242188 158.929688 152.324219 158.929688 C 153.398438 158.929688 154.511719 158.847656 155.585938 158.847656 C 156.246094 158.847656 157.894531 158.929688 158.554688 158.929688 C 158.71875 158.929688 159.050781 158.929688 159.050781 158.394531 C 159.050781 158.105469 158.761719 158.105469 158.433594 158.105469 C 156.78125 158.105469 156.78125 157.941406 156.738281 157.15625 L 155.128906 140.773438 C 155.089844 140.238281 155.089844 140.15625 154.636719 140.15625 C 154.222656 140.15625 154.097656 140.320312 153.933594 140.570312 Z M 147.949219 152.039062 L 153.109375 143.375 L 153.976562 152.039062 Z M 147.949219 152.039062 "/>
<path style=" stroke:none;fill-rule:nonzero;fill:rgb(0%,0%,0%);fill-opacity:1;" d="M 255.4375 42.273438 L 255.4375 41.488281 L 245.988281 41.488281 L 245.988281 42.273438 Z M 255.4375 42.273438 "/>
<path style=" stroke:none;fill-rule:nonzero;fill:rgb(0%,0%,0%);fill-opacity:1;" d="M 241.949219 60.589844 C 240.875 62.320312 239.886719 62.691406 238.730469 62.773438 C 238.398438 62.816406 238.152344 62.816406 238.152344 63.3125 C 238.152344 63.476562 238.277344 63.601562 238.523438 63.601562 C 239.226562 63.601562 240.007812 63.519531 240.75 63.519531 C 241.617188 63.519531 242.527344 63.601562 243.390625 63.601562 C 243.558594 63.601562 243.886719 63.601562 243.886719 63.105469 C 243.886719 62.816406 243.640625 62.773438 243.476562 62.773438 C 242.855469 62.734375 242.238281 62.527344 242.238281 61.867188 C 242.238281 61.535156 242.402344 61.25 242.609375 60.875 L 244.589844 57.535156 L 251.191406 57.535156 C 251.230469 58.070312 251.605469 61.660156 251.605469 61.910156 C 251.605469 62.691406 250.242188 62.773438 249.707031 62.773438 C 249.335938 62.773438 249.085938 62.773438 249.085938 63.3125 C 249.085938 63.601562 249.375 63.601562 249.457031 63.601562 C 250.53125 63.601562 251.644531 63.519531 252.71875 63.519531 C 253.378906 63.519531 255.027344 63.601562 255.6875 63.601562 C 255.855469 63.601562 256.183594 63.601562 256.183594 63.0625 C 256.183594 62.773438 255.894531 62.773438 255.566406 62.773438 C 253.914062 62.773438 253.914062 62.609375 253.875 61.824219 L 252.265625 45.445312 C 252.222656 44.90625 252.222656 44.824219 251.769531 44.824219 C 251.355469 44.824219 251.230469 44.992188 251.066406 45.238281 Z M 245.085938 56.710938 L 250.242188 48.042969 L 251.109375 56.710938 Z M 245.085938 56.710938 "/>
</g>
</svg>
