<?xml version="1.0" encoding="UTF-8"?>
<svg xmlns="http://www.w3.org/2000/svg" xmlns:xlink="http://www.w3.org/1999/xlink" width="300px" height="300px" viewBox="0 0 300 300" version="1.1">
<defs>
<clipPath id="clip1">
  <path d="M 0 0 L 299.4375 0 L 299.4375 299.4375 L 0 299.4375 Z M 0 0 "/>
</clipPath>
</defs>
<g id="surface1">
<path style=" stroke:none;fill-rule:nonzero;fill:rgb(100%,74.901962%,74.901962%);fill-opacity:1;" d="M 0.523438 298.910156 L 298.910156 298.910156 L 298.910156 0.523438 L 0.523438 0.523438 Z M 0.523438 298.910156 "/>
<g clip-path="url(#clip1)" clip-rule="nonzero">
<path style="fill:none;stroke-width:0.3985;stroke-linecap:butt;stroke-linejoin:miter;stroke:rgb(0%,0%,0%);stroke-opacity:1;stroke-miterlimit:10;" d="M -0.0000938103 -0.00085315 L 113.386887 -0.00085315 L 113.386887 113.386128 L -0.0000938103 113.386128 Z M -0.0000938103 -0.00085315 " transform="matrix(2.631578,0,0,-2.631578,0.523684,298.907911)"/>
</g>
<path style="fill-rule:nonzero;fill:rgb(50.196081%,83.92157%,96.862745%);fill-opacity:1;stroke-width:0.3985;stroke-linecap:butt;stroke-linejoin:miter;stroke:rgb(0%,0%,0%);stroke-opacity:1;stroke-miterlimit:10;" d="M 86.582037 56.691895 C 86.582037 73.199633 73.201877 86.581277 56.694139 86.581277 C 40.1864 86.581277 26.804756 73.199633 26.804756 56.691895 C 26.804756 40.18861 40.1864 26.803997 56.694139 26.803997 C 73.201877 26.803997 86.582037 40.18861 86.582037 56.691895 Z M 86.582037 56.691895 " transform="matrix(2.631578,0,0,-2.631578,0.523684,298.907911)"/>
<path style=" stroke:none;fill-rule:nonzero;fill:rgb(0%,0%,0%);fill-opacity:1;" d="M 144.582031 155.667969 C 143.507812 157.398438 142.519531 157.765625 141.367188 157.851562 C 141.039062 157.890625 140.789062 157.890625 140.789062 158.386719 C 140.789062 158.550781 140.914062 158.671875 141.160156 158.671875 C 141.863281 158.671875 142.644531 158.589844 143.386719 158.589844 C 144.25 158.589844 145.15625 158.671875 146.023438 158.671875 C 146.1875 158.671875 146.515625 158.671875 146.515625 158.179688 C 146.515625 157.890625 146.269531 157.851562 146.105469 157.851562 C 145.488281 157.808594 144.867188 157.601562 144.867188 156.945312 C 144.867188 156.613281 145.035156 156.324219 145.238281 155.953125 L 147.21875 152.617188 L 153.808594 152.617188 C 153.851562 153.152344 154.21875 156.738281 154.21875 156.984375 C 154.21875 157.765625 152.859375 157.851562 152.324219 157.851562 C 151.953125 157.851562 151.707031 157.851562 151.707031 158.386719 C 151.707031 158.671875 151.996094 158.671875 152.078125 158.671875 C 153.148438 158.671875 154.261719 158.589844 155.332031 158.589844 C 155.992188 158.589844 157.640625 158.671875 158.300781 158.671875 C 158.464844 158.671875 158.792969 158.671875 158.792969 158.136719 C 158.792969 157.851562 158.503906 157.851562 158.175781 157.851562 C 156.527344 157.851562 156.527344 157.683594 156.488281 156.902344 L 154.878906 140.546875 C 154.839844 140.011719 154.839844 139.929688 154.386719 139.929688 C 153.972656 139.929688 153.851562 140.09375 153.683594 140.339844 Z M 147.710938 151.792969 L 152.859375 143.144531 L 153.726562 151.792969 Z M 147.710938 151.792969 "/>
<path style=" stroke:none;fill-rule:nonzero;fill:rgb(0%,0%,0%);fill-opacity:1;" d="M 255.027344 42.207031 L 255.027344 41.421875 L 245.589844 41.421875 L 245.589844 42.207031 Z M 255.027344 42.207031 "/>
<path style=" stroke:none;fill-rule:nonzero;fill:rgb(0%,0%,0%);fill-opacity:1;" d="M 241.558594 60.488281 C 240.484375 62.21875 239.496094 62.589844 238.34375 62.671875 C 238.015625 62.714844 237.765625 62.714844 237.765625 63.210938 C 237.765625 63.375 237.890625 63.496094 238.136719 63.496094 C 238.839844 63.496094 239.621094 63.414062 240.363281 63.414062 C 241.226562 63.414062 242.132812 63.496094 243 63.496094 C 243.164062 63.496094 243.492188 63.496094 243.492188 63.003906 C 243.492188 62.714844 243.246094 62.671875 243.082031 62.671875 C 242.464844 62.632812 241.84375 62.425781 241.84375 61.765625 C 241.84375 61.4375 242.011719 61.148438 242.214844 60.777344 L 244.195312 57.441406 L 250.785156 57.441406 C 250.824219 57.976562 251.195312 61.5625 251.195312 61.808594 C 251.195312 62.589844 249.835938 62.671875 249.300781 62.671875 C 248.929688 62.671875 248.683594 62.671875 248.683594 63.210938 C 248.683594 63.496094 248.972656 63.496094 249.054688 63.496094 C 250.125 63.496094 251.238281 63.414062 252.308594 63.414062 C 252.96875 63.414062 254.617188 63.496094 255.273438 63.496094 C 255.441406 63.496094 255.769531 63.496094 255.769531 62.960938 C 255.769531 62.671875 255.480469 62.671875 255.152344 62.671875 C 253.503906 62.671875 253.503906 62.507812 253.460938 61.726562 L 251.855469 45.371094 C 251.816406 44.835938 251.816406 44.753906 251.363281 44.753906 C 250.949219 44.753906 250.824219 44.917969 250.660156 45.164062 Z M 244.6875 56.617188 L 249.835938 47.964844 L 250.703125 56.617188 Z M 244.6875 56.617188 "/>
</g>
</svg>
