<?xml version="1.0" encoding="UTF-8"?>
<svg xmlns="http://www.w3.org/2000/svg" xmlns:xlink="http://www.w3.org/1999/xlink" width="399pt" height="300pt" viewBox="0 0 399 300" version="1.1">
<defs>
<clipPath id="clip1">
  <path d="M 1 51 L 166 51 L 166 297.878906 L 1 297.878906 Z M 1 51 "/>
</clipPath>
<clipPath id="clip2">
  <path d="M 0.871094 28 L 189 28 L 189 297.878906 L 0.871094 297.878906 Z M 0.871094 28 "/>
</clipPath>
<clipPath id="clip3">
  <path d="M 234 51 L 398 51 L 398 297.878906 L 234 297.878906 Z M 234 51 "/>
</clipPath>
<clipPath id="clip4">
  <path d="M 211 28 L 398.488281 28 L 398.488281 297.878906 L 211 297.878906 Z M 211 28 "/>
</clipPath>
</defs>
<g id="surface1">
<g clip-path="url(#clip1)" clip-rule="nonzero">
<path style=" stroke:none;fill-rule:nonzero;fill:rgb(100%,74.901961%,74.901961%);fill-opacity:1;" d="M 165.132812 174.492188 C 165.132812 106.804688 128.550781 51.929688 83.402344 51.929688 C 38.273438 51.929688 1.675781 106.804688 1.675781 174.492188 C 1.675781 242.183594 38.273438 297.058594 83.402344 297.058594 C 128.550781 297.058594 165.132812 242.183594 165.132812 174.492188 Z M 165.132812 174.492188 "/>
</g>
<g clip-path="url(#clip2)" clip-rule="nonzero">
<path style="fill:none;stroke-width:0.3985;stroke-linecap:butt;stroke-linejoin:miter;stroke:rgb(0%,0%,0%);stroke-opacity:1;stroke-miterlimit:10;" d="M 19.924743 0.00129688 C 19.924743 16.507977 11.005841 29.890123 -0.0015988 29.890123 C -11.004277 29.890123 -19.926988 16.507977 -19.926988 0.00129688 C -19.926988 -16.506336 -11.004277 -29.888482 -0.0015988 -29.888482 C 11.005841 -29.888482 19.924743 -16.506336 19.924743 0.00129688 Z M 19.924743 0.00129688 " transform="matrix(4.101629,0,0,-4.100613,83.408901,174.497505)"/>
</g>
<g clip-path="url(#clip3)" clip-rule="nonzero">
<path style=" stroke:none;fill-rule:nonzero;fill:rgb(0%,67.843137%,93.72549%);fill-opacity:1;" d="M 397.667969 174.492188 C 397.667969 106.804688 361.085938 51.929688 315.9375 51.929688 C 270.804688 51.929688 234.222656 106.804688 234.222656 174.492188 C 234.222656 242.183594 270.804688 297.058594 315.9375 297.058594 C 361.085938 297.058594 397.667969 242.183594 397.667969 174.492188 Z M 397.667969 174.492188 "/>
</g>
<g clip-path="url(#clip4)" clip-rule="nonzero">
<path style="fill:none;stroke-width:0.3985;stroke-linecap:butt;stroke-linejoin:miter;stroke:rgb(0%,0%,0%);stroke-opacity:1;stroke-miterlimit:10;" d="M 76.618105 0.00129688 C 76.618105 16.507977 67.699203 29.890123 56.691763 29.890123 C 45.688133 29.890123 36.769231 16.507977 36.769231 0.00129688 C 36.769231 -16.506336 45.688133 -29.888482 56.691763 -29.888482 C 67.699203 -29.888482 76.618105 -16.506336 76.618105 0.00129688 Z M 76.618105 0.00129688 " transform="matrix(4.101629,0,0,-4.100613,83.408901,174.497505)"/>
</g>
<path style=" stroke:none;fill-rule:nonzero;fill:rgb(0%,0%,0%);fill-opacity:1;" d="M 76.980469 29.746094 C 76.015625 31.289062 75.113281 32 73.4375 32.128906 C 73.117188 32.128906 72.730469 32.128906 72.730469 32.707031 C 72.730469 33.027344 72.988281 33.15625 73.179688 33.15625 C 73.890625 33.15625 74.855469 33.027344 75.628906 33.027344 C 76.53125 33.027344 77.691406 33.15625 78.527344 33.15625 C 78.71875 33.15625 79.105469 33.15625 79.105469 32.515625 C 79.105469 32.128906 78.785156 32.128906 78.65625 32.128906 C 78.398438 32.128906 77.367188 32.0625 77.367188 31.289062 C 77.367188 30.902344 77.691406 30.453125 77.820312 30.195312 L 80.074219 26.65625 L 88.253906 26.65625 L 88.960938 31.355469 C 88.832031 31.675781 88.703125 32.128906 86.964844 32.128906 C 86.640625 32.128906 86.253906 32.128906 86.253906 32.769531 C 86.253906 32.898438 86.320312 33.15625 86.707031 33.15625 C 87.542969 33.15625 89.539062 33.027344 90.378906 33.027344 C 90.894531 33.027344 91.535156 33.09375 92.050781 33.09375 C 92.566406 33.09375 93.210938 33.15625 93.726562 33.15625 C 94.113281 33.15625 94.304688 32.898438 94.304688 32.578125 C 94.304688 32.128906 93.917969 32.128906 93.46875 32.128906 C 91.792969 32.128906 91.792969 31.871094 91.664062 31.226562 L 89.152344 13.582031 C 89.089844 13.003906 89.023438 12.746094 88.507812 12.746094 C 87.929688 12.746094 87.738281 13.003906 87.480469 13.453125 Z M 80.78125 25.625 L 86.769531 16.289062 L 88.125 25.625 Z M 80.78125 25.625 "/>
<path style=" stroke:none;fill-rule:nonzero;fill:rgb(0%,0%,0%);fill-opacity:1;" d="M 84.859375 84.183594 C 84.859375 83.414062 84.796875 83.347656 83.957031 83.347656 C 82.15625 85.152344 79.578125 85.214844 78.355469 85.214844 L 78.355469 86.246094 C 79.0625 86.246094 80.929688 86.246094 82.539062 85.410156 L 82.539062 100.023438 C 82.539062 100.925781 82.539062 101.3125 79.644531 101.3125 L 78.613281 101.3125 L 78.613281 102.34375 C 79.0625 102.34375 82.605469 102.214844 83.699219 102.214844 C 84.539062 102.214844 88.144531 102.34375 88.789062 102.34375 L 88.789062 101.3125 L 87.691406 101.3125 C 84.859375 101.3125 84.859375 100.925781 84.859375 100.023438 Z M 84.859375 84.183594 "/>
<path style=" stroke:none;fill-rule:nonzero;fill:rgb(0%,0%,0%);fill-opacity:1;" d="M 125.277344 144.140625 L 125.277344 143.109375 L 122.121094 143.109375 L 122.121094 130.359375 C 122.121094 129.78125 122.121094 129.585938 121.480469 129.585938 C 121.09375 129.585938 121.027344 129.585938 120.707031 129.972656 L 111.238281 143.109375 L 111.238281 144.140625 L 119.675781 144.140625 L 119.675781 146.523438 C 119.675781 147.488281 119.675781 147.808594 117.355469 147.808594 L 116.582031 147.808594 L 116.582031 148.839844 C 118 148.777344 119.867188 148.710938 120.898438 148.710938 C 121.929688 148.710938 123.734375 148.777344 125.214844 148.839844 L 125.214844 147.808594 L 124.441406 147.808594 C 122.121094 147.808594 122.121094 147.488281 122.121094 146.523438 L 122.121094 144.140625 Z M 119.867188 132.679688 L 119.867188 143.109375 L 112.332031 143.109375 Z M 119.867188 132.679688 "/>
<path style=" stroke:none;fill-rule:nonzero;fill:rgb(0%,0%,0%);fill-opacity:1;" d="M 43.183594 178.496094 L 42.21875 178.496094 C 42.15625 179.140625 41.832031 180.8125 41.511719 181.136719 C 41.253906 181.265625 39.0625 181.265625 38.675781 181.265625 L 33.394531 181.265625 C 36.421875 178.625 37.390625 177.851562 39.128906 176.5 C 41.253906 174.761719 43.183594 173.023438 43.183594 170.320312 C 43.183594 166.839844 40.160156 164.71875 36.488281 164.71875 C 32.945312 164.71875 30.5625 167.226562 30.5625 169.867188 C 30.5625 171.285156 31.785156 171.476562 32.109375 171.476562 C 32.75 171.476562 33.589844 170.960938 33.589844 169.933594 C 33.589844 169.417969 33.394531 168.386719 31.914062 168.386719 C 32.816406 166.390625 34.75 165.746094 36.101562 165.746094 C 38.933594 165.746094 40.417969 168 40.417969 170.320312 C 40.417969 172.765625 38.675781 174.761719 37.710938 175.792969 L 30.820312 182.617188 C 30.5625 182.875 30.5625 182.9375 30.5625 183.710938 L 42.347656 183.710938 Z M 43.183594 178.496094 "/>
<path style=" stroke:none;fill-rule:nonzero;fill:rgb(0%,0%,0%);fill-opacity:1;" d="M 106.308594 243.925781 C 108.5625 243.925781 110.171875 245.46875 110.171875 248.496094 C 110.171875 252.039062 108.113281 253.132812 106.4375 253.132812 C 105.277344 253.132812 102.765625 252.8125 101.605469 251.136719 C 102.894531 251.074219 103.214844 250.105469 103.214844 249.527344 C 103.214844 248.625 102.574219 247.917969 101.671875 247.917969 C 100.832031 247.917969 100.0625 248.433594 100.0625 249.589844 C 100.0625 252.296875 103.023438 254.035156 106.5 254.035156 C 110.496094 254.035156 113.199219 251.394531 113.199219 248.496094 C 113.199219 246.308594 111.394531 244.054688 108.242188 243.410156 C 111.265625 242.316406 112.296875 240.191406 112.296875 238.386719 C 112.296875 236.132812 109.722656 234.460938 106.566406 234.460938 C 103.34375 234.460938 100.960938 236.003906 100.960938 238.324219 C 100.960938 239.289062 101.605469 239.804688 102.445312 239.804688 C 103.34375 239.804688 103.859375 239.160156 103.859375 238.386719 C 103.859375 237.550781 103.34375 236.90625 102.445312 236.84375 C 103.410156 235.617188 105.40625 235.296875 106.4375 235.296875 C 107.726562 235.296875 109.527344 235.941406 109.527344 238.386719 C 109.527344 239.609375 109.140625 240.964844 108.433594 241.800781 C 107.46875 242.894531 106.695312 242.960938 105.214844 243.023438 C 104.503906 243.089844 104.441406 243.089844 104.3125 243.152344 C 104.246094 243.152344 104.054688 243.21875 104.054688 243.472656 C 104.054688 243.925781 104.3125 243.925781 104.761719 243.925781 Z M 106.308594 243.925781 "/>
<path style=" stroke:none;fill-rule:nonzero;fill:rgb(0%,0%,0%);fill-opacity:1;" d="M 308.308594 30.902344 C 308.050781 31.871094 307.988281 32.128906 305.796875 32.128906 C 305.347656 32.128906 304.960938 32.128906 304.960938 32.707031 C 304.960938 33.15625 305.28125 33.15625 305.796875 33.15625 L 316.875 33.15625 C 321.707031 33.15625 325.375 29.875 325.375 27.039062 C 325.375 24.980469 323.507812 23.242188 320.480469 22.917969 C 323.960938 22.339844 326.859375 20.152344 326.859375 17.703125 C 326.859375 15.515625 324.605469 13.648438 320.933594 13.648438 L 310.5 13.648438 C 309.984375 13.648438 309.597656 13.648438 309.597656 14.292969 C 309.597656 14.679688 309.917969 14.679688 310.5 14.679688 C 310.5625 14.679688 311.078125 14.679688 311.59375 14.742188 C 312.171875 14.808594 312.238281 14.808594 312.238281 15.128906 C 312.238281 15.191406 312.238281 15.320312 312.109375 15.773438 Z M 312.882812 22.597656 L 314.621094 15.644531 C 314.878906 14.742188 314.878906 14.679688 316.101562 14.679688 L 320.480469 14.679688 C 323.378906 14.679688 324.023438 16.546875 324.023438 17.640625 C 324.023438 19.957031 321.449219 22.597656 317.582031 22.597656 Z M 311.53125 32.128906 C 310.628906 32.128906 310.628906 32.128906 310.628906 31.871094 C 310.628906 31.804688 310.628906 31.675781 310.757812 31.226562 L 312.6875 23.433594 L 318.742188 23.433594 C 321.449219 23.433594 322.476562 25.171875 322.476562 26.847656 C 322.476562 29.679688 319.582031 32.128906 316.167969 32.128906 Z M 311.53125 32.128906 "/>
<path style=" stroke:none;fill-rule:nonzero;fill:rgb(0%,0%,0%);fill-opacity:1;" d="M 319.121094 88.34375 C 318.542969 87.441406 317.578125 86.667969 316.222656 86.667969 C 312.554688 86.667969 308.816406 90.722656 308.816406 94.84375 C 308.816406 97.613281 310.6875 99.546875 313.132812 99.546875 C 314.679688 99.546875 316.03125 98.707031 317.191406 97.550781 C 317.769531 99.289062 319.378906 99.546875 320.152344 99.546875 C 321.183594 99.546875 321.890625 98.964844 322.40625 98.066406 C 323.050781 96.96875 323.4375 95.296875 323.4375 95.230469 C 323.4375 94.84375 323.050781 94.84375 322.921875 94.84375 C 322.535156 94.84375 322.535156 94.972656 322.34375 95.683594 C 321.957031 97.097656 321.441406 98.773438 320.21875 98.773438 C 319.507812 98.773438 319.316406 98.128906 319.316406 97.355469 C 319.316406 96.90625 319.507812 95.875 319.703125 95.101562 C 319.894531 94.332031 320.21875 93.171875 320.347656 92.527344 L 320.925781 90.339844 C 321.121094 89.628906 321.441406 88.277344 321.441406 88.148438 C 321.441406 87.503906 320.925781 87.246094 320.476562 87.246094 C 319.960938 87.246094 319.316406 87.570312 319.121094 88.34375 Z M 317.320312 95.683594 C 317.125 96.519531 316.480469 97.097656 315.839844 97.613281 C 315.582031 97.871094 314.484375 98.773438 313.199219 98.773438 C 312.167969 98.773438 311.136719 98 311.136719 96.003906 C 311.136719 94.460938 311.972656 91.367188 312.617188 90.210938 C 313.96875 87.890625 315.386719 87.503906 316.222656 87.503906 C 318.222656 87.503906 318.734375 89.628906 318.734375 89.953125 C 318.734375 90.082031 318.671875 90.273438 318.671875 90.339844 Z M 317.320312 95.683594 "/>
<path style=" stroke:none;fill-rule:nonzero;fill:rgb(0%,0%,0%);fill-opacity:1;" d="M 362.796875 165.429688 C 362.859375 165.367188 362.925781 165.042969 362.925781 164.980469 C 362.925781 164.851562 362.796875 164.59375 362.472656 164.59375 C 361.894531 164.59375 359.511719 164.785156 358.804688 164.851562 C 358.609375 164.914062 358.160156 164.914062 358.160156 165.558594 C 358.160156 165.945312 358.609375 165.945312 358.933594 165.945312 C 360.285156 165.945312 360.285156 166.140625 360.285156 166.332031 C 360.285156 166.523438 360.027344 167.683594 359.832031 168.328125 L 359.191406 170.96875 C 358.933594 171.933594 357.320312 178.242188 357.320312 178.566406 C 357.128906 179.273438 357.128906 179.660156 357.128906 179.980469 C 357.128906 182.878906 358.996094 184.683594 361.378906 184.683594 C 364.921875 184.683594 368.722656 180.820312 368.722656 176.570312 C 368.722656 173.222656 366.402344 171.804688 364.472656 171.804688 C 362.925781 171.804688 361.703125 172.640625 360.863281 173.414062 Z M 361.378906 183.910156 C 359.960938 183.910156 359.191406 182.6875 359.191406 181.011719 C 359.191406 179.917969 359.445312 178.953125 360.21875 175.734375 C 360.414062 175.21875 360.414062 175.152344 360.929688 174.507812 C 362.023438 173.222656 363.3125 172.640625 364.34375 172.640625 C 365.5 172.640625 366.46875 173.480469 366.46875 175.410156 C 366.46875 176.570312 365.824219 179.46875 364.984375 181.140625 C 364.277344 182.558594 362.859375 183.910156 361.378906 183.910156 Z M 361.378906 183.910156 "/>
<path style=" stroke:none;fill-rule:nonzero;fill:rgb(0%,0%,0%);fill-opacity:1;" d="M 321.132812 251.074219 C 320.101562 251.269531 319.714844 252.039062 319.714844 252.683594 C 319.714844 253.457031 320.292969 253.714844 320.808594 253.714844 C 321.453125 253.714844 322.421875 253.265625 322.421875 251.910156 C 322.421875 249.980469 320.230469 249.402344 318.683594 249.402344 C 314.371094 249.402344 310.441406 253.328125 310.441406 257.320312 C 310.441406 259.765625 312.117188 262.277344 315.722656 262.277344 C 320.550781 262.277344 322.808594 259.445312 322.808594 259.058594 C 322.808594 258.929688 322.550781 258.609375 322.292969 258.609375 C 322.164062 258.609375 322.097656 258.671875 321.839844 258.867188 C 319.585938 261.507812 316.300781 261.507812 315.785156 261.507812 C 313.726562 261.507812 312.757812 260.089844 312.757812 258.351562 C 312.757812 257.515625 313.210938 254.359375 314.691406 252.425781 C 315.785156 251.011719 317.269531 250.238281 318.683594 250.238281 C 319.070312 250.238281 320.421875 250.300781 321.132812 251.074219 Z M 321.132812 251.074219 "/>
<path style="fill:none;stroke-width:0.3985;stroke-linecap:butt;stroke-linejoin:miter;stroke:rgb(0%,0%,0%);stroke-opacity:1;stroke-miterlimit:10;" d="M 5.505931 23.020914 C 20.855204 31.927738 35.623535 31.959174 50.666147 23.319078 " transform="matrix(4.101629,0,0,-4.100613,83.408901,174.497505)"/>
<path style="fill:none;stroke-width:0.3985;stroke-linecap:round;stroke-linejoin:round;stroke:rgb(0%,0%,0%);stroke-opacity:1;stroke-miterlimit:10;" d="M -2.070586 2.389915 C -1.694598 0.956768 -0.849357 0.281116 -0.00186701 0.000395721 C -0.848856 -0.278905 -1.692304 -0.957489 -2.071762 -2.390377 " transform="matrix(3.563375,2.046412,2.046919,-3.562492,291.93553,79.282574)"/>
<path style="fill:none;stroke-width:0.3985;stroke-linecap:butt;stroke-linejoin:miter;stroke:rgb(0%,0%,0%);stroke-opacity:1;stroke-miterlimit:10;" d="M 5.505931 19.723007 C 28.784599 19.275284 42.822465 15.22387 62.419289 3.40399 " transform="matrix(4.101629,0,0,-4.100613,83.408901,174.497505)"/>
<path style="fill:none;stroke-width:0.3985;stroke-linecap:round;stroke-linejoin:round;stroke:rgb(0%,0%,0%);stroke-opacity:1;stroke-miterlimit:10;" d="M -2.071902 2.391131 C -1.693266 0.958705 -0.849314 0.281296 -0.00224593 0.000138112 C -0.850564 -0.278243 -1.695301 -0.956612 -2.070396 -2.391519 " transform="matrix(3.517148,2.120876,2.121402,-3.516276,340.1287,160.96228)"/>
<path style="fill:none;stroke-width:0.3985;stroke-linecap:butt;stroke-linejoin:miter;stroke:rgb(0%,0%,0%);stroke-opacity:1;stroke-miterlimit:10;" d="M -5.834837 0.00129688 L 62.360242 0.00129688 " transform="matrix(4.101629,0,0,-4.100613,83.408901,174.497505)"/>
<path style="fill:none;stroke-width:0.3985;stroke-linecap:round;stroke-linejoin:round;stroke:rgb(0%,0%,0%);stroke-opacity:1;stroke-miterlimit:10;" d="M -2.07342 2.391374 C -1.692473 0.954851 -0.848678 0.279457 -0.00107237 0.00129688 C -0.848678 -0.277815 -1.692473 -0.95702 -2.07342 -2.389733 " transform="matrix(4.101629,0,0,-4.100613,340.012211,174.497505)"/>
<path style="fill:none;stroke-width:0.3985;stroke-linecap:butt;stroke-linejoin:miter;stroke:rgb(0%,0%,0%);stroke-opacity:1;stroke-miterlimit:10;" d="M 11.17441 -18.457264 C 31.183607 -24.086186 47.882383 -19.830915 62.473574 -5.593332 " transform="matrix(4.101629,0,0,-4.100613,83.408901,174.497505)"/>
<path style="fill:none;stroke-width:0.3985;stroke-linecap:round;stroke-linejoin:round;stroke:rgb(0%,0%,0%);stroke-opacity:1;stroke-miterlimit:10;" d="M -2.071409 2.392203 C -1.694512 0.957492 -0.849332 0.281581 0.00111631 -0.00133151 C -0.851187 -0.28064 -1.695295 -0.955467 -2.07335 -2.391538 " transform="matrix(2.944109,-2.871536,-2.872248,-2.943379,340.242889,196.866474)"/>
</g>
</svg>
