<?xml version="1.0" encoding="UTF-8"?>
<svg xmlns="http://www.w3.org/2000/svg" xmlns:xlink="http://www.w3.org/1999/xlink" width="608px" height="300px" viewBox="0 0 608 300" version="1.1">
<g id="surface1">
<path style=" stroke:none;fill-rule:nonzero;fill:rgb(0%,0%,0%);fill-opacity:1;" d="M 40.421875 26.304688 C 40.421875 25.476562 40.421875 25.421875 39.648438 25.421875 C 37.496094 27.632812 34.402344 27.632812 33.242188 27.632812 L 33.242188 28.738281 C 33.960938 28.738281 36.058594 28.738281 37.828125 27.851562 L 37.828125 45.980469 C 37.828125 47.253906 37.773438 47.640625 34.625 47.640625 L 33.464844 47.640625 L 33.464844 48.746094 C 34.679688 48.632812 37.773438 48.632812 39.152344 48.632812 C 40.53125 48.632812 43.570312 48.632812 44.839844 48.746094 L 44.839844 47.640625 L 43.679688 47.640625 C 40.53125 47.640625 40.421875 47.253906 40.421875 45.980469 Z M 40.421875 26.304688 "/>
<path style=" stroke:none;fill-rule:nonzero;fill:rgb(0%,0%,0%);fill-opacity:1;" d="M 166.308594 46.035156 L 170.011719 42.445312 C 175.476562 37.578125 177.578125 35.699219 177.578125 32.21875 C 177.578125 28.183594 174.429688 25.421875 170.121094 25.421875 C 166.199219 25.421875 163.605469 28.625 163.605469 31.777344 C 163.605469 33.710938 165.316406 33.710938 165.425781 33.710938 C 166.035156 33.710938 167.25 33.269531 167.25 31.832031 C 167.25 30.949219 166.640625 30.007812 165.425781 30.007812 C 165.152344 30.007812 165.039062 30.007812 164.929688 30.0625 C 165.757812 27.796875 167.636719 26.46875 169.679688 26.46875 C 172.882812 26.46875 174.375 29.34375 174.375 32.21875 C 174.375 34.980469 172.605469 37.800781 170.671875 39.957031 L 163.992188 47.472656 C 163.605469 47.859375 163.605469 47.914062 163.605469 48.746094 L 176.582031 48.746094 L 177.578125 42.664062 L 176.691406 42.664062 C 176.527344 43.714844 176.25 45.261719 175.917969 45.757812 C 175.644531 46.035156 173.378906 46.035156 172.605469 46.035156 Z M 166.308594 46.035156 "/>
<path style=" stroke:none;fill-rule:nonzero;fill:rgb(0%,0%,0%);fill-opacity:1;" d="M 303.6875 36.417969 C 306.558594 35.480469 308.605469 32.992188 308.605469 30.230469 C 308.605469 27.355469 305.511719 25.421875 302.140625 25.421875 C 298.609375 25.421875 295.957031 27.519531 295.957031 30.171875 C 295.957031 31.335938 296.730469 31.996094 297.722656 31.996094 C 298.828125 31.996094 299.492188 31.222656 299.492188 30.230469 C 299.492188 28.460938 297.890625 28.460938 297.335938 28.460938 C 298.441406 26.746094 300.761719 26.304688 301.976562 26.304688 C 303.414062 26.304688 305.34375 27.078125 305.34375 30.230469 C 305.34375 30.617188 305.289062 32.660156 304.40625 34.207031 C 303.355469 35.867188 302.140625 35.976562 301.257812 36.03125 C 300.984375 36.03125 300.152344 36.144531 299.878906 36.144531 C 299.601562 36.144531 299.382812 36.199219 299.382812 36.53125 C 299.382812 36.917969 299.601562 36.917969 300.210938 36.917969 L 301.753906 36.917969 C 304.628906 36.917969 305.898438 39.292969 305.898438 42.773438 C 305.898438 47.527344 303.523438 48.523438 301.976562 48.523438 C 300.484375 48.523438 297.835938 47.914062 296.621094 45.871094 C 297.835938 46.035156 298.9375 45.261719 298.9375 43.9375 C 298.9375 42.664062 298 42 296.949219 42 C 296.121094 42 295.019531 42.5 295.019531 43.992188 C 295.019531 47.195312 298.277344 49.519531 302.085938 49.519531 C 306.339844 49.519531 309.542969 46.3125 309.542969 42.773438 C 309.542969 39.902344 307.332031 37.136719 303.6875 36.417969 Z M 303.6875 36.417969 "/>
<path style=" stroke:none;fill-rule:nonzero;fill:rgb(0%,0%,0%);fill-opacity:1;" d="M 435.488281 42.941406 L 435.488281 46.035156 C 435.488281 47.253906 435.433594 47.640625 432.839844 47.640625 L 432.121094 47.640625 L 432.121094 48.746094 C 433.554688 48.632812 435.378906 48.632812 436.8125 48.632812 C 438.304688 48.632812 440.183594 48.632812 441.617188 48.746094 L 441.617188 47.640625 L 440.847656 47.640625 C 438.25 47.640625 438.195312 47.253906 438.195312 46.035156 L 438.195312 42.941406 L 441.730469 42.941406 L 441.730469 41.890625 L 438.195312 41.890625 L 438.195312 25.917969 C 438.195312 25.253906 438.195312 25.035156 437.644531 25.035156 C 437.3125 25.035156 437.199219 25.035156 436.925781 25.421875 L 426.210938 41.890625 L 426.210938 42.941406 Z M 435.710938 41.890625 L 427.203125 41.890625 L 435.710938 28.792969 Z M 435.710938 41.890625 "/>
<path style=" stroke:none;fill-rule:nonzero;fill:rgb(0%,0%,0%);fill-opacity:1;" d="M 572.644531 41.726562 C 572.644531 37.523438 569.769531 34.042969 565.960938 34.042969 C 564.304688 34.042969 562.8125 34.59375 561.542969 35.8125 L 561.542969 28.957031 C 562.203125 29.179688 563.363281 29.453125 564.523438 29.453125 C 568.832031 29.453125 571.261719 26.25 571.261719 25.808594 C 571.261719 25.585938 571.152344 25.421875 570.929688 25.421875 C 570.875 25.421875 570.820312 25.421875 570.65625 25.53125 C 569.9375 25.808594 568.226562 26.527344 565.851562 26.527344 C 564.46875 26.527344 562.867188 26.304688 561.210938 25.53125 C 560.933594 25.421875 560.878906 25.421875 560.769531 25.421875 C 560.4375 25.421875 560.4375 25.695312 560.4375 26.304688 L 560.4375 36.640625 C 560.4375 37.304688 560.4375 37.578125 560.933594 37.578125 C 561.15625 37.578125 561.265625 37.46875 561.375 37.25 C 561.761719 36.695312 563.089844 34.816406 565.90625 34.816406 C 567.726562 34.816406 568.609375 36.417969 568.886719 37.027344 C 569.441406 38.355469 569.496094 39.679688 569.496094 41.449219 C 569.496094 42.664062 569.496094 44.765625 568.667969 46.257812 C 567.839844 47.640625 566.511719 48.523438 564.910156 48.523438 C 562.371094 48.523438 560.382812 46.699219 559.773438 44.597656 C 559.886719 44.65625 559.996094 44.65625 560.382812 44.65625 C 561.542969 44.65625 562.09375 43.824219 562.09375 42.941406 C 562.09375 42.113281 561.542969 41.226562 560.382812 41.226562 C 559.886719 41.226562 558.671875 41.503906 558.671875 43.105469 C 558.671875 46.089844 561.046875 49.519531 564.964844 49.519531 C 569.054688 49.519531 572.644531 46.148438 572.644531 41.726562 Z M 572.644531 41.726562 "/>
<path style=" stroke:none;fill-rule:nonzero;fill:rgb(0%,0%,0%);fill-opacity:1;" d="M 40.421875 249.742188 C 40.421875 248.914062 40.421875 248.859375 39.648438 248.859375 C 37.496094 251.070312 34.402344 251.070312 33.242188 251.070312 L 33.242188 252.175781 C 33.960938 252.175781 36.058594 252.175781 37.828125 251.292969 L 37.828125 269.421875 C 37.828125 270.691406 37.773438 271.078125 34.625 271.078125 L 33.464844 271.078125 L 33.464844 272.183594 C 34.679688 272.074219 37.773438 272.074219 39.152344 272.074219 C 40.53125 272.074219 43.570312 272.074219 44.839844 272.183594 L 44.839844 271.078125 L 43.679688 271.078125 C 40.53125 271.078125 40.421875 270.691406 40.421875 269.421875 Z M 40.421875 249.742188 "/>
<path style=" stroke:none;fill-rule:nonzero;fill:rgb(0%,0%,0%);fill-opacity:1;" d="M 166.308594 269.476562 L 170.011719 265.882812 C 175.476562 261.019531 177.578125 259.140625 177.578125 255.65625 C 177.578125 251.621094 174.429688 248.859375 170.121094 248.859375 C 166.199219 248.859375 163.605469 252.066406 163.605469 255.214844 C 163.605469 257.148438 165.316406 257.148438 165.425781 257.148438 C 166.035156 257.148438 167.25 256.707031 167.25 255.269531 C 167.25 254.386719 166.640625 253.445312 165.425781 253.445312 C 165.152344 253.445312 165.039062 253.445312 164.929688 253.503906 C 165.757812 251.234375 167.636719 249.910156 169.679688 249.910156 C 172.882812 249.910156 174.375 252.785156 174.375 255.65625 C 174.375 258.421875 172.605469 261.238281 170.671875 263.394531 L 163.992188 270.914062 C 163.605469 271.300781 163.605469 271.355469 163.605469 272.183594 L 176.582031 272.183594 L 177.578125 266.105469 L 176.691406 266.105469 C 176.527344 267.152344 176.25 268.703125 175.917969 269.199219 C 175.644531 269.476562 173.378906 269.476562 172.605469 269.476562 Z M 166.308594 269.476562 "/>
<path style=" stroke:none;fill-rule:nonzero;fill:rgb(0%,0%,0%);fill-opacity:1;" d="M 303.6875 259.859375 C 306.558594 258.917969 308.605469 256.429688 308.605469 253.667969 C 308.605469 250.792969 305.511719 248.859375 302.140625 248.859375 C 298.609375 248.859375 295.957031 250.960938 295.957031 253.613281 C 295.957031 254.773438 296.730469 255.4375 297.722656 255.4375 C 298.828125 255.4375 299.492188 254.664062 299.492188 253.667969 C 299.492188 251.898438 297.890625 251.898438 297.335938 251.898438 C 298.441406 250.1875 300.761719 249.742188 301.976562 249.742188 C 303.414062 249.742188 305.34375 250.515625 305.34375 253.667969 C 305.34375 254.054688 305.289062 256.101562 304.40625 257.648438 C 303.355469 259.304688 302.140625 259.417969 301.257812 259.472656 C 300.984375 259.472656 300.152344 259.582031 299.878906 259.582031 C 299.601562 259.582031 299.382812 259.636719 299.382812 259.96875 C 299.382812 260.355469 299.601562 260.355469 300.210938 260.355469 L 301.753906 260.355469 C 304.628906 260.355469 305.898438 262.730469 305.898438 266.214844 C 305.898438 270.96875 303.523438 271.960938 301.976562 271.960938 C 300.484375 271.960938 297.835938 271.355469 296.621094 269.308594 C 297.835938 269.476562 298.9375 268.703125 298.9375 267.375 C 298.9375 266.105469 298 265.441406 296.949219 265.441406 C 296.121094 265.441406 295.019531 265.9375 295.019531 267.429688 C 295.019531 270.636719 298.277344 272.957031 302.085938 272.957031 C 306.339844 272.957031 309.542969 269.75 309.542969 266.214844 C 309.542969 263.339844 307.332031 260.578125 303.6875 259.859375 Z M 303.6875 259.859375 "/>
<path style=" stroke:none;fill-rule:nonzero;fill:rgb(0%,0%,0%);fill-opacity:1;" d="M 435.488281 266.378906 L 435.488281 269.476562 C 435.488281 270.691406 435.433594 271.078125 432.839844 271.078125 L 432.121094 271.078125 L 432.121094 272.183594 C 433.554688 272.074219 435.378906 272.074219 436.8125 272.074219 C 438.304688 272.074219 440.183594 272.074219 441.617188 272.183594 L 441.617188 271.078125 L 440.847656 271.078125 C 438.25 271.078125 438.195312 270.691406 438.195312 269.476562 L 438.195312 266.378906 L 441.730469 266.378906 L 441.730469 265.328125 L 438.195312 265.328125 L 438.195312 249.355469 C 438.195312 248.695312 438.195312 248.472656 437.644531 248.472656 C 437.3125 248.472656 437.199219 248.472656 436.925781 248.859375 L 426.210938 265.328125 L 426.210938 266.378906 Z M 435.710938 265.328125 L 427.203125 265.328125 L 435.710938 252.230469 Z M 435.710938 265.328125 "/>
<path style=" stroke:none;fill-rule:nonzero;fill:rgb(0%,0%,0%);fill-opacity:1;" d="M 572.644531 265.164062 C 572.644531 260.964844 569.769531 257.480469 565.960938 257.480469 C 564.304688 257.480469 562.8125 258.035156 561.542969 259.25 L 561.542969 252.398438 C 562.203125 252.617188 563.363281 252.894531 564.523438 252.894531 C 568.832031 252.894531 571.261719 249.6875 571.261719 249.246094 C 571.261719 249.023438 571.152344 248.859375 570.929688 248.859375 C 570.875 248.859375 570.820312 248.859375 570.65625 248.96875 C 569.9375 249.246094 568.226562 249.964844 565.851562 249.964844 C 564.46875 249.964844 562.867188 249.742188 561.210938 248.96875 C 560.933594 248.859375 560.878906 248.859375 560.769531 248.859375 C 560.4375 248.859375 560.4375 249.136719 560.4375 249.742188 L 560.4375 260.078125 C 560.4375 260.742188 560.4375 261.019531 560.933594 261.019531 C 561.15625 261.019531 561.265625 260.910156 561.375 260.6875 C 561.761719 260.132812 563.089844 258.253906 565.90625 258.253906 C 567.726562 258.253906 568.609375 259.859375 568.886719 260.464844 C 569.441406 261.792969 569.496094 263.121094 569.496094 264.886719 C 569.496094 266.105469 569.496094 268.203125 568.667969 269.695312 C 567.839844 271.078125 566.511719 271.960938 564.910156 271.960938 C 562.371094 271.960938 560.382812 270.136719 559.773438 268.039062 C 559.886719 268.09375 559.996094 268.09375 560.382812 268.09375 C 561.542969 268.09375 562.09375 267.265625 562.09375 266.378906 C 562.09375 265.550781 561.542969 264.667969 560.382812 264.667969 C 559.886719 264.667969 558.671875 264.941406 558.671875 266.546875 C 558.671875 269.53125 561.046875 272.957031 564.964844 272.957031 C 569.054688 272.957031 572.644531 269.585938 572.644531 265.164062 Z M 572.644531 265.164062 "/>
<path style="fill:none;stroke-width:0.39848;stroke-linecap:butt;stroke-linejoin:miter;stroke:rgb(0%,0%,0%);stroke-opacity:1;stroke-miterlimit:10;" d="M -72.634314 57.191877 C -64.758351 35.546551 -48.17948 29.421668 -40.436894 8.149499 " transform="matrix(3.514451,0,0,-3.517287,302.281447,263.421936)"/>
<path style="fill:none;stroke-width:0.39848;stroke-linecap:round;stroke-linejoin:round;stroke:rgb(0%,0%,0%);stroke-opacity:1;stroke-miterlimit:10;" d="M -2.071879 2.390253 C -1.694808 0.958298 -0.847822 0.279095 -0.00175523 -0.00049142 C -0.851635 -0.279458 -1.693487 -0.954722 -2.070993 -2.390827 " transform="matrix(1.203523,3.309381,3.306713,-1.204495,160.406081,235.415373)"/>
<path style="fill:none;stroke-width:0.39848;stroke-linecap:butt;stroke-linejoin:miter;stroke:rgb(0%,0%,0%);stroke-opacity:1;stroke-miterlimit:10;" d="M -35.165134 57.191877 C -27.288059 35.546551 -10.7103 29.421668 -2.966602 8.149499 " transform="matrix(3.514451,0,0,-3.517287,302.281447,263.421936)"/>
<path style="fill:none;stroke-width:0.39848;stroke-linecap:round;stroke-linejoin:round;stroke:rgb(0%,0%,0%);stroke-opacity:1;stroke-miterlimit:10;" d="M -2.072508 2.388526 C -1.695056 0.957614 -0.848451 0.277368 -0.00200392 -0.0011747 C -0.850745 -0.277012 -1.693735 -0.955406 -2.071621 -2.392554 " transform="matrix(1.203523,3.309381,3.306713,-1.204495,292.09614,235.415373)"/>
<path style="fill:none;stroke-width:0.39848;stroke-linecap:butt;stroke-linejoin:miter;stroke:rgb(0%,0%,0%);stroke-opacity:1;stroke-miterlimit:10;" d="M 2.305158 57.191877 C 10.185568 35.546551 26.764438 29.421668 34.502578 8.149499 " transform="matrix(3.514451,0,0,-3.517287,302.281447,263.421936)"/>
<path style="fill:none;stroke-width:0.39848;stroke-linecap:round;stroke-linejoin:round;stroke:rgb(0%,0%,0%);stroke-opacity:1;stroke-miterlimit:10;" d="M -2.071235 2.392023 C -1.695682 0.955895 -0.847558 0.279822 -0.00111101 0.00127859 C -0.850991 -0.277688 -1.693981 -0.956082 -2.070349 -2.389057 " transform="matrix(1.203523,3.309381,3.306713,-1.204495,423.786172,235.415373)"/>
<path style="fill:none;stroke-width:0.39848;stroke-linecap:butt;stroke-linejoin:miter;stroke:rgb(0%,0%,0%);stroke-opacity:1;stroke-miterlimit:10;" d="M 39.77545 57.191877 C 47.65586 35.546551 64.233619 29.421668 71.977316 8.149499 " transform="matrix(3.514451,0,0,-3.517287,302.281447,263.421936)"/>
<path style="fill:none;stroke-width:0.39848;stroke-linecap:round;stroke-linejoin:round;stroke:rgb(0%,0%,0%);stroke-opacity:1;stroke-miterlimit:10;" d="M -2.071861 2.390303 C -1.695928 0.955219 -0.847804 0.279146 -0.00135708 0.000602509 C -0.851616 -0.279407 -1.694607 -0.957801 -2.070974 -2.390776 " transform="matrix(1.203523,3.309381,3.306713,-1.204495,555.476203,235.415373)"/>
<path style="fill:none;stroke-width:0.39848;stroke-linecap:butt;stroke-linejoin:miter;stroke:rgb(0%,0%,0%);stroke-opacity:1;stroke-miterlimit:10;" d="M 71.284863 57.191877 C 42.053989 6.565803 -41.222712 58.402416 -70.253519 8.121734 " transform="matrix(3.514451,0,0,-3.517287,302.281447,263.421936)"/>
<path style="fill:none;stroke-width:0.39848;stroke-linecap:round;stroke-linejoin:round;stroke:rgb(0%,0%,0%);stroke-opacity:1;stroke-miterlimit:10;" d="M -2.072029 2.390364 C -1.693905 0.958283 -0.84927 0.27915 -0.000514488 0.000280714 C -0.848932 -0.277183 -1.693095 -0.953914 -2.071314 -2.388966 " transform="matrix(-1.762815,3.055714,3.053251,1.764237,55.029486,235.465921)"/>
</g>
</svg>
