<?xml version="1.0" encoding="UTF-8"?>
<svg xmlns="http://www.w3.org/2000/svg" xmlns:xlink="http://www.w3.org/1999/xlink" width="499pt" height="300pt" viewBox="0 0 499 300" version="1.1">
<defs>
<clipPath id="clip1">
  <path d="M 1 1 L 299 1 L 299 299 L 1 299 Z M 1 1 "/>
</clipPath>
<clipPath id="clip2">
  <path d="M 298.40625 150.125 C 298.40625 68.09375 231.921875 1.601562 149.902344 1.601562 C 67.878906 1.601562 1.382812 68.09375 1.382812 150.125 C 1.382812 232.15625 67.878906 298.648438 149.902344 298.648438 C 231.921875 298.648438 298.40625 232.15625 298.40625 150.125 Z M 298.40625 150.125 "/>
</clipPath>
<clipPath id="clip3">
  <path d="M 138 137 L 162 137 L 162 163 L 138 163 Z M 138 137 "/>
</clipPath>
<clipPath id="clip4">
  <path d="M 298.40625 150.125 C 298.40625 68.09375 231.921875 1.601562 149.902344 1.601562 C 67.878906 1.601562 1.382812 68.09375 1.382812 150.125 C 1.382812 232.15625 67.878906 298.648438 149.902344 298.648438 C 231.921875 298.648438 298.40625 232.15625 298.40625 150.125 Z M 298.40625 150.125 "/>
</clipPath>
<clipPath id="clip5">
  <path d="M 0 0.207031 L 497.804688 0.207031 L 497.804688 300 L 0 300 Z M 0 0.207031 "/>
</clipPath>
</defs>
<g id="surface1">
<g clip-path="url(#clip1)" clip-rule="nonzero">
<g clip-path="url(#clip2)" clip-rule="nonzero">
<path style="fill-rule:evenodd;fill:rgb(80%,80%,100%);fill-opacity:1;stroke-width:0.79701;stroke-linecap:butt;stroke-linejoin:miter;stroke:rgb(0%,0%,0%);stroke-opacity:1;stroke-miterlimit:10;" d="M 42.519832 0.000605327 C 42.519832 23.48421 23.484434 42.51935 0.00110563 42.51935 C -23.483341 42.51935 -42.522095 23.48421 -42.522095 0.000605327 C -42.522095 -23.483 -23.483341 -42.518139 0.00110563 -42.518139 C 23.484434 -42.518139 42.519832 -23.483 42.519832 0.000605327 Z M 99.21445 0.000605327 C 99.21445 23.48421 80.179052 42.51935 56.695723 42.51935 C 33.211276 42.51935 14.172523 23.48421 14.172523 0.000605327 C 14.172523 -23.483 33.211276 -42.518139 56.695723 -42.518139 C 80.179052 -42.518139 99.21445 -23.483 99.21445 0.000605327 Z M 99.21445 0.000605327 " transform="matrix(3.492671,0,0,-3.493129,149.898482,150.127114)"/>
</g>
</g>
<g clip-path="url(#clip3)" clip-rule="nonzero">
<g clip-path="url(#clip4)" clip-rule="nonzero">
<path style=" stroke:none;fill-rule:nonzero;fill:rgb(0%,0%,0%);fill-opacity:1;" d="M 143.089844 158.019531 C 141.667969 160.320312 140.355469 160.8125 138.820312 160.921875 C 138.382812 160.976562 138.054688 160.976562 138.054688 161.632812 C 138.054688 161.851562 138.21875 162.019531 138.546875 162.019531 C 139.476562 162.019531 140.519531 161.910156 141.503906 161.910156 C 142.652344 161.910156 143.859375 162.019531 145.007812 162.019531 C 145.226562 162.019531 145.664062 162.019531 145.664062 161.359375 C 145.664062 160.976562 145.335938 160.921875 145.117188 160.921875 C 144.296875 160.867188 143.476562 160.59375 143.476562 159.71875 C 143.476562 159.28125 143.695312 158.894531 143.96875 158.402344 L 146.597656 153.96875 L 155.355469 153.96875 C 155.410156 154.679688 155.902344 159.445312 155.902344 159.773438 C 155.902344 160.8125 154.097656 160.921875 153.386719 160.921875 C 152.894531 160.921875 152.5625 160.921875 152.5625 161.632812 C 152.5625 162.019531 152.949219 162.019531 153.058594 162.019531 C 154.480469 162.019531 155.957031 161.910156 157.382812 161.910156 C 158.257812 161.910156 160.449219 162.019531 161.324219 162.019531 C 161.542969 162.019531 161.980469 162.019531 161.980469 161.304688 C 161.980469 160.921875 161.597656 160.921875 161.160156 160.921875 C 158.96875 160.921875 158.96875 160.703125 158.914062 159.664062 L 156.78125 137.921875 C 156.726562 137.210938 156.726562 137.101562 156.121094 137.101562 C 155.574219 137.101562 155.410156 137.320312 155.191406 137.648438 Z M 147.253906 152.871094 L 154.097656 141.371094 L 155.246094 152.871094 Z M 147.253906 152.871094 "/>
</g>
</g>
<g clip-path="url(#clip5)" clip-rule="nonzero">
<path style="fill:none;stroke-width:0.79701;stroke-linecap:butt;stroke-linejoin:miter;stroke:rgb(0%,0%,0%);stroke-opacity:1;stroke-miterlimit:10;" d="M 42.519832 0.000605327 C 42.519832 23.48421 23.484434 42.51935 0.00110563 42.51935 C -23.483341 42.51935 -42.522095 23.48421 -42.522095 0.000605327 C -42.522095 -23.483 -23.483341 -42.518139 0.00110563 -42.518139 C 23.484434 -42.518139 42.519832 -23.483 42.519832 0.000605327 Z M 99.21445 0.000605327 C 99.21445 23.48421 80.179052 42.51935 56.695723 42.51935 C 33.211276 42.51935 14.172523 23.48421 14.172523 0.000605327 C 14.172523 -23.483 33.211276 -42.518139 56.695723 -42.518139 C 80.179052 -42.518139 99.21445 -23.483 99.21445 0.000605327 Z M 99.21445 0.000605327 " transform="matrix(3.492671,0,0,-3.493129,149.898482,150.127114)"/>
</g>
<path style=" stroke:none;fill-rule:nonzero;fill:rgb(0%,0%,0%);fill-opacity:1;" d="M 339.425781 159.28125 C 339.042969 160.648438 338.988281 160.921875 336.25 160.921875 C 335.648438 160.921875 335.320312 160.921875 335.320312 161.632812 C 335.320312 162.019531 335.59375 162.019531 336.25 162.019531 L 348.679688 162.019531 C 354.152344 162.019531 358.261719 157.910156 358.261719 154.515625 C 358.261719 151.996094 356.289062 149.96875 352.894531 149.585938 C 356.507812 148.929688 360.175781 146.355469 360.175781 143.015625 C 360.175781 140.441406 357.875 138.25 353.714844 138.25 L 342 138.25 C 341.339844 138.25 340.957031 138.25 340.957031 138.910156 C 340.957031 139.292969 341.285156 139.292969 341.945312 139.292969 C 342 139.292969 342.710938 139.292969 343.257812 139.402344 C 343.914062 139.457031 344.242188 139.511719 344.242188 139.949219 C 344.242188 140.058594 344.1875 140.167969 344.078125 140.605469 Z M 344.679688 149.257812 L 346.816406 140.605469 C 347.144531 139.402344 347.199219 139.292969 348.734375 139.292969 L 353.222656 139.292969 C 356.289062 139.292969 357 141.371094 357 142.90625 C 357 145.972656 353.988281 149.257812 349.773438 149.257812 Z M 343.09375 160.921875 C 342.601562 160.921875 342.546875 160.921875 342.328125 160.921875 C 342 160.867188 341.890625 160.8125 341.890625 160.539062 C 341.890625 160.429688 341.890625 160.375 342.054688 159.773438 L 344.460938 150.023438 L 351.03125 150.023438 C 354.371094 150.023438 355.03125 152.597656 355.03125 154.132812 C 355.03125 157.582031 351.964844 160.921875 347.855469 160.921875 Z M 343.09375 160.921875 "/>
</g>
</svg>
