<?xml version="1.0" encoding="UTF-8"?>
<svg xmlns="http://www.w3.org/2000/svg" xmlns:xlink="http://www.w3.org/1999/xlink" width="331pt" height="300pt" viewBox="0 0 331 300" version="1.1">
<defs>
<clipPath id="clip1">
  <path d="M 0 123 L 177.320312 123 L 177.320312 300 L 0 300 Z M 0 123 "/>
</clipPath>
<clipPath id="clip2">
  <path d="M 182 0.0351562 L 330 0.0351562 L 330 89 L 182 89 Z M 182 0.0351562 "/>
</clipPath>
<clipPath id="clip3">
  <path d="M 166 0.0351562 L 330.332031 0.0351562 L 330.332031 106 L 166 106 Z M 166 0.0351562 "/>
</clipPath>
</defs>
<g id="surface1">
<g clip-path="url(#clip1)" clip-rule="nonzero">
<path style=" stroke:none;fill-rule:nonzero;fill:rgb(50.196078%,83.921569%,96.862745%);fill-opacity:1;" d="M 177.066406 211.941406 C 177.066406 163.242188 137.5625 123.773438 88.824219 123.773438 C 40.09375 123.773438 0.589844 163.242188 0.589844 211.941406 C 0.589844 260.625 40.09375 300.097656 88.824219 300.097656 C 137.5625 300.097656 177.066406 260.625 177.066406 211.941406 Z M 177.066406 211.941406 "/>
</g>
<path style="fill:none;stroke-width:0.3985;stroke-linecap:butt;stroke-linejoin:miter;stroke:rgb(0%,0%,0%);stroke-opacity:1;stroke-miterlimit:10;" d="M 29.887758 -0.0011988 C 29.887758 16.50841 16.507256 29.888781 -0.0010523 29.888781 C -16.506715 29.888781 -29.887217 16.50841 -29.887217 -0.0011988 C -29.887217 -16.505511 -16.506715 -29.887206 -0.0010523 -29.887206 C 16.507256 -29.887206 29.887758 -16.505511 29.887758 -0.0011988 Z M 29.887758 -0.0011988 " transform="matrix(2.952349,0,0,-2.94975,88.827326,211.93787)"/>
<path style=" stroke:none;fill-rule:nonzero;fill:rgb(0%,0%,0%);fill-opacity:1;" d="M 83.0625 218.609375 C 81.90625 220.546875 80.753906 220.964844 79.460938 221.054688 C 79.089844 221.101562 78.8125 221.101562 78.8125 221.65625 C 78.8125 221.839844 78.953125 221.980469 79.230469 221.980469 C 80.015625 221.980469 80.9375 221.886719 81.722656 221.886719 C 82.691406 221.886719 83.753906 221.980469 84.679688 221.980469 C 84.863281 221.980469 85.230469 221.980469 85.230469 221.425781 C 85.230469 221.101562 84.953125 221.054688 84.769531 221.054688 C 84.078125 221.011719 83.386719 220.777344 83.386719 220.042969 C 83.386719 219.671875 83.570312 219.347656 83.800781 218.933594 L 86.015625 215.195312 L 93.40625 215.195312 C 93.496094 215.796875 93.867188 219.808594 93.867188 220.085938 C 93.867188 220.964844 92.34375 221.054688 91.789062 221.054688 C 91.375 221.054688 91.050781 221.054688 91.050781 221.65625 C 91.050781 221.980469 91.417969 221.980469 91.464844 221.980469 C 92.667969 221.980469 93.960938 221.886719 95.160156 221.886719 C 95.898438 221.886719 97.746094 221.980469 98.484375 221.980469 C 98.667969 221.980469 98.992188 221.980469 98.992188 221.378906 C 98.992188 221.054688 98.714844 221.054688 98.347656 221.054688 C 96.5 221.054688 96.5 220.871094 96.40625 219.996094 L 94.605469 201.632812 C 94.558594 201.03125 94.558594 200.941406 94.050781 200.941406 C 93.589844 200.941406 93.496094 201.125 93.3125 201.449219 Z M 86.570312 214.273438 L 92.390625 204.585938 L 93.3125 214.273438 Z M 86.570312 214.273438 "/>
<g clip-path="url(#clip2)" clip-rule="nonzero">
<path style=" stroke:none;fill-rule:nonzero;fill:rgb(100%,87.45098%,87.45098%);fill-opacity:1;" d="M 329.742188 44.707031 C 329.742188 20.359375 296.816406 0.621094 256.203125 0.621094 C 215.589844 0.621094 182.679688 20.359375 182.679688 44.707031 C 182.679688 69.054688 215.589844 88.789062 256.203125 88.789062 C 296.816406 88.789062 329.742188 69.054688 329.742188 44.707031 Z M 329.742188 44.707031 "/>
</g>
<g clip-path="url(#clip3)" clip-rule="nonzero">
<path style="fill:none;stroke-width:0.3985;stroke-linecap:butt;stroke-linejoin:miter;stroke:rgb(0%,0%,0%);stroke-opacity:1;stroke-miterlimit:10;" d="M 81.60109 56.693224 C 81.60109 64.947367 70.448687 71.638877 56.692425 71.638877 C 42.936162 71.638877 31.789052 64.947367 31.789052 56.693224 C 31.789052 48.439082 42.936162 41.748897 56.692425 41.748897 C 70.448687 41.748897 81.60109 48.439082 81.60109 56.693224 Z M 81.60109 56.693224 " transform="matrix(2.952349,0,0,-2.94975,88.827326,211.93787)"/>
</g>
<path style=" stroke:none;fill-rule:nonzero;fill:rgb(0%,0%,0%);fill-opacity:1;" d="M 249.023438 52.441406 C 248.746094 53.59375 248.652344 53.824219 246.34375 53.824219 C 245.835938 53.824219 245.558594 53.824219 245.558594 54.425781 C 245.558594 54.75 245.789062 54.75 246.34375 54.75 L 256.828125 54.75 C 261.492188 54.75 264.953125 51.289062 264.953125 48.382812 C 264.953125 46.304688 263.246094 44.597656 260.382812 44.277344 C 263.476562 43.675781 266.570312 41.507812 266.570312 38.738281 C 266.570312 36.570312 264.632812 34.679688 261.074219 34.679688 L 251.191406 34.679688 C 250.640625 34.679688 250.363281 34.679688 250.363281 35.277344 C 250.363281 35.601562 250.59375 35.601562 251.148438 35.601562 C 251.238281 35.601562 251.792969 35.601562 252.300781 35.648438 C 252.808594 35.695312 253.085938 35.742188 253.085938 36.109375 C 253.085938 36.246094 253.039062 36.339844 252.949219 36.664062 Z M 253.457031 44 L 255.304688 36.710938 C 255.535156 35.695312 255.625 35.601562 256.875 35.601562 L 260.660156 35.601562 C 263.246094 35.601562 263.890625 37.308594 263.890625 38.601562 C 263.890625 41.183594 261.351562 44 257.75 44 Z M 252.117188 53.824219 C 251.746094 53.824219 251.65625 53.824219 251.46875 53.824219 C 251.191406 53.78125 251.101562 53.734375 251.101562 53.503906 C 251.101562 53.410156 251.101562 53.363281 251.238281 52.855469 L 253.269531 44.644531 L 258.859375 44.644531 C 261.675781 44.644531 262.230469 46.8125 262.230469 48.058594 C 262.230469 50.964844 259.597656 53.824219 256.132812 53.824219 Z M 252.117188 53.824219 "/>
</g>
</svg>
