<?xml version="1.0" encoding="UTF-8"?>
<svg xmlns="http://www.w3.org/2000/svg" xmlns:xlink="http://www.w3.org/1999/xlink" width="331px" height="300px" viewBox="0 0 331 300" version="1.1">
<defs>
<clipPath id="clip1">
  <path d="M 1 123 L 177.453125 123 L 177.453125 299.730469 L 1 299.730469 Z M 1 123 "/>
</clipPath>
<clipPath id="clip2">
  <path d="M 0.691406 106 L 194 106 L 194 299.730469 L 0.691406 299.730469 Z M 0.691406 106 "/>
</clipPath>
<clipPath id="clip3">
  <path d="M 182 0.0351562 L 329.976562 0.0351562 L 329.976562 89 L 182 89 Z M 182 0.0351562 "/>
</clipPath>
<clipPath id="clip4">
  <path d="M 166 0.0351562 L 329.976562 0.0351562 L 329.976562 105.960938 L 166 105.960938 Z M 166 0.0351562 "/>
</clipPath>
</defs>
<g id="surface1">
<g clip-path="url(#clip1)" clip-rule="nonzero">
<path style=" stroke:none;fill-rule:nonzero;fill:rgb(50.196081%,83.92157%,96.862745%);fill-opacity:1;" d="M 177.199219 211.269531 C 177.199219 162.726562 137.820312 123.382812 89.234375 123.382812 C 40.660156 123.382812 1.277344 162.726562 1.277344 211.269531 C 1.277344 259.800781 40.660156 299.144531 89.234375 299.144531 C 137.820312 299.144531 177.199219 259.800781 177.199219 211.269531 Z M 177.199219 211.269531 "/>
</g>
<g clip-path="url(#clip2)" clip-rule="nonzero">
<path style="fill:none;stroke-width:0.3985;stroke-linecap:butt;stroke-linejoin:miter;stroke:rgb(0%,0%,0%);stroke-opacity:1;stroke-miterlimit:10;" d="M 29.888284 -0.00112258 C 29.888284 16.507833 16.507718 29.88823 -0.00130678 29.88823 C -16.50635 29.88823 -29.886916 16.507833 -29.886916 -0.00112258 C -29.886916 -16.506093 -16.50635 -29.88649 -0.00130678 -29.88649 C 16.507718 -29.88649 29.888284 -16.506093 29.888284 -0.00112258 Z M 29.888284 -0.00112258 " transform="matrix(2.942993,0,0,-2.940402,89.238221,211.26623)"/>
</g>
<path style=" stroke:none;fill-rule:nonzero;fill:rgb(0%,0%,0%);fill-opacity:1;" d="M 83.492188 217.917969 C 82.339844 219.851562 81.1875 220.261719 79.898438 220.355469 C 79.53125 220.402344 79.257812 220.402344 79.257812 220.953125 C 79.257812 221.136719 79.394531 221.273438 79.671875 221.273438 C 80.453125 221.273438 81.375 221.183594 82.15625 221.183594 C 83.121094 221.183594 84.179688 221.273438 85.101562 221.273438 C 85.285156 221.273438 85.652344 221.273438 85.652344 220.722656 C 85.652344 220.402344 85.378906 220.355469 85.195312 220.355469 C 84.503906 220.308594 83.8125 220.078125 83.8125 219.34375 C 83.8125 218.976562 83.996094 218.652344 84.226562 218.238281 L 86.4375 214.515625 L 93.800781 214.515625 C 93.894531 215.113281 94.261719 219.113281 94.261719 219.390625 C 94.261719 220.261719 92.742188 220.355469 92.191406 220.355469 C 91.777344 220.355469 91.453125 220.355469 91.453125 220.953125 C 91.453125 221.273438 91.824219 221.273438 91.867188 221.273438 C 93.066406 221.273438 94.355469 221.183594 95.550781 221.183594 C 96.289062 221.183594 98.128906 221.273438 98.863281 221.273438 C 99.050781 221.273438 99.371094 221.273438 99.371094 220.675781 C 99.371094 220.355469 99.09375 220.355469 98.726562 220.355469 C 96.886719 220.355469 96.886719 220.171875 96.792969 219.296875 L 95 200.992188 C 94.953125 200.394531 94.953125 200.304688 94.445312 200.304688 C 93.984375 200.304688 93.894531 200.488281 93.710938 200.808594 Z M 86.988281 213.59375 L 92.789062 203.9375 L 93.710938 213.59375 Z M 86.988281 213.59375 "/>
<g clip-path="url(#clip3)" clip-rule="nonzero">
<path style=" stroke:none;fill-rule:nonzero;fill:rgb(100%,87.450981%,87.450981%);fill-opacity:1;" d="M 329.390625 44.566406 C 329.390625 20.292969 296.570312 0.621094 256.085938 0.621094 C 215.601562 0.621094 182.792969 20.292969 182.792969 44.566406 C 182.792969 68.835938 215.601562 88.507812 256.085938 88.507812 C 296.570312 88.507812 329.390625 68.835938 329.390625 44.566406 Z M 329.390625 44.566406 "/>
</g>
<g clip-path="url(#clip4)" clip-rule="nonzero">
<path style="fill:none;stroke-width:0.3985;stroke-linecap:butt;stroke-linejoin:miter;stroke:rgb(0%,0%,0%);stroke-opacity:1;stroke-miterlimit:10;" d="M 81.601431 56.692865 C 81.601431 64.948007 70.449411 71.638205 56.693217 71.638205 C 42.937024 71.638205 31.788986 64.948007 31.788986 56.692865 C 31.788986 48.439051 42.937024 41.748852 56.693217 41.748852 C 70.449411 41.748852 81.601431 48.439051 81.601431 56.692865 Z M 81.601431 56.692865 " transform="matrix(2.942993,0,0,-2.940402,89.238221,211.26623)"/>
</g>
<path style=" stroke:none;fill-rule:nonzero;fill:rgb(0%,0%,0%);fill-opacity:1;" d="M 248.925781 52.277344 C 248.648438 53.425781 248.558594 53.65625 246.257812 53.65625 C 245.75 53.65625 245.472656 53.65625 245.472656 54.253906 C 245.472656 54.574219 245.703125 54.574219 246.257812 54.574219 L 256.707031 54.574219 C 261.355469 54.574219 264.808594 51.125 264.808594 48.226562 C 264.808594 46.160156 263.105469 44.457031 260.25 44.136719 C 263.332031 43.539062 266.417969 41.375 266.417969 38.617188 C 266.417969 36.453125 264.484375 34.570312 260.941406 34.570312 L 251.089844 34.570312 C 250.539062 34.570312 250.261719 34.570312 250.261719 35.167969 C 250.261719 35.488281 250.492188 35.488281 251.042969 35.488281 C 251.136719 35.488281 251.6875 35.488281 252.195312 35.535156 C 252.699219 35.582031 252.976562 35.628906 252.976562 35.996094 C 252.976562 36.132812 252.929688 36.226562 252.839844 36.546875 Z M 253.34375 43.859375 L 255.1875 36.59375 C 255.417969 35.582031 255.507812 35.488281 256.75 35.488281 L 260.527344 35.488281 C 263.105469 35.488281 263.75 37.191406 263.75 38.476562 C 263.75 41.054688 261.214844 43.859375 257.625 43.859375 Z M 252.011719 53.65625 C 251.640625 53.65625 251.550781 53.65625 251.367188 53.65625 C 251.089844 53.609375 250.996094 53.5625 250.996094 53.332031 C 250.996094 53.242188 250.996094 53.195312 251.136719 52.691406 L 253.160156 44.503906 L 258.730469 44.503906 C 261.539062 44.503906 262.089844 46.664062 262.089844 47.90625 C 262.089844 50.804688 259.46875 53.65625 256.015625 53.65625 Z M 252.011719 53.65625 "/>
</g>
</svg>
