<?xml version="1.0" encoding="UTF-8"?>
<svg xmlns="http://www.w3.org/2000/svg" xmlns:xlink="http://www.w3.org/1999/xlink" width="659pt" height="300pt" viewBox="0 0 659 300" version="1.1">
<defs>
<clipPath id="clip1">
  <path d="M 120.085938 0 L 181 0 L 181 180 L 120.085938 180 Z M 120.085938 0 "/>
</clipPath>
<clipPath id="clip2">
  <path d="M 180.082031 90.121094 C 180.082031 40.808594 140.109375 0.832031 90.796875 0.832031 C 41.484375 0.832031 1.507812 40.808594 1.507812 90.121094 C 1.507812 139.433594 41.484375 179.402344 90.796875 179.402344 C 140.109375 179.402344 180.082031 139.433594 180.082031 90.121094 Z M 180.082031 90.121094 "/>
</clipPath>
<clipPath id="clip3">
  <path d="M 96 0 L 181 0 L 181 180 L 96 180 Z M 96 0 "/>
</clipPath>
<clipPath id="clip4">
  <path d="M 180.082031 90.121094 C 180.082031 40.808594 140.109375 0.832031 90.796875 0.832031 C 41.484375 0.832031 1.507812 40.808594 1.507812 90.121094 C 1.507812 139.433594 41.484375 179.402344 90.796875 179.402344 C 140.109375 179.402344 180.082031 139.433594 180.082031 90.121094 Z M 180.082031 90.121094 "/>
</clipPath>
<clipPath id="clip5">
  <path d="M 61 119 L 181 119 L 181 180 L 61 180 Z M 61 119 "/>
</clipPath>
<clipPath id="clip6">
  <path d="M 180.082031 90.121094 C 180.082031 40.808594 140.109375 0.832031 90.796875 0.832031 C 41.484375 0.832031 1.507812 40.808594 1.507812 90.121094 C 1.507812 139.433594 41.484375 179.402344 90.796875 179.402344 C 140.109375 179.402344 180.082031 139.433594 180.082031 90.121094 Z M 180.082031 90.121094 "/>
</clipPath>
<clipPath id="clip7">
  <path d="M 180.082031 90.121094 C 180.082031 40.808594 140.109375 0.832031 90.796875 0.832031 C 41.484375 0.832031 1.507812 40.808594 1.507812 90.121094 C 1.507812 139.433594 41.484375 179.402344 90.796875 179.402344 C 140.109375 179.402344 180.082031 139.433594 180.082031 90.121094 Z M 180.082031 90.121094 "/>
</clipPath>
<clipPath id="clip8">
  <path d="M 37 96 L 181 96 L 181 180 L 37 180 Z M 37 96 "/>
</clipPath>
<clipPath id="clip9">
  <path d="M 180.082031 90.121094 C 180.082031 40.808594 140.109375 0.832031 90.796875 0.832031 C 41.484375 0.832031 1.507812 40.808594 1.507812 90.121094 C 1.507812 139.433594 41.484375 179.402344 90.796875 179.402344 C 140.109375 179.402344 180.082031 139.433594 180.082031 90.121094 Z M 180.082031 90.121094 "/>
</clipPath>
<clipPath id="clip10">
  <path d="M 180.082031 90.121094 C 180.082031 40.808594 140.109375 0.832031 90.796875 0.832031 C 41.484375 0.832031 1.507812 40.808594 1.507812 90.121094 C 1.507812 139.433594 41.484375 179.402344 90.796875 179.402344 C 140.109375 179.402344 180.082031 139.433594 180.082031 90.121094 Z M 180.082031 90.121094 "/>
</clipPath>
<clipPath id="clip11">
  <path d="M 0.675781 0 L 204 0 L 204 204 L 0.675781 204 Z M 0.675781 0 "/>
</clipPath>
<clipPath id="clip12">
  <path d="M 37 96 L 263.347656 96 L 263.347656 299.28125 L 37 299.28125 Z M 37 96 "/>
</clipPath>
<clipPath id="clip13">
  <path d="M 477 119 L 597 119 L 597 180 L 477 180 Z M 477 119 "/>
</clipPath>
<clipPath id="clip14">
  <path d="M 596.746094 209.167969 C 596.746094 159.855469 556.773438 119.878906 507.460938 119.878906 C 458.148438 119.878906 418.171875 159.855469 418.171875 209.167969 C 418.171875 258.480469 458.148438 298.449219 507.460938 298.449219 C 556.773438 298.449219 596.746094 258.480469 596.746094 209.167969 Z M 596.746094 209.167969 "/>
</clipPath>
<clipPath id="clip15">
  <path d="M 454 119 L 597 119 L 597 204 L 454 204 Z M 454 119 "/>
</clipPath>
<clipPath id="clip16">
  <path d="M 596.746094 209.167969 C 596.746094 159.855469 556.773438 119.878906 507.460938 119.878906 C 458.148438 119.878906 418.171875 159.855469 418.171875 209.167969 C 418.171875 258.480469 458.148438 298.449219 507.460938 298.449219 C 556.773438 298.449219 596.746094 258.480469 596.746094 209.167969 Z M 596.746094 209.167969 "/>
</clipPath>
<clipPath id="clip17">
  <path d="M 454 0 L 657.101562 0 L 657.101562 204 L 454 204 Z M 454 0 "/>
</clipPath>
<clipPath id="clip18">
  <path d="M 394 96 L 621 96 L 621 299.28125 L 394 299.28125 Z M 394 96 "/>
</clipPath>
</defs>
<g id="surface1">
<g clip-path="url(#clip1)" clip-rule="nonzero">
<g clip-path="url(#clip2)" clip-rule="nonzero">
<path style=" stroke:none;fill-rule:evenodd;fill:rgb(80%,80%,100%);fill-opacity:1;" d="M 299.128906 90.121094 C 299.128906 40.808594 259.148438 0.832031 209.839844 0.832031 C 160.527344 0.832031 120.554688 40.808594 120.554688 90.121094 C 120.554688 139.433594 160.527344 179.402344 209.839844 179.402344 C 259.148438 179.402344 299.128906 139.433594 299.128906 90.121094 Z M 299.128906 90.121094 "/>
</g>
</g>
<g clip-path="url(#clip3)" clip-rule="nonzero">
<g clip-path="url(#clip4)" clip-rule="nonzero">
<path style="fill:none;stroke-width:0.79701;stroke-linecap:butt;stroke-linejoin:miter;stroke:rgb(0%,0%,0%);stroke-opacity:1;stroke-miterlimit:10;" d="M 99.214808 -0.000840937 C 99.214808 23.483517 80.175018 42.52177 56.692921 42.52177 C 33.208964 42.52177 14.172896 23.483517 14.172896 -0.000840937 C 14.172896 -23.485198 33.208964 -42.519731 56.692921 -42.519731 C 80.175018 -42.519731 99.214808 -23.485198 99.214808 -0.000840937 Z M 99.214808 -0.000840937 " transform="matrix(2.099838,0,0,-2.099802,90.793906,90.119328)"/>
</g>
</g>
<g clip-path="url(#clip5)" clip-rule="nonzero">
<g clip-path="url(#clip6)" clip-rule="nonzero">
<g clip-path="url(#clip7)" clip-rule="nonzero">
<path style=" stroke:none;fill-rule:evenodd;fill:rgb(80%,80%,100%);fill-opacity:1;" d="M 239.605469 209.167969 C 239.605469 159.855469 199.625 119.878906 150.3125 119.878906 C 101 119.878906 61.03125 159.855469 61.03125 209.167969 C 61.03125 258.480469 101 298.449219 150.3125 298.449219 C 199.625 298.449219 239.605469 258.480469 239.605469 209.167969 Z M 239.605469 209.167969 "/>
</g>
</g>
</g>
<g clip-path="url(#clip8)" clip-rule="nonzero">
<g clip-path="url(#clip9)" clip-rule="nonzero">
<g clip-path="url(#clip10)" clip-rule="nonzero">
<path style="fill:none;stroke-width:0.79701;stroke-linecap:butt;stroke-linejoin:miter;stroke:rgb(0%,0%,0%);stroke-opacity:1;stroke-miterlimit:10;" d="M 70.868124 -56.695175 C 70.868124 -33.210818 51.828334 -14.172564 28.344377 -14.172564 C 4.86042 -14.172564 -14.173788 -33.210818 -14.173788 -56.695175 C -14.173788 -80.179533 4.86042 -99.214066 28.344377 -99.214066 C 51.828334 -99.214066 70.868124 -80.179533 70.868124 -56.695175 Z M 70.868124 -56.695175 " transform="matrix(2.099838,0,0,-2.099802,90.793906,90.119328)"/>
</g>
</g>
</g>
<g clip-path="url(#clip11)" clip-rule="nonzero">
<path style="fill:none;stroke-width:0.79701;stroke-linecap:butt;stroke-linejoin:miter;stroke:rgb(0%,0%,0%);stroke-opacity:1;stroke-miterlimit:10;" d="M 42.519579 -0.000840937 C 42.519579 23.483517 23.485371 42.52177 0.00141383 42.52177 C -23.482543 42.52177 -42.520472 23.483517 -42.520472 -0.000840937 C -42.520472 -23.485198 -23.482543 -42.519731 0.00141383 -42.519731 C 23.485371 -42.519731 42.519579 -23.485198 42.519579 -0.000840937 Z M 42.519579 -0.000840937 " transform="matrix(2.099838,0,0,-2.099802,90.793906,90.119328)"/>
</g>
<path style=" stroke:none;fill-rule:nonzero;fill:rgb(0%,0%,0%);fill-opacity:1;" d="M 86.703125 94.863281 C 85.847656 96.246094 85.054688 96.542969 84.132812 96.609375 C 83.871094 96.640625 83.671875 96.640625 83.671875 97.035156 C 83.671875 97.167969 83.773438 97.265625 83.96875 97.265625 C 84.527344 97.265625 85.15625 97.203125 85.746094 97.203125 C 86.4375 97.203125 87.164062 97.265625 87.855469 97.265625 C 87.984375 97.265625 88.25 97.265625 88.25 96.871094 C 88.25 96.640625 88.050781 96.609375 87.917969 96.609375 C 87.425781 96.574219 86.933594 96.410156 86.933594 95.882812 C 86.933594 95.621094 87.0625 95.390625 87.226562 95.09375 L 88.808594 92.429688 L 94.074219 92.429688 C 94.109375 92.855469 94.40625 95.71875 94.40625 95.917969 C 94.40625 96.542969 93.316406 96.609375 92.890625 96.609375 C 92.59375 96.609375 92.398438 96.609375 92.398438 97.035156 C 92.398438 97.265625 92.625 97.265625 92.691406 97.265625 C 93.546875 97.265625 94.4375 97.203125 95.292969 97.203125 C 95.820312 97.203125 97.136719 97.265625 97.664062 97.265625 C 97.796875 97.265625 98.058594 97.265625 98.058594 96.839844 C 98.058594 96.609375 97.828125 96.609375 97.566406 96.609375 C 96.246094 96.609375 96.246094 96.476562 96.214844 95.851562 L 94.929688 82.785156 C 94.898438 82.355469 94.898438 82.289062 94.535156 82.289062 C 94.207031 82.289062 94.109375 82.421875 93.976562 82.617188 Z M 89.203125 91.769531 L 93.316406 84.855469 L 94.007812 91.769531 Z M 89.203125 91.769531 "/>
<path style="fill:none;stroke-width:0.79701;stroke-linecap:butt;stroke-linejoin:miter;stroke:rgb(0%,0%,0%);stroke-opacity:1;stroke-miterlimit:10;" d="M 99.214808 -0.000840937 C 99.214808 23.483517 80.175018 42.52177 56.692921 42.52177 C 33.208964 42.52177 14.172896 23.483517 14.172896 -0.000840937 C 14.172896 -23.485198 33.208964 -42.519731 56.692921 -42.519731 C 80.175018 -42.519731 99.214808 -23.485198 99.214808 -0.000840937 Z M 99.214808 -0.000840937 " transform="matrix(2.099838,0,0,-2.099802,90.793906,90.119328)"/>
<path style=" stroke:none;fill-rule:nonzero;fill:rgb(0%,0%,0%);fill-opacity:1;" d="M 204.738281 95.621094 C 204.507812 96.445312 204.476562 96.609375 202.832031 96.609375 C 202.46875 96.609375 202.269531 96.609375 202.269531 97.035156 C 202.269531 97.265625 202.433594 97.265625 202.832031 97.265625 L 210.304688 97.265625 C 213.59375 97.265625 216.0625 94.796875 216.0625 92.757812 C 216.0625 91.242188 214.878906 90.023438 212.835938 89.792969 C 215.011719 89.398438 217.214844 87.851562 217.214844 85.84375 C 217.214844 84.296875 215.832031 82.980469 213.332031 82.980469 L 206.285156 82.980469 C 205.890625 82.980469 205.660156 82.980469 205.660156 83.375 C 205.660156 83.605469 205.859375 83.605469 206.253906 83.605469 C 206.285156 83.605469 206.714844 83.605469 207.042969 83.671875 C 207.4375 83.703125 207.636719 83.738281 207.636719 84 C 207.636719 84.066406 207.601562 84.132812 207.539062 84.394531 Z M 207.898438 89.597656 L 209.183594 84.394531 C 209.382812 83.671875 209.414062 83.605469 210.335938 83.605469 L 213.035156 83.605469 C 214.878906 83.605469 215.304688 84.855469 215.304688 85.777344 C 215.304688 87.621094 213.496094 89.597656 210.960938 89.597656 Z M 206.945312 96.609375 C 206.648438 96.609375 206.617188 96.609375 206.484375 96.609375 C 206.285156 96.574219 206.222656 96.542969 206.222656 96.378906 C 206.222656 96.3125 206.222656 96.28125 206.320312 95.917969 L 207.769531 90.058594 L 211.71875 90.058594 C 213.726562 90.058594 214.121094 91.605469 214.121094 92.527344 C 214.121094 94.601562 212.277344 96.609375 209.808594 96.609375 Z M 206.945312 96.609375 "/>
<g clip-path="url(#clip12)" clip-rule="nonzero">
<path style="fill:none;stroke-width:0.79701;stroke-linecap:butt;stroke-linejoin:miter;stroke:rgb(0%,0%,0%);stroke-opacity:1;stroke-miterlimit:10;" d="M 70.868124 -56.695175 C 70.868124 -33.210818 51.828334 -14.172564 28.344377 -14.172564 C 4.86042 -14.172564 -14.173788 -33.210818 -14.173788 -56.695175 C -14.173788 -80.179533 4.86042 -99.214066 28.344377 -99.214066 C 51.828334 -99.214066 70.868124 -80.179533 70.868124 -56.695175 Z M 70.868124 -56.695175 " transform="matrix(2.099838,0,0,-2.099802,90.793906,90.119328)"/>
</g>
<path style=" stroke:none;fill-rule:nonzero;fill:rgb(0%,0%,0%);fill-opacity:1;" d="M 157.992188 201.761719 C 157.992188 201.695312 157.960938 201.5625 157.761719 201.5625 C 157.695312 201.5625 157.695312 201.5625 157.464844 201.792969 L 155.984375 203.40625 C 155.820312 203.109375 154.832031 201.5625 152.527344 201.5625 C 147.855469 201.5625 143.144531 206.171875 143.144531 211.042969 C 143.144531 214.5 145.613281 216.773438 148.808594 216.773438 C 150.617188 216.773438 152.230469 215.949219 153.351562 214.960938 C 155.292969 213.25 155.621094 211.339844 155.621094 211.273438 C 155.621094 211.078125 155.425781 211.078125 155.390625 211.078125 C 155.261719 211.078125 155.160156 211.109375 155.128906 211.273438 C 154.929688 211.898438 154.4375 213.382812 152.988281 214.597656 C 151.539062 215.75 150.222656 216.113281 149.136719 216.113281 C 147.261719 216.113281 145.054688 215.027344 145.054688 211.769531 C 145.054688 210.582031 145.484375 207.191406 147.589844 204.722656 C 148.839844 203.242188 150.816406 202.1875 152.691406 202.1875 C 154.832031 202.1875 156.050781 203.800781 156.050781 206.238281 C 156.050781 207.09375 155.984375 207.09375 155.984375 207.324219 C 155.984375 207.523438 156.214844 207.523438 156.3125 207.523438 C 156.578125 207.523438 156.578125 207.488281 156.675781 207.09375 Z M 157.992188 201.761719 "/>
<path style="fill-rule:evenodd;fill:rgb(80%,80%,100%);fill-opacity:1;stroke-width:0.79701;stroke-linecap:butt;stroke-linejoin:miter;stroke:rgb(0%,0%,0%);stroke-opacity:1;stroke-miterlimit:10;" d="M 212.599683 -0.000840937 C 212.599683 23.483517 193.565474 42.52177 170.081517 42.52177 C 146.59756 42.52177 127.561491 23.483517 127.561491 -0.000840937 C 127.561491 -23.485198 146.59756 -42.519731 170.081517 -42.519731 C 193.565474 -42.519731 212.599683 -23.485198 212.599683 -0.000840937 Z M 212.599683 -0.000840937 " transform="matrix(2.099838,0,0,-2.099802,90.793906,90.119328)"/>
<g clip-path="url(#clip13)" clip-rule="nonzero">
<g clip-path="url(#clip14)" clip-rule="nonzero">
<path style=" stroke:none;fill-rule:evenodd;fill:rgb(80%,80%,100%);fill-opacity:1;" d="M 656.269531 90.121094 C 656.269531 40.808594 616.296875 0.832031 566.988281 0.832031 C 517.675781 0.832031 477.695312 40.808594 477.695312 90.121094 C 477.695312 139.433594 517.675781 179.402344 566.988281 179.402344 C 616.296875 179.402344 656.269531 139.433594 656.269531 90.121094 Z M 656.269531 90.121094 "/>
</g>
</g>
<g clip-path="url(#clip15)" clip-rule="nonzero">
<g clip-path="url(#clip16)" clip-rule="nonzero">
<path style="fill:none;stroke-width:0.79701;stroke-linecap:butt;stroke-linejoin:miter;stroke:rgb(0%,0%,0%);stroke-opacity:1;stroke-miterlimit:10;" d="M 269.294911 -0.000840937 C 269.294911 23.483517 250.258842 42.52177 226.776745 42.52177 C 203.292788 42.52177 184.252999 23.483517 184.252999 -0.000840937 C 184.252999 -23.485198 203.292788 -42.519731 226.776745 -42.519731 C 250.258842 -42.519731 269.294911 -23.485198 269.294911 -0.000840937 Z M 269.294911 -0.000840937 " transform="matrix(2.099838,0,0,-2.099802,90.793906,90.119328)"/>
</g>
</g>
<path style="fill:none;stroke-width:0.79701;stroke-linecap:butt;stroke-linejoin:miter;stroke:rgb(0%,0%,0%);stroke-opacity:1;stroke-miterlimit:10;" d="M 212.599683 -0.000840937 C 212.599683 23.483517 193.565474 42.52177 170.081517 42.52177 C 146.59756 42.52177 127.561491 23.483517 127.561491 -0.000840937 C 127.561491 -23.485198 146.59756 -42.519731 170.081517 -42.519731 C 193.565474 -42.519731 212.599683 -23.485198 212.599683 -0.000840937 Z M 212.599683 -0.000840937 " transform="matrix(2.099838,0,0,-2.099802,90.793906,90.119328)"/>
<path style=" stroke:none;fill-rule:nonzero;fill:rgb(0%,0%,0%);fill-opacity:1;" d="M 443.839844 94.863281 C 442.984375 96.246094 442.195312 96.542969 441.273438 96.609375 C 441.007812 96.640625 440.8125 96.640625 440.8125 97.035156 C 440.8125 97.167969 440.910156 97.265625 441.109375 97.265625 C 441.667969 97.265625 442.292969 97.203125 442.886719 97.203125 C 443.578125 97.203125 444.300781 97.265625 444.992188 97.265625 C 445.125 97.265625 445.386719 97.265625 445.386719 96.871094 C 445.386719 96.640625 445.191406 96.609375 445.058594 96.609375 C 444.5625 96.574219 444.070312 96.410156 444.070312 95.882812 C 444.070312 95.621094 444.203125 95.390625 444.367188 95.09375 L 445.945312 92.429688 L 451.214844 92.429688 C 451.246094 92.855469 451.542969 95.71875 451.542969 95.917969 C 451.542969 96.542969 450.457031 96.609375 450.027344 96.609375 C 449.730469 96.609375 449.535156 96.609375 449.535156 97.035156 C 449.535156 97.265625 449.765625 97.265625 449.832031 97.265625 C 450.6875 97.265625 451.574219 97.203125 452.433594 97.203125 C 452.957031 97.203125 454.273438 97.265625 454.800781 97.265625 C 454.933594 97.265625 455.195312 97.265625 455.195312 96.839844 C 455.195312 96.609375 454.964844 96.609375 454.703125 96.609375 C 453.386719 96.609375 453.386719 96.476562 453.351562 95.851562 L 452.070312 82.785156 C 452.035156 82.355469 452.035156 82.289062 451.675781 82.289062 C 451.34375 82.289062 451.246094 82.421875 451.113281 82.617188 Z M 446.34375 91.769531 L 450.457031 84.855469 L 451.148438 91.769531 Z M 446.34375 91.769531 "/>
<g clip-path="url(#clip17)" clip-rule="nonzero">
<path style="fill:none;stroke-width:0.79701;stroke-linecap:butt;stroke-linejoin:miter;stroke:rgb(0%,0%,0%);stroke-opacity:1;stroke-miterlimit:10;" d="M 269.294911 -0.000840937 C 269.294911 23.483517 250.258842 42.52177 226.776745 42.52177 C 203.292788 42.52177 184.252999 23.483517 184.252999 -0.000840937 C 184.252999 -23.485198 203.292788 -42.519731 226.776745 -42.519731 C 250.258842 -42.519731 269.294911 -23.485198 269.294911 -0.000840937 Z M 269.294911 -0.000840937 " transform="matrix(2.099838,0,0,-2.099802,90.793906,90.119328)"/>
</g>
<path style=" stroke:none;fill-rule:nonzero;fill:rgb(0%,0%,0%);fill-opacity:1;" d="M 561.875 95.621094 C 561.644531 96.445312 561.613281 96.609375 559.964844 96.609375 C 559.605469 96.609375 559.40625 96.609375 559.40625 97.035156 C 559.40625 97.265625 559.570312 97.265625 559.964844 97.265625 L 567.4375 97.265625 C 570.730469 97.265625 573.199219 94.796875 573.199219 92.757812 C 573.199219 91.242188 572.015625 90.023438 569.972656 89.792969 C 572.144531 89.398438 574.351562 87.851562 574.351562 85.84375 C 574.351562 84.296875 572.96875 82.980469 570.46875 82.980469 L 563.421875 82.980469 C 563.027344 82.980469 562.796875 82.980469 562.796875 83.375 C 562.796875 83.605469 562.996094 83.605469 563.390625 83.605469 C 563.421875 83.605469 563.851562 83.605469 564.179688 83.671875 C 564.574219 83.703125 564.773438 83.738281 564.773438 84 C 564.773438 84.066406 564.738281 84.132812 564.675781 84.394531 Z M 565.035156 89.597656 L 566.320312 84.394531 C 566.515625 83.671875 566.550781 83.605469 567.472656 83.605469 L 570.171875 83.605469 C 572.015625 83.605469 572.441406 84.855469 572.441406 85.777344 C 572.441406 87.621094 570.632812 89.597656 568.097656 89.597656 Z M 564.082031 96.609375 C 563.785156 96.609375 563.753906 96.609375 563.621094 96.609375 C 563.421875 96.574219 563.355469 96.542969 563.355469 96.378906 C 563.355469 96.3125 563.355469 96.28125 563.457031 95.917969 L 564.90625 90.058594 L 568.855469 90.058594 C 570.863281 90.058594 571.257812 91.605469 571.257812 92.527344 C 571.257812 94.601562 569.414062 96.609375 566.945312 96.609375 Z M 564.082031 96.609375 "/>
<g clip-path="url(#clip18)" clip-rule="nonzero">
<path style="fill:none;stroke-width:0.79701;stroke-linecap:butt;stroke-linejoin:miter;stroke:rgb(0%,0%,0%);stroke-opacity:1;stroke-miterlimit:10;" d="M 240.948227 -56.695175 C 240.948227 -33.210818 221.912158 -14.172564 198.428201 -14.172564 C 174.944244 -14.172564 155.906315 -33.210818 155.906315 -56.695175 C 155.906315 -80.179533 174.944244 -99.214066 198.428201 -99.214066 C 221.912158 -99.214066 240.948227 -80.179533 240.948227 -56.695175 Z M 240.948227 -56.695175 " transform="matrix(2.099838,0,0,-2.099802,90.793906,90.119328)"/>
</g>
<path style=" stroke:none;fill-rule:nonzero;fill:rgb(0%,0%,0%);fill-opacity:1;" d="M 515.132812 201.761719 C 515.132812 201.695312 515.097656 201.5625 514.902344 201.5625 C 514.835938 201.5625 514.835938 201.5625 514.605469 201.792969 L 513.121094 203.40625 C 512.957031 203.109375 511.972656 201.5625 509.667969 201.5625 C 504.992188 201.5625 500.285156 206.171875 500.285156 211.042969 C 500.285156 214.5 502.753906 216.773438 505.945312 216.773438 C 507.757812 216.773438 509.371094 215.949219 510.488281 214.960938 C 512.433594 213.25 512.761719 211.339844 512.761719 211.273438 C 512.761719 211.078125 512.5625 211.078125 512.53125 211.078125 C 512.398438 211.078125 512.300781 211.109375 512.265625 211.273438 C 512.070312 211.898438 511.574219 213.382812 510.128906 214.597656 C 508.679688 215.75 507.363281 216.113281 506.277344 216.113281 C 504.398438 216.113281 502.195312 215.027344 502.195312 211.769531 C 502.195312 210.582031 502.621094 207.191406 504.730469 204.722656 C 505.980469 203.242188 507.953125 202.1875 509.832031 202.1875 C 511.972656 202.1875 513.1875 203.800781 513.1875 206.238281 C 513.1875 207.09375 513.121094 207.09375 513.121094 207.324219 C 513.121094 207.523438 513.351562 207.523438 513.453125 207.523438 C 513.714844 207.523438 513.714844 207.488281 513.8125 207.09375 Z M 515.132812 201.761719 "/>
</g>
</svg>
