<?xml version="1.0" encoding="UTF-8"?>
<svg xmlns="http://www.w3.org/2000/svg" xmlns:xlink="http://www.w3.org/1999/xlink" width="434px" height="300px" viewBox="0 0 434 300" version="1.1">
<defs>
<clipPath id="clip1">
  <path d="M 2 15.003906 L 61 15.003906 L 61 132 L 2 132 Z M 2 15.003906 "/>
</clipPath>
<clipPath id="clip2">
  <path d="M 1.753906 0.34375 L 77 0.34375 L 77 149 L 1.753906 149 Z M 1.753906 0.34375 "/>
</clipPath>
<clipPath id="clip3">
  <path d="M 356 0.34375 L 431.902344 0.34375 L 431.902344 149 L 356 149 Z M 356 0.34375 "/>
</clipPath>
<clipPath id="clip4">
  <path d="M 2 180 L 61 180 L 61 296.476562 L 2 296.476562 Z M 2 180 "/>
</clipPath>
<clipPath id="clip5">
  <path d="M 1.753906 164 L 77 164 L 77 296.992188 L 1.753906 296.992188 Z M 1.753906 164 "/>
</clipPath>
<clipPath id="clip6">
  <path d="M 109 164 L 201 164 L 201 296.992188 L 109 296.992188 Z M 109 164 "/>
</clipPath>
<clipPath id="clip7">
  <path d="M 233 164 L 325 164 L 325 296.992188 L 233 296.992188 Z M 233 164 "/>
</clipPath>
<clipPath id="clip8">
  <path d="M 356 164 L 431.902344 164 L 431.902344 296.992188 L 356 296.992188 Z M 356 164 "/>
</clipPath>
</defs>
<g id="surface1">
<g clip-path="url(#clip1)" clip-rule="nonzero">
<path style=" stroke:none;fill-rule:nonzero;fill:rgb(55.29412%,52.549022%,0%);fill-opacity:1;" d="M 60.300781 73.769531 C 60.300781 41.792969 47.324219 15.863281 31.320312 15.863281 C 15.316406 15.863281 2.339844 41.792969 2.339844 73.769531 C 2.339844 105.746094 15.316406 131.667969 31.320312 131.667969 C 47.324219 131.667969 60.300781 105.746094 60.300781 73.769531 Z M 60.300781 73.769531 "/>
</g>
<g clip-path="url(#clip2)" clip-rule="nonzero">
<path style="fill:none;stroke-width:0.3985;stroke-linecap:butt;stroke-linejoin:miter;stroke:rgb(0%,0%,0%);stroke-opacity:1;stroke-miterlimit:10;" d="M 9.964534 -0.000277466 C 9.964534 11.003618 5.503171 19.92664 0.00100101 19.92664 C -5.501169 19.92664 -9.962532 11.003618 -9.962532 -0.000277466 C -9.962532 -11.004173 -5.501169 -19.924507 0.00100101 -19.924507 C 5.503171 -19.924507 9.964534 -11.004173 9.964534 -0.000277466 Z M 9.964534 -0.000277466 " transform="matrix(2.908654,0,0,-2.905931,31.317401,73.768725)"/>
</g>
<path style="fill-rule:nonzero;fill:rgb(0%,67.843139%,93.725491%);fill-opacity:1;stroke-width:0.3985;stroke-linecap:butt;stroke-linejoin:miter;stroke:rgb(0%,0%,0%);stroke-opacity:1;stroke-miterlimit:10;" d="M 52.483131 -0.000277466 C 52.483131 11.003618 48.021767 19.92664 42.519597 19.92664 C 37.017428 19.92664 32.556064 11.003618 32.556064 -0.000277466 C 32.556064 -11.004173 37.017428 -19.924507 42.519597 -19.924507 C 48.021767 -19.924507 52.483131 -11.004173 52.483131 -0.000277466 Z M 52.483131 -0.000277466 " transform="matrix(2.908654,0,0,-2.905931,31.317401,73.768725)"/>
<path style=" stroke:none;fill-rule:nonzero;fill:rgb(0%,0%,0%);fill-opacity:1;" d="M 90.199219 11.753906 L 92.675781 11.753906 C 93.269531 11.753906 93.546875 11.753906 93.546875 11.203125 C 93.546875 10.882812 93.269531 10.882812 92.765625 10.882812 L 90.382812 10.882812 L 90.976562 7.585938 C 91.117188 6.945312 91.484375 4.882812 91.667969 4.5625 C 91.941406 4.011719 92.445312 3.554688 93.042969 3.554688 C 93.132812 3.554688 93.914062 3.554688 94.464844 4.105469 C 93.179688 4.195312 92.902344 5.203125 92.902344 5.660156 C 92.902344 6.304688 93.410156 6.667969 93.957031 6.667969 C 94.738281 6.667969 95.5625 6.027344 95.5625 4.929688 C 95.5625 3.601562 94.234375 2.914062 93.042969 2.914062 C 92.03125 2.914062 90.246094 3.460938 89.375 6.304688 C 89.191406 6.945312 89.097656 7.21875 88.410156 10.882812 L 86.394531 10.882812 C 85.84375 10.882812 85.523438 10.882812 85.523438 11.433594 C 85.523438 11.753906 85.796875 11.753906 86.347656 11.753906 L 88.273438 11.753906 L 86.070312 23.207031 C 85.566406 26.003906 85.0625 28.660156 83.550781 28.660156 C 83.457031 28.660156 82.722656 28.660156 82.175781 28.109375 C 83.503906 28.019531 83.777344 27.011719 83.777344 26.550781 C 83.777344 25.910156 83.230469 25.542969 82.679688 25.542969 C 81.945312 25.542969 81.074219 26.183594 81.074219 27.285156 C 81.074219 28.566406 82.359375 29.300781 83.550781 29.300781 C 85.15625 29.300781 86.300781 27.558594 86.851562 26.460938 C 87.769531 24.628906 88.410156 21.144531 88.457031 20.960938 Z M 90.199219 11.753906 "/>
<path style=" stroke:none;fill-rule:nonzero;fill:rgb(0%,0%,0%);fill-opacity:1;" d="M 100.535156 14.8125 C 100.535156 14.261719 100.488281 14.261719 99.9375 14.261719 C 98.65625 15.5 96.773438 15.546875 95.949219 15.546875 L 95.949219 16.277344 C 96.453125 16.277344 97.785156 16.277344 98.882812 15.683594 L 98.882812 26.039062 C 98.882812 26.679688 98.882812 26.953125 96.867188 26.953125 L 96.085938 26.953125 L 96.085938 27.6875 C 96.453125 27.6875 98.976562 27.59375 99.710938 27.59375 C 100.351562 27.59375 102.875 27.6875 103.332031 27.6875 L 103.332031 26.953125 L 102.554688 26.953125 C 100.535156 26.953125 100.535156 26.679688 100.535156 26.039062 Z M 100.535156 14.8125 "/>
<path style=" stroke:none;fill-rule:nonzero;fill:rgb(0%,0%,0%);fill-opacity:1;" d="M 32.601562 39.875 C 32.601562 39.144531 32.601562 39.097656 31.914062 39.097656 C 30.125 40.976562 27.558594 40.976562 26.640625 40.976562 L 26.640625 41.847656 C 27.234375 41.847656 28.933594 41.847656 30.445312 41.113281 L 30.445312 56.09375 C 30.445312 57.148438 30.355469 57.46875 27.742188 57.46875 L 26.824219 57.46875 L 26.824219 58.382812 C 27.832031 58.292969 30.355469 58.292969 31.5 58.292969 C 32.691406 58.292969 35.214844 58.292969 36.222656 58.382812 L 36.222656 57.46875 L 35.304688 57.46875 C 32.691406 57.46875 32.601562 57.148438 32.601562 56.09375 Z M 32.601562 39.875 "/>
<path style=" stroke:none;fill-rule:nonzero;fill:rgb(0%,0%,0%);fill-opacity:1;" d="M 27.742188 105.5625 L 30.8125 102.585938 C 35.351562 98.601562 37.09375 97.042969 37.09375 94.15625 C 37.09375 90.859375 34.480469 88.523438 30.949219 88.523438 C 27.648438 88.523438 25.539062 91.179688 25.539062 93.746094 C 25.539062 95.394531 26.960938 95.394531 27.050781 95.394531 C 27.558594 95.394531 28.566406 95.027344 28.566406 93.835938 C 28.566406 93.101562 28.0625 92.371094 27.007812 92.371094 C 26.777344 92.371094 26.730469 92.371094 26.640625 92.371094 C 27.328125 90.492188 28.886719 89.4375 30.582031 89.4375 C 33.195312 89.4375 34.433594 91.773438 34.433594 94.15625 C 34.433594 96.449219 33.015625 98.738281 31.410156 100.523438 L 25.859375 106.753906 C 25.539062 107.074219 25.539062 107.121094 25.539062 107.808594 L 36.269531 107.808594 L 37.09375 102.769531 L 36.359375 102.769531 C 36.222656 103.640625 35.996094 104.921875 35.71875 105.335938 C 35.535156 105.5625 33.609375 105.5625 32.96875 105.5625 Z M 27.742188 105.5625 "/>
<path style=" stroke:none;fill-rule:nonzero;fill:rgb(0%,0%,0%);fill-opacity:1;" d="M 158.152344 44.335938 C 157.605469 43.285156 156.777344 42.503906 155.496094 42.503906 C 152.101562 42.503906 148.476562 46.765625 148.476562 50.980469 C 148.476562 53.683594 150.082031 55.609375 152.332031 55.609375 C 152.925781 55.609375 154.394531 55.46875 156.089844 53.453125 C 156.367188 54.644531 157.375 55.609375 158.75 55.609375 C 159.757812 55.609375 160.445312 54.921875 160.90625 54.003906 C 161.410156 52.949219 161.777344 51.210938 161.777344 51.164062 C 161.777344 50.84375 161.5 50.84375 161.410156 50.84375 C 161.132812 50.84375 161.089844 50.980469 160.996094 51.394531 C 160.539062 53.269531 159.988281 54.964844 158.796875 54.964844 C 158.015625 54.964844 157.925781 54.234375 157.925781 53.636719 C 157.925781 52.996094 158.015625 52.765625 158.335938 51.484375 C 158.613281 50.292969 158.703125 49.972656 158.933594 48.875 L 159.988281 44.839844 C 160.21875 44.015625 160.21875 43.972656 160.21875 43.832031 C 160.21875 43.375 159.851562 43.054688 159.347656 43.054688 C 158.660156 43.054688 158.246094 43.695312 158.152344 44.335938 Z M 156.273438 51.851562 C 156.089844 52.355469 156.089844 52.402344 155.675781 52.90625 C 154.394531 54.507812 153.203125 54.964844 152.421875 54.964844 C 150.953125 54.964844 150.542969 53.363281 150.542969 52.261719 C 150.542969 50.796875 151.457031 47.222656 152.148438 45.894531 C 153.0625 44.199219 154.347656 43.148438 155.496094 43.148438 C 157.375 43.148438 157.785156 45.484375 157.785156 45.667969 C 157.785156 45.851562 157.742188 46.03125 157.695312 46.171875 Z M 156.273438 51.851562 "/>
<path style=" stroke:none;fill-rule:nonzero;fill:rgb(0%,0%,0%);fill-opacity:1;" d="M 155.699219 88.742188 C 155.699219 88.742188 155.699219 88.421875 155.332031 88.421875 C 154.644531 88.421875 152.535156 88.648438 151.800781 88.742188 C 151.570312 88.742188 151.25 88.789062 151.25 89.292969 C 151.25 89.65625 151.480469 89.65625 151.9375 89.65625 C 153.3125 89.65625 153.359375 89.839844 153.359375 90.160156 C 153.359375 90.34375 153.132812 91.351562 152.992188 91.949219 L 150.609375 101.386719 C 150.242188 102.804688 150.148438 103.308594 150.148438 104.316406 C 150.148438 107.066406 151.664062 108.851562 153.820312 108.851562 C 157.257812 108.851562 160.789062 104.546875 160.789062 100.378906 C 160.789062 97.71875 159.277344 95.75 156.9375 95.75 C 155.605469 95.75 154.414062 96.574219 153.542969 97.492188 Z M 152.992188 99.691406 C 153.132812 99.050781 153.132812 99.003906 153.40625 98.683594 C 154.828125 96.804688 156.15625 96.390625 156.890625 96.390625 C 157.945312 96.390625 158.726562 97.261719 158.726562 99.09375 C 158.726562 100.789062 157.761719 104.132812 157.257812 105.234375 C 156.296875 107.15625 154.964844 108.210938 153.820312 108.210938 C 152.808594 108.210938 151.894531 107.433594 151.894531 105.28125 C 151.894531 104.730469 151.894531 104.179688 152.351562 102.347656 Z M 152.992188 99.691406 "/>
<path style="fill:none;stroke-width:0.3985;stroke-linecap:butt;stroke-linejoin:miter;stroke:rgb(0%,0%,0%);stroke-opacity:1;stroke-miterlimit:10;" d="M 3.488708 8.504688 L 38.492014 8.504688 " transform="matrix(2.908654,0,0,-2.905931,31.317401,73.768725)"/>
<path style="fill:none;stroke-width:0.3985;stroke-linecap:round;stroke-linejoin:round;stroke:rgb(0%,0%,0%);stroke-opacity:1;stroke-miterlimit:10;" d="M -2.071646 2.393305 C -1.69427 0.957663 -0.850881 0.28017 0.000564899 0.000569221 C -0.850881 -0.279031 -1.69427 -0.957869 -2.071646 -2.392166 " transform="matrix(2.908654,0,0,-2.905931,143.857732,49.056342)"/>
<path style="fill:none;stroke-width:0.3985;stroke-linecap:butt;stroke-linejoin:miter;stroke:rgb(0%,0%,0%);stroke-opacity:1;stroke-miterlimit:10;" d="M 3.488708 -8.506587 L 38.987572 -8.506587 " transform="matrix(2.908654,0,0,-2.905931,31.317401,73.768725)"/>
<path style="fill:none;stroke-width:0.3985;stroke-linecap:round;stroke-linejoin:round;stroke:rgb(0%,0%,0%);stroke-opacity:1;stroke-miterlimit:10;" d="M -2.07136 2.390267 C -1.692641 0.95597 -0.849253 0.278476 -0.00183526 -0.00246839 C -0.849253 -0.278036 -1.692641 -0.95553 -2.07136 -2.389827 " transform="matrix(2.908654,0,0,-2.905931,145.298307,98.481108)"/>
<path style="fill-rule:nonzero;fill:rgb(55.29412%,52.549022%,0%);fill-opacity:1;stroke-width:0.3985;stroke-linecap:butt;stroke-linejoin:miter;stroke:rgb(0%,0%,0%);stroke-opacity:1;stroke-miterlimit:10;" d="M 95.001727 -0.000277466 C 95.001727 11.003618 90.544392 19.92664 85.042222 19.92664 C 79.536024 19.92664 75.078689 11.003618 75.078689 -0.000277466 C 75.078689 -11.004173 79.536024 -19.924507 85.042222 -19.924507 C 90.544392 -19.924507 95.001727 -11.004173 95.001727 -0.000277466 Z M 95.001727 -0.000277466 " transform="matrix(2.908654,0,0,-2.905931,31.317401,73.768725)"/>
<path style=" stroke:none;fill-rule:nonzero;fill:rgb(0%,67.843139%,93.725491%);fill-opacity:1;" d="M 431.328125 73.769531 C 431.328125 41.792969 418.351562 15.863281 402.347656 15.863281 C 386.34375 15.863281 373.367188 41.792969 373.367188 73.769531 C 373.367188 105.746094 386.34375 131.667969 402.347656 131.667969 C 418.351562 131.667969 431.328125 105.746094 431.328125 73.769531 Z M 431.328125 73.769531 "/>
<g clip-path="url(#clip3)" clip-rule="nonzero">
<path style="fill:none;stroke-width:0.3985;stroke-linecap:butt;stroke-linejoin:miter;stroke:rgb(0%,0%,0%);stroke-opacity:1;stroke-miterlimit:10;" d="M 137.524352 -0.000277466 C 137.524352 11.003618 133.062988 19.92664 127.560818 19.92664 C 122.058649 19.92664 117.597285 11.003618 117.597285 -0.000277466 C 117.597285 -11.004173 122.058649 -19.924507 127.560818 -19.924507 C 133.062988 -19.924507 137.524352 -11.004173 137.524352 -0.000277466 Z M 137.524352 -0.000277466 " transform="matrix(2.908654,0,0,-2.905931,31.317401,73.768725)"/>
</g>
<path style=" stroke:none;fill-rule:nonzero;fill:rgb(0%,0%,0%);fill-opacity:1;" d="M 337.550781 11.753906 L 340.027344 11.753906 C 340.621094 11.753906 340.898438 11.753906 340.898438 11.203125 C 340.898438 10.882812 340.621094 10.882812 340.117188 10.882812 L 337.734375 10.882812 L 338.332031 7.585938 C 338.46875 6.945312 338.835938 4.882812 339.019531 4.5625 C 339.292969 4.011719 339.796875 3.554688 340.394531 3.554688 C 340.484375 3.554688 341.265625 3.554688 341.816406 4.105469 C 340.53125 4.195312 340.257812 5.203125 340.257812 5.660156 C 340.257812 6.304688 340.761719 6.667969 341.3125 6.667969 C 342.089844 6.667969 342.914062 6.027344 342.914062 4.929688 C 342.914062 3.601562 341.585938 2.914062 340.394531 2.914062 C 339.386719 2.914062 337.597656 3.460938 336.726562 6.304688 C 336.542969 6.945312 336.449219 7.21875 335.761719 10.882812 L 333.746094 10.882812 C 333.195312 10.882812 332.875 10.882812 332.875 11.433594 C 332.875 11.753906 333.148438 11.753906 333.699219 11.753906 L 335.625 11.753906 L 333.421875 23.207031 C 332.917969 26.003906 332.414062 28.660156 330.902344 28.660156 C 330.808594 28.660156 330.078125 28.660156 329.527344 28.109375 C 330.855469 28.019531 331.132812 27.011719 331.132812 26.550781 C 331.132812 25.910156 330.582031 25.542969 330.03125 25.542969 C 329.296875 25.542969 328.425781 26.183594 328.425781 27.285156 C 328.425781 28.566406 329.710938 29.300781 330.902344 29.300781 C 332.507812 29.300781 333.652344 27.558594 334.203125 26.460938 C 335.121094 24.628906 335.761719 21.144531 335.808594 20.960938 Z M 337.550781 11.753906 "/>
<path style=" stroke:none;fill-rule:nonzero;fill:rgb(0%,0%,0%);fill-opacity:1;" d="M 351.324219 24.019531 L 350.636719 24.019531 C 350.589844 24.433594 350.359375 25.625 350.132812 25.855469 C 349.949219 25.945312 348.390625 25.945312 348.113281 25.945312 L 344.398438 25.945312 C 346.507812 24.066406 347.195312 23.515625 348.433594 22.554688 C 349.949219 21.363281 351.324219 20.128906 351.324219 18.203125 C 351.324219 15.730469 349.167969 14.261719 346.601562 14.261719 C 344.078125 14.261719 342.382812 16.003906 342.382812 17.882812 C 342.382812 18.890625 343.253906 18.980469 343.4375 18.980469 C 343.941406 18.980469 344.535156 18.660156 344.535156 17.929688 C 344.535156 17.5625 344.398438 16.875 343.34375 16.875 C 343.941406 15.410156 345.316406 14.949219 346.28125 14.949219 C 348.296875 14.949219 349.351562 16.554688 349.351562 18.203125 C 349.351562 19.945312 348.113281 21.363281 347.472656 22.097656 L 342.566406 26.90625 C 342.382812 27.089844 342.382812 27.136719 342.382812 27.6875 L 350.726562 27.6875 Z M 351.324219 24.019531 "/>
<path style=" stroke:none;fill-rule:nonzero;fill:rgb(0%,0%,0%);fill-opacity:1;" d="M 279.953125 39.875 C 279.953125 39.144531 279.953125 39.097656 279.265625 39.097656 C 277.476562 40.976562 274.910156 40.976562 273.992188 40.976562 L 273.992188 41.847656 C 274.585938 41.847656 276.285156 41.847656 277.796875 41.113281 L 277.796875 56.09375 C 277.796875 57.148438 277.707031 57.46875 275.09375 57.46875 L 274.175781 57.46875 L 274.175781 58.382812 C 275.183594 58.292969 277.707031 58.292969 278.851562 58.292969 C 280.042969 58.292969 282.566406 58.292969 283.574219 58.382812 L 283.574219 57.46875 L 282.660156 57.46875 C 280.042969 57.46875 279.953125 57.148438 279.953125 56.09375 Z M 279.953125 39.875 "/>
<path style=" stroke:none;fill-rule:nonzero;fill:rgb(0%,0%,0%);fill-opacity:1;" d="M 275.09375 105.5625 L 278.164062 102.585938 C 282.703125 98.601562 284.445312 97.042969 284.445312 94.15625 C 284.445312 90.859375 281.832031 88.523438 278.300781 88.523438 C 275 88.523438 272.890625 91.179688 272.890625 93.746094 C 272.890625 95.394531 274.3125 95.394531 274.40625 95.394531 C 274.910156 95.394531 275.917969 95.027344 275.917969 93.835938 C 275.917969 93.101562 275.414062 92.371094 274.359375 92.371094 C 274.128906 92.371094 274.082031 92.371094 273.992188 92.371094 C 274.679688 90.492188 276.238281 89.4375 277.933594 89.4375 C 280.550781 89.4375 281.789062 91.773438 281.789062 94.15625 C 281.789062 96.449219 280.367188 98.738281 278.761719 100.523438 L 273.210938 106.753906 C 272.890625 107.074219 272.890625 107.121094 272.890625 107.808594 L 283.621094 107.808594 L 284.445312 102.769531 L 283.714844 102.769531 C 283.574219 103.640625 283.347656 104.921875 283.070312 105.335938 C 282.886719 105.5625 280.960938 105.5625 280.320312 105.5625 Z M 275.09375 105.5625 "/>
<path style=" stroke:none;fill-rule:nonzero;fill:rgb(0%,0%,0%);fill-opacity:1;" d="M 405.503906 44.335938 C 404.957031 43.285156 404.128906 42.503906 402.847656 42.503906 C 399.453125 42.503906 395.832031 46.765625 395.832031 50.980469 C 395.832031 53.683594 397.433594 55.609375 399.683594 55.609375 C 400.277344 55.609375 401.746094 55.46875 403.441406 53.453125 C 403.71875 54.644531 404.726562 55.609375 406.101562 55.609375 C 407.109375 55.609375 407.796875 54.921875 408.257812 54.003906 C 408.761719 52.949219 409.128906 51.210938 409.128906 51.164062 C 409.128906 50.84375 408.851562 50.84375 408.761719 50.84375 C 408.488281 50.84375 408.441406 50.980469 408.347656 51.394531 C 407.890625 53.269531 407.339844 54.964844 406.148438 54.964844 C 405.367188 54.964844 405.277344 54.234375 405.277344 53.636719 C 405.277344 52.996094 405.367188 52.765625 405.6875 51.484375 C 405.964844 50.292969 406.054688 49.972656 406.285156 48.875 L 407.339844 44.839844 C 407.570312 44.015625 407.570312 43.972656 407.570312 43.832031 C 407.570312 43.375 407.203125 43.054688 406.699219 43.054688 C 406.011719 43.054688 405.597656 43.695312 405.503906 44.335938 Z M 403.625 51.851562 C 403.441406 52.355469 403.441406 52.402344 403.03125 52.90625 C 401.746094 54.507812 400.554688 54.964844 399.773438 54.964844 C 398.304688 54.964844 397.894531 53.363281 397.894531 52.261719 C 397.894531 50.796875 398.8125 47.222656 399.5 45.894531 C 400.414062 44.199219 401.699219 43.148438 402.847656 43.148438 C 404.726562 43.148438 405.140625 45.484375 405.140625 45.667969 C 405.140625 45.851562 405.09375 46.03125 405.046875 46.171875 Z M 403.625 51.851562 "/>
<path style=" stroke:none;fill-rule:nonzero;fill:rgb(0%,0%,0%);fill-opacity:1;" d="M 403.046875 88.742188 C 403.046875 88.742188 403.046875 88.421875 402.679688 88.421875 C 401.992188 88.421875 399.882812 88.648438 399.148438 88.742188 C 398.921875 88.742188 398.601562 88.789062 398.601562 89.292969 C 398.601562 89.65625 398.828125 89.65625 399.289062 89.65625 C 400.664062 89.65625 400.710938 89.839844 400.710938 90.160156 C 400.710938 90.34375 400.480469 91.351562 400.34375 91.949219 L 397.957031 101.386719 C 397.589844 102.804688 397.5 103.308594 397.5 104.316406 C 397.5 107.066406 399.011719 108.851562 401.167969 108.851562 C 404.605469 108.851562 408.136719 104.546875 408.136719 100.378906 C 408.136719 97.71875 406.625 95.75 404.285156 95.75 C 402.957031 95.75 401.765625 96.574219 400.894531 97.492188 Z M 400.34375 99.691406 C 400.480469 99.050781 400.480469 99.003906 400.753906 98.683594 C 402.175781 96.804688 403.507812 96.390625 404.238281 96.390625 C 405.292969 96.390625 406.074219 97.261719 406.074219 99.09375 C 406.074219 100.789062 405.109375 104.132812 404.605469 105.234375 C 403.644531 107.15625 402.3125 108.210938 401.167969 108.210938 C 400.160156 108.210938 399.242188 107.433594 399.242188 105.28125 C 399.242188 104.730469 399.242188 104.179688 399.699219 102.347656 Z M 400.34375 99.691406 "/>
<path style="fill:none;stroke-width:0.3985;stroke-linecap:butt;stroke-linejoin:miter;stroke:rgb(0%,0%,0%);stroke-opacity:1;stroke-miterlimit:10;" d="M 88.5259 7.109374 L 124.056996 -7.103207 " transform="matrix(2.908654,0,0,-2.905931,31.317401,73.768725)"/>
<path style="fill:none;stroke-width:0.3985;stroke-linecap:round;stroke-linejoin:round;stroke:rgb(0%,0%,0%);stroke-opacity:1;stroke-miterlimit:10;" d="M -2.072599 2.391954 C -1.693228 0.955505 -0.849973 0.279397 0.000871337 0.000120373 C -0.85102 -0.278417 -1.693043 -0.954041 -2.072632 -2.391519 " transform="matrix(2.700627,1.07935,1.080362,-2.698099,392.692829,94.624384)"/>
<path style="fill:none;stroke-width:0.3985;stroke-linecap:butt;stroke-linejoin:miter;stroke:rgb(0%,0%,0%);stroke-opacity:1;stroke-miterlimit:10;" d="M 88.5259 -7.111273 L 123.560095 6.90505 " transform="matrix(2.908654,0,0,-2.905931,31.317401,73.768725)"/>
<path style="fill:none;stroke-width:0.3985;stroke-linecap:round;stroke-linejoin:round;stroke:rgb(0%,0%,0%);stroke-opacity:1;stroke-miterlimit:10;" d="M -2.070465 2.390537 C -1.693118 0.958299 -0.849352 0.276187 -0.000702043 0.000393873 C -0.8503 -0.279381 -1.695301 -0.956239 -2.074173 -2.39144 " transform="matrix(2.700627,-1.07935,-1.080362,-2.698099,391.252321,53.488586)"/>
<g clip-path="url(#clip4)" clip-rule="nonzero">
<path style=" stroke:none;fill-rule:nonzero;fill:rgb(55.29412%,52.549022%,0%);fill-opacity:1;" d="M 60.300781 238.511719 C 60.300781 206.535156 47.324219 180.617188 31.320312 180.617188 C 15.316406 180.617188 2.339844 206.535156 2.339844 238.511719 C 2.339844 270.488281 15.316406 296.417969 31.320312 296.417969 C 47.324219 296.417969 60.300781 270.488281 60.300781 238.511719 Z M 60.300781 238.511719 "/>
</g>
<g clip-path="url(#clip5)" clip-rule="nonzero">
<path style="fill:none;stroke-width:0.3985;stroke-linecap:butt;stroke-linejoin:miter;stroke:rgb(0%,0%,0%);stroke-opacity:1;stroke-miterlimit:10;" d="M 9.964534 -56.691982 C 9.964534 -45.688087 5.503171 -36.769097 0.00100101 -36.769097 C -5.501169 -36.769097 -9.962532 -45.688087 -9.962532 -56.691982 C -9.962532 -67.695878 -5.501169 -76.6189 0.00100101 -76.6189 C 5.503171 -76.6189 9.964534 -67.695878 9.964534 -56.691982 Z M 9.964534 -56.691982 " transform="matrix(2.908654,0,0,-2.905931,31.317401,73.768725)"/>
</g>
<path style=" stroke:none;fill-rule:nonzero;fill:rgb(0%,67.843139%,93.725491%);fill-opacity:1;" d="M 183.972656 238.511719 C 183.972656 206.535156 170.996094 180.617188 154.992188 180.617188 C 138.988281 180.617188 126.011719 206.535156 126.011719 238.511719 C 126.011719 270.488281 138.988281 296.417969 154.992188 296.417969 C 170.996094 296.417969 183.972656 270.488281 183.972656 238.511719 Z M 183.972656 238.511719 "/>
<g clip-path="url(#clip6)" clip-rule="nonzero">
<path style="fill:none;stroke-width:0.3985;stroke-linecap:butt;stroke-linejoin:miter;stroke:rgb(0%,0%,0%);stroke-opacity:1;stroke-miterlimit:10;" d="M 52.483131 -56.691982 C 52.483131 -45.688087 48.021767 -36.769097 42.519597 -36.769097 C 37.017428 -36.769097 32.556064 -45.688087 32.556064 -56.691982 C 32.556064 -67.695878 37.017428 -76.6189 42.519597 -76.6189 C 48.021767 -76.6189 52.483131 -67.695878 52.483131 -56.691982 Z M 52.483131 -56.691982 " transform="matrix(2.908654,0,0,-2.905931,31.317401,73.768725)"/>
</g>
<path style=" stroke:none;fill-rule:nonzero;fill:rgb(0%,0%,0%);fill-opacity:1;" d="M 90.199219 176.5 L 92.675781 176.5 C 93.269531 176.5 93.546875 176.5 93.546875 175.949219 C 93.546875 175.628906 93.269531 175.628906 92.765625 175.628906 L 90.382812 175.628906 L 90.976562 172.332031 C 91.117188 171.691406 91.484375 169.628906 91.667969 169.308594 C 91.941406 168.757812 92.445312 168.300781 93.042969 168.300781 C 93.132812 168.300781 93.914062 168.300781 94.464844 168.851562 C 93.179688 168.941406 92.902344 169.949219 92.902344 170.40625 C 92.902344 171.046875 93.410156 171.414062 93.957031 171.414062 C 94.738281 171.414062 95.5625 170.773438 95.5625 169.675781 C 95.5625 168.347656 94.234375 167.660156 93.042969 167.660156 C 92.03125 167.660156 90.246094 168.207031 89.375 171.046875 C 89.191406 171.691406 89.097656 171.964844 88.410156 175.628906 L 86.394531 175.628906 C 85.84375 175.628906 85.523438 175.628906 85.523438 176.179688 C 85.523438 176.5 85.796875 176.5 86.347656 176.5 L 88.273438 176.5 L 86.070312 187.953125 C 85.566406 190.75 85.0625 193.40625 83.550781 193.40625 C 83.457031 193.40625 82.722656 193.40625 82.175781 192.855469 C 83.503906 192.765625 83.777344 191.757812 83.777344 191.296875 C 83.777344 190.65625 83.230469 190.289062 82.679688 190.289062 C 81.945312 190.289062 81.074219 190.929688 81.074219 192.03125 C 81.074219 193.3125 82.359375 194.046875 83.550781 194.046875 C 85.15625 194.046875 86.300781 192.304688 86.851562 191.207031 C 87.769531 189.375 88.410156 185.890625 88.457031 185.707031 Z M 90.199219 176.5 "/>
<path style=" stroke:none;fill-rule:nonzero;fill:rgb(0%,0%,0%);fill-opacity:1;" d="M 99.296875 185.652344 C 100.855469 185.652344 102.003906 186.75 102.003906 188.949219 C 102.003906 191.425781 100.535156 192.203125 99.34375 192.203125 C 98.5625 192.203125 96.773438 191.972656 95.902344 190.78125 C 96.867188 190.738281 97.097656 190.050781 97.097656 189.636719 C 97.097656 188.996094 96.589844 188.539062 95.996094 188.539062 C 95.398438 188.539062 94.847656 188.859375 94.847656 189.683594 C 94.847656 191.609375 96.957031 192.84375 99.390625 192.84375 C 102.230469 192.84375 104.15625 190.964844 104.15625 188.949219 C 104.15625 187.347656 102.875 185.789062 100.628906 185.285156 C 102.78125 184.550781 103.515625 182.996094 103.515625 181.804688 C 103.515625 180.199219 101.683594 179.007812 99.433594 179.007812 C 97.1875 179.007812 95.492188 180.0625 95.492188 181.710938 C 95.492188 182.398438 95.902344 182.765625 96.546875 182.765625 C 97.140625 182.765625 97.554688 182.308594 97.554688 181.757812 C 97.554688 181.164062 97.140625 180.75 96.546875 180.703125 C 97.234375 179.789062 98.65625 179.558594 99.390625 179.558594 C 100.304688 179.558594 101.589844 180.015625 101.589844 181.804688 C 101.589844 182.628906 101.269531 183.542969 100.765625 184.1875 C 100.078125 184.964844 99.527344 185.011719 98.519531 185.054688 C 98.011719 185.101562 97.96875 185.101562 97.875 185.101562 C 97.828125 185.101562 97.644531 185.148438 97.644531 185.378906 C 97.644531 185.652344 97.828125 185.652344 98.195312 185.652344 Z M 99.296875 185.652344 "/>
<path style=" stroke:none;fill-rule:nonzero;fill:rgb(0%,0%,0%);fill-opacity:1;" d="M 32.601562 204.621094 C 32.601562 203.890625 32.601562 203.84375 31.914062 203.84375 C 30.125 205.722656 27.558594 205.722656 26.640625 205.722656 L 26.640625 206.59375 C 27.234375 206.59375 28.933594 206.59375 30.445312 205.859375 L 30.445312 220.839844 C 30.445312 221.894531 30.355469 222.214844 27.742188 222.214844 L 26.824219 222.214844 L 26.824219 223.128906 C 27.832031 223.039062 30.355469 223.039062 31.5 223.039062 C 32.691406 223.039062 35.214844 223.039062 36.222656 223.128906 L 36.222656 222.214844 L 35.304688 222.214844 C 32.691406 222.214844 32.601562 221.894531 32.601562 220.839844 Z M 32.601562 204.621094 "/>
<path style=" stroke:none;fill-rule:nonzero;fill:rgb(0%,0%,0%);fill-opacity:1;" d="M 27.742188 270.308594 L 30.8125 267.332031 C 35.351562 263.347656 37.09375 261.789062 37.09375 258.902344 C 37.09375 255.605469 34.480469 253.269531 30.949219 253.269531 C 27.648438 253.269531 25.539062 255.925781 25.539062 258.492188 C 25.539062 260.140625 26.960938 260.140625 27.050781 260.140625 C 27.558594 260.140625 28.566406 259.773438 28.566406 258.582031 C 28.566406 257.847656 28.0625 257.117188 27.007812 257.117188 C 26.777344 257.117188 26.730469 257.117188 26.640625 257.117188 C 27.328125 255.238281 28.886719 254.183594 30.582031 254.183594 C 33.195312 254.183594 34.433594 256.519531 34.433594 258.902344 C 34.433594 261.191406 33.015625 263.484375 31.410156 265.269531 L 25.859375 271.5 C 25.539062 271.820312 25.539062 271.867188 25.539062 272.554688 L 36.269531 272.554688 L 37.09375 267.515625 L 36.359375 267.515625 C 36.222656 268.386719 35.996094 269.667969 35.71875 270.082031 C 35.535156 270.308594 33.609375 270.308594 32.96875 270.308594 Z M 27.742188 270.308594 "/>
<path style=" stroke:none;fill-rule:nonzero;fill:rgb(0%,0%,0%);fill-opacity:1;" d="M 158.15625 209.082031 C 157.605469 208.03125 156.78125 207.25 155.496094 207.25 C 152.105469 207.25 148.480469 211.511719 148.480469 215.726562 C 148.480469 218.429688 150.085938 220.355469 152.332031 220.355469 C 152.929688 220.355469 154.398438 220.214844 156.09375 218.199219 C 156.367188 219.390625 157.378906 220.355469 158.753906 220.355469 C 159.761719 220.355469 160.449219 219.667969 160.90625 218.75 C 161.414062 217.695312 161.78125 215.957031 161.78125 215.910156 C 161.78125 215.589844 161.503906 215.589844 161.414062 215.589844 C 161.136719 215.589844 161.089844 215.726562 161 216.140625 C 160.542969 218.015625 159.992188 219.710938 158.796875 219.710938 C 158.019531 219.710938 157.925781 218.980469 157.925781 218.382812 C 157.925781 217.742188 158.019531 217.511719 158.339844 216.230469 C 158.617188 215.039062 158.707031 214.71875 158.9375 213.621094 L 159.992188 209.585938 C 160.21875 208.761719 160.21875 208.71875 160.21875 208.578125 C 160.21875 208.121094 159.851562 207.800781 159.347656 207.800781 C 158.660156 207.800781 158.25 208.441406 158.15625 209.082031 Z M 156.277344 216.597656 C 156.09375 217.101562 156.09375 217.148438 155.679688 217.652344 C 154.398438 219.253906 153.203125 219.710938 152.425781 219.710938 C 150.957031 219.710938 150.542969 218.109375 150.542969 217.007812 C 150.542969 215.542969 151.460938 211.96875 152.148438 210.640625 C 153.066406 208.945312 154.351562 207.894531 155.496094 207.894531 C 157.378906 207.894531 157.789062 210.230469 157.789062 210.414062 C 157.789062 210.59375 157.742188 210.777344 157.699219 210.917969 Z M 156.277344 216.597656 "/>
<path style=" stroke:none;fill-rule:nonzero;fill:rgb(0%,0%,0%);fill-opacity:1;" d="M 155.699219 253.488281 C 155.699219 253.488281 155.699219 253.167969 155.332031 253.167969 C 154.644531 253.167969 152.535156 253.394531 151.800781 253.488281 C 151.570312 253.488281 151.25 253.53125 151.25 254.035156 C 151.25 254.402344 151.480469 254.402344 151.9375 254.402344 C 153.3125 254.402344 153.359375 254.585938 153.359375 254.90625 C 153.359375 255.089844 153.132812 256.097656 152.992188 256.695312 L 150.609375 266.132812 C 150.242188 267.550781 150.148438 268.054688 150.148438 269.0625 C 150.148438 271.8125 151.664062 273.597656 153.820312 273.597656 C 157.257812 273.597656 160.789062 269.292969 160.789062 265.125 C 160.789062 262.464844 159.277344 260.496094 156.9375 260.496094 C 155.605469 260.496094 154.414062 261.320312 153.542969 262.238281 Z M 152.992188 264.4375 C 153.132812 263.796875 153.132812 263.75 153.40625 263.429688 C 154.828125 261.550781 156.15625 261.136719 156.890625 261.136719 C 157.945312 261.136719 158.726562 262.007812 158.726562 263.839844 C 158.726562 265.535156 157.761719 268.878906 157.257812 269.980469 C 156.296875 271.902344 154.964844 272.957031 153.820312 272.957031 C 152.808594 272.957031 151.894531 272.179688 151.894531 270.027344 C 151.894531 269.476562 151.894531 268.925781 152.351562 267.09375 Z M 152.992188 264.4375 "/>
<path style="fill:none;stroke-width:0.3985;stroke-linecap:butt;stroke-linejoin:miter;stroke:rgb(0%,0%,0%);stroke-opacity:1;stroke-miterlimit:10;" d="M 3.488708 -48.191049 L 38.492014 -48.191049 " transform="matrix(2.908654,0,0,-2.905931,31.317401,73.768725)"/>
<path style="fill:none;stroke-width:0.3985;stroke-linecap:round;stroke-linejoin:round;stroke:rgb(0%,0%,0%);stroke-opacity:1;stroke-miterlimit:10;" d="M -2.071646 2.391155 C -1.69427 0.956858 -0.850881 0.27802 0.000564899 -0.00158022 C -0.850881 -0.277148 -1.69427 -0.954642 -2.071646 -2.390283 " transform="matrix(2.908654,0,0,-2.905931,143.857732,213.804002)"/>
<path style="fill:none;stroke-width:0.3985;stroke-linecap:butt;stroke-linejoin:miter;stroke:rgb(0%,0%,0%);stroke-opacity:1;stroke-miterlimit:10;" d="M 3.488708 -63.802978 L 38.518874 -49.786655 " transform="matrix(2.908654,0,0,-2.905931,31.317401,73.768725)"/>
<path style="fill:none;stroke-width:0.3985;stroke-linecap:round;stroke-linejoin:round;stroke:rgb(0%,0%,0%);stroke-opacity:1;stroke-miterlimit:10;" d="M -2.072007 2.388843 C -1.694661 0.956605 -0.849397 0.278237 -0.00224428 -0.00130004 C -0.851591 -0.276832 -1.692603 -0.958181 -2.070477 -2.390886 " transform="matrix(2.700627,-1.07935,-1.080362,-2.698099,143.899188,218.236258)"/>
<path style=" stroke:none;fill-rule:nonzero;fill:rgb(55.29412%,52.549022%,0%);fill-opacity:1;" d="M 307.644531 238.511719 C 307.644531 206.535156 294.679688 180.617188 278.675781 180.617188 C 262.660156 180.617188 249.695312 206.535156 249.695312 238.511719 C 249.695312 270.488281 262.660156 296.417969 278.675781 296.417969 C 294.679688 296.417969 307.644531 270.488281 307.644531 238.511719 Z M 307.644531 238.511719 "/>
<g clip-path="url(#clip7)" clip-rule="nonzero">
<path style="fill:none;stroke-width:0.3985;stroke-linecap:butt;stroke-linejoin:miter;stroke:rgb(0%,0%,0%);stroke-opacity:1;stroke-miterlimit:10;" d="M 95.001727 -56.691982 C 95.001727 -45.688087 90.544392 -36.769097 85.042222 -36.769097 C 79.536024 -36.769097 75.078689 -45.688087 75.078689 -56.691982 C 75.078689 -67.695878 79.536024 -76.6189 85.042222 -76.6189 C 90.544392 -76.6189 95.001727 -67.695878 95.001727 -56.691982 Z M 95.001727 -56.691982 " transform="matrix(2.908654,0,0,-2.905931,31.317401,73.768725)"/>
</g>
<path style=" stroke:none;fill-rule:nonzero;fill:rgb(0%,67.843139%,93.725491%);fill-opacity:1;" d="M 431.328125 238.511719 C 431.328125 206.535156 418.351562 180.617188 402.347656 180.617188 C 386.34375 180.617188 373.367188 206.535156 373.367188 238.511719 C 373.367188 270.488281 386.34375 296.417969 402.347656 296.417969 C 418.351562 296.417969 431.328125 270.488281 431.328125 238.511719 Z M 431.328125 238.511719 "/>
<g clip-path="url(#clip8)" clip-rule="nonzero">
<path style="fill:none;stroke-width:0.3985;stroke-linecap:butt;stroke-linejoin:miter;stroke:rgb(0%,0%,0%);stroke-opacity:1;stroke-miterlimit:10;" d="M 137.524352 -56.691982 C 137.524352 -45.688087 133.062988 -36.769097 127.560818 -36.769097 C 122.058649 -36.769097 117.597285 -45.688087 117.597285 -56.691982 C 117.597285 -67.695878 122.058649 -76.6189 127.560818 -76.6189 C 133.062988 -76.6189 137.524352 -67.695878 137.524352 -56.691982 Z M 137.524352 -56.691982 " transform="matrix(2.908654,0,0,-2.905931,31.317401,73.768725)"/>
</g>
<path style=" stroke:none;fill-rule:nonzero;fill:rgb(0%,0%,0%);fill-opacity:1;" d="M 337.550781 176.5 L 340.027344 176.5 C 340.621094 176.5 340.898438 176.5 340.898438 175.949219 C 340.898438 175.628906 340.621094 175.628906 340.117188 175.628906 L 337.734375 175.628906 L 338.332031 172.332031 C 338.46875 171.691406 338.835938 169.628906 339.019531 169.308594 C 339.292969 168.757812 339.796875 168.300781 340.394531 168.300781 C 340.484375 168.300781 341.265625 168.300781 341.816406 168.851562 C 340.53125 168.941406 340.257812 169.949219 340.257812 170.40625 C 340.257812 171.046875 340.761719 171.414062 341.3125 171.414062 C 342.089844 171.414062 342.914062 170.773438 342.914062 169.675781 C 342.914062 168.347656 341.585938 167.660156 340.394531 167.660156 C 339.386719 167.660156 337.597656 168.207031 336.726562 171.046875 C 336.542969 171.691406 336.449219 171.964844 335.761719 175.628906 L 333.746094 175.628906 C 333.195312 175.628906 332.875 175.628906 332.875 176.179688 C 332.875 176.5 333.148438 176.5 333.699219 176.5 L 335.625 176.5 L 333.421875 187.953125 C 332.917969 190.75 332.414062 193.40625 330.902344 193.40625 C 330.808594 193.40625 330.078125 193.40625 329.527344 192.855469 C 330.855469 192.765625 331.132812 191.757812 331.132812 191.296875 C 331.132812 190.65625 330.582031 190.289062 330.03125 190.289062 C 329.296875 190.289062 328.425781 190.929688 328.425781 192.03125 C 328.425781 193.3125 329.710938 194.046875 330.902344 194.046875 C 332.507812 194.046875 333.652344 192.304688 334.203125 191.207031 C 335.121094 189.375 335.761719 185.890625 335.808594 185.707031 Z M 337.550781 176.5 "/>
<path style=" stroke:none;fill-rule:nonzero;fill:rgb(0%,0%,0%);fill-opacity:1;" d="M 351.828125 189.132812 L 351.828125 188.402344 L 349.582031 188.402344 L 349.582031 179.328125 C 349.582031 178.917969 349.582031 178.78125 349.121094 178.78125 C 348.894531 178.78125 348.800781 178.78125 348.617188 179.054688 L 341.878906 188.402344 L 341.878906 189.132812 L 347.839844 189.132812 L 347.839844 190.78125 C 347.839844 191.46875 347.839844 191.699219 346.1875 191.699219 L 345.636719 191.699219 L 345.636719 192.433594 C 346.691406 192.386719 347.976562 192.339844 348.710938 192.339844 C 349.445312 192.339844 350.726562 192.386719 351.734375 192.433594 L 351.734375 191.699219 L 351.230469 191.699219 C 349.582031 191.699219 349.582031 191.46875 349.582031 190.78125 L 349.582031 189.132812 Z M 347.976562 180.980469 L 347.976562 188.402344 L 342.65625 188.402344 Z M 347.976562 180.980469 "/>
<path style=" stroke:none;fill-rule:nonzero;fill:rgb(0%,0%,0%);fill-opacity:1;" d="M 279.953125 204.621094 C 279.953125 203.890625 279.953125 203.84375 279.265625 203.84375 C 277.476562 205.722656 274.910156 205.722656 273.992188 205.722656 L 273.992188 206.59375 C 274.585938 206.59375 276.285156 206.59375 277.796875 205.859375 L 277.796875 220.839844 C 277.796875 221.894531 277.707031 222.214844 275.09375 222.214844 L 274.175781 222.214844 L 274.175781 223.128906 C 275.183594 223.039062 277.707031 223.039062 278.851562 223.039062 C 280.042969 223.039062 282.566406 223.039062 283.574219 223.128906 L 283.574219 222.214844 L 282.660156 222.214844 C 280.042969 222.214844 279.953125 221.894531 279.953125 220.839844 Z M 279.953125 204.621094 "/>
<path style=" stroke:none;fill-rule:nonzero;fill:rgb(0%,0%,0%);fill-opacity:1;" d="M 275.09375 270.308594 L 278.164062 267.332031 C 282.703125 263.347656 284.445312 261.789062 284.445312 258.902344 C 284.445312 255.605469 281.832031 253.269531 278.300781 253.269531 C 275 253.269531 272.890625 255.925781 272.890625 258.492188 C 272.890625 260.140625 274.3125 260.140625 274.40625 260.140625 C 274.910156 260.140625 275.917969 259.773438 275.917969 258.582031 C 275.917969 257.847656 275.414062 257.117188 274.359375 257.117188 C 274.128906 257.117188 274.082031 257.117188 273.992188 257.117188 C 274.679688 255.238281 276.238281 254.183594 277.933594 254.183594 C 280.550781 254.183594 281.789062 256.519531 281.789062 258.902344 C 281.789062 261.191406 280.367188 263.484375 278.761719 265.269531 L 273.210938 271.5 C 272.890625 271.820312 272.890625 271.867188 272.890625 272.554688 L 283.621094 272.554688 L 284.445312 267.515625 L 283.714844 267.515625 C 283.574219 268.386719 283.347656 269.667969 283.070312 270.082031 C 282.886719 270.308594 280.960938 270.308594 280.320312 270.308594 Z M 275.09375 270.308594 "/>
<path style=" stroke:none;fill-rule:nonzero;fill:rgb(0%,0%,0%);fill-opacity:1;" d="M 405.503906 209.082031 C 404.957031 208.03125 404.128906 207.25 402.847656 207.25 C 399.453125 207.25 395.832031 211.511719 395.832031 215.726562 C 395.832031 218.429688 397.433594 220.355469 399.683594 220.355469 C 400.277344 220.355469 401.746094 220.214844 403.441406 218.199219 C 403.71875 219.390625 404.726562 220.355469 406.101562 220.355469 C 407.109375 220.355469 407.796875 219.667969 408.257812 218.75 C 408.761719 217.695312 409.128906 215.957031 409.128906 215.910156 C 409.128906 215.589844 408.851562 215.589844 408.761719 215.589844 C 408.488281 215.589844 408.441406 215.726562 408.347656 216.140625 C 407.890625 218.015625 407.339844 219.710938 406.148438 219.710938 C 405.367188 219.710938 405.277344 218.980469 405.277344 218.382812 C 405.277344 217.742188 405.367188 217.511719 405.6875 216.230469 C 405.964844 215.039062 406.054688 214.71875 406.285156 213.621094 L 407.339844 209.585938 C 407.570312 208.761719 407.570312 208.71875 407.570312 208.578125 C 407.570312 208.121094 407.203125 207.800781 406.699219 207.800781 C 406.011719 207.800781 405.597656 208.441406 405.503906 209.082031 Z M 403.625 216.597656 C 403.441406 217.101562 403.441406 217.148438 403.03125 217.652344 C 401.746094 219.253906 400.554688 219.710938 399.773438 219.710938 C 398.304688 219.710938 397.894531 218.109375 397.894531 217.007812 C 397.894531 215.542969 398.8125 211.96875 399.5 210.640625 C 400.414062 208.945312 401.699219 207.894531 402.847656 207.894531 C 404.726562 207.894531 405.140625 210.230469 405.140625 210.414062 C 405.140625 210.59375 405.09375 210.777344 405.046875 210.917969 Z M 403.625 216.597656 "/>
<path style=" stroke:none;fill-rule:nonzero;fill:rgb(0%,0%,0%);fill-opacity:1;" d="M 403.046875 253.488281 C 403.046875 253.488281 403.046875 253.167969 402.679688 253.167969 C 401.992188 253.167969 399.882812 253.394531 399.148438 253.488281 C 398.921875 253.488281 398.601562 253.53125 398.601562 254.035156 C 398.601562 254.402344 398.828125 254.402344 399.289062 254.402344 C 400.664062 254.402344 400.710938 254.585938 400.710938 254.90625 C 400.710938 255.089844 400.480469 256.097656 400.34375 256.695312 L 397.957031 266.132812 C 397.589844 267.550781 397.5 268.054688 397.5 269.0625 C 397.5 271.8125 399.011719 273.597656 401.167969 273.597656 C 404.605469 273.597656 408.136719 269.292969 408.136719 265.125 C 408.136719 262.464844 406.625 260.496094 404.285156 260.496094 C 402.957031 260.496094 401.765625 261.320312 400.894531 262.238281 Z M 400.34375 264.4375 C 400.480469 263.796875 400.480469 263.75 400.753906 263.429688 C 402.175781 261.550781 403.507812 261.136719 404.238281 261.136719 C 405.292969 261.136719 406.074219 262.007812 406.074219 263.839844 C 406.074219 265.535156 405.109375 268.878906 404.605469 269.980469 C 403.644531 271.902344 402.3125 272.957031 401.167969 272.957031 C 400.160156 272.957031 399.242188 272.179688 399.242188 270.027344 C 399.242188 269.476562 399.242188 268.925781 399.699219 267.09375 Z M 400.34375 264.4375 "/>
<path style="fill:none;stroke-width:0.3985;stroke-linecap:butt;stroke-linejoin:miter;stroke:rgb(0%,0%,0%);stroke-opacity:1;stroke-miterlimit:10;" d="M 88.5259 -49.582331 L 124.056996 -63.794912 " transform="matrix(2.908654,0,0,-2.905931,31.317401,73.768725)"/>
<path style="fill:none;stroke-width:0.3985;stroke-linecap:round;stroke-linejoin:round;stroke:rgb(0%,0%,0%);stroke-opacity:1;stroke-miterlimit:10;" d="M -2.071807 2.389973 C -1.693933 0.957268 -0.850678 0.28116 0.000166145 0.00188317 C -0.850727 -0.27915 -1.69225 -0.956022 -2.073337 -2.389756 " transform="matrix(2.700627,1.07935,1.080362,-2.698099,392.692829,259.372089)"/>
<path style="fill:none;stroke-width:0.3985;stroke-linecap:butt;stroke-linejoin:miter;stroke:rgb(0%,0%,0%);stroke-opacity:1;stroke-miterlimit:10;" d="M 88.5259 -65.198292 L 124.028794 -65.198292 " transform="matrix(2.908654,0,0,-2.905931,31.317401,73.768725)"/>
<path style="fill:none;stroke-width:0.3985;stroke-linecap:round;stroke-linejoin:round;stroke:rgb(0%,0%,0%);stroke-opacity:1;stroke-miterlimit:10;" d="M -2.073232 2.39217 C -1.695856 0.957873 -0.848438 0.280379 -0.00102095 -0.000565885 C -0.848438 -0.280166 -1.695856 -0.95766 -2.073232 -2.391957 " transform="matrix(2.908654,0,0,-2.905931,392.651407,263.228824)"/>
</g>
</svg>
