<?xml version="1.0" encoding="UTF-8"?>
<svg xmlns="http://www.w3.org/2000/svg" xmlns:xlink="http://www.w3.org/1999/xlink" width="434pt" height="300pt" viewBox="0 0 434 300" version="1.1">
<defs>
<clipPath id="clip1">
  <path d="M 2 15 L 61 15 L 61 131.835938 L 2 131.835938 Z M 2 15 "/>
</clipPath>
<clipPath id="clip2">
  <path d="M 1.753906 0 L 77 0 L 77 148 L 1.753906 148 Z M 1.753906 0 "/>
</clipPath>
<clipPath id="clip3">
  <path d="M 356 0 L 431.558594 0 L 431.558594 148 L 356 148 Z M 356 0 "/>
</clipPath>
<clipPath id="clip4">
  <path d="M 2 180 L 61 180 L 61 295.898438 L 2 295.898438 Z M 2 180 "/>
</clipPath>
<clipPath id="clip5">
  <path d="M 1.753906 163 L 77 163 L 77 296.414062 L 1.753906 296.414062 Z M 1.753906 163 "/>
</clipPath>
<clipPath id="clip6">
  <path d="M 109 163 L 201 163 L 201 296.414062 L 109 296.414062 Z M 109 163 "/>
</clipPath>
<clipPath id="clip7">
  <path d="M 233 163 L 324 163 L 324 296.414062 L 233 296.414062 Z M 233 163 "/>
</clipPath>
<clipPath id="clip8">
  <path d="M 356 163 L 431.558594 163 L 431.558594 296.414062 L 356 296.414062 Z M 356 163 "/>
</clipPath>
</defs>
<g id="surface1">
<g clip-path="url(#clip1)" clip-rule="nonzero">
<path style=" stroke:none;fill-rule:nonzero;fill:rgb(55.294118%,52.54902%,0%);fill-opacity:1;" d="M 60.253906 73.367188 C 60.253906 41.417969 47.285156 15.507812 31.292969 15.507812 C 15.304688 15.507812 2.335938 41.417969 2.335938 73.367188 C 2.335938 105.320312 15.304688 131.21875 31.292969 131.21875 C 47.285156 131.21875 60.253906 105.320312 60.253906 73.367188 Z M 60.253906 73.367188 "/>
</g>
<g clip-path="url(#clip2)" clip-rule="nonzero">
<path style="fill:none;stroke-width:0.3985;stroke-linecap:butt;stroke-linejoin:miter;stroke:rgb(0%,0%,0%);stroke-opacity:1;stroke-miterlimit:10;" d="M 9.964808 -0.000375002 C 9.964808 11.00281 5.502603 19.926165 0.000111961 19.926165 C -5.501035 19.926165 -9.96324 11.00281 -9.96324 -0.000375002 C -9.96324 -11.004905 -5.501035 -19.924224 0.000111961 -19.924224 C 5.502603 -19.924224 9.964808 -11.004905 9.964808 -0.000375002 Z M 9.964808 -0.000375002 " transform="matrix(2.906354,0,0,-2.903634,31.292643,73.366099)"/>
</g>
<path style="fill-rule:nonzero;fill:rgb(0%,67.843137%,93.72549%);fill-opacity:1;stroke-width:0.3985;stroke-linecap:butt;stroke-linejoin:miter;stroke:rgb(0%,0%,0%);stroke-opacity:1;stroke-miterlimit:10;" d="M 52.483443 -0.000375002 C 52.483443 11.00281 48.021238 19.926165 42.518747 19.926165 C 37.017601 19.926165 32.555395 11.00281 32.555395 -0.000375002 C 32.555395 -11.004905 37.017601 -19.924224 42.518747 -19.924224 C 48.021238 -19.924224 52.483443 -11.004905 52.483443 -0.000375002 Z M 52.483443 -0.000375002 " transform="matrix(2.906354,0,0,-2.903634,31.292643,73.366099)"/>
<path style=" stroke:none;fill-rule:nonzero;fill:rgb(0%,0%,0%);fill-opacity:1;" d="M 90.128906 11.402344 L 92.601562 11.402344 C 93.199219 11.402344 93.472656 11.402344 93.472656 10.851562 C 93.472656 10.53125 93.199219 10.53125 92.695312 10.53125 L 90.3125 10.53125 L 90.90625 7.234375 C 91.042969 6.59375 91.410156 4.535156 91.59375 4.214844 C 91.867188 3.664062 92.371094 3.207031 92.96875 3.207031 C 93.058594 3.207031 93.839844 3.207031 94.390625 3.757812 C 93.105469 3.847656 92.832031 4.855469 92.832031 5.3125 C 92.832031 5.953125 93.335938 6.320312 93.882812 6.320312 C 94.664062 6.320312 95.488281 5.679688 95.488281 4.582031 C 95.488281 3.253906 94.160156 2.566406 92.96875 2.566406 C 91.960938 2.566406 90.171875 3.117188 89.304688 5.953125 C 89.121094 6.59375 89.027344 6.867188 88.339844 10.53125 L 86.324219 10.53125 C 85.773438 10.53125 85.453125 10.53125 85.453125 11.082031 C 85.453125 11.402344 85.730469 11.402344 86.277344 11.402344 L 88.203125 11.402344 L 86.003906 22.84375 C 85.5 25.636719 84.996094 28.292969 83.484375 28.292969 C 83.390625 28.292969 82.660156 28.292969 82.109375 27.742188 C 83.4375 27.652344 83.710938 26.644531 83.710938 26.1875 C 83.710938 25.546875 83.164062 25.179688 82.613281 25.179688 C 81.878906 25.179688 81.007812 25.820312 81.007812 26.917969 C 81.007812 28.199219 82.292969 28.933594 83.484375 28.933594 C 85.085938 28.933594 86.234375 27.195312 86.78125 26.09375 C 87.699219 24.265625 88.339844 20.785156 88.386719 20.601562 Z M 90.128906 11.402344 "/>
<path style=" stroke:none;fill-rule:nonzero;fill:rgb(0%,0%,0%);fill-opacity:1;" d="M 100.457031 14.457031 C 100.457031 13.90625 100.410156 13.90625 99.859375 13.90625 C 98.578125 15.144531 96.699219 15.191406 95.875 15.191406 L 95.875 15.921875 C 96.378906 15.921875 97.707031 15.921875 98.804688 15.328125 L 98.804688 25.671875 C 98.804688 26.3125 98.804688 26.585938 96.789062 26.585938 L 96.011719 26.585938 L 96.011719 27.320312 C 96.378906 27.320312 98.898438 27.230469 99.632812 27.230469 C 100.273438 27.230469 102.792969 27.320312 103.25 27.320312 L 103.25 26.585938 L 102.472656 26.585938 C 100.457031 26.585938 100.457031 26.3125 100.457031 25.671875 Z M 100.457031 14.457031 "/>
<path style=" stroke:none;fill-rule:nonzero;fill:rgb(0%,0%,0%);fill-opacity:1;" d="M 32.574219 39.5 C 32.574219 38.769531 32.574219 38.722656 31.886719 38.722656 C 30.101562 40.597656 27.535156 40.597656 26.617188 40.597656 L 26.617188 41.46875 C 27.214844 41.46875 28.910156 41.46875 30.421875 40.738281 L 30.421875 55.707031 C 30.421875 56.757812 30.332031 57.078125 27.71875 57.078125 L 26.800781 57.078125 L 26.800781 57.996094 C 27.808594 57.902344 30.332031 57.902344 31.476562 57.902344 C 32.667969 57.902344 35.1875 57.902344 36.195312 57.996094 L 36.195312 57.078125 L 35.277344 57.078125 C 32.667969 57.078125 32.574219 56.757812 32.574219 55.707031 Z M 32.574219 39.5 "/>
<path style=" stroke:none;fill-rule:nonzero;fill:rgb(0%,0%,0%);fill-opacity:1;" d="M 27.71875 105.136719 L 30.789062 102.160156 C 35.324219 98.179688 37.066406 96.621094 37.066406 93.738281 C 37.066406 90.441406 34.453125 88.105469 30.925781 88.105469 C 27.625 88.105469 25.519531 90.761719 25.519531 93.324219 C 25.519531 94.972656 26.941406 94.972656 27.03125 94.972656 C 27.535156 94.972656 28.542969 94.609375 28.542969 93.417969 C 28.542969 92.683594 28.039062 91.953125 26.984375 91.953125 C 26.757812 91.953125 26.710938 91.953125 26.617188 91.953125 C 27.304688 90.074219 28.863281 89.023438 30.558594 89.023438 C 33.171875 89.023438 34.40625 91.359375 34.40625 93.738281 C 34.40625 96.027344 32.988281 98.316406 31.382812 100.101562 L 25.839844 106.328125 C 25.519531 106.648438 25.519531 106.691406 25.519531 107.378906 L 36.242188 107.378906 L 37.066406 102.34375 L 36.332031 102.34375 C 36.195312 103.214844 35.964844 104.496094 35.691406 104.90625 C 35.507812 105.136719 33.582031 105.136719 32.941406 105.136719 Z M 27.71875 105.136719 "/>
<path style=" stroke:none;fill-rule:nonzero;fill:rgb(0%,0%,0%);fill-opacity:1;" d="M 158.027344 43.957031 C 157.480469 42.90625 156.652344 42.128906 155.371094 42.128906 C 151.980469 42.128906 148.359375 46.382812 148.359375 50.597656 C 148.359375 53.296875 149.964844 55.21875 152.210938 55.21875 C 152.804688 55.21875 154.273438 55.082031 155.96875 53.066406 C 156.242188 54.257812 157.25 55.21875 158.625 55.21875 C 159.632812 55.21875 160.320312 54.53125 160.777344 53.617188 C 161.28125 52.5625 161.648438 50.824219 161.648438 50.777344 C 161.648438 50.457031 161.375 50.457031 161.28125 50.457031 C 161.007812 50.457031 160.960938 50.597656 160.871094 51.007812 C 160.410156 52.886719 159.863281 54.578125 158.671875 54.578125 C 157.890625 54.578125 157.800781 53.847656 157.800781 53.25 C 157.800781 52.609375 157.890625 52.382812 158.210938 51.097656 C 158.488281 49.910156 158.578125 49.589844 158.808594 48.492188 L 159.863281 44.460938 C 160.089844 43.636719 160.089844 43.59375 160.089844 43.453125 C 160.089844 42.996094 159.722656 42.675781 159.21875 42.675781 C 158.53125 42.675781 158.121094 43.316406 158.027344 43.957031 Z M 156.148438 51.464844 C 155.96875 51.96875 155.96875 52.015625 155.554688 52.519531 C 154.273438 54.121094 153.082031 54.578125 152.300781 54.578125 C 150.835938 54.578125 150.421875 52.976562 150.421875 51.878906 C 150.421875 50.414062 151.339844 46.84375 152.027344 45.515625 C 152.941406 43.820312 154.226562 42.769531 155.371094 42.769531 C 157.25 42.769531 157.664062 45.101562 157.664062 45.285156 C 157.664062 45.46875 157.617188 45.652344 157.570312 45.789062 Z M 156.148438 51.464844 "/>
<path style=" stroke:none;fill-rule:nonzero;fill:rgb(0%,0%,0%);fill-opacity:1;" d="M 155.574219 88.328125 C 155.574219 88.328125 155.574219 88.007812 155.210938 88.007812 C 154.523438 88.007812 152.414062 88.234375 151.679688 88.328125 C 151.453125 88.328125 151.132812 88.371094 151.132812 88.875 C 151.132812 89.242188 151.359375 89.242188 151.820312 89.242188 C 153.191406 89.242188 153.238281 89.425781 153.238281 89.746094 C 153.238281 89.929688 153.011719 90.9375 152.871094 91.53125 L 150.488281 100.960938 C 150.125 102.378906 150.03125 102.882812 150.03125 103.890625 C 150.03125 106.636719 151.542969 108.421875 153.695312 108.421875 C 157.132812 108.421875 160.660156 104.121094 160.660156 99.953125 C 160.660156 97.300781 159.148438 95.332031 156.8125 95.332031 C 155.484375 95.332031 154.292969 96.15625 153.421875 97.070312 Z M 152.871094 99.265625 C 153.011719 98.625 153.011719 98.582031 153.285156 98.261719 C 154.707031 96.382812 156.035156 95.972656 156.765625 95.972656 C 157.820312 95.972656 158.601562 96.839844 158.601562 98.671875 C 158.601562 100.367188 157.636719 103.707031 157.132812 104.804688 C 156.171875 106.730469 154.84375 107.78125 153.695312 107.78125 C 152.6875 107.78125 151.773438 107.003906 151.773438 104.851562 C 151.773438 104.304688 151.773438 103.753906 152.230469 101.921875 Z M 152.871094 99.265625 "/>
<path style="fill:none;stroke-width:0.3985;stroke-linecap:butt;stroke-linejoin:miter;stroke:rgb(0%,0%,0%);stroke-opacity:1;stroke-miterlimit:10;" d="M 3.489234 8.504593 L 38.49201 8.504593 " transform="matrix(2.906354,0,0,-2.903634,31.292643,73.366099)"/>
<path style="fill:none;stroke-width:0.3985;stroke-linecap:round;stroke-linejoin:round;stroke:rgb(0%,0%,0%);stroke-opacity:1;stroke-miterlimit:10;" d="M -2.071787 2.392413 C -1.694112 0.958326 -0.850056 0.280297 0.000719642 0.00047489 C -0.850056 -0.279347 -1.694112 -0.957377 -2.071787 -2.391463 " transform="matrix(2.906354,0,0,-2.903634,143.744002,48.673254)"/>
<path style="fill:none;stroke-width:0.3985;stroke-linecap:butt;stroke-linejoin:miter;stroke:rgb(0%,0%,0%);stroke-opacity:1;stroke-miterlimit:10;" d="M 3.489234 -8.505343 L 38.98796 -8.505343 " transform="matrix(2.906354,0,0,-2.903634,31.292643,73.366099)"/>
<path style="fill:none;stroke-width:0.3985;stroke-linecap:round;stroke-linejoin:round;stroke:rgb(0%,0%,0%);stroke-opacity:1;stroke-miterlimit:10;" d="M -2.071107 2.390714 C -1.692088 0.955282 -0.849377 0.278598 -0.00128893 -0.00122388 C -0.849377 -0.278355 -1.692088 -0.955039 -2.071107 -2.390471 " transform="matrix(2.906354,0,0,-2.903634,145.183434,98.058946)"/>
<path style="fill-rule:nonzero;fill:rgb(55.294118%,52.54902%,0%);fill-opacity:1;stroke-width:0.3985;stroke-linecap:butt;stroke-linejoin:miter;stroke:rgb(0%,0%,0%);stroke-opacity:1;stroke-miterlimit:10;" d="M 95.002079 -0.000375002 C 95.002079 11.00281 90.543905 19.926165 85.042759 19.926165 C 79.536236 19.926165 75.078062 11.00281 75.078062 -0.000375002 C 75.078062 -11.004905 79.536236 -19.924224 85.042759 -19.924224 C 90.543905 -19.924224 95.002079 -11.004905 95.002079 -0.000375002 Z M 95.002079 -0.000375002 " transform="matrix(2.906354,0,0,-2.903634,31.292643,73.366099)"/>
<path style=" stroke:none;fill-rule:nonzero;fill:rgb(0%,67.843137%,93.72549%);fill-opacity:1;" d="M 430.988281 73.367188 C 430.988281 41.417969 418.019531 15.507812 402.03125 15.507812 C 386.039062 15.507812 373.070312 41.417969 373.070312 73.367188 C 373.070312 105.320312 386.039062 131.21875 402.03125 131.21875 C 418.019531 131.21875 430.988281 105.320312 430.988281 73.367188 Z M 430.988281 73.367188 "/>
<g clip-path="url(#clip3)" clip-rule="nonzero">
<path style="fill:none;stroke-width:0.3985;stroke-linecap:butt;stroke-linejoin:miter;stroke:rgb(0%,0%,0%);stroke-opacity:1;stroke-miterlimit:10;" d="M 137.524746 -0.000375002 C 137.524746 11.00281 133.06254 19.926165 127.561394 19.926165 C 122.058903 19.926165 117.596698 11.00281 117.596698 -0.000375002 C 117.596698 -11.004905 122.058903 -19.924224 127.561394 -19.924224 C 133.06254 -19.924224 137.524746 -11.004905 137.524746 -0.000375002 Z M 137.524746 -0.000375002 " transform="matrix(2.906354,0,0,-2.903634,31.292643,73.366099)"/>
</g>
<path style=" stroke:none;fill-rule:nonzero;fill:rgb(0%,0%,0%);fill-opacity:1;" d="M 337.285156 11.402344 L 339.757812 11.402344 C 340.355469 11.402344 340.628906 11.402344 340.628906 10.851562 C 340.628906 10.53125 340.355469 10.53125 339.851562 10.53125 L 337.46875 10.53125 L 338.0625 7.234375 C 338.199219 6.59375 338.566406 4.535156 338.75 4.214844 C 339.023438 3.664062 339.527344 3.207031 340.125 3.207031 C 340.214844 3.207031 340.996094 3.207031 341.546875 3.757812 C 340.261719 3.847656 339.988281 4.855469 339.988281 5.3125 C 339.988281 5.953125 340.492188 6.320312 341.039062 6.320312 C 341.820312 6.320312 342.644531 5.679688 342.644531 4.582031 C 342.644531 3.253906 341.316406 2.566406 340.125 2.566406 C 339.117188 2.566406 337.328125 3.117188 336.460938 5.953125 C 336.277344 6.59375 336.183594 6.867188 335.496094 10.53125 L 333.480469 10.53125 C 332.929688 10.53125 332.609375 10.53125 332.609375 11.082031 C 332.609375 11.402344 332.886719 11.402344 333.433594 11.402344 L 335.359375 11.402344 L 333.160156 22.84375 C 332.65625 25.636719 332.152344 28.292969 330.640625 28.292969 C 330.546875 28.292969 329.816406 28.292969 329.265625 27.742188 C 330.59375 27.652344 330.867188 26.644531 330.867188 26.1875 C 330.867188 25.546875 330.320312 25.179688 329.769531 25.179688 C 329.035156 25.179688 328.164062 25.820312 328.164062 26.917969 C 328.164062 28.199219 329.449219 28.933594 330.640625 28.933594 C 332.242188 28.933594 333.390625 27.195312 333.9375 26.09375 C 334.855469 24.265625 335.496094 20.785156 335.542969 20.601562 Z M 337.285156 11.402344 "/>
<path style=" stroke:none;fill-rule:nonzero;fill:rgb(0%,0%,0%);fill-opacity:1;" d="M 351.046875 23.65625 L 350.359375 23.65625 C 350.3125 24.070312 350.082031 25.261719 349.855469 25.488281 C 349.671875 25.582031 348.113281 25.582031 347.839844 25.582031 L 344.128906 25.582031 C 346.234375 23.703125 346.921875 23.15625 348.160156 22.191406 C 349.671875 21.003906 351.046875 19.765625 351.046875 17.84375 C 351.046875 15.371094 348.890625 13.90625 346.328125 13.90625 C 343.804688 13.90625 342.109375 15.648438 342.109375 17.523438 C 342.109375 18.53125 342.980469 18.621094 343.164062 18.621094 C 343.667969 18.621094 344.265625 18.300781 344.265625 17.570312 C 344.265625 17.203125 344.128906 16.515625 343.074219 16.515625 C 343.667969 15.050781 345.042969 14.59375 346.003906 14.59375 C 348.023438 14.59375 349.074219 16.195312 349.074219 17.84375 C 349.074219 19.585938 347.839844 21.003906 347.195312 21.734375 L 342.292969 26.542969 C 342.109375 26.726562 342.109375 26.769531 342.109375 27.320312 L 350.449219 27.320312 Z M 351.046875 23.65625 "/>
<path style=" stroke:none;fill-rule:nonzero;fill:rgb(0%,0%,0%);fill-opacity:1;" d="M 279.730469 39.5 C 279.730469 38.769531 279.730469 38.722656 279.042969 38.722656 C 277.257812 40.597656 274.691406 40.597656 273.773438 40.597656 L 273.773438 41.46875 C 274.371094 41.46875 276.066406 41.46875 277.578125 40.738281 L 277.578125 55.707031 C 277.578125 56.757812 277.488281 57.078125 274.875 57.078125 L 273.957031 57.078125 L 273.957031 57.996094 C 274.964844 57.902344 277.488281 57.902344 278.632812 57.902344 C 279.824219 57.902344 282.34375 57.902344 283.351562 57.996094 L 283.351562 57.078125 L 282.433594 57.078125 C 279.824219 57.078125 279.730469 56.757812 279.730469 55.707031 Z M 279.730469 39.5 "/>
<path style=" stroke:none;fill-rule:nonzero;fill:rgb(0%,0%,0%);fill-opacity:1;" d="M 274.875 105.136719 L 277.945312 102.160156 C 282.480469 98.179688 284.222656 96.621094 284.222656 93.738281 C 284.222656 90.441406 281.609375 88.105469 278.082031 88.105469 C 274.78125 88.105469 272.675781 90.761719 272.675781 93.324219 C 272.675781 94.972656 274.097656 94.972656 274.1875 94.972656 C 274.691406 94.972656 275.699219 94.609375 275.699219 93.417969 C 275.699219 92.683594 275.195312 91.953125 274.140625 91.953125 C 273.914062 91.953125 273.867188 91.953125 273.773438 91.953125 C 274.460938 90.074219 276.019531 89.023438 277.714844 89.023438 C 280.328125 89.023438 281.5625 91.359375 281.5625 93.738281 C 281.5625 96.027344 280.144531 98.316406 278.539062 100.101562 L 272.996094 106.328125 C 272.675781 106.648438 272.675781 106.691406 272.675781 107.378906 L 283.398438 107.378906 L 284.222656 102.34375 L 283.488281 102.34375 C 283.351562 103.214844 283.121094 104.496094 282.847656 104.90625 C 282.664062 105.136719 280.738281 105.136719 280.097656 105.136719 Z M 274.875 105.136719 "/>
<path style=" stroke:none;fill-rule:nonzero;fill:rgb(0%,0%,0%);fill-opacity:1;" d="M 405.183594 43.957031 C 404.636719 42.90625 403.8125 42.128906 402.527344 42.128906 C 399.136719 42.128906 395.515625 46.382812 395.515625 50.597656 C 395.515625 53.296875 397.121094 55.21875 399.367188 55.21875 C 399.960938 55.21875 401.429688 55.082031 403.125 53.066406 C 403.398438 54.257812 404.40625 55.21875 405.78125 55.21875 C 406.789062 55.21875 407.476562 54.53125 407.933594 53.617188 C 408.4375 52.5625 408.804688 50.824219 408.804688 50.777344 C 408.804688 50.457031 408.53125 50.457031 408.4375 50.457031 C 408.164062 50.457031 408.117188 50.597656 408.027344 51.007812 C 407.566406 52.886719 407.019531 54.578125 405.828125 54.578125 C 405.046875 54.578125 404.957031 53.847656 404.957031 53.25 C 404.957031 52.609375 405.046875 52.382812 405.367188 51.097656 C 405.644531 49.910156 405.734375 49.589844 405.964844 48.492188 L 407.019531 44.460938 C 407.246094 43.636719 407.246094 43.59375 407.246094 43.453125 C 407.246094 42.996094 406.878906 42.675781 406.375 42.675781 C 405.6875 42.675781 405.277344 43.316406 405.183594 43.957031 Z M 403.304688 51.464844 C 403.125 51.96875 403.125 52.015625 402.710938 52.519531 C 401.429688 54.121094 400.238281 54.578125 399.457031 54.578125 C 397.992188 54.578125 397.578125 52.976562 397.578125 51.878906 C 397.578125 50.414062 398.496094 46.84375 399.183594 45.515625 C 400.097656 43.820312 401.382812 42.769531 402.527344 42.769531 C 404.40625 42.769531 404.820312 45.101562 404.820312 45.285156 C 404.820312 45.46875 404.773438 45.652344 404.726562 45.789062 Z M 403.304688 51.464844 "/>
<path style=" stroke:none;fill-rule:nonzero;fill:rgb(0%,0%,0%);fill-opacity:1;" d="M 402.730469 88.328125 C 402.730469 88.328125 402.730469 88.007812 402.363281 88.007812 C 401.675781 88.007812 399.566406 88.234375 398.835938 88.328125 C 398.605469 88.328125 398.285156 88.371094 398.285156 88.875 C 398.285156 89.242188 398.515625 89.242188 398.972656 89.242188 C 400.347656 89.242188 400.390625 89.425781 400.390625 89.746094 C 400.390625 89.929688 400.164062 90.9375 400.027344 91.53125 L 397.644531 100.960938 C 397.277344 102.378906 397.183594 102.882812 397.183594 103.890625 C 397.183594 106.636719 398.695312 108.421875 400.851562 108.421875 C 404.285156 108.421875 407.816406 104.121094 407.816406 99.953125 C 407.816406 97.300781 406.304688 95.332031 403.964844 95.332031 C 402.636719 95.332031 401.445312 96.15625 400.574219 97.070312 Z M 400.027344 99.265625 C 400.164062 98.625 400.164062 98.582031 400.4375 98.261719 C 401.859375 96.382812 403.1875 95.972656 403.921875 95.972656 C 404.972656 95.972656 405.753906 96.839844 405.753906 98.671875 C 405.753906 100.367188 404.789062 103.707031 404.285156 104.804688 C 403.324219 106.730469 401.996094 107.78125 400.851562 107.78125 C 399.84375 107.78125 398.925781 107.003906 398.925781 104.851562 C 398.925781 104.304688 398.925781 103.753906 399.382812 101.921875 Z M 400.027344 99.265625 "/>
<path style="fill:none;stroke-width:0.3985;stroke-linecap:butt;stroke-linejoin:miter;stroke:rgb(0%,0%,0%);stroke-opacity:1;stroke-miterlimit:10;" d="M 88.526504 7.10952 L 124.057487 -7.103543 " transform="matrix(2.906354,0,0,-2.903634,31.292643,73.366099)"/>
<path style="fill:none;stroke-width:0.3985;stroke-linecap:round;stroke-linejoin:round;stroke:rgb(0%,0%,0%);stroke-opacity:1;stroke-miterlimit:10;" d="M -2.072504 2.39122 C -1.693831 0.956132 -0.849909 0.279489 0.000360411 -0.000507837 C -0.851457 -0.277517 -1.692398 -0.954425 -2.072787 -2.391792 " transform="matrix(2.698492,1.078497,1.079508,-2.695966,392.382388,94.205273)"/>
<path style="fill:none;stroke-width:0.3985;stroke-linecap:butt;stroke-linejoin:miter;stroke:rgb(0%,0%,0%);stroke-opacity:1;stroke-miterlimit:10;" d="M 88.526504 -7.11027 L 123.560193 6.905035 " transform="matrix(2.906354,0,0,-2.903634,31.292643,73.366099)"/>
<path style="fill:none;stroke-width:0.3985;stroke-linecap:round;stroke-linejoin:round;stroke:rgb(0%,0%,0%);stroke-opacity:1;stroke-miterlimit:10;" d="M -2.071112 2.390629 C -1.692967 0.958507 -0.849782 0.276354 -0.000460029 0.000343412 C -0.85023 -0.278404 -1.694652 -0.956297 -2.073324 -2.391384 " transform="matrix(2.698492,-1.078497,-1.079508,-2.695966,390.943018,53.101992)"/>
<g clip-path="url(#clip4)" clip-rule="nonzero">
<path style=" stroke:none;fill-rule:nonzero;fill:rgb(55.294118%,52.54902%,0%);fill-opacity:1;" d="M 60.253906 237.980469 C 60.253906 206.027344 47.285156 180.128906 31.292969 180.128906 C 15.304688 180.128906 2.335938 206.027344 2.335938 237.980469 C 2.335938 269.933594 15.304688 295.839844 31.292969 295.839844 C 47.285156 295.839844 60.253906 269.933594 60.253906 237.980469 Z M 60.253906 237.980469 "/>
</g>
<g clip-path="url(#clip5)" clip-rule="nonzero">
<path style="fill:none;stroke-width:0.3985;stroke-linecap:butt;stroke-linejoin:miter;stroke:rgb(0%,0%,0%);stroke-opacity:1;stroke-miterlimit:10;" d="M 9.964808 -56.692538 C 9.964808 -45.688008 5.502603 -36.768689 0.000111961 -36.768689 C -5.501035 -36.768689 -9.96324 -45.688008 -9.96324 -56.692538 C -9.96324 -67.697068 -5.501035 -76.619078 0.000111961 -76.619078 C 5.502603 -76.619078 9.964808 -67.697068 9.964808 -56.692538 Z M 9.964808 -56.692538 " transform="matrix(2.906354,0,0,-2.903634,31.292643,73.366099)"/>
</g>
<path style=" stroke:none;fill-rule:nonzero;fill:rgb(0%,67.843137%,93.72549%);fill-opacity:1;" d="M 183.828125 237.980469 C 183.828125 206.027344 170.859375 180.128906 154.867188 180.128906 C 138.878906 180.128906 125.910156 206.027344 125.910156 237.980469 C 125.910156 269.933594 138.878906 295.839844 154.867188 295.839844 C 170.859375 295.839844 183.828125 269.933594 183.828125 237.980469 Z M 183.828125 237.980469 "/>
<g clip-path="url(#clip6)" clip-rule="nonzero">
<path style="fill:none;stroke-width:0.3985;stroke-linecap:butt;stroke-linejoin:miter;stroke:rgb(0%,0%,0%);stroke-opacity:1;stroke-miterlimit:10;" d="M 52.483443 -56.692538 C 52.483443 -45.688008 48.021238 -36.768689 42.518747 -36.768689 C 37.017601 -36.768689 32.555395 -45.688008 32.555395 -56.692538 C 32.555395 -67.697068 37.017601 -76.619078 42.518747 -76.619078 C 48.021238 -76.619078 52.483443 -67.697068 52.483443 -56.692538 Z M 52.483443 -56.692538 " transform="matrix(2.906354,0,0,-2.903634,31.292643,73.366099)"/>
</g>
<path style=" stroke:none;fill-rule:nonzero;fill:rgb(0%,0%,0%);fill-opacity:1;" d="M 90.128906 176.015625 L 92.601562 176.015625 C 93.199219 176.015625 93.472656 176.015625 93.472656 175.46875 C 93.472656 175.148438 93.199219 175.148438 92.695312 175.148438 L 90.3125 175.148438 L 90.90625 171.851562 C 91.042969 171.210938 91.410156 169.148438 91.59375 168.828125 C 91.867188 168.28125 92.371094 167.824219 92.96875 167.824219 C 93.058594 167.824219 93.839844 167.824219 94.390625 168.371094 C 93.105469 168.464844 92.832031 169.46875 92.832031 169.929688 C 92.832031 170.570312 93.335938 170.933594 93.882812 170.933594 C 94.664062 170.933594 95.488281 170.292969 95.488281 169.195312 C 95.488281 167.867188 94.160156 167.183594 92.96875 167.183594 C 91.960938 167.183594 90.171875 167.730469 89.304688 170.570312 C 89.121094 171.210938 89.027344 171.484375 88.339844 175.148438 L 86.324219 175.148438 C 85.773438 175.148438 85.453125 175.148438 85.453125 175.695312 C 85.453125 176.015625 85.730469 176.015625 86.277344 176.015625 L 88.203125 176.015625 L 86.003906 187.460938 C 85.5 190.253906 84.996094 192.90625 83.484375 192.90625 C 83.390625 192.90625 82.660156 192.90625 82.109375 192.359375 C 83.4375 192.265625 83.710938 191.261719 83.710938 190.800781 C 83.710938 190.160156 83.164062 189.796875 82.613281 189.796875 C 81.878906 189.796875 81.007812 190.4375 81.007812 191.535156 C 81.007812 192.816406 82.292969 193.550781 83.484375 193.550781 C 85.085938 193.550781 86.234375 191.808594 86.78125 190.710938 C 87.699219 188.878906 88.339844 185.402344 88.386719 185.21875 Z M 90.128906 176.015625 "/>
<path style=" stroke:none;fill-rule:nonzero;fill:rgb(0%,0%,0%);fill-opacity:1;" d="M 99.21875 185.160156 C 100.777344 185.160156 101.921875 186.257812 101.921875 188.457031 C 101.921875 190.929688 100.457031 191.707031 99.265625 191.707031 C 98.484375 191.707031 96.699219 191.476562 95.828125 190.289062 C 96.789062 190.242188 97.019531 189.554688 97.019531 189.144531 C 97.019531 188.503906 96.515625 188.046875 95.917969 188.046875 C 95.324219 188.046875 94.773438 188.367188 94.773438 189.1875 C 94.773438 191.113281 96.882812 192.347656 99.308594 192.347656 C 102.152344 192.347656 104.074219 190.472656 104.074219 188.457031 C 104.074219 186.855469 102.792969 185.296875 100.546875 184.792969 C 102.699219 184.0625 103.433594 182.507812 103.433594 181.316406 C 103.433594 179.714844 101.601562 178.523438 99.355469 178.523438 C 97.109375 178.523438 95.414062 179.578125 95.414062 181.222656 C 95.414062 181.910156 95.828125 182.277344 96.46875 182.277344 C 97.066406 182.277344 97.476562 181.820312 97.476562 181.269531 C 97.476562 180.675781 97.066406 180.261719 96.46875 180.21875 C 97.15625 179.300781 98.578125 179.074219 99.308594 179.074219 C 100.226562 179.074219 101.507812 179.53125 101.507812 181.316406 C 101.507812 182.140625 101.1875 183.054688 100.683594 183.695312 C 99.996094 184.472656 99.449219 184.519531 98.441406 184.566406 C 97.9375 184.613281 97.890625 184.613281 97.796875 184.613281 C 97.753906 184.613281 97.570312 184.65625 97.570312 184.886719 C 97.570312 185.160156 97.753906 185.160156 98.117188 185.160156 Z M 99.21875 185.160156 "/>
<path style=" stroke:none;fill-rule:nonzero;fill:rgb(0%,0%,0%);fill-opacity:1;" d="M 32.574219 204.117188 C 32.574219 203.382812 32.574219 203.339844 31.886719 203.339844 C 30.101562 205.214844 27.535156 205.214844 26.617188 205.214844 L 26.617188 206.085938 C 27.214844 206.085938 28.910156 206.085938 30.421875 205.351562 L 30.421875 220.320312 C 30.421875 221.375 30.332031 221.695312 27.71875 221.695312 L 26.800781 221.695312 L 26.800781 222.609375 C 27.808594 222.519531 30.332031 222.519531 31.476562 222.519531 C 32.667969 222.519531 35.1875 222.519531 36.195312 222.609375 L 36.195312 221.695312 L 35.277344 221.695312 C 32.667969 221.695312 32.574219 221.375 32.574219 220.320312 Z M 32.574219 204.117188 "/>
<path style=" stroke:none;fill-rule:nonzero;fill:rgb(0%,0%,0%);fill-opacity:1;" d="M 27.71875 269.75 L 30.789062 266.777344 C 35.324219 262.792969 37.066406 261.238281 37.066406 258.355469 C 37.066406 255.058594 34.453125 252.722656 30.925781 252.722656 C 27.625 252.722656 25.519531 255.378906 25.519531 257.941406 C 25.519531 259.589844 26.941406 259.589844 27.03125 259.589844 C 27.535156 259.589844 28.542969 259.222656 28.542969 258.03125 C 28.542969 257.300781 28.039062 256.566406 26.984375 256.566406 C 26.757812 256.566406 26.710938 256.566406 26.617188 256.566406 C 27.304688 254.691406 28.863281 253.636719 30.558594 253.636719 C 33.171875 253.636719 34.40625 255.972656 34.40625 258.355469 C 34.40625 260.640625 32.988281 262.929688 31.382812 264.714844 L 25.839844 270.941406 C 25.519531 271.261719 25.519531 271.308594 25.519531 271.996094 L 36.242188 271.996094 L 37.066406 266.960938 L 36.332031 266.960938 C 36.195312 267.828125 35.964844 269.109375 35.691406 269.523438 C 35.507812 269.75 33.582031 269.75 32.941406 269.75 Z M 27.71875 269.75 "/>
<path style=" stroke:none;fill-rule:nonzero;fill:rgb(0%,0%,0%);fill-opacity:1;" d="M 158.03125 208.574219 C 157.480469 207.519531 156.65625 206.742188 155.375 206.742188 C 151.984375 206.742188 148.363281 211 148.363281 215.210938 C 148.363281 217.914062 149.96875 219.835938 152.210938 219.835938 C 152.808594 219.835938 154.273438 219.699219 155.96875 217.683594 C 156.246094 218.875 157.253906 219.835938 158.628906 219.835938 C 159.636719 219.835938 160.324219 219.148438 160.78125 218.234375 C 161.285156 217.179688 161.652344 215.441406 161.652344 215.394531 C 161.652344 215.074219 161.375 215.074219 161.285156 215.074219 C 161.011719 215.074219 160.964844 215.210938 160.871094 215.625 C 160.414062 217.5 159.863281 219.195312 158.671875 219.195312 C 157.894531 219.195312 157.800781 218.460938 157.800781 217.867188 C 157.800781 217.226562 157.894531 216.996094 158.214844 215.714844 C 158.488281 214.523438 158.582031 214.203125 158.8125 213.105469 L 159.863281 209.078125 C 160.09375 208.253906 160.09375 208.207031 160.09375 208.070312 C 160.09375 207.613281 159.726562 207.292969 159.222656 207.292969 C 158.535156 207.292969 158.125 207.933594 158.03125 208.574219 Z M 156.152344 216.082031 C 155.96875 216.585938 155.96875 216.628906 155.558594 217.132812 C 154.273438 218.738281 153.082031 219.195312 152.304688 219.195312 C 150.839844 219.195312 150.425781 217.59375 150.425781 216.492188 C 150.425781 215.027344 151.34375 211.457031 152.03125 210.128906 C 152.945312 208.4375 154.230469 207.382812 155.375 207.382812 C 157.253906 207.382812 157.664062 209.71875 157.664062 209.902344 C 157.664062 210.085938 157.621094 210.269531 157.574219 210.40625 Z M 156.152344 216.082031 "/>
<path style=" stroke:none;fill-rule:nonzero;fill:rgb(0%,0%,0%);fill-opacity:1;" d="M 155.574219 252.941406 C 155.574219 252.941406 155.574219 252.621094 155.210938 252.621094 C 154.523438 252.621094 152.414062 252.851562 151.679688 252.941406 C 151.453125 252.941406 151.132812 252.988281 151.132812 253.492188 C 151.132812 253.859375 151.359375 253.859375 151.820312 253.859375 C 153.191406 253.859375 153.238281 254.042969 153.238281 254.363281 C 153.238281 254.542969 153.011719 255.550781 152.871094 256.148438 L 150.488281 265.578125 C 150.125 266.996094 150.03125 267.5 150.03125 268.507812 C 150.03125 271.253906 151.542969 273.039062 153.695312 273.039062 C 157.132812 273.039062 160.660156 268.734375 160.660156 264.570312 C 160.660156 261.914062 159.148438 259.945312 156.8125 259.945312 C 155.484375 259.945312 154.292969 260.769531 153.421875 261.6875 Z M 152.871094 263.882812 C 153.011719 263.242188 153.011719 263.195312 153.285156 262.875 C 154.707031 261 156.035156 260.585938 156.765625 260.585938 C 157.820312 260.585938 158.601562 261.457031 158.601562 263.289062 C 158.601562 264.980469 157.636719 268.324219 157.132812 269.421875 C 156.171875 271.34375 154.84375 272.398438 153.695312 272.398438 C 152.6875 272.398438 151.773438 271.621094 151.773438 269.46875 C 151.773438 268.917969 151.773438 268.371094 152.230469 266.539062 Z M 152.871094 263.882812 "/>
<path style="fill:none;stroke-width:0.3985;stroke-linecap:butt;stroke-linejoin:miter;stroke:rgb(0%,0%,0%);stroke-opacity:1;stroke-miterlimit:10;" d="M 3.489234 -48.191606 L 38.49201 -48.191606 " transform="matrix(2.906354,0,0,-2.903634,31.292643,73.366099)"/>
<path style="fill:none;stroke-width:0.3985;stroke-linecap:round;stroke-linejoin:round;stroke:rgb(0%,0%,0%);stroke-opacity:1;stroke-miterlimit:10;" d="M -2.071787 2.391148 C -1.694112 0.955716 -0.850056 0.277686 0.000719642 -0.00213532 C -0.850056 -0.277921 -1.694112 -0.955951 -2.071787 -2.390038 " transform="matrix(2.906354,0,0,-2.903634,143.744002,213.290675)"/>
<path style="fill:none;stroke-width:0.3985;stroke-linecap:butt;stroke-linejoin:miter;stroke:rgb(0%,0%,0%);stroke-opacity:1;stroke-miterlimit:10;" d="M 3.489234 -63.802433 L 38.518891 -49.787129 " transform="matrix(2.906354,0,0,-2.903634,31.292643,73.366099)"/>
<path style="fill:none;stroke-width:0.3985;stroke-linecap:round;stroke-linejoin:round;stroke:rgb(0%,0%,0%);stroke-opacity:1;stroke-miterlimit:10;" d="M -2.072399 2.389781 C -1.694754 0.95641 -0.84957 0.279253 -0.00174731 -0.000505059 C -0.850518 -0.276755 -1.692196 -0.958643 -2.069868 -2.391232 " transform="matrix(2.698492,-1.078497,-1.079508,-2.695966,143.78542,217.71941)"/>
<path style=" stroke:none;fill-rule:nonzero;fill:rgb(55.294118%,52.54902%,0%);fill-opacity:1;" d="M 307.402344 237.980469 C 307.402344 206.027344 294.445312 180.128906 278.453125 180.128906 C 262.453125 180.128906 249.496094 206.027344 249.496094 237.980469 C 249.496094 269.933594 262.453125 295.839844 278.453125 295.839844 C 294.445312 295.839844 307.402344 269.933594 307.402344 237.980469 Z M 307.402344 237.980469 "/>
<g clip-path="url(#clip7)" clip-rule="nonzero">
<path style="fill:none;stroke-width:0.3985;stroke-linecap:butt;stroke-linejoin:miter;stroke:rgb(0%,0%,0%);stroke-opacity:1;stroke-miterlimit:10;" d="M 95.002079 -56.692538 C 95.002079 -45.688008 90.543905 -36.768689 85.042759 -36.768689 C 79.536236 -36.768689 75.078062 -45.688008 75.078062 -56.692538 C 75.078062 -67.697068 79.536236 -76.619078 85.042759 -76.619078 C 90.543905 -76.619078 95.002079 -67.697068 95.002079 -56.692538 Z M 95.002079 -56.692538 " transform="matrix(2.906354,0,0,-2.903634,31.292643,73.366099)"/>
</g>
<path style=" stroke:none;fill-rule:nonzero;fill:rgb(0%,67.843137%,93.72549%);fill-opacity:1;" d="M 430.988281 237.980469 C 430.988281 206.027344 418.019531 180.128906 402.03125 180.128906 C 386.039062 180.128906 373.070312 206.027344 373.070312 237.980469 C 373.070312 269.933594 386.039062 295.839844 402.03125 295.839844 C 418.019531 295.839844 430.988281 269.933594 430.988281 237.980469 Z M 430.988281 237.980469 "/>
<g clip-path="url(#clip8)" clip-rule="nonzero">
<path style="fill:none;stroke-width:0.3985;stroke-linecap:butt;stroke-linejoin:miter;stroke:rgb(0%,0%,0%);stroke-opacity:1;stroke-miterlimit:10;" d="M 137.524746 -56.692538 C 137.524746 -45.688008 133.06254 -36.768689 127.561394 -36.768689 C 122.058903 -36.768689 117.596698 -45.688008 117.596698 -56.692538 C 117.596698 -67.697068 122.058903 -76.619078 127.561394 -76.619078 C 133.06254 -76.619078 137.524746 -67.697068 137.524746 -56.692538 Z M 137.524746 -56.692538 " transform="matrix(2.906354,0,0,-2.903634,31.292643,73.366099)"/>
</g>
<path style=" stroke:none;fill-rule:nonzero;fill:rgb(0%,0%,0%);fill-opacity:1;" d="M 337.285156 176.015625 L 339.757812 176.015625 C 340.355469 176.015625 340.628906 176.015625 340.628906 175.46875 C 340.628906 175.148438 340.355469 175.148438 339.851562 175.148438 L 337.46875 175.148438 L 338.0625 171.851562 C 338.199219 171.210938 338.566406 169.148438 338.75 168.828125 C 339.023438 168.28125 339.527344 167.824219 340.125 167.824219 C 340.214844 167.824219 340.996094 167.824219 341.546875 168.371094 C 340.261719 168.464844 339.988281 169.46875 339.988281 169.929688 C 339.988281 170.570312 340.492188 170.933594 341.039062 170.933594 C 341.820312 170.933594 342.644531 170.292969 342.644531 169.195312 C 342.644531 167.867188 341.316406 167.183594 340.125 167.183594 C 339.117188 167.183594 337.328125 167.730469 336.460938 170.570312 C 336.277344 171.210938 336.183594 171.484375 335.496094 175.148438 L 333.480469 175.148438 C 332.929688 175.148438 332.609375 175.148438 332.609375 175.695312 C 332.609375 176.015625 332.886719 176.015625 333.433594 176.015625 L 335.359375 176.015625 L 333.160156 187.460938 C 332.65625 190.253906 332.152344 192.90625 330.640625 192.90625 C 330.546875 192.90625 329.816406 192.90625 329.265625 192.359375 C 330.59375 192.265625 330.867188 191.261719 330.867188 190.800781 C 330.867188 190.160156 330.320312 189.796875 329.769531 189.796875 C 329.035156 189.796875 328.164062 190.4375 328.164062 191.535156 C 328.164062 192.816406 329.449219 193.550781 330.640625 193.550781 C 332.242188 193.550781 333.390625 191.808594 333.9375 190.710938 C 334.855469 188.878906 335.496094 185.402344 335.542969 185.21875 Z M 337.285156 176.015625 "/>
<path style=" stroke:none;fill-rule:nonzero;fill:rgb(0%,0%,0%);fill-opacity:1;" d="M 351.550781 188.640625 L 351.550781 187.90625 L 349.304688 187.90625 L 349.304688 178.84375 C 349.304688 178.433594 349.304688 178.292969 348.847656 178.292969 C 348.617188 178.292969 348.527344 178.292969 348.34375 178.570312 L 341.605469 187.90625 L 341.605469 188.640625 L 347.5625 188.640625 L 347.5625 190.289062 C 347.5625 190.976562 347.5625 191.203125 345.914062 191.203125 L 345.363281 191.203125 L 345.363281 191.9375 C 346.417969 191.890625 347.699219 191.84375 348.433594 191.84375 C 349.167969 191.84375 350.449219 191.890625 351.457031 191.9375 L 351.457031 191.203125 L 350.953125 191.203125 C 349.304688 191.203125 349.304688 190.976562 349.304688 190.289062 L 349.304688 188.640625 Z M 347.699219 180.492188 L 347.699219 187.90625 L 342.386719 187.90625 Z M 347.699219 180.492188 "/>
<path style=" stroke:none;fill-rule:nonzero;fill:rgb(0%,0%,0%);fill-opacity:1;" d="M 279.730469 204.117188 C 279.730469 203.382812 279.730469 203.339844 279.042969 203.339844 C 277.257812 205.214844 274.691406 205.214844 273.773438 205.214844 L 273.773438 206.085938 C 274.371094 206.085938 276.066406 206.085938 277.578125 205.351562 L 277.578125 220.320312 C 277.578125 221.375 277.488281 221.695312 274.875 221.695312 L 273.957031 221.695312 L 273.957031 222.609375 C 274.964844 222.519531 277.488281 222.519531 278.632812 222.519531 C 279.824219 222.519531 282.34375 222.519531 283.351562 222.609375 L 283.351562 221.695312 L 282.433594 221.695312 C 279.824219 221.695312 279.730469 221.375 279.730469 220.320312 Z M 279.730469 204.117188 "/>
<path style=" stroke:none;fill-rule:nonzero;fill:rgb(0%,0%,0%);fill-opacity:1;" d="M 274.875 269.75 L 277.945312 266.777344 C 282.480469 262.792969 284.222656 261.238281 284.222656 258.355469 C 284.222656 255.058594 281.609375 252.722656 278.082031 252.722656 C 274.78125 252.722656 272.675781 255.378906 272.675781 257.941406 C 272.675781 259.589844 274.097656 259.589844 274.1875 259.589844 C 274.691406 259.589844 275.699219 259.222656 275.699219 258.03125 C 275.699219 257.300781 275.195312 256.566406 274.140625 256.566406 C 273.914062 256.566406 273.867188 256.566406 273.773438 256.566406 C 274.460938 254.691406 276.019531 253.636719 277.714844 253.636719 C 280.328125 253.636719 281.5625 255.972656 281.5625 258.355469 C 281.5625 260.640625 280.144531 262.929688 278.539062 264.714844 L 272.996094 270.941406 C 272.675781 271.261719 272.675781 271.308594 272.675781 271.996094 L 283.398438 271.996094 L 284.222656 266.960938 L 283.488281 266.960938 C 283.351562 267.828125 283.121094 269.109375 282.847656 269.523438 C 282.664062 269.75 280.738281 269.75 280.097656 269.75 Z M 274.875 269.75 "/>
<path style=" stroke:none;fill-rule:nonzero;fill:rgb(0%,0%,0%);fill-opacity:1;" d="M 405.183594 208.574219 C 404.636719 207.519531 403.8125 206.742188 402.527344 206.742188 C 399.136719 206.742188 395.515625 211 395.515625 215.210938 C 395.515625 217.914062 397.121094 219.835938 399.367188 219.835938 C 399.960938 219.835938 401.429688 219.699219 403.125 217.683594 C 403.398438 218.875 404.40625 219.835938 405.78125 219.835938 C 406.789062 219.835938 407.476562 219.148438 407.933594 218.234375 C 408.4375 217.179688 408.804688 215.441406 408.804688 215.394531 C 408.804688 215.074219 408.53125 215.074219 408.4375 215.074219 C 408.164062 215.074219 408.117188 215.210938 408.027344 215.625 C 407.566406 217.5 407.019531 219.195312 405.828125 219.195312 C 405.046875 219.195312 404.957031 218.460938 404.957031 217.867188 C 404.957031 217.226562 405.046875 216.996094 405.367188 215.714844 C 405.644531 214.523438 405.734375 214.203125 405.964844 213.105469 L 407.019531 209.078125 C 407.246094 208.253906 407.246094 208.207031 407.246094 208.070312 C 407.246094 207.613281 406.878906 207.292969 406.375 207.292969 C 405.6875 207.292969 405.277344 207.933594 405.183594 208.574219 Z M 403.304688 216.082031 C 403.125 216.585938 403.125 216.628906 402.710938 217.132812 C 401.429688 218.738281 400.238281 219.195312 399.457031 219.195312 C 397.992188 219.195312 397.578125 217.59375 397.578125 216.492188 C 397.578125 215.027344 398.496094 211.457031 399.183594 210.128906 C 400.097656 208.4375 401.382812 207.382812 402.527344 207.382812 C 404.40625 207.382812 404.820312 209.71875 404.820312 209.902344 C 404.820312 210.085938 404.773438 210.269531 404.726562 210.40625 Z M 403.304688 216.082031 "/>
<path style=" stroke:none;fill-rule:nonzero;fill:rgb(0%,0%,0%);fill-opacity:1;" d="M 402.730469 252.941406 C 402.730469 252.941406 402.730469 252.621094 402.363281 252.621094 C 401.675781 252.621094 399.566406 252.851562 398.835938 252.941406 C 398.605469 252.941406 398.285156 252.988281 398.285156 253.492188 C 398.285156 253.859375 398.515625 253.859375 398.972656 253.859375 C 400.347656 253.859375 400.390625 254.042969 400.390625 254.363281 C 400.390625 254.542969 400.164062 255.550781 400.027344 256.148438 L 397.644531 265.578125 C 397.277344 266.996094 397.183594 267.5 397.183594 268.507812 C 397.183594 271.253906 398.695312 273.039062 400.851562 273.039062 C 404.285156 273.039062 407.816406 268.734375 407.816406 264.570312 C 407.816406 261.914062 406.304688 259.945312 403.964844 259.945312 C 402.636719 259.945312 401.445312 260.769531 400.574219 261.6875 Z M 400.027344 263.882812 C 400.164062 263.242188 400.164062 263.195312 400.4375 262.875 C 401.859375 261 403.1875 260.585938 403.921875 260.585938 C 404.972656 260.585938 405.753906 261.457031 405.753906 263.289062 C 405.753906 264.980469 404.789062 268.324219 404.285156 269.421875 C 403.324219 271.34375 401.996094 272.398438 400.851562 272.398438 C 399.84375 272.398438 398.925781 271.621094 398.925781 269.46875 C 398.925781 268.917969 398.925781 268.371094 399.382812 266.539062 Z M 400.027344 263.882812 "/>
<path style="fill:none;stroke-width:0.3985;stroke-linecap:butt;stroke-linejoin:miter;stroke:rgb(0%,0%,0%);stroke-opacity:1;stroke-miterlimit:10;" d="M 88.526504 -49.582643 L 124.057487 -63.794362 " transform="matrix(2.906354,0,0,-2.903634,31.292643,73.366099)"/>
<path style="fill:none;stroke-width:0.3985;stroke-linecap:round;stroke-linejoin:round;stroke:rgb(0%,0%,0%);stroke-opacity:1;stroke-miterlimit:10;" d="M -2.072037 2.390054 C -1.694364 0.957464 -0.850442 0.280821 -0.000172483 0.000824261 C -0.850491 -0.279932 -1.691932 -0.955591 -2.07332 -2.39046 " transform="matrix(2.698492,1.078497,1.079508,-2.695966,392.382388,258.822721)"/>
<path style="fill:none;stroke-width:0.3985;stroke-linecap:butt;stroke-linejoin:miter;stroke:rgb(0%,0%,0%);stroke-opacity:1;stroke-miterlimit:10;" d="M 88.526504 -65.197506 L 124.029262 -65.197506 " transform="matrix(2.906354,0,0,-2.903634,31.292643,73.366099)"/>
<path style="fill:none;stroke-width:0.3985;stroke-linecap:round;stroke-linejoin:round;stroke:rgb(0%,0%,0%);stroke-opacity:1;stroke-miterlimit:10;" d="M -2.074249 2.392159 C -1.69523 0.958072 -0.848487 0.280043 -0.000398774 0.000220965 C -0.848487 -0.279601 -1.69523 -0.957631 -2.074249 -2.391717 " transform="matrix(2.906354,0,0,-2.903634,392.341003,262.676423)"/>
</g>
</svg>
