<?xml version="1.0" encoding="UTF-8"?>
<svg xmlns="http://www.w3.org/2000/svg" xmlns:xlink="http://www.w3.org/1999/xlink" width="744pt" height="300pt" viewBox="0 0 744 300" version="1.1">
<g id="surface1">
<path style=" stroke:none;fill-rule:nonzero;fill:rgb(0%,0%,0%);fill-opacity:1;" d="M 41.5625 25.796875 C 41.5625 24.96875 41.5625 24.914062 40.789062 24.914062 C 38.636719 27.125 35.542969 27.125 34.382812 27.125 L 34.382812 28.230469 C 35.101562 28.230469 37.199219 28.230469 38.96875 27.347656 L 38.96875 45.476562 C 38.96875 46.75 38.910156 47.136719 35.761719 47.136719 L 34.601562 47.136719 L 34.601562 48.242188 C 35.816406 48.128906 38.910156 48.128906 40.292969 48.128906 C 41.675781 48.128906 44.714844 48.128906 45.984375 48.242188 L 45.984375 47.136719 L 44.824219 47.136719 C 41.675781 47.136719 41.5625 46.75 41.5625 45.476562 Z M 41.5625 25.796875 "/>
<path style=" stroke:none;fill-rule:nonzero;fill:rgb(0%,0%,0%);fill-opacity:1;" d="M 167.527344 45.53125 L 171.230469 41.941406 C 176.699219 37.074219 178.800781 35.195312 178.800781 31.714844 C 178.800781 27.679688 175.652344 24.914062 171.339844 24.914062 C 167.417969 24.914062 164.820312 28.121094 164.820312 31.269531 C 164.820312 33.207031 166.535156 33.207031 166.644531 33.207031 C 167.253906 33.207031 168.46875 32.761719 168.46875 31.328125 C 168.46875 30.441406 167.859375 29.503906 166.644531 29.503906 C 166.367188 29.503906 166.257812 29.503906 166.148438 29.558594 C 166.976562 27.292969 168.855469 25.964844 170.898438 25.964844 C 174.105469 25.964844 175.59375 28.839844 175.59375 31.714844 C 175.59375 34.476562 173.828125 37.296875 171.894531 39.453125 L 165.207031 46.96875 C 164.820312 47.355469 164.820312 47.410156 164.820312 48.242188 L 177.804688 48.242188 L 178.800781 42.160156 L 177.914062 42.160156 C 177.75 43.210938 177.472656 44.757812 177.140625 45.257812 C 176.867188 45.53125 174.601562 45.53125 173.828125 45.53125 Z M 167.527344 45.53125 "/>
<path style=" stroke:none;fill-rule:nonzero;fill:rgb(0%,0%,0%);fill-opacity:1;" d="M 304.988281 35.914062 C 307.863281 34.976562 309.90625 32.488281 309.90625 29.722656 C 309.90625 26.847656 306.8125 24.914062 303.441406 24.914062 C 299.90625 24.914062 297.253906 27.015625 297.253906 29.667969 C 297.253906 30.828125 298.027344 31.492188 299.023438 31.492188 C 300.125 31.492188 300.789062 30.71875 300.789062 29.722656 C 300.789062 27.953125 299.1875 27.953125 298.636719 27.953125 C 299.738281 26.242188 302.058594 25.796875 303.277344 25.796875 C 304.710938 25.796875 306.644531 26.574219 306.644531 29.722656 C 306.644531 30.109375 306.589844 32.15625 305.707031 33.703125 C 304.65625 35.363281 303.441406 35.472656 302.558594 35.527344 C 302.28125 35.527344 301.453125 35.636719 301.175781 35.636719 C 300.898438 35.636719 300.679688 35.691406 300.679688 36.023438 C 300.679688 36.410156 300.898438 36.410156 301.507812 36.410156 L 303.054688 36.410156 C 305.929688 36.410156 307.199219 38.789062 307.199219 42.269531 C 307.199219 47.023438 304.824219 48.019531 303.277344 48.019531 C 301.785156 48.019531 299.132812 47.410156 297.917969 45.367188 C 299.132812 45.53125 300.238281 44.757812 300.238281 43.433594 C 300.238281 42.160156 299.296875 41.496094 298.25 41.496094 C 297.417969 41.496094 296.3125 41.996094 296.3125 43.488281 C 296.3125 46.695312 299.574219 49.015625 303.386719 49.015625 C 307.640625 49.015625 310.84375 45.808594 310.84375 42.269531 C 310.84375 39.398438 308.636719 36.632812 304.988281 35.914062 Z M 304.988281 35.914062 "/>
<path style=" stroke:none;fill-rule:nonzero;fill:rgb(0%,0%,0%);fill-opacity:1;" d="M 41.5625 249.292969 C 41.5625 248.464844 41.5625 248.410156 40.789062 248.410156 C 38.636719 250.621094 35.542969 250.621094 34.382812 250.621094 L 34.382812 251.726562 C 35.101562 251.726562 37.199219 251.726562 38.96875 250.84375 L 38.96875 268.972656 C 38.96875 270.246094 38.910156 270.632812 35.761719 270.632812 L 34.601562 270.632812 L 34.601562 271.738281 C 35.816406 271.625 38.910156 271.625 40.292969 271.625 C 41.675781 271.625 44.714844 271.625 45.984375 271.738281 L 45.984375 270.632812 L 44.824219 270.632812 C 41.675781 270.632812 41.5625 270.246094 41.5625 268.972656 Z M 41.5625 249.292969 "/>
<path style=" stroke:none;fill-rule:nonzero;fill:rgb(0%,0%,0%);fill-opacity:1;" d="M 167.527344 269.027344 L 171.230469 265.433594 C 176.699219 260.570312 178.800781 258.691406 178.800781 255.207031 C 178.800781 251.171875 175.652344 248.410156 171.339844 248.410156 C 167.417969 248.410156 164.820312 251.617188 164.820312 254.765625 C 164.820312 256.703125 166.535156 256.703125 166.644531 256.703125 C 167.253906 256.703125 168.46875 256.257812 168.46875 254.820312 C 168.46875 253.9375 167.859375 252.996094 166.644531 252.996094 C 166.367188 252.996094 166.257812 252.996094 166.148438 253.054688 C 166.976562 250.785156 168.855469 249.460938 170.898438 249.460938 C 174.105469 249.460938 175.59375 252.335938 175.59375 255.207031 C 175.59375 257.972656 173.828125 260.792969 171.894531 262.949219 L 165.207031 270.464844 C 164.820312 270.851562 164.820312 270.90625 164.820312 271.738281 L 177.804688 271.738281 L 178.800781 265.65625 L 177.914062 265.65625 C 177.75 266.707031 177.472656 268.253906 177.140625 268.75 C 176.867188 269.027344 174.601562 269.027344 173.828125 269.027344 Z M 167.527344 269.027344 "/>
<path style=" stroke:none;fill-rule:nonzero;fill:rgb(0%,0%,0%);fill-opacity:1;" d="M 304.988281 259.410156 C 307.863281 258.46875 309.90625 255.984375 309.90625 253.21875 C 309.90625 250.34375 306.8125 248.410156 303.441406 248.410156 C 299.90625 248.410156 297.253906 250.511719 297.253906 253.164062 C 297.253906 254.324219 298.027344 254.988281 299.023438 254.988281 C 300.125 254.988281 300.789062 254.214844 300.789062 253.21875 C 300.789062 251.449219 299.1875 251.449219 298.636719 251.449219 C 299.738281 249.738281 302.058594 249.292969 303.277344 249.292969 C 304.710938 249.292969 306.644531 250.066406 306.644531 253.21875 C 306.644531 253.605469 306.589844 255.652344 305.707031 257.199219 C 304.65625 258.855469 303.441406 258.96875 302.558594 259.023438 C 302.28125 259.023438 301.453125 259.132812 301.175781 259.132812 C 300.898438 259.132812 300.679688 259.1875 300.679688 259.519531 C 300.679688 259.90625 300.898438 259.90625 301.507812 259.90625 L 303.054688 259.90625 C 305.929688 259.90625 307.199219 262.285156 307.199219 265.765625 C 307.199219 270.519531 304.824219 271.515625 303.277344 271.515625 C 301.785156 271.515625 299.132812 270.90625 297.917969 268.863281 C 299.132812 269.027344 300.238281 268.253906 300.238281 266.925781 C 300.238281 265.65625 299.296875 264.992188 298.25 264.992188 C 297.417969 264.992188 296.3125 265.492188 296.3125 266.984375 C 296.3125 270.1875 299.574219 272.511719 303.386719 272.511719 C 307.640625 272.511719 310.84375 269.304688 310.84375 265.765625 C 310.84375 262.890625 308.636719 260.128906 304.988281 259.410156 Z M 304.988281 259.410156 "/>
<path style="fill:none;stroke-width:0.39848;stroke-linecap:butt;stroke-linejoin:miter;stroke:rgb(0%,0%,0%);stroke-opacity:1;stroke-miterlimit:10;" d="M -37.471154 57.188597 L -37.471154 8.171938 " transform="matrix(3.51657,0,0,-3.518176,171.812921,262.972971)"/>
<path style="fill:none;stroke-width:0.39848;stroke-linecap:round;stroke-linejoin:round;stroke:rgb(0%,0%,0%);stroke-opacity:1;stroke-miterlimit:10;" d="M -2.070707 2.39253 C -1.694313 0.954028 -0.849371 0.278654 -0.00109707 -0.000159547 C -0.849371 -0.278973 -1.694313 -0.954347 -2.070707 -2.391739 " transform="matrix(0,3.518176,3.51657,0,40.04353,234.917922)"/>
<path style="fill:none;stroke-width:0.39848;stroke-linecap:butt;stroke-linejoin:miter;stroke:rgb(0%,0%,0%);stroke-opacity:1;stroke-miterlimit:10;" d="M 6.978004 60.986952 C 28.396688 53.190387 28.396688 10.335924 7.354569 2.677036 " transform="matrix(3.51657,0,0,-3.518176,171.812921,262.972971)"/>
<path style="fill:none;stroke-width:0.39848;stroke-linecap:round;stroke-linejoin:round;stroke:rgb(0%,0%,0%);stroke-opacity:1;stroke-miterlimit:10;" d="M -2.072557 2.391985 C -1.693272 0.955873 -0.850512 0.27742 0.000361699 0.000774641 C -0.84879 -0.279015 -1.691933 -0.957491 -2.072385 -2.392041 " transform="matrix(-3.308703,1.204797,1.204247,3.310213,197.015889,253.801687)"/>
<path style="fill:none;stroke-width:0.39848;stroke-linecap:butt;stroke-linejoin:miter;stroke:rgb(0%,0%,0%);stroke-opacity:1;stroke-miterlimit:10;" d="M 30.490569 60.986952 C 9.071885 53.190387 9.071885 10.335924 30.117336 2.677036 " transform="matrix(3.51657,0,0,-3.518176,171.812921,262.972971)"/>
<path style="fill:none;stroke-width:0.39848;stroke-linecap:round;stroke-linejoin:round;stroke:rgb(0%,0%,0%);stroke-opacity:1;stroke-miterlimit:10;" d="M -2.070497 2.392728 C -1.694215 0.956661 -0.851072 0.278184 -0.00191985 -0.00160504 C -0.848623 -0.276733 -1.695554 -0.956703 -2.070669 -2.391297 " transform="matrix(3.308703,1.204797,1.204247,-3.310213,278.379379,253.801687)"/>
<path style=" stroke:none;fill-rule:nonzero;fill:rgb(0%,0%,0%);fill-opacity:1;" d="M 440.292969 25.796875 C 440.292969 24.96875 440.292969 24.914062 439.519531 24.914062 C 437.367188 27.125 434.269531 27.125 433.109375 27.125 L 433.109375 28.230469 C 433.828125 28.230469 435.929688 28.230469 437.695312 27.347656 L 437.695312 45.476562 C 437.695312 46.75 437.640625 47.136719 434.492188 47.136719 L 433.332031 47.136719 L 433.332031 48.242188 C 434.546875 48.128906 437.640625 48.128906 439.023438 48.128906 C 440.40625 48.128906 443.441406 48.128906 444.714844 48.242188 L 444.714844 47.136719 L 443.554688 47.136719 C 440.40625 47.136719 440.292969 46.75 440.292969 45.476562 Z M 440.292969 25.796875 "/>
<path style=" stroke:none;fill-rule:nonzero;fill:rgb(0%,0%,0%);fill-opacity:1;" d="M 566.257812 45.53125 L 569.960938 41.941406 C 575.429688 37.074219 577.53125 35.195312 577.53125 31.714844 C 577.53125 27.679688 574.378906 24.914062 570.070312 24.914062 C 566.148438 24.914062 563.550781 28.121094 563.550781 31.269531 C 563.550781 33.207031 565.265625 33.207031 565.375 33.207031 C 565.980469 33.207031 567.199219 32.761719 567.199219 31.328125 C 567.199219 30.441406 566.589844 29.503906 565.375 29.503906 C 565.097656 29.503906 564.988281 29.503906 564.875 29.558594 C 565.707031 27.292969 567.585938 25.964844 569.628906 25.964844 C 572.832031 25.964844 574.324219 28.839844 574.324219 31.714844 C 574.324219 34.476562 572.558594 37.296875 570.625 39.453125 L 563.9375 46.96875 C 563.550781 47.355469 563.550781 47.410156 563.550781 48.242188 L 576.535156 48.242188 L 577.53125 42.160156 L 576.644531 42.160156 C 576.480469 43.210938 576.203125 44.757812 575.871094 45.257812 C 575.597656 45.53125 573.332031 45.53125 572.558594 45.53125 Z M 566.257812 45.53125 "/>
<path style=" stroke:none;fill-rule:nonzero;fill:rgb(0%,0%,0%);fill-opacity:1;" d="M 703.71875 35.914062 C 706.589844 34.976562 708.636719 32.488281 708.636719 29.722656 C 708.636719 26.847656 705.542969 24.914062 702.171875 24.914062 C 698.636719 24.914062 695.984375 27.015625 695.984375 29.667969 C 695.984375 30.828125 696.757812 31.492188 697.75 31.492188 C 698.855469 31.492188 699.519531 30.71875 699.519531 29.722656 C 699.519531 27.953125 697.917969 27.953125 697.363281 27.953125 C 698.46875 26.242188 700.789062 25.796875 702.003906 25.796875 C 703.441406 25.796875 705.375 26.574219 705.375 29.722656 C 705.375 30.109375 705.320312 32.15625 704.4375 33.703125 C 703.386719 35.363281 702.171875 35.472656 701.289062 35.527344 C 701.011719 35.527344 700.183594 35.636719 699.90625 35.636719 C 699.628906 35.636719 699.410156 35.691406 699.410156 36.023438 C 699.410156 36.410156 699.628906 36.410156 700.238281 36.410156 L 701.785156 36.410156 C 704.65625 36.410156 705.929688 38.789062 705.929688 42.269531 C 705.929688 47.023438 703.554688 48.019531 702.003906 48.019531 C 700.515625 48.019531 697.863281 47.410156 696.644531 45.367188 C 697.863281 45.53125 698.96875 44.757812 698.96875 43.433594 C 698.96875 42.160156 698.027344 41.496094 696.976562 41.496094 C 696.148438 41.496094 695.042969 41.996094 695.042969 43.488281 C 695.042969 46.695312 698.304688 49.015625 702.117188 49.015625 C 706.371094 49.015625 709.574219 45.808594 709.574219 42.269531 C 709.574219 39.398438 707.363281 36.632812 703.71875 35.914062 Z M 703.71875 35.914062 "/>
<path style=" stroke:none;fill-rule:nonzero;fill:rgb(0%,0%,0%);fill-opacity:1;" d="M 440.292969 249.292969 C 440.292969 248.464844 440.292969 248.410156 439.519531 248.410156 C 437.367188 250.621094 434.269531 250.621094 433.109375 250.621094 L 433.109375 251.726562 C 433.828125 251.726562 435.929688 251.726562 437.695312 250.84375 L 437.695312 268.972656 C 437.695312 270.246094 437.640625 270.632812 434.492188 270.632812 L 433.332031 270.632812 L 433.332031 271.738281 C 434.546875 271.625 437.640625 271.625 439.023438 271.625 C 440.40625 271.625 443.441406 271.625 444.714844 271.738281 L 444.714844 270.632812 L 443.554688 270.632812 C 440.40625 270.632812 440.292969 270.246094 440.292969 268.972656 Z M 440.292969 249.292969 "/>
<path style=" stroke:none;fill-rule:nonzero;fill:rgb(0%,0%,0%);fill-opacity:1;" d="M 566.257812 269.027344 L 569.960938 265.433594 C 575.429688 260.570312 577.53125 258.691406 577.53125 255.207031 C 577.53125 251.171875 574.378906 248.410156 570.070312 248.410156 C 566.148438 248.410156 563.550781 251.617188 563.550781 254.765625 C 563.550781 256.703125 565.265625 256.703125 565.375 256.703125 C 565.980469 256.703125 567.199219 256.257812 567.199219 254.820312 C 567.199219 253.9375 566.589844 252.996094 565.375 252.996094 C 565.097656 252.996094 564.988281 252.996094 564.875 253.054688 C 565.707031 250.785156 567.585938 249.460938 569.628906 249.460938 C 572.832031 249.460938 574.324219 252.335938 574.324219 255.207031 C 574.324219 257.972656 572.558594 260.792969 570.625 262.949219 L 563.9375 270.464844 C 563.550781 270.851562 563.550781 270.90625 563.550781 271.738281 L 576.535156 271.738281 L 577.53125 265.65625 L 576.644531 265.65625 C 576.480469 266.707031 576.203125 268.253906 575.871094 268.75 C 575.597656 269.027344 573.332031 269.027344 572.558594 269.027344 Z M 566.257812 269.027344 "/>
<path style=" stroke:none;fill-rule:nonzero;fill:rgb(0%,0%,0%);fill-opacity:1;" d="M 703.71875 259.410156 C 706.589844 258.46875 708.636719 255.984375 708.636719 253.21875 C 708.636719 250.34375 705.542969 248.410156 702.171875 248.410156 C 698.636719 248.410156 695.984375 250.511719 695.984375 253.164062 C 695.984375 254.324219 696.757812 254.988281 697.75 254.988281 C 698.855469 254.988281 699.519531 254.214844 699.519531 253.21875 C 699.519531 251.449219 697.917969 251.449219 697.363281 251.449219 C 698.46875 249.738281 700.789062 249.292969 702.003906 249.292969 C 703.441406 249.292969 705.375 250.066406 705.375 253.21875 C 705.375 253.605469 705.320312 255.652344 704.4375 257.199219 C 703.386719 258.855469 702.171875 258.96875 701.289062 259.023438 C 701.011719 259.023438 700.183594 259.132812 699.90625 259.132812 C 699.628906 259.132812 699.410156 259.1875 699.410156 259.519531 C 699.410156 259.90625 699.628906 259.90625 700.238281 259.90625 L 701.785156 259.90625 C 704.65625 259.90625 705.929688 262.285156 705.929688 265.765625 C 705.929688 270.519531 703.554688 271.515625 702.003906 271.515625 C 700.515625 271.515625 697.863281 270.90625 696.644531 268.863281 C 697.863281 269.027344 698.96875 268.253906 698.96875 266.925781 C 698.96875 265.65625 698.027344 264.992188 696.976562 264.992188 C 696.148438 264.992188 695.042969 265.492188 695.042969 266.984375 C 695.042969 270.1875 698.304688 272.511719 702.117188 272.511719 C 706.371094 272.511719 709.574219 269.304688 709.574219 265.765625 C 709.574219 262.890625 707.363281 260.128906 703.71875 259.410156 Z M 703.71875 259.410156 "/>
<path style="fill:none;stroke-width:0.39848;stroke-linecap:butt;stroke-linejoin:miter;stroke:rgb(0%,0%,0%);stroke-opacity:1;stroke-miterlimit:10;" d="M 82.894254 57.612734 L 143.573491 6.172278 " transform="matrix(3.51657,0,0,-3.518176,171.812921,262.972971)"/>
<path style="fill:none;stroke-width:0.39848;stroke-linecap:round;stroke-linejoin:round;stroke:rgb(0%,0%,0%);stroke-opacity:1;stroke-miterlimit:10;" d="M -2.072548 2.390879 C -1.694836 0.957979 -0.85074 0.27718 0.00151231 -0.000840346 C -0.84969 -0.280201 -1.693527 -0.954982 -2.072687 -2.390066 " transform="matrix(2.692636,2.283789,2.282747,-2.693866,677.236127,241.709126)"/>
<path style="fill:none;stroke-width:0.39848;stroke-linecap:butt;stroke-linejoin:miter;stroke:rgb(0%,0%,0%);stroke-opacity:1;stroke-miterlimit:10;" d="M 113.387165 57.188597 L 113.387165 8.171938 " transform="matrix(3.51657,0,0,-3.518176,171.812921,262.972971)"/>
<path style="fill:none;stroke-width:0.39848;stroke-linecap:round;stroke-linejoin:round;stroke:rgb(0%,0%,0%);stroke-opacity:1;stroke-miterlimit:10;" d="M -2.070707 2.39155 C -1.694313 0.957491 -0.849371 0.278785 -0.00109707 -0.0000288747 C -0.849371 -0.279954 -1.694313 -0.955328 -2.070707 -2.392719 " transform="matrix(0,3.518176,3.51657,0,570.546977,234.917922)"/>
<path style="fill:none;stroke-width:0.39848;stroke-linecap:butt;stroke-linejoin:miter;stroke:rgb(0%,0%,0%);stroke-opacity:1;stroke-miterlimit:10;" d="M 143.878965 57.612734 L 83.199728 6.172278 " transform="matrix(3.51657,0,0,-3.518176,171.812921,262.972971)"/>
<path style="fill:none;stroke-width:0.39848;stroke-linecap:round;stroke-linejoin:round;stroke:rgb(0%,0%,0%);stroke-opacity:1;stroke-miterlimit:10;" d="M -2.071815 2.389327 C -1.692655 0.954243 -0.848818 0.279462 0.00154014 0.000816748 C -0.849868 -0.277919 -1.693964 -0.958718 -2.071676 -2.391619 " transform="matrix(-2.692636,2.283789,2.282747,2.693866,463.857751,241.709126)"/>
</g>
</svg>
