<?xml version="1.0" encoding="UTF-8"?>
<svg xmlns="http://www.w3.org/2000/svg" xmlns:xlink="http://www.w3.org/1999/xlink" width="744px" height="300px" viewBox="0 0 744 300" version="1.1">
<g id="surface1">
<path style=" stroke:none;fill-rule:nonzero;fill:rgb(0%,0%,0%);fill-opacity:1;" d="M 41.550781 26.316406 C 41.550781 25.484375 41.550781 25.429688 40.777344 25.429688 C 38.625 27.640625 35.53125 27.640625 34.371094 27.640625 L 34.371094 28.746094 C 35.089844 28.746094 37.1875 28.746094 38.957031 27.863281 L 38.957031 45.988281 C 38.957031 47.257812 38.898438 47.644531 35.75 47.644531 L 34.589844 47.644531 L 34.589844 48.75 C 35.808594 48.640625 38.898438 48.640625 40.28125 48.640625 C 41.660156 48.640625 44.699219 48.640625 45.96875 48.75 L 45.96875 47.644531 L 44.808594 47.644531 C 41.660156 47.644531 41.550781 47.257812 41.550781 45.988281 Z M 41.550781 26.316406 "/>
<path style=" stroke:none;fill-rule:nonzero;fill:rgb(0%,0%,0%);fill-opacity:1;" d="M 167.476562 46.042969 L 171.175781 42.449219 C 176.644531 37.589844 178.742188 35.710938 178.742188 32.226562 C 178.742188 28.195312 175.59375 25.429688 171.289062 25.429688 C 167.367188 25.429688 164.769531 28.636719 164.769531 31.785156 C 164.769531 33.71875 166.480469 33.71875 166.59375 33.71875 C 167.199219 33.71875 168.414062 33.277344 168.414062 31.839844 C 168.414062 30.957031 167.808594 30.015625 166.59375 30.015625 C 166.316406 30.015625 166.207031 30.015625 166.09375 30.074219 C 166.921875 27.808594 168.800781 26.480469 170.84375 26.480469 C 174.050781 26.480469 175.539062 29.355469 175.539062 32.226562 C 175.539062 34.992188 173.773438 37.808594 171.839844 39.964844 L 165.15625 47.480469 C 164.769531 47.867188 164.769531 47.921875 164.769531 48.75 L 177.75 48.75 L 178.742188 42.671875 L 177.859375 42.671875 C 177.695312 43.722656 177.417969 45.269531 177.085938 45.765625 C 176.8125 46.042969 174.546875 46.042969 173.773438 46.042969 Z M 167.476562 46.042969 "/>
<path style=" stroke:none;fill-rule:nonzero;fill:rgb(0%,0%,0%);fill-opacity:1;" d="M 304.894531 36.425781 C 307.765625 35.488281 309.808594 33 309.808594 30.238281 C 309.808594 27.363281 306.714844 25.429688 303.347656 25.429688 C 299.8125 25.429688 297.160156 27.53125 297.160156 30.183594 C 297.160156 31.34375 297.933594 32.007812 298.929688 32.007812 C 300.03125 32.007812 300.695312 31.234375 300.695312 30.238281 C 300.695312 28.46875 299.09375 28.46875 298.542969 28.46875 C 299.644531 26.757812 301.964844 26.316406 303.179688 26.316406 C 304.617188 26.316406 306.550781 27.089844 306.550781 30.238281 C 306.550781 30.625 306.496094 32.671875 305.609375 34.21875 C 304.5625 35.875 303.347656 35.984375 302.460938 36.039062 C 302.1875 36.039062 301.359375 36.152344 301.082031 36.152344 C 300.804688 36.152344 300.585938 36.207031 300.585938 36.539062 C 300.585938 36.925781 300.804688 36.925781 301.414062 36.925781 L 302.960938 36.925781 C 305.832031 36.925781 307.101562 39.300781 307.101562 42.78125 C 307.101562 47.535156 304.726562 48.53125 303.179688 48.53125 C 301.691406 48.53125 299.039062 47.921875 297.824219 45.878906 C 299.039062 46.042969 300.144531 45.269531 300.144531 43.941406 C 300.144531 42.671875 299.203125 42.007812 298.15625 42.007812 C 297.324219 42.007812 296.222656 42.507812 296.222656 44 C 296.222656 47.203125 299.480469 49.523438 303.292969 49.523438 C 307.542969 49.523438 310.75 46.320312 310.75 42.78125 C 310.75 39.910156 308.539062 37.144531 304.894531 36.425781 Z M 304.894531 36.425781 "/>
<path style=" stroke:none;fill-rule:nonzero;fill:rgb(0%,0%,0%);fill-opacity:1;" d="M 41.550781 249.742188 C 41.550781 248.910156 41.550781 248.855469 40.777344 248.855469 C 38.625 251.066406 35.53125 251.066406 34.371094 251.066406 L 34.371094 252.171875 C 35.089844 252.171875 37.1875 252.171875 38.957031 251.289062 L 38.957031 269.414062 C 38.957031 270.683594 38.898438 271.070312 35.75 271.070312 L 34.589844 271.070312 L 34.589844 272.175781 C 35.808594 272.066406 38.898438 272.066406 40.28125 272.066406 C 41.660156 272.066406 44.699219 272.066406 45.96875 272.175781 L 45.96875 271.070312 L 44.808594 271.070312 C 41.660156 271.070312 41.550781 270.683594 41.550781 269.414062 Z M 41.550781 249.742188 "/>
<path style=" stroke:none;fill-rule:nonzero;fill:rgb(0%,0%,0%);fill-opacity:1;" d="M 167.476562 269.46875 L 171.175781 265.875 C 176.644531 261.011719 178.742188 259.132812 178.742188 255.652344 C 178.742188 251.621094 175.59375 248.855469 171.289062 248.855469 C 167.367188 248.855469 164.769531 252.0625 164.769531 255.210938 C 164.769531 257.144531 166.480469 257.144531 166.59375 257.144531 C 167.199219 257.144531 168.414062 256.703125 168.414062 255.265625 C 168.414062 254.382812 167.808594 253.441406 166.59375 253.441406 C 166.316406 253.441406 166.207031 253.441406 166.09375 253.5 C 166.921875 251.234375 168.800781 249.90625 170.84375 249.90625 C 174.050781 249.90625 175.539062 252.78125 175.539062 255.652344 C 175.539062 258.417969 173.773438 261.234375 171.839844 263.390625 L 165.15625 270.90625 C 164.769531 271.292969 164.769531 271.347656 164.769531 272.175781 L 177.75 272.175781 L 178.742188 266.097656 L 177.859375 266.097656 C 177.695312 267.148438 177.417969 268.695312 177.085938 269.191406 C 176.8125 269.46875 174.546875 269.46875 173.773438 269.46875 Z M 167.476562 269.46875 "/>
<path style=" stroke:none;fill-rule:nonzero;fill:rgb(0%,0%,0%);fill-opacity:1;" d="M 304.894531 259.851562 C 307.765625 258.914062 309.808594 256.425781 309.808594 253.664062 C 309.808594 250.789062 306.714844 248.855469 303.347656 248.855469 C 299.8125 248.855469 297.160156 250.957031 297.160156 253.609375 C 297.160156 254.769531 297.933594 255.433594 298.929688 255.433594 C 300.03125 255.433594 300.695312 254.660156 300.695312 253.664062 C 300.695312 251.894531 299.09375 251.894531 298.542969 251.894531 C 299.644531 250.183594 301.964844 249.742188 303.179688 249.742188 C 304.617188 249.742188 306.550781 250.515625 306.550781 253.664062 C 306.550781 254.050781 306.496094 256.09375 305.609375 257.644531 C 304.5625 259.300781 303.347656 259.410156 302.460938 259.464844 C 302.1875 259.464844 301.359375 259.578125 301.082031 259.578125 C 300.804688 259.578125 300.585938 259.632812 300.585938 259.964844 C 300.585938 260.351562 300.804688 260.351562 301.414062 260.351562 L 302.960938 260.351562 C 305.832031 260.351562 307.101562 262.726562 307.101562 266.207031 C 307.101562 270.960938 304.726562 271.953125 303.179688 271.953125 C 301.691406 271.953125 299.039062 271.347656 297.824219 269.300781 C 299.039062 269.46875 300.144531 268.695312 300.144531 267.367188 C 300.144531 266.097656 299.203125 265.433594 298.15625 265.433594 C 297.324219 265.433594 296.222656 265.933594 296.222656 267.421875 C 296.222656 270.628906 299.480469 272.949219 303.292969 272.949219 C 307.542969 272.949219 310.75 269.746094 310.75 266.207031 C 310.75 263.335938 308.539062 260.570312 304.894531 259.851562 Z M 304.894531 259.851562 "/>
<path style="fill:none;stroke-width:0.39848;stroke-linecap:butt;stroke-linejoin:miter;stroke:rgb(0%,0%,0%);stroke-opacity:1;stroke-miterlimit:10;" d="M -37.470915 57.188941 L -37.470915 8.171345 " transform="matrix(3.515468,0,0,-3.517072,171.759041,263.414993)"/>
<path style="fill:none;stroke-width:0.39848;stroke-linecap:round;stroke-linejoin:round;stroke:rgb(0%,0%,0%);stroke-opacity:1;stroke-miterlimit:10;" d="M -2.070699 2.392409 C -1.694187 0.954567 -0.85009 0.278981 -0.0015508 0.0000794172 C -0.85009 -0.278822 -1.694187 -0.954408 -2.070699 -2.39225 " transform="matrix(0,3.517072,3.515468,0,40.030971,235.368736)"/>
<path style="fill:none;stroke-width:0.39848;stroke-linecap:butt;stroke-linejoin:miter;stroke:rgb(0%,0%,0%);stroke-opacity:1;stroke-miterlimit:10;" d="M 6.977741 60.987378 C 28.397588 53.190588 28.397588 10.336009 7.355535 2.67694 " transform="matrix(3.515468,0,0,-3.517072,171.759041,263.414993)"/>
<path style="fill:none;stroke-width:0.39848;stroke-linecap:round;stroke-linejoin:round;stroke:rgb(0%,0%,0%);stroke-opacity:1;stroke-miterlimit:10;" d="M -2.072315 2.391353 C -1.693954 0.955171 -0.85055 0.277547 0.000590742 0.000815283 C -0.848828 -0.279062 -1.691856 -0.956709 -2.072806 -2.392751 " transform="matrix(-3.307665,1.204419,1.20387,3.309175,196.954097,254.246591)"/>
<path style="fill:none;stroke-width:0.39848;stroke-linecap:butt;stroke-linejoin:miter;stroke:rgb(0%,0%,0%);stroke-opacity:1;stroke-miterlimit:10;" d="M 30.491015 60.987378 C 9.071168 53.190588 9.071168 10.336009 30.117665 2.67694 " transform="matrix(3.515468,0,0,-3.517072,171.759041,263.414993)"/>
<path style="fill:none;stroke-width:0.39848;stroke-linecap:round;stroke-linejoin:round;stroke:rgb(0%,0%,0%);stroke-opacity:1;stroke-miterlimit:10;" d="M -2.070739 2.393503 C -1.69396 0.955943 -0.850931 0.278296 -0.00151307 -0.00158099 C -0.848482 -0.276795 -1.696058 -0.955936 -2.07129 -2.390981 " transform="matrix(3.307665,1.204419,1.20387,-3.309175,278.292064,254.246591)"/>
<path style=" stroke:none;fill-rule:nonzero;fill:rgb(0%,0%,0%);fill-opacity:1;" d="M 440.15625 26.316406 C 440.15625 25.484375 440.15625 25.429688 439.382812 25.429688 C 437.226562 27.640625 434.136719 27.640625 432.976562 27.640625 L 432.976562 28.746094 C 433.691406 28.746094 435.792969 28.746094 437.558594 27.863281 L 437.558594 45.988281 C 437.558594 47.257812 437.503906 47.644531 434.355469 47.644531 L 433.195312 47.644531 L 433.195312 48.75 C 434.410156 48.640625 437.503906 48.640625 438.886719 48.640625 C 440.265625 48.640625 443.304688 48.640625 444.574219 48.75 L 444.574219 47.644531 L 443.414062 47.644531 C 440.265625 47.644531 440.15625 47.257812 440.15625 45.988281 Z M 440.15625 26.316406 "/>
<path style=" stroke:none;fill-rule:nonzero;fill:rgb(0%,0%,0%);fill-opacity:1;" d="M 566.082031 46.042969 L 569.78125 42.449219 C 575.25 37.589844 577.347656 35.710938 577.347656 32.226562 C 577.347656 28.195312 574.199219 25.429688 569.890625 25.429688 C 565.96875 25.429688 563.375 28.636719 563.375 31.785156 C 563.375 33.71875 565.085938 33.71875 565.195312 33.71875 C 565.804688 33.71875 567.019531 33.277344 567.019531 31.839844 C 567.019531 30.957031 566.410156 30.015625 565.195312 30.015625 C 564.921875 30.015625 564.808594 30.015625 564.699219 30.074219 C 565.527344 27.808594 567.40625 26.480469 569.449219 26.480469 C 572.652344 26.480469 574.144531 29.355469 574.144531 32.226562 C 574.144531 34.992188 572.378906 37.808594 570.445312 39.964844 L 563.761719 47.480469 C 563.375 47.867188 563.375 47.921875 563.375 48.75 L 576.355469 48.75 L 577.347656 42.671875 L 576.464844 42.671875 C 576.300781 43.722656 576.023438 45.269531 575.691406 45.765625 C 575.414062 46.042969 573.152344 46.042969 572.378906 46.042969 Z M 566.082031 46.042969 "/>
<path style=" stroke:none;fill-rule:nonzero;fill:rgb(0%,0%,0%);fill-opacity:1;" d="M 703.496094 36.425781 C 706.371094 35.488281 708.414062 33 708.414062 30.238281 C 708.414062 27.363281 705.320312 25.429688 701.953125 25.429688 C 698.417969 25.429688 695.765625 27.53125 695.765625 30.183594 C 695.765625 31.34375 696.539062 32.007812 697.53125 32.007812 C 698.636719 32.007812 699.300781 31.234375 699.300781 30.238281 C 699.300781 28.46875 697.699219 28.46875 697.144531 28.46875 C 698.25 26.757812 700.570312 26.316406 701.785156 26.316406 C 703.222656 26.316406 705.15625 27.089844 705.15625 30.238281 C 705.15625 30.625 705.101562 32.671875 704.214844 34.21875 C 703.167969 35.875 701.953125 35.984375 701.066406 36.039062 C 700.792969 36.039062 699.960938 36.152344 699.6875 36.152344 C 699.410156 36.152344 699.191406 36.207031 699.191406 36.539062 C 699.191406 36.925781 699.410156 36.925781 700.019531 36.925781 L 701.566406 36.925781 C 704.4375 36.925781 705.707031 39.300781 705.707031 42.78125 C 705.707031 47.535156 703.332031 48.53125 701.785156 48.53125 C 700.292969 48.53125 697.644531 47.921875 696.429688 45.878906 C 697.644531 46.042969 698.746094 45.269531 698.746094 43.941406 C 698.746094 42.671875 697.808594 42.007812 696.757812 42.007812 C 695.929688 42.007812 694.824219 42.507812 694.824219 44 C 694.824219 47.203125 698.085938 49.523438 701.894531 49.523438 C 706.148438 49.523438 709.351562 46.320312 709.351562 42.78125 C 709.351562 39.910156 707.144531 37.144531 703.496094 36.425781 Z M 703.496094 36.425781 "/>
<path style=" stroke:none;fill-rule:nonzero;fill:rgb(0%,0%,0%);fill-opacity:1;" d="M 440.15625 249.742188 C 440.15625 248.910156 440.15625 248.855469 439.382812 248.855469 C 437.226562 251.066406 434.136719 251.066406 432.976562 251.066406 L 432.976562 252.171875 C 433.691406 252.171875 435.792969 252.171875 437.558594 251.289062 L 437.558594 269.414062 C 437.558594 270.683594 437.503906 271.070312 434.355469 271.070312 L 433.195312 271.070312 L 433.195312 272.175781 C 434.410156 272.066406 437.503906 272.066406 438.886719 272.066406 C 440.265625 272.066406 443.304688 272.066406 444.574219 272.175781 L 444.574219 271.070312 L 443.414062 271.070312 C 440.265625 271.070312 440.15625 270.683594 440.15625 269.414062 Z M 440.15625 249.742188 "/>
<path style=" stroke:none;fill-rule:nonzero;fill:rgb(0%,0%,0%);fill-opacity:1;" d="M 566.082031 269.46875 L 569.78125 265.875 C 575.25 261.011719 577.347656 259.132812 577.347656 255.652344 C 577.347656 251.621094 574.199219 248.855469 569.890625 248.855469 C 565.96875 248.855469 563.375 252.0625 563.375 255.210938 C 563.375 257.144531 565.085938 257.144531 565.195312 257.144531 C 565.804688 257.144531 567.019531 256.703125 567.019531 255.265625 C 567.019531 254.382812 566.410156 253.441406 565.195312 253.441406 C 564.921875 253.441406 564.808594 253.441406 564.699219 253.5 C 565.527344 251.234375 567.40625 249.90625 569.449219 249.90625 C 572.652344 249.90625 574.144531 252.78125 574.144531 255.652344 C 574.144531 258.417969 572.378906 261.234375 570.445312 263.390625 L 563.761719 270.90625 C 563.375 271.292969 563.375 271.347656 563.375 272.175781 L 576.355469 272.175781 L 577.347656 266.097656 L 576.464844 266.097656 C 576.300781 267.148438 576.023438 268.695312 575.691406 269.191406 C 575.414062 269.46875 573.152344 269.46875 572.378906 269.46875 Z M 566.082031 269.46875 "/>
<path style=" stroke:none;fill-rule:nonzero;fill:rgb(0%,0%,0%);fill-opacity:1;" d="M 703.496094 259.851562 C 706.371094 258.914062 708.414062 256.425781 708.414062 253.664062 C 708.414062 250.789062 705.320312 248.855469 701.953125 248.855469 C 698.417969 248.855469 695.765625 250.957031 695.765625 253.609375 C 695.765625 254.769531 696.539062 255.433594 697.53125 255.433594 C 698.636719 255.433594 699.300781 254.660156 699.300781 253.664062 C 699.300781 251.894531 697.699219 251.894531 697.144531 251.894531 C 698.25 250.183594 700.570312 249.742188 701.785156 249.742188 C 703.222656 249.742188 705.15625 250.515625 705.15625 253.664062 C 705.15625 254.050781 705.101562 256.09375 704.214844 257.644531 C 703.167969 259.300781 701.953125 259.410156 701.066406 259.464844 C 700.792969 259.464844 699.960938 259.578125 699.6875 259.578125 C 699.410156 259.578125 699.191406 259.632812 699.191406 259.964844 C 699.191406 260.351562 699.410156 260.351562 700.019531 260.351562 L 701.566406 260.351562 C 704.4375 260.351562 705.707031 262.726562 705.707031 266.207031 C 705.707031 270.960938 703.332031 271.953125 701.785156 271.953125 C 700.292969 271.953125 697.644531 271.347656 696.429688 269.300781 C 697.644531 269.46875 698.746094 268.695312 698.746094 267.367188 C 698.746094 266.097656 697.808594 265.433594 696.757812 265.433594 C 695.929688 265.433594 694.824219 265.933594 694.824219 267.421875 C 694.824219 270.628906 698.085938 272.949219 701.894531 272.949219 C 706.148438 272.949219 709.351562 269.746094 709.351562 266.207031 C 709.351562 263.335938 707.144531 260.570312 703.496094 259.851562 Z M 703.496094 259.851562 "/>
<path style="fill:none;stroke-width:0.39848;stroke-linecap:butt;stroke-linejoin:miter;stroke:rgb(0%,0%,0%);stroke-opacity:1;stroke-miterlimit:10;" d="M 82.89336 57.613211 L 143.572742 6.172168 " transform="matrix(3.515468,0,0,-3.517072,171.759041,263.414993)"/>
<path style="fill:none;stroke-width:0.39848;stroke-linecap:round;stroke-linejoin:round;stroke:rgb(0%,0%,0%);stroke-opacity:1;stroke-miterlimit:10;" d="M -2.073636 2.391059 C -1.694246 0.957581 -0.850601 0.277412 0.000359058 -0.000566629 C -0.84955 -0.280143 -1.693652 -0.955136 -2.072802 -2.38911 " transform="matrix(2.691792,2.283073,2.282031,-2.693021,677.023764,242.157811)"/>
<path style="fill:none;stroke-width:0.39848;stroke-linecap:butt;stroke-linejoin:miter;stroke:rgb(0%,0%,0%);stroke-opacity:1;stroke-miterlimit:10;" d="M 113.386947 57.188941 L 113.386947 8.171345 " transform="matrix(3.515468,0,0,-3.517072,171.759041,263.414993)"/>
<path style="fill:none;stroke-width:0.39848;stroke-linecap:round;stroke-linejoin:round;stroke:rgb(0%,0%,0%);stroke-opacity:1;stroke-miterlimit:10;" d="M -2.070699 2.392079 C -1.694187 0.95757 -0.85009 0.278651 -0.0015508 -0.000250326 C -0.85009 -0.279152 -1.694187 -0.954737 -2.070699 -2.39258 " transform="matrix(0,3.517072,3.515468,0,570.368068,235.368736)"/>
<path style="fill:none;stroke-width:0.39848;stroke-linecap:butt;stroke-linejoin:miter;stroke:rgb(0%,0%,0%);stroke-opacity:1;stroke-miterlimit:10;" d="M 143.879422 57.613211 L 83.20004 6.172168 " transform="matrix(3.515468,0,0,-3.517072,171.759041,263.414993)"/>
<path style="fill:none;stroke-width:0.39848;stroke-linecap:round;stroke-linejoin:round;stroke:rgb(0%,0%,0%);stroke-opacity:1;stroke-miterlimit:10;" d="M -2.072445 2.388807 C -1.69245 0.954117 -0.849193 0.27984 0.0015605 -0.000451921 C -0.849399 -0.278431 -1.693044 -0.9586 -2.072435 -2.392078 " transform="matrix(-2.691792,2.283073,2.282031,2.693021,463.712263,242.157811)"/>
</g>
</svg>
