<?xml version="1.0" encoding="UTF-8"?>
<svg xmlns="http://www.w3.org/2000/svg" xmlns:xlink="http://www.w3.org/1999/xlink" width="450px" height="300px" viewBox="0 0 450 300" version="1.1">
<defs>
<clipPath id="clip1">
  <path d="M 2.773438 0 L 447.03125 0 L 447.03125 296.671875 L 2.773438 296.671875 Z M 2.773438 0 "/>
</clipPath>
</defs>
<g id="surface1">
<path style=" stroke:none;fill-rule:nonzero;fill:rgb(100%,74.901962%,74.901962%);fill-opacity:1;" d="M 446.300781 148.335938 C 446.300781 66.816406 347.183594 0.730469 224.902344 0.730469 C 102.640625 0.730469 3.503906 66.816406 3.503906 148.335938 C 3.503906 229.855469 102.640625 295.925781 224.902344 295.925781 C 347.183594 295.925781 446.300781 229.855469 446.300781 148.335938 Z M 446.300781 148.335938 "/>
<g clip-path="url(#clip1)" clip-rule="nonzero">
<path style="fill:none;stroke-width:0.3985;stroke-linecap:butt;stroke-linejoin:miter;stroke:rgb(0%,0%,0%);stroke-opacity:1;stroke-miterlimit:10;" d="M 59.776201 -0.000702825 C 59.776201 22.009568 33.014564 39.852769 -0.0013702 39.852769 C -33.012031 39.852769 -59.778942 22.009568 -59.778942 -0.000702825 C -59.778942 -22.010974 -33.012031 -39.849956 -0.0013702 -39.849956 C 33.014564 -39.849956 59.776201 -22.010974 59.776201 -0.000702825 Z M 59.776201 -0.000702825 " transform="matrix(3.703704,0,0,-3.703704,224.907419,148.333334)"/>
</g>
<path style=" stroke:none;fill-rule:nonzero;fill:rgb(0%,0%,0%);fill-opacity:1;" d="M 422.984375 135.25 C 422.984375 135.191406 422.871094 134.898438 422.578125 134.898438 C 422.460938 134.898438 422.402344 134.957031 421.992188 135.367188 L 419.417969 138.175781 C 419.066406 137.648438 417.367188 134.898438 413.273438 134.898438 C 405.078125 134.898438 396.769531 143.09375 396.769531 151.636719 C 396.769531 157.722656 401.097656 161.761719 406.777344 161.761719 C 409.9375 161.761719 412.746094 160.296875 414.734375 158.601562 C 418.1875 155.558594 418.773438 152.164062 418.773438 152.105469 C 418.773438 151.695312 418.421875 151.695312 418.363281 151.695312 C 418.128906 151.695312 417.953125 151.8125 417.835938 152.105469 C 417.542969 153.15625 416.664062 155.789062 414.148438 157.898438 C 411.574219 160.003906 409.234375 160.589844 407.359375 160.589844 C 404.027344 160.589844 400.105469 158.71875 400.105469 152.921875 C 400.105469 150.816406 400.867188 144.847656 404.550781 140.515625 C 406.835938 137.882812 410.289062 136.070312 413.5625 136.070312 C 417.367188 136.070312 419.535156 138.878906 419.535156 143.152344 C 419.535156 144.671875 419.417969 144.671875 419.417969 145.082031 C 419.417969 145.433594 419.824219 145.433594 419.941406 145.433594 C 420.46875 145.433594 420.46875 145.375 420.644531 144.671875 Z M 422.984375 135.25 "/>
<path style="fill-rule:nonzero;fill:rgb(0%,67.843139%,93.725491%);fill-opacity:1;stroke-width:0.3985;stroke-linecap:butt;stroke-linejoin:miter;stroke:rgb(0%,0%,0%);stroke-opacity:1;stroke-miterlimit:10;" d="M 32.722415 2.835352 C 32.722415 19.343318 19.342651 32.722028 2.834684 32.722028 C -13.672228 32.722028 -27.051992 19.343318 -27.051992 2.835352 C -27.051992 -13.671561 -13.672228 -27.054489 2.834684 -27.054489 C 19.342651 -27.054489 32.722415 -13.671561 32.722415 2.835352 Z M 32.722415 2.835352 " transform="matrix(3.703704,0,0,-3.703704,224.907419,148.333334)"/>
<path style=" stroke:none;fill-rule:nonzero;fill:rgb(0%,0%,0%);fill-opacity:1;" d="M 300.195312 147.574219 C 299.84375 148.976562 299.726562 149.269531 296.859375 149.269531 C 296.214844 149.269531 295.867188 149.269531 295.867188 150.03125 C 295.867188 150.441406 296.15625 150.441406 296.859375 150.441406 L 310.027344 150.441406 C 315.878906 150.441406 320.210938 146.109375 320.210938 142.480469 C 320.210938 139.789062 318.042969 137.683594 314.476562 137.273438 C 318.335938 136.570312 322.199219 133.820312 322.199219 130.308594 C 322.199219 127.558594 319.742188 125.21875 315.351562 125.21875 L 302.945312 125.21875 C 302.242188 125.21875 301.835938 125.21875 301.835938 125.980469 C 301.835938 126.390625 302.183594 126.390625 302.886719 126.390625 C 302.945312 126.390625 303.648438 126.390625 304.292969 126.449219 C 304.9375 126.503906 305.285156 126.5625 305.285156 127.03125 C 305.285156 127.148438 305.230469 127.265625 305.171875 127.734375 Z M 305.753906 136.921875 L 308.039062 127.792969 C 308.386719 126.449219 308.445312 126.390625 310.027344 126.390625 L 314.824219 126.390625 C 318.042969 126.390625 318.863281 128.554688 318.863281 130.191406 C 318.863281 133.410156 315.644531 136.921875 311.140625 136.921875 Z M 304.117188 149.269531 C 303.589844 149.269531 303.53125 149.269531 303.296875 149.269531 C 302.945312 149.210938 302.828125 149.210938 302.828125 148.859375 C 302.828125 148.800781 302.828125 148.683594 303.003906 148.042969 L 305.519531 137.742188 L 312.542969 137.742188 C 316.054688 137.742188 316.757812 140.492188 316.757812 142.074219 C 316.757812 145.699219 313.480469 149.269531 309.148438 149.269531 Z M 304.117188 149.269531 "/>
<path style="fill-rule:nonzero;fill:rgb(50.196081%,50.196081%,50.196081%);fill-opacity:1;stroke-width:0.3985;stroke-linecap:butt;stroke-linejoin:miter;stroke:rgb(0%,0%,0%);stroke-opacity:1;stroke-miterlimit:10;" d="M 1.460427 2.835352 C 1.460427 13.841014 -3.00301 22.760506 -8.505315 22.760506 C -14.008673 22.760506 -18.467892 13.841014 -18.467892 2.835352 C -18.467892 -8.169257 -14.008673 -17.088748 -8.505315 -17.088748 C -3.00301 -17.088748 1.460427 -8.169257 1.460427 2.835352 Z M 1.460427 2.835352 " transform="matrix(3.703704,0,0,-3.703704,224.907419,148.333334)"/>
<path style=" stroke:none;fill-rule:nonzero;fill:rgb(0%,0%,0%);fill-opacity:1;" d="M 186.1875 146.167969 C 184.722656 148.683594 183.261719 149.210938 181.621094 149.269531 C 181.210938 149.328125 180.863281 149.328125 180.863281 150.03125 C 180.863281 150.265625 181.035156 150.441406 181.328125 150.441406 C 182.324219 150.441406 183.496094 150.324219 184.546875 150.324219 C 185.71875 150.324219 187.007812 150.441406 188.234375 150.441406 C 188.410156 150.441406 188.9375 150.441406 188.9375 149.738281 C 188.9375 149.328125 188.585938 149.269531 188.351562 149.269531 C 187.472656 149.210938 186.597656 148.917969 186.597656 147.984375 C 186.597656 147.574219 186.832031 147.164062 187.125 146.636719 L 189.933594 141.898438 L 199.179688 141.898438 C 199.238281 142.65625 199.765625 147.691406 199.765625 148.101562 C 199.765625 149.210938 197.832031 149.269531 197.128906 149.269531 C 196.605469 149.269531 196.253906 149.269531 196.253906 150.03125 C 196.253906 150.441406 196.660156 150.441406 196.71875 150.441406 C 198.242188 150.441406 199.820312 150.324219 201.34375 150.324219 C 202.28125 150.324219 204.621094 150.441406 205.558594 150.441406 C 205.734375 150.441406 206.199219 150.441406 206.199219 149.679688 C 206.199219 149.269531 205.851562 149.269531 205.324219 149.269531 C 203.039062 149.269531 203.039062 149.035156 202.921875 147.984375 L 200.699219 124.867188 C 200.640625 124.164062 200.640625 123.988281 199.996094 123.988281 C 199.414062 123.988281 199.238281 124.28125 199.0625 124.632812 Z M 190.632812 140.785156 L 197.890625 128.554688 L 199.0625 140.785156 Z M 190.632812 140.785156 "/>
</g>
</svg>
