<?xml version="1.0" encoding="UTF-8"?>
<svg xmlns="http://www.w3.org/2000/svg" xmlns:xlink="http://www.w3.org/1999/xlink" width="450pt" height="300pt" viewBox="0 0 450 300" version="1.1">
<defs>
<clipPath id="clip1">
  <path d="M 2.402344 0 L 447.214844 0 L 447.214844 297.042969 L 2.402344 297.042969 Z M 2.402344 0 "/>
</clipPath>
</defs>
<g id="surface1">
<path style=" stroke:none;fill-rule:nonzero;fill:rgb(100%,74.901961%,74.901961%);fill-opacity:1;" d="M 446.484375 148.519531 C 446.484375 66.898438 347.242188 0.730469 224.808594 0.730469 C 102.390625 0.730469 3.132812 66.898438 3.132812 148.519531 C 3.132812 230.140625 102.390625 296.292969 224.808594 296.292969 C 347.242188 296.292969 446.484375 230.140625 446.484375 148.519531 Z M 446.484375 148.519531 "/>
<g clip-path="url(#clip1)" clip-rule="nonzero">
<path style="fill:none;stroke-width:0.3985;stroke-linecap:butt;stroke-linejoin:miter;stroke:rgb(0%,0%,0%);stroke-opacity:1;stroke-miterlimit:10;" d="M 59.776398 -0.000210674 C 59.776398 22.009969 33.014462 39.853015 -0.00133449 39.853015 C -33.012918 39.853015 -59.779067 22.009969 -59.779067 -0.000210674 C -59.779067 -22.010391 -33.012918 -39.849223 -0.00133449 -39.849223 C 33.014462 -39.849223 59.776398 -22.010391 59.776398 -0.000210674 Z M 59.776398 -0.000210674 " transform="matrix(3.708334,0,0,-3.708334,224.813542,148.51875)"/>
</g>
<path style=" stroke:none;fill-rule:nonzero;fill:rgb(0%,0%,0%);fill-opacity:1;" d="M 423.140625 135.417969 C 423.140625 135.359375 423.023438 135.066406 422.730469 135.066406 C 422.613281 135.066406 422.554688 135.125 422.144531 135.535156 L 419.566406 138.347656 C 419.214844 137.820312 417.515625 135.066406 413.414062 135.066406 C 405.210938 135.066406 396.890625 143.269531 396.890625 151.824219 C 396.890625 157.917969 401.226562 161.960938 406.910156 161.960938 C 410.074219 161.960938 412.886719 160.496094 414.878906 158.796875 C 418.335938 155.75 418.921875 152.351562 418.921875 152.292969 C 418.921875 151.882812 418.570312 151.882812 418.511719 151.882812 C 418.277344 151.882812 418.101562 152 417.984375 152.292969 C 417.691406 153.347656 416.8125 155.984375 414.292969 158.09375 C 411.714844 160.203125 409.371094 160.789062 407.496094 160.789062 C 404.15625 160.789062 400.230469 158.914062 400.230469 153.113281 C 400.230469 151.003906 400.992188 145.027344 404.683594 140.691406 C 406.96875 138.054688 410.425781 136.238281 413.707031 136.238281 C 417.515625 136.238281 419.683594 139.050781 419.683594 143.328125 C 419.683594 144.851562 419.566406 144.851562 419.566406 145.261719 C 419.566406 145.613281 419.976562 145.613281 420.09375 145.613281 C 420.621094 145.613281 420.621094 145.554688 420.796875 144.851562 Z M 423.140625 135.417969 "/>
<path style="fill-rule:nonzero;fill:rgb(0%,67.843137%,93.72549%);fill-opacity:1;stroke-width:0.3985;stroke-linecap:butt;stroke-linejoin:miter;stroke:rgb(0%,0%,0%);stroke-opacity:1;stroke-miterlimit:10;" d="M 32.721625 2.835463 C 32.721625 19.343888 19.342764 32.722749 2.835393 32.722749 C -13.673032 32.722749 -27.051893 19.343888 -27.051893 2.835463 C -27.051893 -13.671909 -13.673032 -27.054983 2.835393 -27.054983 C 19.342764 -27.054983 32.721625 -13.671909 32.721625 2.835463 Z M 32.721625 2.835463 " transform="matrix(3.708334,0,0,-3.708334,224.813542,148.51875)"/>
<path style=" stroke:none;fill-rule:nonzero;fill:rgb(0%,0%,0%);fill-opacity:1;" d="M 300.195312 147.757812 C 299.84375 149.164062 299.726562 149.457031 296.855469 149.457031 C 296.210938 149.457031 295.859375 149.457031 295.859375 150.21875 C 295.859375 150.628906 296.152344 150.628906 296.855469 150.628906 L 310.039062 150.628906 C 315.898438 150.628906 320.234375 146.292969 320.234375 142.660156 C 320.234375 139.964844 318.066406 137.855469 314.492188 137.445312 C 318.359375 136.742188 322.226562 133.988281 322.226562 130.472656 C 322.226562 127.71875 319.765625 125.375 315.371094 125.375 L 302.949219 125.375 C 302.246094 125.375 301.835938 125.375 301.835938 126.136719 C 301.835938 126.546875 302.1875 126.546875 302.890625 126.546875 C 302.949219 126.546875 303.652344 126.546875 304.296875 126.605469 C 304.941406 126.664062 305.292969 126.722656 305.292969 127.191406 C 305.292969 127.308594 305.234375 127.425781 305.175781 127.894531 Z M 305.761719 137.09375 L 308.046875 127.953125 C 308.398438 126.605469 308.457031 126.546875 310.039062 126.546875 L 314.84375 126.546875 C 318.066406 126.546875 318.886719 128.714844 318.886719 130.355469 C 318.886719 133.578125 315.664062 137.09375 311.152344 137.09375 Z M 304.121094 149.457031 C 303.59375 149.457031 303.535156 149.457031 303.300781 149.457031 C 302.949219 149.398438 302.832031 149.398438 302.832031 149.046875 C 302.832031 148.988281 302.832031 148.871094 303.007812 148.226562 L 305.527344 137.914062 L 312.558594 137.914062 C 316.074219 137.914062 316.777344 140.667969 316.777344 142.25 C 316.777344 145.882812 313.496094 149.457031 309.160156 149.457031 Z M 304.121094 149.457031 "/>
<path style="fill-rule:nonzero;fill:rgb(50.196078%,50.196078%,50.196078%);fill-opacity:1;stroke-width:0.3985;stroke-linecap:butt;stroke-linejoin:miter;stroke:rgb(0%,0%,0%);stroke-opacity:1;stroke-miterlimit:10;" d="M 1.460744 2.835463 C 1.460744 13.84108 -3.003441 22.759969 -8.506249 22.759969 C -14.008004 22.759969 -18.467976 13.84108 -18.467976 2.835463 C -18.467976 -8.1691 -14.008004 -17.089043 -8.506249 -17.089043 C -3.003441 -17.089043 1.460744 -8.1691 1.460744 2.835463 Z M 1.460744 2.835463 " transform="matrix(3.708334,0,0,-3.708334,224.813542,148.51875)"/>
<path style=" stroke:none;fill-rule:nonzero;fill:rgb(0%,0%,0%);fill-opacity:1;" d="M 186.042969 146.351562 C 184.578125 148.871094 183.113281 149.398438 181.472656 149.457031 C 181.0625 149.515625 180.710938 149.515625 180.710938 150.21875 C 180.710938 150.453125 180.886719 150.628906 181.179688 150.628906 C 182.175781 150.628906 183.347656 150.511719 184.402344 150.511719 C 185.574219 150.511719 186.863281 150.628906 188.09375 150.628906 C 188.269531 150.628906 188.796875 150.628906 188.796875 149.925781 C 188.796875 149.515625 188.445312 149.457031 188.210938 149.457031 C 187.332031 149.398438 186.453125 149.105469 186.453125 148.167969 C 186.453125 147.757812 186.6875 147.347656 186.980469 146.820312 L 189.792969 142.074219 L 199.050781 142.074219 C 199.109375 142.835938 199.636719 147.875 199.636719 148.285156 C 199.636719 149.398438 197.703125 149.457031 197 149.457031 C 196.472656 149.457031 196.121094 149.457031 196.121094 150.21875 C 196.121094 150.628906 196.53125 150.628906 196.589844 150.628906 C 198.113281 150.628906 199.695312 150.511719 201.21875 150.511719 C 202.15625 150.511719 204.5 150.628906 205.4375 150.628906 C 205.613281 150.628906 206.082031 150.628906 206.082031 149.867188 C 206.082031 149.457031 205.730469 149.457031 205.203125 149.457031 C 202.917969 149.457031 202.917969 149.222656 202.800781 148.167969 L 200.574219 125.023438 C 200.515625 124.320312 200.515625 124.144531 199.871094 124.144531 C 199.285156 124.144531 199.109375 124.4375 198.933594 124.789062 Z M 190.496094 140.960938 L 197.761719 128.714844 L 198.933594 140.960938 Z M 190.496094 140.960938 "/>
</g>
</svg>
