<?xml version="1.0" encoding="UTF-8"?>
<svg xmlns="http://www.w3.org/2000/svg" xmlns:xlink="http://www.w3.org/1999/xlink" width="370pt" height="300pt" viewBox="0 0 370 300" version="1.1">
<defs>
<clipPath id="clip1">
  <path d="M 1.746094 47 L 175 47 L 175 296.257812 L 1.746094 296.257812 Z M 1.746094 47 "/>
</clipPath>
<clipPath id="clip2">
  <path d="M 195 47 L 368.570312 47 L 368.570312 296.257812 L 195 296.257812 Z M 195 47 "/>
</clipPath>
<clipPath id="clip3">
  <path d="M 1.746094 103 L 170 103 L 170 290 L 1.746094 290 Z M 1.746094 103 "/>
</clipPath>
<clipPath id="clip4">
  <path d="M 253 139 L 368.570312 139 L 368.570312 294 L 253 294 Z M 253 139 "/>
</clipPath>
</defs>
<g id="surface1">
<path style=" stroke:none;fill-rule:nonzero;fill:rgb(100%,74.901961%,74.901961%);fill-opacity:1;" d="M 153.296875 182.285156 C 153.296875 119.742188 119.535156 69.058594 77.910156 69.058594 C 36.265625 69.058594 2.507812 119.742188 2.507812 182.285156 C 2.507812 244.808594 36.265625 295.496094 77.910156 295.496094 C 119.535156 295.496094 153.296875 244.808594 153.296875 182.285156 Z M 153.296875 182.285156 "/>
<g clip-path="url(#clip1)" clip-rule="nonzero">
<path style="fill:none;stroke-width:0.3985;stroke-linecap:butt;stroke-linejoin:miter;stroke:rgb(0%,0%,0%);stroke-opacity:1;stroke-miterlimit:10;" d="M 19.924855 -0.00183191 C 19.924855 16.508678 11.002379 29.888471 0.00181264 29.888471 C -11.003916 29.888471 -19.925359 16.508678 -19.925359 -0.00183191 C -19.925359 -16.507186 -11.003916 -29.88801 0.00181264 -29.88801 C 11.002379 -29.88801 19.924855 -16.507186 19.924855 -0.00183191 Z M 19.924855 -0.00183191 " transform="matrix(3.783896,0,0,-3.78807,77.903297,182.278217)"/>
</g>
<path style=" stroke:none;fill-rule:nonzero;fill:rgb(0%,67.843137%,93.72549%);fill-opacity:1;" d="M 367.824219 182.285156 C 367.824219 119.742188 334.0625 69.058594 292.421875 69.058594 C 250.78125 69.058594 217.035156 119.742188 217.035156 182.285156 C 217.035156 244.808594 250.78125 295.496094 292.421875 295.496094 C 334.0625 295.496094 367.824219 244.808594 367.824219 182.285156 Z M 367.824219 182.285156 "/>
<g clip-path="url(#clip2)" clip-rule="nonzero">
<path style="fill:none;stroke-width:0.3985;stroke-linecap:butt;stroke-linejoin:miter;stroke:rgb(0%,0%,0%);stroke-opacity:1;stroke-miterlimit:10;" d="M 76.619686 -0.00183191 C 76.619686 16.508678 67.697211 29.888471 56.692515 29.888471 C 45.687819 29.888471 36.769472 16.508678 36.769472 -0.00183191 C 36.769472 -16.507186 45.687819 -29.88801 56.692515 -29.88801 C 67.697211 -29.88801 76.619686 -16.507186 76.619686 -0.00183191 Z M 76.619686 -0.00183191 " transform="matrix(3.783896,0,0,-3.78807,77.903297,182.278217)"/>
</g>
<path style=" stroke:none;fill-rule:nonzero;fill:rgb(55.294118%,52.54902%,0%);fill-opacity:1;" d="M 148.429688 196.246094 C 148.429688 156.632812 119.730469 124.527344 84.34375 124.527344 C 48.945312 124.527344 20.246094 156.632812 20.246094 196.246094 C 20.246094 235.839844 48.945312 267.945312 84.34375 267.945312 C 119.730469 267.945312 148.429688 235.839844 148.429688 196.246094 Z M 148.429688 196.246094 "/>
<g clip-path="url(#clip3)" clip-rule="nonzero">
<path style="fill:none;stroke-width:0.3985;stroke-linecap:butt;stroke-linejoin:miter;stroke:rgb(0%,0%,0%);stroke-opacity:1;stroke-miterlimit:10;" d="M 18.638565 -3.687333 C 18.638565 6.770045 11.053996 15.24546 1.702069 15.24546 C -7.652955 15.24546 -15.237523 6.770045 -15.237523 -3.687333 C -15.237523 -14.139555 -7.652955 -22.614971 1.702069 -22.614971 C 11.053996 -22.614971 18.638565 -14.139555 18.638565 -3.687333 Z M 18.638565 -3.687333 " transform="matrix(3.783896,0,0,-3.78807,77.903297,182.278217)"/>
</g>
<path style=" stroke:none;fill-rule:nonzero;fill:rgb(0%,0%,0%);fill-opacity:1;" d="M 47.539062 207.417969 L 49.691406 207.417969 C 50.046875 207.417969 50.109375 207.417969 50.167969 207.296875 C 50.285156 207.238281 50.347656 207 50.347656 206.878906 C 50.347656 206.582031 50.046875 206.582031 49.75 206.582031 L 47.71875 206.582031 C 47.957031 205.144531 48.316406 202.753906 48.554688 202.515625 C 48.851562 202.15625 49.152344 202.035156 49.449219 202.035156 C 49.570312 202.035156 49.988281 202.035156 50.40625 202.214844 C 49.628906 202.574219 49.628906 203.230469 49.628906 203.292969 C 49.628906 203.769531 49.988281 204.070312 50.464844 204.070312 C 50.945312 204.070312 51.660156 203.652344 51.660156 202.875 C 51.660156 201.738281 50.40625 201.378906 49.511719 201.378906 C 47.121094 201.378906 46.644531 203.652344 46.464844 204.488281 C 46.285156 205.324219 46.40625 204.785156 46.046875 206.582031 L 44.375 206.582031 C 44.015625 206.582031 43.71875 206.582031 43.71875 207.117188 C 43.71875 207.417969 43.957031 207.417969 44.316406 207.417969 L 45.925781 207.417969 C 45.570312 209.269531 44.792969 214.53125 44.253906 216.503906 C 44.136719 216.984375 43.71875 217.941406 42.941406 217.941406 C 42.820312 217.941406 42.402344 217.941406 42.105469 217.761719 C 42.582031 217.523438 42.820312 217.042969 42.820312 216.683594 C 42.820312 216.207031 42.464844 215.90625 42.046875 215.90625 C 41.507812 215.90625 40.851562 216.324219 40.851562 217.101562 C 40.851562 218.300781 42.222656 218.597656 42.941406 218.597656 C 44.015625 218.597656 44.851562 217.699219 45.269531 217.101562 C 46.046875 216.085938 46.464844 213.574219 46.523438 213.515625 Z M 47.539062 207.417969 "/>
<path style=" stroke:none;fill-rule:nonzero;fill:rgb(0%,0%,0%);fill-opacity:1;" d="M 70.304688 202.914062 C 70.601562 202.914062 71.140625 202.914062 71.140625 202.375 C 71.140625 201.835938 70.601562 201.835938 70.304688 201.835938 L 57.523438 201.835938 C 57.226562 201.835938 56.746094 201.835938 56.746094 202.375 C 56.746094 202.914062 57.226562 202.914062 57.523438 202.914062 Z M 70.304688 202.914062 "/>
<path style=" stroke:none;fill-rule:nonzero;fill:rgb(0%,0%,0%);fill-opacity:1;" d="M 81.644531 195.078125 C 81.644531 194.542969 81.585938 194.542969 80.929688 194.542969 C 79.613281 195.738281 77.523438 195.738281 77.164062 195.738281 L 76.808594 195.738281 L 76.808594 196.574219 L 77.164062 196.574219 C 77.582031 196.574219 78.777344 196.515625 79.914062 196.035156 L 79.914062 205.484375 C 79.914062 206.082031 79.914062 206.261719 77.882812 206.261719 L 76.925781 206.261719 L 76.925781 207.097656 C 78 207.039062 79.671875 207.039062 80.75 207.039062 C 81.882812 207.039062 83.554688 207.039062 84.570312 207.097656 L 84.570312 206.261719 L 83.617188 206.261719 C 81.644531 206.261719 81.644531 206.082031 81.644531 205.484375 Z M 81.644531 195.078125 "/>
<path style=" stroke:none;fill-rule:nonzero;fill:rgb(0%,0%,0%);fill-opacity:1;" d="M 97.136719 201.019531 C 97.136719 200.960938 97.195312 200.898438 97.195312 200.78125 C 97.195312 200.722656 97.195312 200.542969 96.898438 200.542969 C 96.539062 200.542969 91.640625 203.589844 91.640625 209.988281 C 91.640625 216.386719 96.539062 219.433594 96.898438 219.433594 C 97.195312 219.433594 97.195312 219.253906 97.195312 219.195312 C 97.195312 219.015625 97.136719 218.957031 97.078125 218.898438 C 93.730469 216.265625 93.136719 212.441406 93.136719 209.988281 C 93.136719 205.382812 95.226562 202.335938 97.136719 201.019531 Z M 97.136719 201.019531 "/>
<path style=" stroke:none;fill-rule:nonzero;fill:rgb(0%,0%,0%);fill-opacity:1;" d="M 114.929688 204.128906 C 115.050781 204.007812 115.050781 203.949219 115.289062 203.652344 C 115.648438 203.292969 116.183594 202.753906 117.378906 202.632812 C 117.617188 202.632812 117.917969 202.632812 117.917969 202.15625 C 117.917969 202.035156 117.855469 201.796875 117.617188 201.796875 C 117.378906 201.796875 117.019531 201.855469 116.78125 201.855469 C 116.484375 201.855469 116.183594 201.855469 115.886719 201.855469 C 115.527344 201.855469 115.167969 201.855469 114.871094 201.855469 C 114.511719 201.855469 114.09375 201.796875 113.796875 201.796875 C 113.496094 201.796875 113.316406 202.035156 113.316406 202.335938 C 113.316406 202.632812 113.617188 202.632812 113.734375 202.632812 C 114.035156 202.695312 114.511719 202.753906 114.511719 203.113281 C 114.511719 203.292969 114.453125 203.472656 114.214844 203.828125 L 107.585938 212.976562 L 105.375 203.292969 C 105.375 203.113281 105.375 203.113281 105.375 203.050781 C 105.375 202.753906 105.972656 202.632812 106.628906 202.632812 C 106.867188 202.632812 107.167969 202.632812 107.167969 202.15625 C 107.167969 201.976562 107.046875 201.796875 106.867188 201.796875 C 106.449219 201.796875 105.972656 201.855469 105.554688 201.855469 C 105.136719 201.855469 104.65625 201.855469 104.238281 201.855469 C 103.820312 201.855469 103.402344 201.855469 103.046875 201.855469 C 102.6875 201.855469 102.269531 201.796875 101.910156 201.796875 C 101.792969 201.796875 101.433594 201.796875 101.433594 202.335938 C 101.433594 202.632812 101.730469 202.632812 102.089844 202.632812 C 103.164062 202.632812 103.222656 202.8125 103.285156 203.171875 L 105.851562 214.59375 C 105.972656 214.949219 106.03125 215.128906 106.507812 215.128906 C 106.6875 215.128906 106.925781 215.128906 107.285156 214.710938 Z M 114.929688 204.128906 "/>
<path style=" stroke:none;fill-rule:nonzero;fill:rgb(0%,0%,0%);fill-opacity:1;" d="M 127.289062 209.988281 C 127.289062 203.589844 122.390625 200.542969 122.03125 200.542969 C 121.734375 200.542969 121.734375 200.78125 121.734375 200.78125 C 121.734375 200.839844 121.734375 200.960938 121.851562 201.078125 C 124.660156 203.292969 125.792969 206.582031 125.792969 209.988281 C 125.792969 211.664062 125.496094 213.457031 124.839844 215.011719 C 123.941406 217.164062 122.75 218.179688 121.851562 218.957031 C 121.792969 219.015625 121.734375 219.078125 121.734375 219.195312 C 121.734375 219.195312 121.734375 219.433594 122.03125 219.433594 C 122.390625 219.433594 127.289062 216.386719 127.289062 209.988281 Z M 127.289062 209.988281 "/>
<path style=" stroke:none;fill-rule:nonzero;fill:rgb(100%,50.196078%,0%);fill-opacity:1;" d="M 346.1875 232.941406 C 362.34375 203.761719 362.148438 172.746094 345.753906 163.660156 C 329.359375 154.554688 302.992188 170.832031 286.835938 199.996094 C 270.683594 229.171875 270.875 260.1875 287.269531 269.277344 C 303.664062 278.378906 330.03125 262.101562 346.1875 232.941406 Z M 346.1875 232.941406 "/>
<g clip-path="url(#clip4)" clip-rule="nonzero">
<path style="fill:none;stroke-width:0.3985;stroke-linecap:butt;stroke-linejoin:miter;stroke:rgb(0%,0%,0%);stroke-opacity:1;stroke-miterlimit:10;" d="M 70.90158 -13.374406 C 75.171319 -5.671358 75.119703 2.516353 70.786991 4.91492 C 66.454279 7.318642 59.486014 3.02164 55.216275 -4.677283 C 50.947568 -12.3793 50.998152 -20.567012 55.330864 -22.966609 C 59.663576 -25.3693 66.63184 -21.072299 70.90158 -13.374406 Z M 70.90158 -13.374406 " transform="matrix(3.783896,0,0,-3.78807,77.903297,182.278217)"/>
</g>
<path style=" stroke:none;fill-rule:nonzero;fill:rgb(0%,0%,0%);fill-opacity:1;" d="M 332.703125 223.074219 C 332.820312 222.953125 332.820312 222.894531 333.058594 222.59375 C 333.417969 222.234375 333.957031 221.699219 335.148438 221.578125 C 335.390625 221.578125 335.6875 221.578125 335.6875 221.101562 C 335.6875 220.980469 335.628906 220.742188 335.390625 220.742188 C 335.148438 220.742188 334.792969 220.800781 334.550781 220.800781 C 334.253906 220.800781 333.957031 220.800781 333.65625 220.800781 C 333.296875 220.800781 332.941406 220.800781 332.640625 220.800781 C 332.285156 220.800781 331.863281 220.742188 331.566406 220.742188 C 331.269531 220.742188 331.089844 220.980469 331.089844 221.28125 C 331.089844 221.578125 331.386719 221.578125 331.507812 221.578125 C 331.804688 221.636719 332.285156 221.699219 332.285156 222.058594 C 332.285156 222.234375 332.222656 222.414062 331.984375 222.773438 L 325.355469 231.921875 L 323.144531 222.234375 C 323.144531 222.058594 323.144531 222.058594 323.144531 221.996094 C 323.144531 221.699219 323.742188 221.578125 324.398438 221.578125 C 324.636719 221.578125 324.9375 221.578125 324.9375 221.101562 C 324.9375 220.921875 324.816406 220.742188 324.636719 220.742188 C 324.21875 220.742188 323.742188 220.800781 323.324219 220.800781 C 322.90625 220.800781 322.429688 220.800781 322.011719 220.800781 C 321.59375 220.800781 321.175781 220.800781 320.816406 220.800781 C 320.457031 220.800781 320.039062 220.742188 319.679688 220.742188 C 319.5625 220.742188 319.203125 220.742188 319.203125 221.28125 C 319.203125 221.578125 319.503906 221.578125 319.859375 221.578125 C 320.9375 221.578125 320.996094 221.757812 321.054688 222.117188 L 323.625 233.535156 C 323.742188 233.894531 323.800781 234.074219 324.28125 234.074219 C 324.460938 234.074219 324.699219 234.074219 325.058594 233.65625 Z M 332.703125 223.074219 "/>
<path style=" stroke:none;fill-rule:nonzero;fill:rgb(0%,0%,0%);fill-opacity:1;" d="M 72 48.542969 C 71.105469 49.976562 70.210938 50.632812 68.65625 50.753906 C 68.417969 50.8125 68.058594 50.8125 68.058594 51.292969 C 68.058594 51.589844 68.296875 51.710938 68.417969 51.710938 C 69.136719 51.710938 69.972656 51.589844 70.6875 51.589844 C 71.582031 51.589844 72.660156 51.710938 73.433594 51.710938 C 73.554688 51.710938 73.972656 51.710938 73.972656 51.113281 C 73.972656 50.8125 73.613281 50.753906 73.496094 50.753906 C 73.316406 50.753906 72.359375 50.695312 72.359375 49.976562 C 72.359375 49.679688 72.597656 49.199219 72.71875 48.960938 L 74.867188 45.671875 L 82.394531 45.671875 L 83.050781 50.097656 C 82.929688 50.335938 82.75 50.753906 81.199219 50.753906 C 80.902344 50.753906 80.542969 50.753906 80.542969 51.351562 C 80.542969 51.472656 80.601562 51.710938 80.960938 51.710938 C 81.738281 51.710938 83.589844 51.589844 84.363281 51.589844 C 84.84375 51.589844 85.4375 51.652344 85.917969 51.652344 C 86.394531 51.652344 86.933594 51.710938 87.410156 51.710938 C 87.769531 51.710938 87.949219 51.472656 87.949219 51.171875 C 87.949219 50.753906 87.648438 50.753906 87.230469 50.753906 C 85.679688 50.753906 85.617188 50.574219 85.558594 49.917969 L 83.230469 33.59375 C 83.167969 33.054688 83.109375 32.878906 82.574219 32.878906 C 82.09375 32.878906 81.914062 33.117188 81.675781 33.476562 Z M 75.464844 44.714844 L 81.019531 36.105469 L 82.273438 44.714844 Z M 75.464844 44.714844 "/>
<path style=" stroke:none;fill-rule:nonzero;fill:rgb(0%,0%,0%);fill-opacity:1;" d="M 79.226562 98.824219 C 79.226562 98.105469 79.167969 98.105469 78.449219 98.105469 C 76.777344 99.71875 74.332031 99.777344 73.253906 99.777344 L 73.253906 100.734375 C 73.914062 100.734375 75.644531 100.734375 77.078125 99.957031 L 77.078125 113.472656 C 77.078125 114.308594 77.078125 114.667969 74.449219 114.667969 L 73.433594 114.667969 L 73.433594 115.625 C 73.914062 115.625 77.195312 115.503906 78.152344 115.503906 C 78.988281 115.503906 82.273438 115.625 82.871094 115.625 L 82.871094 114.667969 L 81.855469 114.667969 C 79.226562 114.667969 79.226562 114.308594 79.226562 113.472656 Z M 79.226562 98.824219 "/>
<path style=" stroke:none;fill-rule:nonzero;fill:rgb(0%,0%,0%);fill-opacity:1;" d="M 116.542969 154.269531 L 116.542969 153.316406 L 113.617188 153.316406 L 113.617188 141.476562 C 113.617188 140.9375 113.617188 140.757812 113.019531 140.757812 C 112.71875 140.757812 112.601562 140.757812 112.363281 141.117188 L 103.582031 153.316406 L 103.582031 154.269531 L 111.347656 154.269531 L 111.347656 156.421875 C 111.347656 157.320312 111.347656 157.621094 109.195312 157.621094 L 108.480469 157.621094 L 108.480469 158.578125 C 109.851562 158.515625 111.523438 158.457031 112.480469 158.457031 C 113.4375 158.457031 115.109375 158.515625 116.421875 158.578125 L 116.421875 157.621094 L 115.765625 157.621094 C 113.617188 157.621094 113.617188 157.320312 113.617188 156.421875 L 113.617188 154.269531 Z M 111.523438 143.628906 L 111.523438 153.316406 L 104.597656 153.316406 Z M 111.523438 143.628906 "/>
<path style=" stroke:none;fill-rule:nonzero;fill:rgb(0%,0%,0%);fill-opacity:1;" d="M 40.804688 186.007812 L 39.910156 186.007812 C 39.847656 186.546875 39.550781 188.097656 39.253906 188.398438 C 39.011719 188.519531 36.984375 188.519531 36.625 188.519531 L 31.785156 188.519531 C 34.535156 186.066406 35.429688 185.347656 37.042969 184.09375 C 39.011719 182.539062 40.804688 180.925781 40.804688 178.414062 C 40.804688 175.183594 37.996094 173.273438 34.652344 173.273438 C 31.367188 173.273438 29.160156 175.542969 29.160156 177.996094 C 29.160156 179.308594 30.292969 179.429688 30.53125 179.429688 C 31.191406 179.429688 31.964844 179.011719 31.964844 178.054688 C 31.964844 177.578125 31.785156 176.679688 30.414062 176.679688 C 31.191406 174.765625 32.980469 174.167969 34.234375 174.167969 C 36.863281 174.167969 38.238281 176.261719 38.238281 178.414062 C 38.238281 180.6875 36.625 182.539062 35.789062 183.496094 L 29.398438 189.773438 C 29.160156 190.011719 29.160156 190.074219 29.160156 190.789062 L 40.027344 190.789062 Z M 40.804688 186.007812 "/>
<path style=" stroke:none;fill-rule:nonzero;fill:rgb(0%,0%,0%);fill-opacity:1;" d="M 99.066406 246.367188 C 101.097656 246.367188 102.589844 247.804688 102.589844 250.671875 C 102.589844 253.902344 100.679688 254.917969 99.125 254.917969 C 98.109375 254.917969 95.78125 254.621094 94.644531 253.066406 C 95.902344 253.003906 96.199219 252.109375 96.199219 251.570312 C 96.199219 250.734375 95.542969 250.136719 94.765625 250.136719 C 93.988281 250.136719 93.273438 250.554688 93.273438 251.628906 C 93.273438 254.140625 96.019531 255.753906 99.183594 255.753906 C 102.886719 255.753906 105.398438 253.304688 105.398438 250.671875 C 105.398438 248.582031 103.722656 246.546875 100.796875 245.890625 C 103.605469 244.933594 104.558594 242.902344 104.558594 241.347656 C 104.558594 239.253906 102.171875 237.699219 99.246094 237.699219 C 96.320312 237.699219 94.109375 239.074219 94.109375 241.226562 C 94.109375 242.125 94.644531 242.601562 95.484375 242.601562 C 96.257812 242.601562 96.796875 242.003906 96.796875 241.285156 C 96.796875 240.507812 96.257812 239.972656 95.484375 239.910156 C 96.378906 238.714844 98.230469 238.417969 99.183594 238.417969 C 100.378906 238.417969 102.050781 239.015625 102.050781 241.347656 C 102.050781 242.421875 101.632812 243.617188 100.976562 244.457031 C 100.082031 245.472656 99.363281 245.53125 98.050781 245.589844 C 97.394531 245.652344 97.332031 245.652344 97.214844 245.652344 C 97.15625 245.652344 96.914062 245.710938 96.914062 246.011719 C 96.914062 246.367188 97.15625 246.367188 97.632812 246.367188 Z M 99.066406 246.367188 "/>
<path style=" stroke:none;fill-rule:nonzero;fill:rgb(0%,0%,0%);fill-opacity:1;" d="M 285.40625 49.679688 C 285.167969 50.574219 285.109375 50.753906 283.078125 50.753906 C 282.660156 50.753906 282.300781 50.753906 282.300781 51.292969 C 282.300781 51.710938 282.601562 51.710938 283.078125 51.710938 L 293.292969 51.710938 C 297.710938 51.710938 301.113281 48.660156 301.113281 46.03125 C 301.113281 44.175781 299.441406 42.5625 296.636719 42.265625 C 299.800781 41.667969 302.488281 39.691406 302.488281 37.421875 C 302.488281 35.386719 300.457031 33.65625 296.996094 33.65625 L 287.4375 33.65625 C 286.902344 33.65625 286.542969 33.65625 286.542969 34.253906 C 286.542969 34.609375 286.902344 34.609375 287.4375 34.609375 C 287.4375 34.609375 287.917969 34.609375 288.394531 34.671875 C 288.992188 34.730469 289.050781 34.789062 289.050781 35.03125 C 289.050781 35.089844 289.050781 35.210938 288.929688 35.628906 Z M 289.648438 41.964844 L 291.261719 35.507812 C 291.441406 34.671875 291.5 34.609375 292.574219 34.609375 L 296.574219 34.609375 C 299.261719 34.609375 299.921875 36.40625 299.921875 37.363281 C 299.921875 39.515625 297.472656 41.964844 293.949219 41.964844 Z M 288.335938 50.753906 C 287.558594 50.753906 287.5 50.753906 287.5 50.515625 C 287.5 50.457031 287.5 50.335938 287.617188 49.917969 L 289.46875 42.683594 L 295.023438 42.683594 C 297.53125 42.683594 298.488281 44.355469 298.488281 45.851562 C 298.488281 48.480469 295.800781 50.753906 292.632812 50.753906 Z M 288.335938 50.753906 "/>
<path style=" stroke:none;fill-rule:nonzero;fill:rgb(0%,0%,0%);fill-opacity:1;" d="M 295.414062 102.695312 C 294.816406 101.859375 293.921875 101.140625 292.667969 101.140625 C 289.261719 101.140625 285.859375 104.847656 285.859375 108.675781 C 285.859375 111.246094 287.589844 113.039062 289.859375 113.039062 C 291.292969 113.039062 292.546875 112.261719 293.5625 111.1875 C 294.101562 112.800781 295.652344 113.039062 296.3125 113.039062 C 297.265625 113.039062 297.921875 112.503906 298.402344 111.664062 C 299 110.648438 299.296875 109.152344 299.296875 109.035156 C 299.296875 108.675781 299 108.675781 298.878906 108.675781 C 298.519531 108.675781 298.519531 108.796875 298.339844 109.511719 C 297.984375 110.769531 297.503906 112.324219 296.371094 112.324219 C 295.714844 112.324219 295.535156 111.726562 295.535156 111.007812 C 295.535156 110.589844 295.714844 109.632812 295.894531 108.914062 C 296.070312 108.257812 296.371094 107.121094 296.488281 106.582031 L 297.027344 104.550781 C 297.207031 103.890625 297.503906 102.636719 297.503906 102.515625 C 297.503906 101.917969 297.027344 101.621094 296.609375 101.621094 C 296.132812 101.621094 295.535156 101.980469 295.414062 102.695312 Z M 293.683594 109.511719 C 293.503906 110.230469 292.90625 110.769531 292.371094 111.246094 C 292.128906 111.484375 291.054688 112.324219 289.921875 112.324219 C 288.964844 112.324219 288.007812 111.664062 288.007812 109.75 C 288.007812 108.375 288.785156 105.445312 289.382812 104.371094 C 290.578125 102.277344 291.949219 101.859375 292.667969 101.859375 C 294.519531 101.859375 294.996094 103.890625 294.996094 104.191406 C 294.996094 104.3125 294.9375 104.492188 294.9375 104.550781 Z M 293.683594 109.511719 "/>
<path style=" stroke:none;fill-rule:nonzero;fill:rgb(0%,0%,0%);fill-opacity:1;" d="M 335.683594 173.929688 C 335.683594 173.871094 335.742188 173.511719 335.742188 173.453125 C 335.742188 173.332031 335.683594 173.09375 335.324219 173.09375 C 334.847656 173.09375 332.636719 173.332031 331.980469 173.394531 C 331.742188 173.394531 331.382812 173.453125 331.382812 173.992188 C 331.382812 174.347656 331.742188 174.347656 332.101562 174.347656 C 333.355469 174.347656 333.355469 174.527344 333.355469 174.769531 C 333.355469 174.945312 333.054688 175.964844 332.9375 176.621094 L 332.339844 179.011719 C 332.101562 179.910156 330.605469 185.710938 330.546875 186.066406 C 330.429688 186.664062 330.429688 187.023438 330.429688 187.324219 C 330.429688 190.015625 332.101562 191.6875 334.308594 191.6875 C 337.59375 191.6875 341.117188 188.101562 341.117188 184.214844 C 341.117188 181.105469 338.96875 179.789062 337.175781 179.789062 C 335.804688 179.789062 334.609375 180.566406 333.832031 181.226562 Z M 334.371094 190.972656 C 333.054688 190.972656 332.339844 189.835938 332.339844 188.28125 C 332.339844 187.324219 332.578125 186.425781 333.296875 183.4375 C 333.472656 182.898438 333.472656 182.839844 333.953125 182.300781 C 334.96875 181.105469 336.160156 180.507812 337.117188 180.507812 C 338.132812 180.507812 339.027344 181.285156 339.027344 183.078125 C 339.027344 184.15625 338.429688 186.90625 337.65625 188.398438 C 336.996094 189.714844 335.683594 190.972656 334.371094 190.972656 Z M 334.371094 190.972656 "/>
<path style=" stroke:none;fill-rule:nonzero;fill:rgb(0%,0%,0%);fill-opacity:1;" d="M 297.269531 253.027344 C 296.316406 253.144531 295.898438 253.921875 295.898438 254.460938 C 295.898438 255.179688 296.433594 255.476562 296.914062 255.476562 C 297.511719 255.476562 298.40625 255.058594 298.40625 253.804688 C 298.40625 251.949219 296.375 251.472656 294.941406 251.472656 C 291 251.472656 287.296875 255.117188 287.296875 258.824219 C 287.296875 261.097656 288.910156 263.371094 292.195312 263.371094 C 296.671875 263.371094 298.765625 260.800781 298.765625 260.378906 C 298.765625 260.261719 298.523438 259.960938 298.285156 259.960938 C 298.167969 259.960938 298.105469 260.023438 297.867188 260.199219 C 295.835938 262.652344 292.730469 262.652344 292.253906 262.652344 C 290.34375 262.652344 289.507812 261.335938 289.507812 259.722656 C 289.507812 258.945312 289.867188 256.074219 291.238281 254.222656 C 292.253906 252.964844 293.628906 252.1875 294.941406 252.1875 C 295.300781 252.1875 296.613281 252.25 297.269531 253.027344 Z M 297.269531 253.027344 "/>
<path style="fill:none;stroke-width:0.3985;stroke-linecap:butt;stroke-linejoin:miter;stroke:rgb(0%,0%,0%);stroke-opacity:1;stroke-miterlimit:10;" d="M 6.515849 36.849056 L 49.594176 36.849056 " transform="matrix(3.783896,0,0,-3.78807,77.903297,182.278217)"/>
<path style="fill:none;stroke-width:0.3985;stroke-linecap:round;stroke-linejoin:round;stroke:rgb(0%,0%,0%);stroke-opacity:1;stroke-miterlimit:10;" d="M -2.071354 2.389471 C -1.692487 0.957137 -0.848036 0.278608 0.000543449 -0.00187737 C -0.848036 -0.277207 -1.692487 -0.956767 -2.071354 -2.392194 " transform="matrix(3.783896,0,0,-3.78807,266.322162,42.684295)"/>
<path style=" stroke:none;fill-rule:nonzero;fill:rgb(0%,0%,0%);fill-opacity:1;" d="M 186.210938 18.390625 L 188.363281 18.390625 C 188.71875 18.390625 188.78125 18.390625 188.839844 18.269531 C 188.960938 18.210938 189.019531 17.96875 189.019531 17.851562 C 189.019531 17.550781 188.71875 17.550781 188.421875 17.550781 L 186.390625 17.550781 C 186.628906 16.117188 186.988281 13.726562 187.226562 13.484375 C 187.527344 13.128906 187.824219 13.007812 188.121094 13.007812 C 188.242188 13.007812 188.660156 13.007812 189.078125 13.1875 C 188.300781 13.546875 188.300781 14.203125 188.300781 14.261719 C 188.300781 14.742188 188.660156 15.039062 189.136719 15.039062 C 189.617188 15.039062 190.332031 14.621094 190.332031 13.84375 C 190.332031 12.707031 189.078125 12.351562 188.183594 12.351562 C 185.792969 12.351562 185.316406 14.621094 185.136719 15.460938 C 184.957031 16.296875 185.078125 15.757812 184.71875 17.550781 L 183.046875 17.550781 C 182.6875 17.550781 182.390625 17.550781 182.390625 18.089844 C 182.390625 18.390625 182.628906 18.390625 182.988281 18.390625 L 184.597656 18.390625 C 184.242188 20.242188 183.464844 25.503906 182.925781 27.476562 C 182.808594 27.957031 182.390625 28.910156 181.613281 28.910156 C 181.492188 28.910156 181.074219 28.910156 180.777344 28.730469 C 181.253906 28.492188 181.492188 28.015625 181.492188 27.65625 C 181.492188 27.179688 181.136719 26.878906 180.71875 26.878906 C 180.179688 26.878906 179.523438 27.296875 179.523438 28.074219 C 179.523438 29.269531 180.894531 29.570312 181.613281 29.570312 C 182.6875 29.570312 183.523438 28.671875 183.941406 28.074219 C 184.71875 27.058594 185.136719 24.546875 185.195312 24.488281 Z M 186.210938 18.390625 "/>
<path style="fill:none;stroke-width:0.3985;stroke-linecap:butt;stroke-linejoin:miter;stroke:rgb(0%,0%,0%);stroke-opacity:1;stroke-miterlimit:10;" d="M 5.506225 23.01863 C 20.856021 31.925086 35.625645 31.960147 50.666773 23.318709 " transform="matrix(3.783896,0,0,-3.78807,77.903297,182.278217)"/>
<path style="fill:none;stroke-width:0.3985;stroke-linecap:round;stroke-linejoin:round;stroke:rgb(0%,0%,0%);stroke-opacity:1;stroke-miterlimit:10;" d="M -2.071348 2.390058 C -1.694303 0.957954 -0.849698 0.279899 0.000581854 0.00154949 C -0.851765 -0.279161 -1.692796 -0.958126 -2.072385 -2.392811 " transform="matrix(3.287335,1.890436,1.888353,-3.290962,270.276411,94.320406)"/>
<path style="fill:none;stroke-width:0.3985;stroke-linecap:butt;stroke-linejoin:miter;stroke:rgb(0%,0%,0%);stroke-opacity:1;stroke-miterlimit:10;" d="M 14.009573 9.164486 C 33.111908 11.484682 45.060159 9.792486 62.394103 2.406015 " transform="matrix(3.783896,0,0,-3.78807,77.903297,182.278217)"/>
<path style="fill:none;stroke-width:0.3985;stroke-linecap:round;stroke-linejoin:round;stroke:rgb(0%,0%,0%);stroke-opacity:1;stroke-miterlimit:10;" d="M -2.071475 2.389001 C -1.693755 0.958353 -0.851478 0.27702 -0.000198439 -0.0023063 C -0.850054 -0.278248 -1.695526 -0.956085 -2.072575 -2.391762 " transform="matrix(3.48868,1.487916,1.486276,-3.492528,314.687714,173.457084)"/>
<path style="fill:none;stroke-width:0.3985;stroke-linecap:butt;stroke-linejoin:miter;stroke:rgb(0%,0%,0%);stroke-opacity:1;stroke-miterlimit:10;" d="M -5.83398 -0.00183191 L 62.363133 -0.00183191 " transform="matrix(3.783896,0,0,-3.78807,77.903297,182.278217)"/>
<path style="fill:none;stroke-width:0.3985;stroke-linecap:round;stroke-linejoin:round;stroke:rgb(0%,0%,0%);stroke-opacity:1;stroke-miterlimit:10;" d="M -2.072911 2.389516 C -1.694044 0.957182 -0.849593 0.278654 -0.00101348 -0.00183191 C -0.849593 -0.277162 -1.694044 -0.956721 -2.072911 -2.392149 " transform="matrix(3.783896,0,0,-3.78807,314.628835,182.278217)"/>
<path style="fill:none;stroke-width:0.3985;stroke-linecap:butt;stroke-linejoin:miter;stroke:rgb(0%,0%,0%);stroke-opacity:1;stroke-miterlimit:10;" d="M 11.176844 -18.45615 C 31.186602 -24.083397 47.881531 -19.829705 62.473593 -5.592987 " transform="matrix(3.783896,0,0,-3.78807,77.903297,182.278217)"/>
<path style="fill:none;stroke-width:0.3985;stroke-linecap:round;stroke-linejoin:round;stroke:rgb(0%,0%,0%);stroke-opacity:1;stroke-miterlimit:10;" d="M -2.072673 2.39161 C -1.693969 0.954735 -0.849992 0.280767 0.00129123 -0.000946115 C -0.852229 -0.278772 -1.694766 -0.95664 -2.072777 -2.39226 " transform="matrix(2.716045,-2.652673,-2.64975,-2.719041,314.841642,202.942259)"/>
</g>
</svg>
