<?xml version="1.0" encoding="UTF-8"?>
<svg xmlns="http://www.w3.org/2000/svg" xmlns:xlink="http://www.w3.org/1999/xlink" width="549pt" height="300pt" viewBox="0 0 549 300" version="1.1">
<g id="surface1">
<path style=" stroke:none;fill-rule:nonzero;fill:rgb(0%,0%,0%);fill-opacity:1;" d="M 157.925781 37.667969 C 157.925781 37.503906 157.84375 37.171875 157.347656 37.171875 C 157.183594 37.171875 157.101562 37.257812 156.523438 37.832031 L 152.894531 41.796875 C 152.398438 41.136719 150.007812 37.171875 144.234375 37.171875 C 132.519531 37.171875 120.808594 48.726562 120.808594 60.859375 C 120.808594 69.195312 126.582031 75.21875 135.078125 75.21875 C 137.386719 75.21875 139.695312 74.722656 141.59375 73.980469 C 144.234375 72.90625 145.222656 71.835938 146.128906 70.761719 C 146.625 72.082031 147.945312 73.980469 148.523438 73.980469 C 148.769531 73.980469 148.851562 73.816406 148.851562 73.816406 C 148.933594 73.734375 149.511719 71.667969 149.757812 70.597656 L 150.75 66.554688 C 150.996094 65.726562 151.242188 64.820312 151.410156 63.914062 C 151.984375 61.519531 152.070312 61.4375 155.039062 61.4375 C 155.285156 61.4375 155.863281 61.355469 155.863281 60.363281 C 155.863281 59.949219 155.613281 59.785156 155.203125 59.785156 C 153.964844 59.785156 150.914062 59.949219 149.675781 59.949219 C 148.109375 59.949219 143.984375 59.785156 142.417969 59.785156 C 141.921875 59.785156 141.261719 59.785156 141.261719 60.859375 C 141.261719 61.4375 141.675781 61.4375 142.832031 61.4375 C 142.914062 61.4375 144.398438 61.4375 145.636719 61.519531 C 146.953125 61.683594 147.285156 61.847656 147.285156 62.507812 C 147.285156 63.003906 146.707031 65.316406 146.128906 67.296875 C 144.644531 72.988281 137.882812 73.566406 136.066406 73.566406 C 131.035156 73.566406 125.507812 70.597656 125.507812 62.589844 C 125.507812 60.941406 126.085938 52.359375 131.53125 45.507812 C 134.417969 41.960938 139.449219 38.824219 144.644531 38.824219 C 149.925781 38.824219 153.058594 42.867188 153.058594 48.890625 C 153.058594 50.957031 152.894531 51.039062 152.894531 51.53125 C 152.894531 52.109375 153.46875 52.109375 153.636719 52.109375 C 154.378906 52.109375 154.378906 51.945312 154.625 51.039062 Z M 157.925781 37.667969 "/>
<path style=" stroke:none;fill-rule:nonzero;fill:rgb(0%,0%,0%);fill-opacity:1;" d="M 467.296875 42.371094 C 467.707031 40.476562 467.875 39.980469 471.667969 39.980469 C 472.988281 39.980469 473.480469 39.980469 473.480469 38.90625 C 473.480469 38.328125 472.90625 38.328125 472.738281 38.328125 C 471.253906 38.328125 467.460938 38.492188 466.058594 38.492188 C 464.492188 38.492188 460.78125 38.328125 459.296875 38.328125 C 458.882812 38.328125 458.304688 38.328125 458.304688 39.402344 C 458.304688 39.980469 458.71875 39.980469 459.707031 39.980469 C 459.871094 39.980469 460.863281 39.980469 461.769531 40.0625 C 462.675781 40.144531 463.171875 40.226562 463.171875 40.886719 C 463.171875 41.136719 463.089844 41.21875 462.925781 41.878906 L 459.789062 54.667969 L 443.871094 54.667969 L 446.921875 42.371094 C 447.417969 40.476562 447.582031 39.980469 451.292969 39.980469 C 452.695312 39.980469 453.109375 39.980469 453.109375 38.90625 C 453.109375 38.328125 452.53125 38.328125 452.367188 38.328125 C 450.882812 38.328125 447.171875 38.492188 445.683594 38.492188 C 444.199219 38.492188 440.488281 38.328125 438.921875 38.328125 C 438.507812 38.328125 437.933594 38.328125 437.933594 39.402344 C 437.933594 39.980469 438.425781 39.980469 439.417969 39.980469 C 439.5 39.980469 440.488281 39.980469 441.394531 40.0625 C 442.304688 40.144531 442.796875 40.226562 442.796875 40.886719 C 442.796875 41.136719 442.714844 41.21875 442.550781 41.878906 L 435.621094 70.019531 C 435.046875 72 434.960938 72.414062 430.839844 72.414062 C 429.847656 72.414062 429.4375 72.414062 429.4375 73.484375 C 429.4375 74.0625 430.015625 74.0625 430.179688 74.0625 C 431.582031 74.0625 435.292969 73.898438 436.777344 73.898438 C 437.851562 73.898438 439.003906 73.980469 440.160156 73.980469 C 441.3125 73.980469 442.46875 74.0625 443.539062 74.0625 C 443.953125 74.0625 444.613281 74.0625 444.613281 72.988281 C 444.613281 72.414062 444.117188 72.414062 443.128906 72.414062 C 441.148438 72.414062 439.746094 72.414062 439.746094 71.503906 C 439.746094 71.175781 439.828125 70.925781 439.910156 70.597656 L 443.457031 56.238281 L 459.378906 56.238281 C 457.152344 64.984375 455.996094 69.9375 455.75 70.679688 C 455.253906 72.414062 454.261719 72.414062 451.046875 72.414062 C 450.222656 72.414062 449.726562 72.414062 449.726562 73.484375 C 449.726562 74.0625 450.386719 74.0625 450.46875 74.0625 C 451.953125 74.0625 455.664062 73.898438 457.152344 73.898438 C 458.222656 73.898438 459.378906 73.980469 460.449219 73.980469 C 461.605469 73.980469 462.757812 74.0625 463.914062 74.0625 C 464.328125 74.0625 464.902344 74.0625 464.902344 72.988281 C 464.902344 72.414062 464.492188 72.414062 463.417969 72.414062 C 461.523438 72.414062 460.039062 72.414062 460.039062 71.503906 C 460.039062 71.175781 460.203125 70.925781 460.203125 70.597656 Z M 467.296875 42.371094 "/>
<path style=" stroke:none;fill-rule:nonzero;fill:rgb(0%,0%,0%);fill-opacity:1;" d="M 85.570312 209.410156 C 85.570312 209.246094 85.488281 208.914062 84.992188 208.914062 C 84.828125 208.914062 84.746094 208.996094 84.167969 209.574219 L 80.539062 213.535156 C 80.042969 212.875 77.652344 208.914062 71.878906 208.914062 C 60.167969 208.914062 48.453125 220.46875 48.453125 232.601562 C 48.453125 240.9375 54.226562 246.960938 62.722656 246.960938 C 65.03125 246.960938 67.34375 246.464844 69.238281 245.722656 C 71.878906 244.648438 72.867188 243.578125 73.777344 242.503906 C 74.269531 243.824219 75.589844 245.722656 76.167969 245.722656 C 76.414062 245.722656 76.5 245.558594 76.5 245.558594 C 76.582031 245.476562 77.15625 243.410156 77.40625 242.339844 L 78.394531 238.292969 C 78.644531 237.46875 78.890625 236.5625 79.054688 235.652344 C 79.632812 233.261719 79.714844 233.179688 82.683594 233.179688 C 82.933594 233.179688 83.507812 233.09375 83.507812 232.105469 C 83.507812 231.691406 83.261719 231.527344 82.847656 231.527344 C 81.613281 231.527344 78.558594 231.691406 77.324219 231.691406 C 75.753906 231.691406 71.632812 231.527344 70.066406 231.527344 C 69.570312 231.527344 68.910156 231.527344 68.910156 232.601562 C 68.910156 233.179688 69.320312 233.179688 70.476562 233.179688 C 70.558594 233.179688 72.042969 233.179688 73.28125 233.261719 C 74.601562 233.425781 74.929688 233.589844 74.929688 234.25 C 74.929688 234.746094 74.355469 237.058594 73.777344 239.039062 C 72.292969 244.730469 65.527344 245.308594 63.714844 245.308594 C 58.683594 245.308594 53.15625 242.339844 53.15625 234.332031 C 53.15625 232.683594 53.734375 224.101562 59.175781 217.25 C 62.0625 213.703125 67.09375 210.566406 72.292969 210.566406 C 77.570312 210.566406 80.703125 214.609375 80.703125 220.632812 C 80.703125 222.699219 80.539062 222.78125 80.539062 223.273438 C 80.539062 223.851562 81.117188 223.851562 81.28125 223.851562 C 82.023438 223.851562 82.023438 223.6875 82.273438 222.78125 Z M 85.570312 209.410156 "/>
<path style=" stroke:none;fill-rule:nonzero;fill:rgb(0%,0%,0%);fill-opacity:1;" d="M 109.871094 208.585938 C 110.117188 207.84375 110.117188 207.675781 110.117188 207.59375 C 110.117188 207.015625 109.703125 206.523438 109.128906 206.523438 C 108.714844 206.523438 108.386719 206.6875 108.21875 207.015625 L 90.074219 256.863281 C 89.828125 257.605469 89.828125 257.769531 89.828125 257.855469 C 89.828125 258.429688 90.320312 258.925781 90.898438 258.925781 C 91.558594 258.925781 91.722656 258.515625 91.972656 257.605469 Z M 109.871094 208.585938 "/>
<path style=" stroke:none;fill-rule:nonzero;fill:rgb(0%,0%,0%);fill-opacity:1;" d="M 127.332031 241.84375 C 127.332031 244.152344 126.753906 244.152344 123.292969 244.152344 L 123.292969 245.804688 C 125.023438 245.722656 127.414062 245.640625 128.980469 245.640625 C 130.550781 245.640625 132.613281 245.722656 134.757812 245.804688 L 134.757812 244.152344 C 131.210938 244.152344 130.632812 244.152344 130.632812 241.84375 L 130.632812 236.480469 L 134.015625 233.589844 C 138.054688 239.121094 140.199219 242.007812 140.199219 243 C 140.199219 243.988281 139.292969 244.152344 138.304688 244.152344 L 138.304688 245.804688 C 139.789062 245.722656 142.921875 245.640625 143.992188 245.640625 C 145.480469 245.640625 147.046875 245.722656 148.53125 245.804688 L 148.53125 244.152344 C 146.632812 244.152344 145.480469 244.152344 143.417969 241.429688 L 136.816406 232.023438 C 136.734375 231.941406 136.488281 231.609375 136.488281 231.445312 C 136.488281 231.28125 140.199219 228.144531 140.777344 227.730469 C 143.992188 225.007812 146.222656 224.925781 147.292969 224.84375 L 147.292969 223.273438 C 145.808594 223.441406 145.148438 223.441406 143.664062 223.441406 C 141.765625 223.441406 138.550781 223.273438 137.808594 223.273438 L 137.808594 224.84375 C 138.796875 224.925781 139.292969 225.503906 139.292969 226.164062 C 139.292969 227.234375 138.632812 227.898438 138.136719 228.226562 L 130.796875 234.582031 L 130.796875 209.492188 L 123.292969 210.070312 L 123.292969 211.722656 C 126.921875 211.722656 127.332031 212.050781 127.332031 214.609375 Z M 127.332031 241.84375 "/>
<path style=" stroke:none;fill-rule:nonzero;fill:rgb(0%,0%,0%);fill-opacity:1;" d="M 153.804688 232.601562 C 154.132812 224.84375 158.503906 223.523438 160.320312 223.523438 C 165.679688 223.523438 166.175781 230.621094 166.175781 232.601562 Z M 153.722656 233.757812 L 168.320312 233.757812 C 169.476562 233.757812 169.640625 233.757812 169.640625 232.601562 C 169.640625 227.402344 166.835938 222.367188 160.320312 222.367188 C 154.214844 222.367188 149.433594 227.730469 149.433594 234.332031 C 149.433594 241.265625 154.875 246.382812 160.898438 246.382812 C 167.332031 246.382812 169.640625 240.605469 169.640625 239.617188 C 169.640625 239.039062 169.226562 238.953125 168.980469 238.953125 C 168.484375 238.953125 168.402344 239.285156 168.320312 239.699219 C 166.421875 245.0625 161.722656 245.0625 161.226562 245.0625 C 158.585938 245.0625 156.523438 243.492188 155.289062 241.597656 C 153.722656 239.039062 153.722656 235.570312 153.722656 233.757812 Z M 153.722656 233.757812 "/>
<path style=" stroke:none;fill-rule:nonzero;fill:rgb(0%,0%,0%);fill-opacity:1;" d="M 179.933594 228.472656 L 179.933594 222.699219 L 172.675781 223.273438 L 172.675781 224.84375 C 176.304688 224.84375 176.714844 225.253906 176.714844 227.8125 L 176.714844 241.84375 C 176.714844 244.152344 176.140625 244.152344 172.675781 244.152344 L 172.675781 245.804688 C 174.65625 245.722656 177.128906 245.640625 178.613281 245.640625 C 180.675781 245.640625 183.148438 245.640625 185.292969 245.804688 L 185.292969 244.152344 L 184.140625 244.152344 C 180.261719 244.152344 180.179688 243.578125 180.179688 241.761719 L 180.179688 233.671875 C 180.179688 228.472656 182.40625 223.851562 186.367188 223.851562 C 186.695312 223.851562 186.863281 223.851562 186.945312 223.851562 C 186.78125 223.933594 185.707031 224.59375 185.707031 225.914062 C 185.707031 227.402344 186.863281 228.144531 188.015625 228.144531 C 188.925781 228.144531 190.242188 227.566406 190.242188 225.832031 C 190.242188 224.183594 188.59375 222.699219 186.367188 222.699219 C 182.574219 222.699219 180.675781 226.164062 179.933594 228.472656 Z M 179.933594 228.472656 "/>
<path style=" stroke:none;fill-rule:nonzero;fill:rgb(0%,0%,0%);fill-opacity:1;" d="M 219.621094 224.84375 L 224.074219 224.84375 C 225.148438 224.84375 225.640625 224.84375 225.640625 223.851562 C 225.640625 223.273438 225.148438 223.273438 224.238281 223.273438 L 219.867188 223.273438 L 221.023438 217.25 C 221.1875 216.179688 221.929688 212.464844 222.261719 211.886719 C 222.753906 210.8125 223.578125 210.070312 224.734375 210.070312 C 224.898438 210.070312 226.300781 210.070312 227.292969 210.980469 C 224.980469 211.226562 224.488281 213.042969 224.488281 213.867188 C 224.488281 215.023438 225.394531 215.683594 226.382812 215.683594 C 227.785156 215.683594 229.269531 214.527344 229.269531 212.546875 C 229.269531 210.152344 226.878906 208.914062 224.734375 208.914062 C 222.917969 208.914062 219.621094 209.824219 218.054688 215.023438 C 217.722656 216.179688 217.640625 216.671875 216.320312 223.273438 L 212.773438 223.273438 C 211.785156 223.273438 211.207031 223.273438 211.207031 224.265625 C 211.207031 224.84375 211.621094 224.84375 212.609375 224.84375 L 216.074219 224.84375 L 212.195312 245.558594 C 211.207031 250.589844 210.300781 255.378906 207.578125 255.378906 C 207.414062 255.378906 206.09375 255.378906 205.105469 254.46875 C 207.496094 254.304688 207.992188 252.40625 207.992188 251.582031 C 207.992188 250.425781 207.082031 249.765625 206.011719 249.765625 C 204.691406 249.765625 203.207031 250.921875 203.207031 252.902344 C 203.207031 255.296875 205.433594 256.53125 207.578125 256.53125 C 210.464844 256.53125 212.609375 253.480469 213.515625 251.417969 C 215.167969 248.199219 216.402344 241.84375 216.484375 241.429688 Z M 219.621094 224.84375 "/>
<path style=" stroke:none;fill-rule:nonzero;fill:rgb(0%,0%,0%);fill-opacity:1;" d="M 411.445312 222.699219 L 404.105469 223.273438 L 404.105469 224.84375 C 407.566406 224.84375 407.980469 225.171875 407.980469 227.730469 L 407.980469 241.84375 C 407.980469 244.152344 407.402344 244.152344 403.9375 244.152344 L 403.9375 245.804688 C 405.589844 245.722656 408.394531 245.640625 409.710938 245.640625 C 411.527344 245.640625 413.339844 245.722656 415.15625 245.804688 L 415.15625 244.152344 C 411.691406 244.152344 411.445312 243.90625 411.445312 241.84375 Z M 411.691406 213.535156 C 411.691406 211.886719 410.371094 210.8125 408.886719 210.8125 C 407.238281 210.8125 406.164062 212.214844 406.164062 213.535156 C 406.164062 215.023438 407.238281 216.34375 408.886719 216.34375 C 410.371094 216.34375 411.691406 215.269531 411.691406 213.535156 Z M 411.691406 213.535156 "/>
<path style=" stroke:none;fill-rule:nonzero;fill:rgb(0%,0%,0%);fill-opacity:1;" d="M 422.511719 227.8125 L 422.511719 241.84375 C 422.511719 244.152344 421.933594 244.152344 418.386719 244.152344 L 418.386719 245.804688 C 420.199219 245.722656 422.921875 245.640625 424.324219 245.640625 C 425.644531 245.640625 428.367188 245.722656 430.179688 245.804688 L 430.179688 244.152344 C 426.632812 244.152344 426.058594 244.152344 426.058594 241.84375 L 426.058594 232.1875 C 426.058594 226.742188 429.851562 223.851562 433.148438 223.851562 C 436.449219 223.851562 437.027344 226.660156 437.027344 229.628906 L 437.027344 241.84375 C 437.027344 244.152344 436.449219 244.152344 432.984375 244.152344 L 432.984375 245.804688 C 434.800781 245.722656 437.4375 245.640625 438.839844 245.640625 C 440.242188 245.640625 442.964844 245.722656 444.699219 245.804688 L 444.699219 244.152344 C 441.234375 244.152344 440.65625 244.152344 440.65625 241.84375 L 440.65625 232.1875 C 440.65625 226.742188 444.367188 223.851562 447.667969 223.851562 C 450.964844 223.851562 451.542969 226.660156 451.542969 229.628906 L 451.542969 241.84375 C 451.542969 244.152344 450.964844 244.152344 447.503906 244.152344 L 447.503906 245.804688 C 449.316406 245.722656 451.957031 245.640625 453.359375 245.640625 C 454.761719 245.640625 457.480469 245.722656 459.214844 245.804688 L 459.214844 244.152344 C 456.492188 244.152344 455.253906 244.152344 455.171875 242.585938 L 455.171875 232.601562 C 455.171875 228.144531 455.171875 226.492188 453.523438 224.59375 C 452.78125 223.6875 451.132812 222.699219 448.078125 222.699219 C 443.707031 222.699219 441.398438 225.832031 440.492188 227.8125 C 439.75 223.273438 435.871094 222.699219 433.5625 222.699219 C 429.6875 222.699219 427.210938 224.925781 425.808594 228.144531 L 425.808594 222.699219 L 418.386719 223.273438 L 418.386719 224.84375 C 422.097656 224.84375 422.511719 225.253906 422.511719 227.8125 Z M 422.511719 227.8125 "/>
<path style=" stroke:none;fill-rule:nonzero;fill:rgb(0%,0%,0%);fill-opacity:1;" d="M 488.253906 224.84375 L 492.710938 224.84375 C 493.78125 224.84375 494.277344 224.84375 494.277344 223.851562 C 494.277344 223.273438 493.78125 223.273438 492.875 223.273438 L 488.503906 223.273438 L 489.65625 217.25 C 489.824219 216.179688 490.566406 212.464844 490.894531 211.886719 C 491.390625 210.8125 492.214844 210.070312 493.371094 210.070312 C 493.535156 210.070312 494.9375 210.070312 495.925781 210.980469 C 493.617188 211.226562 493.121094 213.042969 493.121094 213.867188 C 493.121094 215.023438 494.03125 215.683594 495.019531 215.683594 C 496.421875 215.683594 497.90625 214.527344 497.90625 212.546875 C 497.90625 210.152344 495.515625 208.914062 493.371094 208.914062 C 491.554688 208.914062 488.253906 209.824219 486.6875 215.023438 C 486.359375 216.179688 486.277344 216.671875 484.957031 223.273438 L 481.410156 223.273438 C 480.417969 223.273438 479.84375 223.273438 479.84375 224.265625 C 479.84375 224.84375 480.253906 224.84375 481.246094 224.84375 L 484.707031 224.84375 L 480.832031 245.558594 C 479.84375 250.589844 478.933594 255.378906 476.214844 255.378906 C 476.046875 255.378906 474.730469 255.378906 473.738281 254.46875 C 476.128906 254.304688 476.625 252.40625 476.625 251.582031 C 476.625 250.425781 475.71875 249.765625 474.644531 249.765625 C 473.328125 249.765625 471.839844 250.921875 471.839844 252.902344 C 471.839844 255.296875 474.070312 256.53125 476.214844 256.53125 C 479.101562 256.53125 481.246094 253.480469 482.152344 251.417969 C 483.800781 248.199219 485.039062 241.84375 485.121094 241.429688 Z M 488.253906 224.84375 "/>
<path style="fill:none;stroke-width:0.39848;stroke-linecap:butt;stroke-linejoin:miter;stroke:rgb(0%,0%,0%);stroke-opacity:1;stroke-miterlimit:10;" d="M -17.177814 32.69512 L 24.511542 32.69512 " transform="matrix(5.24986,0,0,-5.252688,273.0444,232.72556)"/>
<path style="fill:none;stroke-width:0.39848;stroke-linecap:round;stroke-linejoin:round;stroke:rgb(0%,0%,0%);stroke-opacity:1;stroke-miterlimit:10;" d="M -2.071764 2.390194 C -1.694522 0.956404 -0.850006 0.281154 -0.00176878 -0.00218257 C -0.850006 -0.281058 -1.694522 -0.956307 -2.071764 -2.390097 " transform="matrix(5.24986,0,0,-5.252688,402.767098,60.976817)"/>
<path style=" stroke:none;fill-rule:nonzero;fill:rgb(0%,0%,0%);fill-opacity:1;" d="M 296.011719 27.101562 L 299.558594 27.101562 C 300.300781 27.101562 300.796875 27.101562 300.796875 26.277344 C 300.796875 25.78125 300.300781 25.78125 299.640625 25.78125 L 296.257812 25.78125 C 297.082031 21.078125 297.414062 19.425781 297.660156 18.355469 C 297.824219 17.527344 298.652344 16.785156 299.558594 16.785156 C 299.558594 16.785156 300.546875 16.785156 301.289062 17.199219 C 299.722656 17.695312 299.640625 19.015625 299.640625 19.261719 C 299.640625 20.003906 300.300781 20.582031 301.125 20.582031 C 302.113281 20.582031 303.1875 19.757812 303.1875 18.355469 C 303.1875 16.703125 301.371094 15.710938 299.558594 15.710938 C 297.910156 15.710938 296.09375 16.703125 295.105469 18.519531 C 294.445312 19.839844 294.113281 21.488281 293.371094 25.78125 L 290.484375 25.78125 C 289.742188 25.78125 289.246094 25.78125 289.246094 26.523438 C 289.246094 27.101562 289.742188 27.101562 290.402344 27.101562 L 293.125 27.101562 C 293.042969 27.265625 290.730469 40.46875 289.90625 44.433594 C 289.660156 45.175781 289.082031 47.980469 287.269531 47.980469 C 287.269531 47.980469 286.359375 47.980469 285.699219 47.566406 C 287.1875 47.074219 287.269531 45.753906 287.269531 45.503906 C 287.269531 44.761719 286.691406 44.183594 285.867188 44.183594 C 284.875 44.183594 283.722656 45.007812 283.722656 46.414062 C 283.722656 48.0625 285.453125 49.054688 287.269531 49.054688 C 289.660156 49.054688 291.226562 46.578125 291.722656 45.835938 C 293.042969 43.359375 293.867188 38.820312 293.949219 38.40625 Z M 296.011719 27.101562 "/>
<path style="fill:none;stroke-width:0.39848;stroke-linecap:butt;stroke-linejoin:miter;stroke:rgb(0%,0%,0%);stroke-opacity:1;stroke-miterlimit:10;" d="M -25.583544 26.359823 L -25.583544 9.226483 " transform="matrix(5.24986,0,0,-5.252688,273.0444,232.72556)"/>
<path style="fill:none;stroke-width:0.39848;stroke-linecap:round;stroke-linejoin:round;stroke:rgb(0%,0%,0%);stroke-opacity:1;stroke-miterlimit:10;" d="M -2.070093 2.389827 C -1.693054 0.956009 -0.848992 0.280396 -0.000468238 0.0013706 C -0.848992 -0.277655 -1.693054 -0.956988 -2.070093 -2.390806 " transform="matrix(0,5.252688,5.24986,0,138.72718,185.31496)"/>
<path style=" stroke:none;fill-rule:nonzero;fill:rgb(0%,0%,0%);fill-opacity:1;" d="M 112.03125 134.90625 L 116.402344 134.90625 C 115.828125 137.054688 115 140.4375 115 143.324219 C 115 144.808594 115.25 145.800781 115.414062 146.542969 C 115.992188 148.441406 116.484375 148.523438 117.0625 148.523438 C 117.972656 148.523438 118.796875 147.78125 118.796875 146.875 C 118.796875 146.625 118.714844 146.460938 118.546875 146.132812 C 117.804688 144.726562 117.144531 142.664062 117.144531 139.695312 C 117.144531 138.949219 117.144531 137.464844 117.640625 134.90625 L 122.261719 134.90625 C 122.917969 134.90625 123.25 134.90625 123.578125 134.578125 C 124.15625 134.246094 124.238281 133.667969 124.238281 133.503906 C 124.238281 132.429688 123.25 132.429688 122.671875 132.429688 L 108.816406 132.429688 C 107.332031 132.429688 106.339844 132.761719 104.691406 134.246094 C 103.703125 135.074219 102.300781 137.054688 102.300781 137.382812 C 102.300781 137.878906 102.792969 137.878906 102.960938 137.878906 C 103.289062 137.878906 103.371094 137.796875 103.617188 137.464844 C 105.433594 134.90625 107.742188 134.90625 108.484375 134.90625 L 110.792969 134.90625 C 109.640625 138.949219 107.660156 143.242188 106.503906 145.46875 C 106.339844 145.882812 105.929688 146.707031 105.847656 146.875 C 105.847656 146.957031 105.761719 147.121094 105.761719 147.367188 C 105.761719 147.945312 106.175781 148.523438 107 148.523438 C 108.484375 148.523438 108.898438 146.875 109.804688 143.574219 Z M 112.03125 134.90625 "/>
<path style="fill:none;stroke-width:0.39848;stroke-linecap:butt;stroke-linejoin:miter;stroke:rgb(0%,0%,0%);stroke-opacity:1;stroke-miterlimit:10;" d="M -3.399173 0.000552785 L 19.716027 0.000552785 " transform="matrix(5.24986,0,0,-5.252688,273.0444,232.72556)"/>
<path style="fill:none;stroke-width:0.39848;stroke-linecap:round;stroke-linejoin:round;stroke:rgb(0%,0%,0%);stroke-opacity:1;stroke-miterlimit:10;" d="M -2.07266 2.392185 C -1.691697 0.954677 -0.850901 0.279428 0.00105603 0.000552785 C -0.850901 -0.278322 -1.691697 -0.958034 -2.07266 -2.391823 " transform="matrix(5.24986,0,0,-5.252688,377.596018,232.72556)"/>
<path style="fill:none;stroke-width:0.339;stroke-linecap:butt;stroke-linejoin:miter;stroke:rgb(0%,0%,0%);stroke-opacity:1;stroke-miterlimit:10;" d="M -0.00130082 0.000589906 L 4.669211 0.000589906 " transform="matrix(5.24986,0,0,-5.252688,304.674798,247.706224)"/>
<path style=" stroke:none;fill-rule:nonzero;fill:rgb(0%,0%,0%);fill-opacity:1;" d="M 319.605469 264.925781 L 323.152344 264.925781 C 323.894531 264.925781 324.386719 264.925781 324.386719 264.101562 C 324.386719 263.605469 323.894531 263.605469 323.234375 263.605469 L 319.851562 263.605469 C 320.675781 258.902344 321.007812 257.253906 321.253906 256.179688 C 321.417969 255.355469 322.242188 254.613281 323.152344 254.613281 C 323.152344 254.613281 324.140625 254.613281 324.882812 255.023438 C 323.316406 255.519531 323.234375 256.839844 323.234375 257.085938 C 323.234375 257.828125 323.894531 258.40625 324.71875 258.40625 C 325.707031 258.40625 326.78125 257.582031 326.78125 256.179688 C 326.78125 254.527344 324.964844 253.539062 323.152344 253.539062 C 321.5 253.539062 319.6875 254.527344 318.695312 256.34375 C 318.035156 257.664062 317.707031 259.316406 316.964844 263.605469 L 314.078125 263.605469 C 313.335938 263.605469 312.839844 263.605469 312.839844 264.351562 C 312.839844 264.925781 313.335938 264.925781 313.996094 264.925781 L 316.71875 264.925781 C 316.632812 265.09375 314.324219 278.296875 313.5 282.257812 C 313.253906 283 312.675781 285.804688 310.859375 285.804688 C 310.859375 285.804688 309.953125 285.804688 309.292969 285.394531 C 310.777344 284.898438 310.859375 283.578125 310.859375 283.332031 C 310.859375 282.589844 310.285156 282.011719 309.457031 282.011719 C 308.46875 282.011719 307.3125 282.835938 307.3125 284.238281 C 307.3125 285.890625 309.046875 286.878906 310.859375 286.878906 C 313.253906 286.878906 314.820312 284.402344 315.316406 283.660156 C 316.632812 281.183594 317.460938 276.644531 317.542969 276.234375 Z M 319.605469 264.925781 "/>
<path style="fill:none;stroke-width:0.39848;stroke-linecap:butt;stroke-linejoin:miter;stroke:rgb(0%,0%,0%);stroke-opacity:1;stroke-miterlimit:10;" d="M 33.942597 8.272359 L 33.942597 25.963448 " transform="matrix(5.24986,0,0,-5.252688,273.0444,232.72556)"/>
<path style="fill:none;stroke-width:0.39848;stroke-linecap:round;stroke-linejoin:round;stroke:rgb(0%,0%,0%);stroke-opacity:1;stroke-miterlimit:10;" d="M -2.072607 2.392813 C -1.695568 0.955274 -0.850762 0.279661 0.00148013 0.000635625 C -0.850762 -0.27839 -1.695568 -0.957723 -2.072607 -2.391541 " transform="matrix(0,-5.252688,-5.24986,0,451.241618,95.30465)"/>
<path style=" stroke:none;fill-rule:nonzero;fill:rgb(0%,0%,0%);fill-opacity:1;" d="M 475.421875 130.941406 C 475.421875 130.363281 475.011719 129.621094 473.9375 129.621094 C 472.949219 129.621094 471.875 130.527344 471.875 131.601562 C 471.875 132.261719 472.371094 133.003906 473.363281 133.003906 C 474.433594 133.003906 475.421875 131.929688 475.421875 130.941406 Z M 467.917969 149.589844 C 467.835938 150.085938 467.585938 150.5 467.585938 151.160156 C 467.585938 152.890625 469.074219 154.210938 471.050781 154.210938 C 474.761719 154.210938 476.332031 149.179688 476.332031 148.683594 C 476.332031 148.1875 475.917969 148.1875 475.753906 148.1875 C 475.257812 148.1875 475.257812 148.351562 475.09375 148.765625 C 474.269531 151.738281 472.617188 153.222656 471.21875 153.222656 C 470.472656 153.222656 470.308594 152.726562 470.308594 151.902344 C 470.308594 151.078125 470.558594 150.417969 470.886719 149.589844 C 471.21875 148.601562 471.628906 147.609375 472.042969 146.703125 C 472.371094 145.796875 473.691406 142.410156 473.855469 142 C 473.9375 141.667969 474.019531 141.171875 474.019531 140.84375 C 474.019531 139.109375 472.617188 137.707031 470.558594 137.707031 C 466.929688 137.707031 465.277344 142.742188 465.277344 143.320312 C 465.277344 143.816406 465.773438 143.816406 465.855469 143.816406 C 466.433594 143.816406 466.433594 143.648438 466.515625 143.238281 C 467.503906 140.101562 469.074219 138.78125 470.472656 138.78125 C 471.050781 138.78125 471.382812 139.027344 471.382812 140.019531 C 471.382812 140.84375 471.132812 141.421875 470.226562 143.730469 Z M 467.917969 149.589844 "/>
</g>
</svg>
