<?xml version="1.0" encoding="UTF-8"?>
<svg xmlns="http://www.w3.org/2000/svg" xmlns:xlink="http://www.w3.org/1999/xlink" width="549px" height="300px" viewBox="0 0 549 300" version="1.1">
<g id="surface1">
<path style=" stroke:none;fill-rule:nonzero;fill:rgb(0%,0%,0%);fill-opacity:1;" d="M 158.425781 37.742188 C 158.425781 37.578125 158.34375 37.246094 157.847656 37.246094 C 157.679688 37.246094 157.597656 37.332031 157.019531 37.910156 L 153.382812 41.878906 C 152.886719 41.21875 150.492188 37.246094 144.707031 37.246094 C 132.96875 37.246094 121.234375 48.824219 121.234375 60.980469 C 121.234375 69.332031 127.019531 75.367188 135.53125 75.367188 C 137.847656 75.367188 140.160156 74.871094 142.0625 74.128906 C 144.707031 73.054688 145.699219 71.976562 146.605469 70.902344 C 147.101562 72.226562 148.425781 74.128906 149.003906 74.128906 C 149.25 74.128906 149.332031 73.960938 149.332031 73.960938 C 149.417969 73.878906 149.996094 71.8125 150.242188 70.738281 L 151.234375 66.6875 C 151.484375 65.859375 151.730469 64.949219 151.894531 64.039062 C 152.472656 61.640625 152.558594 61.558594 155.53125 61.558594 C 155.78125 61.558594 156.359375 61.476562 156.359375 60.484375 C 156.359375 60.070312 156.109375 59.90625 155.699219 59.90625 C 154.457031 59.90625 151.398438 60.070312 150.160156 60.070312 C 148.589844 60.070312 144.457031 59.90625 142.886719 59.90625 C 142.390625 59.90625 141.730469 59.90625 141.730469 60.980469 C 141.730469 61.558594 142.144531 61.558594 143.300781 61.558594 C 143.382812 61.558594 144.871094 61.558594 146.109375 61.640625 C 147.433594 61.808594 147.761719 61.972656 147.761719 62.632812 C 147.761719 63.128906 147.183594 65.445312 146.605469 67.429688 C 145.117188 73.136719 138.339844 73.714844 136.523438 73.714844 C 131.480469 73.714844 125.945312 70.738281 125.945312 62.714844 C 125.945312 61.0625 126.523438 52.460938 131.976562 45.597656 C 134.871094 42.042969 139.910156 38.902344 145.117188 38.902344 C 150.40625 38.902344 153.546875 42.953125 153.546875 48.988281 C 153.546875 51.058594 153.382812 51.140625 153.382812 51.636719 C 153.382812 52.214844 153.960938 52.214844 154.128906 52.214844 C 154.871094 52.214844 154.871094 52.050781 155.117188 51.140625 Z M 158.425781 37.742188 "/>
<path style=" stroke:none;fill-rule:nonzero;fill:rgb(0%,0%,0%);fill-opacity:1;" d="M 468.414062 42.457031 C 468.824219 40.554688 468.992188 40.058594 472.792969 40.058594 C 474.117188 40.058594 474.609375 40.058594 474.609375 38.984375 C 474.609375 38.40625 474.03125 38.40625 473.867188 38.40625 C 472.378906 38.40625 468.578125 38.570312 467.171875 38.570312 C 465.601562 38.570312 461.882812 38.40625 460.394531 38.40625 C 459.984375 38.40625 459.402344 38.40625 459.402344 39.480469 C 459.402344 40.058594 459.816406 40.058594 460.808594 40.058594 C 460.972656 40.058594 461.964844 40.058594 462.875 40.140625 C 463.785156 40.222656 464.28125 40.308594 464.28125 40.96875 C 464.28125 41.21875 464.199219 41.300781 464.03125 41.960938 L 460.890625 54.777344 L 444.941406 54.777344 L 448 42.457031 C 448.496094 40.554688 448.660156 40.058594 452.378906 40.058594 C 453.785156 40.058594 454.199219 40.058594 454.199219 38.984375 C 454.199219 38.40625 453.617188 38.40625 453.453125 38.40625 C 451.964844 38.40625 448.246094 38.570312 446.757812 38.570312 C 445.273438 38.570312 441.550781 38.40625 439.980469 38.40625 C 439.570312 38.40625 438.992188 38.40625 438.992188 39.480469 C 438.992188 40.058594 439.488281 40.058594 440.476562 40.058594 C 440.5625 40.058594 441.550781 40.058594 442.460938 40.140625 C 443.371094 40.222656 443.867188 40.308594 443.867188 40.96875 C 443.867188 41.21875 443.785156 41.300781 443.617188 41.960938 L 436.675781 70.160156 C 436.097656 72.144531 436.015625 72.558594 431.882812 72.558594 C 430.890625 72.558594 430.476562 72.558594 430.476562 73.632812 C 430.476562 74.210938 431.054688 74.210938 431.222656 74.210938 C 432.625 74.210938 436.347656 74.046875 437.832031 74.046875 C 438.90625 74.046875 440.066406 74.128906 441.222656 74.128906 C 442.378906 74.128906 443.535156 74.210938 444.609375 74.210938 C 445.023438 74.210938 445.683594 74.210938 445.683594 73.136719 C 445.683594 72.558594 445.1875 72.558594 444.199219 72.558594 C 442.214844 72.558594 440.808594 72.558594 440.808594 71.648438 C 440.808594 71.316406 440.890625 71.066406 440.972656 70.738281 L 444.527344 56.347656 L 460.480469 56.347656 C 458.246094 65.113281 457.089844 70.074219 456.84375 70.820312 C 456.347656 72.558594 455.355469 72.558594 452.132812 72.558594 C 451.304688 72.558594 450.808594 72.558594 450.808594 73.632812 C 450.808594 74.210938 451.46875 74.210938 451.554688 74.210938 C 453.039062 74.210938 456.757812 74.046875 458.246094 74.046875 C 459.320312 74.046875 460.480469 74.128906 461.554688 74.128906 C 462.710938 74.128906 463.867188 74.210938 465.023438 74.210938 C 465.4375 74.210938 466.015625 74.210938 466.015625 73.136719 C 466.015625 72.558594 465.601562 72.558594 464.527344 72.558594 C 462.628906 72.558594 461.140625 72.558594 461.140625 71.648438 C 461.140625 71.316406 461.304688 71.066406 461.304688 70.738281 Z M 468.414062 42.457031 "/>
<path style=" stroke:none;fill-rule:nonzero;fill:rgb(0%,0%,0%);fill-opacity:1;" d="M 85.925781 209.828125 C 85.925781 209.664062 85.84375 209.332031 85.347656 209.332031 C 85.183594 209.332031 85.101562 209.414062 84.523438 209.992188 L 80.886719 213.960938 C 80.390625 213.300781 77.992188 209.332031 72.207031 209.332031 C 60.472656 209.332031 48.734375 220.910156 48.734375 233.0625 C 48.734375 241.414062 54.519531 247.453125 63.035156 247.453125 C 65.347656 247.453125 67.664062 246.957031 69.5625 246.210938 C 72.207031 245.136719 73.199219 244.0625 74.109375 242.988281 C 74.605469 244.308594 75.925781 246.210938 76.503906 246.210938 C 76.753906 246.210938 76.835938 246.046875 76.835938 246.046875 C 76.917969 245.964844 77.496094 243.898438 77.746094 242.820312 L 78.738281 238.769531 C 78.984375 237.941406 79.234375 237.035156 79.398438 236.125 C 79.976562 233.726562 80.058594 233.644531 83.035156 233.644531 C 83.28125 233.644531 83.859375 233.558594 83.859375 232.566406 C 83.859375 232.15625 83.613281 231.988281 83.199219 231.988281 C 81.960938 231.988281 78.902344 232.15625 77.664062 232.15625 C 76.09375 232.15625 71.960938 231.988281 70.390625 231.988281 C 69.894531 231.988281 69.234375 231.988281 69.234375 233.0625 C 69.234375 233.644531 69.644531 233.644531 70.804688 233.644531 C 70.886719 233.644531 72.371094 233.644531 73.613281 233.726562 C 74.933594 233.890625 75.265625 234.054688 75.265625 234.71875 C 75.265625 235.214844 74.6875 237.53125 74.109375 239.515625 C 72.621094 245.21875 65.84375 245.796875 64.027344 245.796875 C 58.984375 245.796875 53.445312 242.820312 53.445312 234.800781 C 53.445312 233.148438 54.027344 224.546875 59.480469 217.683594 C 62.371094 214.128906 67.414062 210.984375 72.621094 210.984375 C 77.910156 210.984375 81.050781 215.039062 81.050781 221.074219 C 81.050781 223.140625 80.886719 223.222656 80.886719 223.71875 C 80.886719 224.300781 81.464844 224.300781 81.628906 224.300781 C 82.375 224.300781 82.375 224.132812 82.621094 223.222656 Z M 85.925781 209.828125 "/>
<path style=" stroke:none;fill-rule:nonzero;fill:rgb(0%,0%,0%);fill-opacity:1;" d="M 110.273438 209 C 110.523438 208.257812 110.523438 208.089844 110.523438 208.007812 C 110.523438 207.429688 110.109375 206.933594 109.53125 206.933594 C 109.117188 206.933594 108.785156 207.097656 108.621094 207.429688 L 90.4375 257.375 C 90.191406 258.121094 90.191406 258.285156 90.191406 258.367188 C 90.191406 258.945312 90.6875 259.441406 91.265625 259.441406 C 91.925781 259.441406 92.09375 259.027344 92.339844 258.121094 Z M 110.273438 209 "/>
<path style=" stroke:none;fill-rule:nonzero;fill:rgb(0%,0%,0%);fill-opacity:1;" d="M 127.773438 242.324219 C 127.773438 244.640625 127.195312 244.640625 123.722656 244.640625 L 123.722656 246.292969 C 125.457031 246.210938 127.855469 246.128906 129.425781 246.128906 C 130.996094 246.128906 133.0625 246.210938 135.210938 246.292969 L 135.210938 244.640625 C 131.65625 244.640625 131.078125 244.640625 131.078125 242.324219 L 131.078125 236.949219 L 134.464844 234.054688 C 138.515625 239.597656 140.664062 242.492188 140.664062 243.484375 C 140.664062 244.476562 139.753906 244.640625 138.765625 244.640625 L 138.765625 246.292969 C 140.25 246.210938 143.390625 246.128906 144.464844 246.128906 C 145.953125 246.128906 147.523438 246.210938 149.011719 246.292969 L 149.011719 244.640625 C 147.109375 244.640625 145.953125 244.640625 143.886719 241.914062 L 137.277344 232.484375 C 137.195312 232.402344 136.945312 232.070312 136.945312 231.90625 C 136.945312 231.742188 140.664062 228.597656 141.242188 228.183594 C 144.464844 225.457031 146.699219 225.375 147.773438 225.292969 L 147.773438 223.71875 C 146.285156 223.886719 145.625 223.886719 144.136719 223.886719 C 142.234375 223.886719 139.011719 223.71875 138.269531 223.71875 L 138.269531 225.292969 C 139.261719 225.375 139.753906 225.953125 139.753906 226.613281 C 139.753906 227.6875 139.09375 228.351562 138.597656 228.679688 L 131.242188 235.046875 L 131.242188 209.910156 L 123.722656 210.488281 L 123.722656 212.144531 C 127.359375 212.144531 127.773438 212.472656 127.773438 215.039062 Z M 127.773438 242.324219 "/>
<path style=" stroke:none;fill-rule:nonzero;fill:rgb(0%,0%,0%);fill-opacity:1;" d="M 154.296875 233.0625 C 154.625 225.292969 159.007812 223.96875 160.824219 223.96875 C 166.195312 223.96875 166.691406 231.078125 166.691406 233.0625 Z M 154.210938 234.222656 L 168.839844 234.222656 C 170 234.222656 170.164062 234.222656 170.164062 233.0625 C 170.164062 227.855469 167.351562 222.808594 160.824219 222.808594 C 154.707031 222.808594 149.914062 228.183594 149.914062 234.800781 C 149.914062 241.746094 155.371094 246.875 161.402344 246.875 C 167.847656 246.875 170.164062 241.085938 170.164062 240.09375 C 170.164062 239.515625 169.75 239.429688 169.503906 239.429688 C 169.007812 239.429688 168.921875 239.761719 168.839844 240.175781 C 166.941406 245.550781 162.230469 245.550781 161.734375 245.550781 C 159.089844 245.550781 157.023438 243.980469 155.78125 242.078125 C 154.210938 239.515625 154.210938 236.042969 154.210938 234.222656 Z M 154.210938 234.222656 "/>
<path style=" stroke:none;fill-rule:nonzero;fill:rgb(0%,0%,0%);fill-opacity:1;" d="M 180.476562 228.929688 L 180.476562 223.140625 L 173.203125 223.71875 L 173.203125 225.292969 C 176.839844 225.292969 177.253906 225.703125 177.253906 228.269531 L 177.253906 242.324219 C 177.253906 244.640625 176.675781 244.640625 173.203125 244.640625 L 173.203125 246.292969 C 175.1875 246.210938 177.667969 246.128906 179.15625 246.128906 C 181.222656 246.128906 183.699219 246.128906 185.847656 246.292969 L 185.847656 244.640625 L 184.691406 244.640625 C 180.808594 244.640625 180.726562 244.0625 180.726562 242.242188 L 180.726562 234.140625 C 180.726562 228.929688 182.957031 224.300781 186.921875 224.300781 C 187.253906 224.300781 187.417969 224.300781 187.503906 224.300781 C 187.335938 224.382812 186.261719 225.042969 186.261719 226.367188 C 186.261719 227.855469 187.417969 228.597656 188.578125 228.597656 C 189.484375 228.597656 190.808594 228.019531 190.808594 226.285156 C 190.808594 224.628906 189.15625 223.140625 186.921875 223.140625 C 183.121094 223.140625 181.222656 226.613281 180.476562 228.929688 Z M 180.476562 228.929688 "/>
<path style=" stroke:none;fill-rule:nonzero;fill:rgb(0%,0%,0%);fill-opacity:1;" d="M 220.242188 225.292969 L 224.707031 225.292969 C 225.78125 225.292969 226.277344 225.292969 226.277344 224.300781 C 226.277344 223.71875 225.78125 223.71875 224.871094 223.71875 L 220.492188 223.71875 L 221.648438 217.683594 C 221.8125 216.609375 222.558594 212.886719 222.886719 212.308594 C 223.382812 211.234375 224.210938 210.488281 225.367188 210.488281 C 225.53125 210.488281 226.9375 210.488281 227.929688 211.398438 C 225.617188 211.648438 225.121094 213.464844 225.121094 214.292969 C 225.121094 215.449219 226.027344 216.113281 227.019531 216.113281 C 228.425781 216.113281 229.914062 214.953125 229.914062 212.96875 C 229.914062 210.570312 227.515625 209.332031 225.367188 209.332031 C 223.550781 209.332031 220.242188 210.242188 218.671875 215.449219 C 218.34375 216.609375 218.261719 217.105469 216.9375 223.71875 L 213.382812 223.71875 C 212.390625 223.71875 211.8125 223.71875 211.8125 224.710938 C 211.8125 225.292969 212.226562 225.292969 213.21875 225.292969 L 216.691406 225.292969 L 212.804688 246.046875 C 211.8125 251.089844 210.90625 255.886719 208.175781 255.886719 C 208.011719 255.886719 206.691406 255.886719 205.699219 254.976562 C 208.09375 254.8125 208.589844 252.910156 208.589844 252.082031 C 208.589844 250.925781 207.679688 250.265625 206.605469 250.265625 C 205.285156 250.265625 203.796875 251.421875 203.796875 253.40625 C 203.796875 255.804688 206.027344 257.042969 208.175781 257.042969 C 211.070312 257.042969 213.21875 253.984375 214.128906 251.917969 C 215.78125 248.691406 217.019531 242.324219 217.101562 241.914062 Z M 220.242188 225.292969 "/>
<path style=" stroke:none;fill-rule:nonzero;fill:rgb(0%,0%,0%);fill-opacity:1;" d="M 412.449219 223.140625 L 405.09375 223.71875 L 405.09375 225.292969 C 408.566406 225.292969 408.980469 225.621094 408.980469 228.183594 L 408.980469 242.324219 C 408.980469 244.640625 408.402344 244.640625 404.929688 244.640625 L 404.929688 246.292969 C 406.582031 246.210938 409.390625 246.128906 410.714844 246.128906 C 412.53125 246.128906 414.351562 246.210938 416.167969 246.292969 L 416.167969 244.640625 C 412.699219 244.640625 412.449219 244.394531 412.449219 242.324219 Z M 412.699219 213.960938 C 412.699219 212.308594 411.375 211.234375 409.886719 211.234375 C 408.234375 211.234375 407.160156 212.640625 407.160156 213.960938 C 407.160156 215.449219 408.234375 216.773438 409.886719 216.773438 C 411.375 216.773438 412.699219 215.699219 412.699219 213.960938 Z M 412.699219 213.960938 "/>
<path style=" stroke:none;fill-rule:nonzero;fill:rgb(0%,0%,0%);fill-opacity:1;" d="M 423.539062 228.269531 L 423.539062 242.324219 C 423.539062 244.640625 422.960938 244.640625 419.40625 244.640625 L 419.40625 246.292969 C 421.222656 246.210938 423.949219 246.128906 425.355469 246.128906 C 426.679688 246.128906 429.40625 246.210938 431.222656 246.292969 L 431.222656 244.640625 C 427.671875 244.640625 427.089844 244.640625 427.089844 242.324219 L 427.089844 232.652344 C 427.089844 227.191406 430.894531 224.300781 434.199219 224.300781 C 437.503906 224.300781 438.082031 227.109375 438.082031 230.085938 L 438.082031 242.324219 C 438.082031 244.640625 437.503906 244.640625 434.035156 244.640625 L 434.035156 246.292969 C 435.851562 246.210938 438.496094 246.128906 439.902344 246.128906 C 441.304688 246.128906 444.035156 246.210938 445.769531 246.292969 L 445.769531 244.640625 C 442.296875 244.640625 441.71875 244.640625 441.71875 242.324219 L 441.71875 232.652344 C 441.71875 227.191406 445.4375 224.300781 448.746094 224.300781 C 452.050781 224.300781 452.628906 227.109375 452.628906 230.085938 L 452.628906 242.324219 C 452.628906 244.640625 452.050781 244.640625 448.578125 244.640625 L 448.578125 246.292969 C 450.398438 246.210938 453.042969 246.128906 454.449219 246.128906 C 455.851562 246.128906 458.578125 246.210938 460.316406 246.292969 L 460.316406 244.640625 C 457.589844 244.640625 456.347656 244.640625 456.265625 243.070312 L 456.265625 233.0625 C 456.265625 228.597656 456.265625 226.945312 454.613281 225.042969 C 453.867188 224.132812 452.214844 223.140625 449.15625 223.140625 C 444.777344 223.140625 442.464844 226.285156 441.554688 228.269531 C 440.8125 223.71875 436.925781 223.140625 434.613281 223.140625 C 430.726562 223.140625 428.25 225.375 426.84375 228.597656 L 426.84375 223.140625 L 419.40625 223.71875 L 419.40625 225.292969 C 423.125 225.292969 423.539062 225.703125 423.539062 228.269531 Z M 423.539062 228.269531 "/>
<path style=" stroke:none;fill-rule:nonzero;fill:rgb(0%,0%,0%);fill-opacity:1;" d="M 489.414062 225.292969 L 493.878906 225.292969 C 494.953125 225.292969 495.449219 225.292969 495.449219 224.300781 C 495.449219 223.71875 494.953125 223.71875 494.042969 223.71875 L 489.664062 223.71875 L 490.820312 217.683594 C 490.984375 216.609375 491.726562 212.886719 492.058594 212.308594 C 492.554688 211.234375 493.382812 210.488281 494.539062 210.488281 C 494.703125 210.488281 496.109375 210.488281 497.101562 211.398438 C 494.785156 211.648438 494.289062 213.464844 494.289062 214.292969 C 494.289062 215.449219 495.199219 216.113281 496.191406 216.113281 C 497.597656 216.113281 499.085938 214.953125 499.085938 212.96875 C 499.085938 210.570312 496.6875 209.332031 494.539062 209.332031 C 492.71875 209.332031 489.414062 210.242188 487.84375 215.449219 C 487.511719 216.609375 487.429688 217.105469 486.109375 223.71875 L 482.554688 223.71875 C 481.5625 223.71875 480.984375 223.71875 480.984375 224.710938 C 480.984375 225.292969 481.398438 225.292969 482.390625 225.292969 L 485.859375 225.292969 L 481.976562 246.046875 C 480.984375 251.089844 480.074219 255.886719 477.347656 255.886719 C 477.183594 255.886719 475.859375 255.886719 474.867188 254.976562 C 477.265625 254.8125 477.761719 252.910156 477.761719 252.082031 C 477.761719 250.925781 476.851562 250.265625 475.777344 250.265625 C 474.457031 250.265625 472.96875 251.421875 472.96875 253.40625 C 472.96875 255.804688 475.199219 257.042969 477.347656 257.042969 C 480.242188 257.042969 482.390625 253.984375 483.296875 251.917969 C 484.953125 248.691406 486.191406 242.324219 486.273438 241.914062 Z M 489.414062 225.292969 "/>
<path style="fill:none;stroke-width:0.39848;stroke-linecap:butt;stroke-linejoin:miter;stroke:rgb(0%,0%,0%);stroke-opacity:1;stroke-miterlimit:10;" d="M -17.177649 32.695212 L 24.511939 32.695212 " transform="matrix(5.260325,0,0,-5.263159,273.77408,233.189474)"/>
<path style="fill:none;stroke-width:0.39848;stroke-linecap:round;stroke-linejoin:round;stroke:rgb(0%,0%,0%);stroke-opacity:1;stroke-miterlimit:10;" d="M -2.071357 2.389978 C -1.694122 0.956815 -0.849801 0.280682 -0.00176598 -0.00209153 C -0.849801 -0.281154 -1.694122 -0.956544 -2.071357 -2.389708 " transform="matrix(5.260325,0,0,-5.263159,403.755383,61.098367)"/>
<path style=" stroke:none;fill-rule:nonzero;fill:rgb(0%,0%,0%);fill-opacity:1;" d="M 296.785156 27.15625 L 300.339844 27.15625 C 301.085938 27.15625 301.582031 27.15625 301.582031 26.328125 C 301.582031 25.832031 301.085938 25.832031 300.421875 25.832031 L 297.035156 25.832031 C 297.859375 21.117188 298.191406 19.464844 298.441406 18.390625 C 298.605469 17.5625 299.429688 16.820312 300.339844 16.820312 C 300.339844 16.820312 301.332031 16.820312 302.074219 17.234375 C 300.503906 17.730469 300.421875 19.050781 300.421875 19.300781 C 300.421875 20.042969 301.085938 20.621094 301.910156 20.621094 C 302.902344 20.621094 303.976562 19.796875 303.976562 18.390625 C 303.976562 16.738281 302.160156 15.742188 300.339844 15.742188 C 298.6875 15.742188 296.871094 16.738281 295.878906 18.554688 C 295.214844 19.878906 294.886719 21.53125 294.140625 25.832031 L 291.25 25.832031 C 290.503906 25.832031 290.007812 25.832031 290.007812 26.578125 C 290.007812 27.15625 290.503906 27.15625 291.167969 27.15625 L 293.894531 27.15625 C 293.8125 27.320312 291.496094 40.550781 290.671875 44.519531 C 290.421875 45.265625 289.84375 48.078125 288.027344 48.078125 C 288.027344 48.078125 287.117188 48.078125 286.457031 47.664062 C 287.945312 47.167969 288.027344 45.84375 288.027344 45.59375 C 288.027344 44.851562 287.449219 44.273438 286.621094 44.273438 C 285.628906 44.273438 284.472656 45.097656 284.472656 46.503906 C 284.472656 48.160156 286.207031 49.152344 288.027344 49.152344 C 290.421875 49.152344 291.992188 46.671875 292.488281 45.925781 C 293.8125 43.445312 294.636719 38.898438 294.71875 38.484375 Z M 296.785156 27.15625 "/>
<path style="fill:none;stroke-width:0.39848;stroke-linecap:butt;stroke-linejoin:miter;stroke:rgb(0%,0%,0%);stroke-opacity:1;stroke-miterlimit:10;" d="M -25.583736 26.359901 L -25.583736 9.226506 " transform="matrix(5.260325,0,0,-5.263159,273.77408,233.189474)"/>
<path style="fill:none;stroke-width:0.39848;stroke-linecap:round;stroke-linejoin:round;stroke:rgb(0%,0%,0%);stroke-opacity:1;stroke-miterlimit:10;" d="M -2.070108 2.389339 C -1.693077 0.956145 -0.848468 0.280391 -0.000147607 0.00117835 C -0.848468 -0.277292 -1.693077 -0.956759 -2.070108 -2.390695 " transform="matrix(0,5.263159,5.260325,0,139.189114,185.684371)"/>
<path style=" stroke:none;fill-rule:nonzero;fill:rgb(0%,0%,0%);fill-opacity:1;" d="M 112.441406 135.175781 L 116.820312 135.175781 C 116.242188 137.328125 115.417969 140.714844 115.417969 143.609375 C 115.417969 145.097656 115.664062 146.089844 115.828125 146.835938 C 116.40625 148.738281 116.902344 148.820312 117.480469 148.820312 C 118.390625 148.820312 119.21875 148.074219 119.21875 147.167969 C 119.21875 146.917969 119.136719 146.753906 118.96875 146.421875 C 118.226562 145.015625 117.566406 142.949219 117.566406 139.972656 C 117.566406 139.226562 117.566406 137.738281 118.0625 135.175781 L 122.6875 135.175781 C 123.351562 135.175781 123.679688 135.175781 124.011719 134.84375 C 124.589844 134.515625 124.671875 133.9375 124.671875 133.769531 C 124.671875 132.695312 123.679688 132.695312 123.101562 132.695312 L 109.21875 132.695312 C 107.730469 132.695312 106.738281 133.027344 105.085938 134.515625 C 104.09375 135.339844 102.6875 137.328125 102.6875 137.65625 C 102.6875 138.152344 103.183594 138.152344 103.351562 138.152344 C 103.679688 138.152344 103.761719 138.070312 104.011719 137.738281 C 105.828125 135.175781 108.144531 135.175781 108.886719 135.175781 L 111.199219 135.175781 C 110.042969 139.226562 108.058594 143.527344 106.902344 145.761719 C 106.738281 146.175781 106.324219 147 106.242188 147.167969 C 106.242188 147.25 106.160156 147.414062 106.160156 147.664062 C 106.160156 148.242188 106.574219 148.820312 107.398438 148.820312 C 108.886719 148.820312 109.300781 147.167969 110.210938 143.859375 Z M 112.441406 135.175781 "/>
<path style="fill:none;stroke-width:0.39848;stroke-linecap:butt;stroke-linejoin:miter;stroke:rgb(0%,0%,0%);stroke-opacity:1;stroke-miterlimit:10;" d="M -3.398944 0.000375132 L 19.716311 0.000375132 " transform="matrix(5.260325,0,0,-5.263159,273.77408,233.189474)"/>
<path style="fill:none;stroke-width:0.39848;stroke-linecap:round;stroke-linejoin:round;stroke:rgb(0%,0%,0%);stroke-opacity:1;stroke-miterlimit:10;" d="M -2.072362 2.392445 C -1.691415 0.954828 -0.850806 0.279438 0.000941458 0.000375132 C -0.850806 -0.278687 -1.691415 -0.958531 -2.072362 -2.391695 " transform="matrix(5.260325,0,0,-5.263159,378.53411,233.189474)"/>
<path style="fill:none;stroke-width:0.339;stroke-linecap:butt;stroke-linejoin:miter;stroke:rgb(0%,0%,0%);stroke-opacity:1;stroke-miterlimit:10;" d="M -0.00125093 0.000889763 L 4.66888 0.000889763 " transform="matrix(5.260325,0,0,-5.263159,305.467518,248.199995)"/>
<path style=" stroke:none;fill-rule:nonzero;fill:rgb(0%,0%,0%);fill-opacity:1;" d="M 320.425781 265.457031 L 323.980469 265.457031 C 324.722656 265.457031 325.21875 265.457031 325.21875 264.628906 C 325.21875 264.132812 324.722656 264.132812 324.0625 264.132812 L 320.675781 264.132812 C 321.5 259.417969 321.832031 257.765625 322.078125 256.691406 C 322.246094 255.863281 323.070312 255.117188 323.980469 255.117188 C 323.980469 255.117188 324.972656 255.117188 325.714844 255.53125 C 324.144531 256.027344 324.0625 257.351562 324.0625 257.601562 C 324.0625 258.34375 324.722656 258.921875 325.550781 258.921875 C 326.542969 258.921875 327.617188 258.097656 327.617188 256.691406 C 327.617188 255.035156 325.796875 254.042969 323.980469 254.042969 C 322.328125 254.042969 320.507812 255.035156 319.515625 256.855469 C 318.855469 258.179688 318.527344 259.832031 317.78125 264.132812 L 314.890625 264.132812 C 314.144531 264.132812 313.648438 264.132812 313.648438 264.875 C 313.648438 265.457031 314.144531 265.457031 314.804688 265.457031 L 317.535156 265.457031 C 317.453125 265.621094 315.136719 278.851562 314.3125 282.820312 C 314.0625 283.566406 313.484375 286.375 311.664062 286.375 C 311.664062 286.375 310.757812 286.375 310.097656 285.960938 C 311.582031 285.464844 311.664062 284.144531 311.664062 283.894531 C 311.664062 283.152344 311.085938 282.574219 310.261719 282.574219 C 309.269531 282.574219 308.113281 283.398438 308.113281 284.804688 C 308.113281 286.457031 309.847656 287.453125 311.664062 287.453125 C 314.0625 287.453125 315.632812 284.96875 316.128906 284.226562 C 317.453125 281.746094 318.277344 277.199219 318.359375 276.785156 Z M 320.425781 265.457031 "/>
<path style="fill:none;stroke-width:0.39848;stroke-linecap:butt;stroke-linejoin:miter;stroke:rgb(0%,0%,0%);stroke-opacity:1;stroke-miterlimit:10;" d="M 33.942796 8.272053 L 33.942796 25.962831 " transform="matrix(5.260325,0,0,-5.263159,273.77408,233.189474)"/>
<path style="fill:none;stroke-width:0.39848;stroke-linecap:round;stroke-linejoin:round;stroke:rgb(0%,0%,0%);stroke-opacity:1;stroke-miterlimit:10;" d="M -2.072464 2.393054 C -1.695433 0.955405 -0.850824 0.279651 0.00120697 0.000437814 C -0.850824 -0.278032 -1.695433 -0.9575 -2.072464 -2.391436 " transform="matrix(0,-5.263159,-5.260325,0,452.326522,95.494634)"/>
<path style=" stroke:none;fill-rule:nonzero;fill:rgb(0%,0%,0%);fill-opacity:1;" d="M 476.554688 131.203125 C 476.554688 130.621094 476.144531 129.878906 475.070312 129.878906 C 474.078125 129.878906 473.003906 130.789062 473.003906 131.863281 C 473.003906 132.523438 473.5 133.269531 474.492188 133.269531 C 475.566406 133.269531 476.554688 132.195312 476.554688 131.203125 Z M 469.035156 149.890625 C 468.953125 150.386719 468.707031 150.800781 468.707031 151.460938 C 468.707031 153.195312 470.191406 154.519531 472.175781 154.519531 C 475.894531 154.519531 477.464844 149.476562 477.464844 148.980469 C 477.464844 148.484375 477.050781 148.484375 476.886719 148.484375 C 476.390625 148.484375 476.390625 148.648438 476.226562 149.0625 C 475.398438 152.039062 473.746094 153.527344 472.339844 153.527344 C 471.597656 153.527344 471.433594 153.03125 471.433594 152.203125 C 471.433594 151.378906 471.679688 150.714844 472.011719 149.890625 C 472.339844 148.898438 472.753906 147.90625 473.167969 146.996094 C 473.5 146.085938 474.820312 142.695312 474.984375 142.28125 C 475.070312 141.953125 475.152344 141.453125 475.152344 141.125 C 475.152344 139.386719 473.746094 137.980469 471.679688 137.980469 C 468.042969 137.980469 466.390625 143.027344 466.390625 143.605469 C 466.390625 144.101562 466.886719 144.101562 466.96875 144.101562 C 467.546875 144.101562 467.546875 143.9375 467.628906 143.523438 C 468.621094 140.378906 470.191406 139.058594 471.597656 139.058594 C 472.175781 139.058594 472.507812 139.304688 472.507812 140.296875 C 472.507812 141.125 472.257812 141.703125 471.351562 144.019531 Z M 469.035156 149.890625 "/>
</g>
</svg>
