<?xml version="1.0" encoding="UTF-8"?>
<svg xmlns="http://www.w3.org/2000/svg" xmlns:xlink="http://www.w3.org/1999/xlink" width="370px" height="300px" viewBox="0 0 370 300" version="1.1">
<defs>
<clipPath id="clip1">
  <path d="M 2 69.367188 L 154 69.367188 L 154 296 L 2 296 Z M 2 69.367188 "/>
</clipPath>
<clipPath id="clip2">
  <path d="M 1.746094 48 L 175 48 L 175 296.414062 L 1.746094 296.414062 Z M 1.746094 48 "/>
</clipPath>
<clipPath id="clip3">
  <path d="M 216 69.367188 L 368 69.367188 L 368 296 L 216 296 Z M 216 69.367188 "/>
</clipPath>
<clipPath id="clip4">
  <path d="M 195 48 L 368.03125 48 L 368.03125 296.414062 L 195 296.414062 Z M 195 48 "/>
</clipPath>
</defs>
<g id="surface1">
<g clip-path="url(#clip1)" clip-rule="nonzero">
<path style=" stroke:none;fill-rule:nonzero;fill:rgb(55.29412%,52.549022%,0%);fill-opacity:1;" d="M 153.070312 182.605469 C 153.070312 120.160156 119.363281 69.546875 77.796875 69.546875 C 36.214844 69.546875 2.503906 120.160156 2.503906 182.605469 C 2.503906 245.039062 36.214844 295.652344 77.796875 295.652344 C 119.363281 295.652344 153.070312 245.039062 153.070312 182.605469 Z M 153.070312 182.605469 "/>
</g>
<g clip-path="url(#clip2)" clip-rule="nonzero">
<path style="fill:none;stroke-width:0.3985;stroke-linecap:butt;stroke-linejoin:miter;stroke:rgb(0%,0%,0%);stroke-opacity:1;stroke-miterlimit:10;" d="M 19.924322 -0.00103449 C 19.924322 16.507878 11.003232 29.88871 0.00203507 29.88871 C -11.003297 29.88871 -19.925421 16.507878 -19.925421 -0.00103449 C -19.925421 -16.506849 -11.003297 -29.88768 0.00203507 -29.88768 C 11.003232 -29.88768 19.924322 -16.506849 19.924322 -0.00103449 Z M 19.924322 -0.00103449 " transform="matrix(3.778353,0,0,-3.782521,77.789186,182.601556)"/>
</g>
<g clip-path="url(#clip3)" clip-rule="nonzero">
<path style=" stroke:none;fill-rule:nonzero;fill:rgb(0%,67.843139%,93.725491%);fill-opacity:1;" d="M 367.285156 182.605469 C 367.285156 120.160156 333.574219 69.546875 291.992188 69.546875 C 250.414062 69.546875 216.71875 120.160156 216.71875 182.605469 C 216.71875 245.039062 250.414062 295.652344 291.992188 295.652344 C 333.574219 295.652344 367.285156 245.039062 367.285156 182.605469 Z M 367.285156 182.605469 "/>
</g>
<g clip-path="url(#clip4)" clip-rule="nonzero">
<path style="fill:none;stroke-width:0.3985;stroke-linecap:butt;stroke-linejoin:miter;stroke:rgb(0%,0%,0%);stroke-opacity:1;stroke-miterlimit:10;" d="M 76.619615 -0.00103449 C 76.619615 16.507878 67.69749 29.88871 56.692159 29.88871 C 45.687861 29.88871 36.769872 16.507878 36.769872 -0.00103449 C 36.769872 -16.506849 45.687861 -29.88768 56.692159 -29.88768 C 67.69749 -29.88768 76.619615 -16.506849 76.619615 -0.00103449 Z M 76.619615 -0.00103449 " transform="matrix(3.778353,0,0,-3.782521,77.789186,182.601556)"/>
</g>
<path style=" stroke:none;fill-rule:nonzero;fill:rgb(0%,0%,0%);fill-opacity:1;" d="M 71.894531 49.0625 C 71 50.496094 70.105469 51.152344 68.554688 51.269531 C 68.316406 51.328125 67.960938 51.328125 67.960938 51.808594 C 67.960938 52.105469 68.199219 52.226562 68.316406 52.226562 C 69.035156 52.226562 69.867188 52.105469 70.585938 52.105469 C 71.480469 52.105469 72.550781 52.226562 73.328125 52.226562 C 73.445312 52.226562 73.863281 52.226562 73.863281 51.628906 C 73.863281 51.328125 73.507812 51.269531 73.386719 51.269531 C 73.207031 51.269531 72.253906 51.210938 72.253906 50.496094 C 72.253906 50.195312 72.492188 49.71875 72.613281 49.480469 L 74.757812 46.195312 L 82.273438 46.195312 L 82.929688 50.613281 C 82.808594 50.851562 82.628906 51.269531 81.082031 51.269531 C 80.78125 51.269531 80.425781 51.269531 80.425781 51.867188 C 80.425781 51.988281 80.484375 52.226562 80.839844 52.226562 C 81.617188 52.226562 83.464844 52.105469 84.242188 52.105469 C 84.71875 52.105469 85.3125 52.164062 85.792969 52.164062 C 86.269531 52.164062 86.804688 52.226562 87.28125 52.226562 C 87.640625 52.226562 87.820312 51.988281 87.820312 51.6875 C 87.820312 51.269531 87.519531 51.269531 87.101562 51.269531 C 85.554688 51.269531 85.492188 51.089844 85.433594 50.433594 L 83.109375 34.136719 C 83.046875 33.597656 82.988281 33.417969 82.453125 33.417969 C 81.976562 33.417969 81.796875 33.660156 81.558594 34.015625 Z M 75.355469 45.242188 L 80.902344 36.644531 L 82.152344 45.242188 Z M 75.355469 45.242188 "/>
<path style=" stroke:none;fill-rule:nonzero;fill:rgb(0%,0%,0%);fill-opacity:1;" d="M 79.113281 99.269531 C 79.113281 98.550781 79.050781 98.550781 78.335938 98.550781 C 76.667969 100.164062 74.222656 100.222656 73.148438 100.222656 L 73.148438 101.179688 C 73.804688 101.179688 75.535156 101.179688 76.964844 100.402344 L 76.964844 113.894531 C 76.964844 114.730469 76.964844 115.089844 74.339844 115.089844 L 73.328125 115.089844 L 73.328125 116.042969 C 73.804688 116.042969 77.082031 115.925781 78.039062 115.925781 C 78.871094 115.925781 82.152344 116.042969 82.75 116.042969 L 82.75 115.089844 L 81.734375 115.089844 C 79.113281 115.089844 79.113281 114.730469 79.113281 113.894531 Z M 79.113281 99.269531 "/>
<path style=" stroke:none;fill-rule:nonzero;fill:rgb(0%,0%,0%);fill-opacity:1;" d="M 116.371094 154.636719 L 116.371094 153.679688 L 113.449219 153.679688 L 113.449219 141.859375 C 113.449219 141.320312 113.449219 141.144531 112.851562 141.144531 C 112.554688 141.144531 112.433594 141.144531 112.195312 141.5 L 103.429688 153.679688 L 103.429688 154.636719 L 111.183594 154.636719 L 111.183594 156.785156 C 111.183594 157.679688 111.183594 157.980469 109.035156 157.980469 L 108.320312 157.980469 L 108.320312 158.933594 C 109.691406 158.875 111.363281 158.816406 112.316406 158.816406 C 113.269531 158.816406 114.941406 158.875 116.253906 158.933594 L 116.253906 157.980469 L 115.597656 157.980469 C 113.449219 157.980469 113.449219 157.679688 113.449219 156.785156 L 113.449219 154.636719 Z M 111.363281 144.007812 L 111.363281 153.679688 L 104.445312 153.679688 Z M 111.363281 144.007812 "/>
<path style=" stroke:none;fill-rule:nonzero;fill:rgb(0%,0%,0%);fill-opacity:1;" d="M 40.746094 186.324219 L 39.851562 186.324219 C 39.792969 186.863281 39.492188 188.414062 39.195312 188.710938 C 38.957031 188.832031 36.929688 188.832031 36.570312 188.832031 L 31.738281 188.832031 C 34.484375 186.382812 35.378906 185.667969 36.988281 184.414062 C 38.957031 182.863281 40.746094 181.25 40.746094 178.742188 C 40.746094 175.519531 37.941406 173.609375 34.601562 173.609375 C 31.324219 173.609375 29.117188 175.875 29.117188 178.324219 C 29.117188 179.636719 30.25 179.757812 30.488281 179.757812 C 31.144531 179.757812 31.917969 179.339844 31.917969 178.382812 C 31.917969 177.90625 31.738281 177.011719 30.367188 177.011719 C 31.144531 175.101562 32.933594 174.503906 34.183594 174.503906 C 36.808594 174.503906 38.179688 176.59375 38.179688 178.742188 C 38.179688 181.011719 36.570312 182.863281 35.734375 183.816406 L 29.355469 190.085938 C 29.117188 190.324219 29.117188 190.382812 29.117188 191.101562 L 39.96875 191.101562 Z M 40.746094 186.324219 "/>
<path style=" stroke:none;fill-rule:nonzero;fill:rgb(0%,0%,0%);fill-opacity:1;" d="M 98.921875 246.597656 C 100.949219 246.597656 102.4375 248.03125 102.4375 250.898438 C 102.4375 254.121094 100.53125 255.136719 98.980469 255.136719 C 97.964844 255.136719 95.640625 254.835938 94.507812 253.285156 C 95.761719 253.226562 96.058594 252.328125 96.058594 251.792969 C 96.058594 250.957031 95.402344 250.359375 94.628906 250.359375 C 93.851562 250.359375 93.136719 250.777344 93.136719 251.851562 C 93.136719 254.359375 95.878906 255.972656 99.039062 255.972656 C 102.738281 255.972656 105.242188 253.523438 105.242188 250.898438 C 105.242188 248.808594 103.574219 246.777344 100.648438 246.121094 C 103.453125 245.164062 104.40625 243.136719 104.40625 241.582031 C 104.40625 239.492188 102.023438 237.941406 99.101562 237.941406 C 96.175781 237.941406 93.972656 239.316406 93.972656 241.464844 C 93.972656 242.359375 94.507812 242.835938 95.34375 242.835938 C 96.117188 242.835938 96.65625 242.238281 96.65625 241.523438 C 96.65625 240.746094 96.117188 240.210938 95.34375 240.148438 C 96.238281 238.957031 98.085938 238.65625 99.039062 238.65625 C 100.234375 238.65625 101.902344 239.253906 101.902344 241.582031 C 101.902344 242.65625 101.484375 243.851562 100.828125 244.6875 C 99.933594 245.703125 99.21875 245.761719 97.90625 245.820312 C 97.25 245.882812 97.191406 245.882812 97.070312 245.882812 C 97.011719 245.882812 96.773438 245.941406 96.773438 246.238281 C 96.773438 246.597656 97.011719 246.597656 97.488281 246.597656 Z M 98.921875 246.597656 "/>
<path style=" stroke:none;fill-rule:nonzero;fill:rgb(0%,0%,0%);fill-opacity:1;" d="M 284.988281 50.195312 C 284.75 51.089844 284.691406 51.269531 282.664062 51.269531 C 282.246094 51.269531 281.886719 51.269531 281.886719 51.808594 C 281.886719 52.226562 282.1875 52.226562 282.664062 52.226562 L 292.863281 52.226562 C 297.273438 52.226562 300.675781 49.179688 300.675781 46.554688 C 300.675781 44.703125 299.003906 43.089844 296.203125 42.792969 C 299.363281 42.195312 302.046875 40.226562 302.046875 37.957031 C 302.046875 35.925781 300.019531 34.195312 296.558594 34.195312 L 287.015625 34.195312 C 286.480469 34.195312 286.121094 34.195312 286.121094 34.792969 C 286.121094 35.152344 286.480469 35.152344 287.015625 35.152344 C 287.015625 35.152344 287.496094 35.152344 287.972656 35.210938 C 288.566406 35.269531 288.628906 35.328125 288.628906 35.570312 C 288.628906 35.628906 288.628906 35.746094 288.507812 36.164062 Z M 289.222656 42.496094 L 290.835938 36.046875 C 291.011719 35.210938 291.074219 35.152344 292.144531 35.152344 L 296.140625 35.152344 C 298.824219 35.152344 299.480469 36.941406 299.480469 37.898438 C 299.480469 40.046875 297.035156 42.496094 293.519531 42.496094 Z M 287.910156 51.269531 C 287.136719 51.269531 287.078125 51.269531 287.078125 51.03125 C 287.078125 50.972656 287.078125 50.851562 287.195312 50.433594 L 289.046875 43.210938 L 294.589844 43.210938 C 297.097656 43.210938 298.050781 44.882812 298.050781 46.375 C 298.050781 49 295.367188 51.269531 292.207031 51.269531 Z M 287.910156 51.269531 "/>
<path style=" stroke:none;fill-rule:nonzero;fill:rgb(0%,0%,0%);fill-opacity:1;" d="M 294.980469 103.136719 C 294.386719 102.300781 293.492188 101.585938 292.238281 101.585938 C 288.839844 101.585938 285.441406 105.285156 285.441406 109.105469 C 285.441406 111.675781 287.171875 113.464844 289.4375 113.464844 C 290.867188 113.464844 292.121094 112.6875 293.132812 111.613281 C 293.671875 113.226562 295.222656 113.464844 295.875 113.464844 C 296.832031 113.464844 297.488281 112.929688 297.964844 112.09375 C 298.5625 111.078125 298.859375 109.585938 298.859375 109.464844 C 298.859375 109.105469 298.5625 109.105469 298.441406 109.105469 C 298.082031 109.105469 298.082031 109.226562 297.90625 109.941406 C 297.546875 111.195312 297.070312 112.75 295.9375 112.75 C 295.28125 112.75 295.101562 112.152344 295.101562 111.433594 C 295.101562 111.015625 295.28125 110.0625 295.460938 109.34375 C 295.636719 108.6875 295.9375 107.554688 296.054688 107.015625 L 296.59375 104.988281 C 296.769531 104.332031 297.070312 103.078125 297.070312 102.957031 C 297.070312 102.359375 296.59375 102.0625 296.175781 102.0625 C 295.699219 102.0625 295.101562 102.421875 294.980469 103.136719 Z M 293.253906 109.941406 C 293.074219 110.660156 292.476562 111.195312 291.941406 111.675781 C 291.703125 111.914062 290.628906 112.75 289.496094 112.75 C 288.542969 112.75 287.585938 112.09375 287.585938 110.179688 C 287.585938 108.808594 288.363281 105.882812 288.960938 104.808594 C 290.152344 102.71875 291.523438 102.300781 292.238281 102.300781 C 294.085938 102.300781 294.566406 104.332031 294.566406 104.628906 C 294.566406 104.75 294.503906 104.929688 294.503906 104.988281 Z M 293.253906 109.941406 "/>
<path style=" stroke:none;fill-rule:nonzero;fill:rgb(0%,0%,0%);fill-opacity:1;" d="M 335.191406 174.265625 C 335.191406 174.207031 335.25 173.847656 335.25 173.789062 C 335.25 173.667969 335.191406 173.429688 334.835938 173.429688 C 334.355469 173.429688 332.152344 173.667969 331.496094 173.730469 C 331.257812 173.730469 330.898438 173.789062 330.898438 174.324219 C 330.898438 174.683594 331.257812 174.683594 331.613281 174.683594 C 332.867188 174.683594 332.867188 174.863281 332.867188 175.101562 C 332.867188 175.28125 332.566406 176.296875 332.449219 176.953125 L 331.851562 179.339844 C 331.613281 180.238281 330.125 186.027344 330.0625 186.386719 C 329.945312 186.984375 329.945312 187.339844 329.945312 187.640625 C 329.945312 190.328125 331.613281 191.996094 333.820312 191.996094 C 337.101562 191.996094 340.617188 188.414062 340.617188 184.535156 C 340.617188 181.429688 338.472656 180.117188 336.683594 180.117188 C 335.3125 180.117188 334.117188 180.894531 333.34375 181.550781 Z M 333.878906 191.28125 C 332.566406 191.28125 331.851562 190.148438 331.851562 188.59375 C 331.851562 187.640625 332.089844 186.742188 332.808594 183.757812 C 332.984375 183.222656 332.984375 183.160156 333.460938 182.625 C 334.476562 181.429688 335.667969 180.832031 336.625 180.832031 C 337.636719 180.832031 338.53125 181.609375 338.53125 183.402344 C 338.53125 184.476562 337.933594 187.222656 337.160156 188.714844 C 336.503906 190.027344 335.191406 191.28125 333.878906 191.28125 Z M 333.878906 191.28125 "/>
<path style=" stroke:none;fill-rule:nonzero;fill:rgb(0%,0%,0%);fill-opacity:1;" d="M 296.835938 253.246094 C 295.882812 253.367188 295.464844 254.140625 295.464844 254.679688 C 295.464844 255.394531 296 255.695312 296.476562 255.695312 C 297.074219 255.695312 297.96875 255.277344 297.96875 254.023438 C 297.96875 252.171875 295.941406 251.695312 294.511719 251.695312 C 290.574219 251.695312 286.875 255.335938 286.875 259.039062 C 286.875 261.304688 288.488281 263.574219 291.765625 263.574219 C 296.238281 263.574219 298.328125 261.007812 298.328125 260.589844 C 298.328125 260.46875 298.089844 260.171875 297.847656 260.171875 C 297.730469 260.171875 297.671875 260.230469 297.433594 260.410156 C 295.40625 262.859375 292.304688 262.859375 291.828125 262.859375 C 289.917969 262.859375 289.082031 261.542969 289.082031 259.933594 C 289.082031 259.15625 289.441406 256.289062 290.8125 254.441406 C 291.828125 253.1875 293.199219 252.410156 294.511719 252.410156 C 294.867188 252.410156 296.179688 252.46875 296.835938 253.246094 Z M 296.835938 253.246094 "/>
<path style="fill:none;stroke-width:0.3985;stroke-linecap:butt;stroke-linejoin:miter;stroke:rgb(0%,0%,0%);stroke-opacity:1;stroke-miterlimit:10;" d="M 6.516323 36.849179 L 49.593745 36.849179 " transform="matrix(3.778353,0,0,-3.782521,77.789186,182.601556)"/>
<path style="fill:none;stroke-width:0.3985;stroke-linecap:round;stroke-linejoin:round;stroke:rgb(0%,0%,0%);stroke-opacity:1;stroke-miterlimit:10;" d="M -2.071427 2.390005 C -1.693038 0.957635 -0.848383 0.279144 0.000407814 -0.00175309 C -0.848383 -0.277487 -1.693038 -0.955978 -2.071427 -2.392478 " transform="matrix(3.778353,0,0,-3.782521,265.932053,43.212119)"/>
<path style=" stroke:none;fill-rule:nonzero;fill:rgb(0%,0%,0%);fill-opacity:1;" d="M 185.9375 18.953125 L 188.085938 18.953125 C 188.445312 18.953125 188.503906 18.953125 188.5625 18.832031 C 188.683594 18.773438 188.742188 18.535156 188.742188 18.414062 C 188.742188 18.117188 188.445312 18.117188 188.144531 18.117188 L 186.117188 18.117188 C 186.355469 16.683594 186.714844 14.296875 186.953125 14.058594 C 187.25 13.699219 187.550781 13.578125 187.847656 13.578125 C 187.964844 13.578125 188.382812 13.578125 188.800781 13.757812 C 188.027344 14.117188 188.027344 14.773438 188.027344 14.832031 C 188.027344 15.308594 188.382812 15.609375 188.859375 15.609375 C 189.339844 15.609375 190.054688 15.191406 190.054688 14.414062 C 190.054688 13.28125 188.800781 12.921875 187.90625 12.921875 C 185.523438 12.921875 185.042969 15.191406 184.867188 16.027344 C 184.6875 16.863281 184.804688 16.324219 184.449219 18.117188 L 182.777344 18.117188 C 182.421875 18.117188 182.121094 18.117188 182.121094 18.652344 C 182.121094 18.953125 182.359375 18.953125 182.71875 18.953125 L 184.328125 18.953125 C 183.972656 20.804688 183.195312 26.058594 182.660156 28.027344 C 182.539062 28.503906 182.121094 29.460938 181.347656 29.460938 C 181.226562 29.460938 180.808594 29.460938 180.511719 29.28125 C 180.988281 29.042969 181.226562 28.5625 181.226562 28.207031 C 181.226562 27.726562 180.871094 27.429688 180.453125 27.429688 C 179.914062 27.429688 179.261719 27.847656 179.261719 28.625 C 179.261719 29.816406 180.632812 30.117188 181.347656 30.117188 C 182.421875 30.117188 183.253906 29.222656 183.671875 28.625 C 184.449219 27.609375 184.867188 25.101562 184.925781 25.042969 Z M 185.9375 18.953125 "/>
<path style="fill:none;stroke-width:0.3985;stroke-linecap:butt;stroke-linejoin:miter;stroke:rgb(0%,0%,0%);stroke-opacity:1;stroke-miterlimit:10;" d="M 5.506252 23.019118 C 20.855821 31.925215 35.6254 31.960327 50.666882 23.318604 " transform="matrix(3.778353,0,0,-3.782521,77.789186,182.601556)"/>
<path style="fill:none;stroke-width:0.3985;stroke-linecap:round;stroke-linejoin:round;stroke:rgb(0%,0%,0%);stroke-opacity:1;stroke-miterlimit:10;" d="M -2.071895 2.389957 C -1.694429 0.958053 -0.850506 0.280277 0.000126074 0.00100515 C -0.851682 -0.279089 -1.692157 -0.958022 -2.071922 -2.393404 " transform="matrix(3.28252,1.887667,1.885587,-3.286141,269.880503,94.772596)"/>
<path style="fill:none;stroke-width:0.3985;stroke-linecap:butt;stroke-linejoin:miter;stroke:rgb(0%,0%,0%);stroke-opacity:1;stroke-miterlimit:10;" d="M 14.009667 9.165305 C 33.112111 11.484773 45.060314 9.79216 62.393841 2.405181 " transform="matrix(3.778353,0,0,-3.782521,77.789186,182.601556)"/>
<path style="fill:none;stroke-width:0.3985;stroke-linecap:round;stroke-linejoin:round;stroke:rgb(0%,0%,0%);stroke-opacity:1;stroke-miterlimit:10;" d="M -2.071977 2.389199 C -1.693561 0.958753 -0.851403 0.276963 -0.000226692 -0.00222895 C -0.849027 -0.278714 -1.695597 -0.955245 -2.072655 -2.391676 " transform="matrix(3.483569,1.485736,1.484099,-3.487412,314.226754,173.793345)"/>
<path style="fill:none;stroke-width:0.3985;stroke-linecap:butt;stroke-linejoin:miter;stroke:rgb(0%,0%,0%);stroke-opacity:1;stroke-miterlimit:10;" d="M -5.834047 -0.00103449 L 62.362825 -0.00103449 " transform="matrix(3.778353,0,0,-3.782521,77.789186,182.601556)"/>
<path style="fill:none;stroke-width:0.3985;stroke-linecap:round;stroke-linejoin:round;stroke:rgb(0%,0%,0%);stroke-opacity:1;stroke-miterlimit:10;" d="M -2.072867 2.389691 C -1.694478 0.957321 -0.849823 0.27883 -0.00103212 -0.00103449 C -0.849823 -0.277801 -1.694478 -0.956292 -2.072867 -2.392792 " transform="matrix(3.778353,0,0,-3.782521,314.167962,182.601556)"/>
<path style="fill:none;stroke-width:0.3985;stroke-linecap:butt;stroke-linejoin:miter;stroke:rgb(0%,0%,0%);stroke-opacity:1;stroke-miterlimit:10;" d="M 11.176918 -18.456606 C 31.186049 -24.082814 47.88169 -19.829079 62.473447 -5.593163 " transform="matrix(3.778353,0,0,-3.782521,77.789186,182.601556)"/>
<path style="fill:none;stroke-width:0.3985;stroke-linecap:round;stroke-linejoin:round;stroke:rgb(0%,0%,0%);stroke-opacity:1;stroke-miterlimit:10;" d="M -2.073419 2.391478 C -1.693459 0.95469 -0.850439 0.280436 0.00135581 -0.00097034 C -0.85196 -0.279186 -1.695013 -0.957311 -2.072897 -2.391387 " transform="matrix(2.712066,-2.648788,-2.645869,-2.715058,314.380474,203.235332)"/>
</g>
</svg>
