<?xml version="1.0" encoding="UTF-8"?>
<svg xmlns="http://www.w3.org/2000/svg" xmlns:xlink="http://www.w3.org/1999/xlink" width="659px" height="300px" viewBox="0 0 659 300" version="1.1">
<defs>
<clipPath id="clip1">
  <path d="M 61 119 L 240 119 L 240 298.886719 L 61 298.886719 Z M 61 119 "/>
</clipPath>
<clipPath id="clip2">
  <path d="M 239.886719 208.980469 C 239.886719 159.710938 199.945312 119.769531 150.679688 119.769531 C 101.410156 119.769531 61.476562 159.710938 61.476562 208.980469 C 61.476562 258.246094 101.410156 298.179688 150.679688 298.179688 C 199.945312 298.179688 239.886719 258.246094 239.886719 208.980469 Z M 239.886719 208.980469 "/>
</clipPath>
<clipPath id="clip3">
  <path d="M 61 119 L 181 119 L 181 180 L 61 180 Z M 61 119 "/>
</clipPath>
<clipPath id="clip4">
  <path d="M 239.886719 208.980469 C 239.886719 159.710938 199.945312 119.769531 150.679688 119.769531 C 101.410156 119.769531 61.476562 159.710938 61.476562 208.980469 C 61.476562 258.246094 101.410156 298.179688 150.679688 298.179688 C 199.945312 298.179688 239.886719 258.246094 239.886719 208.980469 Z M 239.886719 208.980469 "/>
</clipPath>
<clipPath id="clip5">
  <path d="M 239.886719 208.980469 C 239.886719 159.710938 199.945312 119.769531 150.679688 119.769531 C 101.410156 119.769531 61.476562 159.710938 61.476562 208.980469 C 61.476562 258.246094 101.410156 298.179688 150.679688 298.179688 C 199.945312 298.179688 239.886719 258.246094 239.886719 208.980469 Z M 239.886719 208.980469 "/>
</clipPath>
<clipPath id="clip6">
  <path d="M 61 119 L 204.671875 119 L 204.671875 203 L 61 203 Z M 61 119 "/>
</clipPath>
<clipPath id="clip7">
  <path d="M 239.886719 208.980469 C 239.886719 159.710938 199.945312 119.769531 150.679688 119.769531 C 101.410156 119.769531 61.476562 159.710938 61.476562 208.980469 C 61.476562 258.246094 101.410156 298.179688 150.679688 298.179688 C 199.945312 298.179688 239.886719 258.246094 239.886719 208.980469 Z M 239.886719 208.980469 "/>
</clipPath>
<clipPath id="clip8">
  <path d="M 239.886719 208.980469 C 239.886719 159.710938 199.945312 119.769531 150.679688 119.769531 C 101.410156 119.769531 61.476562 159.710938 61.476562 208.980469 C 61.476562 258.246094 101.410156 298.179688 150.679688 298.179688 C 199.945312 298.179688 239.886719 258.246094 239.886719 208.980469 Z M 239.886719 208.980469 "/>
</clipPath>
<clipPath id="clip9">
  <path d="M 1.175781 0 L 204.671875 0 L 204.671875 203 L 1.175781 203 Z M 1.175781 0 "/>
</clipPath>
<clipPath id="clip10">
  <path d="M 37 96 L 263.609375 96 L 263.609375 299.011719 L 37 299.011719 Z M 37 96 "/>
</clipPath>
<clipPath id="clip11">
  <path d="M 418 119 L 597 119 L 597 298.886719 L 418 298.886719 Z M 418 119 "/>
</clipPath>
<clipPath id="clip12">
  <path d="M 596.703125 208.980469 C 596.703125 159.710938 556.769531 119.769531 507.503906 119.769531 C 458.234375 119.769531 418.292969 159.710938 418.292969 208.980469 C 418.292969 258.246094 458.234375 298.179688 507.503906 298.179688 C 556.769531 298.179688 596.703125 258.246094 596.703125 208.980469 Z M 596.703125 208.980469 "/>
</clipPath>
<clipPath id="clip13">
  <path d="M 454 0 L 657.007812 0 L 657.007812 203 L 454 203 Z M 454 0 "/>
</clipPath>
<clipPath id="clip14">
  <path d="M 394.109375 96 L 621 96 L 621 299.011719 L 394.109375 299.011719 Z M 394.109375 96 "/>
</clipPath>
</defs>
<g id="surface1">
<g clip-path="url(#clip1)" clip-rule="nonzero">
<g clip-path="url(#clip2)" clip-rule="nonzero">
<path style="fill-rule:evenodd;fill:rgb(80.000001%,80.000001%,100%);fill-opacity:1;stroke-width:0.79701;stroke-linecap:butt;stroke-linejoin:miter;stroke:rgb(0%,0%,0%);stroke-opacity:1;stroke-miterlimit:10;" d="M 70.867082 -56.696043 C 70.867082 -33.210892 51.828663 -14.172149 28.345774 -14.172149 C 4.861023 -14.172149 -14.173671 -33.210892 -14.173671 -56.696043 C -14.173671 -80.179332 4.861023 -99.214352 28.345774 -99.214352 C 51.828663 -99.214352 70.867082 -80.179332 70.867082 -56.696043 Z M 99.21524 -0.000620751 C 99.21524 23.482668 80.17496 42.521412 56.692071 42.521412 C 33.209182 42.521412 14.172626 23.482668 14.172626 -0.000620751 C 14.172626 -23.48391 33.209182 -42.518929 56.692071 -42.518929 C 80.17496 -42.518929 99.21524 -23.48391 99.21524 -0.000620751 Z M 99.21524 -0.000620751 " transform="matrix(2.097937,0,0,-2.097901,91.212035,90.03776)"/>
</g>
</g>
<g clip-path="url(#clip3)" clip-rule="nonzero">
<g clip-path="url(#clip4)" clip-rule="nonzero">
<g clip-path="url(#clip5)" clip-rule="nonzero">
<path style=" stroke:none;fill-rule:evenodd;fill:rgb(100%,100%,100%);fill-opacity:1;" d="M 180.417969 90.039062 C 180.417969 40.773438 140.480469 0.832031 91.214844 0.832031 C 41.949219 0.832031 2.003906 40.773438 2.003906 90.039062 C 2.003906 139.304688 41.949219 179.238281 91.214844 179.238281 C 140.480469 179.238281 180.417969 139.304688 180.417969 90.039062 Z M 180.417969 90.039062 "/>
</g>
</g>
</g>
<g clip-path="url(#clip6)" clip-rule="nonzero">
<g clip-path="url(#clip7)" clip-rule="nonzero">
<g clip-path="url(#clip8)" clip-rule="nonzero">
<path style="fill:none;stroke-width:0.79701;stroke-linecap:butt;stroke-linejoin:miter;stroke:rgb(0%,0%,0%);stroke-opacity:1;stroke-miterlimit:10;" d="M 42.520785 -0.000620751 C 42.520785 23.482668 23.484228 42.521412 0.00133901 42.521412 C -23.48155 42.521412 -42.52183 23.482668 -42.52183 -0.000620751 C -42.52183 -23.48391 -23.48155 -42.518929 0.00133901 -42.518929 C 23.484228 -42.518929 42.520785 -23.48391 42.520785 -0.000620751 Z M 42.520785 -0.000620751 " transform="matrix(2.097937,0,0,-2.097901,91.212035,90.03776)"/>
</g>
</g>
</g>
<g clip-path="url(#clip9)" clip-rule="nonzero">
<path style="fill:none;stroke-width:0.79701;stroke-linecap:butt;stroke-linejoin:miter;stroke:rgb(0%,0%,0%);stroke-opacity:1;stroke-miterlimit:10;" d="M 42.520785 -0.000620751 C 42.520785 23.482668 23.484228 42.521412 0.00133901 42.521412 C -23.48155 42.521412 -42.52183 23.482668 -42.52183 -0.000620751 C -42.52183 -23.48391 -23.48155 -42.518929 0.00133901 -42.518929 C 23.484228 -42.518929 42.520785 -23.48391 42.520785 -0.000620751 Z M 42.520785 -0.000620751 " transform="matrix(2.097937,0,0,-2.097901,91.212035,90.03776)"/>
</g>
<path style=" stroke:none;fill-rule:nonzero;fill:rgb(0%,0%,0%);fill-opacity:1;" d="M 87.125 94.777344 C 86.269531 96.160156 85.480469 96.457031 84.558594 96.519531 C 84.296875 96.554688 84.097656 96.554688 84.097656 96.949219 C 84.097656 97.082031 84.195312 97.179688 84.394531 97.179688 C 84.953125 97.179688 85.578125 97.113281 86.167969 97.113281 C 86.859375 97.113281 87.582031 97.179688 88.273438 97.179688 C 88.40625 97.179688 88.667969 97.179688 88.667969 96.785156 C 88.667969 96.554688 88.472656 96.519531 88.339844 96.519531 C 87.847656 96.488281 87.355469 96.324219 87.355469 95.796875 C 87.355469 95.535156 87.484375 95.304688 87.648438 95.007812 L 89.226562 92.34375 L 94.492188 92.34375 C 94.523438 92.773438 94.820312 95.632812 94.820312 95.832031 C 94.820312 96.457031 93.734375 96.519531 93.304688 96.519531 C 93.011719 96.519531 92.8125 96.519531 92.8125 96.949219 C 92.8125 97.179688 93.042969 97.179688 93.109375 97.179688 C 93.964844 97.179688 94.851562 97.113281 95.707031 97.113281 C 96.234375 97.113281 97.550781 97.179688 98.074219 97.179688 C 98.207031 97.179688 98.46875 97.179688 98.46875 96.75 C 98.46875 96.519531 98.238281 96.519531 97.976562 96.519531 C 96.660156 96.519531 96.660156 96.390625 96.628906 95.765625 L 95.34375 82.707031 C 95.3125 82.28125 95.3125 82.214844 94.949219 82.214844 C 94.621094 82.214844 94.523438 82.347656 94.390625 82.542969 Z M 89.621094 91.6875 L 93.734375 84.78125 L 94.425781 91.6875 Z M 89.621094 91.6875 "/>
<path style="fill:none;stroke-width:0.79701;stroke-linecap:butt;stroke-linejoin:miter;stroke:rgb(0%,0%,0%);stroke-opacity:1;stroke-miterlimit:10;" d="M 99.21524 -0.000620751 C 99.21524 23.482668 80.17496 42.521412 56.692071 42.521412 C 33.209182 42.521412 14.172626 23.482668 14.172626 -0.000620751 C 14.172626 -23.48391 33.209182 -42.518929 56.692071 -42.518929 C 80.17496 -42.518929 99.21524 -23.48391 99.21524 -0.000620751 Z M 99.21524 -0.000620751 " transform="matrix(2.097937,0,0,-2.097901,91.212035,90.03776)"/>
<path style=" stroke:none;fill-rule:nonzero;fill:rgb(0%,0%,0%);fill-opacity:1;" d="M 205.054688 95.535156 C 204.824219 96.355469 204.792969 96.519531 203.148438 96.519531 C 202.785156 96.519531 202.589844 96.519531 202.589844 96.949219 C 202.589844 97.179688 202.753906 97.179688 203.148438 97.179688 L 210.613281 97.179688 C 213.902344 97.179688 216.367188 94.710938 216.367188 92.671875 C 216.367188 91.160156 215.183594 89.945312 213.144531 89.714844 C 215.316406 89.320312 217.519531 87.773438 217.519531 85.765625 C 217.519531 84.222656 216.136719 82.90625 213.636719 82.90625 L 206.601562 82.90625 C 206.207031 82.90625 205.976562 82.90625 205.976562 83.300781 C 205.976562 83.53125 206.171875 83.53125 206.566406 83.53125 C 206.601562 83.53125 207.027344 83.53125 207.355469 83.597656 C 207.75 83.628906 207.949219 83.660156 207.949219 83.925781 C 207.949219 83.992188 207.914062 84.058594 207.851562 84.320312 Z M 208.210938 89.515625 L 209.496094 84.320312 C 209.691406 83.597656 209.726562 83.53125 210.644531 83.53125 L 213.34375 83.53125 C 215.183594 83.53125 215.613281 84.78125 215.613281 85.699219 C 215.613281 87.542969 213.804688 89.515625 211.269531 89.515625 Z M 207.257812 96.519531 C 206.960938 96.519531 206.929688 96.519531 206.796875 96.519531 C 206.601562 96.488281 206.535156 96.457031 206.535156 96.292969 C 206.535156 96.226562 206.535156 96.191406 206.632812 95.832031 L 208.082031 89.976562 L 212.027344 89.976562 C 214.03125 89.976562 214.429688 91.523438 214.429688 92.441406 C 214.429688 94.515625 212.585938 96.519531 210.121094 96.519531 Z M 207.257812 96.519531 "/>
<g clip-path="url(#clip10)" clip-rule="nonzero">
<path style="fill:none;stroke-width:0.79701;stroke-linecap:butt;stroke-linejoin:miter;stroke:rgb(0%,0%,0%);stroke-opacity:1;stroke-miterlimit:10;" d="M 70.867082 -56.696043 C 70.867082 -33.210892 51.828663 -14.172149 28.345774 -14.172149 C 4.861023 -14.172149 -14.173671 -33.210892 -14.173671 -56.696043 C -14.173671 -80.179332 4.861023 -99.214352 28.345774 -99.214352 C 51.828663 -99.214352 70.867082 -80.179332 70.867082 -56.696043 Z M 70.867082 -56.696043 " transform="matrix(2.097937,0,0,-2.097901,91.212035,90.03776)"/>
</g>
<path style=" stroke:none;fill-rule:nonzero;fill:rgb(0%,0%,0%);fill-opacity:1;" d="M 158.351562 201.578125 C 158.351562 201.511719 158.316406 201.382812 158.121094 201.382812 C 158.054688 201.382812 158.054688 201.382812 157.824219 201.613281 L 156.34375 203.222656 C 156.179688 202.925781 155.191406 201.382812 152.890625 201.382812 C 148.21875 201.382812 143.515625 205.984375 143.515625 210.851562 C 143.515625 214.304688 145.984375 216.574219 149.175781 216.574219 C 150.984375 216.574219 152.59375 215.753906 153.710938 214.765625 C 155.652344 213.058594 155.980469 211.148438 155.980469 211.082031 C 155.980469 210.886719 155.785156 210.886719 155.75 210.886719 C 155.621094 210.886719 155.519531 210.917969 155.488281 211.082031 C 155.292969 211.707031 154.796875 213.1875 153.351562 214.40625 C 151.902344 215.554688 150.589844 215.917969 149.503906 215.917969 C 147.628906 215.917969 145.425781 214.832031 145.425781 211.578125 C 145.425781 210.394531 145.851562 207.003906 147.957031 204.539062 C 149.207031 203.058594 151.179688 202.007812 153.054688 202.007812 C 155.191406 202.007812 156.410156 203.617188 156.410156 206.050781 C 156.410156 206.90625 156.34375 206.90625 156.34375 207.136719 C 156.34375 207.335938 156.574219 207.335938 156.671875 207.335938 C 156.9375 207.335938 156.9375 207.300781 157.035156 206.90625 Z M 158.351562 201.578125 "/>
<g clip-path="url(#clip11)" clip-rule="nonzero">
<g clip-path="url(#clip12)" clip-rule="nonzero">
<path style="fill-rule:evenodd;fill:rgb(80.000001%,80.000001%,100%);fill-opacity:1;stroke-width:0.79701;stroke-linecap:butt;stroke-linejoin:miter;stroke:rgb(0%,0%,0%);stroke-opacity:1;stroke-miterlimit:10;" d="M 240.946725 -56.696043 C 240.946725 -33.210892 221.912031 -14.172149 198.429142 -14.172149 C 174.944391 -14.172149 155.905973 -33.210892 155.905973 -56.696043 C 155.905973 -80.179332 174.944391 -99.214352 198.429142 -99.214352 C 221.912031 -99.214352 240.946725 -80.179332 240.946725 -56.696043 Z M 212.600428 -0.000620751 C 212.600428 23.482668 193.565734 42.521412 170.080983 42.521412 C 146.598094 42.521412 127.561537 23.482668 127.561537 -0.000620751 C 127.561537 -23.48391 146.598094 -42.518929 170.080983 -42.518929 C 193.565734 -42.518929 212.600428 -23.48391 212.600428 -0.000620751 Z M 212.600428 -0.000620751 " transform="matrix(2.097937,0,0,-2.097901,91.212035,90.03776)"/>
<path style="fill-rule:evenodd;fill:rgb(80.000001%,80.000001%,100%);fill-opacity:1;stroke-width:0.79701;stroke-linecap:butt;stroke-linejoin:miter;stroke:rgb(0%,0%,0%);stroke-opacity:1;stroke-miterlimit:10;" d="M 240.946725 -56.696043 C 240.946725 -33.210892 221.912031 -14.172149 198.429142 -14.172149 C 174.944391 -14.172149 155.905973 -33.210892 155.905973 -56.696043 C 155.905973 -80.179332 174.944391 -99.214352 198.429142 -99.214352 C 221.912031 -99.214352 240.946725 -80.179332 240.946725 -56.696043 Z M 269.294884 -0.000620751 C 269.294884 23.482668 250.26019 42.521412 226.775439 42.521412 C 203.29255 42.521412 184.25227 23.482668 184.25227 -0.000620751 C 184.25227 -23.48391 203.29255 -42.518929 226.775439 -42.518929 C 250.26019 -42.518929 269.294884 -23.48391 269.294884 -0.000620751 Z M 269.294884 -0.000620751 " transform="matrix(2.097937,0,0,-2.097901,91.212035,90.03776)"/>
</g>
</g>
<path style="fill:none;stroke-width:0.79701;stroke-linecap:butt;stroke-linejoin:miter;stroke:rgb(0%,0%,0%);stroke-opacity:1;stroke-miterlimit:10;" d="M 212.600428 -0.000620751 C 212.600428 23.482668 193.565734 42.521412 170.080983 42.521412 C 146.598094 42.521412 127.561537 23.482668 127.561537 -0.000620751 C 127.561537 -23.48391 146.598094 -42.518929 170.080983 -42.518929 C 193.565734 -42.518929 212.600428 -23.48391 212.600428 -0.000620751 Z M 212.600428 -0.000620751 " transform="matrix(2.097937,0,0,-2.097901,91.212035,90.03776)"/>
<path style=" stroke:none;fill-rule:nonzero;fill:rgb(0%,0%,0%);fill-opacity:1;" d="M 443.9375 94.777344 C 443.082031 96.160156 442.292969 96.457031 441.375 96.519531 C 441.109375 96.554688 440.914062 96.554688 440.914062 96.949219 C 440.914062 97.082031 441.011719 97.179688 441.207031 97.179688 C 441.769531 97.179688 442.394531 97.113281 442.984375 97.113281 C 443.675781 97.113281 444.398438 97.179688 445.089844 97.179688 C 445.222656 97.179688 445.484375 97.179688 445.484375 96.785156 C 445.484375 96.554688 445.285156 96.519531 445.15625 96.519531 C 444.664062 96.488281 444.167969 96.324219 444.167969 95.796875 C 444.167969 95.535156 444.300781 95.304688 444.464844 95.007812 L 446.042969 92.34375 L 451.304688 92.34375 C 451.339844 92.773438 451.632812 95.632812 451.632812 95.832031 C 451.632812 96.457031 450.550781 96.519531 450.121094 96.519531 C 449.824219 96.519531 449.628906 96.519531 449.628906 96.949219 C 449.628906 97.179688 449.859375 97.179688 449.925781 97.179688 C 450.78125 97.179688 451.667969 97.113281 452.523438 97.113281 C 453.046875 97.113281 454.363281 97.179688 454.890625 97.179688 C 455.023438 97.179688 455.285156 97.179688 455.285156 96.75 C 455.285156 96.519531 455.054688 96.519531 454.792969 96.519531 C 453.476562 96.519531 453.476562 96.390625 453.445312 95.765625 L 452.160156 82.707031 C 452.128906 82.28125 452.128906 82.214844 451.765625 82.214844 C 451.4375 82.214844 451.339844 82.347656 451.207031 82.542969 Z M 446.4375 91.6875 L 450.550781 84.78125 L 451.238281 91.6875 Z M 446.4375 91.6875 "/>
<g clip-path="url(#clip13)" clip-rule="nonzero">
<path style="fill:none;stroke-width:0.79701;stroke-linecap:butt;stroke-linejoin:miter;stroke:rgb(0%,0%,0%);stroke-opacity:1;stroke-miterlimit:10;" d="M 269.294884 -0.000620751 C 269.294884 23.482668 250.26019 42.521412 226.775439 42.521412 C 203.29255 42.521412 184.25227 23.482668 184.25227 -0.000620751 C 184.25227 -23.48391 203.29255 -42.518929 226.775439 -42.518929 C 250.26019 -42.518929 269.294884 -23.48391 269.294884 -0.000620751 Z M 269.294884 -0.000620751 " transform="matrix(2.097937,0,0,-2.097901,91.212035,90.03776)"/>
</g>
<path style=" stroke:none;fill-rule:nonzero;fill:rgb(0%,0%,0%);fill-opacity:1;" d="M 561.867188 95.535156 C 561.636719 96.355469 561.605469 96.519531 559.960938 96.519531 C 559.597656 96.519531 559.402344 96.519531 559.402344 96.949219 C 559.402344 97.179688 559.566406 97.179688 559.960938 97.179688 L 567.425781 97.179688 C 570.714844 97.179688 573.179688 94.710938 573.179688 92.671875 C 573.179688 91.160156 571.996094 89.945312 569.957031 89.714844 C 572.128906 89.320312 574.332031 87.773438 574.332031 85.765625 C 574.332031 84.222656 572.949219 82.90625 570.453125 82.90625 L 563.414062 82.90625 C 563.019531 82.90625 562.789062 82.90625 562.789062 83.300781 C 562.789062 83.53125 562.984375 83.53125 563.378906 83.53125 C 563.414062 83.53125 563.839844 83.53125 564.167969 83.597656 C 564.566406 83.628906 564.761719 83.660156 564.761719 83.925781 C 564.761719 83.992188 564.730469 84.058594 564.664062 84.320312 Z M 565.023438 89.515625 L 566.308594 84.320312 C 566.503906 83.597656 566.539062 83.53125 567.457031 83.53125 L 570.15625 83.53125 C 571.996094 83.53125 572.425781 84.78125 572.425781 85.699219 C 572.425781 87.542969 570.617188 89.515625 568.082031 89.515625 Z M 564.070312 96.519531 C 563.773438 96.519531 563.742188 96.519531 563.609375 96.519531 C 563.414062 96.488281 563.347656 96.457031 563.347656 96.292969 C 563.347656 96.226562 563.347656 96.191406 563.445312 95.832031 L 564.894531 89.976562 L 568.839844 89.976562 C 570.847656 89.976562 571.242188 91.523438 571.242188 92.441406 C 571.242188 94.515625 569.398438 96.519531 566.933594 96.519531 Z M 564.070312 96.519531 "/>
<g clip-path="url(#clip14)" clip-rule="nonzero">
<path style="fill:none;stroke-width:0.79701;stroke-linecap:butt;stroke-linejoin:miter;stroke:rgb(0%,0%,0%);stroke-opacity:1;stroke-miterlimit:10;" d="M 240.946725 -56.696043 C 240.946725 -33.210892 221.912031 -14.172149 198.429142 -14.172149 C 174.944391 -14.172149 155.905973 -33.210892 155.905973 -56.696043 C 155.905973 -80.179332 174.944391 -99.214352 198.429142 -99.214352 C 221.912031 -99.214352 240.946725 -80.179332 240.946725 -56.696043 Z M 240.946725 -56.696043 " transform="matrix(2.097937,0,0,-2.097901,91.212035,90.03776)"/>
</g>
<path style=" stroke:none;fill-rule:nonzero;fill:rgb(0%,0%,0%);fill-opacity:1;" d="M 515.164062 201.578125 C 515.164062 201.511719 515.132812 201.382812 514.933594 201.382812 C 514.867188 201.382812 514.867188 201.382812 514.640625 201.613281 L 513.160156 203.222656 C 512.996094 202.925781 512.007812 201.382812 509.707031 201.382812 C 505.035156 201.382812 500.332031 205.984375 500.332031 210.851562 C 500.332031 214.304688 502.800781 216.574219 505.988281 216.574219 C 507.796875 216.574219 509.410156 215.753906 510.527344 214.765625 C 512.46875 213.058594 512.796875 211.148438 512.796875 211.082031 C 512.796875 210.886719 512.601562 210.886719 512.566406 210.886719 C 512.433594 210.886719 512.335938 210.917969 512.304688 211.082031 C 512.105469 211.707031 511.613281 213.1875 510.164062 214.40625 C 508.71875 215.554688 507.402344 215.917969 506.316406 215.917969 C 504.441406 215.917969 502.238281 214.832031 502.238281 211.578125 C 502.238281 210.394531 502.667969 207.003906 504.773438 204.539062 C 506.023438 203.058594 507.996094 202.007812 509.871094 202.007812 C 512.007812 202.007812 513.222656 203.617188 513.222656 206.050781 C 513.222656 206.90625 513.160156 206.90625 513.160156 207.136719 C 513.160156 207.335938 513.390625 207.335938 513.488281 207.335938 C 513.75 207.335938 513.75 207.300781 513.847656 206.90625 Z M 515.164062 201.578125 "/>
</g>
</svg>
