<?xml version="1.0" encoding="UTF-8"?>
<svg xmlns="http://www.w3.org/2000/svg" xmlns:xlink="http://www.w3.org/1999/xlink" width="399px" height="300px" viewBox="0 0 399 300" version="1.1">
<defs>
<clipPath id="clip1">
  <path d="M 1 52 L 165 52 L 165 297.988281 L 1 297.988281 Z M 1 52 "/>
</clipPath>
<clipPath id="clip2">
  <path d="M 0.867188 29 L 188 29 L 188 297.988281 L 0.867188 297.988281 Z M 0.867188 29 "/>
</clipPath>
<clipPath id="clip3">
  <path d="M 233 52 L 397.902344 52 L 397.902344 297.988281 L 233 297.988281 Z M 233 52 "/>
</clipPath>
<clipPath id="clip4">
  <path d="M 210 29 L 397.902344 29 L 397.902344 297.988281 L 210 297.988281 Z M 210 29 "/>
</clipPath>
<clipPath id="clip5">
  <path d="M 0.867188 0.546875 L 397.902344 0.546875 L 397.902344 297.988281 L 0.867188 297.988281 Z M 0.867188 0.546875 "/>
</clipPath>
</defs>
<g id="surface1">
<g clip-path="url(#clip1)" clip-rule="nonzero">
<path style=" stroke:none;fill-rule:nonzero;fill:rgb(55.29412%,52.549022%,0%);fill-opacity:1;" d="M 164.890625 174.785156 C 164.890625 107.195312 128.363281 52.398438 83.28125 52.398438 C 38.214844 52.398438 1.671875 107.195312 1.671875 174.785156 C 1.671875 242.375 38.214844 297.167969 83.28125 297.167969 C 128.363281 297.167969 164.890625 242.375 164.890625 174.785156 Z M 164.890625 174.785156 "/>
</g>
<g clip-path="url(#clip2)" clip-rule="nonzero">
<path style="fill:none;stroke-width:0.3985;stroke-linecap:butt;stroke-linejoin:miter;stroke:rgb(0%,0%,0%);stroke-opacity:1;stroke-miterlimit:10;" d="M 19.92467 0.000877153 C 19.92467 16.507921 11.006037 29.890619 -0.00133571 29.890619 C -11.004894 29.890619 -19.927342 16.507921 -19.927342 0.000877153 C -19.927342 -16.506167 -11.004894 -29.88791 -0.00133571 -29.88791 C 11.006037 -29.88791 19.92467 -16.506167 19.92467 0.000877153 Z M 19.92467 0.000877153 " transform="matrix(4.095621,0,0,-4.094606,83.286721,174.788748)"/>
</g>
<g clip-path="url(#clip3)" clip-rule="nonzero">
<path style=" stroke:none;fill-rule:nonzero;fill:rgb(0%,67.843139%,93.725491%);fill-opacity:1;" d="M 397.085938 174.785156 C 397.085938 107.195312 360.554688 52.398438 315.472656 52.398438 C 270.410156 52.398438 233.878906 107.195312 233.878906 174.785156 C 233.878906 242.375 270.410156 297.167969 315.472656 297.167969 C 360.554688 297.167969 397.085938 242.375 397.085938 174.785156 Z M 397.085938 174.785156 "/>
</g>
<g clip-path="url(#clip4)" clip-rule="nonzero">
<path style="fill:none;stroke-width:0.3985;stroke-linecap:butt;stroke-linejoin:miter;stroke:rgb(0%,0%,0%);stroke-opacity:1;stroke-miterlimit:10;" d="M 76.618221 0.000877153 C 76.618221 16.507921 67.698634 29.890619 56.691261 29.890619 C 45.688657 29.890619 36.76907 16.507921 36.76907 0.000877153 C 36.76907 -16.506167 45.688657 -29.88791 56.691261 -29.88791 C 67.698634 -29.88791 76.618221 -16.506167 76.618221 0.000877153 Z M 76.618221 0.000877153 " transform="matrix(4.095621,0,0,-4.094606,83.286721,174.788748)"/>
</g>
<path style=" stroke:none;fill-rule:nonzero;fill:rgb(0%,0%,0%);fill-opacity:1;" d="M 76.867188 30.25 C 75.902344 31.792969 75.003906 32.5 73.332031 32.628906 C 73.011719 32.628906 72.625 32.628906 72.625 33.207031 C 72.625 33.527344 72.882812 33.65625 73.074219 33.65625 C 73.78125 33.65625 74.746094 33.527344 75.519531 33.527344 C 76.417969 33.527344 77.574219 33.65625 78.410156 33.65625 C 78.605469 33.65625 78.992188 33.65625 78.992188 33.011719 C 78.992188 32.628906 78.667969 32.628906 78.539062 32.628906 C 78.285156 32.628906 77.253906 32.5625 77.253906 31.792969 C 77.253906 31.40625 77.574219 30.957031 77.703125 30.699219 L 79.957031 27.164062 L 88.121094 27.164062 L 88.832031 31.855469 C 88.703125 32.175781 88.574219 32.628906 86.835938 32.628906 C 86.515625 32.628906 86.128906 32.628906 86.128906 33.269531 C 86.128906 33.398438 86.195312 33.65625 86.578125 33.65625 C 87.414062 33.65625 89.410156 33.527344 90.246094 33.527344 C 90.757812 33.527344 91.402344 33.589844 91.917969 33.589844 C 92.429688 33.589844 93.074219 33.65625 93.589844 33.65625 C 93.976562 33.65625 94.167969 33.398438 94.167969 33.078125 C 94.167969 32.628906 93.78125 32.628906 93.332031 32.628906 C 91.660156 32.628906 91.660156 32.371094 91.53125 31.726562 L 89.023438 14.109375 C 88.957031 13.53125 88.894531 13.273438 88.378906 13.273438 C 87.800781 13.273438 87.609375 13.53125 87.351562 13.980469 Z M 80.664062 26.132812 L 86.644531 16.8125 L 87.996094 26.132812 Z M 80.664062 26.132812 "/>
<path style=" stroke:none;fill-rule:nonzero;fill:rgb(0%,0%,0%);fill-opacity:1;" d="M 84.734375 84.609375 C 84.734375 83.835938 84.671875 83.773438 83.835938 83.773438 C 82.035156 85.574219 79.460938 85.636719 78.238281 85.636719 L 78.238281 86.667969 C 78.945312 86.667969 80.8125 86.667969 82.417969 85.832031 L 82.417969 100.425781 C 82.417969 101.324219 82.417969 101.710938 79.527344 101.710938 L 78.496094 101.710938 L 78.496094 102.738281 C 78.945312 102.738281 82.484375 102.613281 83.578125 102.613281 C 84.414062 102.613281 88.015625 102.738281 88.65625 102.738281 L 88.65625 101.710938 L 87.566406 101.710938 C 84.734375 101.710938 84.734375 101.324219 84.734375 100.425781 Z M 84.734375 84.609375 "/>
<path style=" stroke:none;fill-rule:nonzero;fill:rgb(0%,0%,0%);fill-opacity:1;" d="M 125.09375 144.476562 L 125.09375 143.445312 L 121.945312 143.445312 L 121.945312 130.714844 C 121.945312 130.136719 121.945312 129.945312 121.300781 129.945312 C 120.914062 129.945312 120.851562 129.945312 120.527344 130.332031 L 111.074219 143.445312 L 111.074219 144.476562 L 119.5 144.476562 L 119.5 146.855469 C 119.5 147.820312 119.5 148.140625 117.183594 148.140625 L 116.414062 148.140625 L 116.414062 149.167969 C 117.828125 149.105469 119.691406 149.039062 120.722656 149.039062 C 121.75 149.039062 123.550781 149.105469 125.03125 149.167969 L 125.03125 148.140625 L 124.257812 148.140625 C 121.945312 148.140625 121.945312 147.820312 121.945312 146.855469 L 121.945312 144.476562 Z M 119.691406 133.03125 L 119.691406 143.445312 L 112.167969 143.445312 Z M 119.691406 133.03125 "/>
<path style=" stroke:none;fill-rule:nonzero;fill:rgb(0%,0%,0%);fill-opacity:1;" d="M 43.121094 178.78125 L 42.15625 178.78125 C 42.09375 179.425781 41.773438 181.097656 41.449219 181.417969 C 41.191406 181.546875 39.007812 181.546875 38.621094 181.546875 L 33.347656 181.546875 C 36.371094 178.910156 37.335938 178.136719 39.070312 176.789062 C 41.191406 175.050781 43.121094 173.316406 43.121094 170.617188 C 43.121094 167.144531 40.097656 165.023438 36.433594 165.023438 C 32.898438 165.023438 30.515625 167.53125 30.515625 170.167969 C 30.515625 171.582031 31.738281 171.773438 32.0625 171.773438 C 32.703125 171.773438 33.539062 171.257812 33.539062 170.230469 C 33.539062 169.714844 33.347656 168.6875 31.867188 168.6875 C 32.769531 166.695312 34.699219 166.050781 36.046875 166.050781 C 38.878906 166.050781 40.355469 168.300781 40.355469 170.617188 C 40.355469 173.058594 38.621094 175.050781 37.65625 176.082031 L 30.773438 182.894531 C 30.515625 183.152344 30.515625 183.21875 30.515625 183.988281 L 42.285156 183.988281 Z M 43.121094 178.78125 "/>
<path style=" stroke:none;fill-rule:nonzero;fill:rgb(0%,0%,0%);fill-opacity:1;" d="M 106.152344 244.113281 C 108.402344 244.113281 110.011719 245.65625 110.011719 248.679688 C 110.011719 252.214844 107.953125 253.308594 106.28125 253.308594 C 105.125 253.308594 102.617188 252.988281 101.457031 251.316406 C 102.742188 251.25 103.066406 250.285156 103.066406 249.707031 C 103.066406 248.808594 102.421875 248.101562 101.523438 248.101562 C 100.6875 248.101562 99.914062 248.617188 99.914062 249.773438 C 99.914062 252.472656 102.871094 254.210938 106.34375 254.210938 C 110.332031 254.210938 113.035156 251.574219 113.035156 248.679688 C 113.035156 246.492188 111.234375 244.242188 108.082031 243.601562 C 111.105469 242.507812 112.132812 240.386719 112.132812 238.585938 C 112.132812 236.335938 109.5625 234.664062 106.410156 234.664062 C 103.195312 234.664062 100.816406 236.207031 100.816406 238.519531 C 100.816406 239.484375 101.457031 240 102.292969 240 C 103.195312 240 103.707031 239.355469 103.707031 238.585938 C 103.707031 237.75 103.195312 237.105469 102.292969 237.042969 C 103.257812 235.820312 105.253906 235.5 106.28125 235.5 C 107.566406 235.5 109.367188 236.140625 109.367188 238.585938 C 109.367188 239.808594 108.980469 241.15625 108.273438 241.992188 C 107.308594 243.085938 106.539062 243.152344 105.058594 243.214844 C 104.351562 243.277344 104.289062 243.277344 104.160156 243.34375 C 104.09375 243.34375 103.902344 243.40625 103.902344 243.664062 C 103.902344 244.113281 104.160156 244.113281 104.609375 244.113281 Z M 106.152344 244.113281 "/>
<path style=" stroke:none;fill-rule:nonzero;fill:rgb(0%,0%,0%);fill-opacity:1;" d="M 307.859375 31.40625 C 307.601562 32.371094 307.535156 32.628906 305.351562 32.628906 C 304.898438 32.628906 304.511719 32.628906 304.511719 33.207031 C 304.511719 33.65625 304.835938 33.65625 305.351562 33.65625 L 316.410156 33.65625 C 321.234375 33.65625 324.898438 30.375 324.898438 27.546875 C 324.898438 25.492188 323.035156 23.753906 320.011719 23.433594 C 323.484375 22.855469 326.378906 20.667969 326.378906 18.226562 C 326.378906 16.039062 324.128906 14.175781 320.460938 14.175781 L 310.042969 14.175781 C 309.53125 14.175781 309.144531 14.175781 309.144531 14.816406 C 309.144531 15.203125 309.464844 15.203125 310.042969 15.203125 C 310.109375 15.203125 310.625 15.203125 311.136719 15.269531 C 311.714844 15.332031 311.78125 15.332031 311.78125 15.652344 C 311.78125 15.71875 311.78125 15.847656 311.652344 16.296875 Z M 312.425781 23.113281 L 314.160156 16.167969 C 314.417969 15.269531 314.417969 15.203125 315.640625 15.203125 L 320.011719 15.203125 C 322.90625 15.203125 323.550781 17.066406 323.550781 18.160156 C 323.550781 20.476562 320.976562 23.113281 317.117188 23.113281 Z M 311.074219 32.628906 C 310.171875 32.628906 310.171875 32.628906 310.171875 32.371094 C 310.171875 32.304688 310.171875 32.175781 310.300781 31.726562 L 312.230469 23.949219 L 318.277344 23.949219 C 320.976562 23.949219 322.007812 25.683594 322.007812 27.355469 C 322.007812 30.183594 319.113281 32.628906 315.703125 32.628906 Z M 311.074219 32.628906 "/>
<path style=" stroke:none;fill-rule:nonzero;fill:rgb(0%,0%,0%);fill-opacity:1;" d="M 318.65625 88.757812 C 318.078125 87.859375 317.113281 87.085938 315.761719 87.085938 C 312.09375 87.085938 308.367188 91.136719 308.367188 95.253906 C 308.367188 98.019531 310.230469 99.945312 312.675781 99.945312 C 314.21875 99.945312 315.566406 99.109375 316.726562 97.953125 C 317.304688 99.691406 318.914062 99.945312 319.683594 99.945312 C 320.714844 99.945312 321.421875 99.367188 321.933594 98.46875 C 322.578125 97.375 322.964844 95.703125 322.964844 95.640625 C 322.964844 95.253906 322.578125 95.253906 322.449219 95.253906 C 322.0625 95.253906 322.0625 95.382812 321.871094 96.089844 C 321.484375 97.503906 320.96875 99.175781 319.75 99.175781 C 319.042969 99.175781 318.847656 98.53125 318.847656 97.761719 C 318.847656 97.3125 319.042969 96.28125 319.234375 95.511719 C 319.425781 94.738281 319.75 93.582031 319.878906 92.9375 L 320.457031 90.753906 C 320.648438 90.046875 320.96875 88.695312 320.96875 88.566406 C 320.96875 87.921875 320.457031 87.667969 320.003906 87.667969 C 319.492188 87.667969 318.847656 87.988281 318.65625 88.757812 Z M 316.855469 96.089844 C 316.660156 96.925781 316.019531 97.503906 315.375 98.019531 C 315.117188 98.273438 314.023438 99.175781 312.738281 99.175781 C 311.710938 99.175781 310.679688 98.402344 310.679688 96.410156 C 310.679688 94.867188 311.515625 91.78125 312.160156 90.625 C 313.511719 88.308594 314.925781 87.921875 315.761719 87.921875 C 317.753906 87.921875 318.269531 90.046875 318.269531 90.367188 C 318.269531 90.496094 318.203125 90.6875 318.203125 90.753906 Z M 316.855469 96.089844 "/>
<path style=" stroke:none;fill-rule:nonzero;fill:rgb(0%,0%,0%);fill-opacity:1;" d="M 362.265625 165.734375 C 362.328125 165.671875 362.394531 165.347656 362.394531 165.285156 C 362.394531 165.15625 362.265625 164.898438 361.941406 164.898438 C 361.363281 164.898438 358.984375 165.09375 358.277344 165.15625 C 358.085938 165.21875 357.632812 165.21875 357.632812 165.863281 C 357.632812 166.25 358.085938 166.25 358.40625 166.25 C 359.757812 166.25 359.757812 166.441406 359.757812 166.636719 C 359.757812 166.828125 359.5 167.984375 359.304688 168.628906 L 358.664062 171.265625 C 358.40625 172.230469 356.796875 178.53125 356.796875 178.851562 C 356.605469 179.558594 356.605469 179.945312 356.605469 180.265625 C 356.605469 183.160156 358.46875 184.957031 360.851562 184.957031 C 364.386719 184.957031 368.179688 181.101562 368.179688 176.859375 C 368.179688 173.515625 365.867188 172.101562 363.9375 172.101562 C 362.394531 172.101562 361.171875 172.9375 360.335938 173.707031 Z M 360.851562 184.1875 C 359.433594 184.1875 358.664062 182.964844 358.664062 181.292969 C 358.664062 180.203125 358.921875 179.238281 359.691406 176.023438 C 359.886719 175.507812 359.886719 175.445312 360.398438 174.800781 C 361.492188 173.515625 362.777344 172.9375 363.808594 172.9375 C 364.964844 172.9375 365.929688 173.773438 365.929688 175.699219 C 365.929688 176.859375 365.289062 179.75 364.453125 181.421875 C 363.742188 182.835938 362.328125 184.1875 360.851562 184.1875 Z M 360.851562 184.1875 "/>
<path style=" stroke:none;fill-rule:nonzero;fill:rgb(0%,0%,0%);fill-opacity:1;" d="M 320.660156 251.253906 C 319.632812 251.445312 319.246094 252.21875 319.246094 252.863281 C 319.246094 253.632812 319.824219 253.890625 320.339844 253.890625 C 320.984375 253.890625 321.949219 253.441406 321.949219 252.089844 C 321.949219 250.160156 319.761719 249.582031 318.21875 249.582031 C 313.910156 249.582031 309.984375 253.503906 309.984375 257.492188 C 309.984375 259.933594 311.660156 262.441406 315.257812 262.441406 C 320.082031 262.441406 322.332031 259.613281 322.332031 259.226562 C 322.332031 259.097656 322.078125 258.777344 321.820312 258.777344 C 321.691406 258.777344 321.625 258.839844 321.367188 259.035156 C 319.117188 261.667969 315.839844 261.667969 315.324219 261.667969 C 313.265625 261.667969 312.300781 260.253906 312.300781 258.519531 C 312.300781 257.683594 312.75 254.53125 314.230469 252.605469 C 315.324219 251.191406 316.804688 250.417969 318.21875 250.417969 C 318.605469 250.417969 319.953125 250.484375 320.660156 251.253906 Z M 320.660156 251.253906 "/>
<path style="fill:none;stroke-width:0.3985;stroke-linecap:butt;stroke-linejoin:miter;stroke:rgb(0%,0%,0%);stroke-opacity:1;stroke-miterlimit:10;" d="M 5.506643 23.020872 C 20.855543 31.927407 35.623601 31.958889 50.666343 23.31852 " transform="matrix(4.095621,0,0,-4.094606,83.286721,174.788748)"/>
<path style="fill:none;stroke-width:0.3985;stroke-linecap:round;stroke-linejoin:round;stroke:rgb(0%,0%,0%);stroke-opacity:1;stroke-miterlimit:10;" d="M -2.070162 2.39021 C -1.694571 0.956612 -0.849864 0.281145 -0.00113095 0.0000136339 C -0.849011 -0.278397 -1.692871 -0.957502 -2.071709 -2.390718 " transform="matrix(3.558155,2.043415,2.043921,-3.557273,291.507902,79.713297)"/>
<path style="fill:none;stroke-width:0.3985;stroke-linecap:butt;stroke-linejoin:miter;stroke:rgb(0%,0%,0%);stroke-opacity:1;stroke-miterlimit:10;" d="M 5.506643 19.722898 C 28.785124 19.275472 42.8226 15.223839 62.418605 3.404745 " transform="matrix(4.095621,0,0,-4.094606,83.286721,174.788748)"/>
<path style="fill:none;stroke-width:0.3985;stroke-linecap:round;stroke-linejoin:round;stroke:rgb(0%,0%,0%);stroke-opacity:1;stroke-miterlimit:10;" d="M -2.071536 2.391837 C -1.692836 0.958126 -0.849937 0.281679 -0.00293463 0.000432296 C -0.850866 -0.277374 -1.695534 -0.957061 -2.070533 -2.391458 " transform="matrix(3.511996,2.11777,2.118295,-3.511125,339.630484,161.273358)"/>
<path style="fill:none;stroke-width:0.3985;stroke-linecap:butt;stroke-linejoin:miter;stroke:rgb(0%,0%,0%);stroke-opacity:1;stroke-miterlimit:10;" d="M -5.834547 0.000877153 L 62.360425 0.000877153 " transform="matrix(4.095621,0,0,-4.094606,83.286721,174.788748)"/>
<path style="fill:none;stroke-width:0.3985;stroke-linecap:round;stroke-linejoin:round;stroke:rgb(0%,0%,0%);stroke-opacity:1;stroke-miterlimit:10;" d="M -2.073125 2.391599 C -1.692574 0.954876 -0.848494 0.279445 -0.000599265 0.000877153 C -0.848494 -0.277691 -1.692574 -0.956938 -2.073125 -2.389844 " transform="matrix(4.095621,0,0,-4.094606,339.514173,174.788748)"/>
<path style="fill:none;stroke-width:0.3985;stroke-linecap:butt;stroke-linejoin:miter;stroke:rgb(0%,0%,0%);stroke-opacity:1;stroke-miterlimit:10;" d="M 11.174853 -18.457095 C 31.183837 -24.086643 47.88231 -19.830853 62.473923 -5.593373 " transform="matrix(4.095621,0,0,-4.094606,83.286721,174.788748)"/>
<path style="fill:none;stroke-width:0.3985;stroke-linecap:round;stroke-linejoin:round;stroke:rgb(0%,0%,0%);stroke-opacity:1;stroke-miterlimit:10;" d="M -2.071876 2.392101 C -1.693778 0.957312 -0.849384 0.281056 0.000285525 -0.00162382 C -0.851259 -0.280644 -1.695276 -0.955099 -2.073238 -2.391251 " transform="matrix(2.939796,-2.867329,-2.86804,-2.939068,339.744503,197.124952)"/>
<g clip-path="url(#clip5)" clip-rule="nonzero">
<path style="fill:none;stroke-width:1.59404;stroke-linecap:butt;stroke-linejoin:miter;stroke:rgb(100%,0%,0%);stroke-opacity:1;stroke-miterlimit:10;" d="M -8.504128 28.347048 L 65.198822 -28.345294 " transform="matrix(4.095621,0,0,-4.094606,83.286721,174.788748)"/>
<path style="fill:none;stroke-width:1.59404;stroke-linecap:butt;stroke-linejoin:miter;stroke:rgb(100%,0%,0%);stroke-opacity:1;stroke-miterlimit:10;" d="M 65.198822 28.347048 L -5.669546 -28.345294 " transform="matrix(4.095621,0,0,-4.094606,83.286721,174.788748)"/>
</g>
</g>
</svg>
