<?xml version="1.0" encoding="UTF-8"?>
<svg xmlns="http://www.w3.org/2000/svg" xmlns:xlink="http://www.w3.org/1999/xlink" width="497px" height="300px" viewBox="0 0 497 300" version="1.1">
<defs>
<clipPath id="clip1">
  <path d="M 2.863281 18 L 235 18 L 235 278 L 2.863281 278 Z M 2.863281 18 "/>
</clipPath>
<clipPath id="clip2">
  <path d="M 262 18 L 493.851562 18 L 493.851562 278 L 262 278 Z M 262 18 "/>
</clipPath>
<clipPath id="clip3">
  <path d="M 33 0.507812 L 464 0.507812 L 464 295.875 L 33 295.875 Z M 33 0.507812 "/>
</clipPath>
<clipPath id="clip4">
  <path d="M 48 0.507812 L 464 0.507812 L 464 295.875 L 48 295.875 Z M 48 0.507812 "/>
</clipPath>
</defs>
<g id="surface1">
<path style=" stroke:none;fill-rule:nonzero;fill:rgb(55.29412%,52.549022%,0%);fill-opacity:1;" d="M 205.710938 148.203125 C 205.710938 92.4375 160.53125 47.214844 104.777344 47.214844 C 49.042969 47.214844 3.863281 92.4375 3.863281 148.203125 C 3.863281 203.964844 49.042969 249.167969 104.777344 249.167969 C 160.53125 249.167969 205.710938 203.964844 205.710938 148.203125 Z M 205.710938 148.203125 "/>
<g clip-path="url(#clip1)" clip-rule="nonzero">
<path style="fill:none;stroke-width:0.3985;stroke-linecap:butt;stroke-linejoin:miter;stroke:rgb(0%,0%,0%);stroke-opacity:1;stroke-miterlimit:10;" d="M 19.926718 -0.00141017 C 19.926718 11.003214 11.006422 19.92732 -0.00165123 19.92732 C -11.005869 19.92732 -19.926164 11.003214 -19.926164 -0.00141017 C -19.926164 -11.005264 -11.005869 -19.925515 -0.00165123 -19.925515 C 11.006422 -19.925515 19.926718 -11.005264 19.926718 -0.00141017 Z M 19.926718 -0.00141017 " transform="matrix(5.06482,0,0,-5.067472,104.785707,148.195979)"/>
</g>
<path style=" stroke:none;fill-rule:nonzero;fill:rgb(0%,67.843139%,93.725491%);fill-opacity:1;" d="M 492.851562 148.203125 C 492.851562 92.4375 447.671875 47.214844 391.9375 47.214844 C 336.183594 47.214844 291.003906 92.4375 291.003906 148.203125 C 291.003906 203.964844 336.183594 249.167969 391.9375 249.167969 C 447.671875 249.167969 492.851562 203.964844 492.851562 148.203125 Z M 492.851562 148.203125 "/>
<g clip-path="url(#clip2)" clip-rule="nonzero">
<path style="fill:none;stroke-width:0.3985;stroke-linecap:butt;stroke-linejoin:miter;stroke:rgb(0%,0%,0%);stroke-opacity:1;stroke-miterlimit:10;" d="M 76.619878 -0.00141017 C 76.619878 11.003214 67.699582 19.92732 56.695365 19.92732 C 45.687291 19.92732 36.766996 11.003214 36.766996 -0.00141017 C 36.766996 -11.005264 45.687291 -19.925515 56.695365 -19.925515 C 67.699582 -19.925515 76.619878 -11.005264 76.619878 -0.00141017 Z M 76.619878 -0.00141017 " transform="matrix(5.06482,0,0,-5.067472,104.785707,148.195979)"/>
</g>
<path style=" stroke:none;fill-rule:nonzero;fill:rgb(0%,0%,0%);fill-opacity:1;" d="M 100.238281 89.292969 C 100.238281 83.921875 95.753906 79.515625 90.46875 79.515625 C 84.941406 79.515625 80.613281 84.003906 80.613281 89.292969 C 80.613281 94.660156 84.941406 99.148438 90.46875 99.148438 C 95.753906 99.148438 100.238281 94.742188 100.238281 89.292969 Z M 100.238281 89.292969 "/>
<path style=" stroke:none;fill-rule:nonzero;fill:rgb(0%,0%,0%);fill-opacity:1;" d="M 143.3125 189.839844 C 143.3125 184.472656 138.824219 180.0625 133.539062 180.0625 C 128.011719 180.0625 123.683594 184.550781 123.683594 189.839844 C 123.683594 195.210938 128.011719 199.699219 133.539062 199.699219 C 138.824219 199.699219 143.3125 195.289062 143.3125 189.839844 Z M 143.3125 189.839844 "/>
<path style=" stroke:none;fill-rule:nonzero;fill:rgb(0%,0%,0%);fill-opacity:1;" d="M 387.378906 132.386719 C 387.378906 127.015625 382.894531 122.609375 377.605469 122.609375 C 372.078125 122.609375 367.753906 127.097656 367.753906 132.386719 C 367.753906 137.753906 372.078125 142.242188 377.605469 142.242188 C 382.894531 142.242188 387.378906 137.835938 387.378906 132.386719 Z M 387.378906 132.386719 "/>
<path style="fill:none;stroke-width:0.3985;stroke-linecap:butt;stroke-linejoin:miter;stroke:rgb(0%,0%,0%);stroke-opacity:1;stroke-miterlimit:10;" d="M 3.177448 13.69964 C 19.504072 20.378266 33.900254 18.420312 47.533668 7.863551 " transform="matrix(5.06482,0,0,-5.067472,104.785707,148.195979)"/>
<path style="fill:none;stroke-width:0.3985;stroke-linecap:round;stroke-linejoin:round;stroke:rgb(0%,0%,0%);stroke-opacity:1;stroke-miterlimit:10;" d="M -2.07398 2.391499 C -1.691924 0.956578 -0.84947 0.280941 0.000680151 0.00139144 C -0.850539 -0.278324 -1.692653 -0.95571 -2.072135 -2.392703 " transform="matrix(4.01301,3.1091,3.107473,-4.015112,346.328884,108.972222)"/>
<path style="fill:none;stroke-width:0.3985;stroke-linecap:butt;stroke-linejoin:miter;stroke:rgb(0%,0%,0%);stroke-opacity:1;stroke-miterlimit:10;" d="M 11.678954 -10.313042 C 25.355558 -14.832523 37.095549 -12.401269 47.549864 -3.081718 " transform="matrix(5.06482,0,0,-5.067472,104.785707,148.195979)"/>
<path style="fill:none;stroke-width:0.3985;stroke-linecap:round;stroke-linejoin:round;stroke:rgb(0%,0%,0%);stroke-opacity:1;stroke-miterlimit:10;" d="M -2.072563 2.389269 C -1.693386 0.955421 -0.851495 0.279378 0.00182351 0.000759908 C -0.850423 -0.277785 -1.692151 -0.955771 -2.072071 -2.391043 " transform="matrix(3.783423,-3.37377,-3.372004,-3.785404,346.37457,163.137935)"/>
<g clip-path="url(#clip3)" clip-rule="nonzero">
<path style="fill:none;stroke-width:1.59404;stroke-linecap:butt;stroke-linejoin:miter;stroke:rgb(100%,0%,0%);stroke-opacity:1;stroke-miterlimit:10;" d="M 8.503711 28.344979 L 48.190003 -28.347799 " transform="matrix(5.06482,0,0,-5.067472,104.785707,148.195979)"/>
</g>
<g clip-path="url(#clip4)" clip-rule="nonzero">
<path style="fill:none;stroke-width:1.59404;stroke-linecap:butt;stroke-linejoin:miter;stroke:rgb(100%,0%,0%);stroke-opacity:1;stroke-miterlimit:10;" d="M 48.190003 28.344979 L 11.338832 -28.347799 " transform="matrix(5.06482,0,0,-5.067472,104.785707,148.195979)"/>
</g>
</g>
</svg>
