<?xml version="1.0" encoding="UTF-8"?>
<svg xmlns="http://www.w3.org/2000/svg" xmlns:xlink="http://www.w3.org/1999/xlink" width="497px" height="300px" viewBox="0 0 497 300" version="1.1">
<defs>
<clipPath id="clip1">
  <path d="M 2.863281 18 L 235 18 L 235 278 L 2.863281 278 Z M 2.863281 18 "/>
</clipPath>
<clipPath id="clip2">
  <path d="M 262 18 L 493.851562 18 L 493.851562 278 L 262 278 Z M 262 18 "/>
</clipPath>
<clipPath id="clip3">
  <path d="M 33 0.507812 L 464 0.507812 L 464 295.875 L 33 295.875 Z M 33 0.507812 "/>
</clipPath>
<clipPath id="clip4">
  <path d="M 48 0.507812 L 464 0.507812 L 464 295.875 L 48 295.875 Z M 48 0.507812 "/>
</clipPath>
</defs>
<g id="surface1">
<path style=" stroke:none;fill-rule:nonzero;fill:rgb(0%,67.843139%,93.725491%);fill-opacity:1;" d="M 205.710938 148.203125 C 205.710938 92.4375 160.53125 47.214844 104.777344 47.214844 C 49.042969 47.214844 3.863281 92.4375 3.863281 148.203125 C 3.863281 203.964844 49.042969 249.167969 104.777344 249.167969 C 160.53125 249.167969 205.710938 203.964844 205.710938 148.203125 Z M 205.710938 148.203125 "/>
<g clip-path="url(#clip1)" clip-rule="nonzero">
<path style="fill:none;stroke-width:0.3985;stroke-linecap:butt;stroke-linejoin:miter;stroke:rgb(0%,0%,0%);stroke-opacity:1;stroke-miterlimit:10;" d="M 19.926718 -0.00141017 C 19.926718 11.003214 11.006422 19.92732 -0.00165123 19.92732 C -11.005869 19.92732 -19.926164 11.003214 -19.926164 -0.00141017 C -19.926164 -11.005264 -11.005869 -19.925515 -0.00165123 -19.925515 C 11.006422 -19.925515 19.926718 -11.005264 19.926718 -0.00141017 Z M 19.926718 -0.00141017 " transform="matrix(5.06482,0,0,-5.067472,104.785707,148.195979)"/>
</g>
<path style=" stroke:none;fill-rule:nonzero;fill:rgb(55.29412%,52.549022%,0%);fill-opacity:1;" d="M 492.851562 148.203125 C 492.851562 92.4375 447.671875 47.214844 391.9375 47.214844 C 336.183594 47.214844 291.003906 92.4375 291.003906 148.203125 C 291.003906 203.964844 336.183594 249.167969 391.9375 249.167969 C 447.671875 249.167969 492.851562 203.964844 492.851562 148.203125 Z M 492.851562 148.203125 "/>
<g clip-path="url(#clip2)" clip-rule="nonzero">
<path style="fill:none;stroke-width:0.3985;stroke-linecap:butt;stroke-linejoin:miter;stroke:rgb(0%,0%,0%);stroke-opacity:1;stroke-miterlimit:10;" d="M 76.619878 -0.00141017 C 76.619878 11.003214 67.699582 19.92732 56.695365 19.92732 C 45.687291 19.92732 36.766996 11.003214 36.766996 -0.00141017 C 36.766996 -11.005264 45.687291 -19.925515 56.695365 -19.925515 C 67.699582 -19.925515 76.619878 -11.005264 76.619878 -0.00141017 Z M 76.619878 -0.00141017 " transform="matrix(5.06482,0,0,-5.067472,104.785707,148.195979)"/>
</g>
<path style=" stroke:none;fill-rule:nonzero;fill:rgb(0%,0%,0%);fill-opacity:1;" d="M 100.238281 89.292969 C 100.238281 83.921875 95.753906 79.515625 90.46875 79.515625 C 84.941406 79.515625 80.613281 84.003906 80.613281 89.292969 C 80.613281 94.660156 84.941406 99.148438 90.46875 99.148438 C 95.753906 99.148438 100.238281 94.742188 100.238281 89.292969 Z M 100.238281 89.292969 "/>
<path style=" stroke:none;fill-rule:nonzero;fill:rgb(0%,0%,0%);fill-opacity:1;" d="M 373.027344 189.839844 C 373.027344 184.472656 368.539062 180.0625 363.253906 180.0625 C 357.726562 180.0625 353.398438 184.550781 353.398438 189.839844 C 353.398438 195.210938 357.726562 199.699219 363.253906 199.699219 C 368.539062 199.699219 373.027344 195.289062 373.027344 189.839844 Z M 373.027344 189.839844 "/>
<path style=" stroke:none;fill-rule:nonzero;fill:rgb(0%,0%,0%);fill-opacity:1;" d="M 430.453125 132.386719 C 430.453125 127.015625 425.964844 122.609375 420.679688 122.609375 C 415.152344 122.609375 410.824219 127.097656 410.824219 132.386719 C 410.824219 137.753906 415.152344 142.242188 420.679688 142.242188 C 425.964844 142.242188 430.453125 137.835938 430.453125 132.386719 Z M 430.453125 132.386719 "/>
<path style="fill:none;stroke-width:0.3985;stroke-linecap:butt;stroke-linejoin:miter;stroke:rgb(0%,0%,0%);stroke-opacity:1;stroke-miterlimit:10;" d="M 3.177448 13.833768 C 22.393952 22.046381 39.629882 19.970487 56.031317 7.673922 " transform="matrix(5.06482,0,0,-5.067472,104.785707,148.195979)"/>
<path style="fill:none;stroke-width:0.3985;stroke-linecap:round;stroke-linejoin:round;stroke:rgb(0%,0%,0%);stroke-opacity:1;stroke-miterlimit:10;" d="M -2.073077 2.392755 C -1.693514 0.955113 -0.85199 0.278144 -0.000200774 0.00203918 C -0.849876 -0.281254 -1.691549 -0.956507 -2.071465 -2.392127 " transform="matrix(4.071358,3.054574,3.052975,-4.07349,389.389123,109.919076)"/>
<g clip-path="url(#clip3)" clip-rule="nonzero">
<path style="fill:none;stroke-width:1.59404;stroke-linecap:butt;stroke-linejoin:miter;stroke:rgb(100%,0%,0%);stroke-opacity:1;stroke-miterlimit:10;" d="M 8.503711 28.344979 L 48.190003 -28.347799 " transform="matrix(5.06482,0,0,-5.067472,104.785707,148.195979)"/>
</g>
<g clip-path="url(#clip4)" clip-rule="nonzero">
<path style="fill:none;stroke-width:1.59404;stroke-linecap:butt;stroke-linejoin:miter;stroke:rgb(100%,0%,0%);stroke-opacity:1;stroke-miterlimit:10;" d="M 48.190003 28.344979 L 11.338832 -28.347799 " transform="matrix(5.06482,0,0,-5.067472,104.785707,148.195979)"/>
</g>
</g>
</svg>
