<?xml version="1.0" encoding="UTF-8"?>
<svg xmlns="http://www.w3.org/2000/svg" xmlns:xlink="http://www.w3.org/1999/xlink" width="497pt" height="300pt" viewBox="0 0 497 300" version="1.1">
<defs>
<clipPath id="clip1">
  <path d="M 3 46.234375 L 207 46.234375 L 207 250 L 3 250 Z M 3 46.234375 "/>
</clipPath>
<clipPath id="clip2">
  <path d="M 2.867188 18 L 235 18 L 235 278 L 2.867188 278 Z M 2.867188 18 "/>
</clipPath>
<clipPath id="clip3">
  <path d="M 291 46.234375 L 494 46.234375 L 494 250 L 291 250 Z M 291 46.234375 "/>
</clipPath>
<clipPath id="clip4">
  <path d="M 262 18 L 494.578125 18 L 494.578125 278 L 262 278 Z M 262 18 "/>
</clipPath>
<clipPath id="clip5">
  <path d="M 33 0 L 464 0 L 464 295.796875 L 33 295.796875 Z M 33 0 "/>
</clipPath>
<clipPath id="clip6">
  <path d="M 48 0 L 464 0 L 464 295.796875 L 48 295.796875 Z M 48 0 "/>
</clipPath>
</defs>
<g id="surface1">
<g clip-path="url(#clip1)" clip-rule="nonzero">
<path style=" stroke:none;fill-rule:nonzero;fill:rgb(0%,67.843137%,93.72549%);fill-opacity:1;" d="M 206.015625 147.910156 C 206.015625 92.0625 160.769531 46.773438 104.933594 46.773438 C 49.117188 46.773438 3.871094 92.0625 3.871094 147.910156 C 3.871094 203.753906 49.117188 249.023438 104.933594 249.023438 C 160.769531 249.023438 206.015625 203.753906 206.015625 147.910156 Z M 206.015625 147.910156 "/>
</g>
<g clip-path="url(#clip2)" clip-rule="nonzero">
<path style="fill:none;stroke-width:0.3985;stroke-linecap:butt;stroke-linejoin:miter;stroke:rgb(0%,0%,0%);stroke-opacity:1;stroke-miterlimit:10;" d="M 19.926523 -0.0013919 C 19.926523 11.003277 11.006973 19.927395 -0.00114851 19.927395 C -11.005419 19.927395 -19.92574 11.003277 -19.92574 -0.0013919 C -19.92574 -11.005291 -11.005419 -19.925561 -0.00114851 -19.925561 C 11.006973 -19.925561 19.926523 -11.005291 19.926523 -0.0013919 Z M 19.926523 -0.0013919 " transform="matrix(5.07225,0,0,-5.074906,104.939419,147.903092)"/>
</g>
<g clip-path="url(#clip3)" clip-rule="nonzero">
<path style=" stroke:none;fill-rule:nonzero;fill:rgb(55.294118%,52.54902%,0%);fill-opacity:1;" d="M 493.574219 147.910156 C 493.574219 92.0625 448.328125 46.773438 392.511719 46.773438 C 336.675781 46.773438 291.429688 92.0625 291.429688 147.910156 C 291.429688 203.753906 336.675781 249.023438 392.511719 249.023438 C 448.328125 249.023438 493.574219 203.753906 493.574219 147.910156 Z M 493.574219 147.910156 "/>
</g>
<g clip-path="url(#clip4)" clip-rule="nonzero">
<path style="fill:none;stroke-width:0.3985;stroke-linecap:butt;stroke-linejoin:miter;stroke:rgb(0%,0%,0%);stroke-opacity:1;stroke-miterlimit:10;" d="M 76.619811 -0.0013919 C 76.619811 11.003277 67.69949 19.927395 56.695219 19.927395 C 45.687098 19.927395 36.766777 11.003277 36.766777 -0.0013919 C 36.766777 -11.005291 45.687098 -19.925561 56.695219 -19.925561 C 67.69949 -19.925561 76.619811 -11.005291 76.619811 -0.0013919 Z M 76.619811 -0.0013919 " transform="matrix(5.07225,0,0,-5.074906,104.939419,147.903092)"/>
</g>
<path style=" stroke:none;fill-rule:nonzero;fill:rgb(0%,0%,0%);fill-opacity:1;" d="M 100.386719 88.914062 C 100.386719 83.535156 95.894531 79.121094 90.601562 79.121094 C 85.066406 79.121094 80.734375 83.613281 80.734375 88.914062 C 80.734375 94.289062 85.066406 98.785156 90.601562 98.785156 C 95.894531 98.785156 100.386719 94.371094 100.386719 88.914062 Z M 100.386719 88.914062 "/>
<path style=" stroke:none;fill-rule:nonzero;fill:rgb(0%,0%,0%);fill-opacity:1;" d="M 373.574219 189.609375 C 373.574219 184.230469 369.082031 179.816406 363.785156 179.816406 C 358.25 179.816406 353.917969 184.3125 353.917969 189.609375 C 353.917969 194.988281 358.25 199.480469 363.785156 199.480469 C 369.082031 199.480469 373.574219 195.066406 373.574219 189.609375 Z M 373.574219 189.609375 "/>
<path style=" stroke:none;fill-rule:nonzero;fill:rgb(0%,0%,0%);fill-opacity:1;" d="M 431.082031 132.070312 C 431.082031 126.691406 426.589844 122.277344 421.296875 122.277344 C 415.761719 122.277344 411.429688 126.773438 411.429688 132.070312 C 411.429688 137.449219 415.761719 141.941406 421.296875 141.941406 C 426.589844 141.941406 431.082031 137.527344 431.082031 132.070312 Z M 431.082031 132.070312 "/>
<path style="fill:none;stroke-width:0.3985;stroke-linecap:butt;stroke-linejoin:miter;stroke:rgb(0%,0%,0%);stroke-opacity:1;stroke-miterlimit:10;" d="M 3.177914 13.834302 C 22.393994 22.046431 39.63009 19.9705 56.031374 7.673473 " transform="matrix(5.07225,0,0,-5.074906,104.939419,147.903092)"/>
<path style="fill:none;stroke-width:0.3985;stroke-linecap:round;stroke-linejoin:round;stroke:rgb(0%,0%,0%);stroke-opacity:1;stroke-miterlimit:10;" d="M -2.072779 2.392603 C -1.693466 0.955381 -0.851642 0.278637 -0.000181422 0.00171167 C -0.850298 -0.281473 -1.691964 -0.956657 -2.071018 -2.391859 " transform="matrix(4.07733,3.059055,3.057454,-4.079466,389.96035,109.570038)"/>
<g clip-path="url(#clip5)" clip-rule="nonzero">
<path style="fill:none;stroke-width:1.59404;stroke-linecap:butt;stroke-linejoin:miter;stroke:rgb(100%,0%,0%);stroke-opacity:1;stroke-miterlimit:10;" d="M 8.504077 28.345039 L 48.189994 -28.347823 " transform="matrix(5.07225,0,0,-5.074906,104.939419,147.903092)"/>
</g>
<g clip-path="url(#clip6)" clip-rule="nonzero">
<path style="fill:none;stroke-width:1.59404;stroke-linecap:butt;stroke-linejoin:miter;stroke:rgb(100%,0%,0%);stroke-opacity:1;stroke-miterlimit:10;" d="M 48.189994 28.345039 L 11.338895 -28.347823 " transform="matrix(5.07225,0,0,-5.074906,104.939419,147.903092)"/>
</g>
</g>
</svg>
