<?xml version="1.0" encoding="UTF-8"?>
<svg xmlns="http://www.w3.org/2000/svg" xmlns:xlink="http://www.w3.org/1999/xlink" width="485pt" height="300pt" viewBox="0 0 485 300" version="1.1">
<defs>
<clipPath id="clip1">
  <path d="M 0 0.0859375 L 482.8125 0.0859375 L 482.8125 299.667969 L 0 299.667969 Z M 0 0.0859375 "/>
</clipPath>
<clipPath id="clip2">
  <path d="M 91.476562 0.0859375 L 346 0.0859375 L 346 291 L 91.476562 291 Z M 91.476562 0.0859375 "/>
</clipPath>
<clipPath id="clip3">
  <path d="M 0.714844 168.070312 C 0.714844 200.453125 34.714844 213.144531 66.589844 218.765625 C 106.492188 225.804688 102.691406 282.695312 142.59375 289.730469 C 194.910156 298.960938 216.15625 239.042969 269.277344 239.042969 C 320.066406 239.042969 345.175781 269.453125 395.960938 269.453125 C 428.722656 263.679688 405.160156 210.0625 433.960938 193.421875 C 459.621094 184.078125 482.105469 170.042969 482.105469 142.726562 C 482.105469 72.953125 354.824219 127.117188 319.953125 66.695312 C 290.269531 15.273438 242.492188 0.800781 183.132812 0.800781 C 125.308594 0.800781 124.414062 92.039062 66.589844 92.039062 C 27.316406 92.039062 0.714844 128.792969 0.714844 168.070312 Z M 0.714844 168.070312 "/>
</clipPath>
<clipPath id="clip4">
  <path d="M 81 0.0859375 L 356 0.0859375 L 356 291 L 81 291 Z M 81 0.0859375 "/>
</clipPath>
<clipPath id="clip5">
  <path d="M 0.714844 168.070312 C 0.714844 200.453125 34.714844 213.144531 66.589844 218.765625 C 106.492188 225.804688 102.691406 282.695312 142.59375 289.730469 C 194.910156 298.960938 216.15625 239.042969 269.277344 239.042969 C 320.066406 239.042969 345.175781 269.453125 395.960938 269.453125 C 428.722656 263.679688 405.160156 210.0625 433.960938 193.421875 C 459.621094 184.078125 482.105469 170.042969 482.105469 142.726562 C 482.105469 72.953125 354.824219 127.117188 319.953125 66.695312 C 290.269531 15.273438 242.492188 0.800781 183.132812 0.800781 C 125.308594 0.800781 124.414062 92.039062 66.589844 92.039062 C 27.316406 92.039062 0.714844 128.792969 0.714844 168.070312 Z M 0.714844 168.070312 "/>
</clipPath>
<clipPath id="clip6">
  <path d="M 243.933594 0.0859375 L 482.488281 0.0859375 L 482.488281 291 L 243.933594 291 Z M 243.933594 0.0859375 "/>
</clipPath>
<clipPath id="clip7">
  <path d="M 0.714844 168.070312 C 0.714844 200.453125 34.714844 213.144531 66.589844 218.765625 C 106.492188 225.804688 102.691406 282.695312 142.59375 289.730469 C 194.910156 298.960938 216.15625 239.042969 269.277344 239.042969 C 320.066406 239.042969 345.175781 269.453125 395.960938 269.453125 C 428.722656 263.679688 405.160156 210.0625 433.960938 193.421875 C 459.621094 184.078125 482.105469 170.042969 482.105469 142.726562 C 482.105469 72.953125 354.824219 127.117188 319.953125 66.695312 C 290.269531 15.273438 242.492188 0.800781 183.132812 0.800781 C 125.308594 0.800781 124.414062 92.039062 66.589844 92.039062 C 27.316406 92.039062 0.714844 128.792969 0.714844 168.070312 Z M 0.714844 168.070312 "/>
</clipPath>
<clipPath id="clip8">
  <path d="M 233.171875 0.0859375 L 482.488281 0.0859375 L 482.488281 291 L 233.171875 291 Z M 233.171875 0.0859375 "/>
</clipPath>
<clipPath id="clip9">
  <path d="M 0.714844 168.070312 C 0.714844 200.453125 34.714844 213.144531 66.589844 218.765625 C 106.492188 225.804688 102.691406 282.695312 142.59375 289.730469 C 194.910156 298.960938 216.15625 239.042969 269.277344 239.042969 C 320.066406 239.042969 345.175781 269.453125 395.960938 269.453125 C 428.722656 263.679688 405.160156 210.0625 433.960938 193.421875 C 459.621094 184.078125 482.105469 170.042969 482.105469 142.726562 C 482.105469 72.953125 354.824219 127.117188 319.953125 66.695312 C 290.269531 15.273438 242.492188 0.800781 183.132812 0.800781 C 125.308594 0.800781 124.414062 92.039062 66.589844 92.039062 C 27.316406 92.039062 0.714844 128.792969 0.714844 168.070312 Z M 0.714844 168.070312 "/>
</clipPath>
<clipPath id="clip10">
  <path d="M 0 0.0859375 L 482.488281 0.0859375 L 482.488281 218.898438 L 0 218.898438 Z M 0 0.0859375 "/>
</clipPath>
<clipPath id="clip11">
  <path d="M 0.714844 168.070312 C 0.714844 200.453125 34.714844 213.144531 66.589844 218.765625 C 106.492188 225.804688 102.691406 282.695312 142.59375 289.730469 C 194.910156 298.960938 216.15625 239.042969 269.277344 239.042969 C 320.066406 239.042969 345.175781 269.453125 395.960938 269.453125 C 428.722656 263.679688 405.160156 210.0625 433.960938 193.421875 C 459.621094 184.078125 482.105469 170.042969 482.105469 142.726562 C 482.105469 72.953125 354.824219 127.117188 319.953125 66.695312 C 290.269531 15.273438 242.492188 0.800781 183.132812 0.800781 C 125.308594 0.800781 124.414062 92.039062 66.589844 92.039062 C 27.316406 92.039062 0.714844 128.792969 0.714844 168.070312 Z M 0.714844 168.070312 "/>
</clipPath>
<clipPath id="clip12">
  <path d="M 0 0.0859375 L 482.488281 0.0859375 L 482.488281 229 L 0 229 Z M 0 0.0859375 "/>
</clipPath>
<clipPath id="clip13">
  <path d="M 0.714844 168.070312 C 0.714844 200.453125 34.714844 213.144531 66.589844 218.765625 C 106.492188 225.804688 102.691406 282.695312 142.59375 289.730469 C 194.910156 298.960938 216.15625 239.042969 269.277344 239.042969 C 320.066406 239.042969 345.175781 269.453125 395.960938 269.453125 C 428.722656 263.679688 405.160156 210.0625 433.960938 193.421875 C 459.621094 184.078125 482.105469 170.042969 482.105469 142.726562 C 482.105469 72.953125 354.824219 127.117188 319.953125 66.695312 C 290.269531 15.273438 242.492188 0.800781 183.132812 0.800781 C 125.308594 0.800781 124.414062 92.039062 66.589844 92.039062 C 27.316406 92.039062 0.714844 128.792969 0.714844 168.070312 Z M 0.714844 168.070312 "/>
</clipPath>
<clipPath id="clip14">
  <path d="M 0 0.0859375 L 193.714844 0.0859375 L 193.714844 291 L 0 291 Z M 0 0.0859375 "/>
</clipPath>
<clipPath id="clip15">
  <path d="M 0.714844 168.070312 C 0.714844 200.453125 34.714844 213.144531 66.589844 218.765625 C 106.492188 225.804688 102.691406 282.695312 142.59375 289.730469 C 194.910156 298.960938 216.15625 239.042969 269.277344 239.042969 C 320.066406 239.042969 345.175781 269.453125 395.960938 269.453125 C 428.722656 263.679688 405.160156 210.0625 433.960938 193.421875 C 459.621094 184.078125 482.105469 170.042969 482.105469 142.726562 C 482.105469 72.953125 354.824219 127.117188 319.953125 66.695312 C 290.269531 15.273438 242.492188 0.800781 183.132812 0.800781 C 125.308594 0.800781 124.414062 92.039062 66.589844 92.039062 C 27.316406 92.039062 0.714844 128.792969 0.714844 168.070312 Z M 0.714844 168.070312 "/>
</clipPath>
<clipPath id="clip16">
  <path d="M 0 0.0859375 L 204 0.0859375 L 204 291 L 0 291 Z M 0 0.0859375 "/>
</clipPath>
<clipPath id="clip17">
  <path d="M 0.714844 168.070312 C 0.714844 200.453125 34.714844 213.144531 66.589844 218.765625 C 106.492188 225.804688 102.691406 282.695312 142.59375 289.730469 C 194.910156 298.960938 216.15625 239.042969 269.277344 239.042969 C 320.066406 239.042969 345.175781 269.453125 395.960938 269.453125 C 428.722656 263.679688 405.160156 210.0625 433.960938 193.421875 C 459.621094 184.078125 482.105469 170.042969 482.105469 142.726562 C 482.105469 72.953125 354.824219 127.117188 319.953125 66.695312 C 290.269531 15.273438 242.492188 0.800781 183.132812 0.800781 C 125.308594 0.800781 124.414062 92.039062 66.589844 92.039062 C 27.316406 92.039062 0.714844 128.792969 0.714844 168.070312 Z M 0.714844 168.070312 "/>
</clipPath>
<clipPath id="clip18">
  <path d="M 0 0.0859375 L 447 0.0859375 L 447 118 L 0 118 Z M 0 0.0859375 "/>
</clipPath>
<clipPath id="clip19">
  <path d="M 0.714844 168.070312 C 0.714844 200.453125 34.714844 213.144531 66.589844 218.765625 C 106.492188 225.804688 102.691406 282.695312 142.59375 289.730469 C 194.910156 298.960938 216.15625 239.042969 269.277344 239.042969 C 320.066406 239.042969 345.175781 269.453125 395.960938 269.453125 C 428.722656 263.679688 405.160156 210.0625 433.960938 193.421875 C 459.621094 184.078125 482.105469 170.042969 482.105469 142.726562 C 482.105469 72.953125 354.824219 127.117188 319.953125 66.695312 C 290.269531 15.273438 242.492188 0.800781 183.132812 0.800781 C 125.308594 0.800781 124.414062 92.039062 66.589844 92.039062 C 27.316406 92.039062 0.714844 128.792969 0.714844 168.070312 Z M 0.714844 168.070312 "/>
</clipPath>
<clipPath id="clip20">
  <path d="M 0 0.0859375 L 457 0.0859375 L 457 128 L 0 128 Z M 0 0.0859375 "/>
</clipPath>
<clipPath id="clip21">
  <path d="M 0.714844 168.070312 C 0.714844 200.453125 34.714844 213.144531 66.589844 218.765625 C 106.492188 225.804688 102.691406 282.695312 142.59375 289.730469 C 194.910156 298.960938 216.15625 239.042969 269.277344 239.042969 C 320.066406 239.042969 345.175781 269.453125 395.960938 269.453125 C 428.722656 263.679688 405.160156 210.0625 433.960938 193.421875 C 459.621094 184.078125 482.105469 170.042969 482.105469 142.726562 C 482.105469 72.953125 354.824219 127.117188 319.953125 66.695312 C 290.269531 15.273438 242.492188 0.800781 183.132812 0.800781 C 125.308594 0.800781 124.414062 92.039062 66.589844 92.039062 C 27.316406 92.039062 0.714844 128.792969 0.714844 168.070312 Z M 0.714844 168.070312 "/>
</clipPath>
<clipPath id="clip22">
  <path d="M 183 33 L 197 33 L 197 46.652344 L 183 46.652344 Z M 183 33 "/>
</clipPath>
<clipPath id="clip23">
  <path d="M 0.714844 168.070312 C 0.714844 200.453125 34.714844 213.144531 66.589844 218.765625 C 106.492188 225.804688 102.691406 282.695312 142.59375 289.730469 C 194.910156 298.960938 216.15625 239.042969 269.277344 239.042969 C 320.066406 239.042969 345.175781 269.453125 395.960938 269.453125 C 428.722656 263.679688 405.160156 210.0625 433.960938 193.421875 C 459.621094 184.078125 482.105469 170.042969 482.105469 142.726562 C 482.105469 72.953125 354.824219 127.117188 319.953125 66.695312 C 290.269531 15.273438 242.492188 0.800781 183.132812 0.800781 C 125.308594 0.800781 124.414062 92.039062 66.589844 92.039062 C 27.316406 92.039062 0.714844 128.792969 0.714844 168.070312 Z M 0.714844 168.070312 "/>
</clipPath>
<clipPath id="clip24">
  <path d="M 197 40 L 202 40 L 202 49 L 197 49 Z M 197 40 "/>
</clipPath>
<clipPath id="clip25">
  <path d="M 0.714844 168.070312 C 0.714844 200.453125 34.714844 213.144531 66.589844 218.765625 C 106.492188 225.804688 102.691406 282.695312 142.59375 289.730469 C 194.910156 298.960938 216.15625 239.042969 269.277344 239.042969 C 320.066406 239.042969 345.175781 269.453125 395.960938 269.453125 C 428.722656 263.679688 405.160156 210.0625 433.960938 193.421875 C 459.621094 184.078125 482.105469 170.042969 482.105469 142.726562 C 482.105469 72.953125 354.824219 127.117188 319.953125 66.695312 C 290.269531 15.273438 242.492188 0.800781 183.132812 0.800781 C 125.308594 0.800781 124.414062 92.039062 66.589844 92.039062 C 27.316406 92.039062 0.714844 128.792969 0.714844 168.070312 Z M 0.714844 168.070312 "/>
</clipPath>
<clipPath id="clip26">
  <path d="M 82 186 L 95 186 L 95 199 L 82 199 Z M 82 186 "/>
</clipPath>
<clipPath id="clip27">
  <path d="M 0.714844 168.070312 C 0.714844 200.453125 34.714844 213.144531 66.589844 218.765625 C 106.492188 225.804688 102.691406 282.695312 142.59375 289.730469 C 194.910156 298.960938 216.15625 239.042969 269.277344 239.042969 C 320.066406 239.042969 345.175781 269.453125 395.960938 269.453125 C 428.722656 263.679688 405.160156 210.0625 433.960938 193.421875 C 459.621094 184.078125 482.105469 170.042969 482.105469 142.726562 C 482.105469 72.953125 354.824219 127.117188 319.953125 66.695312 C 290.269531 15.273438 242.492188 0.800781 183.132812 0.800781 C 125.308594 0.800781 124.414062 92.039062 66.589844 92.039062 C 27.316406 92.039062 0.714844 128.792969 0.714844 168.070312 Z M 0.714844 168.070312 "/>
</clipPath>
<clipPath id="clip28">
  <path d="M 95.0625 192 L 101 192 L 101 200.957031 L 95.0625 200.957031 Z M 95.0625 192 "/>
</clipPath>
<clipPath id="clip29">
  <path d="M 0.714844 168.070312 C 0.714844 200.453125 34.714844 213.144531 66.589844 218.765625 C 106.492188 225.804688 102.691406 282.695312 142.59375 289.730469 C 194.910156 298.960938 216.15625 239.042969 269.277344 239.042969 C 320.066406 239.042969 345.175781 269.453125 395.960938 269.453125 C 428.722656 263.679688 405.160156 210.0625 433.960938 193.421875 C 459.621094 184.078125 482.105469 170.042969 482.105469 142.726562 C 482.105469 72.953125 354.824219 127.117188 319.953125 66.695312 C 290.269531 15.273438 242.492188 0.800781 183.132812 0.800781 C 125.308594 0.800781 124.414062 92.039062 66.589844 92.039062 C 27.316406 92.039062 0.714844 128.792969 0.714844 168.070312 Z M 0.714844 168.070312 "/>
</clipPath>
<clipPath id="clip30">
  <path d="M 284 120 L 297.742188 120 L 297.742188 132.773438 L 284 132.773438 Z M 284 120 "/>
</clipPath>
<clipPath id="clip31">
  <path d="M 0.714844 168.070312 C 0.714844 200.453125 34.714844 213.144531 66.589844 218.765625 C 106.492188 225.804688 102.691406 282.695312 142.59375 289.730469 C 194.910156 298.960938 216.15625 239.042969 269.277344 239.042969 C 320.066406 239.042969 345.175781 269.453125 395.960938 269.453125 C 428.722656 263.679688 405.160156 210.0625 433.960938 193.421875 C 459.621094 184.078125 482.105469 170.042969 482.105469 142.726562 C 482.105469 72.953125 354.824219 127.117188 319.953125 66.695312 C 290.269531 15.273438 242.492188 0.800781 183.132812 0.800781 C 125.308594 0.800781 124.414062 92.039062 66.589844 92.039062 C 27.316406 92.039062 0.714844 128.792969 0.714844 168.070312 Z M 0.714844 168.070312 "/>
</clipPath>
<clipPath id="clip32">
  <path d="M 297.742188 126 L 304 126 L 304 136 L 297.742188 136 Z M 297.742188 126 "/>
</clipPath>
<clipPath id="clip33">
  <path d="M 0.714844 168.070312 C 0.714844 200.453125 34.714844 213.144531 66.589844 218.765625 C 106.492188 225.804688 102.691406 282.695312 142.59375 289.730469 C 194.910156 298.960938 216.15625 239.042969 269.277344 239.042969 C 320.066406 239.042969 345.175781 269.453125 395.960938 269.453125 C 428.722656 263.679688 405.160156 210.0625 433.960938 193.421875 C 459.621094 184.078125 482.105469 170.042969 482.105469 142.726562 C 482.105469 72.953125 354.824219 127.117188 319.953125 66.695312 C 290.269531 15.273438 242.492188 0.800781 183.132812 0.800781 C 125.308594 0.800781 124.414062 92.039062 66.589844 92.039062 C 27.316406 92.039062 0.714844 128.792969 0.714844 168.070312 Z M 0.714844 168.070312 "/>
</clipPath>
<clipPath id="clip34">
  <path d="M 203 221 L 217 221 L 217 234 L 203 234 Z M 203 221 "/>
</clipPath>
<clipPath id="clip35">
  <path d="M 0.714844 168.070312 C 0.714844 200.453125 34.714844 213.144531 66.589844 218.765625 C 106.492188 225.804688 102.691406 282.695312 142.59375 289.730469 C 194.910156 298.960938 216.15625 239.042969 269.277344 239.042969 C 320.066406 239.042969 345.175781 269.453125 395.960938 269.453125 C 428.722656 263.679688 405.160156 210.0625 433.960938 193.421875 C 459.621094 184.078125 482.105469 170.042969 482.105469 142.726562 C 482.105469 72.953125 354.824219 127.117188 319.953125 66.695312 C 290.269531 15.273438 242.492188 0.800781 183.132812 0.800781 C 125.308594 0.800781 124.414062 92.039062 66.589844 92.039062 C 27.316406 92.039062 0.714844 128.792969 0.714844 168.070312 Z M 0.714844 168.070312 "/>
</clipPath>
<clipPath id="clip36">
  <path d="M 216 227.871094 L 223 227.871094 L 223 236.84375 L 216 236.84375 Z M 216 227.871094 "/>
</clipPath>
<clipPath id="clip37">
  <path d="M 0.714844 168.070312 C 0.714844 200.453125 34.714844 213.144531 66.589844 218.765625 C 106.492188 225.804688 102.691406 282.695312 142.59375 289.730469 C 194.910156 298.960938 216.15625 239.042969 269.277344 239.042969 C 320.066406 239.042969 345.175781 269.453125 395.960938 269.453125 C 428.722656 263.679688 405.160156 210.0625 433.960938 193.421875 C 459.621094 184.078125 482.105469 170.042969 482.105469 142.726562 C 482.105469 72.953125 354.824219 127.117188 319.953125 66.695312 C 290.269531 15.273438 242.492188 0.800781 183.132812 0.800781 C 125.308594 0.800781 124.414062 92.039062 66.589844 92.039062 C 27.316406 92.039062 0.714844 128.792969 0.714844 168.070312 Z M 0.714844 168.070312 "/>
</clipPath>
<clipPath id="clip38">
  <path d="M 360.519531 186 L 374 186 L 374 199 L 360.519531 199 Z M 360.519531 186 "/>
</clipPath>
<clipPath id="clip39">
  <path d="M 0.714844 168.070312 C 0.714844 200.453125 34.714844 213.144531 66.589844 218.765625 C 106.492188 225.804688 102.691406 282.695312 142.59375 289.730469 C 194.910156 298.960938 216.15625 239.042969 269.277344 239.042969 C 320.066406 239.042969 345.175781 269.453125 395.960938 269.453125 C 428.722656 263.679688 405.160156 210.0625 433.960938 193.421875 C 459.621094 184.078125 482.105469 170.042969 482.105469 142.726562 C 482.105469 72.953125 354.824219 127.117188 319.953125 66.695312 C 290.269531 15.273438 242.492188 0.800781 183.132812 0.800781 C 125.308594 0.800781 124.414062 92.039062 66.589844 92.039062 C 27.316406 92.039062 0.714844 128.792969 0.714844 168.070312 Z M 0.714844 168.070312 "/>
</clipPath>
<clipPath id="clip40">
  <path d="M 373.078125 192 L 380 192 L 380 202 L 373.078125 202 Z M 373.078125 192 "/>
</clipPath>
<clipPath id="clip41">
  <path d="M 0.714844 168.070312 C 0.714844 200.453125 34.714844 213.144531 66.589844 218.765625 C 106.492188 225.804688 102.691406 282.695312 142.59375 289.730469 C 194.910156 298.960938 216.15625 239.042969 269.277344 239.042969 C 320.066406 239.042969 345.175781 269.453125 395.960938 269.453125 C 428.722656 263.679688 405.160156 210.0625 433.960938 193.421875 C 459.621094 184.078125 482.105469 170.042969 482.105469 142.726562 C 482.105469 72.953125 354.824219 127.117188 319.953125 66.695312 C 290.269531 15.273438 242.492188 0.800781 183.132812 0.800781 C 125.308594 0.800781 124.414062 92.039062 66.589844 92.039062 C 27.316406 92.039062 0.714844 128.792969 0.714844 168.070312 Z M 0.714844 168.070312 "/>
</clipPath>
</defs>
<g id="surface1">
<g clip-path="url(#clip1)" clip-rule="nonzero">
<path style="fill:none;stroke-width:0.79701;stroke-linecap:butt;stroke-linejoin:miter;stroke:rgb(0%,0%,0%);stroke-opacity:1;stroke-miterlimit:10;" d="M 5.670887 70.869344 C 5.670887 52.760386 24.690766 45.66316 42.521901 42.51976 C 64.843599 38.58341 62.717411 6.769314 85.039108 2.835148 C 114.305334 -2.326669 126.190573 31.180363 155.906947 31.180363 C 184.318764 31.180363 198.365154 14.174545 226.774786 14.174545 C 245.10196 17.403138 231.920904 47.386679 248.032297 56.692367 C 262.386798 61.917534 274.964742 69.768389 274.964742 85.041951 C 274.964742 124.060311 203.762569 93.770949 184.255394 127.559774 C 167.650149 156.315662 140.923112 164.40899 107.716992 164.40899 C 75.36965 164.40899 74.869242 113.387166 42.521901 113.387166 C 20.552019 113.387166 5.670887 92.833827 5.670887 70.869344 Z M 5.670887 70.869344 " transform="matrix(1.787603,0,0,-1.788221,-9.422454,294.80034)"/>
</g>
<g clip-path="url(#clip2)" clip-rule="nonzero">
<g clip-path="url(#clip3)" clip-rule="nonzero">
<path style=" stroke:none;fill-rule:nonzero;fill:rgb(60%,87.058824%,97.647059%);fill-opacity:1;" d="M 193.273438 294.796875 C 174.929688 171.105469 151.445312 100.617188 91.925781 -9.34375 L 243.941406 -9.34375 C 303.46875 100.617188 326.945312 171.105469 345.289062 294.796875 Z M 193.273438 294.796875 "/>
</g>
</g>
<g clip-path="url(#clip4)" clip-rule="nonzero">
<g clip-path="url(#clip5)" clip-rule="nonzero">
<path style="fill:none;stroke-width:0.3985;stroke-linecap:butt;stroke-linejoin:miter;stroke:rgb(0%,0%,0%);stroke-opacity:1;stroke-miterlimit:10;" d="M 113.38974 0.00193752 C 103.128096 69.172039 89.990745 108.590149 56.695032 170.081965 L 141.733816 170.081965 C 175.0339 108.590149 188.166881 69.172039 198.428525 0.00193752 Z M 113.38974 0.00193752 " transform="matrix(1.787603,0,0,-1.788221,-9.422454,294.80034)"/>
</g>
</g>
<g clip-path="url(#clip6)" clip-rule="nonzero">
<g clip-path="url(#clip7)" clip-rule="nonzero">
<path style=" stroke:none;fill-rule:nonzero;fill:rgb(85.098039%,69.803922%,54.901961%);fill-opacity:1;" d="M 345.289062 294.796875 C 326.945312 171.105469 303.46875 100.617188 243.941406 -9.34375 L 497.308594 -9.34375 L 497.308594 294.796875 Z M 345.289062 294.796875 "/>
</g>
</g>
<g clip-path="url(#clip8)" clip-rule="nonzero">
<g clip-path="url(#clip9)" clip-rule="nonzero">
<path style="fill:none;stroke-width:0.3985;stroke-linecap:butt;stroke-linejoin:miter;stroke:rgb(0%,0%,0%);stroke-opacity:1;stroke-miterlimit:10;" d="M 198.428525 0.00193752 C 188.166881 69.172039 175.0339 108.590149 141.733816 170.081965 L 283.469494 170.081965 L 283.469494 0.00193752 Z M 198.428525 0.00193752 " transform="matrix(1.787603,0,0,-1.788221,-9.422454,294.80034)"/>
</g>
</g>
<g clip-path="url(#clip10)" clip-rule="nonzero">
<g clip-path="url(#clip11)" clip-rule="nonzero">
<path style=" stroke:none;fill-rule:nonzero;fill:rgb(69.803922%,100%,69.803922%);fill-opacity:1;" d="M -9.421875 218.765625 L -9.421875 117.382812 C 174.390625 99.601562 279.984375 70.257812 446.628906 -9.34375 L 497.308594 -9.34375 L 497.308594 117.382812 C 309.199219 190.78125 192.429688 214.15625 -9.421875 218.765625 Z M -9.421875 218.765625 "/>
</g>
</g>
<g clip-path="url(#clip12)" clip-rule="nonzero">
<g clip-path="url(#clip13)" clip-rule="nonzero">
<path style="fill:none;stroke-width:0.3985;stroke-linecap:butt;stroke-linejoin:miter;stroke:rgb(0%,0%,0%);stroke-opacity:1;stroke-miterlimit:10;" d="M 0.000323946 42.51976 L 0.000323946 99.214559 C 102.82654 109.158102 161.896548 125.56757 255.118862 170.081965 L 283.469494 170.081965 L 283.469494 99.214559 C 178.239571 58.169045 112.91774 45.097392 0.000323946 42.51976 Z M 0.000323946 42.51976 " transform="matrix(1.787603,0,0,-1.788221,-9.422454,294.80034)"/>
</g>
</g>
<g clip-path="url(#clip14)" clip-rule="nonzero">
<g clip-path="url(#clip15)" clip-rule="nonzero">
<path style=" stroke:none;fill-rule:nonzero;fill:rgb(100%,97.254902%,50.196078%);fill-opacity:1;" d="M -9.421875 294.796875 L 193.273438 294.796875 C 174.929688 171.105469 151.445312 100.617188 91.925781 -9.34375 L -9.421875 -9.34375 Z M -9.421875 294.796875 "/>
</g>
</g>
<g clip-path="url(#clip16)" clip-rule="nonzero">
<g clip-path="url(#clip17)" clip-rule="nonzero">
<path style="fill:none;stroke-width:0.3985;stroke-linecap:butt;stroke-linejoin:miter;stroke:rgb(0%,0%,0%);stroke-opacity:1;stroke-miterlimit:10;" d="M 0.000323946 0.00193752 L 113.38974 0.00193752 C 103.128096 69.172039 89.990745 108.590149 56.695032 170.081965 L 0.000323946 170.081965 Z M 0.000323946 0.00193752 " transform="matrix(1.787603,0,0,-1.788221,-9.422454,294.80034)"/>
</g>
</g>
<g clip-path="url(#clip18)" clip-rule="nonzero">
<g clip-path="url(#clip19)" clip-rule="nonzero">
<path style=" stroke:none;fill-rule:nonzero;fill:rgb(100%,80%,60%);fill-opacity:1;" d="M -9.421875 -9.34375 L -9.421875 117.382812 C 174.390625 99.601562 279.984375 70.257812 446.628906 -9.34375 Z M -9.421875 -9.34375 "/>
</g>
</g>
<g clip-path="url(#clip20)" clip-rule="nonzero">
<g clip-path="url(#clip21)" clip-rule="nonzero">
<path style="fill:none;stroke-width:0.3985;stroke-linecap:butt;stroke-linejoin:miter;stroke:rgb(0%,0%,0%);stroke-opacity:1;stroke-miterlimit:10;" d="M 0.000323946 170.081965 L 0.000323946 99.214559 C 102.82654 109.158102 161.896548 125.56757 255.118862 170.081965 Z M 0.000323946 170.081965 " transform="matrix(1.787603,0,0,-1.788221,-9.422454,294.80034)"/>
</g>
</g>
<g clip-path="url(#clip22)" clip-rule="nonzero">
<g clip-path="url(#clip23)" clip-rule="nonzero">
<path style=" stroke:none;fill-rule:nonzero;fill:rgb(0%,0%,0%);fill-opacity:1;" d="M 195.308594 41.953125 C 195.339844 41.871094 195.394531 41.730469 195.394531 41.703125 C 195.394531 41.703125 195.394531 41.503906 195.167969 41.503906 C 195 41.503906 194.972656 41.617188 194.945312 41.730469 C 193.796875 44.367188 193.125 45.542969 190.097656 45.542969 L 187.492188 45.542969 C 187.238281 45.542969 187.210938 45.542969 187.097656 45.542969 C 186.902344 45.515625 186.875 45.488281 186.875 45.347656 C 186.875 45.289062 186.875 45.261719 186.957031 44.953125 L 188.164062 40.074219 L 189.929688 40.074219 C 191.441406 40.074219 191.441406 40.46875 191.441406 40.917969 C 191.441406 41.027344 191.441406 41.253906 191.300781 41.785156 C 191.273438 41.871094 191.246094 41.925781 191.246094 41.984375 C 191.246094 42.066406 191.332031 42.179688 191.5 42.179688 C 191.636719 42.179688 191.695312 42.066406 191.75 41.8125 L 192.757812 37.636719 C 192.757812 37.554688 192.675781 37.441406 192.5625 37.441406 C 192.394531 37.441406 192.367188 37.554688 192.3125 37.777344 C 191.945312 39.121094 191.609375 39.542969 189.984375 39.542969 L 188.304688 39.542969 L 189.367188 35.253906 C 189.535156 34.609375 189.535156 34.554688 190.320312 34.554688 L 192.84375 34.554688 C 195 34.554688 195.535156 35.058594 195.535156 36.515625 C 195.535156 36.964844 195.535156 36.992188 195.476562 37.46875 C 195.476562 37.582031 195.449219 37.691406 195.449219 37.777344 C 195.449219 37.890625 195.507812 38 195.675781 38 C 195.871094 38 195.898438 37.890625 195.925781 37.554688 L 196.289062 34.46875 C 196.320312 33.992188 196.234375 33.992188 195.785156 33.992188 L 186.816406 33.992188 C 186.453125 33.992188 186.285156 33.992188 186.285156 34.355469 C 186.285156 34.554688 186.425781 34.554688 186.761719 34.554688 C 187.433594 34.554688 187.9375 34.554688 187.9375 34.863281 C 187.9375 34.945312 187.9375 34.972656 187.855469 35.308594 L 185.5 44.703125 C 185.304688 45.402344 185.277344 45.542969 183.875 45.542969 C 183.566406 45.542969 183.371094 45.542969 183.371094 45.878906 C 183.371094 46.105469 183.539062 46.105469 183.875 46.105469 L 193.097656 46.105469 C 193.515625 46.105469 193.542969 46.074219 193.65625 45.796875 Z M 195.308594 41.953125 "/>
</g>
</g>
<g clip-path="url(#clip24)" clip-rule="nonzero">
<g clip-path="url(#clip25)" clip-rule="nonzero">
<path style=" stroke:none;fill-rule:nonzero;fill:rgb(0%,0%,0%);fill-opacity:1;" d="M 200.023438 40.839844 C 200.023438 40.503906 199.992188 40.503906 199.65625 40.503906 C 198.84375 41.289062 197.722656 41.289062 197.21875 41.289062 L 197.21875 41.738281 C 197.5 41.738281 198.339844 41.738281 199.011719 41.402344 L 199.011719 47.765625 C 199.011719 48.160156 199.011719 48.328125 197.78125 48.328125 L 197.304688 48.328125 L 197.304688 48.773438 C 197.527344 48.773438 199.042969 48.71875 199.515625 48.71875 C 199.910156 48.71875 201.480469 48.773438 201.730469 48.773438 L 201.730469 48.328125 L 201.28125 48.328125 C 200.023438 48.328125 200.023438 48.160156 200.023438 47.765625 Z M 200.023438 40.839844 "/>
</g>
</g>
<g clip-path="url(#clip26)" clip-rule="nonzero">
<g clip-path="url(#clip27)" clip-rule="nonzero">
<path style=" stroke:none;fill-rule:nonzero;fill:rgb(0%,0%,0%);fill-opacity:1;" d="M 93.964844 194.023438 C 93.992188 193.9375 94.050781 193.796875 94.050781 193.769531 C 94.050781 193.769531 94.050781 193.574219 93.824219 193.574219 C 93.65625 193.574219 93.628906 193.6875 93.601562 193.796875 C 92.453125 196.433594 91.78125 197.613281 88.753906 197.613281 L 86.144531 197.613281 C 85.894531 197.613281 85.867188 197.613281 85.753906 197.613281 C 85.558594 197.582031 85.53125 197.554688 85.53125 197.414062 C 85.53125 197.359375 85.53125 197.332031 85.613281 197.023438 L 86.820312 192.144531 L 88.585938 192.144531 C 90.097656 192.144531 90.097656 192.535156 90.097656 192.984375 C 90.097656 193.097656 90.097656 193.320312 89.957031 193.855469 C 89.929688 193.9375 89.902344 193.996094 89.902344 194.050781 C 89.902344 194.136719 89.984375 194.246094 90.152344 194.246094 C 90.292969 194.246094 90.351562 194.136719 90.40625 193.882812 L 91.414062 189.707031 C 91.414062 189.621094 91.332031 189.507812 91.21875 189.507812 C 91.050781 189.507812 91.023438 189.621094 90.964844 189.84375 C 90.601562 191.191406 90.265625 191.613281 88.640625 191.613281 L 86.957031 191.613281 L 88.023438 187.324219 C 88.191406 186.675781 88.191406 186.621094 88.976562 186.621094 L 91.5 186.621094 C 93.65625 186.621094 94.191406 187.125 94.191406 188.585938 C 94.191406 189.03125 94.191406 189.0625 94.132812 189.539062 C 94.132812 189.648438 94.105469 189.761719 94.105469 189.84375 C 94.105469 189.957031 94.160156 190.070312 94.328125 190.070312 C 94.527344 190.070312 94.554688 189.957031 94.582031 189.621094 L 94.945312 186.539062 C 94.972656 186.0625 94.890625 186.0625 94.441406 186.0625 L 85.472656 186.0625 C 85.109375 186.0625 84.941406 186.0625 84.941406 186.425781 C 84.941406 186.621094 85.082031 186.621094 85.417969 186.621094 C 86.089844 186.621094 86.59375 186.621094 86.59375 186.929688 C 86.59375 187.015625 86.59375 187.042969 86.511719 187.378906 L 84.15625 196.769531 C 83.960938 197.472656 83.933594 197.613281 82.53125 197.613281 C 82.222656 197.613281 82.027344 197.613281 82.027344 197.949219 C 82.027344 198.171875 82.195312 198.171875 82.53125 198.171875 L 91.75 198.171875 C 92.171875 198.171875 92.199219 198.144531 92.3125 197.863281 Z M 93.964844 194.023438 "/>
</g>
</g>
<g clip-path="url(#clip28)" clip-rule="nonzero">
<g clip-path="url(#clip29)" clip-rule="nonzero">
<path style=" stroke:none;fill-rule:nonzero;fill:rgb(0%,0%,0%);fill-opacity:1;" d="M 100.808594 198.574219 L 100.386719 198.574219 C 100.332031 198.851562 100.21875 199.582031 100.050781 199.722656 C 99.9375 199.777344 98.984375 199.777344 98.816406 199.777344 L 96.519531 199.777344 C 97.835938 198.628906 98.257812 198.265625 99.015625 197.675781 C 99.9375 196.945312 100.808594 196.191406 100.808594 194.984375 C 100.808594 193.46875 99.488281 192.574219 97.894531 192.574219 C 96.324219 192.574219 95.285156 193.636719 95.285156 194.789062 C 95.285156 195.433594 95.820312 195.488281 95.957031 195.488281 C 96.238281 195.488281 96.605469 195.292969 96.605469 194.84375 C 96.605469 194.59375 96.519531 194.171875 95.875 194.171875 C 96.265625 193.273438 97.109375 193.023438 97.695312 193.023438 C 98.929688 193.023438 99.601562 193.976562 99.601562 194.984375 C 99.601562 196.078125 98.816406 196.945312 98.425781 197.394531 L 95.398438 200.367188 C 95.285156 200.480469 95.285156 200.507812 95.285156 200.84375 L 100.414062 200.84375 Z M 100.808594 198.574219 "/>
</g>
</g>
<g clip-path="url(#clip30)" clip-rule="nonzero">
<g clip-path="url(#clip31)" clip-rule="nonzero">
<path style=" stroke:none;fill-rule:nonzero;fill:rgb(0%,0%,0%);fill-opacity:1;" d="M 296.65625 128.125 C 296.683594 128.042969 296.738281 127.902344 296.738281 127.871094 C 296.738281 127.871094 296.738281 127.675781 296.515625 127.675781 C 296.347656 127.675781 296.316406 127.789062 296.289062 127.902344 C 295.140625 130.535156 294.46875 131.714844 291.441406 131.714844 L 288.835938 131.714844 C 288.582031 131.714844 288.554688 131.714844 288.441406 131.714844 C 288.246094 131.6875 288.21875 131.65625 288.21875 131.515625 C 288.21875 131.460938 288.21875 131.433594 288.304688 131.125 L 289.507812 126.246094 L 291.273438 126.246094 C 292.785156 126.246094 292.785156 126.640625 292.785156 127.085938 C 292.785156 127.199219 292.785156 127.425781 292.648438 127.957031 C 292.617188 128.042969 292.589844 128.097656 292.589844 128.152344 C 292.589844 128.238281 292.675781 128.347656 292.84375 128.347656 C 292.984375 128.347656 293.039062 128.238281 293.09375 127.984375 L 294.105469 123.808594 C 294.105469 123.722656 294.019531 123.613281 293.90625 123.613281 C 293.738281 123.613281 293.710938 123.722656 293.65625 123.949219 C 293.292969 125.292969 292.957031 125.714844 291.328125 125.714844 L 289.648438 125.714844 L 290.714844 121.425781 C 290.882812 120.78125 290.882812 120.722656 291.664062 120.722656 L 294.1875 120.722656 C 296.347656 120.722656 296.878906 121.226562 296.878906 122.6875 C 296.878906 123.136719 296.878906 123.164062 296.824219 123.640625 C 296.824219 123.75 296.792969 123.863281 296.792969 123.949219 C 296.792969 124.058594 296.851562 124.171875 297.019531 124.171875 C 297.214844 124.171875 297.242188 124.058594 297.269531 123.722656 L 297.636719 120.640625 C 297.664062 120.164062 297.578125 120.164062 297.132812 120.164062 L 288.164062 120.164062 C 287.796875 120.164062 287.628906 120.164062 287.628906 120.527344 C 287.628906 120.722656 287.769531 120.722656 288.105469 120.722656 C 288.777344 120.722656 289.285156 120.722656 289.285156 121.03125 C 289.285156 121.117188 289.285156 121.144531 289.199219 121.480469 L 286.84375 130.871094 C 286.648438 131.574219 286.621094 131.714844 285.21875 131.714844 C 284.910156 131.714844 284.714844 131.714844 284.714844 132.050781 C 284.714844 132.273438 284.882812 132.273438 285.21875 132.273438 L 294.441406 132.273438 C 294.859375 132.273438 294.890625 132.246094 295 131.964844 Z M 296.65625 128.125 "/>
</g>
</g>
<g clip-path="url(#clip32)" clip-rule="nonzero">
<g clip-path="url(#clip33)" clip-rule="nonzero">
<path style=" stroke:none;fill-rule:nonzero;fill:rgb(0%,0%,0%);fill-opacity:1;" d="M 300.582031 130.769531 C 301.5625 130.769531 302.261719 131.441406 302.261719 132.789062 C 302.261719 134.332031 301.363281 134.808594 300.636719 134.808594 C 300.132812 134.808594 299.039062 134.667969 298.535156 133.9375 C 299.121094 133.910156 299.234375 133.488281 299.234375 133.238281 C 299.234375 132.816406 298.953125 132.535156 298.5625 132.535156 C 298.199219 132.535156 297.863281 132.761719 297.863281 133.265625 C 297.863281 134.441406 299.152344 135.199219 300.664062 135.199219 C 302.402344 135.199219 303.605469 134.050781 303.605469 132.789062 C 303.605469 131.808594 302.792969 130.855469 301.421875 130.546875 C 302.738281 130.070312 303.214844 129.144531 303.214844 128.386719 C 303.214844 127.40625 302.066406 126.675781 300.691406 126.675781 C 299.320312 126.675781 298.253906 127.351562 298.253906 128.332031 C 298.253906 128.753906 298.535156 129.003906 298.898438 129.003906 C 299.289062 129.003906 299.542969 128.695312 299.542969 128.359375 C 299.542969 127.996094 299.289062 127.742188 298.898438 127.714844 C 299.347656 127.152344 300.1875 127.015625 300.664062 127.015625 C 301.226562 127.015625 302.007812 127.292969 302.007812 128.386719 C 302.007812 128.921875 301.839844 129.480469 301.503906 129.875 C 301.085938 130.351562 300.75 130.378906 300.132812 130.40625 C 299.796875 130.433594 299.796875 130.433594 299.710938 130.433594 C 299.683594 130.433594 299.597656 130.460938 299.597656 130.601562 C 299.597656 130.769531 299.710938 130.769531 299.90625 130.769531 Z M 300.582031 130.769531 "/>
</g>
</g>
<g clip-path="url(#clip34)" clip-rule="nonzero">
<g clip-path="url(#clip35)" clip-rule="nonzero">
<path style=" stroke:none;fill-rule:nonzero;fill:rgb(0%,0%,0%);fill-opacity:1;" d="M 215.578125 229.503906 C 215.609375 229.421875 215.664062 229.28125 215.664062 229.253906 C 215.664062 229.253906 215.664062 229.054688 215.4375 229.054688 C 215.269531 229.054688 215.242188 229.167969 215.214844 229.28125 C 214.066406 231.914062 213.394531 233.09375 210.367188 233.09375 L 207.761719 233.09375 C 207.507812 233.09375 207.480469 233.09375 207.367188 233.09375 C 207.171875 233.066406 207.144531 233.039062 207.144531 232.898438 C 207.144531 232.839844 207.144531 232.8125 207.226562 232.503906 L 208.433594 227.625 L 210.199219 227.625 C 211.710938 227.625 211.710938 228.019531 211.710938 228.46875 C 211.710938 228.578125 211.710938 228.804688 211.570312 229.335938 C 211.542969 229.421875 211.515625 229.476562 211.515625 229.53125 C 211.515625 229.617188 211.601562 229.730469 211.769531 229.730469 C 211.90625 229.730469 211.964844 229.617188 212.019531 229.363281 L 213.027344 225.1875 C 213.027344 225.101562 212.945312 224.992188 212.832031 224.992188 C 212.664062 224.992188 212.636719 225.101562 212.582031 225.328125 C 212.214844 226.671875 211.878906 227.09375 210.253906 227.09375 L 208.574219 227.09375 L 209.636719 222.804688 C 209.804688 222.160156 209.804688 222.101562 210.589844 222.101562 L 213.113281 222.101562 C 215.269531 222.101562 215.804688 222.609375 215.804688 224.066406 C 215.804688 224.515625 215.804688 224.542969 215.746094 225.019531 C 215.746094 225.132812 215.71875 225.242188 215.71875 225.328125 C 215.71875 225.441406 215.777344 225.550781 215.945312 225.550781 C 216.140625 225.550781 216.167969 225.441406 216.195312 225.101562 L 216.558594 222.019531 C 216.589844 221.542969 216.503906 221.542969 216.054688 221.542969 L 207.085938 221.542969 C 206.722656 221.542969 206.554688 221.542969 206.554688 221.90625 C 206.554688 222.101562 206.695312 222.101562 207.03125 222.101562 C 207.703125 222.101562 208.207031 222.101562 208.207031 222.410156 C 208.207031 222.496094 208.207031 222.523438 208.125 222.859375 L 205.769531 232.253906 C 205.574219 232.953125 205.546875 233.09375 204.144531 233.09375 C 203.835938 233.09375 203.640625 233.09375 203.640625 233.429688 C 203.640625 233.652344 203.808594 233.652344 204.144531 233.652344 L 213.367188 233.652344 C 213.785156 233.652344 213.8125 233.625 213.925781 233.34375 Z M 215.578125 229.503906 "/>
</g>
</g>
<g clip-path="url(#clip36)" clip-rule="nonzero">
<g clip-path="url(#clip37)" clip-rule="nonzero">
<path style=" stroke:none;fill-rule:nonzero;fill:rgb(0%,0%,0%);fill-opacity:1;" d="M 222.699219 234.28125 L 222.699219 233.832031 L 221.328125 233.832031 L 221.328125 228.28125 C 221.328125 228 221.328125 227.917969 221.046875 227.917969 C 220.90625 227.917969 220.851562 227.917969 220.738281 228.085938 L 216.589844 233.832031 L 216.589844 234.28125 L 220.261719 234.28125 L 220.261719 235.316406 C 220.261719 235.738281 220.261719 235.878906 219.253906 235.878906 L 218.917969 235.878906 L 218.917969 236.328125 C 219.53125 236.300781 220.347656 236.269531 220.792969 236.269531 C 221.242188 236.269531 222.054688 236.300781 222.671875 236.328125 L 222.671875 235.878906 L 222.335938 235.878906 C 221.328125 235.878906 221.328125 235.738281 221.328125 235.316406 L 221.328125 234.28125 Z M 220.347656 229.261719 L 220.347656 233.832031 L 217.066406 233.832031 Z M 220.347656 229.261719 "/>
</g>
</g>
<g clip-path="url(#clip38)" clip-rule="nonzero">
<g clip-path="url(#clip39)" clip-rule="nonzero">
<path style=" stroke:none;fill-rule:nonzero;fill:rgb(0%,0%,0%);fill-opacity:1;" d="M 372.664062 194.023438 C 372.691406 193.9375 372.746094 193.796875 372.746094 193.769531 C 372.746094 193.769531 372.746094 193.574219 372.523438 193.574219 C 372.355469 193.574219 372.328125 193.6875 372.300781 193.796875 C 371.148438 196.433594 370.476562 197.613281 367.449219 197.613281 L 364.84375 197.613281 C 364.59375 197.613281 364.5625 197.613281 364.453125 197.613281 C 364.253906 197.582031 364.226562 197.554688 364.226562 197.414062 C 364.226562 197.359375 364.226562 197.332031 364.3125 197.023438 L 365.515625 192.144531 L 367.28125 192.144531 C 368.796875 192.144531 368.796875 192.535156 368.796875 192.984375 C 368.796875 193.097656 368.796875 193.320312 368.65625 193.855469 C 368.628906 193.9375 368.601562 193.996094 368.601562 194.050781 C 368.601562 194.136719 368.683594 194.246094 368.851562 194.246094 C 368.992188 194.246094 369.046875 194.136719 369.105469 193.882812 L 370.113281 189.707031 C 370.113281 189.621094 370.027344 189.507812 369.917969 189.507812 C 369.75 189.507812 369.71875 189.621094 369.664062 189.84375 C 369.300781 191.191406 368.964844 191.613281 367.339844 191.613281 L 365.65625 191.613281 L 366.722656 187.324219 C 366.890625 186.675781 366.890625 186.621094 367.675781 186.621094 L 370.195312 186.621094 C 372.355469 186.621094 372.886719 187.125 372.886719 188.585938 C 372.886719 189.03125 372.886719 189.0625 372.832031 189.539062 C 372.832031 189.648438 372.804688 189.761719 372.804688 189.84375 C 372.804688 189.957031 372.859375 190.070312 373.027344 190.070312 C 373.222656 190.070312 373.25 189.957031 373.28125 189.621094 L 373.644531 186.539062 C 373.671875 186.0625 373.589844 186.0625 373.140625 186.0625 L 364.171875 186.0625 C 363.808594 186.0625 363.640625 186.0625 363.640625 186.425781 C 363.640625 186.621094 363.777344 186.621094 364.117188 186.621094 C 364.789062 186.621094 365.292969 186.621094 365.292969 186.929688 C 365.292969 187.015625 365.292969 187.042969 365.207031 187.378906 L 362.855469 196.769531 C 362.660156 197.472656 362.628906 197.613281 361.230469 197.613281 C 360.921875 197.613281 360.722656 197.613281 360.722656 197.949219 C 360.722656 198.171875 360.894531 198.171875 361.230469 198.171875 L 370.449219 198.171875 C 370.871094 198.171875 370.898438 198.144531 371.011719 197.863281 Z M 372.664062 194.023438 "/>
</g>
</g>
<g clip-path="url(#clip40)" clip-rule="nonzero">
<g clip-path="url(#clip41)" clip-rule="nonzero">
<path style=" stroke:none;fill-rule:nonzero;fill:rgb(0%,0%,0%);fill-opacity:1;" d="M 375.132812 193.890625 C 375.777344 194.03125 376.140625 194.03125 376.335938 194.03125 C 377.992188 194.03125 378.972656 192.910156 378.972656 192.742188 C 378.972656 192.601562 378.859375 192.574219 378.804688 192.574219 C 378.773438 192.574219 378.746094 192.574219 378.71875 192.601562 C 378.410156 192.714844 377.738281 192.964844 376.8125 192.964844 C 376.476562 192.964844 375.804688 192.9375 375.019531 192.628906 C 374.878906 192.574219 374.851562 192.574219 374.851562 192.574219 C 374.683594 192.574219 374.683594 192.683594 374.683594 192.910156 L 374.683594 196.582031 C 374.683594 196.777344 374.683594 196.945312 374.878906 196.945312 C 374.992188 196.945312 375.019531 196.917969 375.132812 196.75 C 375.664062 196.078125 376.421875 195.964844 376.871094 195.964844 C 377.625 195.964844 377.960938 196.582031 378.019531 196.667969 C 378.242188 197.085938 378.296875 197.5625 378.296875 198.292969 C 378.296875 198.65625 378.296875 199.386719 377.933594 199.945312 C 377.625 200.394531 377.09375 200.703125 376.476562 200.703125 C 375.664062 200.703125 374.824219 200.253906 374.515625 199.414062 C 374.992188 199.46875 375.242188 199.132812 375.242188 198.796875 C 375.242188 198.265625 374.765625 198.179688 374.597656 198.179688 C 374.570312 198.179688 373.984375 198.179688 373.984375 198.851562 C 373.984375 199.972656 375.019531 201.097656 376.503906 201.097656 C 378.101562 201.097656 379.503906 199.917969 379.503906 198.347656 C 379.503906 196.917969 378.410156 195.628906 376.871094 195.628906 C 376.335938 195.628906 375.691406 195.769531 375.132812 196.246094 Z M 375.132812 193.890625 "/>
</g>
</g>
</g>
</svg>
