<?xml version="1.0" encoding="UTF-8"?>
<svg xmlns="http://www.w3.org/2000/svg" xmlns:xlink="http://www.w3.org/1999/xlink" width="485px" height="300px" viewBox="0 0 485 300" version="1.1">
<defs>
<clipPath id="clip1">
  <path d="M 0.761719 0.0820312 L 482.613281 0.0820312 L 482.613281 299.074219 L 0.761719 299.074219 Z M 0.761719 0.0820312 "/>
</clipPath>
<clipPath id="clip2">
  <path d="M 92.054688 0.0820312 L 346 0.0820312 L 346 291 L 92.054688 291 Z M 92.054688 0.0820312 "/>
</clipPath>
<clipPath id="clip3">
  <path d="M 1.472656 167.738281 C 1.472656 200.054688 35.40625 212.722656 67.214844 218.332031 C 107.039062 225.355469 103.25 282.132812 143.070312 289.15625 C 195.285156 298.367188 216.484375 238.570312 269.503906 238.570312 C 320.191406 238.570312 345.253906 268.921875 395.933594 268.921875 C 428.632812 263.15625 405.117188 209.644531 433.863281 193.039062 C 459.46875 183.714844 481.90625 169.703125 481.90625 142.445312 C 481.90625 72.808594 354.882812 126.867188 320.082031 66.5625 C 290.453125 15.242188 242.769531 0.796875 183.53125 0.796875 C 125.820312 0.796875 124.925781 91.859375 67.214844 91.859375 C 28.023438 91.859375 1.472656 128.539062 1.472656 167.738281 Z M 1.472656 167.738281 "/>
</clipPath>
<clipPath id="clip4">
  <path d="M 82 0.0820312 L 356 0.0820312 L 356 291 L 82 291 Z M 82 0.0820312 "/>
</clipPath>
<clipPath id="clip5">
  <path d="M 1.472656 167.738281 C 1.472656 200.054688 35.40625 212.722656 67.214844 218.332031 C 107.039062 225.355469 103.25 282.132812 143.070312 289.15625 C 195.285156 298.367188 216.484375 238.570312 269.503906 238.570312 C 320.191406 238.570312 345.253906 268.921875 395.933594 268.921875 C 428.632812 263.15625 405.117188 209.644531 433.863281 193.039062 C 459.46875 183.714844 481.90625 169.703125 481.90625 142.445312 C 481.90625 72.808594 354.882812 126.867188 320.082031 66.5625 C 290.453125 15.242188 242.769531 0.796875 183.53125 0.796875 C 125.820312 0.796875 124.925781 91.859375 67.214844 91.859375 C 28.023438 91.859375 1.472656 128.539062 1.472656 167.738281 Z M 1.472656 167.738281 "/>
</clipPath>
<clipPath id="clip6">
  <path d="M 244.210938 0.0820312 L 482 0.0820312 L 482 291 L 244.210938 291 Z M 244.210938 0.0820312 "/>
</clipPath>
<clipPath id="clip7">
  <path d="M 1.472656 167.738281 C 1.472656 200.054688 35.40625 212.722656 67.214844 218.332031 C 107.039062 225.355469 103.25 282.132812 143.070312 289.15625 C 195.285156 298.367188 216.484375 238.570312 269.503906 238.570312 C 320.191406 238.570312 345.253906 268.921875 395.933594 268.921875 C 428.632812 263.15625 405.117188 209.644531 433.863281 193.039062 C 459.46875 183.714844 481.90625 169.703125 481.90625 142.445312 C 481.90625 72.808594 354.882812 126.867188 320.082031 66.5625 C 290.453125 15.242188 242.769531 0.796875 183.53125 0.796875 C 125.820312 0.796875 124.925781 91.859375 67.214844 91.859375 C 28.023438 91.859375 1.472656 128.539062 1.472656 167.738281 Z M 1.472656 167.738281 "/>
</clipPath>
<clipPath id="clip8">
  <path d="M 234 0.0820312 L 482 0.0820312 L 482 291 L 234 291 Z M 234 0.0820312 "/>
</clipPath>
<clipPath id="clip9">
  <path d="M 1.472656 167.738281 C 1.472656 200.054688 35.40625 212.722656 67.214844 218.332031 C 107.039062 225.355469 103.25 282.132812 143.070312 289.15625 C 195.285156 298.367188 216.484375 238.570312 269.503906 238.570312 C 320.191406 238.570312 345.253906 268.921875 395.933594 268.921875 C 428.632812 263.15625 405.117188 209.644531 433.863281 193.039062 C 459.46875 183.714844 481.90625 169.703125 481.90625 142.445312 C 481.90625 72.808594 354.882812 126.867188 320.082031 66.5625 C 290.453125 15.242188 242.769531 0.796875 183.53125 0.796875 C 125.820312 0.796875 124.925781 91.859375 67.214844 91.859375 C 28.023438 91.859375 1.472656 128.539062 1.472656 167.738281 Z M 1.472656 167.738281 "/>
</clipPath>
<clipPath id="clip10">
  <path d="M 1 0.0820312 L 482 0.0820312 L 482 218.464844 L 1 218.464844 Z M 1 0.0820312 "/>
</clipPath>
<clipPath id="clip11">
  <path d="M 1.472656 167.738281 C 1.472656 200.054688 35.40625 212.722656 67.214844 218.332031 C 107.039062 225.355469 103.25 282.132812 143.070312 289.15625 C 195.285156 298.367188 216.484375 238.570312 269.503906 238.570312 C 320.191406 238.570312 345.253906 268.921875 395.933594 268.921875 C 428.632812 263.15625 405.117188 209.644531 433.863281 193.039062 C 459.46875 183.714844 481.90625 169.703125 481.90625 142.445312 C 481.90625 72.808594 354.882812 126.867188 320.082031 66.5625 C 290.453125 15.242188 242.769531 0.796875 183.53125 0.796875 C 125.820312 0.796875 124.925781 91.859375 67.214844 91.859375 C 28.023438 91.859375 1.472656 128.539062 1.472656 167.738281 Z M 1.472656 167.738281 "/>
</clipPath>
<clipPath id="clip12">
  <path d="M 1 0.0820312 L 482 0.0820312 L 482 229 L 1 229 Z M 1 0.0820312 "/>
</clipPath>
<clipPath id="clip13">
  <path d="M 1.472656 167.738281 C 1.472656 200.054688 35.40625 212.722656 67.214844 218.332031 C 107.039062 225.355469 103.25 282.132812 143.070312 289.15625 C 195.285156 298.367188 216.484375 238.570312 269.503906 238.570312 C 320.191406 238.570312 345.253906 268.921875 395.933594 268.921875 C 428.632812 263.15625 405.117188 209.644531 433.863281 193.039062 C 459.46875 183.714844 481.90625 169.703125 481.90625 142.445312 C 481.90625 72.808594 354.882812 126.867188 320.082031 66.5625 C 290.453125 15.242188 242.769531 0.796875 183.53125 0.796875 C 125.820312 0.796875 124.925781 91.859375 67.214844 91.859375 C 28.023438 91.859375 1.472656 128.539062 1.472656 167.738281 Z M 1.472656 167.738281 "/>
</clipPath>
<clipPath id="clip14">
  <path d="M 1 0.0820312 L 194 0.0820312 L 194 291 L 1 291 Z M 1 0.0820312 "/>
</clipPath>
<clipPath id="clip15">
  <path d="M 1.472656 167.738281 C 1.472656 200.054688 35.40625 212.722656 67.214844 218.332031 C 107.039062 225.355469 103.25 282.132812 143.070312 289.15625 C 195.285156 298.367188 216.484375 238.570312 269.503906 238.570312 C 320.191406 238.570312 345.253906 268.921875 395.933594 268.921875 C 428.632812 263.15625 405.117188 209.644531 433.863281 193.039062 C 459.46875 183.714844 481.90625 169.703125 481.90625 142.445312 C 481.90625 72.808594 354.882812 126.867188 320.082031 66.5625 C 290.453125 15.242188 242.769531 0.796875 183.53125 0.796875 C 125.820312 0.796875 124.925781 91.859375 67.214844 91.859375 C 28.023438 91.859375 1.472656 128.539062 1.472656 167.738281 Z M 1.472656 167.738281 "/>
</clipPath>
<clipPath id="clip16">
  <path d="M 1 0.0820312 L 204 0.0820312 L 204 291 L 1 291 Z M 1 0.0820312 "/>
</clipPath>
<clipPath id="clip17">
  <path d="M 1.472656 167.738281 C 1.472656 200.054688 35.40625 212.722656 67.214844 218.332031 C 107.039062 225.355469 103.25 282.132812 143.070312 289.15625 C 195.285156 298.367188 216.484375 238.570312 269.503906 238.570312 C 320.191406 238.570312 345.253906 268.921875 395.933594 268.921875 C 428.632812 263.15625 405.117188 209.644531 433.863281 193.039062 C 459.46875 183.714844 481.90625 169.703125 481.90625 142.445312 C 481.90625 72.808594 354.882812 126.867188 320.082031 66.5625 C 290.453125 15.242188 242.769531 0.796875 183.53125 0.796875 C 125.820312 0.796875 124.925781 91.859375 67.214844 91.859375 C 28.023438 91.859375 1.472656 128.539062 1.472656 167.738281 Z M 1.472656 167.738281 "/>
</clipPath>
<clipPath id="clip18">
  <path d="M 1 0.0820312 L 447 0.0820312 L 447 118 L 1 118 Z M 1 0.0820312 "/>
</clipPath>
<clipPath id="clip19">
  <path d="M 1.472656 167.738281 C 1.472656 200.054688 35.40625 212.722656 67.214844 218.332031 C 107.039062 225.355469 103.25 282.132812 143.070312 289.15625 C 195.285156 298.367188 216.484375 238.570312 269.503906 238.570312 C 320.191406 238.570312 345.253906 268.921875 395.933594 268.921875 C 428.632812 263.15625 405.117188 209.644531 433.863281 193.039062 C 459.46875 183.714844 481.90625 169.703125 481.90625 142.445312 C 481.90625 72.808594 354.882812 126.867188 320.082031 66.5625 C 290.453125 15.242188 242.769531 0.796875 183.53125 0.796875 C 125.820312 0.796875 124.925781 91.859375 67.214844 91.859375 C 28.023438 91.859375 1.472656 128.539062 1.472656 167.738281 Z M 1.472656 167.738281 "/>
</clipPath>
<clipPath id="clip20">
  <path d="M 1 0.0820312 L 457 0.0820312 L 457 128 L 1 128 Z M 1 0.0820312 "/>
</clipPath>
<clipPath id="clip21">
  <path d="M 1.472656 167.738281 C 1.472656 200.054688 35.40625 212.722656 67.214844 218.332031 C 107.039062 225.355469 103.25 282.132812 143.070312 289.15625 C 195.285156 298.367188 216.484375 238.570312 269.503906 238.570312 C 320.191406 238.570312 345.253906 268.921875 395.933594 268.921875 C 428.632812 263.15625 405.117188 209.644531 433.863281 193.039062 C 459.46875 183.714844 481.90625 169.703125 481.90625 142.445312 C 481.90625 72.808594 354.882812 126.867188 320.082031 66.5625 C 290.453125 15.242188 242.769531 0.796875 183.53125 0.796875 C 125.820312 0.796875 124.925781 91.859375 67.214844 91.859375 C 28.023438 91.859375 1.472656 128.539062 1.472656 167.738281 Z M 1.472656 167.738281 "/>
</clipPath>
<clipPath id="clip22">
  <path d="M 183.347656 33 L 197 33 L 197 46.558594 L 183.347656 46.558594 Z M 183.347656 33 "/>
</clipPath>
<clipPath id="clip23">
  <path d="M 1.472656 167.738281 C 1.472656 200.054688 35.40625 212.722656 67.214844 218.332031 C 107.039062 225.355469 103.25 282.132812 143.070312 289.15625 C 195.285156 298.367188 216.484375 238.570312 269.503906 238.570312 C 320.191406 238.570312 345.253906 268.921875 395.933594 268.921875 C 428.632812 263.15625 405.117188 209.644531 433.863281 193.039062 C 459.46875 183.714844 481.90625 169.703125 481.90625 142.445312 C 481.90625 72.808594 354.882812 126.867188 320.082031 66.5625 C 290.453125 15.242188 242.769531 0.796875 183.53125 0.796875 C 125.820312 0.796875 124.925781 91.859375 67.214844 91.859375 C 28.023438 91.859375 1.472656 128.539062 1.472656 167.738281 Z M 1.472656 167.738281 "/>
</clipPath>
<clipPath id="clip24">
  <path d="M 197 40 L 203 40 L 203 49 L 197 49 Z M 197 40 "/>
</clipPath>
<clipPath id="clip25">
  <path d="M 1.472656 167.738281 C 1.472656 200.054688 35.40625 212.722656 67.214844 218.332031 C 107.039062 225.355469 103.25 282.132812 143.070312 289.15625 C 195.285156 298.367188 216.484375 238.570312 269.503906 238.570312 C 320.191406 238.570312 345.253906 268.921875 395.933594 268.921875 C 428.632812 263.15625 405.117188 209.644531 433.863281 193.039062 C 459.46875 183.714844 481.90625 169.703125 481.90625 142.445312 C 481.90625 72.808594 354.882812 126.867188 320.082031 66.5625 C 290.453125 15.242188 242.769531 0.796875 183.53125 0.796875 C 125.820312 0.796875 124.925781 91.859375 67.214844 91.859375 C 28.023438 91.859375 1.472656 128.539062 1.472656 167.738281 Z M 1.472656 167.738281 "/>
</clipPath>
<clipPath id="clip26">
  <path d="M 82 185 L 95.632812 185 L 95.632812 198 L 82 198 Z M 82 185 "/>
</clipPath>
<clipPath id="clip27">
  <path d="M 1.472656 167.738281 C 1.472656 200.054688 35.40625 212.722656 67.214844 218.332031 C 107.039062 225.355469 103.25 282.132812 143.070312 289.15625 C 195.285156 298.367188 216.484375 238.570312 269.503906 238.570312 C 320.191406 238.570312 345.253906 268.921875 395.933594 268.921875 C 428.632812 263.15625 405.117188 209.644531 433.863281 193.039062 C 459.46875 183.714844 481.90625 169.703125 481.90625 142.445312 C 481.90625 72.808594 354.882812 126.867188 320.082031 66.5625 C 290.453125 15.242188 242.769531 0.796875 183.53125 0.796875 C 125.820312 0.796875 124.925781 91.859375 67.214844 91.859375 C 28.023438 91.859375 1.472656 128.539062 1.472656 167.738281 Z M 1.472656 167.738281 "/>
</clipPath>
<clipPath id="clip28">
  <path d="M 95.632812 192 L 102 192 L 102 200.558594 L 95.632812 200.558594 Z M 95.632812 192 "/>
</clipPath>
<clipPath id="clip29">
  <path d="M 1.472656 167.738281 C 1.472656 200.054688 35.40625 212.722656 67.214844 218.332031 C 107.039062 225.355469 103.25 282.132812 143.070312 289.15625 C 195.285156 298.367188 216.484375 238.570312 269.503906 238.570312 C 320.191406 238.570312 345.253906 268.921875 395.933594 268.921875 C 428.632812 263.15625 405.117188 209.644531 433.863281 193.039062 C 459.46875 183.714844 481.90625 169.703125 481.90625 142.445312 C 481.90625 72.808594 354.882812 126.867188 320.082031 66.5625 C 290.453125 15.242188 242.769531 0.796875 183.53125 0.796875 C 125.820312 0.796875 124.925781 91.859375 67.214844 91.859375 C 28.023438 91.859375 1.472656 128.539062 1.472656 167.738281 Z M 1.472656 167.738281 "/>
</clipPath>
<clipPath id="clip30">
  <path d="M 284 119 L 297.914062 119 L 297.914062 132.511719 L 284 132.511719 Z M 284 119 "/>
</clipPath>
<clipPath id="clip31">
  <path d="M 1.472656 167.738281 C 1.472656 200.054688 35.40625 212.722656 67.214844 218.332031 C 107.039062 225.355469 103.25 282.132812 143.070312 289.15625 C 195.285156 298.367188 216.484375 238.570312 269.503906 238.570312 C 320.191406 238.570312 345.253906 268.921875 395.933594 268.921875 C 428.632812 263.15625 405.117188 209.644531 433.863281 193.039062 C 459.46875 183.714844 481.90625 169.703125 481.90625 142.445312 C 481.90625 72.808594 354.882812 126.867188 320.082031 66.5625 C 290.453125 15.242188 242.769531 0.796875 183.53125 0.796875 C 125.820312 0.796875 124.925781 91.859375 67.214844 91.859375 C 28.023438 91.859375 1.472656 128.539062 1.472656 167.738281 Z M 1.472656 167.738281 "/>
</clipPath>
<clipPath id="clip32">
  <path d="M 298 126 L 304 126 L 304 135 L 298 135 Z M 298 126 "/>
</clipPath>
<clipPath id="clip33">
  <path d="M 1.472656 167.738281 C 1.472656 200.054688 35.40625 212.722656 67.214844 218.332031 C 107.039062 225.355469 103.25 282.132812 143.070312 289.15625 C 195.285156 298.367188 216.484375 238.570312 269.503906 238.570312 C 320.191406 238.570312 345.253906 268.921875 395.933594 268.921875 C 428.632812 263.15625 405.117188 209.644531 433.863281 193.039062 C 459.46875 183.714844 481.90625 169.703125 481.90625 142.445312 C 481.90625 72.808594 354.882812 126.867188 320.082031 66.5625 C 290.453125 15.242188 242.769531 0.796875 183.53125 0.796875 C 125.820312 0.796875 124.925781 91.859375 67.214844 91.859375 C 28.023438 91.859375 1.472656 128.539062 1.472656 167.738281 Z M 1.472656 167.738281 "/>
</clipPath>
<clipPath id="clip34">
  <path d="M 203.039062 221 L 217 221 L 217 234 L 203.039062 234 Z M 203.039062 221 "/>
</clipPath>
<clipPath id="clip35">
  <path d="M 1.472656 167.738281 C 1.472656 200.054688 35.40625 212.722656 67.214844 218.332031 C 107.039062 225.355469 103.25 282.132812 143.070312 289.15625 C 195.285156 298.367188 216.484375 238.570312 269.503906 238.570312 C 320.191406 238.570312 345.253906 268.921875 395.933594 268.921875 C 428.632812 263.15625 405.117188 209.644531 433.863281 193.039062 C 459.46875 183.714844 481.90625 169.703125 481.90625 142.445312 C 481.90625 72.808594 354.882812 126.867188 320.082031 66.5625 C 290.453125 15.242188 242.769531 0.796875 183.53125 0.796875 C 125.820312 0.796875 124.925781 91.859375 67.214844 91.859375 C 28.023438 91.859375 1.472656 128.539062 1.472656 167.738281 Z M 1.472656 167.738281 "/>
</clipPath>
<clipPath id="clip36">
  <path d="M 216 227.417969 L 224 227.417969 L 224 236 L 216 236 Z M 216 227.417969 "/>
</clipPath>
<clipPath id="clip37">
  <path d="M 1.472656 167.738281 C 1.472656 200.054688 35.40625 212.722656 67.214844 218.332031 C 107.039062 225.355469 103.25 282.132812 143.070312 289.15625 C 195.285156 298.367188 216.484375 238.570312 269.503906 238.570312 C 320.191406 238.570312 345.253906 268.921875 395.933594 268.921875 C 428.632812 263.15625 405.117188 209.644531 433.863281 193.039062 C 459.46875 183.714844 481.90625 169.703125 481.90625 142.445312 C 481.90625 72.808594 354.882812 126.867188 320.082031 66.5625 C 290.453125 15.242188 242.769531 0.796875 183.53125 0.796875 C 125.820312 0.796875 124.925781 91.859375 67.214844 91.859375 C 28.023438 91.859375 1.472656 128.539062 1.472656 167.738281 Z M 1.472656 167.738281 "/>
</clipPath>
<clipPath id="clip38">
  <path d="M 360.566406 185 L 374 185 L 374 198 L 360.566406 198 Z M 360.566406 185 "/>
</clipPath>
<clipPath id="clip39">
  <path d="M 1.472656 167.738281 C 1.472656 200.054688 35.40625 212.722656 67.214844 218.332031 C 107.039062 225.355469 103.25 282.132812 143.070312 289.15625 C 195.285156 298.367188 216.484375 238.570312 269.503906 238.570312 C 320.191406 238.570312 345.253906 268.921875 395.933594 268.921875 C 428.632812 263.15625 405.117188 209.644531 433.863281 193.039062 C 459.46875 183.714844 481.90625 169.703125 481.90625 142.445312 C 481.90625 72.808594 354.882812 126.867188 320.082031 66.5625 C 290.453125 15.242188 242.769531 0.796875 183.53125 0.796875 C 125.820312 0.796875 124.925781 91.859375 67.214844 91.859375 C 28.023438 91.859375 1.472656 128.539062 1.472656 167.738281 Z M 1.472656 167.738281 "/>
</clipPath>
<clipPath id="clip40">
  <path d="M 374 192 L 380 192 L 380 201 L 374 201 Z M 374 192 "/>
</clipPath>
<clipPath id="clip41">
  <path d="M 1.472656 167.738281 C 1.472656 200.054688 35.40625 212.722656 67.214844 218.332031 C 107.039062 225.355469 103.25 282.132812 143.070312 289.15625 C 195.285156 298.367188 216.484375 238.570312 269.503906 238.570312 C 320.191406 238.570312 345.253906 268.921875 395.933594 268.921875 C 428.632812 263.15625 405.117188 209.644531 433.863281 193.039062 C 459.46875 183.714844 481.90625 169.703125 481.90625 142.445312 C 481.90625 72.808594 354.882812 126.867188 320.082031 66.5625 C 290.453125 15.242188 242.769531 0.796875 183.53125 0.796875 C 125.820312 0.796875 124.925781 91.859375 67.214844 91.859375 C 28.023438 91.859375 1.472656 128.539062 1.472656 167.738281 Z M 1.472656 167.738281 "/>
</clipPath>
</defs>
<g id="surface1">
<g clip-path="url(#clip1)" clip-rule="nonzero">
<path style="fill:none;stroke-width:0.79701;stroke-linecap:butt;stroke-linejoin:miter;stroke:rgb(0%,0%,0%);stroke-opacity:1;stroke-miterlimit:10;" d="M 5.670565 70.868771 C 5.670565 52.761065 24.690988 45.662879 42.520307 42.519803 C 64.842537 38.584392 62.718695 6.7706 85.038735 2.835189 C 114.306144 -2.325934 126.188708 31.179779 155.90716 31.179779 C 184.318464 31.179779 198.366471 14.173025 226.773396 14.173025 C 245.101927 17.403652 231.920974 47.387631 248.033704 56.692098 C 262.386055 61.916696 274.962699 69.767819 274.962699 85.041065 C 274.962699 124.060293 203.763655 93.769886 184.257158 127.560138 C 167.649594 156.316217 140.922036 164.410294 107.717857 164.410294 C 75.369783 164.410294 74.868381 113.387844 42.520307 113.387844 C 20.552781 113.387844 5.670565 92.833091 5.670565 70.868771 Z M 5.670565 70.868771 " transform="matrix(1.784061,0,0,-1.784677,-8.643978,294.216147)"/>
</g>
<g clip-path="url(#clip2)" clip-rule="nonzero">
<g clip-path="url(#clip3)" clip-rule="nonzero">
<path style=" stroke:none;fill-rule:nonzero;fill:rgb(60.000002%,87.058824%,97.647059%);fill-opacity:1;" d="M 193.648438 294.214844 C 175.34375 170.765625 151.902344 100.417969 92.5 -9.324219 L 244.21875 -9.324219 C 303.625 100.417969 327.058594 170.765625 345.363281 294.214844 Z M 193.648438 294.214844 "/>
</g>
</g>
<g clip-path="url(#clip4)" clip-rule="nonzero">
<g clip-path="url(#clip5)" clip-rule="nonzero">
<path style="fill:none;stroke-width:0.3985;stroke-linecap:butt;stroke-linejoin:miter;stroke:rgb(0%,0%,0%);stroke-opacity:1;stroke-miterlimit:10;" d="M 113.388732 0.000730377 C 103.128608 69.172473 89.989256 108.590057 56.693117 170.0814 L 141.734351 170.0814 C 175.03268 108.590057 188.167653 69.172473 198.427777 0.000730377 Z M 113.388732 0.000730377 " transform="matrix(1.784061,0,0,-1.784677,-8.643978,294.216147)"/>
</g>
</g>
<g clip-path="url(#clip6)" clip-rule="nonzero">
<g clip-path="url(#clip7)" clip-rule="nonzero">
<path style=" stroke:none;fill-rule:nonzero;fill:rgb(85.09804%,69.803923%,54.901963%);fill-opacity:1;" d="M 345.363281 294.214844 C 327.058594 170.765625 303.625 100.417969 244.21875 -9.324219 L 497.082031 -9.324219 L 497.082031 294.214844 Z M 345.363281 294.214844 "/>
</g>
</g>
<g clip-path="url(#clip8)" clip-rule="nonzero">
<g clip-path="url(#clip9)" clip-rule="nonzero">
<path style="fill:none;stroke-width:0.3985;stroke-linecap:butt;stroke-linejoin:miter;stroke:rgb(0%,0%,0%);stroke-opacity:1;stroke-miterlimit:10;" d="M 198.427777 0.000730377 C 188.167653 69.172473 175.03268 108.590057 141.734351 170.0814 L 283.469012 170.0814 L 283.469012 0.000730377 Z M 198.427777 0.000730377 " transform="matrix(1.784061,0,0,-1.784677,-8.643978,294.216147)"/>
</g>
</g>
<g clip-path="url(#clip10)" clip-rule="nonzero">
<g clip-path="url(#clip11)" clip-rule="nonzero">
<path style=" stroke:none;fill-rule:nonzero;fill:rgb(69.803923%,100%,69.803923%);fill-opacity:1;" d="M -8.644531 218.332031 L -8.644531 117.152344 C 174.804688 99.40625 280.1875 70.117188 446.503906 -9.324219 L 497.082031 -9.324219 L 497.082031 117.152344 C 309.347656 190.402344 192.808594 213.730469 -8.644531 218.332031 Z M -8.644531 218.332031 "/>
</g>
</g>
<g clip-path="url(#clip12)" clip-rule="nonzero">
<g clip-path="url(#clip13)" clip-rule="nonzero">
<path style="fill:none;stroke-width:0.3985;stroke-linecap:butt;stroke-linejoin:miter;stroke:rgb(0%,0%,0%);stroke-opacity:1;stroke-miterlimit:10;" d="M -0.00030988 42.519803 L -0.00030988 99.21336 C 102.826453 109.156948 161.895517 125.568356 255.119014 170.0814 L 283.469012 170.0814 L 283.469012 99.21336 C 178.240337 58.169519 112.917984 45.098176 -0.00030988 42.519803 Z M -0.00030988 42.519803 " transform="matrix(1.784061,0,0,-1.784677,-8.643978,294.216147)"/>
</g>
</g>
<g clip-path="url(#clip14)" clip-rule="nonzero">
<g clip-path="url(#clip15)" clip-rule="nonzero">
<path style=" stroke:none;fill-rule:nonzero;fill:rgb(100%,97.254902%,50.196081%);fill-opacity:1;" d="M -8.644531 294.214844 L 193.648438 294.214844 C 175.34375 170.765625 151.902344 100.417969 92.5 -9.324219 L -8.644531 -9.324219 Z M -8.644531 294.214844 "/>
</g>
</g>
<g clip-path="url(#clip16)" clip-rule="nonzero">
<g clip-path="url(#clip17)" clip-rule="nonzero">
<path style="fill:none;stroke-width:0.3985;stroke-linecap:butt;stroke-linejoin:miter;stroke:rgb(0%,0%,0%);stroke-opacity:1;stroke-miterlimit:10;" d="M -0.00030988 0.000730377 L 113.388732 0.000730377 C 103.128608 69.172473 89.989256 108.590057 56.693117 170.0814 L -0.00030988 170.0814 Z M -0.00030988 0.000730377 " transform="matrix(1.784061,0,0,-1.784677,-8.643978,294.216147)"/>
</g>
</g>
<g clip-path="url(#clip18)" clip-rule="nonzero">
<g clip-path="url(#clip19)" clip-rule="nonzero">
<path style=" stroke:none;fill-rule:nonzero;fill:rgb(100%,80.000001%,60.000002%);fill-opacity:1;" d="M -8.644531 -9.324219 L -8.644531 117.152344 C 174.804688 99.40625 280.1875 70.117188 446.503906 -9.324219 Z M -8.644531 -9.324219 "/>
</g>
</g>
<g clip-path="url(#clip20)" clip-rule="nonzero">
<g clip-path="url(#clip21)" clip-rule="nonzero">
<path style="fill:none;stroke-width:0.3985;stroke-linecap:butt;stroke-linejoin:miter;stroke:rgb(0%,0%,0%);stroke-opacity:1;stroke-miterlimit:10;" d="M -0.00030988 170.0814 L -0.00030988 99.21336 C 102.826453 109.156948 161.895517 125.568356 255.119014 170.0814 Z M -0.00030988 170.0814 " transform="matrix(1.784061,0,0,-1.784677,-8.643978,294.216147)"/>
</g>
</g>
<g clip-path="url(#clip22)" clip-rule="nonzero">
<g clip-path="url(#clip23)" clip-rule="nonzero">
<path style=" stroke:none;fill-rule:nonzero;fill:rgb(0%,0%,0%);fill-opacity:1;" d="M 195.683594 41.871094 C 195.710938 41.789062 195.765625 41.648438 195.765625 41.621094 C 195.765625 41.621094 195.765625 41.421875 195.542969 41.421875 C 195.375 41.421875 195.347656 41.535156 195.320312 41.648438 C 194.171875 44.277344 193.5 45.453125 190.480469 45.453125 L 187.878906 45.453125 C 187.628906 45.453125 187.597656 45.453125 187.488281 45.453125 C 187.292969 45.425781 187.261719 45.398438 187.261719 45.257812 C 187.261719 45.199219 187.261719 45.171875 187.347656 44.863281 L 188.550781 39.996094 L 190.3125 39.996094 C 191.824219 39.996094 191.824219 40.386719 191.824219 40.835938 C 191.824219 40.949219 191.824219 41.171875 191.683594 41.703125 C 191.65625 41.789062 191.628906 41.84375 191.628906 41.898438 C 191.628906 41.984375 191.710938 42.09375 191.878906 42.09375 C 192.019531 42.09375 192.074219 41.984375 192.128906 41.730469 L 193.136719 37.5625 C 193.136719 37.476562 193.054688 37.367188 192.941406 37.367188 C 192.773438 37.367188 192.746094 37.476562 192.691406 37.703125 C 192.328125 39.046875 191.992188 39.464844 190.367188 39.464844 L 188.691406 39.464844 L 189.753906 35.183594 C 189.921875 34.539062 189.921875 34.484375 190.703125 34.484375 L 193.222656 34.484375 C 195.375 34.484375 195.90625 34.988281 195.90625 36.441406 C 195.90625 36.890625 195.90625 36.917969 195.851562 37.394531 C 195.851562 37.507812 195.824219 37.617188 195.824219 37.703125 C 195.824219 37.8125 195.878906 37.925781 196.046875 37.925781 C 196.242188 37.925781 196.269531 37.8125 196.296875 37.476562 L 196.660156 34.402344 C 196.691406 33.925781 196.605469 33.925781 196.15625 33.925781 L 187.207031 33.925781 C 186.84375 33.925781 186.675781 33.925781 186.675781 34.289062 C 186.675781 34.484375 186.816406 34.484375 187.152344 34.484375 C 187.824219 34.484375 188.328125 34.484375 188.328125 34.792969 C 188.328125 34.875 188.328125 34.90625 188.242188 35.238281 L 185.894531 44.613281 C 185.699219 45.3125 185.667969 45.453125 184.269531 45.453125 C 183.964844 45.453125 183.765625 45.453125 183.765625 45.789062 C 183.765625 46.011719 183.933594 46.011719 184.269531 46.011719 L 193.472656 46.011719 C 193.890625 46.011719 193.921875 45.984375 194.03125 45.703125 Z M 195.683594 41.871094 "/>
</g>
</g>
<g clip-path="url(#clip24)" clip-rule="nonzero">
<g clip-path="url(#clip25)" clip-rule="nonzero">
<path style=" stroke:none;fill-rule:nonzero;fill:rgb(0%,0%,0%);fill-opacity:1;" d="M 200.386719 40.761719 C 200.386719 40.425781 200.359375 40.425781 200.023438 40.425781 C 199.210938 41.207031 198.09375 41.207031 197.589844 41.207031 L 197.589844 41.65625 C 197.867188 41.65625 198.707031 41.65625 199.378906 41.320312 L 199.378906 47.671875 C 199.378906 48.0625 199.378906 48.230469 198.148438 48.230469 L 197.671875 48.230469 L 197.671875 48.679688 C 197.894531 48.679688 199.40625 48.621094 199.882812 48.621094 C 200.273438 48.621094 201.839844 48.679688 202.089844 48.679688 L 202.089844 48.230469 L 201.644531 48.230469 C 200.386719 48.230469 200.386719 48.0625 200.386719 47.671875 Z M 200.386719 40.761719 "/>
</g>
</g>
<g clip-path="url(#clip26)" clip-rule="nonzero">
<g clip-path="url(#clip27)" clip-rule="nonzero">
<path style=" stroke:none;fill-rule:nonzero;fill:rgb(0%,0%,0%);fill-opacity:1;" d="M 94.539062 193.636719 C 94.566406 193.554688 94.621094 193.414062 94.621094 193.386719 C 94.621094 193.386719 94.621094 193.191406 94.398438 193.191406 C 94.230469 193.191406 94.203125 193.300781 94.175781 193.414062 C 93.027344 196.042969 92.355469 197.21875 89.335938 197.21875 L 86.734375 197.21875 C 86.484375 197.21875 86.457031 197.21875 86.34375 197.21875 C 86.148438 197.191406 86.121094 197.164062 86.121094 197.023438 C 86.121094 196.96875 86.121094 196.941406 86.203125 196.632812 L 87.40625 191.765625 L 89.167969 191.765625 C 90.679688 191.765625 90.679688 192.15625 90.679688 192.601562 C 90.679688 192.714844 90.679688 192.9375 90.539062 193.46875 C 90.511719 193.554688 90.484375 193.609375 90.484375 193.667969 C 90.484375 193.75 90.566406 193.863281 90.734375 193.863281 C 90.875 193.863281 90.929688 193.75 90.988281 193.5 L 91.992188 189.328125 C 91.992188 189.246094 91.910156 189.132812 91.796875 189.132812 C 91.628906 189.132812 91.601562 189.246094 91.546875 189.46875 C 91.183594 190.8125 90.847656 191.230469 89.226562 191.230469 L 87.546875 191.230469 L 88.609375 186.953125 C 88.777344 186.308594 88.777344 186.25 89.558594 186.25 L 92.078125 186.25 C 94.230469 186.25 94.761719 186.753906 94.761719 188.210938 C 94.761719 188.65625 94.761719 188.6875 94.707031 189.160156 C 94.707031 189.273438 94.679688 189.386719 94.679688 189.46875 C 94.679688 189.582031 94.734375 189.691406 94.902344 189.691406 C 95.097656 189.691406 95.125 189.582031 95.152344 189.246094 L 95.519531 186.167969 C 95.546875 185.691406 95.460938 185.691406 95.015625 185.691406 L 86.0625 185.691406 C 85.699219 185.691406 85.53125 185.691406 85.53125 186.054688 C 85.53125 186.25 85.671875 186.25 86.007812 186.25 C 86.679688 186.25 87.183594 186.25 87.183594 186.558594 C 87.183594 186.644531 87.183594 186.671875 87.097656 187.007812 L 84.75 196.378906 C 84.554688 197.078125 84.527344 197.21875 83.128906 197.21875 C 82.820312 197.21875 82.625 197.21875 82.625 197.554688 C 82.625 197.78125 82.792969 197.78125 83.128906 197.78125 L 92.328125 197.78125 C 92.75 197.78125 92.777344 197.75 92.890625 197.472656 Z M 94.539062 193.636719 "/>
</g>
</g>
<g clip-path="url(#clip28)" clip-rule="nonzero">
<g clip-path="url(#clip29)" clip-rule="nonzero">
<path style=" stroke:none;fill-rule:nonzero;fill:rgb(0%,0%,0%);fill-opacity:1;" d="M 101.367188 198.179688 L 100.949219 198.179688 C 100.890625 198.460938 100.78125 199.1875 100.613281 199.328125 C 100.5 199.382812 99.550781 199.382812 99.382812 199.382812 L 97.089844 199.382812 C 98.402344 198.234375 98.820312 197.871094 99.578125 197.285156 C 100.5 196.554688 101.367188 195.800781 101.367188 194.597656 C 101.367188 193.085938 100.054688 192.191406 98.457031 192.191406 C 96.890625 192.191406 95.855469 193.253906 95.855469 194.402344 C 95.855469 195.046875 96.390625 195.101562 96.527344 195.101562 C 96.808594 195.101562 97.171875 194.90625 97.171875 194.457031 C 97.171875 194.207031 97.089844 193.785156 96.445312 193.785156 C 96.835938 192.890625 97.675781 192.640625 98.261719 192.640625 C 99.492188 192.640625 100.164062 193.589844 100.164062 194.597656 C 100.164062 195.6875 99.382812 196.554688 98.988281 197.003906 L 95.96875 199.96875 C 95.855469 200.082031 95.855469 200.109375 95.855469 200.445312 L 100.976562 200.445312 Z M 101.367188 198.179688 "/>
</g>
</g>
<g clip-path="url(#clip30)" clip-rule="nonzero">
<g clip-path="url(#clip31)" clip-rule="nonzero">
<path style=" stroke:none;fill-rule:nonzero;fill:rgb(0%,0%,0%);fill-opacity:1;" d="M 296.828125 127.871094 C 296.855469 127.789062 296.910156 127.648438 296.910156 127.621094 C 296.910156 127.621094 296.910156 127.421875 296.6875 127.421875 C 296.519531 127.421875 296.492188 127.535156 296.460938 127.648438 C 295.316406 130.277344 294.644531 131.453125 291.625 131.453125 L 289.023438 131.453125 C 288.769531 131.453125 288.742188 131.453125 288.632812 131.453125 C 288.433594 131.425781 288.40625 131.398438 288.40625 131.257812 C 288.40625 131.199219 288.40625 131.171875 288.492188 130.863281 L 289.695312 125.996094 L 291.457031 125.996094 C 292.964844 125.996094 292.964844 126.386719 292.964844 126.835938 C 292.964844 126.949219 292.964844 127.171875 292.828125 127.703125 C 292.796875 127.789062 292.769531 127.84375 292.769531 127.898438 C 292.769531 127.984375 292.855469 128.09375 293.023438 128.09375 C 293.164062 128.09375 293.21875 127.984375 293.273438 127.730469 L 294.28125 123.5625 C 294.28125 123.476562 294.195312 123.367188 294.085938 123.367188 C 293.917969 123.367188 293.890625 123.476562 293.832031 123.703125 C 293.46875 125.046875 293.132812 125.464844 291.511719 125.464844 L 289.832031 125.464844 L 290.898438 121.183594 C 291.066406 120.539062 291.066406 120.484375 291.847656 120.484375 L 294.363281 120.484375 C 296.519531 120.484375 297.050781 120.988281 297.050781 122.441406 C 297.050781 122.890625 297.050781 122.917969 296.996094 123.394531 C 296.996094 123.507812 296.964844 123.617188 296.964844 123.703125 C 296.964844 123.8125 297.023438 123.925781 297.191406 123.925781 C 297.386719 123.925781 297.414062 123.8125 297.441406 123.476562 L 297.804688 120.402344 C 297.832031 119.925781 297.75 119.925781 297.300781 119.925781 L 288.351562 119.925781 C 287.988281 119.925781 287.820312 119.925781 287.820312 120.289062 C 287.820312 120.484375 287.960938 120.484375 288.296875 120.484375 C 288.96875 120.484375 289.46875 120.484375 289.46875 120.792969 C 289.46875 120.875 289.46875 120.902344 289.386719 121.238281 L 287.035156 130.613281 C 286.839844 131.3125 286.8125 131.453125 285.414062 131.453125 C 285.105469 131.453125 284.910156 131.453125 284.910156 131.789062 C 284.910156 132.011719 285.078125 132.011719 285.414062 132.011719 L 294.617188 132.011719 C 295.035156 132.011719 295.0625 131.984375 295.175781 131.703125 Z M 296.828125 127.871094 "/>
</g>
</g>
<g clip-path="url(#clip32)" clip-rule="nonzero">
<g clip-path="url(#clip33)" clip-rule="nonzero">
<path style=" stroke:none;fill-rule:nonzero;fill:rgb(0%,0%,0%);fill-opacity:1;" d="M 300.746094 130.511719 C 301.722656 130.511719 302.421875 131.183594 302.421875 132.527344 C 302.421875 134.066406 301.527344 134.539062 300.800781 134.539062 C 300.296875 134.539062 299.207031 134.402344 298.703125 133.671875 C 299.289062 133.644531 299.402344 133.226562 299.402344 132.972656 C 299.402344 132.554688 299.121094 132.273438 298.730469 132.273438 C 298.367188 132.273438 298.03125 132.496094 298.03125 133 C 298.03125 134.175781 299.316406 134.933594 300.828125 134.933594 C 302.5625 134.933594 303.765625 133.785156 303.765625 132.527344 C 303.765625 131.546875 302.953125 130.59375 301.582031 130.289062 C 302.898438 129.8125 303.375 128.886719 303.375 128.132812 C 303.375 127.152344 302.226562 126.425781 300.855469 126.425781 C 299.484375 126.425781 298.421875 127.097656 298.421875 128.078125 C 298.421875 128.496094 298.703125 128.75 299.066406 128.75 C 299.457031 128.75 299.710938 128.441406 299.710938 128.105469 C 299.710938 127.742188 299.457031 127.488281 299.066406 127.460938 C 299.511719 126.902344 300.351562 126.761719 300.828125 126.761719 C 301.386719 126.761719 302.171875 127.042969 302.171875 128.132812 C 302.171875 128.664062 302.003906 129.222656 301.667969 129.617188 C 301.246094 130.089844 300.910156 130.121094 300.296875 130.148438 C 299.960938 130.175781 299.960938 130.175781 299.878906 130.175781 C 299.847656 130.175781 299.765625 130.203125 299.765625 130.34375 C 299.765625 130.511719 299.878906 130.511719 300.074219 130.511719 Z M 300.746094 130.511719 "/>
</g>
</g>
<g clip-path="url(#clip34)" clip-rule="nonzero">
<g clip-path="url(#clip35)" clip-rule="nonzero">
<path style=" stroke:none;fill-rule:nonzero;fill:rgb(0%,0%,0%);fill-opacity:1;" d="M 215.914062 229.050781 C 215.941406 228.964844 215.996094 228.824219 215.996094 228.796875 C 215.996094 228.796875 215.996094 228.601562 215.773438 228.601562 C 215.605469 228.601562 215.578125 228.714844 215.546875 228.824219 C 214.402344 231.457031 213.730469 232.632812 210.710938 232.632812 L 208.109375 232.632812 C 207.855469 232.632812 207.828125 232.632812 207.71875 232.632812 C 207.519531 232.601562 207.492188 232.574219 207.492188 232.433594 C 207.492188 232.378906 207.492188 232.351562 207.578125 232.042969 L 208.78125 227.175781 L 210.542969 227.175781 C 212.050781 227.175781 212.050781 227.566406 212.050781 228.015625 C 212.050781 228.125 212.050781 228.351562 211.914062 228.882812 C 211.882812 228.964844 211.855469 229.023438 211.855469 229.078125 C 211.855469 229.160156 211.941406 229.273438 212.109375 229.273438 C 212.246094 229.273438 212.304688 229.160156 212.359375 228.910156 L 213.367188 224.742188 C 213.367188 224.65625 213.28125 224.546875 213.171875 224.546875 C 213.003906 224.546875 212.976562 224.65625 212.917969 224.882812 C 212.554688 226.222656 212.21875 226.644531 210.597656 226.644531 L 208.917969 226.644531 L 209.984375 222.363281 C 210.148438 221.71875 210.148438 221.664062 210.933594 221.664062 L 213.449219 221.664062 C 215.605469 221.664062 216.136719 222.167969 216.136719 223.621094 C 216.136719 224.070312 216.136719 224.097656 216.078125 224.574219 C 216.078125 224.683594 216.050781 224.796875 216.050781 224.882812 C 216.050781 224.992188 216.109375 225.105469 216.277344 225.105469 C 216.472656 225.105469 216.5 224.992188 216.527344 224.65625 L 216.890625 221.578125 C 216.917969 221.105469 216.835938 221.105469 216.386719 221.105469 L 207.4375 221.105469 C 207.074219 221.105469 206.90625 221.105469 206.90625 221.46875 C 206.90625 221.664062 207.046875 221.664062 207.382812 221.664062 C 208.050781 221.664062 208.554688 221.664062 208.554688 221.972656 C 208.554688 222.054688 208.554688 222.082031 208.472656 222.417969 L 206.121094 231.792969 C 205.925781 232.492188 205.898438 232.632812 204.5 232.632812 C 204.191406 232.632812 203.996094 232.632812 203.996094 232.96875 C 203.996094 233.191406 204.164062 233.191406 204.5 233.191406 L 213.703125 233.191406 C 214.121094 233.191406 214.148438 233.164062 214.261719 232.882812 Z M 215.914062 229.050781 "/>
</g>
</g>
<g clip-path="url(#clip36)" clip-rule="nonzero">
<g clip-path="url(#clip37)" clip-rule="nonzero">
<path style=" stroke:none;fill-rule:nonzero;fill:rgb(0%,0%,0%);fill-opacity:1;" d="M 223.019531 233.816406 L 223.019531 233.367188 L 221.648438 233.367188 L 221.648438 227.828125 C 221.648438 227.550781 221.648438 227.464844 221.367188 227.464844 C 221.226562 227.464844 221.171875 227.464844 221.0625 227.632812 L 216.921875 233.367188 L 216.921875 233.816406 L 220.585938 233.816406 L 220.585938 234.851562 C 220.585938 235.269531 220.585938 235.410156 219.578125 235.410156 L 219.242188 235.410156 L 219.242188 235.859375 C 219.859375 235.832031 220.667969 235.804688 221.117188 235.804688 C 221.5625 235.804688 222.375 235.832031 222.992188 235.859375 L 222.992188 235.410156 L 222.65625 235.410156 C 221.648438 235.410156 221.648438 235.269531 221.648438 234.851562 L 221.648438 233.816406 Z M 220.667969 228.808594 L 220.667969 233.367188 L 217.398438 233.367188 Z M 220.667969 228.808594 "/>
</g>
</g>
<g clip-path="url(#clip38)" clip-rule="nonzero">
<g clip-path="url(#clip39)" clip-rule="nonzero">
<path style=" stroke:none;fill-rule:nonzero;fill:rgb(0%,0%,0%);fill-opacity:1;" d="M 372.683594 193.636719 C 372.710938 193.554688 372.769531 193.414062 372.769531 193.386719 C 372.769531 193.386719 372.769531 193.191406 372.542969 193.191406 C 372.378906 193.191406 372.347656 193.300781 372.320312 193.414062 C 371.175781 196.042969 370.503906 197.21875 367.480469 197.21875 L 364.882812 197.21875 C 364.628906 197.21875 364.601562 197.21875 364.488281 197.21875 C 364.292969 197.191406 364.265625 197.164062 364.265625 197.023438 C 364.265625 196.96875 364.265625 196.941406 364.347656 196.632812 L 365.550781 191.765625 L 367.3125 191.765625 C 368.824219 191.765625 368.824219 192.15625 368.824219 192.601562 C 368.824219 192.714844 368.824219 192.9375 368.683594 193.46875 C 368.65625 193.554688 368.628906 193.609375 368.628906 193.667969 C 368.628906 193.75 368.714844 193.863281 368.878906 193.863281 C 369.019531 193.863281 369.078125 193.75 369.132812 193.5 L 370.140625 189.328125 C 370.140625 189.246094 370.054688 189.132812 369.945312 189.132812 C 369.777344 189.132812 369.746094 189.246094 369.691406 189.46875 C 369.328125 190.8125 368.992188 191.230469 367.371094 191.230469 L 365.691406 191.230469 L 366.753906 186.953125 C 366.921875 186.308594 366.921875 186.25 367.707031 186.25 L 370.222656 186.25 C 372.378906 186.25 372.910156 186.753906 372.910156 188.210938 C 372.910156 188.65625 372.910156 188.6875 372.851562 189.160156 C 372.851562 189.273438 372.824219 189.386719 372.824219 189.46875 C 372.824219 189.582031 372.878906 189.691406 373.046875 189.691406 C 373.242188 189.691406 373.273438 189.582031 373.300781 189.246094 L 373.664062 186.167969 C 373.691406 185.691406 373.609375 185.691406 373.160156 185.691406 L 364.210938 185.691406 C 363.847656 185.691406 363.679688 185.691406 363.679688 186.054688 C 363.679688 186.25 363.816406 186.25 364.152344 186.25 C 364.824219 186.25 365.328125 186.25 365.328125 186.558594 C 365.328125 186.644531 365.328125 186.671875 365.246094 187.007812 L 362.894531 196.378906 C 362.699219 197.078125 362.671875 197.21875 361.273438 197.21875 C 360.964844 197.21875 360.769531 197.21875 360.769531 197.554688 C 360.769531 197.78125 360.9375 197.78125 361.273438 197.78125 L 370.476562 197.78125 C 370.894531 197.78125 370.921875 197.75 371.035156 197.472656 Z M 372.683594 193.636719 "/>
</g>
</g>
<g clip-path="url(#clip40)" clip-rule="nonzero">
<g clip-path="url(#clip41)" clip-rule="nonzero">
<path style=" stroke:none;fill-rule:nonzero;fill:rgb(0%,0%,0%);fill-opacity:1;" d="M 375.148438 193.507812 C 375.792969 193.648438 376.15625 193.648438 376.351562 193.648438 C 378 193.648438 378.980469 192.527344 378.980469 192.359375 C 378.980469 192.21875 378.867188 192.191406 378.8125 192.191406 C 378.785156 192.191406 378.757812 192.191406 378.726562 192.21875 C 378.421875 192.332031 377.75 192.582031 376.828125 192.582031 C 376.492188 192.582031 375.820312 192.554688 375.035156 192.246094 C 374.894531 192.191406 374.867188 192.191406 374.867188 192.191406 C 374.699219 192.191406 374.699219 192.304688 374.699219 192.527344 L 374.699219 196.191406 C 374.699219 196.386719 374.699219 196.554688 374.894531 196.554688 C 375.007812 196.554688 375.035156 196.527344 375.148438 196.359375 C 375.679688 195.6875 376.433594 195.578125 376.882812 195.578125 C 377.636719 195.578125 377.972656 196.191406 378.027344 196.277344 C 378.253906 196.695312 378.308594 197.171875 378.308594 197.898438 C 378.308594 198.261719 378.308594 198.992188 377.945312 199.550781 C 377.636719 199.996094 377.105469 200.304688 376.492188 200.304688 C 375.679688 200.304688 374.839844 199.859375 374.53125 199.019531 C 375.007812 199.074219 375.261719 198.738281 375.261719 198.402344 C 375.261719 197.871094 374.785156 197.789062 374.617188 197.789062 C 374.589844 197.789062 374 197.789062 374 198.460938 C 374 199.578125 375.035156 200.699219 376.519531 200.699219 C 378.113281 200.699219 379.511719 199.523438 379.511719 197.957031 C 379.511719 196.527344 378.421875 195.242188 376.882812 195.242188 C 376.351562 195.242188 375.707031 195.382812 375.148438 195.855469 Z M 375.148438 193.507812 "/>
</g>
</g>
</g>
</svg>
