<?xml version="1.0" encoding="UTF-8"?>
<svg xmlns="http://www.w3.org/2000/svg" xmlns:xlink="http://www.w3.org/1999/xlink" width="573px" height="300px" viewBox="0 0 573 300" version="1.1">
<g id="surface1">
<path style=" stroke:none;fill-rule:nonzero;fill:rgb(0%,0%,0%);fill-opacity:1;" d="M 20.980469 12.949219 C 20.980469 12.535156 20.980469 12.480469 20.5625 12.480469 C 19.488281 13.613281 17.9375 13.613281 17.386719 13.613281 L 17.386719 14.164062 C 17.71875 14.164062 18.769531 14.164062 19.679688 13.695312 L 19.679688 22.816406 C 19.679688 23.453125 19.625 23.648438 18.050781 23.648438 L 17.46875 23.648438 L 17.46875 24.199219 C 18.105469 24.144531 19.625 24.144531 20.316406 24.144531 C 21.035156 24.144531 22.554688 24.144531 23.164062 24.199219 L 23.164062 23.648438 L 22.609375 23.648438 C 21.035156 23.648438 20.980469 23.453125 20.980469 22.816406 Z M 20.980469 12.949219 "/>
<path style=" stroke:none;fill-rule:nonzero;fill:rgb(0%,0%,0%);fill-opacity:1;" d="M 84.160156 22.84375 L 86.011719 21.046875 C 88.746094 18.617188 89.824219 17.648438 89.824219 15.90625 C 89.824219 13.886719 88.222656 12.480469 86.09375 12.480469 C 84.105469 12.480469 82.804688 14.109375 82.804688 15.683594 C 82.804688 16.652344 83.691406 16.652344 83.746094 16.652344 C 84.023438 16.652344 84.65625 16.460938 84.65625 15.710938 C 84.65625 15.269531 84.324219 14.800781 83.71875 14.800781 C 83.578125 14.800781 83.550781 14.800781 83.496094 14.828125 C 83.882812 13.695312 84.851562 13.03125 85.84375 13.03125 C 87.449219 13.03125 88.222656 14.46875 88.222656 15.90625 C 88.222656 17.316406 87.339844 18.699219 86.371094 19.777344 L 83 23.535156 C 82.804688 23.730469 82.804688 23.785156 82.804688 24.199219 L 89.328125 24.199219 L 89.824219 21.132812 L 89.382812 21.132812 C 89.273438 21.65625 89.164062 22.429688 88.996094 22.707031 C 88.859375 22.84375 87.699219 22.84375 87.308594 22.84375 Z M 84.160156 22.84375 "/>
<path style=" stroke:none;fill-rule:nonzero;fill:rgb(0%,0%,0%);fill-opacity:1;" d="M 153.117188 18.007812 C 154.582031 17.539062 155.578125 16.292969 155.578125 14.910156 C 155.578125 13.472656 154.058594 12.480469 152.34375 12.480469 C 150.574219 12.480469 149.25 13.558594 149.25 14.882812 C 149.25 15.464844 149.636719 15.796875 150.132812 15.796875 C 150.6875 15.796875 151.046875 15.410156 151.046875 14.910156 C 151.046875 14.027344 150.214844 14.027344 149.941406 14.027344 C 150.492188 13.167969 151.652344 12.921875 152.289062 12.921875 C 153.007812 12.921875 153.976562 13.308594 153.976562 14.910156 C 153.976562 15.105469 153.949219 16.128906 153.476562 16.902344 C 152.953125 17.757812 152.34375 17.785156 151.929688 17.8125 C 151.765625 17.839844 151.351562 17.867188 151.238281 17.867188 C 151.101562 17.898438 150.960938 17.898438 150.960938 18.089844 C 150.960938 18.285156 151.101562 18.285156 151.378906 18.285156 L 152.152344 18.285156 C 153.617188 18.285156 154.25 19.472656 154.25 21.1875 C 154.25 23.589844 153.035156 24.089844 152.261719 24.089844 C 151.515625 24.089844 150.1875 23.785156 149.582031 22.761719 C 150.1875 22.84375 150.742188 22.457031 150.742188 21.792969 C 150.742188 21.160156 150.273438 20.800781 149.746094 20.800781 C 149.332031 20.800781 148.78125 21.046875 148.78125 21.820312 C 148.78125 23.425781 150.410156 24.585938 152.316406 24.585938 C 154.472656 24.585938 156.074219 22.984375 156.074219 21.1875 C 156.074219 19.75 154.96875 18.367188 153.117188 18.007812 Z M 153.117188 18.007812 "/>
<path style=" stroke:none;fill-rule:nonzero;fill:rgb(0%,0%,0%);fill-opacity:1;" d="M 20.980469 125.054688 C 20.980469 124.636719 20.980469 124.582031 20.5625 124.582031 C 19.488281 125.714844 17.9375 125.714844 17.386719 125.714844 L 17.386719 126.269531 C 17.71875 126.269531 18.769531 126.269531 19.679688 125.800781 L 19.679688 134.921875 C 19.679688 135.558594 19.625 135.75 18.050781 135.75 L 17.46875 135.75 L 17.46875 136.304688 C 18.105469 136.25 19.625 136.25 20.316406 136.25 C 21.035156 136.25 22.554688 136.25 23.164062 136.304688 L 23.164062 135.75 L 22.609375 135.75 C 21.035156 135.75 20.980469 135.558594 20.980469 134.921875 Z M 20.980469 125.054688 "/>
<path style=" stroke:none;fill-rule:nonzero;fill:rgb(0%,0%,0%);fill-opacity:1;" d="M 84.160156 134.949219 L 86.011719 133.152344 C 88.746094 130.71875 89.824219 129.753906 89.824219 128.011719 C 89.824219 125.992188 88.222656 124.582031 86.09375 124.582031 C 84.105469 124.582031 82.804688 126.214844 82.804688 127.789062 C 82.804688 128.757812 83.691406 128.757812 83.746094 128.757812 C 84.023438 128.757812 84.65625 128.5625 84.65625 127.816406 C 84.65625 127.375 84.324219 126.90625 83.71875 126.90625 C 83.578125 126.90625 83.550781 126.90625 83.496094 126.933594 C 83.882812 125.800781 84.851562 125.136719 85.84375 125.136719 C 87.449219 125.136719 88.222656 126.574219 88.222656 128.011719 C 88.222656 129.421875 87.339844 130.804688 86.371094 131.882812 L 83 135.640625 C 82.804688 135.835938 82.804688 135.890625 82.804688 136.304688 L 89.328125 136.304688 L 89.824219 133.234375 L 89.382812 133.234375 C 89.273438 133.761719 89.164062 134.535156 88.996094 134.8125 C 88.859375 134.949219 87.699219 134.949219 87.308594 134.949219 Z M 84.160156 134.949219 "/>
<path style=" stroke:none;fill-rule:nonzero;fill:rgb(0%,0%,0%);fill-opacity:1;" d="M 153.117188 130.113281 C 154.582031 129.640625 155.578125 128.398438 155.578125 127.015625 C 155.578125 125.578125 154.058594 124.582031 152.34375 124.582031 C 150.574219 124.582031 149.25 125.660156 149.25 126.988281 C 149.25 127.570312 149.636719 127.902344 150.132812 127.902344 C 150.6875 127.902344 151.046875 127.511719 151.046875 127.015625 C 151.046875 126.132812 150.214844 126.132812 149.941406 126.132812 C 150.492188 125.273438 151.652344 125.027344 152.289062 125.027344 C 153.007812 125.027344 153.976562 125.414062 153.976562 127.015625 C 153.976562 127.210938 153.949219 128.230469 153.476562 129.007812 C 152.953125 129.863281 152.34375 129.890625 151.929688 129.917969 C 151.765625 129.945312 151.351562 129.972656 151.238281 129.972656 C 151.101562 130 150.960938 130 150.960938 130.195312 C 150.960938 130.386719 151.101562 130.386719 151.378906 130.386719 L 152.152344 130.386719 C 153.617188 130.386719 154.25 131.578125 154.25 133.289062 C 154.25 135.695312 153.035156 136.195312 152.261719 136.195312 C 151.515625 136.195312 150.1875 135.890625 149.582031 134.867188 C 150.1875 134.949219 150.742188 134.5625 150.742188 133.898438 C 150.742188 133.261719 150.273438 132.902344 149.746094 132.902344 C 149.332031 132.902344 148.78125 133.152344 148.78125 133.925781 C 148.78125 135.53125 150.410156 136.691406 152.316406 136.691406 C 154.472656 136.691406 156.074219 135.085938 156.074219 133.289062 C 156.074219 131.855469 154.96875 130.472656 153.117188 130.113281 Z M 153.117188 130.113281 "/>
<path style="fill:none;stroke-width:0.39848;stroke-linecap:butt;stroke-linejoin:miter;stroke:rgb(0%,0%,0%);stroke-opacity:1;stroke-miterlimit:10;" d="M -37.473587 57.192376 L -37.473587 8.173513 " transform="matrix(1.764358,0,0,-1.764706,86.316038,131.908226)"/>
<path style="fill:none;stroke-width:0.39848;stroke-linecap:round;stroke-linejoin:round;stroke:rgb(0%,0%,0%);stroke-opacity:1;stroke-miterlimit:10;" d="M -2.071854 2.390719 C -1.695552 0.958275 -0.849979 0.280797 0.000020564 -0.00259174 C -0.849979 -0.279339 -1.695552 -0.956816 -2.071854 -2.391474 " transform="matrix(0,1.764706,1.764358,0,20.203792,117.835901)"/>
<path style="fill:none;stroke-width:0.39848;stroke-linecap:butt;stroke-linejoin:miter;stroke:rgb(0%,0%,0%);stroke-opacity:1;stroke-miterlimit:10;" d="M 0.00020851 57.192376 L 0.00020851 8.173513 " transform="matrix(1.764358,0,0,-1.764706,86.316038,131.908226)"/>
<path style="fill:none;stroke-width:0.39848;stroke-linecap:round;stroke-linejoin:round;stroke:rgb(0%,0%,0%);stroke-opacity:1;stroke-miterlimit:10;" d="M -2.071854 2.389091 C -1.695552 0.956647 -0.849979 0.27917 0.000020564 0.00020851 C -0.849979 -0.276539 -1.695552 -0.954016 -2.071854 -2.390888 " transform="matrix(0,1.764706,1.764358,0,86.316038,117.835901)"/>
<path style="fill:none;stroke-width:0.39848;stroke-linecap:butt;stroke-linejoin:miter;stroke:rgb(0%,0%,0%);stroke-opacity:1;stroke-miterlimit:10;" d="M 37.47179 57.192376 L 37.47179 8.173513 " transform="matrix(1.764358,0,0,-1.764706,86.316038,131.908226)"/>
<path style="fill:none;stroke-width:0.39848;stroke-linecap:round;stroke-linejoin:round;stroke:rgb(0%,0%,0%);stroke-opacity:1;stroke-miterlimit:10;" d="M -2.071854 2.391889 C -1.695552 0.955017 -0.849979 0.27754 0.000020564 0.000792868 C -0.849979 -0.278168 -1.695552 -0.955646 -2.071854 -2.38809 " transform="matrix(0,1.764706,1.764358,0,152.428289,117.835901)"/>
<path style=" stroke:none;fill-rule:nonzero;fill:rgb(0%,0%,0%);fill-opacity:1;" d="M 221.03125 12.949219 C 221.03125 12.535156 221.03125 12.480469 220.617188 12.480469 C 219.539062 13.613281 217.992188 13.613281 217.4375 13.613281 L 217.4375 14.164062 C 217.769531 14.164062 218.820312 14.164062 219.734375 13.695312 L 219.734375 22.816406 C 219.734375 23.453125 219.679688 23.648438 218.101562 23.648438 L 217.523438 23.648438 L 217.523438 24.199219 C 218.15625 24.144531 219.679688 24.144531 220.367188 24.144531 C 221.085938 24.144531 222.609375 24.144531 223.214844 24.199219 L 223.214844 23.648438 L 222.664062 23.648438 C 221.085938 23.648438 221.03125 23.453125 221.03125 22.816406 Z M 221.03125 12.949219 "/>
<path style=" stroke:none;fill-rule:nonzero;fill:rgb(0%,0%,0%);fill-opacity:1;" d="M 284.214844 22.84375 L 286.066406 21.046875 C 288.800781 18.617188 289.878906 17.648438 289.878906 15.90625 C 289.878906 13.886719 288.277344 12.480469 286.148438 12.480469 C 284.15625 12.480469 282.859375 14.109375 282.859375 15.683594 C 282.859375 16.652344 283.742188 16.652344 283.796875 16.652344 C 284.074219 16.652344 284.710938 16.460938 284.710938 15.710938 C 284.710938 15.269531 284.378906 14.800781 283.769531 14.800781 C 283.632812 14.800781 283.605469 14.800781 283.550781 14.828125 C 283.9375 13.695312 284.902344 13.03125 285.898438 13.03125 C 287.503906 13.03125 288.277344 14.46875 288.277344 15.90625 C 288.277344 17.316406 287.390625 18.699219 286.425781 19.777344 L 283.050781 23.535156 C 282.859375 23.730469 282.859375 23.785156 282.859375 24.199219 L 289.382812 24.199219 L 289.878906 21.132812 L 289.4375 21.132812 C 289.324219 21.65625 289.214844 22.429688 289.050781 22.707031 C 288.910156 22.84375 287.75 22.84375 287.363281 22.84375 Z M 284.214844 22.84375 "/>
<path style=" stroke:none;fill-rule:nonzero;fill:rgb(0%,0%,0%);fill-opacity:1;" d="M 353.171875 18.007812 C 354.636719 17.539062 355.632812 16.292969 355.632812 14.910156 C 355.632812 13.472656 354.113281 12.480469 352.398438 12.480469 C 350.628906 12.480469 349.304688 13.558594 349.304688 14.882812 C 349.304688 15.464844 349.691406 15.796875 350.1875 15.796875 C 350.738281 15.796875 351.097656 15.410156 351.097656 14.910156 C 351.097656 14.027344 350.269531 14.027344 349.992188 14.027344 C 350.546875 13.167969 351.707031 12.921875 352.34375 12.921875 C 353.0625 12.921875 354.027344 13.308594 354.027344 14.910156 C 354.027344 15.105469 354 16.128906 353.53125 16.902344 C 353.007812 17.757812 352.398438 17.785156 351.984375 17.8125 C 351.816406 17.839844 351.402344 17.867188 351.292969 17.867188 C 351.15625 17.898438 351.015625 17.898438 351.015625 18.089844 C 351.015625 18.285156 351.15625 18.285156 351.429688 18.285156 L 352.203125 18.285156 C 353.667969 18.285156 354.304688 19.472656 354.304688 21.1875 C 354.304688 23.589844 353.089844 24.089844 352.316406 24.089844 C 351.570312 24.089844 350.242188 23.785156 349.632812 22.761719 C 350.242188 22.84375 350.796875 22.457031 350.796875 21.792969 C 350.796875 21.160156 350.324219 20.800781 349.800781 20.800781 C 349.386719 20.800781 348.832031 21.046875 348.832031 21.820312 C 348.832031 23.425781 350.464844 24.585938 352.371094 24.585938 C 354.527344 24.585938 356.128906 22.984375 356.128906 21.1875 C 356.128906 19.75 355.023438 18.367188 353.171875 18.007812 Z M 353.171875 18.007812 "/>
<path style=" stroke:none;fill-rule:nonzero;fill:rgb(0%,0%,0%);fill-opacity:1;" d="M 221.03125 125.054688 C 221.03125 124.636719 221.03125 124.582031 220.617188 124.582031 C 219.539062 125.714844 217.992188 125.714844 217.4375 125.714844 L 217.4375 126.269531 C 217.769531 126.269531 218.820312 126.269531 219.734375 125.800781 L 219.734375 134.921875 C 219.734375 135.558594 219.679688 135.75 218.101562 135.75 L 217.523438 135.75 L 217.523438 136.304688 C 218.15625 136.25 219.679688 136.25 220.367188 136.25 C 221.085938 136.25 222.609375 136.25 223.214844 136.304688 L 223.214844 135.75 L 222.664062 135.75 C 221.085938 135.75 221.03125 135.558594 221.03125 134.921875 Z M 221.03125 125.054688 "/>
<path style=" stroke:none;fill-rule:nonzero;fill:rgb(0%,0%,0%);fill-opacity:1;" d="M 284.214844 134.949219 L 286.066406 133.152344 C 288.800781 130.71875 289.878906 129.753906 289.878906 128.011719 C 289.878906 125.992188 288.277344 124.582031 286.148438 124.582031 C 284.15625 124.582031 282.859375 126.214844 282.859375 127.789062 C 282.859375 128.757812 283.742188 128.757812 283.796875 128.757812 C 284.074219 128.757812 284.710938 128.5625 284.710938 127.816406 C 284.710938 127.375 284.378906 126.90625 283.769531 126.90625 C 283.632812 126.90625 283.605469 126.90625 283.550781 126.933594 C 283.9375 125.800781 284.902344 125.136719 285.898438 125.136719 C 287.503906 125.136719 288.277344 126.574219 288.277344 128.011719 C 288.277344 129.421875 287.390625 130.804688 286.425781 131.882812 L 283.050781 135.640625 C 282.859375 135.835938 282.859375 135.890625 282.859375 136.304688 L 289.382812 136.304688 L 289.878906 133.234375 L 289.4375 133.234375 C 289.324219 133.761719 289.214844 134.535156 289.050781 134.8125 C 288.910156 134.949219 287.75 134.949219 287.363281 134.949219 Z M 284.214844 134.949219 "/>
<path style=" stroke:none;fill-rule:nonzero;fill:rgb(0%,0%,0%);fill-opacity:1;" d="M 353.171875 130.113281 C 354.636719 129.640625 355.632812 128.398438 355.632812 127.015625 C 355.632812 125.578125 354.113281 124.582031 352.398438 124.582031 C 350.628906 124.582031 349.304688 125.660156 349.304688 126.988281 C 349.304688 127.570312 349.691406 127.902344 350.1875 127.902344 C 350.738281 127.902344 351.097656 127.511719 351.097656 127.015625 C 351.097656 126.132812 350.269531 126.132812 349.992188 126.132812 C 350.546875 125.273438 351.707031 125.027344 352.34375 125.027344 C 353.0625 125.027344 354.027344 125.414062 354.027344 127.015625 C 354.027344 127.210938 354 128.230469 353.53125 129.007812 C 353.007812 129.863281 352.398438 129.890625 351.984375 129.917969 C 351.816406 129.945312 351.402344 129.972656 351.292969 129.972656 C 351.15625 130 351.015625 130 351.015625 130.195312 C 351.015625 130.386719 351.15625 130.386719 351.429688 130.386719 L 352.203125 130.386719 C 353.667969 130.386719 354.304688 131.578125 354.304688 133.289062 C 354.304688 135.695312 353.089844 136.195312 352.316406 136.195312 C 351.570312 136.195312 350.242188 135.890625 349.632812 134.867188 C 350.242188 134.949219 350.796875 134.5625 350.796875 133.898438 C 350.796875 133.261719 350.324219 132.902344 349.800781 132.902344 C 349.386719 132.902344 348.832031 133.152344 348.832031 133.925781 C 348.832031 135.53125 350.464844 136.691406 352.371094 136.691406 C 354.527344 136.691406 356.128906 135.085938 356.128906 133.289062 C 356.128906 131.855469 355.023438 130.472656 353.171875 130.113281 Z M 353.171875 130.113281 "/>
<path style="fill:none;stroke-width:0.39848;stroke-linecap:butt;stroke-linejoin:miter;stroke:rgb(0%,0%,0%);stroke-opacity:1;stroke-miterlimit:10;" d="M 75.915308 57.192376 C 75.915308 33.033791 113.384676 31.933661 113.384676 8.173513 " transform="matrix(1.764358,0,0,-1.764706,86.316038,131.908226)"/>
<path style="fill:none;stroke-width:0.39848;stroke-linecap:round;stroke-linejoin:round;stroke:rgb(0%,0%,0%);stroke-opacity:1;stroke-miterlimit:10;" d="M -2.071854 2.39079 C -1.695552 0.958346 -0.849979 0.280869 0.000020564 -0.00252046 C -0.849979 -0.279268 -1.695552 -0.956745 -2.071854 -2.391403 " transform="matrix(0,1.764706,1.764358,0,286.371634,117.835901)"/>
<path style="fill:none;stroke-width:0.39848;stroke-linecap:butt;stroke-linejoin:miter;stroke:rgb(0%,0%,0%);stroke-opacity:1;stroke-miterlimit:10;" d="M 113.384676 57.192376 C 113.384676 33.033791 75.915308 31.933661 75.915308 8.173513 " transform="matrix(1.764358,0,0,-1.764706,86.316038,131.908226)"/>
<path style="fill:none;stroke-width:0.39848;stroke-linecap:round;stroke-linejoin:round;stroke:rgb(0%,0%,0%);stroke-opacity:1;stroke-miterlimit:10;" d="M -2.071854 2.392439 C -1.695552 0.955567 -0.849979 0.27809 0.000020564 -0.000871718 C -0.849979 -0.277619 -1.695552 -0.955096 -2.071854 -2.389754 " transform="matrix(0,1.764706,1.764358,0,220.259351,117.835901)"/>
<path style="fill:none;stroke-width:0.39848;stroke-linecap:butt;stroke-linejoin:miter;stroke:rgb(0%,0%,0%);stroke-opacity:1;stroke-miterlimit:10;" d="M 150.858471 57.192376 L 150.858471 8.173513 " transform="matrix(1.764358,0,0,-1.764706,86.316038,131.908226)"/>
<path style="fill:none;stroke-width:0.39848;stroke-linecap:round;stroke-linejoin:round;stroke:rgb(0%,0%,0%);stroke-opacity:1;stroke-miterlimit:10;" d="M -2.071854 2.389157 C -1.695552 0.956713 -0.849979 0.279235 0.000020564 0.000274051 C -0.849979 -0.276473 -1.695552 -0.953951 -2.071854 -2.393036 " transform="matrix(0,1.764706,1.764358,0,352.483891,117.835901)"/>
<path style=" stroke:none;fill-rule:nonzero;fill:rgb(100%,0%,0%);fill-opacity:1;" d="M 256.832031 74.554688 C 256.832031 72.613281 255.253906 71.035156 253.3125 71.035156 C 251.371094 71.035156 249.804688 72.613281 249.804688 74.554688 C 249.804688 76.496094 251.371094 78.070312 253.3125 78.070312 C 255.253906 78.070312 256.832031 76.496094 256.832031 74.554688 Z M 256.832031 74.554688 "/>
<path style=" stroke:none;fill-rule:nonzero;fill:rgb(0%,0%,0%);fill-opacity:1;" d="M 421.082031 12.949219 C 421.082031 12.535156 421.082031 12.480469 420.667969 12.480469 C 419.589844 13.613281 418.042969 13.613281 417.492188 13.613281 L 417.492188 14.164062 C 417.824219 14.164062 418.871094 14.164062 419.785156 13.695312 L 419.785156 22.816406 C 419.785156 23.453125 419.730469 23.648438 418.152344 23.648438 L 417.574219 23.648438 L 417.574219 24.199219 C 418.210938 24.144531 419.730469 24.144531 420.421875 24.144531 C 421.140625 24.144531 422.660156 24.144531 423.265625 24.199219 L 423.265625 23.648438 L 422.714844 23.648438 C 421.140625 23.648438 421.082031 23.453125 421.082031 22.816406 Z M 421.082031 12.949219 "/>
<path style=" stroke:none;fill-rule:nonzero;fill:rgb(0%,0%,0%);fill-opacity:1;" d="M 484.265625 22.84375 L 486.117188 21.046875 C 488.855469 18.617188 489.933594 17.648438 489.933594 15.90625 C 489.933594 13.886719 488.328125 12.480469 486.199219 12.480469 C 484.210938 12.480469 482.914062 14.109375 482.914062 15.683594 C 482.914062 16.652344 483.796875 16.652344 483.851562 16.652344 C 484.128906 16.652344 484.765625 16.460938 484.765625 15.710938 C 484.765625 15.269531 484.433594 14.800781 483.824219 14.800781 C 483.6875 14.800781 483.660156 14.800781 483.601562 14.828125 C 483.988281 13.695312 484.957031 13.03125 485.953125 13.03125 C 487.554688 13.03125 488.328125 14.46875 488.328125 15.90625 C 488.328125 17.316406 487.445312 18.699219 486.476562 19.777344 L 483.105469 23.535156 C 482.914062 23.730469 482.914062 23.785156 482.914062 24.199219 L 489.433594 24.199219 L 489.933594 21.132812 L 489.488281 21.132812 C 489.378906 21.65625 489.269531 22.429688 489.101562 22.707031 C 488.964844 22.84375 487.804688 22.84375 487.417969 22.84375 Z M 484.265625 22.84375 "/>
<path style=" stroke:none;fill-rule:nonzero;fill:rgb(0%,0%,0%);fill-opacity:1;" d="M 553.226562 18.007812 C 554.691406 17.539062 555.683594 16.292969 555.683594 14.910156 C 555.683594 13.472656 554.164062 12.480469 552.453125 12.480469 C 550.683594 12.480469 549.355469 13.558594 549.355469 14.882812 C 549.355469 15.464844 549.742188 15.796875 550.242188 15.796875 C 550.792969 15.796875 551.152344 15.410156 551.152344 14.910156 C 551.152344 14.027344 550.324219 14.027344 550.046875 14.027344 C 550.601562 13.167969 551.761719 12.921875 552.394531 12.921875 C 553.113281 12.921875 554.082031 13.308594 554.082031 14.910156 C 554.082031 15.105469 554.054688 16.128906 553.585938 16.902344 C 553.058594 17.757812 552.453125 17.785156 552.035156 17.8125 C 551.871094 17.839844 551.457031 17.867188 551.347656 17.867188 C 551.207031 17.898438 551.070312 17.898438 551.070312 18.089844 C 551.070312 18.285156 551.207031 18.285156 551.484375 18.285156 L 552.257812 18.285156 C 553.722656 18.285156 554.359375 19.472656 554.359375 21.1875 C 554.359375 23.589844 553.140625 24.089844 552.367188 24.089844 C 551.621094 24.089844 550.296875 23.785156 549.6875 22.761719 C 550.296875 22.84375 550.847656 22.457031 550.847656 21.792969 C 550.847656 21.160156 550.378906 20.800781 549.855469 20.800781 C 549.4375 20.800781 548.886719 21.046875 548.886719 21.820312 C 548.886719 23.425781 550.515625 24.585938 552.425781 24.585938 C 554.578125 24.585938 556.183594 22.984375 556.183594 21.1875 C 556.183594 19.75 555.078125 18.367188 553.226562 18.007812 Z M 553.226562 18.007812 "/>
<path style=" stroke:none;fill-rule:nonzero;fill:rgb(0%,0%,0%);fill-opacity:1;" d="M 421.082031 125.054688 C 421.082031 124.636719 421.082031 124.582031 420.667969 124.582031 C 419.589844 125.714844 418.042969 125.714844 417.492188 125.714844 L 417.492188 126.269531 C 417.824219 126.269531 418.871094 126.269531 419.785156 125.800781 L 419.785156 134.921875 C 419.785156 135.558594 419.730469 135.75 418.152344 135.75 L 417.574219 135.75 L 417.574219 136.304688 C 418.210938 136.25 419.730469 136.25 420.421875 136.25 C 421.140625 136.25 422.660156 136.25 423.265625 136.304688 L 423.265625 135.75 L 422.714844 135.75 C 421.140625 135.75 421.082031 135.558594 421.082031 134.921875 Z M 421.082031 125.054688 "/>
<path style=" stroke:none;fill-rule:nonzero;fill:rgb(0%,0%,0%);fill-opacity:1;" d="M 484.265625 134.949219 L 486.117188 133.152344 C 488.855469 130.71875 489.933594 129.753906 489.933594 128.011719 C 489.933594 125.992188 488.328125 124.582031 486.199219 124.582031 C 484.210938 124.582031 482.914062 126.214844 482.914062 127.789062 C 482.914062 128.757812 483.796875 128.757812 483.851562 128.757812 C 484.128906 128.757812 484.765625 128.5625 484.765625 127.816406 C 484.765625 127.375 484.433594 126.90625 483.824219 126.90625 C 483.6875 126.90625 483.660156 126.90625 483.601562 126.933594 C 483.988281 125.800781 484.957031 125.136719 485.953125 125.136719 C 487.554688 125.136719 488.328125 126.574219 488.328125 128.011719 C 488.328125 129.421875 487.445312 130.804688 486.476562 131.882812 L 483.105469 135.640625 C 482.914062 135.835938 482.914062 135.890625 482.914062 136.304688 L 489.433594 136.304688 L 489.933594 133.234375 L 489.488281 133.234375 C 489.378906 133.761719 489.269531 134.535156 489.101562 134.8125 C 488.964844 134.949219 487.804688 134.949219 487.417969 134.949219 Z M 484.265625 134.949219 "/>
<path style=" stroke:none;fill-rule:nonzero;fill:rgb(0%,0%,0%);fill-opacity:1;" d="M 553.226562 130.113281 C 554.691406 129.640625 555.683594 128.398438 555.683594 127.015625 C 555.683594 125.578125 554.164062 124.582031 552.453125 124.582031 C 550.683594 124.582031 549.355469 125.660156 549.355469 126.988281 C 549.355469 127.570312 549.742188 127.902344 550.242188 127.902344 C 550.792969 127.902344 551.152344 127.511719 551.152344 127.015625 C 551.152344 126.132812 550.324219 126.132812 550.046875 126.132812 C 550.601562 125.273438 551.761719 125.027344 552.394531 125.027344 C 553.113281 125.027344 554.082031 125.414062 554.082031 127.015625 C 554.082031 127.210938 554.054688 128.230469 553.585938 129.007812 C 553.058594 129.863281 552.453125 129.890625 552.035156 129.917969 C 551.871094 129.945312 551.457031 129.972656 551.347656 129.972656 C 551.207031 130 551.070312 130 551.070312 130.195312 C 551.070312 130.386719 551.207031 130.386719 551.484375 130.386719 L 552.257812 130.386719 C 553.722656 130.386719 554.359375 131.578125 554.359375 133.289062 C 554.359375 135.695312 553.140625 136.195312 552.367188 136.195312 C 551.621094 136.195312 550.296875 135.890625 549.6875 134.867188 C 550.296875 134.949219 550.847656 134.5625 550.847656 133.898438 C 550.847656 133.261719 550.378906 132.902344 549.855469 132.902344 C 549.4375 132.902344 548.886719 133.152344 548.886719 133.925781 C 548.886719 135.53125 550.515625 136.691406 552.425781 136.691406 C 554.578125 136.691406 556.183594 135.085938 556.183594 133.289062 C 556.183594 131.855469 555.078125 130.472656 553.226562 130.113281 Z M 553.226562 130.113281 "/>
<path style="fill:none;stroke-width:0.39848;stroke-linecap:butt;stroke-linejoin:miter;stroke:rgb(0%,0%,0%);stroke-opacity:1;stroke-miterlimit:10;" d="M 194.617751 57.192376 C 215.980427 31.736656 264.247367 41.002538 264.247367 8.173513 " transform="matrix(1.764358,0,0,-1.764706,86.316038,131.908226)"/>
<path style="fill:none;stroke-width:0.39848;stroke-linecap:round;stroke-linejoin:round;stroke:rgb(0%,0%,0%);stroke-opacity:1;stroke-miterlimit:10;" d="M -2.071854 2.390844 C -1.695552 0.9584 -0.849979 0.280923 0.000020564 0.00196156 C -0.849979 -0.279214 -1.695552 -0.956691 -2.071854 -2.391349 " transform="matrix(0,1.764706,1.764358,0,552.539508,117.835901)"/>
<path style="fill:none;stroke-width:0.39848;stroke-linecap:butt;stroke-linejoin:miter;stroke:rgb(0%,0%,0%);stroke-opacity:1;stroke-miterlimit:10;" d="M 226.773571 57.192376 L 226.773571 8.173513 " transform="matrix(1.764358,0,0,-1.764706,86.316038,131.908226)"/>
<path style="fill:none;stroke-width:0.39848;stroke-linecap:round;stroke-linejoin:round;stroke:rgb(0%,0%,0%);stroke-opacity:1;stroke-miterlimit:10;" d="M -2.071854 2.392493 C -1.695552 0.955621 -0.849979 0.278144 0.000020564 -0.00081765 C -0.849979 -0.279779 -1.695552 -0.957256 -2.071854 -2.3897 " transform="matrix(0,1.764706,1.764358,0,486.427224,117.835901)"/>
<path style="fill:none;stroke-width:0.39848;stroke-linecap:butt;stroke-linejoin:miter;stroke:rgb(0%,0%,0%);stroke-opacity:1;stroke-miterlimit:10;" d="M 264.247367 57.192376 C 264.247367 24.226111 217.018783 33.029364 196.087833 8.082758 " transform="matrix(1.764358,0,0,-1.764706,86.316038,131.908226)"/>
<path style="fill:none;stroke-width:0.39848;stroke-linecap:round;stroke-linejoin:round;stroke:rgb(0%,0%,0%);stroke-opacity:1;stroke-miterlimit:10;" d="M -2.070175 2.392391 C -1.695179 0.954864 -0.849982 0.280201 0.00171119 0.00228992 C -0.84716 -0.278485 -1.693213 -0.956826 -2.073294 -2.389259 " transform="matrix(-1.139317,1.357924,1.357656,1.139542,432.053528,117.916942)"/>
<path style=" stroke:none;fill-rule:nonzero;fill:rgb(100%,0%,0%);fill-opacity:1;" d="M 489.96875 63.304688 C 489.96875 61.363281 488.394531 59.785156 486.453125 59.785156 C 484.511719 59.785156 482.9375 61.363281 482.9375 63.304688 C 482.9375 65.246094 484.511719 66.820312 486.453125 66.820312 C 488.394531 66.820312 489.96875 65.246094 489.96875 63.304688 Z M 489.96875 63.304688 "/>
<path style=" stroke:none;fill-rule:nonzero;fill:rgb(100%,0%,0%);fill-opacity:1;" d="M 522.714844 74.6875 C 522.714844 72.742188 521.140625 71.167969 519.199219 71.167969 C 517.257812 71.167969 515.679688 72.742188 515.679688 74.6875 C 515.679688 76.628906 517.257812 78.203125 519.199219 78.203125 C 521.140625 78.203125 522.714844 76.628906 522.714844 74.6875 Z M 522.714844 74.6875 "/>
<path style=" stroke:none;fill-rule:nonzero;fill:rgb(100%,0%,0%);fill-opacity:1;" d="M 489.914062 86.398438 C 489.914062 84.457031 488.339844 82.882812 486.398438 82.882812 C 484.457031 82.882812 482.882812 84.457031 482.882812 86.398438 C 482.882812 88.339844 484.457031 89.917969 486.398438 89.917969 C 488.339844 89.917969 489.914062 88.339844 489.914062 86.398438 Z M 489.914062 86.398438 "/>
<path style=" stroke:none;fill-rule:nonzero;fill:rgb(0%,0%,0%);fill-opacity:1;" d="M 20.980469 163.015625 C 20.980469 162.601562 20.980469 162.546875 20.5625 162.546875 C 19.488281 163.679688 17.9375 163.679688 17.386719 163.679688 L 17.386719 164.234375 C 17.71875 164.234375 18.769531 164.234375 19.679688 163.765625 L 19.679688 172.886719 C 19.679688 173.523438 19.625 173.714844 18.050781 173.714844 L 17.46875 173.714844 L 17.46875 174.269531 C 18.105469 174.214844 19.625 174.214844 20.316406 174.214844 C 21.035156 174.214844 22.554688 174.214844 23.164062 174.269531 L 23.164062 173.714844 L 22.609375 173.714844 C 21.035156 173.714844 20.980469 173.523438 20.980469 172.886719 Z M 20.980469 163.015625 "/>
<path style=" stroke:none;fill-rule:nonzero;fill:rgb(0%,0%,0%);fill-opacity:1;" d="M 84.160156 172.914062 L 86.011719 171.117188 C 88.746094 168.683594 89.824219 167.714844 89.824219 165.976562 C 89.824219 163.957031 88.222656 162.546875 86.09375 162.546875 C 84.105469 162.546875 82.804688 164.179688 82.804688 165.753906 C 82.804688 166.722656 83.691406 166.722656 83.746094 166.722656 C 84.023438 166.722656 84.65625 166.527344 84.65625 165.78125 C 84.65625 165.339844 84.324219 164.871094 83.71875 164.871094 C 83.578125 164.871094 83.550781 164.871094 83.496094 164.898438 C 83.882812 163.765625 84.851562 163.101562 85.84375 163.101562 C 87.449219 163.101562 88.222656 164.539062 88.222656 165.976562 C 88.222656 167.386719 87.339844 168.765625 86.371094 169.84375 L 83 173.605469 C 82.804688 173.796875 82.804688 173.855469 82.804688 174.269531 L 89.328125 174.269531 L 89.824219 171.199219 L 89.382812 171.199219 C 89.273438 171.726562 89.164062 172.5 88.996094 172.777344 C 88.859375 172.914062 87.699219 172.914062 87.308594 172.914062 Z M 84.160156 172.914062 "/>
<path style=" stroke:none;fill-rule:nonzero;fill:rgb(0%,0%,0%);fill-opacity:1;" d="M 153.117188 168.074219 C 154.582031 167.605469 155.578125 166.363281 155.578125 164.980469 C 155.578125 163.542969 154.058594 162.546875 152.34375 162.546875 C 150.574219 162.546875 149.25 163.625 149.25 164.953125 C 149.25 165.53125 149.636719 165.863281 150.132812 165.863281 C 150.6875 165.863281 151.046875 165.476562 151.046875 164.980469 C 151.046875 164.09375 150.214844 164.09375 149.941406 164.09375 C 150.492188 163.238281 151.652344 162.988281 152.289062 162.988281 C 153.007812 162.988281 153.976562 163.375 153.976562 164.980469 C 153.976562 165.171875 153.949219 166.195312 153.476562 166.96875 C 152.953125 167.828125 152.34375 167.855469 151.929688 167.882812 C 151.765625 167.910156 151.351562 167.9375 151.238281 167.9375 C 151.101562 167.964844 150.960938 167.964844 150.960938 168.160156 C 150.960938 168.351562 151.101562 168.351562 151.378906 168.351562 L 152.152344 168.351562 C 153.617188 168.351562 154.25 169.542969 154.25 171.253906 C 154.25 173.660156 153.035156 174.15625 152.261719 174.15625 C 151.515625 174.15625 150.1875 173.855469 149.582031 172.832031 C 150.1875 172.914062 150.742188 172.527344 150.742188 171.863281 C 150.742188 171.226562 150.273438 170.867188 149.746094 170.867188 C 149.332031 170.867188 148.78125 171.117188 148.78125 171.890625 C 148.78125 173.496094 150.410156 174.65625 152.316406 174.65625 C 154.472656 174.65625 156.074219 173.050781 156.074219 171.253906 C 156.074219 169.816406 154.96875 168.433594 153.117188 168.074219 Z M 153.117188 168.074219 "/>
<path style=" stroke:none;fill-rule:nonzero;fill:rgb(0%,0%,0%);fill-opacity:1;" d="M 20.980469 275.121094 C 20.980469 274.707031 20.980469 274.652344 20.5625 274.652344 C 19.488281 275.785156 17.9375 275.785156 17.386719 275.785156 L 17.386719 276.339844 C 17.71875 276.339844 18.769531 276.339844 19.679688 275.867188 L 19.679688 284.992188 C 19.679688 285.625 19.625 285.820312 18.050781 285.820312 L 17.46875 285.820312 L 17.46875 286.371094 C 18.105469 286.316406 19.625 286.316406 20.316406 286.316406 C 21.035156 286.316406 22.554688 286.316406 23.164062 286.371094 L 23.164062 285.820312 L 22.609375 285.820312 C 21.035156 285.820312 20.980469 285.625 20.980469 284.992188 Z M 20.980469 275.121094 "/>
<path style=" stroke:none;fill-rule:nonzero;fill:rgb(0%,0%,0%);fill-opacity:1;" d="M 84.160156 285.019531 L 86.011719 283.222656 C 88.746094 280.789062 89.824219 279.820312 89.824219 278.078125 C 89.824219 276.0625 88.222656 274.652344 86.09375 274.652344 C 84.105469 274.652344 82.804688 276.28125 82.804688 277.859375 C 82.804688 278.828125 83.691406 278.828125 83.746094 278.828125 C 84.023438 278.828125 84.65625 278.632812 84.65625 277.886719 C 84.65625 277.445312 84.324219 276.972656 83.71875 276.972656 C 83.578125 276.972656 83.550781 276.972656 83.496094 277 C 83.882812 275.867188 84.851562 275.203125 85.84375 275.203125 C 87.449219 275.203125 88.222656 276.640625 88.222656 278.078125 C 88.222656 279.488281 87.339844 280.871094 86.371094 281.949219 L 83 285.710938 C 82.804688 285.902344 82.804688 285.957031 82.804688 286.371094 L 89.328125 286.371094 L 89.824219 283.304688 L 89.382812 283.304688 C 89.273438 283.828125 89.164062 284.605469 88.996094 284.878906 C 88.859375 285.019531 87.699219 285.019531 87.308594 285.019531 Z M 84.160156 285.019531 "/>
<path style=" stroke:none;fill-rule:nonzero;fill:rgb(0%,0%,0%);fill-opacity:1;" d="M 153.117188 280.179688 C 154.582031 279.710938 155.578125 278.46875 155.578125 277.085938 C 155.578125 275.648438 154.058594 274.652344 152.34375 274.652344 C 150.574219 274.652344 149.25 275.730469 149.25 277.058594 C 149.25 277.636719 149.636719 277.96875 150.132812 277.96875 C 150.6875 277.96875 151.046875 277.582031 151.046875 277.085938 C 151.046875 276.199219 150.214844 276.199219 149.941406 276.199219 C 150.492188 275.34375 151.652344 275.09375 152.289062 275.09375 C 153.007812 275.09375 153.976562 275.480469 153.976562 277.085938 C 153.976562 277.277344 153.949219 278.300781 153.476562 279.074219 C 152.953125 279.933594 152.34375 279.960938 151.929688 279.988281 C 151.765625 280.015625 151.351562 280.042969 151.238281 280.042969 C 151.101562 280.070312 150.960938 280.070312 150.960938 280.265625 C 150.960938 280.457031 151.101562 280.457031 151.378906 280.457031 L 152.152344 280.457031 C 153.617188 280.457031 154.25 281.644531 154.25 283.359375 C 154.25 285.765625 153.035156 286.261719 152.261719 286.261719 C 151.515625 286.261719 150.1875 285.957031 149.582031 284.933594 C 150.1875 285.019531 150.742188 284.632812 150.742188 283.96875 C 150.742188 283.332031 150.273438 282.972656 149.746094 282.972656 C 149.332031 282.972656 148.78125 283.222656 148.78125 283.996094 C 148.78125 285.597656 150.410156 286.761719 152.316406 286.761719 C 154.472656 286.761719 156.074219 285.15625 156.074219 283.359375 C 156.074219 281.921875 154.96875 280.539062 153.117188 280.179688 Z M 153.117188 280.179688 "/>
<path style="fill:none;stroke-width:0.39848;stroke-linecap:butt;stroke-linejoin:miter;stroke:rgb(0%,0%,0%);stroke-opacity:1;stroke-miterlimit:10;" d="M -37.473587 -27.851866 L -37.473587 -76.866302 " transform="matrix(1.764358,0,0,-1.764706,86.316038,131.908226)"/>
<path style="fill:none;stroke-width:0.39848;stroke-linecap:round;stroke-linejoin:round;stroke:rgb(0%,0%,0%);stroke-opacity:1;stroke-miterlimit:10;" d="M -2.072411 2.390719 C -1.691682 0.958275 -0.850536 0.280797 -0.000536336 -0.00259174 C -0.850536 -0.279339 -1.691682 -0.956816 -2.072411 -2.391474 " transform="matrix(0,1.764706,1.764358,0,20.203792,267.907196)"/>
<path style="fill:none;stroke-width:0.39848;stroke-linecap:butt;stroke-linejoin:miter;stroke:rgb(0%,0%,0%);stroke-opacity:1;stroke-miterlimit:10;" d="M 0.00020851 -27.851866 C 0.00020851 -52.010451 37.47179 -53.106154 37.47179 -76.866302 " transform="matrix(1.764358,0,0,-1.764706,86.316038,131.908226)"/>
<path style="fill:none;stroke-width:0.39848;stroke-linecap:round;stroke-linejoin:round;stroke:rgb(0%,0%,0%);stroke-opacity:1;stroke-miterlimit:10;" d="M -2.072411 2.391889 C -1.691682 0.955017 -0.850536 0.27754 -0.000536336 0.000792868 C -0.850536 -0.278168 -1.691682 -0.955646 -2.072411 -2.38809 " transform="matrix(0,1.764706,1.764358,0,152.428289,267.907196)"/>
<path style="fill:none;stroke-width:0.39848;stroke-linecap:butt;stroke-linejoin:miter;stroke:rgb(0%,0%,0%);stroke-opacity:1;stroke-miterlimit:10;" d="M 37.47179 -27.851866 C 37.47179 -52.010451 0.00020851 -53.106154 0.00020851 -76.866302 " transform="matrix(1.764358,0,0,-1.764706,86.316038,131.908226)"/>
<path style="fill:none;stroke-width:0.39848;stroke-linecap:round;stroke-linejoin:round;stroke:rgb(0%,0%,0%);stroke-opacity:1;stroke-miterlimit:10;" d="M -2.072411 2.389091 C -1.691682 0.956647 -0.850536 0.27917 -0.000536336 0.00020851 C -0.850536 -0.276539 -1.691682 -0.954016 -2.072411 -2.390888 " transform="matrix(0,1.764706,1.764358,0,86.316038,267.907196)"/>
<path style=" stroke:none;fill-rule:nonzero;fill:rgb(100%,0%,0%);fill-opacity:1;" d="M 122.890625 224.625 C 122.890625 222.683594 121.3125 221.105469 119.371094 221.105469 C 117.429688 221.105469 115.855469 222.683594 115.855469 224.625 C 115.855469 226.566406 117.429688 228.140625 119.371094 228.140625 C 121.3125 228.140625 122.890625 226.566406 122.890625 224.625 Z M 122.890625 224.625 "/>
<path style=" stroke:none;fill-rule:nonzero;fill:rgb(0%,0%,0%);fill-opacity:1;" d="M 221.03125 163.015625 C 221.03125 162.601562 221.03125 162.546875 220.617188 162.546875 C 219.539062 163.679688 217.992188 163.679688 217.4375 163.679688 L 217.4375 164.234375 C 217.769531 164.234375 218.820312 164.234375 219.734375 163.765625 L 219.734375 172.886719 C 219.734375 173.523438 219.679688 173.714844 218.101562 173.714844 L 217.523438 173.714844 L 217.523438 174.269531 C 218.15625 174.214844 219.679688 174.214844 220.367188 174.214844 C 221.085938 174.214844 222.609375 174.214844 223.214844 174.269531 L 223.214844 173.714844 L 222.664062 173.714844 C 221.085938 173.714844 221.03125 173.523438 221.03125 172.886719 Z M 221.03125 163.015625 "/>
<path style=" stroke:none;fill-rule:nonzero;fill:rgb(0%,0%,0%);fill-opacity:1;" d="M 284.214844 172.914062 L 286.066406 171.117188 C 288.800781 168.683594 289.878906 167.714844 289.878906 165.976562 C 289.878906 163.957031 288.277344 162.546875 286.148438 162.546875 C 284.15625 162.546875 282.859375 164.179688 282.859375 165.753906 C 282.859375 166.722656 283.742188 166.722656 283.796875 166.722656 C 284.074219 166.722656 284.710938 166.527344 284.710938 165.78125 C 284.710938 165.339844 284.378906 164.871094 283.769531 164.871094 C 283.632812 164.871094 283.605469 164.871094 283.550781 164.898438 C 283.9375 163.765625 284.902344 163.101562 285.898438 163.101562 C 287.503906 163.101562 288.277344 164.539062 288.277344 165.976562 C 288.277344 167.386719 287.390625 168.765625 286.425781 169.84375 L 283.050781 173.605469 C 282.859375 173.796875 282.859375 173.855469 282.859375 174.269531 L 289.382812 174.269531 L 289.878906 171.199219 L 289.4375 171.199219 C 289.324219 171.726562 289.214844 172.5 289.050781 172.777344 C 288.910156 172.914062 287.75 172.914062 287.363281 172.914062 Z M 284.214844 172.914062 "/>
<path style=" stroke:none;fill-rule:nonzero;fill:rgb(0%,0%,0%);fill-opacity:1;" d="M 353.171875 168.074219 C 354.636719 167.605469 355.632812 166.363281 355.632812 164.980469 C 355.632812 163.542969 354.113281 162.546875 352.398438 162.546875 C 350.628906 162.546875 349.304688 163.625 349.304688 164.953125 C 349.304688 165.53125 349.691406 165.863281 350.1875 165.863281 C 350.738281 165.863281 351.097656 165.476562 351.097656 164.980469 C 351.097656 164.09375 350.269531 164.09375 349.992188 164.09375 C 350.546875 163.238281 351.707031 162.988281 352.34375 162.988281 C 353.0625 162.988281 354.027344 163.375 354.027344 164.980469 C 354.027344 165.171875 354 166.195312 353.53125 166.96875 C 353.007812 167.828125 352.398438 167.855469 351.984375 167.882812 C 351.816406 167.910156 351.402344 167.9375 351.292969 167.9375 C 351.15625 167.964844 351.015625 167.964844 351.015625 168.160156 C 351.015625 168.351562 351.15625 168.351562 351.429688 168.351562 L 352.203125 168.351562 C 353.667969 168.351562 354.304688 169.542969 354.304688 171.253906 C 354.304688 173.660156 353.089844 174.15625 352.316406 174.15625 C 351.570312 174.15625 350.242188 173.855469 349.632812 172.832031 C 350.242188 172.914062 350.796875 172.527344 350.796875 171.863281 C 350.796875 171.226562 350.324219 170.867188 349.800781 170.867188 C 349.386719 170.867188 348.832031 171.117188 348.832031 171.890625 C 348.832031 173.496094 350.464844 174.65625 352.371094 174.65625 C 354.527344 174.65625 356.128906 173.050781 356.128906 171.253906 C 356.128906 169.816406 355.023438 168.433594 353.171875 168.074219 Z M 353.171875 168.074219 "/>
<path style=" stroke:none;fill-rule:nonzero;fill:rgb(0%,0%,0%);fill-opacity:1;" d="M 221.03125 275.121094 C 221.03125 274.707031 221.03125 274.652344 220.617188 274.652344 C 219.539062 275.785156 217.992188 275.785156 217.4375 275.785156 L 217.4375 276.339844 C 217.769531 276.339844 218.820312 276.339844 219.734375 275.867188 L 219.734375 284.992188 C 219.734375 285.625 219.679688 285.820312 218.101562 285.820312 L 217.523438 285.820312 L 217.523438 286.371094 C 218.15625 286.316406 219.679688 286.316406 220.367188 286.316406 C 221.085938 286.316406 222.609375 286.316406 223.214844 286.371094 L 223.214844 285.820312 L 222.664062 285.820312 C 221.085938 285.820312 221.03125 285.625 221.03125 284.992188 Z M 221.03125 275.121094 "/>
<path style=" stroke:none;fill-rule:nonzero;fill:rgb(0%,0%,0%);fill-opacity:1;" d="M 284.214844 285.019531 L 286.066406 283.222656 C 288.800781 280.789062 289.878906 279.820312 289.878906 278.078125 C 289.878906 276.0625 288.277344 274.652344 286.148438 274.652344 C 284.15625 274.652344 282.859375 276.28125 282.859375 277.859375 C 282.859375 278.828125 283.742188 278.828125 283.796875 278.828125 C 284.074219 278.828125 284.710938 278.632812 284.710938 277.886719 C 284.710938 277.445312 284.378906 276.972656 283.769531 276.972656 C 283.632812 276.972656 283.605469 276.972656 283.550781 277 C 283.9375 275.867188 284.902344 275.203125 285.898438 275.203125 C 287.503906 275.203125 288.277344 276.640625 288.277344 278.078125 C 288.277344 279.488281 287.390625 280.871094 286.425781 281.949219 L 283.050781 285.710938 C 282.859375 285.902344 282.859375 285.957031 282.859375 286.371094 L 289.382812 286.371094 L 289.878906 283.304688 L 289.4375 283.304688 C 289.324219 283.828125 289.214844 284.605469 289.050781 284.878906 C 288.910156 285.019531 287.75 285.019531 287.363281 285.019531 Z M 284.214844 285.019531 "/>
<path style=" stroke:none;fill-rule:nonzero;fill:rgb(0%,0%,0%);fill-opacity:1;" d="M 353.171875 280.179688 C 354.636719 279.710938 355.632812 278.46875 355.632812 277.085938 C 355.632812 275.648438 354.113281 274.652344 352.398438 274.652344 C 350.628906 274.652344 349.304688 275.730469 349.304688 277.058594 C 349.304688 277.636719 349.691406 277.96875 350.1875 277.96875 C 350.738281 277.96875 351.097656 277.582031 351.097656 277.085938 C 351.097656 276.199219 350.269531 276.199219 349.992188 276.199219 C 350.546875 275.34375 351.707031 275.09375 352.34375 275.09375 C 353.0625 275.09375 354.027344 275.480469 354.027344 277.085938 C 354.027344 277.277344 354 278.300781 353.53125 279.074219 C 353.007812 279.933594 352.398438 279.960938 351.984375 279.988281 C 351.816406 280.015625 351.402344 280.042969 351.292969 280.042969 C 351.15625 280.070312 351.015625 280.070312 351.015625 280.265625 C 351.015625 280.457031 351.15625 280.457031 351.429688 280.457031 L 352.203125 280.457031 C 353.667969 280.457031 354.304688 281.644531 354.304688 283.359375 C 354.304688 285.765625 353.089844 286.261719 352.316406 286.261719 C 351.570312 286.261719 350.242188 285.957031 349.632812 284.933594 C 350.242188 285.019531 350.796875 284.632812 350.796875 283.96875 C 350.796875 283.332031 350.324219 282.972656 349.800781 282.972656 C 349.386719 282.972656 348.832031 283.222656 348.832031 283.996094 C 348.832031 285.597656 350.464844 286.761719 352.371094 286.761719 C 354.527344 286.761719 356.128906 285.15625 356.128906 283.359375 C 356.128906 281.921875 355.023438 280.539062 353.171875 280.179688 Z M 353.171875 280.179688 "/>
<path style="fill:none;stroke-width:0.39848;stroke-linecap:butt;stroke-linejoin:miter;stroke:rgb(0%,0%,0%);stroke-opacity:1;stroke-miterlimit:10;" d="M 75.915308 -27.851866 C 75.915308 -52.010451 113.384676 -53.106154 113.384676 -76.866302 " transform="matrix(1.764358,0,0,-1.764706,86.316038,131.908226)"/>
<path style="fill:none;stroke-width:0.39848;stroke-linecap:round;stroke-linejoin:round;stroke:rgb(0%,0%,0%);stroke-opacity:1;stroke-miterlimit:10;" d="M -2.072411 2.39079 C -1.691682 0.958346 -0.850536 0.280869 -0.000536336 -0.00252046 C -0.850536 -0.279268 -1.691682 -0.956745 -2.072411 -2.391403 " transform="matrix(0,1.764706,1.764358,0,286.371634,267.907196)"/>
<path style="fill:none;stroke-width:0.39848;stroke-linecap:butt;stroke-linejoin:miter;stroke:rgb(0%,0%,0%);stroke-opacity:1;stroke-miterlimit:10;" d="M 113.384676 -27.851866 C 113.384676 -52.010451 150.858471 -53.106154 150.858471 -76.866302 " transform="matrix(1.764358,0,0,-1.764706,86.316038,131.908226)"/>
<path style="fill:none;stroke-width:0.39848;stroke-linecap:round;stroke-linejoin:round;stroke:rgb(0%,0%,0%);stroke-opacity:1;stroke-miterlimit:10;" d="M -2.072411 2.389157 C -1.691682 0.956713 -0.850536 0.279235 -0.000536336 0.000274051 C -0.850536 -0.276473 -1.691682 -0.953951 -2.072411 -2.393036 " transform="matrix(0,1.764706,1.764358,0,352.483891,267.907196)"/>
<path style="fill:none;stroke-width:0.39848;stroke-linecap:butt;stroke-linejoin:miter;stroke:rgb(0%,0%,0%);stroke-opacity:1;stroke-miterlimit:10;" d="M 150.858471 -27.851866 C 150.858471 -62.783755 75.915308 -42.328423 75.915308 -76.866302 " transform="matrix(1.764358,0,0,-1.764706,86.316038,131.908226)"/>
<path style="fill:none;stroke-width:0.39848;stroke-linecap:round;stroke-linejoin:round;stroke:rgb(0%,0%,0%);stroke-opacity:1;stroke-miterlimit:10;" d="M -2.072411 2.392439 C -1.691682 0.955567 -0.850536 0.27809 -0.000536336 -0.000871718 C -0.850536 -0.277619 -1.691682 -0.955096 -2.072411 -2.389754 " transform="matrix(0,1.764706,1.764358,0,220.259351,267.907196)"/>
<path style=" stroke:none;fill-rule:nonzero;fill:rgb(100%,0%,0%);fill-opacity:1;" d="M 264.75 230.070312 C 264.75 228.128906 263.179688 226.550781 261.238281 226.550781 C 259.296875 226.550781 257.722656 228.128906 257.722656 230.070312 C 257.722656 232.011719 259.296875 233.585938 261.238281 233.585938 C 263.179688 233.585938 264.75 232.011719 264.75 230.070312 Z M 264.75 230.070312 "/>
<path style=" stroke:none;fill-rule:nonzero;fill:rgb(100%,0%,0%);fill-opacity:1;" d="M 315.070312 219.234375 C 315.070312 217.292969 313.496094 215.714844 311.554688 215.714844 C 309.613281 215.714844 308.035156 217.292969 308.035156 219.234375 C 308.035156 221.175781 309.613281 222.75 311.554688 222.75 C 313.496094 222.75 315.070312 221.175781 315.070312 219.234375 Z M 315.070312 219.234375 "/>
<path style=" stroke:none;fill-rule:nonzero;fill:rgb(0%,0%,0%);fill-opacity:1;" d="M 421.082031 163.015625 C 421.082031 162.601562 421.082031 162.546875 420.667969 162.546875 C 419.589844 163.679688 418.042969 163.679688 417.492188 163.679688 L 417.492188 164.234375 C 417.824219 164.234375 418.871094 164.234375 419.785156 163.765625 L 419.785156 172.886719 C 419.785156 173.523438 419.730469 173.714844 418.152344 173.714844 L 417.574219 173.714844 L 417.574219 174.269531 C 418.210938 174.214844 419.730469 174.214844 420.421875 174.214844 C 421.140625 174.214844 422.660156 174.214844 423.265625 174.269531 L 423.265625 173.714844 L 422.714844 173.714844 C 421.140625 173.714844 421.082031 173.523438 421.082031 172.886719 Z M 421.082031 163.015625 "/>
<path style=" stroke:none;fill-rule:nonzero;fill:rgb(0%,0%,0%);fill-opacity:1;" d="M 484.265625 172.914062 L 486.117188 171.117188 C 488.855469 168.683594 489.933594 167.714844 489.933594 165.976562 C 489.933594 163.957031 488.328125 162.546875 486.199219 162.546875 C 484.210938 162.546875 482.914062 164.179688 482.914062 165.753906 C 482.914062 166.722656 483.796875 166.722656 483.851562 166.722656 C 484.128906 166.722656 484.765625 166.527344 484.765625 165.78125 C 484.765625 165.339844 484.433594 164.871094 483.824219 164.871094 C 483.6875 164.871094 483.660156 164.871094 483.601562 164.898438 C 483.988281 163.765625 484.957031 163.101562 485.953125 163.101562 C 487.554688 163.101562 488.328125 164.539062 488.328125 165.976562 C 488.328125 167.386719 487.445312 168.765625 486.476562 169.84375 L 483.105469 173.605469 C 482.914062 173.796875 482.914062 173.855469 482.914062 174.269531 L 489.433594 174.269531 L 489.933594 171.199219 L 489.488281 171.199219 C 489.378906 171.726562 489.269531 172.5 489.101562 172.777344 C 488.964844 172.914062 487.804688 172.914062 487.417969 172.914062 Z M 484.265625 172.914062 "/>
<path style=" stroke:none;fill-rule:nonzero;fill:rgb(0%,0%,0%);fill-opacity:1;" d="M 553.226562 168.074219 C 554.691406 167.605469 555.683594 166.363281 555.683594 164.980469 C 555.683594 163.542969 554.164062 162.546875 552.453125 162.546875 C 550.683594 162.546875 549.355469 163.625 549.355469 164.953125 C 549.355469 165.53125 549.742188 165.863281 550.242188 165.863281 C 550.792969 165.863281 551.152344 165.476562 551.152344 164.980469 C 551.152344 164.09375 550.324219 164.09375 550.046875 164.09375 C 550.601562 163.238281 551.761719 162.988281 552.394531 162.988281 C 553.113281 162.988281 554.082031 163.375 554.082031 164.980469 C 554.082031 165.171875 554.054688 166.195312 553.585938 166.96875 C 553.058594 167.828125 552.453125 167.855469 552.035156 167.882812 C 551.871094 167.910156 551.457031 167.9375 551.347656 167.9375 C 551.207031 167.964844 551.070312 167.964844 551.070312 168.160156 C 551.070312 168.351562 551.207031 168.351562 551.484375 168.351562 L 552.257812 168.351562 C 553.722656 168.351562 554.359375 169.542969 554.359375 171.253906 C 554.359375 173.660156 553.140625 174.15625 552.367188 174.15625 C 551.621094 174.15625 550.296875 173.855469 549.6875 172.832031 C 550.296875 172.914062 550.847656 172.527344 550.847656 171.863281 C 550.847656 171.226562 550.378906 170.867188 549.855469 170.867188 C 549.4375 170.867188 548.886719 171.117188 548.886719 171.890625 C 548.886719 173.496094 550.515625 174.65625 552.425781 174.65625 C 554.578125 174.65625 556.183594 173.050781 556.183594 171.253906 C 556.183594 169.816406 555.078125 168.433594 553.226562 168.074219 Z M 553.226562 168.074219 "/>
<path style=" stroke:none;fill-rule:nonzero;fill:rgb(0%,0%,0%);fill-opacity:1;" d="M 421.082031 275.121094 C 421.082031 274.707031 421.082031 274.652344 420.667969 274.652344 C 419.589844 275.785156 418.042969 275.785156 417.492188 275.785156 L 417.492188 276.339844 C 417.824219 276.339844 418.871094 276.339844 419.785156 275.867188 L 419.785156 284.992188 C 419.785156 285.625 419.730469 285.820312 418.152344 285.820312 L 417.574219 285.820312 L 417.574219 286.371094 C 418.210938 286.316406 419.730469 286.316406 420.421875 286.316406 C 421.140625 286.316406 422.660156 286.316406 423.265625 286.371094 L 423.265625 285.820312 L 422.714844 285.820312 C 421.140625 285.820312 421.082031 285.625 421.082031 284.992188 Z M 421.082031 275.121094 "/>
<path style=" stroke:none;fill-rule:nonzero;fill:rgb(0%,0%,0%);fill-opacity:1;" d="M 484.265625 285.019531 L 486.117188 283.222656 C 488.855469 280.789062 489.933594 279.820312 489.933594 278.078125 C 489.933594 276.0625 488.328125 274.652344 486.199219 274.652344 C 484.210938 274.652344 482.914062 276.28125 482.914062 277.859375 C 482.914062 278.828125 483.796875 278.828125 483.851562 278.828125 C 484.128906 278.828125 484.765625 278.632812 484.765625 277.886719 C 484.765625 277.445312 484.433594 276.972656 483.824219 276.972656 C 483.6875 276.972656 483.660156 276.972656 483.601562 277 C 483.988281 275.867188 484.957031 275.203125 485.953125 275.203125 C 487.554688 275.203125 488.328125 276.640625 488.328125 278.078125 C 488.328125 279.488281 487.445312 280.871094 486.476562 281.949219 L 483.105469 285.710938 C 482.914062 285.902344 482.914062 285.957031 482.914062 286.371094 L 489.433594 286.371094 L 489.933594 283.304688 L 489.488281 283.304688 C 489.378906 283.828125 489.269531 284.605469 489.101562 284.878906 C 488.964844 285.019531 487.804688 285.019531 487.417969 285.019531 Z M 484.265625 285.019531 "/>
<path style=" stroke:none;fill-rule:nonzero;fill:rgb(0%,0%,0%);fill-opacity:1;" d="M 553.226562 280.179688 C 554.691406 279.710938 555.683594 278.46875 555.683594 277.085938 C 555.683594 275.648438 554.164062 274.652344 552.453125 274.652344 C 550.683594 274.652344 549.355469 275.730469 549.355469 277.058594 C 549.355469 277.636719 549.742188 277.96875 550.242188 277.96875 C 550.792969 277.96875 551.152344 277.582031 551.152344 277.085938 C 551.152344 276.199219 550.324219 276.199219 550.046875 276.199219 C 550.601562 275.34375 551.761719 275.09375 552.394531 275.09375 C 553.113281 275.09375 554.082031 275.480469 554.082031 277.085938 C 554.082031 277.277344 554.054688 278.300781 553.585938 279.074219 C 553.058594 279.933594 552.453125 279.960938 552.035156 279.988281 C 551.871094 280.015625 551.457031 280.042969 551.347656 280.042969 C 551.207031 280.070312 551.070312 280.070312 551.070312 280.265625 C 551.070312 280.457031 551.207031 280.457031 551.484375 280.457031 L 552.257812 280.457031 C 553.722656 280.457031 554.359375 281.644531 554.359375 283.359375 C 554.359375 285.765625 553.140625 286.261719 552.367188 286.261719 C 551.621094 286.261719 550.296875 285.957031 549.6875 284.933594 C 550.296875 285.019531 550.847656 284.632812 550.847656 283.96875 C 550.847656 283.332031 550.378906 282.972656 549.855469 282.972656 C 549.4375 282.972656 548.886719 283.222656 548.886719 283.996094 C 548.886719 285.597656 550.515625 286.761719 552.425781 286.761719 C 554.578125 286.761719 556.183594 285.15625 556.183594 283.359375 C 556.183594 281.921875 555.078125 280.539062 553.226562 280.179688 Z M 553.226562 280.179688 "/>
<path style="fill:none;stroke-width:0.39848;stroke-linecap:butt;stroke-linejoin:miter;stroke:rgb(0%,0%,0%);stroke-opacity:1;stroke-miterlimit:10;" d="M 189.304203 -27.851866 C 189.304203 -62.783755 264.247367 -42.328423 264.247367 -76.866302 " transform="matrix(1.764358,0,0,-1.764706,86.316038,131.908226)"/>
<path style="fill:none;stroke-width:0.39848;stroke-linecap:round;stroke-linejoin:round;stroke:rgb(0%,0%,0%);stroke-opacity:1;stroke-miterlimit:10;" d="M -2.072411 2.390844 C -1.691682 0.9584 -0.850536 0.280923 -0.000536336 0.00196156 C -0.850536 -0.279214 -1.691682 -0.956691 -2.072411 -2.391349 " transform="matrix(0,1.764706,1.764358,0,552.539508,267.907196)"/>
<path style="fill:none;stroke-width:0.39848;stroke-linecap:butt;stroke-linejoin:miter;stroke:rgb(0%,0%,0%);stroke-opacity:1;stroke-miterlimit:10;" d="M 226.773571 -27.851866 C 226.773571 -52.010451 189.304203 -53.106154 189.304203 -76.866302 " transform="matrix(1.764358,0,0,-1.764706,86.316038,131.908226)"/>
<path style="fill:none;stroke-width:0.39848;stroke-linecap:round;stroke-linejoin:round;stroke:rgb(0%,0%,0%);stroke-opacity:1;stroke-miterlimit:10;" d="M -2.072411 2.389714 C -1.691682 0.955056 -0.850536 0.277578 -0.000536336 0.000831092 C -0.850536 -0.27813 -1.691682 -0.955608 -2.072411 -2.392479 " transform="matrix(0,1.764706,1.764358,0,420.31494,267.907196)"/>
<path style="fill:none;stroke-width:0.39848;stroke-linecap:butt;stroke-linejoin:miter;stroke:rgb(0%,0%,0%);stroke-opacity:1;stroke-miterlimit:10;" d="M 264.247367 -27.851866 C 264.247367 -52.010451 226.773571 -53.106154 226.773571 -76.866302 " transform="matrix(1.764358,0,0,-1.764706,86.316038,131.908226)"/>
<path style="fill:none;stroke-width:0.39848;stroke-linecap:round;stroke-linejoin:round;stroke:rgb(0%,0%,0%);stroke-opacity:1;stroke-miterlimit:10;" d="M -2.072411 2.392493 C -1.691682 0.955621 -0.850536 0.278144 -0.000536336 -0.00081765 C -0.850536 -0.279779 -1.691682 -0.957256 -2.072411 -2.3897 " transform="matrix(0,1.764706,1.764358,0,486.427224,267.907196)"/>
<path style=" stroke:none;fill-rule:nonzero;fill:rgb(100%,0%,0%);fill-opacity:1;" d="M 464.75 219.238281 C 464.75 217.296875 463.175781 215.722656 461.234375 215.722656 C 459.292969 215.722656 457.71875 217.296875 457.71875 219.238281 C 457.71875 221.183594 459.292969 222.757812 461.234375 222.757812 C 463.175781 222.757812 464.75 221.183594 464.75 219.238281 Z M 464.75 219.238281 "/>
<path style=" stroke:none;fill-rule:nonzero;fill:rgb(100%,0%,0%);fill-opacity:1;" d="M 515.085938 230.0625 C 515.085938 228.121094 513.519531 226.546875 511.578125 226.546875 C 509.636719 226.546875 508.058594 228.121094 508.058594 230.0625 C 508.058594 232.003906 509.636719 233.582031 511.578125 233.582031 C 513.519531 233.582031 515.085938 232.003906 515.085938 230.0625 Z M 515.085938 230.0625 "/>
</g>
</svg>
