<?xml version="1.0" encoding="UTF-8"?>
<svg xmlns="http://www.w3.org/2000/svg" xmlns:xlink="http://www.w3.org/1999/xlink" width="573pt" height="300pt" viewBox="0 0 573 300" version="1.1">
<g id="surface1">
<path style=" stroke:none;fill-rule:nonzero;fill:rgb(0%,0%,0%);fill-opacity:1;" d="M 20.894531 12.945312 C 20.894531 12.53125 20.894531 12.476562 20.480469 12.476562 C 19.402344 13.609375 17.855469 13.609375 17.300781 13.609375 L 17.300781 14.164062 C 17.632812 14.164062 18.683594 14.164062 19.597656 13.691406 L 19.597656 22.8125 C 19.597656 23.449219 19.539062 23.640625 17.964844 23.640625 L 17.386719 23.640625 L 17.386719 24.195312 C 18.019531 24.140625 19.539062 24.140625 20.230469 24.140625 C 20.949219 24.140625 22.46875 24.140625 23.078125 24.195312 L 23.078125 23.640625 L 22.523438 23.640625 C 20.949219 23.640625 20.894531 23.449219 20.894531 22.8125 Z M 20.894531 12.945312 "/>
<path style=" stroke:none;fill-rule:nonzero;fill:rgb(0%,0%,0%);fill-opacity:1;" d="M 84.066406 22.839844 L 85.917969 21.042969 C 88.652344 18.613281 89.730469 17.644531 89.730469 15.902344 C 89.730469 13.886719 88.125 12.476562 86 12.476562 C 84.007812 12.476562 82.710938 14.105469 82.710938 15.683594 C 82.710938 16.648438 83.59375 16.648438 83.648438 16.648438 C 83.925781 16.648438 84.5625 16.457031 84.5625 15.710938 C 84.5625 15.269531 84.230469 14.796875 83.621094 14.796875 C 83.484375 14.796875 83.457031 14.796875 83.402344 14.824219 C 83.789062 13.691406 84.753906 13.027344 85.75 13.027344 C 87.351562 13.027344 88.125 14.464844 88.125 15.902344 C 88.125 17.3125 87.242188 18.695312 86.273438 19.773438 L 82.902344 23.53125 C 82.710938 23.726562 82.710938 23.78125 82.710938 24.195312 L 89.230469 24.195312 L 89.730469 21.128906 L 89.289062 21.128906 C 89.175781 21.652344 89.066406 22.425781 88.902344 22.703125 C 88.761719 22.839844 87.601562 22.839844 87.214844 22.839844 Z M 84.066406 22.839844 "/>
<path style=" stroke:none;fill-rule:nonzero;fill:rgb(0%,0%,0%);fill-opacity:1;" d="M 153.011719 18.003906 C 154.476562 17.535156 155.46875 16.289062 155.46875 14.910156 C 155.46875 13.472656 153.949219 12.476562 152.238281 12.476562 C 150.46875 12.476562 149.144531 13.554688 149.144531 14.882812 C 149.144531 15.460938 149.53125 15.792969 150.027344 15.792969 C 150.578125 15.792969 150.9375 15.40625 150.9375 14.910156 C 150.9375 14.023438 150.109375 14.023438 149.832031 14.023438 C 150.386719 13.167969 151.546875 12.917969 152.183594 12.917969 C 152.902344 12.917969 153.867188 13.304688 153.867188 14.910156 C 153.867188 15.101562 153.839844 16.125 153.371094 16.898438 C 152.84375 17.753906 152.238281 17.78125 151.824219 17.8125 C 151.65625 17.839844 151.242188 17.867188 151.132812 17.867188 C 150.992188 17.894531 150.855469 17.894531 150.855469 18.085938 C 150.855469 18.28125 150.992188 18.28125 151.269531 18.28125 L 152.042969 18.28125 C 153.507812 18.28125 154.144531 19.46875 154.144531 21.183594 C 154.144531 23.585938 152.929688 24.085938 152.15625 24.085938 C 151.410156 24.085938 150.082031 23.78125 149.472656 22.757812 C 150.082031 22.839844 150.636719 22.453125 150.636719 21.789062 C 150.636719 21.15625 150.164062 20.796875 149.640625 20.796875 C 149.226562 20.796875 148.671875 21.042969 148.671875 21.816406 C 148.671875 23.421875 150.304688 24.582031 152.210938 24.582031 C 154.367188 24.582031 155.96875 22.980469 155.96875 21.183594 C 155.96875 19.746094 154.863281 18.363281 153.011719 18.003906 Z M 153.011719 18.003906 "/>
<path style=" stroke:none;fill-rule:nonzero;fill:rgb(0%,0%,0%);fill-opacity:1;" d="M 20.894531 125.03125 C 20.894531 124.617188 20.894531 124.5625 20.480469 124.5625 C 19.402344 125.695312 17.855469 125.695312 17.300781 125.695312 L 17.300781 126.246094 C 17.632812 126.246094 18.683594 126.246094 19.597656 125.777344 L 19.597656 134.898438 C 19.597656 135.535156 19.539062 135.726562 17.964844 135.726562 L 17.386719 135.726562 L 17.386719 136.28125 C 18.019531 136.226562 19.539062 136.226562 20.230469 136.226562 C 20.949219 136.226562 22.46875 136.226562 23.078125 136.28125 L 23.078125 135.726562 L 22.523438 135.726562 C 20.949219 135.726562 20.894531 135.535156 20.894531 134.898438 Z M 20.894531 125.03125 "/>
<path style=" stroke:none;fill-rule:nonzero;fill:rgb(0%,0%,0%);fill-opacity:1;" d="M 84.066406 134.925781 L 85.917969 133.128906 C 88.652344 130.695312 89.730469 129.730469 89.730469 127.988281 C 89.730469 125.972656 88.125 124.5625 86 124.5625 C 84.007812 124.5625 82.710938 126.191406 82.710938 127.765625 C 82.710938 128.734375 83.59375 128.734375 83.648438 128.734375 C 83.925781 128.734375 84.5625 128.542969 84.5625 127.796875 C 84.5625 127.351562 84.230469 126.882812 83.621094 126.882812 C 83.484375 126.882812 83.457031 126.882812 83.402344 126.910156 C 83.789062 125.777344 84.753906 125.113281 85.75 125.113281 C 87.351562 125.113281 88.125 126.550781 88.125 127.988281 C 88.125 129.398438 87.242188 130.78125 86.273438 131.859375 L 82.902344 135.617188 C 82.710938 135.808594 82.710938 135.867188 82.710938 136.28125 L 89.230469 136.28125 L 89.730469 133.210938 L 89.289062 133.210938 C 89.175781 133.738281 89.066406 134.511719 88.902344 134.789062 C 88.761719 134.925781 87.601562 134.925781 87.214844 134.925781 Z M 84.066406 134.925781 "/>
<path style=" stroke:none;fill-rule:nonzero;fill:rgb(0%,0%,0%);fill-opacity:1;" d="M 153.011719 130.089844 C 154.476562 129.617188 155.46875 128.375 155.46875 126.992188 C 155.46875 125.554688 153.949219 124.5625 152.238281 124.5625 C 150.46875 124.5625 149.144531 125.640625 149.144531 126.964844 C 149.144531 127.546875 149.53125 127.878906 150.027344 127.878906 C 150.578125 127.878906 150.9375 127.492188 150.9375 126.992188 C 150.9375 126.109375 150.109375 126.109375 149.832031 126.109375 C 150.386719 125.253906 151.546875 125.003906 152.183594 125.003906 C 152.902344 125.003906 153.867188 125.390625 153.867188 126.992188 C 153.867188 127.1875 153.839844 128.210938 153.371094 128.984375 C 152.84375 129.839844 152.238281 129.867188 151.824219 129.894531 C 151.65625 129.921875 151.242188 129.949219 151.132812 129.949219 C 150.992188 129.976562 150.855469 129.976562 150.855469 130.171875 C 150.855469 130.367188 150.992188 130.367188 151.269531 130.367188 L 152.042969 130.367188 C 153.507812 130.367188 154.144531 131.554688 154.144531 133.265625 C 154.144531 135.671875 152.929688 136.167969 152.15625 136.167969 C 151.410156 136.167969 150.082031 135.867188 149.472656 134.84375 C 150.082031 134.925781 150.636719 134.539062 150.636719 133.875 C 150.636719 133.238281 150.164062 132.878906 149.640625 132.878906 C 149.226562 132.878906 148.671875 133.128906 148.671875 133.902344 C 148.671875 135.507812 150.304688 136.667969 152.210938 136.667969 C 154.367188 136.667969 155.96875 135.0625 155.96875 133.265625 C 155.96875 131.832031 154.863281 130.449219 153.011719 130.089844 Z M 153.011719 130.089844 "/>
<path style="fill:none;stroke-width:0.39848;stroke-linecap:butt;stroke-linejoin:miter;stroke:rgb(0%,0%,0%);stroke-opacity:1;stroke-miterlimit:10;" d="M -37.472592 57.191486 L -37.472592 8.172809 " transform="matrix(1.764046,0,0,-1.764394,86.22056,131.884903)"/>
<path style="fill:none;stroke-width:0.39848;stroke-linecap:round;stroke-linejoin:round;stroke:rgb(0%,0%,0%);stroke-opacity:1;stroke-miterlimit:10;" d="M -2.071479 2.389922 C -1.695111 0.957225 -0.849388 0.279628 0.000761593 -0.00159743 C -0.849388 -0.280608 -1.695111 -0.958205 -2.071479 -2.390902 " transform="matrix(0,1.764394,1.764046,0,20.120005,117.815062)"/>
<path style="fill:none;stroke-width:0.39848;stroke-linecap:butt;stroke-linejoin:miter;stroke:rgb(0%,0%,0%);stroke-opacity:1;stroke-miterlimit:10;" d="M 0.00118813 57.191486 L 0.00118813 8.172809 " transform="matrix(1.764046,0,0,-1.764394,86.22056,131.884903)"/>
<path style="fill:none;stroke-width:0.39848;stroke-linecap:round;stroke-linejoin:round;stroke:rgb(0%,0%,0%);stroke-opacity:1;stroke-miterlimit:10;" d="M -2.071479 2.390493 C -1.695111 0.955581 -0.849388 0.277984 0.000761593 0.00118813 C -0.849388 -0.277822 -1.695111 -0.95542 -2.071479 -2.392546 " transform="matrix(0,1.764394,1.764046,0,86.22056,117.815062)"/>
<path style="fill:none;stroke-width:0.39848;stroke-linecap:butt;stroke-linejoin:miter;stroke:rgb(0%,0%,0%);stroke-opacity:1;stroke-miterlimit:10;" d="M 37.470539 57.191486 L 37.470539 8.172809 " transform="matrix(1.764046,0,0,-1.764394,86.22056,131.884903)"/>
<path style="fill:none;stroke-width:0.39848;stroke-linecap:round;stroke-linejoin:round;stroke:rgb(0%,0%,0%);stroke-opacity:1;stroke-miterlimit:10;" d="M -2.071479 2.393279 C -1.695111 0.956153 -0.849388 0.278556 0.000761593 -0.000455062 C -0.849388 -0.279466 -1.695111 -0.954848 -2.071479 -2.38976 " transform="matrix(0,1.764394,1.764046,0,152.321115,117.815062)"/>
<path style=" stroke:none;fill-rule:nonzero;fill:rgb(0%,0%,0%);fill-opacity:1;" d="M 220.914062 12.945312 C 220.914062 12.53125 220.914062 12.476562 220.5 12.476562 C 219.421875 13.609375 217.875 13.609375 217.320312 13.609375 L 217.320312 14.164062 C 217.652344 14.164062 218.703125 14.164062 219.613281 13.691406 L 219.613281 22.8125 C 219.613281 23.449219 219.558594 23.640625 217.984375 23.640625 L 217.402344 23.640625 L 217.402344 24.195312 C 218.039062 24.140625 219.558594 24.140625 220.25 24.140625 C 220.96875 24.140625 222.488281 24.140625 223.097656 24.195312 L 223.097656 23.640625 L 222.542969 23.640625 C 220.96875 23.640625 220.914062 23.449219 220.914062 22.8125 Z M 220.914062 12.945312 "/>
<path style=" stroke:none;fill-rule:nonzero;fill:rgb(0%,0%,0%);fill-opacity:1;" d="M 284.082031 22.839844 L 285.933594 21.042969 C 288.667969 18.613281 289.746094 17.644531 289.746094 15.902344 C 289.746094 13.886719 288.144531 12.476562 286.015625 12.476562 C 284.027344 12.476562 282.730469 14.105469 282.730469 15.683594 C 282.730469 16.648438 283.613281 16.648438 283.667969 16.648438 C 283.945312 16.648438 284.578125 16.457031 284.578125 15.710938 C 284.578125 15.269531 284.25 14.796875 283.640625 14.796875 C 283.503906 14.796875 283.476562 14.796875 283.417969 14.824219 C 283.804688 13.691406 284.773438 13.027344 285.769531 13.027344 C 287.371094 13.027344 288.144531 14.464844 288.144531 15.902344 C 288.144531 17.3125 287.261719 18.695312 286.292969 19.773438 L 282.921875 23.53125 C 282.730469 23.726562 282.730469 23.78125 282.730469 24.195312 L 289.25 24.195312 L 289.746094 21.128906 L 289.304688 21.128906 C 289.195312 21.652344 289.085938 22.425781 288.917969 22.703125 C 288.78125 22.839844 287.621094 22.839844 287.234375 22.839844 Z M 284.082031 22.839844 "/>
<path style=" stroke:none;fill-rule:nonzero;fill:rgb(0%,0%,0%);fill-opacity:1;" d="M 353.03125 18.003906 C 354.492188 17.535156 355.488281 16.289062 355.488281 14.910156 C 355.488281 13.472656 353.96875 12.476562 352.253906 12.476562 C 350.488281 12.476562 349.160156 13.554688 349.160156 14.882812 C 349.160156 15.460938 349.546875 15.792969 350.046875 15.792969 C 350.597656 15.792969 350.957031 15.40625 350.957031 14.910156 C 350.957031 14.023438 350.128906 14.023438 349.851562 14.023438 C 350.402344 13.167969 351.566406 12.917969 352.199219 12.917969 C 352.917969 12.917969 353.886719 13.304688 353.886719 14.910156 C 353.886719 15.101562 353.859375 16.125 353.386719 16.898438 C 352.863281 17.753906 352.253906 17.78125 351.839844 17.8125 C 351.675781 17.839844 351.261719 17.867188 351.148438 17.867188 C 351.011719 17.894531 350.875 17.894531 350.875 18.085938 C 350.875 18.28125 351.011719 18.28125 351.289062 18.28125 L 352.0625 18.28125 C 353.527344 18.28125 354.164062 19.46875 354.164062 21.183594 C 354.164062 23.585938 352.945312 24.085938 352.171875 24.085938 C 351.425781 24.085938 350.101562 23.78125 349.492188 22.757812 C 350.101562 22.839844 350.652344 22.453125 350.652344 21.789062 C 350.652344 21.15625 350.183594 20.796875 349.65625 20.796875 C 349.242188 20.796875 348.691406 21.042969 348.691406 21.816406 C 348.691406 23.421875 350.320312 24.582031 352.226562 24.582031 C 354.382812 24.582031 355.984375 22.980469 355.984375 21.183594 C 355.984375 19.746094 354.878906 18.363281 353.03125 18.003906 Z M 353.03125 18.003906 "/>
<path style=" stroke:none;fill-rule:nonzero;fill:rgb(0%,0%,0%);fill-opacity:1;" d="M 220.914062 125.03125 C 220.914062 124.617188 220.914062 124.5625 220.5 124.5625 C 219.421875 125.695312 217.875 125.695312 217.320312 125.695312 L 217.320312 126.246094 C 217.652344 126.246094 218.703125 126.246094 219.613281 125.777344 L 219.613281 134.898438 C 219.613281 135.535156 219.558594 135.726562 217.984375 135.726562 L 217.402344 135.726562 L 217.402344 136.28125 C 218.039062 136.226562 219.558594 136.226562 220.25 136.226562 C 220.96875 136.226562 222.488281 136.226562 223.097656 136.28125 L 223.097656 135.726562 L 222.542969 135.726562 C 220.96875 135.726562 220.914062 135.535156 220.914062 134.898438 Z M 220.914062 125.03125 "/>
<path style=" stroke:none;fill-rule:nonzero;fill:rgb(0%,0%,0%);fill-opacity:1;" d="M 284.082031 134.925781 L 285.933594 133.128906 C 288.667969 130.695312 289.746094 129.730469 289.746094 127.988281 C 289.746094 125.972656 288.144531 124.5625 286.015625 124.5625 C 284.027344 124.5625 282.730469 126.191406 282.730469 127.765625 C 282.730469 128.734375 283.613281 128.734375 283.667969 128.734375 C 283.945312 128.734375 284.578125 128.542969 284.578125 127.796875 C 284.578125 127.351562 284.25 126.882812 283.640625 126.882812 C 283.503906 126.882812 283.476562 126.882812 283.417969 126.910156 C 283.804688 125.777344 284.773438 125.113281 285.769531 125.113281 C 287.371094 125.113281 288.144531 126.550781 288.144531 127.988281 C 288.144531 129.398438 287.261719 130.78125 286.292969 131.859375 L 282.921875 135.617188 C 282.730469 135.808594 282.730469 135.867188 282.730469 136.28125 L 289.25 136.28125 L 289.746094 133.210938 L 289.304688 133.210938 C 289.195312 133.738281 289.085938 134.511719 288.917969 134.789062 C 288.78125 134.925781 287.621094 134.925781 287.234375 134.925781 Z M 284.082031 134.925781 "/>
<path style=" stroke:none;fill-rule:nonzero;fill:rgb(0%,0%,0%);fill-opacity:1;" d="M 353.03125 130.089844 C 354.492188 129.617188 355.488281 128.375 355.488281 126.992188 C 355.488281 125.554688 353.96875 124.5625 352.253906 124.5625 C 350.488281 124.5625 349.160156 125.640625 349.160156 126.964844 C 349.160156 127.546875 349.546875 127.878906 350.046875 127.878906 C 350.597656 127.878906 350.957031 127.492188 350.957031 126.992188 C 350.957031 126.109375 350.128906 126.109375 349.851562 126.109375 C 350.402344 125.253906 351.566406 125.003906 352.199219 125.003906 C 352.917969 125.003906 353.886719 125.390625 353.886719 126.992188 C 353.886719 127.1875 353.859375 128.210938 353.386719 128.984375 C 352.863281 129.839844 352.253906 129.867188 351.839844 129.894531 C 351.675781 129.921875 351.261719 129.949219 351.148438 129.949219 C 351.011719 129.976562 350.875 129.976562 350.875 130.171875 C 350.875 130.367188 351.011719 130.367188 351.289062 130.367188 L 352.0625 130.367188 C 353.527344 130.367188 354.164062 131.554688 354.164062 133.265625 C 354.164062 135.671875 352.945312 136.167969 352.171875 136.167969 C 351.425781 136.167969 350.101562 135.867188 349.492188 134.84375 C 350.101562 134.925781 350.652344 134.539062 350.652344 133.875 C 350.652344 133.238281 350.183594 132.878906 349.65625 132.878906 C 349.242188 132.878906 348.691406 133.128906 348.691406 133.902344 C 348.691406 135.507812 350.320312 136.667969 352.226562 136.667969 C 354.382812 136.667969 355.984375 135.0625 355.984375 133.265625 C 355.984375 131.832031 354.878906 130.449219 353.03125 130.089844 Z M 353.03125 130.089844 "/>
<path style="fill:none;stroke-width:0.39848;stroke-linecap:butt;stroke-linejoin:miter;stroke:rgb(0%,0%,0%);stroke-opacity:1;stroke-miterlimit:10;" d="M 75.916427 57.191486 C 75.916427 33.033056 113.385778 31.932732 113.385778 8.172809 " transform="matrix(1.764046,0,0,-1.764394,86.22056,131.884903)"/>
<path style="fill:none;stroke-width:0.39848;stroke-linecap:round;stroke-linejoin:round;stroke:rgb(0%,0%,0%);stroke-opacity:1;stroke-miterlimit:10;" d="M -2.071479 2.390104 C -1.695111 0.957407 -0.849388 0.27981 0.000761593 -0.00141514 C -0.849388 -0.280426 -1.695111 -0.958023 -2.071479 -2.39072 " transform="matrix(0,1.764394,1.764046,0,286.240778,117.815062)"/>
<path style="fill:none;stroke-width:0.39848;stroke-linecap:butt;stroke-linejoin:miter;stroke:rgb(0%,0%,0%);stroke-opacity:1;stroke-miterlimit:10;" d="M 113.385778 57.191486 C 113.385778 33.033056 75.916427 31.932732 75.916427 8.172809 " transform="matrix(1.764046,0,0,-1.764394,86.22056,131.884903)"/>
<path style="fill:none;stroke-width:0.39848;stroke-linecap:round;stroke-linejoin:round;stroke:rgb(0%,0%,0%);stroke-opacity:1;stroke-miterlimit:10;" d="M -2.071479 2.391767 C -1.695111 0.954641 -0.849388 0.277044 0.000761593 0.000248093 C -0.849388 -0.278762 -1.695111 -0.95636 -2.071479 -2.389057 " transform="matrix(0,1.764394,1.764046,0,220.140187,117.815062)"/>
<path style="fill:none;stroke-width:0.39848;stroke-linecap:butt;stroke-linejoin:miter;stroke:rgb(0%,0%,0%);stroke-opacity:1;stroke-miterlimit:10;" d="M 150.859558 57.191486 L 150.859558 8.172809 " transform="matrix(1.764046,0,0,-1.764394,86.22056,131.884903)"/>
<path style="fill:none;stroke-width:0.39848;stroke-linecap:round;stroke-linejoin:round;stroke:rgb(0%,0%,0%);stroke-opacity:1;stroke-miterlimit:10;" d="M -2.071479 2.390665 C -1.695111 0.955754 -0.849388 0.278157 0.000761593 0.00136038 C -0.849388 -0.27765 -1.695111 -0.955247 -2.071479 -2.392373 " transform="matrix(0,1.764394,1.764046,0,352.34135,117.815062)"/>
<path style=" stroke:none;fill-rule:nonzero;fill:rgb(100%,0%,0%);fill-opacity:1;" d="M 256.703125 74.542969 C 256.703125 72.597656 255.128906 71.023438 253.1875 71.023438 C 251.246094 71.023438 249.679688 72.597656 249.679688 74.542969 C 249.679688 76.484375 251.246094 78.058594 253.1875 78.058594 C 255.128906 78.058594 256.703125 76.484375 256.703125 74.542969 Z M 256.703125 74.542969 "/>
<path style=" stroke:none;fill-rule:nonzero;fill:rgb(0%,0%,0%);fill-opacity:1;" d="M 420.929688 12.945312 C 420.929688 12.53125 420.929688 12.476562 420.515625 12.476562 C 419.4375 13.609375 417.890625 13.609375 417.335938 13.609375 L 417.335938 14.164062 C 417.667969 14.164062 418.71875 14.164062 419.628906 13.691406 L 419.628906 22.8125 C 419.628906 23.449219 419.574219 23.640625 418 23.640625 L 417.417969 23.640625 L 417.417969 24.195312 C 418.054688 24.140625 419.574219 24.140625 420.265625 24.140625 C 420.984375 24.140625 422.503906 24.140625 423.113281 24.195312 L 423.113281 23.640625 L 422.558594 23.640625 C 420.984375 23.640625 420.929688 23.449219 420.929688 22.8125 Z M 420.929688 12.945312 "/>
<path style=" stroke:none;fill-rule:nonzero;fill:rgb(0%,0%,0%);fill-opacity:1;" d="M 484.101562 22.839844 L 485.953125 21.042969 C 488.6875 18.613281 489.765625 17.644531 489.765625 15.902344 C 489.765625 13.886719 488.164062 12.476562 486.035156 12.476562 C 484.046875 12.476562 482.746094 14.105469 482.746094 15.683594 C 482.746094 16.648438 483.632812 16.648438 483.6875 16.648438 C 483.960938 16.648438 484.597656 16.457031 484.597656 15.710938 C 484.597656 15.269531 484.265625 14.796875 483.660156 14.796875 C 483.519531 14.796875 483.492188 14.796875 483.4375 14.824219 C 483.824219 13.691406 484.792969 13.027344 485.785156 13.027344 C 487.390625 13.027344 488.164062 14.464844 488.164062 15.902344 C 488.164062 17.3125 487.277344 18.695312 486.3125 19.773438 L 482.941406 23.53125 C 482.746094 23.726562 482.746094 23.78125 482.746094 24.195312 L 489.269531 24.195312 L 489.765625 21.128906 L 489.324219 21.128906 C 489.210938 21.652344 489.101562 22.425781 488.9375 22.703125 C 488.796875 22.839844 487.636719 22.839844 487.25 22.839844 Z M 484.101562 22.839844 "/>
<path style=" stroke:none;fill-rule:nonzero;fill:rgb(0%,0%,0%);fill-opacity:1;" d="M 553.046875 18.003906 C 554.511719 17.535156 555.507812 16.289062 555.507812 14.910156 C 555.507812 13.472656 553.988281 12.476562 552.273438 12.476562 C 550.503906 12.476562 549.179688 13.554688 549.179688 14.882812 C 549.179688 15.460938 549.566406 15.792969 550.0625 15.792969 C 550.617188 15.792969 550.976562 15.40625 550.976562 14.910156 C 550.976562 14.023438 550.144531 14.023438 549.871094 14.023438 C 550.421875 13.167969 551.582031 12.917969 552.21875 12.917969 C 552.9375 12.917969 553.902344 13.304688 553.902344 14.910156 C 553.902344 15.101562 553.875 16.125 553.40625 16.898438 C 552.882812 17.753906 552.273438 17.78125 551.859375 17.8125 C 551.695312 17.839844 551.277344 17.867188 551.167969 17.867188 C 551.03125 17.894531 550.890625 17.894531 550.890625 18.085938 C 550.890625 18.28125 551.03125 18.28125 551.304688 18.28125 L 552.082031 18.28125 C 553.542969 18.28125 554.179688 19.46875 554.179688 21.183594 C 554.179688 23.585938 552.964844 24.085938 552.191406 24.085938 C 551.445312 24.085938 550.117188 23.78125 549.511719 22.757812 C 550.117188 22.839844 550.671875 22.453125 550.671875 21.789062 C 550.671875 21.15625 550.203125 20.796875 549.675781 20.796875 C 549.261719 20.796875 548.710938 21.042969 548.710938 21.816406 C 548.710938 23.421875 550.339844 24.582031 552.246094 24.582031 C 554.402344 24.582031 556.003906 22.980469 556.003906 21.183594 C 556.003906 19.746094 554.898438 18.363281 553.046875 18.003906 Z M 553.046875 18.003906 "/>
<path style=" stroke:none;fill-rule:nonzero;fill:rgb(0%,0%,0%);fill-opacity:1;" d="M 420.929688 125.03125 C 420.929688 124.617188 420.929688 124.5625 420.515625 124.5625 C 419.4375 125.695312 417.890625 125.695312 417.335938 125.695312 L 417.335938 126.246094 C 417.667969 126.246094 418.71875 126.246094 419.628906 125.777344 L 419.628906 134.898438 C 419.628906 135.535156 419.574219 135.726562 418 135.726562 L 417.417969 135.726562 L 417.417969 136.28125 C 418.054688 136.226562 419.574219 136.226562 420.265625 136.226562 C 420.984375 136.226562 422.503906 136.226562 423.113281 136.28125 L 423.113281 135.726562 L 422.558594 135.726562 C 420.984375 135.726562 420.929688 135.535156 420.929688 134.898438 Z M 420.929688 125.03125 "/>
<path style=" stroke:none;fill-rule:nonzero;fill:rgb(0%,0%,0%);fill-opacity:1;" d="M 484.101562 134.925781 L 485.953125 133.128906 C 488.6875 130.695312 489.765625 129.730469 489.765625 127.988281 C 489.765625 125.972656 488.164062 124.5625 486.035156 124.5625 C 484.046875 124.5625 482.746094 126.191406 482.746094 127.765625 C 482.746094 128.734375 483.632812 128.734375 483.6875 128.734375 C 483.960938 128.734375 484.597656 128.542969 484.597656 127.796875 C 484.597656 127.351562 484.265625 126.882812 483.660156 126.882812 C 483.519531 126.882812 483.492188 126.882812 483.4375 126.910156 C 483.824219 125.777344 484.792969 125.113281 485.785156 125.113281 C 487.390625 125.113281 488.164062 126.550781 488.164062 127.988281 C 488.164062 129.398438 487.277344 130.78125 486.3125 131.859375 L 482.941406 135.617188 C 482.746094 135.808594 482.746094 135.867188 482.746094 136.28125 L 489.269531 136.28125 L 489.765625 133.210938 L 489.324219 133.210938 C 489.210938 133.738281 489.101562 134.511719 488.9375 134.789062 C 488.796875 134.925781 487.636719 134.925781 487.25 134.925781 Z M 484.101562 134.925781 "/>
<path style=" stroke:none;fill-rule:nonzero;fill:rgb(0%,0%,0%);fill-opacity:1;" d="M 553.046875 130.089844 C 554.511719 129.617188 555.507812 128.375 555.507812 126.992188 C 555.507812 125.554688 553.988281 124.5625 552.273438 124.5625 C 550.503906 124.5625 549.179688 125.640625 549.179688 126.964844 C 549.179688 127.546875 549.566406 127.878906 550.0625 127.878906 C 550.617188 127.878906 550.976562 127.492188 550.976562 126.992188 C 550.976562 126.109375 550.144531 126.109375 549.871094 126.109375 C 550.421875 125.253906 551.582031 125.003906 552.21875 125.003906 C 552.9375 125.003906 553.902344 125.390625 553.902344 126.992188 C 553.902344 127.1875 553.875 128.210938 553.40625 128.984375 C 552.882812 129.839844 552.273438 129.867188 551.859375 129.894531 C 551.695312 129.921875 551.277344 129.949219 551.167969 129.949219 C 551.03125 129.976562 550.890625 129.976562 550.890625 130.171875 C 550.890625 130.367188 551.03125 130.367188 551.304688 130.367188 L 552.082031 130.367188 C 553.542969 130.367188 554.179688 131.554688 554.179688 133.265625 C 554.179688 135.671875 552.964844 136.167969 552.191406 136.167969 C 551.445312 136.167969 550.117188 135.867188 549.511719 134.84375 C 550.117188 134.925781 550.671875 134.539062 550.671875 133.875 C 550.671875 133.238281 550.203125 132.878906 549.675781 132.878906 C 549.261719 132.878906 548.710938 133.128906 548.710938 133.902344 C 548.710938 135.507812 550.339844 136.667969 552.246094 136.667969 C 554.402344 136.667969 556.003906 135.0625 556.003906 133.265625 C 556.003906 131.832031 554.898438 130.449219 553.046875 130.089844 Z M 553.046875 130.089844 "/>
<path style="fill:none;stroke-width:0.39848;stroke-linecap:butt;stroke-linejoin:miter;stroke:rgb(0%,0%,0%);stroke-opacity:1;stroke-miterlimit:10;" d="M 194.617719 57.191486 C 215.979744 31.737905 264.246362 41.003212 264.246362 8.172809 " transform="matrix(1.764046,0,0,-1.764394,86.22056,131.884903)"/>
<path style="fill:none;stroke-width:0.39848;stroke-linecap:round;stroke-linejoin:round;stroke:rgb(0%,0%,0%);stroke-opacity:1;stroke-miterlimit:10;" d="M -2.071479 2.390276 C -1.695111 0.957579 -0.849388 0.279982 0.000761593 0.000971483 C -0.849388 -0.280253 -1.695111 -0.957851 -2.071479 -2.390548 " transform="matrix(0,1.764394,1.764046,0,552.361568,117.815062)"/>
<path style="fill:none;stroke-width:0.39848;stroke-linecap:butt;stroke-linejoin:miter;stroke:rgb(0%,0%,0%);stroke-opacity:1;stroke-miterlimit:10;" d="M 226.774797 57.191486 L 226.774797 8.172809 " transform="matrix(1.764046,0,0,-1.764394,86.22056,131.884903)"/>
<path style="fill:none;stroke-width:0.39848;stroke-linecap:round;stroke-linejoin:round;stroke:rgb(0%,0%,0%);stroke-opacity:1;stroke-miterlimit:10;" d="M -2.071479 2.39193 C -1.695111 0.954804 -0.849388 0.277207 0.000761593 -0.00180404 C -0.849388 -0.2786 -1.695111 -0.956197 -2.071479 -2.388895 " transform="matrix(0,1.764394,1.764046,0,486.260995,117.815062)"/>
<path style="fill:none;stroke-width:0.39848;stroke-linecap:butt;stroke-linejoin:miter;stroke:rgb(0%,0%,0%);stroke-opacity:1;stroke-miterlimit:10;" d="M 264.246362 57.191486 C 264.246362 24.226033 217.018284 33.028628 196.085846 8.084252 " transform="matrix(1.764046,0,0,-1.764394,86.22056,131.884903)"/>
<path style="fill:none;stroke-width:0.39848;stroke-linecap:round;stroke-linejoin:round;stroke:rgb(0%,0%,0%);stroke-opacity:1;stroke-miterlimit:10;" d="M -2.070377 2.390355 C -1.695044 0.955679 -0.849698 0.280897 0.000458304 0.00151978 C -0.848563 -0.279304 -1.693078 -0.956349 -2.073225 -2.389035 " transform="matrix(-1.139115,1.357684,1.357416,1.13934,431.896897,117.896084)"/>
<path style=" stroke:none;fill-rule:nonzero;fill:rgb(100%,0%,0%);fill-opacity:1;" d="M 489.804688 63.292969 C 489.804688 61.351562 488.230469 59.773438 486.289062 59.773438 C 484.347656 59.773438 482.769531 61.351562 482.769531 63.292969 C 482.769531 65.234375 484.347656 66.808594 486.289062 66.808594 C 488.230469 66.808594 489.804688 65.234375 489.804688 63.292969 Z M 489.804688 63.292969 "/>
<path style=" stroke:none;fill-rule:nonzero;fill:rgb(100%,0%,0%);fill-opacity:1;" d="M 522.542969 74.671875 C 522.542969 72.730469 520.96875 71.15625 519.027344 71.15625 C 517.085938 71.15625 515.507812 72.730469 515.507812 74.671875 C 515.507812 76.613281 517.085938 78.191406 519.027344 78.191406 C 520.96875 78.191406 522.542969 76.613281 522.542969 74.671875 Z M 522.542969 74.671875 "/>
<path style=" stroke:none;fill-rule:nonzero;fill:rgb(100%,0%,0%);fill-opacity:1;" d="M 489.75 86.382812 C 489.75 84.441406 488.171875 82.867188 486.230469 82.867188 C 484.289062 82.867188 482.714844 84.441406 482.714844 86.382812 C 482.714844 88.324219 484.289062 89.902344 486.230469 89.902344 C 488.171875 89.902344 489.75 88.324219 489.75 86.382812 Z M 489.75 86.382812 "/>
<path style=" stroke:none;fill-rule:nonzero;fill:rgb(0%,0%,0%);fill-opacity:1;" d="M 20.894531 162.988281 C 20.894531 162.574219 20.894531 162.519531 20.480469 162.519531 C 19.402344 163.652344 17.855469 163.652344 17.300781 163.652344 L 17.300781 164.203125 C 17.632812 164.203125 18.683594 164.203125 19.597656 163.734375 L 19.597656 172.855469 C 19.597656 173.492188 19.539062 173.683594 17.964844 173.683594 L 17.386719 173.683594 L 17.386719 174.238281 C 18.019531 174.183594 19.539062 174.183594 20.230469 174.183594 C 20.949219 174.183594 22.46875 174.183594 23.078125 174.238281 L 23.078125 173.683594 L 22.523438 173.683594 C 20.949219 173.683594 20.894531 173.492188 20.894531 172.855469 Z M 20.894531 162.988281 "/>
<path style=" stroke:none;fill-rule:nonzero;fill:rgb(0%,0%,0%);fill-opacity:1;" d="M 84.066406 172.882812 L 85.917969 171.085938 C 88.652344 168.65625 89.730469 167.6875 89.730469 165.945312 C 89.730469 163.929688 88.125 162.519531 86 162.519531 C 84.007812 162.519531 82.710938 164.148438 82.710938 165.726562 C 82.710938 166.691406 83.59375 166.691406 83.648438 166.691406 C 83.925781 166.691406 84.5625 166.5 84.5625 165.753906 C 84.5625 165.308594 84.230469 164.839844 83.621094 164.839844 C 83.484375 164.839844 83.457031 164.839844 83.402344 164.867188 C 83.789062 163.734375 84.753906 163.070312 85.75 163.070312 C 87.351562 163.070312 88.125 164.507812 88.125 165.945312 C 88.125 167.355469 87.242188 168.738281 86.273438 169.816406 L 82.902344 173.574219 C 82.710938 173.765625 82.710938 173.824219 82.710938 174.238281 L 89.230469 174.238281 L 89.730469 171.167969 L 89.289062 171.167969 C 89.175781 171.695312 89.066406 172.46875 88.902344 172.746094 C 88.761719 172.882812 87.601562 172.882812 87.214844 172.882812 Z M 84.066406 172.882812 "/>
<path style=" stroke:none;fill-rule:nonzero;fill:rgb(0%,0%,0%);fill-opacity:1;" d="M 153.011719 168.046875 C 154.476562 167.578125 155.46875 166.332031 155.46875 164.949219 C 155.46875 163.511719 153.949219 162.519531 152.238281 162.519531 C 150.46875 162.519531 149.144531 163.597656 149.144531 164.921875 C 149.144531 165.503906 149.53125 165.835938 150.027344 165.835938 C 150.578125 165.835938 150.9375 165.449219 150.9375 164.949219 C 150.9375 164.066406 150.109375 164.066406 149.832031 164.066406 C 150.386719 163.210938 151.546875 162.960938 152.183594 162.960938 C 152.902344 162.960938 153.867188 163.347656 153.867188 164.949219 C 153.867188 165.144531 153.839844 166.167969 153.371094 166.941406 C 152.84375 167.796875 152.238281 167.824219 151.824219 167.851562 C 151.65625 167.878906 151.242188 167.90625 151.132812 167.90625 C 150.992188 167.9375 150.855469 167.9375 150.855469 168.128906 C 150.855469 168.324219 150.992188 168.324219 151.269531 168.324219 L 152.042969 168.324219 C 153.507812 168.324219 154.144531 169.511719 154.144531 171.226562 C 154.144531 173.628906 152.929688 174.125 152.15625 174.125 C 151.410156 174.125 150.082031 173.824219 149.472656 172.800781 C 150.082031 172.882812 150.636719 172.496094 150.636719 171.832031 C 150.636719 171.195312 150.164062 170.835938 149.640625 170.835938 C 149.226562 170.835938 148.671875 171.085938 148.671875 171.859375 C 148.671875 173.464844 150.304688 174.625 152.210938 174.625 C 154.367188 174.625 155.96875 173.019531 155.96875 171.226562 C 155.96875 169.789062 154.863281 168.40625 153.011719 168.046875 Z M 153.011719 168.046875 "/>
<path style=" stroke:none;fill-rule:nonzero;fill:rgb(0%,0%,0%);fill-opacity:1;" d="M 20.894531 275.074219 C 20.894531 274.660156 20.894531 274.605469 20.480469 274.605469 C 19.402344 275.738281 17.855469 275.738281 17.300781 275.738281 L 17.300781 276.289062 C 17.632812 276.289062 18.683594 276.289062 19.597656 275.820312 L 19.597656 284.941406 C 19.597656 285.574219 19.539062 285.769531 17.964844 285.769531 L 17.386719 285.769531 L 17.386719 286.324219 C 18.019531 286.265625 19.539062 286.265625 20.230469 286.265625 C 20.949219 286.265625 22.46875 286.265625 23.078125 286.324219 L 23.078125 285.769531 L 22.523438 285.769531 C 20.949219 285.769531 20.894531 285.574219 20.894531 284.941406 Z M 20.894531 275.074219 "/>
<path style=" stroke:none;fill-rule:nonzero;fill:rgb(0%,0%,0%);fill-opacity:1;" d="M 84.066406 284.96875 L 85.917969 283.171875 C 88.652344 280.738281 89.730469 279.773438 89.730469 278.03125 C 89.730469 276.011719 88.125 274.605469 86 274.605469 C 84.007812 274.605469 82.710938 276.234375 82.710938 277.808594 C 82.710938 278.777344 83.59375 278.777344 83.648438 278.777344 C 83.925781 278.777344 84.5625 278.582031 84.5625 277.835938 C 84.5625 277.394531 84.230469 276.925781 83.621094 276.925781 C 83.484375 276.925781 83.457031 276.925781 83.402344 276.953125 C 83.789062 275.820312 84.753906 275.15625 85.75 275.15625 C 87.351562 275.15625 88.125 276.59375 88.125 278.03125 C 88.125 279.441406 87.242188 280.820312 86.273438 281.898438 L 82.902344 285.660156 C 82.710938 285.851562 82.710938 285.90625 82.710938 286.324219 L 89.230469 286.324219 L 89.730469 283.253906 L 89.289062 283.253906 C 89.175781 283.78125 89.066406 284.554688 88.902344 284.828125 C 88.761719 284.96875 87.601562 284.96875 87.214844 284.96875 Z M 84.066406 284.96875 "/>
<path style=" stroke:none;fill-rule:nonzero;fill:rgb(0%,0%,0%);fill-opacity:1;" d="M 153.011719 280.132812 C 154.476562 279.660156 155.46875 278.417969 155.46875 277.035156 C 155.46875 275.597656 153.949219 274.605469 152.238281 274.605469 C 150.46875 274.605469 149.144531 275.679688 149.144531 277.007812 C 149.144531 277.589844 149.53125 277.921875 150.027344 277.921875 C 150.578125 277.921875 150.9375 277.535156 150.9375 277.035156 C 150.9375 276.152344 150.109375 276.152344 149.832031 276.152344 C 150.386719 275.292969 151.546875 275.046875 152.183594 275.046875 C 152.902344 275.046875 153.867188 275.433594 153.867188 277.035156 C 153.867188 277.230469 153.839844 278.25 153.371094 279.027344 C 152.84375 279.882812 152.238281 279.910156 151.824219 279.9375 C 151.65625 279.964844 151.242188 279.992188 151.132812 279.992188 C 150.992188 280.019531 150.855469 280.019531 150.855469 280.214844 C 150.855469 280.40625 150.992188 280.40625 151.269531 280.40625 L 152.042969 280.40625 C 153.507812 280.40625 154.144531 281.597656 154.144531 283.308594 C 154.144531 285.714844 152.929688 286.210938 152.15625 286.210938 C 151.410156 286.210938 150.082031 285.90625 149.472656 284.886719 C 150.082031 284.96875 150.636719 284.582031 150.636719 283.917969 C 150.636719 283.28125 150.164062 282.921875 149.640625 282.921875 C 149.226562 282.921875 148.671875 283.171875 148.671875 283.945312 C 148.671875 285.546875 150.304688 286.710938 152.210938 286.710938 C 154.367188 286.710938 155.96875 285.105469 155.96875 283.308594 C 155.96875 281.871094 154.863281 280.492188 153.011719 280.132812 Z M 153.011719 280.132812 "/>
<path style="fill:none;stroke-width:0.39848;stroke-linecap:butt;stroke-linejoin:miter;stroke:rgb(0%,0%,0%);stroke-opacity:1;stroke-miterlimit:10;" d="M -37.472592 -27.852298 L -37.472592 -76.866547 " transform="matrix(1.764046,0,0,-1.764394,86.22056,131.884903)"/>
<path style="fill:none;stroke-width:0.39848;stroke-linecap:round;stroke-linejoin:round;stroke:rgb(0%,0%,0%);stroke-opacity:1;stroke-miterlimit:10;" d="M -2.072498 2.389922 C -1.691702 0.957225 -0.850407 0.279628 -0.000257317 -0.00159743 C -0.850407 -0.280608 -1.691702 -0.958205 -2.072498 -2.390902 " transform="matrix(0,1.764394,1.764046,0,20.120005,267.859829)"/>
<path style="fill:none;stroke-width:0.39848;stroke-linecap:butt;stroke-linejoin:miter;stroke:rgb(0%,0%,0%);stroke-opacity:1;stroke-miterlimit:10;" d="M 0.00118813 -27.852298 C 0.00118813 -52.010728 37.470539 -53.106625 37.470539 -76.866547 " transform="matrix(1.764046,0,0,-1.764394,86.22056,131.884903)"/>
<path style="fill:none;stroke-width:0.39848;stroke-linecap:round;stroke-linejoin:round;stroke:rgb(0%,0%,0%);stroke-opacity:1;stroke-miterlimit:10;" d="M -2.072498 2.393279 C -1.691702 0.956153 -0.850407 0.278556 -0.000257317 -0.000455062 C -0.850407 -0.279466 -1.691702 -0.954848 -2.072498 -2.38976 " transform="matrix(0,1.764394,1.764046,0,152.321115,267.859829)"/>
<path style="fill:none;stroke-width:0.39848;stroke-linecap:butt;stroke-linejoin:miter;stroke:rgb(0%,0%,0%);stroke-opacity:1;stroke-miterlimit:10;" d="M 37.470539 -27.852298 C 37.470539 -52.010728 0.00118813 -53.106625 0.00118813 -76.866547 " transform="matrix(1.764046,0,0,-1.764394,86.22056,131.884903)"/>
<path style="fill:none;stroke-width:0.39848;stroke-linecap:round;stroke-linejoin:round;stroke:rgb(0%,0%,0%);stroke-opacity:1;stroke-miterlimit:10;" d="M -2.072498 2.390493 C -1.691702 0.955581 -0.850407 0.277984 -0.000257317 0.00118813 C -0.850407 -0.277822 -1.691702 -0.95542 -2.072498 -2.392546 " transform="matrix(0,1.764394,1.764046,0,86.22056,267.859829)"/>
<path style=" stroke:none;fill-rule:nonzero;fill:rgb(100%,0%,0%);fill-opacity:1;" d="M 122.789062 224.585938 C 122.789062 222.640625 121.210938 221.066406 119.269531 221.066406 C 117.332031 221.066406 115.753906 222.640625 115.753906 224.585938 C 115.753906 226.527344 117.332031 228.101562 119.269531 228.101562 C 121.210938 228.101562 122.789062 226.527344 122.789062 224.585938 Z M 122.789062 224.585938 "/>
<path style=" stroke:none;fill-rule:nonzero;fill:rgb(0%,0%,0%);fill-opacity:1;" d="M 220.914062 162.988281 C 220.914062 162.574219 220.914062 162.519531 220.5 162.519531 C 219.421875 163.652344 217.875 163.652344 217.320312 163.652344 L 217.320312 164.203125 C 217.652344 164.203125 218.703125 164.203125 219.613281 163.734375 L 219.613281 172.855469 C 219.613281 173.492188 219.558594 173.683594 217.984375 173.683594 L 217.402344 173.683594 L 217.402344 174.238281 C 218.039062 174.183594 219.558594 174.183594 220.25 174.183594 C 220.96875 174.183594 222.488281 174.183594 223.097656 174.238281 L 223.097656 173.683594 L 222.542969 173.683594 C 220.96875 173.683594 220.914062 173.492188 220.914062 172.855469 Z M 220.914062 162.988281 "/>
<path style=" stroke:none;fill-rule:nonzero;fill:rgb(0%,0%,0%);fill-opacity:1;" d="M 284.082031 172.882812 L 285.933594 171.085938 C 288.667969 168.65625 289.746094 167.6875 289.746094 165.945312 C 289.746094 163.929688 288.144531 162.519531 286.015625 162.519531 C 284.027344 162.519531 282.730469 164.148438 282.730469 165.726562 C 282.730469 166.691406 283.613281 166.691406 283.667969 166.691406 C 283.945312 166.691406 284.578125 166.5 284.578125 165.753906 C 284.578125 165.308594 284.25 164.839844 283.640625 164.839844 C 283.503906 164.839844 283.476562 164.839844 283.417969 164.867188 C 283.804688 163.734375 284.773438 163.070312 285.769531 163.070312 C 287.371094 163.070312 288.144531 164.507812 288.144531 165.945312 C 288.144531 167.355469 287.261719 168.738281 286.292969 169.816406 L 282.921875 173.574219 C 282.730469 173.765625 282.730469 173.824219 282.730469 174.238281 L 289.25 174.238281 L 289.746094 171.167969 L 289.304688 171.167969 C 289.195312 171.695312 289.085938 172.46875 288.917969 172.746094 C 288.78125 172.882812 287.621094 172.882812 287.234375 172.882812 Z M 284.082031 172.882812 "/>
<path style=" stroke:none;fill-rule:nonzero;fill:rgb(0%,0%,0%);fill-opacity:1;" d="M 353.03125 168.046875 C 354.492188 167.578125 355.488281 166.332031 355.488281 164.949219 C 355.488281 163.511719 353.96875 162.519531 352.253906 162.519531 C 350.488281 162.519531 349.160156 163.597656 349.160156 164.921875 C 349.160156 165.503906 349.546875 165.835938 350.046875 165.835938 C 350.597656 165.835938 350.957031 165.449219 350.957031 164.949219 C 350.957031 164.066406 350.128906 164.066406 349.851562 164.066406 C 350.402344 163.210938 351.566406 162.960938 352.199219 162.960938 C 352.917969 162.960938 353.886719 163.347656 353.886719 164.949219 C 353.886719 165.144531 353.859375 166.167969 353.386719 166.941406 C 352.863281 167.796875 352.253906 167.824219 351.839844 167.851562 C 351.675781 167.878906 351.261719 167.90625 351.148438 167.90625 C 351.011719 167.9375 350.875 167.9375 350.875 168.128906 C 350.875 168.324219 351.011719 168.324219 351.289062 168.324219 L 352.0625 168.324219 C 353.527344 168.324219 354.164062 169.511719 354.164062 171.226562 C 354.164062 173.628906 352.945312 174.125 352.171875 174.125 C 351.425781 174.125 350.101562 173.824219 349.492188 172.800781 C 350.101562 172.882812 350.652344 172.496094 350.652344 171.832031 C 350.652344 171.195312 350.183594 170.835938 349.65625 170.835938 C 349.242188 170.835938 348.691406 171.085938 348.691406 171.859375 C 348.691406 173.464844 350.320312 174.625 352.226562 174.625 C 354.382812 174.625 355.984375 173.019531 355.984375 171.226562 C 355.984375 169.789062 354.878906 168.40625 353.03125 168.046875 Z M 353.03125 168.046875 "/>
<path style=" stroke:none;fill-rule:nonzero;fill:rgb(0%,0%,0%);fill-opacity:1;" d="M 220.914062 275.074219 C 220.914062 274.660156 220.914062 274.605469 220.5 274.605469 C 219.421875 275.738281 217.875 275.738281 217.320312 275.738281 L 217.320312 276.289062 C 217.652344 276.289062 218.703125 276.289062 219.613281 275.820312 L 219.613281 284.941406 C 219.613281 285.574219 219.558594 285.769531 217.984375 285.769531 L 217.402344 285.769531 L 217.402344 286.324219 C 218.039062 286.265625 219.558594 286.265625 220.25 286.265625 C 220.96875 286.265625 222.488281 286.265625 223.097656 286.324219 L 223.097656 285.769531 L 222.542969 285.769531 C 220.96875 285.769531 220.914062 285.574219 220.914062 284.941406 Z M 220.914062 275.074219 "/>
<path style=" stroke:none;fill-rule:nonzero;fill:rgb(0%,0%,0%);fill-opacity:1;" d="M 284.082031 284.96875 L 285.933594 283.171875 C 288.667969 280.738281 289.746094 279.773438 289.746094 278.03125 C 289.746094 276.011719 288.144531 274.605469 286.015625 274.605469 C 284.027344 274.605469 282.730469 276.234375 282.730469 277.808594 C 282.730469 278.777344 283.613281 278.777344 283.667969 278.777344 C 283.945312 278.777344 284.578125 278.582031 284.578125 277.835938 C 284.578125 277.394531 284.25 276.925781 283.640625 276.925781 C 283.503906 276.925781 283.476562 276.925781 283.417969 276.953125 C 283.804688 275.820312 284.773438 275.15625 285.769531 275.15625 C 287.371094 275.15625 288.144531 276.59375 288.144531 278.03125 C 288.144531 279.441406 287.261719 280.820312 286.292969 281.898438 L 282.921875 285.660156 C 282.730469 285.851562 282.730469 285.90625 282.730469 286.324219 L 289.25 286.324219 L 289.746094 283.253906 L 289.304688 283.253906 C 289.195312 283.78125 289.085938 284.554688 288.917969 284.828125 C 288.78125 284.96875 287.621094 284.96875 287.234375 284.96875 Z M 284.082031 284.96875 "/>
<path style=" stroke:none;fill-rule:nonzero;fill:rgb(0%,0%,0%);fill-opacity:1;" d="M 353.03125 280.132812 C 354.492188 279.660156 355.488281 278.417969 355.488281 277.035156 C 355.488281 275.597656 353.96875 274.605469 352.253906 274.605469 C 350.488281 274.605469 349.160156 275.679688 349.160156 277.007812 C 349.160156 277.589844 349.546875 277.921875 350.046875 277.921875 C 350.597656 277.921875 350.957031 277.535156 350.957031 277.035156 C 350.957031 276.152344 350.128906 276.152344 349.851562 276.152344 C 350.402344 275.292969 351.566406 275.046875 352.199219 275.046875 C 352.917969 275.046875 353.886719 275.433594 353.886719 277.035156 C 353.886719 277.230469 353.859375 278.25 353.386719 279.027344 C 352.863281 279.882812 352.253906 279.910156 351.839844 279.9375 C 351.675781 279.964844 351.261719 279.992188 351.148438 279.992188 C 351.011719 280.019531 350.875 280.019531 350.875 280.214844 C 350.875 280.40625 351.011719 280.40625 351.289062 280.40625 L 352.0625 280.40625 C 353.527344 280.40625 354.164062 281.597656 354.164062 283.308594 C 354.164062 285.714844 352.945312 286.210938 352.171875 286.210938 C 351.425781 286.210938 350.101562 285.90625 349.492188 284.886719 C 350.101562 284.96875 350.652344 284.582031 350.652344 283.917969 C 350.652344 283.28125 350.183594 282.921875 349.65625 282.921875 C 349.242188 282.921875 348.691406 283.171875 348.691406 283.945312 C 348.691406 285.546875 350.320312 286.710938 352.226562 286.710938 C 354.382812 286.710938 355.984375 285.105469 355.984375 283.308594 C 355.984375 281.871094 354.878906 280.492188 353.03125 280.132812 Z M 353.03125 280.132812 "/>
<path style="fill:none;stroke-width:0.39848;stroke-linecap:butt;stroke-linejoin:miter;stroke:rgb(0%,0%,0%);stroke-opacity:1;stroke-miterlimit:10;" d="M 75.916427 -27.852298 C 75.916427 -52.010728 113.385778 -53.106625 113.385778 -76.866547 " transform="matrix(1.764046,0,0,-1.764394,86.22056,131.884903)"/>
<path style="fill:none;stroke-width:0.39848;stroke-linecap:round;stroke-linejoin:round;stroke:rgb(0%,0%,0%);stroke-opacity:1;stroke-miterlimit:10;" d="M -2.072498 2.390104 C -1.691702 0.957407 -0.850407 0.27981 -0.000257317 -0.00141514 C -0.850407 -0.280426 -1.691702 -0.958023 -2.072498 -2.39072 " transform="matrix(0,1.764394,1.764046,0,286.240778,267.859829)"/>
<path style="fill:none;stroke-width:0.39848;stroke-linecap:butt;stroke-linejoin:miter;stroke:rgb(0%,0%,0%);stroke-opacity:1;stroke-miterlimit:10;" d="M 113.385778 -27.852298 C 113.385778 -52.010728 150.859558 -53.106625 150.859558 -76.866547 " transform="matrix(1.764046,0,0,-1.764394,86.22056,131.884903)"/>
<path style="fill:none;stroke-width:0.39848;stroke-linecap:round;stroke-linejoin:round;stroke:rgb(0%,0%,0%);stroke-opacity:1;stroke-miterlimit:10;" d="M -2.072498 2.390665 C -1.691702 0.955754 -0.850407 0.278157 -0.000257317 0.00136038 C -0.850407 -0.27765 -1.691702 -0.955247 -2.072498 -2.392373 " transform="matrix(0,1.764394,1.764046,0,352.34135,267.859829)"/>
<path style="fill:none;stroke-width:0.39848;stroke-linecap:butt;stroke-linejoin:miter;stroke:rgb(0%,0%,0%);stroke-opacity:1;stroke-miterlimit:10;" d="M 150.859558 -27.852298 C 150.859558 -62.783723 75.916427 -42.329202 75.916427 -76.866547 " transform="matrix(1.764046,0,0,-1.764394,86.22056,131.884903)"/>
<path style="fill:none;stroke-width:0.39848;stroke-linecap:round;stroke-linejoin:round;stroke:rgb(0%,0%,0%);stroke-opacity:1;stroke-miterlimit:10;" d="M -2.072498 2.391767 C -1.691702 0.954641 -0.850407 0.277044 -0.000257317 0.000248093 C -0.850407 -0.278762 -1.691702 -0.95636 -2.072498 -2.389057 " transform="matrix(0,1.764394,1.764046,0,220.140187,267.859829)"/>
<path style=" stroke:none;fill-rule:nonzero;fill:rgb(100%,0%,0%);fill-opacity:1;" d="M 264.621094 230.027344 C 264.621094 228.085938 263.054688 226.511719 261.113281 226.511719 C 259.171875 226.511719 257.597656 228.085938 257.597656 230.027344 C 257.597656 231.96875 259.171875 233.546875 261.113281 233.546875 C 263.054688 233.546875 264.621094 231.96875 264.621094 230.027344 Z M 264.621094 230.027344 "/>
<path style=" stroke:none;fill-rule:nonzero;fill:rgb(100%,0%,0%);fill-opacity:1;" d="M 314.933594 219.195312 C 314.933594 217.253906 313.359375 215.675781 311.417969 215.675781 C 309.476562 215.675781 307.902344 217.253906 307.902344 219.195312 C 307.902344 221.136719 309.476562 222.710938 311.417969 222.710938 C 313.359375 222.710938 314.933594 221.136719 314.933594 219.195312 Z M 314.933594 219.195312 "/>
<path style=" stroke:none;fill-rule:nonzero;fill:rgb(0%,0%,0%);fill-opacity:1;" d="M 420.929688 162.988281 C 420.929688 162.574219 420.929688 162.519531 420.515625 162.519531 C 419.4375 163.652344 417.890625 163.652344 417.335938 163.652344 L 417.335938 164.203125 C 417.667969 164.203125 418.71875 164.203125 419.628906 163.734375 L 419.628906 172.855469 C 419.628906 173.492188 419.574219 173.683594 418 173.683594 L 417.417969 173.683594 L 417.417969 174.238281 C 418.054688 174.183594 419.574219 174.183594 420.265625 174.183594 C 420.984375 174.183594 422.503906 174.183594 423.113281 174.238281 L 423.113281 173.683594 L 422.558594 173.683594 C 420.984375 173.683594 420.929688 173.492188 420.929688 172.855469 Z M 420.929688 162.988281 "/>
<path style=" stroke:none;fill-rule:nonzero;fill:rgb(0%,0%,0%);fill-opacity:1;" d="M 484.101562 172.882812 L 485.953125 171.085938 C 488.6875 168.65625 489.765625 167.6875 489.765625 165.945312 C 489.765625 163.929688 488.164062 162.519531 486.035156 162.519531 C 484.046875 162.519531 482.746094 164.148438 482.746094 165.726562 C 482.746094 166.691406 483.632812 166.691406 483.6875 166.691406 C 483.960938 166.691406 484.597656 166.5 484.597656 165.753906 C 484.597656 165.308594 484.265625 164.839844 483.660156 164.839844 C 483.519531 164.839844 483.492188 164.839844 483.4375 164.867188 C 483.824219 163.734375 484.792969 163.070312 485.785156 163.070312 C 487.390625 163.070312 488.164062 164.507812 488.164062 165.945312 C 488.164062 167.355469 487.277344 168.738281 486.3125 169.816406 L 482.941406 173.574219 C 482.746094 173.765625 482.746094 173.824219 482.746094 174.238281 L 489.269531 174.238281 L 489.765625 171.167969 L 489.324219 171.167969 C 489.210938 171.695312 489.101562 172.46875 488.9375 172.746094 C 488.796875 172.882812 487.636719 172.882812 487.25 172.882812 Z M 484.101562 172.882812 "/>
<path style=" stroke:none;fill-rule:nonzero;fill:rgb(0%,0%,0%);fill-opacity:1;" d="M 553.046875 168.046875 C 554.511719 167.578125 555.507812 166.332031 555.507812 164.949219 C 555.507812 163.511719 553.988281 162.519531 552.273438 162.519531 C 550.503906 162.519531 549.179688 163.597656 549.179688 164.921875 C 549.179688 165.503906 549.566406 165.835938 550.0625 165.835938 C 550.617188 165.835938 550.976562 165.449219 550.976562 164.949219 C 550.976562 164.066406 550.144531 164.066406 549.871094 164.066406 C 550.421875 163.210938 551.582031 162.960938 552.21875 162.960938 C 552.9375 162.960938 553.902344 163.347656 553.902344 164.949219 C 553.902344 165.144531 553.875 166.167969 553.40625 166.941406 C 552.882812 167.796875 552.273438 167.824219 551.859375 167.851562 C 551.695312 167.878906 551.277344 167.90625 551.167969 167.90625 C 551.03125 167.9375 550.890625 167.9375 550.890625 168.128906 C 550.890625 168.324219 551.03125 168.324219 551.304688 168.324219 L 552.082031 168.324219 C 553.542969 168.324219 554.179688 169.511719 554.179688 171.226562 C 554.179688 173.628906 552.964844 174.125 552.191406 174.125 C 551.445312 174.125 550.117188 173.824219 549.511719 172.800781 C 550.117188 172.882812 550.671875 172.496094 550.671875 171.832031 C 550.671875 171.195312 550.203125 170.835938 549.675781 170.835938 C 549.261719 170.835938 548.710938 171.085938 548.710938 171.859375 C 548.710938 173.464844 550.339844 174.625 552.246094 174.625 C 554.402344 174.625 556.003906 173.019531 556.003906 171.226562 C 556.003906 169.789062 554.898438 168.40625 553.046875 168.046875 Z M 553.046875 168.046875 "/>
<path style=" stroke:none;fill-rule:nonzero;fill:rgb(0%,0%,0%);fill-opacity:1;" d="M 420.929688 275.074219 C 420.929688 274.660156 420.929688 274.605469 420.515625 274.605469 C 419.4375 275.738281 417.890625 275.738281 417.335938 275.738281 L 417.335938 276.289062 C 417.667969 276.289062 418.71875 276.289062 419.628906 275.820312 L 419.628906 284.941406 C 419.628906 285.574219 419.574219 285.769531 418 285.769531 L 417.417969 285.769531 L 417.417969 286.324219 C 418.054688 286.265625 419.574219 286.265625 420.265625 286.265625 C 420.984375 286.265625 422.503906 286.265625 423.113281 286.324219 L 423.113281 285.769531 L 422.558594 285.769531 C 420.984375 285.769531 420.929688 285.574219 420.929688 284.941406 Z M 420.929688 275.074219 "/>
<path style=" stroke:none;fill-rule:nonzero;fill:rgb(0%,0%,0%);fill-opacity:1;" d="M 484.101562 284.96875 L 485.953125 283.171875 C 488.6875 280.738281 489.765625 279.773438 489.765625 278.03125 C 489.765625 276.011719 488.164062 274.605469 486.035156 274.605469 C 484.046875 274.605469 482.746094 276.234375 482.746094 277.808594 C 482.746094 278.777344 483.632812 278.777344 483.6875 278.777344 C 483.960938 278.777344 484.597656 278.582031 484.597656 277.835938 C 484.597656 277.394531 484.265625 276.925781 483.660156 276.925781 C 483.519531 276.925781 483.492188 276.925781 483.4375 276.953125 C 483.824219 275.820312 484.792969 275.15625 485.785156 275.15625 C 487.390625 275.15625 488.164062 276.59375 488.164062 278.03125 C 488.164062 279.441406 487.277344 280.820312 486.3125 281.898438 L 482.941406 285.660156 C 482.746094 285.851562 482.746094 285.90625 482.746094 286.324219 L 489.269531 286.324219 L 489.765625 283.253906 L 489.324219 283.253906 C 489.210938 283.78125 489.101562 284.554688 488.9375 284.828125 C 488.796875 284.96875 487.636719 284.96875 487.25 284.96875 Z M 484.101562 284.96875 "/>
<path style=" stroke:none;fill-rule:nonzero;fill:rgb(0%,0%,0%);fill-opacity:1;" d="M 553.046875 280.132812 C 554.511719 279.660156 555.507812 278.417969 555.507812 277.035156 C 555.507812 275.597656 553.988281 274.605469 552.273438 274.605469 C 550.503906 274.605469 549.179688 275.679688 549.179688 277.007812 C 549.179688 277.589844 549.566406 277.921875 550.0625 277.921875 C 550.617188 277.921875 550.976562 277.535156 550.976562 277.035156 C 550.976562 276.152344 550.144531 276.152344 549.871094 276.152344 C 550.421875 275.292969 551.582031 275.046875 552.21875 275.046875 C 552.9375 275.046875 553.902344 275.433594 553.902344 277.035156 C 553.902344 277.230469 553.875 278.25 553.40625 279.027344 C 552.882812 279.882812 552.273438 279.910156 551.859375 279.9375 C 551.695312 279.964844 551.277344 279.992188 551.167969 279.992188 C 551.03125 280.019531 550.890625 280.019531 550.890625 280.214844 C 550.890625 280.40625 551.03125 280.40625 551.304688 280.40625 L 552.082031 280.40625 C 553.542969 280.40625 554.179688 281.597656 554.179688 283.308594 C 554.179688 285.714844 552.964844 286.210938 552.191406 286.210938 C 551.445312 286.210938 550.117188 285.90625 549.511719 284.886719 C 550.117188 284.96875 550.671875 284.582031 550.671875 283.917969 C 550.671875 283.28125 550.203125 282.921875 549.675781 282.921875 C 549.261719 282.921875 548.710938 283.171875 548.710938 283.945312 C 548.710938 285.546875 550.339844 286.710938 552.246094 286.710938 C 554.402344 286.710938 556.003906 285.105469 556.003906 283.308594 C 556.003906 281.871094 554.898438 280.492188 553.046875 280.132812 Z M 553.046875 280.132812 "/>
<path style="fill:none;stroke-width:0.39848;stroke-linecap:butt;stroke-linejoin:miter;stroke:rgb(0%,0%,0%);stroke-opacity:1;stroke-miterlimit:10;" d="M 189.303231 -27.852298 C 189.303231 -62.783723 264.246362 -42.329202 264.246362 -76.866547 " transform="matrix(1.764046,0,0,-1.764394,86.22056,131.884903)"/>
<path style="fill:none;stroke-width:0.39848;stroke-linecap:round;stroke-linejoin:round;stroke:rgb(0%,0%,0%);stroke-opacity:1;stroke-miterlimit:10;" d="M -2.072498 2.390276 C -1.691702 0.957579 -0.850407 0.279982 -0.000257317 0.000971483 C -0.850407 -0.280253 -1.691702 -0.957851 -2.072498 -2.390548 " transform="matrix(0,1.764394,1.764046,0,552.361568,267.859829)"/>
<path style="fill:none;stroke-width:0.39848;stroke-linecap:butt;stroke-linejoin:miter;stroke:rgb(0%,0%,0%);stroke-opacity:1;stroke-miterlimit:10;" d="M 226.774797 -27.852298 C 226.774797 -52.010728 189.303231 -53.106625 189.303231 -76.866547 " transform="matrix(1.764046,0,0,-1.764394,86.22056,131.884903)"/>
<path style="fill:none;stroke-width:0.39848;stroke-linecap:round;stroke-linejoin:round;stroke:rgb(0%,0%,0%);stroke-opacity:1;stroke-miterlimit:10;" d="M -2.072498 2.389164 C -1.691702 0.956467 -0.850407 0.27887 -0.000257317 -0.000140806 C -0.850407 -0.276937 -1.691702 -0.954534 -2.072498 -2.39166 " transform="matrix(0,1.764394,1.764046,0,420.160405,267.859829)"/>
<path style="fill:none;stroke-width:0.39848;stroke-linecap:butt;stroke-linejoin:miter;stroke:rgb(0%,0%,0%);stroke-opacity:1;stroke-miterlimit:10;" d="M 264.246362 -27.852298 C 264.246362 -52.010728 226.774797 -53.106625 226.774797 -76.866547 " transform="matrix(1.764046,0,0,-1.764394,86.22056,131.884903)"/>
<path style="fill:none;stroke-width:0.39848;stroke-linecap:round;stroke-linejoin:round;stroke:rgb(0%,0%,0%);stroke-opacity:1;stroke-miterlimit:10;" d="M -2.072498 2.39193 C -1.691702 0.954804 -0.850407 0.277207 -0.000257317 -0.00180404 C -0.850407 -0.2786 -1.691702 -0.956197 -2.072498 -2.388895 " transform="matrix(0,1.764394,1.764046,0,486.260995,267.859829)"/>
<path style=" stroke:none;fill-rule:nonzero;fill:rgb(100%,0%,0%);fill-opacity:1;" d="M 464.589844 219.203125 C 464.589844 217.261719 463.011719 215.683594 461.070312 215.683594 C 459.132812 215.683594 457.554688 217.261719 457.554688 219.203125 C 457.554688 221.144531 459.132812 222.71875 461.070312 222.71875 C 463.011719 222.71875 464.589844 221.144531 464.589844 219.203125 Z M 464.589844 219.203125 "/>
<path style=" stroke:none;fill-rule:nonzero;fill:rgb(100%,0%,0%);fill-opacity:1;" d="M 514.914062 230.023438 C 514.914062 228.082031 513.347656 226.503906 511.40625 226.503906 C 509.464844 226.503906 507.890625 228.082031 507.890625 230.023438 C 507.890625 231.964844 509.464844 233.539062 511.40625 233.539062 C 513.347656 233.539062 514.914062 231.964844 514.914062 230.023438 Z M 514.914062 230.023438 "/>
</g>
</svg>
