<?xml version="1.0" encoding="UTF-8"?>
<svg xmlns="http://www.w3.org/2000/svg" xmlns:xlink="http://www.w3.org/1999/xlink" width="900pt" height="300pt" viewBox="0 0 900 300" version="1.1">
<g id="surface1">
<path style=" stroke:none;fill-rule:nonzero;fill:rgb(0%,0%,0%);fill-opacity:1;" d="M 38.75 25.28125 C 38.75 24.4375 38.75 24.382812 37.957031 24.382812 C 35.898438 26.546875 32.941406 26.546875 31.886719 26.546875 L 31.886719 27.550781 C 32.519531 27.550781 34.527344 27.550781 36.269531 26.707031 L 36.269531 44.074219 C 36.269531 45.289062 36.164062 45.65625 33.152344 45.65625 L 32.046875 45.65625 L 32.046875 46.710938 C 33.257812 46.605469 36.164062 46.605469 37.480469 46.605469 C 38.855469 46.605469 41.757812 46.605469 42.917969 46.710938 L 42.917969 45.65625 L 41.863281 45.65625 C 38.855469 45.65625 38.75 45.289062 38.75 44.074219 Z M 38.75 25.28125 "/>
<path style=" stroke:none;fill-rule:nonzero;fill:rgb(0%,0%,0%);fill-opacity:1;" d="M 161.445312 38.320312 C 161.445312 37.371094 160.652344 36.578125 159.652344 36.578125 C 158.699219 36.578125 157.910156 37.371094 157.910156 38.320312 C 157.910156 39.324219 158.699219 40.113281 159.652344 40.113281 C 160.652344 40.113281 161.445312 39.324219 161.445312 38.320312 Z M 161.445312 38.320312 "/>
<path style=" stroke:none;fill-rule:nonzero;fill:rgb(0%,0%,0%);fill-opacity:1;" d="M 176.363281 38.320312 C 176.363281 37.371094 175.570312 36.578125 174.566406 36.578125 C 173.617188 36.578125 172.824219 37.371094 172.824219 38.320312 C 172.824219 39.324219 173.617188 40.113281 174.566406 40.113281 C 175.570312 40.113281 176.363281 39.324219 176.363281 38.320312 Z M 176.363281 38.320312 "/>
<path style=" stroke:none;fill-rule:nonzero;fill:rgb(0%,0%,0%);fill-opacity:1;" d="M 191.246094 38.320312 C 191.246094 37.371094 190.453125 36.578125 189.449219 36.578125 C 188.5 36.578125 187.707031 37.371094 187.707031 38.320312 C 187.707031 39.324219 188.5 40.113281 189.449219 40.113281 C 190.453125 40.113281 191.246094 39.324219 191.246094 38.320312 Z M 191.246094 38.320312 "/>
<path style=" stroke:none;fill-rule:nonzero;fill:rgb(0%,0%,0%);fill-opacity:1;" d="M 312.996094 25.757812 C 312.996094 25.070312 312.519531 24.542969 311.78125 24.542969 C 310.882812 24.542969 309.988281 25.4375 309.988281 26.335938 C 309.988281 26.96875 310.410156 27.550781 311.253906 27.550781 C 311.992188 27.550781 312.996094 26.757812 312.996094 25.757812 Z M 310.460938 38.371094 C 310.882812 37.371094 310.882812 37.316406 311.199219 36.417969 C 311.464844 35.734375 311.621094 35.257812 311.621094 34.625 C 311.621094 33.144531 310.566406 31.878906 308.878906 31.878906 C 305.761719 31.878906 304.445312 36.734375 304.445312 37.050781 C 304.445312 37.371094 304.8125 37.371094 304.867188 37.371094 C 305.183594 37.371094 305.234375 37.316406 305.394531 36.789062 C 306.292969 33.621094 307.664062 32.617188 308.773438 32.617188 C 309.035156 32.617188 309.617188 32.617188 309.617188 33.726562 C 309.617188 34.414062 309.40625 35.097656 309.246094 35.46875 C 308.984375 36.3125 307.503906 40.21875 306.925781 41.644531 C 306.609375 42.542969 306.1875 43.652344 306.1875 44.335938 C 306.1875 45.921875 307.292969 47.082031 308.929688 47.082031 C 312.097656 47.082031 313.3125 42.226562 313.3125 41.910156 C 313.3125 41.59375 312.996094 41.59375 312.890625 41.59375 C 312.574219 41.59375 312.574219 41.699219 312.414062 42.171875 C 311.78125 44.285156 310.726562 46.34375 308.984375 46.34375 C 308.402344 46.34375 308.191406 46.027344 308.191406 45.234375 C 308.191406 44.390625 308.402344 43.914062 309.140625 41.910156 Z M 310.460938 38.371094 "/>
<path style=" stroke:none;fill-rule:nonzero;fill:rgb(0%,0%,0%);fill-opacity:1;" d="M 430.847656 38.320312 C 430.847656 37.371094 430.054688 36.578125 429.050781 36.578125 C 428.101562 36.578125 427.308594 37.371094 427.308594 38.320312 C 427.308594 39.324219 428.101562 40.113281 429.050781 40.113281 C 430.054688 40.113281 430.847656 39.324219 430.847656 38.320312 Z M 430.847656 38.320312 "/>
<path style=" stroke:none;fill-rule:nonzero;fill:rgb(0%,0%,0%);fill-opacity:1;" d="M 445.761719 38.320312 C 445.761719 37.371094 444.972656 36.578125 443.96875 36.578125 C 443.019531 36.578125 442.226562 37.371094 442.226562 38.320312 C 442.226562 39.324219 443.019531 40.113281 443.96875 40.113281 C 444.972656 40.113281 445.761719 39.324219 445.761719 38.320312 Z M 445.761719 38.320312 "/>
<path style=" stroke:none;fill-rule:nonzero;fill:rgb(0%,0%,0%);fill-opacity:1;" d="M 460.644531 38.320312 C 460.644531 37.371094 459.855469 36.578125 458.851562 36.578125 C 457.902344 36.578125 457.109375 37.371094 457.109375 38.320312 C 457.109375 39.324219 457.902344 40.113281 458.851562 40.113281 C 459.855469 40.113281 460.644531 39.324219 460.644531 38.320312 Z M 460.644531 38.320312 "/>
<path style=" stroke:none;fill-rule:nonzero;fill:rgb(0%,0%,0%);fill-opacity:1;" d="M 586.195312 25.757812 C 586.195312 25.121094 585.71875 24.542969 584.925781 24.542969 C 584.136719 24.542969 583.132812 25.332031 583.132812 26.335938 C 583.132812 27.023438 583.609375 27.550781 584.398438 27.550781 C 585.296875 27.550781 586.195312 26.652344 586.195312 25.757812 Z M 579.4375 48.402344 C 578.804688 50.933594 577.21875 52.835938 575.320312 52.835938 C 575.160156 52.835938 574.632812 52.835938 574.054688 52.519531 C 575.054688 52.308594 575.53125 51.464844 575.53125 50.777344 C 575.53125 50.25 575.160156 49.617188 574.265625 49.617188 C 573.421875 49.617188 572.46875 50.300781 572.46875 51.515625 C 572.46875 52.835938 573.789062 53.574219 575.425781 53.574219 C 577.75 53.574219 580.863281 51.832031 581.707031 48.507812 L 584.769531 36.207031 C 584.980469 35.574219 584.980469 35.097656 584.980469 34.992188 C 584.980469 33.09375 583.554688 31.878906 581.867188 31.878906 C 578.433594 31.878906 576.535156 36.734375 576.535156 37.050781 C 576.535156 37.371094 576.902344 37.371094 576.957031 37.371094 C 577.273438 37.371094 577.273438 37.371094 577.539062 36.734375 C 578.382812 34.675781 579.914062 32.617188 581.761719 32.617188 C 582.234375 32.617188 582.867188 32.777344 582.867188 34.203125 C 582.867188 34.941406 582.761719 35.308594 582.605469 35.890625 Z M 579.4375 48.402344 "/>
<path style=" stroke:none;fill-rule:nonzero;fill:rgb(0%,0%,0%);fill-opacity:1;" d="M 704.425781 44.917969 C 704.425781 43.96875 703.632812 43.175781 702.632812 43.175781 C 701.679688 43.175781 700.890625 43.96875 700.890625 44.917969 C 700.890625 45.921875 701.679688 46.710938 702.632812 46.710938 C 703.632812 46.710938 704.425781 45.921875 704.425781 44.917969 Z M 704.425781 44.917969 "/>
<path style=" stroke:none;fill-rule:nonzero;fill:rgb(0%,0%,0%);fill-opacity:1;" d="M 719.34375 44.917969 C 719.34375 43.96875 718.550781 43.175781 717.546875 43.175781 C 716.597656 43.175781 715.804688 43.96875 715.804688 44.917969 C 715.804688 45.921875 716.597656 46.710938 717.546875 46.710938 C 718.550781 46.710938 719.34375 45.921875 719.34375 44.917969 Z M 719.34375 44.917969 "/>
<path style=" stroke:none;fill-rule:nonzero;fill:rgb(0%,0%,0%);fill-opacity:1;" d="M 734.226562 44.917969 C 734.226562 43.96875 733.433594 43.175781 732.429688 43.175781 C 731.480469 43.175781 730.6875 43.96875 730.6875 44.917969 C 730.6875 45.921875 731.480469 46.710938 732.429688 46.710938 C 733.433594 46.710938 734.226562 45.921875 734.226562 44.917969 Z M 734.226562 44.917969 "/>
<path style=" stroke:none;fill-rule:nonzero;fill:rgb(0%,0%,0%);fill-opacity:1;" d="M 849.425781 44.757812 C 849.320312 45.234375 849.109375 46.027344 849.109375 46.183594 C 849.109375 46.765625 849.585938 47.082031 850.113281 47.082031 C 850.484375 47.082031 851.117188 46.816406 851.328125 46.132812 C 851.378906 46.078125 851.75 44.496094 851.960938 43.652344 L 852.699219 40.640625 C 852.910156 39.902344 853.121094 39.164062 853.28125 38.425781 C 853.386719 37.84375 853.703125 36.839844 853.703125 36.734375 C 854.230469 35.679688 855.972656 32.617188 859.191406 32.617188 C 860.671875 32.617188 860.988281 33.886719 860.988281 34.992188 C 860.988281 37.050781 859.351562 41.328125 858.824219 42.804688 C 858.507812 43.546875 858.453125 43.96875 858.453125 44.335938 C 858.453125 45.921875 859.667969 47.082031 861.199219 47.082031 C 864.367188 47.082031 865.632812 42.171875 865.632812 41.910156 C 865.632812 41.59375 865.316406 41.59375 865.210938 41.59375 C 864.894531 41.59375 864.894531 41.699219 864.683594 42.171875 C 864.050781 44.441406 862.941406 46.34375 861.304688 46.34375 C 860.722656 46.34375 860.460938 46.027344 860.460938 45.234375 C 860.460938 44.390625 860.777344 43.597656 861.09375 42.859375 C 861.726562 41.0625 863.152344 37.371094 863.152344 35.46875 C 863.152344 33.25 861.675781 31.878906 859.296875 31.878906 C 856.238281 31.878906 854.601562 34.042969 854.074219 34.835938 C 853.863281 32.933594 852.488281 31.878906 850.957031 31.878906 C 849.425781 31.878906 848.792969 33.199219 848.425781 33.832031 C 847.894531 34.941406 847.421875 36.945312 847.421875 37.050781 C 847.421875 37.371094 847.789062 37.371094 847.84375 37.371094 C 848.160156 37.371094 848.214844 37.371094 848.425781 36.628906 C 849.003906 34.253906 849.636719 32.617188 850.851562 32.617188 C 851.539062 32.617188 851.910156 33.09375 851.910156 34.203125 C 851.910156 34.886719 851.800781 35.257812 851.378906 37 Z M 849.425781 44.757812 "/>
<path style=" stroke:none;fill-rule:nonzero;fill:rgb(0%,0%,0%);fill-opacity:1;" d="M 38.75 246.140625 C 38.75 245.296875 38.75 245.242188 37.957031 245.242188 C 35.898438 247.40625 32.941406 247.40625 31.886719 247.40625 L 31.886719 248.410156 C 32.519531 248.410156 34.527344 248.410156 36.269531 247.566406 L 36.269531 264.933594 C 36.269531 266.148438 36.164062 266.515625 33.152344 266.515625 L 32.046875 266.515625 L 32.046875 267.570312 C 33.257812 267.464844 36.164062 267.464844 37.480469 267.464844 C 38.855469 267.464844 41.757812 267.464844 42.917969 267.570312 L 42.917969 266.515625 L 41.863281 266.515625 C 38.855469 266.515625 38.75 266.148438 38.75 264.933594 Z M 38.75 246.140625 "/>
<path style=" stroke:none;fill-rule:nonzero;fill:rgb(0%,0%,0%);fill-opacity:1;" d="M 161.449219 259.179688 C 161.449219 258.230469 160.65625 257.4375 159.652344 257.4375 C 158.703125 257.4375 157.910156 258.230469 157.910156 259.179688 C 157.910156 260.183594 158.703125 260.972656 159.652344 260.972656 C 160.65625 260.972656 161.449219 260.183594 161.449219 259.179688 Z M 161.449219 259.179688 "/>
<path style=" stroke:none;fill-rule:nonzero;fill:rgb(0%,0%,0%);fill-opacity:1;" d="M 176.363281 259.179688 C 176.363281 258.230469 175.574219 257.4375 174.570312 257.4375 C 173.621094 257.4375 172.828125 258.230469 172.828125 259.179688 C 172.828125 260.183594 173.621094 260.972656 174.570312 260.972656 C 175.574219 260.972656 176.363281 260.183594 176.363281 259.179688 Z M 176.363281 259.179688 "/>
<path style=" stroke:none;fill-rule:nonzero;fill:rgb(0%,0%,0%);fill-opacity:1;" d="M 191.246094 259.179688 C 191.246094 258.230469 190.457031 257.4375 189.453125 257.4375 C 188.503906 257.4375 187.710938 258.230469 187.710938 259.179688 C 187.710938 260.183594 188.503906 260.972656 189.453125 260.972656 C 190.457031 260.972656 191.246094 260.183594 191.246094 259.179688 Z M 191.246094 259.179688 "/>
<path style=" stroke:none;fill-rule:nonzero;fill:rgb(0%,0%,0%);fill-opacity:1;" d="M 312.996094 246.617188 C 312.996094 245.929688 312.519531 245.402344 311.78125 245.402344 C 310.882812 245.402344 309.988281 246.296875 309.988281 247.195312 C 309.988281 247.828125 310.410156 248.410156 311.253906 248.410156 C 311.992188 248.410156 312.996094 247.617188 312.996094 246.617188 Z M 310.460938 259.230469 C 310.882812 258.230469 310.882812 258.175781 311.199219 257.277344 C 311.464844 256.59375 311.621094 256.117188 311.621094 255.484375 C 311.621094 254.003906 310.566406 252.738281 308.878906 252.738281 C 305.761719 252.738281 304.445312 257.59375 304.445312 257.910156 C 304.445312 258.230469 304.8125 258.230469 304.867188 258.230469 C 305.183594 258.230469 305.234375 258.175781 305.394531 257.648438 C 306.292969 254.480469 307.664062 253.476562 308.773438 253.476562 C 309.035156 253.476562 309.617188 253.476562 309.617188 254.585938 C 309.617188 255.273438 309.40625 255.957031 309.246094 256.328125 C 308.984375 257.171875 307.503906 261.078125 306.925781 262.503906 C 306.609375 263.402344 306.1875 264.511719 306.1875 265.195312 C 306.1875 266.78125 307.292969 267.941406 308.929688 267.941406 C 312.097656 267.941406 313.3125 263.085938 313.3125 262.769531 C 313.3125 262.453125 312.996094 262.453125 312.890625 262.453125 C 312.574219 262.453125 312.574219 262.558594 312.414062 263.03125 C 311.78125 265.144531 310.726562 267.203125 308.984375 267.203125 C 308.402344 267.203125 308.191406 266.886719 308.191406 266.09375 C 308.191406 265.25 308.402344 264.773438 309.140625 262.769531 Z M 310.460938 259.230469 "/>
<path style=" stroke:none;fill-rule:nonzero;fill:rgb(0%,0%,0%);fill-opacity:1;" d="M 430.847656 259.179688 C 430.847656 258.230469 430.054688 257.4375 429.050781 257.4375 C 428.101562 257.4375 427.308594 258.230469 427.308594 259.179688 C 427.308594 260.183594 428.101562 260.972656 429.050781 260.972656 C 430.054688 260.972656 430.847656 260.183594 430.847656 259.179688 Z M 430.847656 259.179688 "/>
<path style=" stroke:none;fill-rule:nonzero;fill:rgb(0%,0%,0%);fill-opacity:1;" d="M 445.761719 259.179688 C 445.761719 258.230469 444.972656 257.4375 443.96875 257.4375 C 443.019531 257.4375 442.226562 258.230469 442.226562 259.179688 C 442.226562 260.183594 443.019531 260.972656 443.96875 260.972656 C 444.972656 260.972656 445.761719 260.183594 445.761719 259.179688 Z M 445.761719 259.179688 "/>
<path style=" stroke:none;fill-rule:nonzero;fill:rgb(0%,0%,0%);fill-opacity:1;" d="M 460.644531 259.179688 C 460.644531 258.230469 459.855469 257.4375 458.851562 257.4375 C 457.902344 257.4375 457.109375 258.230469 457.109375 259.179688 C 457.109375 260.183594 457.902344 260.972656 458.851562 260.972656 C 459.855469 260.972656 460.644531 260.183594 460.644531 259.179688 Z M 460.644531 259.179688 "/>
<path style=" stroke:none;fill-rule:nonzero;fill:rgb(0%,0%,0%);fill-opacity:1;" d="M 586.195312 246.617188 C 586.195312 245.980469 585.71875 245.402344 584.925781 245.402344 C 584.136719 245.402344 583.132812 246.191406 583.132812 247.195312 C 583.132812 247.882812 583.609375 248.410156 584.398438 248.410156 C 585.296875 248.410156 586.195312 247.511719 586.195312 246.617188 Z M 579.4375 269.261719 C 578.804688 271.796875 577.21875 273.695312 575.320312 273.695312 C 575.160156 273.695312 574.632812 273.695312 574.054688 273.378906 C 575.054688 273.167969 575.53125 272.324219 575.53125 271.636719 C 575.53125 271.109375 575.160156 270.476562 574.265625 270.476562 C 573.421875 270.476562 572.46875 271.160156 572.46875 272.375 C 572.46875 273.695312 573.789062 274.433594 575.425781 274.433594 C 577.75 274.433594 580.863281 272.691406 581.707031 269.367188 L 584.769531 257.066406 C 584.980469 256.433594 584.980469 255.957031 584.980469 255.851562 C 584.980469 253.953125 583.554688 252.738281 581.867188 252.738281 C 578.433594 252.738281 576.535156 257.59375 576.535156 257.910156 C 576.535156 258.230469 576.902344 258.230469 576.957031 258.230469 C 577.273438 258.230469 577.273438 258.230469 577.539062 257.59375 C 578.382812 255.535156 579.914062 253.476562 581.761719 253.476562 C 582.234375 253.476562 582.867188 253.636719 582.867188 255.0625 C 582.867188 255.800781 582.761719 256.171875 582.605469 256.75 Z M 579.4375 269.261719 "/>
<path style=" stroke:none;fill-rule:nonzero;fill:rgb(0%,0%,0%);fill-opacity:1;" d="M 704.425781 259.179688 C 704.425781 258.230469 703.632812 257.4375 702.632812 257.4375 C 701.679688 257.4375 700.890625 258.230469 700.890625 259.179688 C 700.890625 260.183594 701.679688 260.972656 702.632812 260.972656 C 703.632812 260.972656 704.425781 260.183594 704.425781 259.179688 Z M 704.425781 259.179688 "/>
<path style=" stroke:none;fill-rule:nonzero;fill:rgb(0%,0%,0%);fill-opacity:1;" d="M 719.34375 259.179688 C 719.34375 258.230469 718.550781 257.4375 717.546875 257.4375 C 716.597656 257.4375 715.804688 258.230469 715.804688 259.179688 C 715.804688 260.183594 716.597656 260.972656 717.546875 260.972656 C 718.550781 260.972656 719.34375 260.183594 719.34375 259.179688 Z M 719.34375 259.179688 "/>
<path style=" stroke:none;fill-rule:nonzero;fill:rgb(0%,0%,0%);fill-opacity:1;" d="M 734.226562 259.179688 C 734.226562 258.230469 733.433594 257.4375 732.429688 257.4375 C 731.480469 257.4375 730.6875 258.230469 730.6875 259.179688 C 730.6875 260.183594 731.480469 260.972656 732.429688 260.972656 C 733.433594 260.972656 734.226562 260.183594 734.226562 259.179688 Z M 734.226562 259.179688 "/>
<path style=" stroke:none;fill-rule:nonzero;fill:rgb(0%,0%,0%);fill-opacity:1;" d="M 849.425781 265.617188 C 849.320312 266.09375 849.109375 266.886719 849.109375 267.042969 C 849.109375 267.625 849.585938 267.941406 850.113281 267.941406 C 850.484375 267.941406 851.117188 267.675781 851.328125 266.992188 C 851.378906 266.9375 851.75 265.355469 851.960938 264.511719 L 852.699219 261.5 C 852.910156 260.761719 853.121094 260.023438 853.28125 259.285156 C 853.386719 258.703125 853.703125 257.699219 853.703125 257.59375 C 854.230469 256.539062 855.972656 253.476562 859.191406 253.476562 C 860.671875 253.476562 860.988281 254.746094 860.988281 255.851562 C 860.988281 257.910156 859.351562 262.1875 858.824219 263.664062 C 858.507812 264.40625 858.453125 264.828125 858.453125 265.195312 C 858.453125 266.78125 859.667969 267.941406 861.199219 267.941406 C 864.367188 267.941406 865.632812 263.03125 865.632812 262.769531 C 865.632812 262.453125 865.316406 262.453125 865.210938 262.453125 C 864.894531 262.453125 864.894531 262.558594 864.683594 263.03125 C 864.050781 265.300781 862.941406 267.203125 861.304688 267.203125 C 860.722656 267.203125 860.460938 266.886719 860.460938 266.09375 C 860.460938 265.25 860.777344 264.457031 861.09375 263.71875 C 861.726562 261.921875 863.152344 258.230469 863.152344 256.328125 C 863.152344 254.109375 861.675781 252.738281 859.296875 252.738281 C 856.238281 252.738281 854.601562 254.902344 854.074219 255.695312 C 853.863281 253.792969 852.488281 252.738281 850.957031 252.738281 C 849.425781 252.738281 848.792969 254.058594 848.425781 254.691406 C 847.894531 255.800781 847.421875 257.804688 847.421875 257.910156 C 847.421875 258.230469 847.789062 258.230469 847.84375 258.230469 C 848.160156 258.230469 848.214844 258.230469 848.425781 257.488281 C 849.003906 255.113281 849.636719 253.476562 850.851562 253.476562 C 851.539062 253.476562 851.910156 253.953125 851.910156 255.0625 C 851.910156 255.746094 851.800781 256.117188 851.378906 257.859375 Z M 849.425781 265.617188 "/>
<path style="fill:none;stroke-width:0.39848;stroke-linecap:butt;stroke-linejoin:miter;stroke:rgb(0%,0%,0%);stroke-opacity:1;stroke-miterlimit:10;" d="M -121.946631 59.279022 L -121.946631 8.175377 " transform="matrix(3.366091,0,0,-3.366091,447.737389,259.187034)"/>
<path style="fill:none;stroke-width:0.39848;stroke-linecap:round;stroke-linejoin:round;stroke:rgb(0%,0%,0%);stroke-opacity:1;stroke-miterlimit:10;" d="M -2.070573 2.391435 C -1.69458 0.955933 -0.850918 0.278218 -0.000293066 -0.000294822 C -0.850918 -0.278808 -1.69458 -0.956523 -2.070573 -2.392025 " transform="matrix(0,3.366091,3.366091,0,37.254899,232.344736)"/>
<path style="fill:none;stroke-width:0.39848;stroke-linecap:butt;stroke-linejoin:miter;stroke:rgb(0%,0%,0%);stroke-opacity:1;stroke-miterlimit:10;" d="M -41.137258 59.279022 C -41.137258 22.025594 39.520093 45.176983 39.520093 8.323917 " transform="matrix(3.366091,0,0,-3.366091,447.737389,259.187034)"/>
<path style="fill:none;stroke-width:0.39848;stroke-linecap:round;stroke-linejoin:round;stroke:rgb(0%,0%,0%);stroke-opacity:1;stroke-miterlimit:10;" d="M -2.073484 2.389118 C -1.69285 0.958258 -0.850348 0.280543 0.000276757 0.00203038 C -0.850348 -0.281124 -1.69285 -0.955358 -2.073484 -2.3897 " transform="matrix(0,3.366091,3.366091,0,580.758791,231.838912)"/>
<path style="fill:none;stroke-width:0.39848;stroke-linecap:butt;stroke-linejoin:miter;stroke:rgb(0%,0%,0%);stroke-opacity:1;stroke-miterlimit:10;" d="M 39.520093 57.342197 C 39.520093 20.429947 -41.137258 44.835805 -41.137258 8.323917 " transform="matrix(3.366091,0,0,-3.366091,447.737389,259.187034)"/>
<path style="fill:none;stroke-width:0.39848;stroke-linecap:round;stroke-linejoin:round;stroke:rgb(0%,0%,0%);stroke-opacity:1;stroke-miterlimit:10;" d="M -2.073484 2.391523 C -1.69285 0.957182 -0.850348 0.278306 0.000276757 -0.000206752 C -0.850348 -0.27872 -1.69285 -0.956435 -2.073484 -2.391937 " transform="matrix(0,3.366091,3.366091,0,309.266321,231.838912)"/>
<path style="fill:none;stroke-width:0.39848;stroke-linecap:butt;stroke-linejoin:miter;stroke:rgb(0%,0%,0%);stroke-opacity:1;stroke-miterlimit:10;" d="M 121.446998 59.279022 L 121.446998 6.042432 " transform="matrix(3.366091,0,0,-3.366091,447.737389,259.187034)"/>
<path style="fill:none;stroke-width:0.39848;stroke-linecap:round;stroke-linejoin:round;stroke:rgb(0%,0%,0%);stroke-opacity:1;stroke-miterlimit:10;" d="M -2.07319 2.390531 C -1.692555 0.956189 -0.850054 0.278474 0.0017318 -0.0000386405 C -0.850054 -0.278552 -1.692555 -0.957427 -2.07319 -2.391769 " transform="matrix(0,3.366091,3.366091,0,856.539193,239.517608)"/>
<path style="fill:none;stroke-width:0.3985;stroke-linecap:butt;stroke-linejoin:miter;stroke:rgb(0%,0%,0%);stroke-opacity:1;stroke-miterlimit:10;" d="M -28.347711 53.860785 L -28.347711 14.573052 " transform="matrix(3.366091,0,0,-3.366091,447.737389,259.187034)"/>
<path style="fill:none;stroke-width:0.3985;stroke-linecap:round;stroke-linejoin:round;stroke:rgb(0%,0%,0%);stroke-opacity:1;stroke-miterlimit:10;" d="M -2.071096 2.389666 C -1.693943 0.955325 -0.851441 0.281091 -0.000816469 -0.000903034 C -0.851441 -0.279416 -1.693943 -0.958291 -2.071096 -2.392633 " transform="matrix(0,3.366091,3.366091,0,352.319446,210.807436)"/>
<path style="fill:none;stroke-width:0.3985;stroke-linecap:butt;stroke-linejoin:miter;stroke:rgb(0%,0%,0%);stroke-opacity:1;stroke-miterlimit:10;" d="M -21.259557 48.187244 L -21.259557 20.241951 " transform="matrix(3.366091,0,0,-3.366091,447.737389,259.187034)"/>
<path style="fill:none;stroke-width:0.3985;stroke-linecap:round;stroke-linejoin:round;stroke:rgb(0%,0%,0%);stroke-opacity:1;stroke-miterlimit:10;" d="M -2.070703 2.391119 C -1.69355 0.956777 -0.851048 0.279062 -0.00042329 0.000549248 C -0.851048 -0.277964 -1.69355 -0.956839 -2.070703 -2.391181 " transform="matrix(0,3.366091,3.366091,0,376.173932,191.724081)"/>
<path style="fill:none;stroke-width:0.3985;stroke-linecap:butt;stroke-linejoin:miter;stroke:rgb(0%,0%,0%);stroke-opacity:1;stroke-miterlimit:10;" d="M -14.171402 42.518345 L -14.171402 25.91085 " transform="matrix(3.366091,0,0,-3.366091,447.737389,259.187034)"/>
<path style="fill:none;stroke-width:0.3985;stroke-linecap:round;stroke-linejoin:round;stroke:rgb(0%,0%,0%);stroke-opacity:1;stroke-miterlimit:10;" d="M -2.073802 2.38908 C -1.694328 0.958219 -0.850666 0.280504 -0.0000411497 0.00199149 C -0.850666 -0.280003 -1.694328 -0.955397 -2.073802 -2.389738 " transform="matrix(0,3.366091,3.366091,0,400.028453,172.640764)"/>
<path style="fill:none;stroke-width:0.3985;stroke-linecap:butt;stroke-linejoin:miter;stroke:rgb(0%,0%,0%);stroke-opacity:1;stroke-miterlimit:10;" d="M 28.345921 53.860785 L 28.345921 14.573052 " transform="matrix(3.366091,0,0,-3.366091,447.737389,259.187034)"/>
<path style="fill:none;stroke-width:0.3985;stroke-linecap:round;stroke-linejoin:round;stroke:rgb(0%,0%,0%);stroke-opacity:1;stroke-miterlimit:10;" d="M -2.071096 2.390841 C -1.693943 0.9565 -0.851441 0.277624 -0.000816469 -0.000888481 C -0.851441 -0.279401 -1.693943 -0.957116 -2.071096 -2.392618 " transform="matrix(0,3.366091,3.366091,0,543.155334,210.807436)"/>
<path style="fill:none;stroke-width:0.3985;stroke-linecap:butt;stroke-linejoin:miter;stroke:rgb(0%,0%,0%);stroke-opacity:1;stroke-miterlimit:10;" d="M 21.262408 48.187244 L 21.262408 20.241951 " transform="matrix(3.366091,0,0,-3.366091,447.737389,259.187034)"/>
<path style="fill:none;stroke-width:0.3985;stroke-linecap:round;stroke-linejoin:round;stroke:rgb(0%,0%,0%);stroke-opacity:1;stroke-miterlimit:10;" d="M -2.070703 2.389389 C -1.69355 0.955048 -0.851048 0.279654 -0.00042329 0.00230112 C -0.851048 -0.280854 -1.69355 -0.955087 -2.070703 -2.389429 " transform="matrix(0,3.366091,3.366091,0,519.300848,191.724081)"/>
<path style="fill:none;stroke-width:0.3985;stroke-linecap:butt;stroke-linejoin:miter;stroke:rgb(0%,0%,0%);stroke-opacity:1;stroke-miterlimit:10;" d="M 14.173093 42.518345 L 14.173093 25.91085 " transform="matrix(3.366091,0,0,-3.366091,447.737389,259.187034)"/>
<path style="fill:none;stroke-width:0.3985;stroke-linecap:round;stroke-linejoin:round;stroke:rgb(0%,0%,0%);stroke-opacity:1;stroke-miterlimit:10;" d="M -2.073802 2.391428 C -1.694328 0.957087 -0.850666 0.278211 -0.0000411497 -0.000301597 C -0.850666 -0.277654 -1.694328 -0.956529 -2.073802 -2.390871 " transform="matrix(0,3.366091,3.366091,0,495.446328,172.640764)"/>
</g>
</svg>
