<?xml version="1.0" encoding="UTF-8"?>
<svg xmlns="http://www.w3.org/2000/svg" xmlns:xlink="http://www.w3.org/1999/xlink" width="608pt" height="300pt" viewBox="0 0 608 300" version="1.1">
<g id="surface1">
<path style=" stroke:none;fill-rule:nonzero;fill:rgb(0%,0%,0%);fill-opacity:1;" d="M 40.425781 25.8125 C 40.425781 24.984375 40.425781 24.925781 39.652344 24.925781 C 37.5 27.136719 34.40625 27.136719 33.246094 27.136719 L 33.246094 28.242188 C 33.964844 28.242188 36.0625 28.242188 37.832031 27.359375 L 37.832031 45.492188 C 37.832031 46.761719 37.777344 47.148438 34.628906 47.148438 L 33.46875 47.148438 L 33.46875 48.253906 C 34.683594 48.144531 37.777344 48.144531 39.15625 48.144531 C 40.539062 48.144531 43.574219 48.144531 44.847656 48.253906 L 44.847656 47.148438 L 43.6875 47.148438 C 40.539062 47.148438 40.425781 46.761719 40.425781 45.492188 Z M 40.425781 25.8125 "/>
<path style=" stroke:none;fill-rule:nonzero;fill:rgb(0%,0%,0%);fill-opacity:1;" d="M 166.332031 45.546875 L 170.03125 41.953125 C 175.5 37.089844 177.597656 35.210938 177.597656 31.726562 C 177.597656 27.691406 174.449219 24.925781 170.140625 24.925781 C 166.21875 24.925781 163.625 28.132812 163.625 31.285156 C 163.625 33.21875 165.335938 33.21875 165.445312 33.21875 C 166.054688 33.21875 167.269531 32.777344 167.269531 31.339844 C 167.269531 30.457031 166.660156 29.515625 165.445312 29.515625 C 165.171875 29.515625 165.058594 29.515625 164.949219 29.570312 C 165.777344 27.304688 167.65625 25.976562 169.699219 25.976562 C 172.902344 25.976562 174.394531 28.851562 174.394531 31.726562 C 174.394531 34.492188 172.628906 37.308594 170.695312 39.464844 L 164.011719 46.984375 C 163.625 47.371094 163.625 47.425781 163.625 48.253906 L 176.605469 48.253906 L 177.597656 42.175781 L 176.714844 42.175781 C 176.546875 43.222656 176.273438 44.773438 175.941406 45.269531 C 175.664062 45.546875 173.398438 45.546875 172.628906 45.546875 Z M 166.332031 45.546875 "/>
<path style=" stroke:none;fill-rule:nonzero;fill:rgb(0%,0%,0%);fill-opacity:1;" d="M 303.726562 35.925781 C 306.597656 34.988281 308.640625 32.5 308.640625 29.738281 C 308.640625 26.863281 305.546875 24.925781 302.179688 24.925781 C 298.644531 24.925781 295.992188 27.027344 295.992188 29.679688 C 295.992188 30.84375 296.765625 31.503906 297.761719 31.503906 C 298.863281 31.503906 299.527344 30.730469 299.527344 29.738281 C 299.527344 27.96875 297.925781 27.96875 297.375 27.96875 C 298.476562 26.253906 300.796875 25.8125 302.011719 25.8125 C 303.449219 25.8125 305.382812 26.585938 305.382812 29.738281 C 305.382812 30.125 305.328125 32.167969 304.445312 33.714844 C 303.394531 35.375 302.179688 35.484375 301.296875 35.539062 C 301.019531 35.539062 300.191406 35.652344 299.914062 35.652344 C 299.636719 35.652344 299.417969 35.707031 299.417969 36.039062 C 299.417969 36.425781 299.636719 36.425781 300.246094 36.425781 L 301.792969 36.425781 C 304.664062 36.425781 305.933594 38.800781 305.933594 42.285156 C 305.933594 47.039062 303.558594 48.035156 302.011719 48.035156 C 300.523438 48.035156 297.871094 47.425781 296.65625 45.378906 C 297.871094 45.546875 298.976562 44.773438 298.976562 43.445312 C 298.976562 42.175781 298.035156 41.511719 296.988281 41.511719 C 296.160156 41.511719 295.054688 42.007812 295.054688 43.5 C 295.054688 46.707031 298.3125 49.027344 302.125 49.027344 C 306.375 49.027344 309.582031 45.820312 309.582031 42.285156 C 309.582031 39.410156 307.371094 36.644531 303.726562 35.925781 Z M 303.726562 35.925781 "/>
<path style=" stroke:none;fill-rule:nonzero;fill:rgb(0%,0%,0%);fill-opacity:1;" d="M 435.542969 42.449219 L 435.542969 45.546875 C 435.542969 46.761719 435.488281 47.148438 432.890625 47.148438 L 432.171875 47.148438 L 432.171875 48.253906 C 433.609375 48.144531 435.429688 48.144531 436.867188 48.144531 C 438.359375 48.144531 440.238281 48.144531 441.671875 48.253906 L 441.671875 47.148438 L 440.898438 47.148438 C 438.304688 47.148438 438.25 46.761719 438.25 45.546875 L 438.25 42.449219 L 441.785156 42.449219 L 441.785156 41.398438 L 438.25 41.398438 L 438.25 25.425781 C 438.25 24.761719 438.25 24.539062 437.695312 24.539062 C 437.363281 24.539062 437.253906 24.539062 436.976562 24.925781 L 426.261719 41.398438 L 426.261719 42.449219 Z M 435.761719 41.398438 L 427.257812 41.398438 L 435.761719 28.300781 Z M 435.761719 41.398438 "/>
<path style=" stroke:none;fill-rule:nonzero;fill:rgb(0%,0%,0%);fill-opacity:1;" d="M 572.710938 41.234375 C 572.710938 37.03125 569.839844 33.550781 566.03125 33.550781 C 564.371094 33.550781 562.882812 34.101562 561.609375 35.320312 L 561.609375 28.464844 C 562.273438 28.6875 563.433594 28.960938 564.59375 28.960938 C 568.902344 28.960938 571.332031 25.757812 571.332031 25.3125 C 571.332031 25.09375 571.222656 24.925781 571 24.925781 C 570.945312 24.925781 570.890625 24.925781 570.722656 25.039062 C 570.007812 25.3125 568.292969 26.03125 565.917969 26.03125 C 564.539062 26.03125 562.9375 25.8125 561.28125 25.039062 C 561.003906 24.925781 560.949219 24.925781 560.835938 24.925781 C 560.507812 24.925781 560.507812 25.203125 560.507812 25.8125 L 560.507812 36.148438 C 560.507812 36.8125 560.507812 37.089844 561.003906 37.089844 C 561.222656 37.089844 561.335938 36.976562 561.445312 36.757812 C 561.832031 36.203125 563.15625 34.324219 565.972656 34.324219 C 567.796875 34.324219 568.679688 35.925781 568.957031 36.535156 C 569.507812 37.863281 569.5625 39.1875 569.5625 40.957031 C 569.5625 42.175781 569.5625 44.273438 568.734375 45.765625 C 567.90625 47.148438 566.582031 48.035156 564.980469 48.035156 C 562.4375 48.035156 560.449219 46.210938 559.84375 44.109375 C 559.953125 44.164062 560.0625 44.164062 560.449219 44.164062 C 561.609375 44.164062 562.164062 43.335938 562.164062 42.449219 C 562.164062 41.621094 561.609375 40.738281 560.449219 40.738281 C 559.953125 40.738281 558.738281 41.011719 558.738281 42.617188 C 558.738281 45.601562 561.113281 49.027344 565.035156 49.027344 C 569.121094 49.027344 572.710938 45.65625 572.710938 41.234375 Z M 572.710938 41.234375 "/>
<path style=" stroke:none;fill-rule:nonzero;fill:rgb(0%,0%,0%);fill-opacity:1;" d="M 40.425781 249.277344 C 40.425781 248.449219 40.425781 248.394531 39.652344 248.394531 C 37.5 250.605469 34.40625 250.605469 33.246094 250.605469 L 33.246094 251.710938 C 33.964844 251.710938 36.0625 251.710938 37.832031 250.824219 L 37.832031 268.957031 C 37.832031 270.226562 37.777344 270.617188 34.628906 270.617188 L 33.46875 270.617188 L 33.46875 271.722656 C 34.683594 271.609375 37.777344 271.609375 39.15625 271.609375 C 40.539062 271.609375 43.574219 271.609375 44.847656 271.722656 L 44.847656 270.617188 L 43.6875 270.617188 C 40.539062 270.617188 40.425781 270.226562 40.425781 268.957031 Z M 40.425781 249.277344 "/>
<path style=" stroke:none;fill-rule:nonzero;fill:rgb(0%,0%,0%);fill-opacity:1;" d="M 166.332031 269.011719 L 170.03125 265.417969 C 175.5 260.554688 177.597656 258.675781 177.597656 255.191406 C 177.597656 251.15625 174.449219 248.394531 170.140625 248.394531 C 166.21875 248.394531 163.625 251.601562 163.625 254.75 C 163.625 256.683594 165.335938 256.683594 165.445312 256.683594 C 166.054688 256.683594 167.269531 256.242188 167.269531 254.804688 C 167.269531 253.921875 166.660156 252.980469 165.445312 252.980469 C 165.171875 252.980469 165.058594 252.980469 164.949219 253.039062 C 165.777344 250.769531 167.65625 249.445312 169.699219 249.445312 C 172.902344 249.445312 174.394531 252.320312 174.394531 255.191406 C 174.394531 257.957031 172.628906 260.777344 170.695312 262.933594 L 164.011719 270.449219 C 163.625 270.835938 163.625 270.890625 163.625 271.722656 L 176.605469 271.722656 L 177.597656 265.640625 L 176.714844 265.640625 C 176.546875 266.691406 176.273438 268.238281 175.941406 268.734375 C 175.664062 269.011719 173.398438 269.011719 172.628906 269.011719 Z M 166.332031 269.011719 "/>
<path style=" stroke:none;fill-rule:nonzero;fill:rgb(0%,0%,0%);fill-opacity:1;" d="M 303.726562 259.394531 C 306.597656 258.453125 308.640625 255.96875 308.640625 253.203125 C 308.640625 250.328125 305.546875 248.394531 302.179688 248.394531 C 298.644531 248.394531 295.992188 250.496094 295.992188 253.148438 C 295.992188 254.308594 296.765625 254.972656 297.761719 254.972656 C 298.863281 254.972656 299.527344 254.199219 299.527344 253.203125 C 299.527344 251.433594 297.925781 251.433594 297.375 251.433594 C 298.476562 249.71875 300.796875 249.277344 302.011719 249.277344 C 303.449219 249.277344 305.382812 250.050781 305.382812 253.203125 C 305.382812 253.589844 305.328125 255.636719 304.445312 257.183594 C 303.394531 258.839844 302.179688 258.953125 301.296875 259.007812 C 301.019531 259.007812 300.191406 259.117188 299.914062 259.117188 C 299.636719 259.117188 299.417969 259.171875 299.417969 259.503906 C 299.417969 259.890625 299.636719 259.890625 300.246094 259.890625 L 301.792969 259.890625 C 304.664062 259.890625 305.933594 262.269531 305.933594 265.75 C 305.933594 270.503906 303.558594 271.5 302.011719 271.5 C 300.523438 271.5 297.871094 270.890625 296.65625 268.847656 C 297.871094 269.011719 298.976562 268.238281 298.976562 266.910156 C 298.976562 265.640625 298.035156 264.976562 296.988281 264.976562 C 296.160156 264.976562 295.054688 265.472656 295.054688 266.96875 C 295.054688 270.171875 298.3125 272.496094 302.125 272.496094 C 306.375 272.496094 309.582031 269.289062 309.582031 265.75 C 309.582031 262.875 307.371094 260.113281 303.726562 259.394531 Z M 303.726562 259.394531 "/>
<path style=" stroke:none;fill-rule:nonzero;fill:rgb(0%,0%,0%);fill-opacity:1;" d="M 435.542969 265.917969 L 435.542969 269.011719 C 435.542969 270.226562 435.488281 270.617188 432.890625 270.617188 L 432.171875 270.617188 L 432.171875 271.722656 C 433.609375 271.609375 435.429688 271.609375 436.867188 271.609375 C 438.359375 271.609375 440.238281 271.609375 441.671875 271.722656 L 441.671875 270.617188 L 440.898438 270.617188 C 438.304688 270.617188 438.25 270.226562 438.25 269.011719 L 438.25 265.917969 L 441.785156 265.917969 L 441.785156 264.867188 L 438.25 264.867188 L 438.25 248.890625 C 438.25 248.226562 438.25 248.007812 437.695312 248.007812 C 437.363281 248.007812 437.253906 248.007812 436.976562 248.394531 L 426.261719 264.867188 L 426.261719 265.917969 Z M 435.761719 264.867188 L 427.257812 264.867188 L 435.761719 251.765625 Z M 435.761719 264.867188 "/>
<path style=" stroke:none;fill-rule:nonzero;fill:rgb(0%,0%,0%);fill-opacity:1;" d="M 572.710938 264.699219 C 572.710938 260.5 569.839844 257.015625 566.03125 257.015625 C 564.371094 257.015625 562.882812 257.570312 561.609375 258.785156 L 561.609375 251.929688 C 562.273438 252.152344 563.433594 252.429688 564.59375 252.429688 C 568.902344 252.429688 571.332031 249.222656 571.332031 248.78125 C 571.332031 248.558594 571.222656 248.394531 571 248.394531 C 570.945312 248.394531 570.890625 248.394531 570.722656 248.503906 C 570.007812 248.78125 568.292969 249.5 565.917969 249.5 C 564.539062 249.5 562.9375 249.277344 561.28125 248.503906 C 561.003906 248.394531 560.949219 248.394531 560.835938 248.394531 C 560.507812 248.394531 560.507812 248.671875 560.507812 249.277344 L 560.507812 259.613281 C 560.507812 260.277344 560.507812 260.554688 561.003906 260.554688 C 561.222656 260.554688 561.335938 260.445312 561.445312 260.222656 C 561.832031 259.671875 563.15625 257.789062 565.972656 257.789062 C 567.796875 257.789062 568.679688 259.394531 568.957031 260.003906 C 569.507812 261.328125 569.5625 262.65625 569.5625 264.425781 C 569.5625 265.640625 569.5625 267.742188 568.734375 269.234375 C 567.90625 270.617188 566.582031 271.5 564.980469 271.5 C 562.4375 271.5 560.449219 269.675781 559.84375 267.574219 C 559.953125 267.628906 560.0625 267.628906 560.449219 267.628906 C 561.609375 267.628906 562.164062 266.800781 562.164062 265.917969 C 562.164062 265.085938 561.609375 264.203125 560.449219 264.203125 C 559.953125 264.203125 558.738281 264.480469 558.738281 266.082031 C 558.738281 269.066406 561.113281 272.496094 565.035156 272.496094 C 569.121094 272.496094 572.710938 269.121094 572.710938 264.699219 Z M 572.710938 264.699219 "/>
<path style="fill:none;stroke-width:0.39848;stroke-linecap:butt;stroke-linejoin:miter;stroke:rgb(0%,0%,0%);stroke-opacity:1;stroke-miterlimit:10;" d="M -74.940879 57.191873 L -74.940879 8.172137 " transform="matrix(3.51488,0,0,-3.517716,302.318339,262.958193)"/>
<path style="fill:none;stroke-width:0.39848;stroke-linecap:round;stroke-linejoin:round;stroke:rgb(0%,0%,0%);stroke-opacity:1;stroke-miterlimit:10;" d="M -2.072257 2.390549 C -1.694704 0.955801 -0.850761 0.280102 -0.00237712 0.00115394 C -0.850761 -0.277794 -1.694704 -0.956827 -2.072257 -2.390464 " transform="matrix(0,3.517716,3.51488,0,38.9061,234.9068)"/>
<path style="fill:none;stroke-width:0.39848;stroke-linecap:butt;stroke-linejoin:miter;stroke:rgb(0%,0%,0%);stroke-opacity:1;stroke-miterlimit:10;" d="M -37.470714 57.191873 L -37.470714 8.172137 " transform="matrix(3.51488,0,0,-3.517716,302.318339,262.958193)"/>
<path style="fill:none;stroke-width:0.39848;stroke-linecap:round;stroke-linejoin:round;stroke:rgb(0%,0%,0%);stroke-opacity:1;stroke-miterlimit:10;" d="M -2.072257 2.393026 C -1.694704 0.954944 -0.850761 0.279245 -0.00237712 0.000296982 C -0.850761 -0.278651 -1.694704 -0.957684 -2.072257 -2.392432 " transform="matrix(0,3.517716,3.51488,0,170.612237,234.9068)"/>
<path style="fill:none;stroke-width:0.39848;stroke-linecap:butt;stroke-linejoin:miter;stroke:rgb(0%,0%,0%);stroke-opacity:1;stroke-miterlimit:10;" d="M 2.305494 57.191873 C 10.186054 35.545858 26.764012 29.421722 34.50343 8.148818 " transform="matrix(3.51488,0,0,-3.517716,302.318339,262.958193)"/>
<path style="fill:none;stroke-width:0.39848;stroke-linecap:round;stroke-linejoin:round;stroke:rgb(0%,0%,0%);stroke-opacity:1;stroke-miterlimit:10;" d="M -2.071496 2.391631 C -1.695609 0.956722 -0.847588 0.280731 -0.001624 0.00117902 C -0.850358 -0.278133 -1.694288 -0.956064 -2.069946 -2.390287 " transform="matrix(1.20367,3.309785,3.307117,-1.204642,423.837899,234.948202)"/>
<path style="fill:none;stroke-width:0.39848;stroke-linecap:butt;stroke-linejoin:miter;stroke:rgb(0%,0%,0%);stroke-opacity:1;stroke-miterlimit:10;" d="M 35.166904 57.191873 C 27.286345 35.545858 10.708387 29.421722 2.965634 8.148818 " transform="matrix(3.51488,0,0,-3.517716,302.318339,262.958193)"/>
<path style="fill:none;stroke-width:0.39848;stroke-linecap:round;stroke-linejoin:round;stroke:rgb(0%,0%,0%);stroke-opacity:1;stroke-miterlimit:10;" d="M -2.07004 2.390545 C -1.694761 0.957365 -0.850831 0.279434 -0.00171792 -0.000920994 C -0.848061 -0.27943 -1.696082 -0.955421 -2.071969 -2.39033 " transform="matrix(-1.20367,3.309785,3.307117,1.204642,312.504884,234.948202)"/>
<path style="fill:none;stroke-width:0.39848;stroke-linecap:butt;stroke-linejoin:miter;stroke:rgb(0%,0%,0%);stroke-opacity:1;stroke-miterlimit:10;" d="M 74.943113 57.191873 L 74.943113 8.172137 " transform="matrix(3.51488,0,0,-3.517716,302.318339,262.958193)"/>
<path style="fill:none;stroke-width:0.39848;stroke-linecap:round;stroke-linejoin:round;stroke:rgb(0%,0%,0%);stroke-opacity:1;stroke-miterlimit:10;" d="M -2.072257 2.389364 C -1.694704 0.955727 -0.850761 0.280028 -0.00237712 0.00108025 C -0.850761 -0.277868 -1.694704 -0.958012 -2.072257 -2.391649 " transform="matrix(0,3.517716,3.51488,0,565.730578,234.9068)"/>
</g>
</svg>
