<?xml version="1.0" encoding="UTF-8"?>
<svg xmlns="http://www.w3.org/2000/svg" xmlns:xlink="http://www.w3.org/1999/xlink" width="900px" height="300px" viewBox="0 0 900 300" version="1.1">
<g id="surface1">
<path style=" stroke:none;fill-rule:nonzero;fill:rgb(0%,0%,0%);fill-opacity:1;" d="M 38.9375 25.308594 C 38.9375 24.460938 38.9375 24.410156 38.144531 24.410156 C 36.082031 26.578125 33.121094 26.578125 32.066406 26.578125 L 32.066406 27.582031 C 32.699219 27.582031 34.707031 27.582031 36.453125 26.734375 L 36.453125 44.121094 C 36.453125 45.335938 36.347656 45.707031 33.335938 45.707031 L 32.226562 45.707031 L 32.226562 46.761719 C 33.441406 46.65625 36.347656 46.65625 37.667969 46.65625 C 39.042969 46.65625 41.949219 46.65625 43.109375 46.761719 L 43.109375 45.707031 L 42.054688 45.707031 C 39.042969 45.707031 38.9375 45.335938 38.9375 44.121094 Z M 38.9375 25.308594 "/>
<path style=" stroke:none;fill-rule:nonzero;fill:rgb(0%,0%,0%);fill-opacity:1;" d="M 161.761719 38.359375 C 161.761719 37.410156 160.972656 36.617188 159.96875 36.617188 C 159.015625 36.617188 158.222656 37.410156 158.222656 38.359375 C 158.222656 39.363281 159.015625 40.15625 159.96875 40.15625 C 160.972656 40.15625 161.761719 39.363281 161.761719 38.359375 Z M 161.761719 38.359375 "/>
<path style=" stroke:none;fill-rule:nonzero;fill:rgb(0%,0%,0%);fill-opacity:1;" d="M 176.695312 38.359375 C 176.695312 37.410156 175.902344 36.617188 174.898438 36.617188 C 173.949219 36.617188 173.15625 37.410156 173.15625 38.359375 C 173.15625 39.363281 173.949219 40.15625 174.898438 40.15625 C 175.902344 40.15625 176.695312 39.363281 176.695312 38.359375 Z M 176.695312 38.359375 "/>
<path style=" stroke:none;fill-rule:nonzero;fill:rgb(0%,0%,0%);fill-opacity:1;" d="M 191.59375 38.359375 C 191.59375 37.410156 190.800781 36.617188 189.796875 36.617188 C 188.847656 36.617188 188.054688 37.410156 188.054688 38.359375 C 188.054688 39.363281 188.847656 40.15625 189.796875 40.15625 C 190.800781 40.15625 191.59375 39.363281 191.59375 38.359375 Z M 191.59375 38.359375 "/>
<path style=" stroke:none;fill-rule:nonzero;fill:rgb(0%,0%,0%);fill-opacity:1;" d="M 313.476562 25.785156 C 313.476562 25.097656 313 24.566406 312.261719 24.566406 C 311.363281 24.566406 310.464844 25.464844 310.464844 26.363281 C 310.464844 27 310.886719 27.582031 311.730469 27.582031 C 312.472656 27.582031 313.476562 26.789062 313.476562 25.785156 Z M 310.9375 38.414062 C 311.363281 37.410156 311.363281 37.355469 311.679688 36.457031 C 311.945312 35.769531 312.101562 35.296875 312.101562 34.660156 C 312.101562 33.183594 311.046875 31.914062 309.355469 31.914062 C 306.238281 31.914062 304.914062 36.773438 304.914062 37.09375 C 304.914062 37.410156 305.285156 37.410156 305.339844 37.410156 C 305.65625 37.410156 305.707031 37.355469 305.867188 36.828125 C 306.765625 33.65625 308.140625 32.652344 309.25 32.652344 C 309.511719 32.652344 310.09375 32.652344 310.09375 33.761719 C 310.09375 34.449219 309.882812 35.136719 309.722656 35.507812 C 309.460938 36.351562 307.980469 40.261719 307.398438 41.691406 C 307.082031 42.589844 306.660156 43.699219 306.660156 44.382812 C 306.660156 45.96875 307.769531 47.132812 309.40625 47.132812 C 312.578125 47.132812 313.792969 42.269531 313.792969 41.953125 C 313.792969 41.636719 313.476562 41.636719 313.371094 41.636719 C 313.054688 41.636719 313.054688 41.742188 312.894531 42.21875 C 312.261719 44.332031 311.203125 46.394531 309.460938 46.394531 C 308.878906 46.394531 308.667969 46.074219 308.667969 45.28125 C 308.667969 44.4375 308.878906 43.960938 309.617188 41.953125 Z M 310.9375 38.414062 "/>
<path style=" stroke:none;fill-rule:nonzero;fill:rgb(0%,0%,0%);fill-opacity:1;" d="M 431.453125 38.359375 C 431.453125 37.410156 430.660156 36.617188 429.65625 36.617188 C 428.707031 36.617188 427.914062 37.410156 427.914062 38.359375 C 427.914062 39.363281 428.707031 40.15625 429.65625 40.15625 C 430.660156 40.15625 431.453125 39.363281 431.453125 38.359375 Z M 431.453125 38.359375 "/>
<path style=" stroke:none;fill-rule:nonzero;fill:rgb(0%,0%,0%);fill-opacity:1;" d="M 446.386719 38.359375 C 446.386719 37.410156 445.59375 36.617188 444.589844 36.617188 C 443.636719 36.617188 442.847656 37.410156 442.847656 38.359375 C 442.847656 39.363281 443.636719 40.15625 444.589844 40.15625 C 445.59375 40.15625 446.386719 39.363281 446.386719 38.359375 Z M 446.386719 38.359375 "/>
<path style=" stroke:none;fill-rule:nonzero;fill:rgb(0%,0%,0%);fill-opacity:1;" d="M 461.285156 38.359375 C 461.285156 37.410156 460.492188 36.617188 459.488281 36.617188 C 458.539062 36.617188 457.746094 37.410156 457.746094 38.359375 C 457.746094 39.363281 458.539062 40.15625 459.488281 40.15625 C 460.492188 40.15625 461.285156 39.363281 461.285156 38.359375 Z M 461.285156 38.359375 "/>
<path style=" stroke:none;fill-rule:nonzero;fill:rgb(0%,0%,0%);fill-opacity:1;" d="M 586.96875 25.785156 C 586.96875 25.148438 586.492188 24.566406 585.699219 24.566406 C 584.90625 24.566406 583.902344 25.359375 583.902344 26.363281 C 583.902344 27.050781 584.378906 27.582031 585.171875 27.582031 C 586.070312 27.582031 586.96875 26.683594 586.96875 25.785156 Z M 580.203125 48.453125 C 579.570312 50.988281 577.984375 52.890625 576.082031 52.890625 C 575.921875 52.890625 575.394531 52.890625 574.8125 52.574219 C 575.816406 52.363281 576.292969 51.519531 576.292969 50.832031 C 576.292969 50.304688 575.921875 49.667969 575.023438 49.667969 C 574.179688 49.667969 573.226562 50.355469 573.226562 51.570312 C 573.226562 52.890625 574.550781 53.632812 576.1875 53.632812 C 578.511719 53.632812 581.628906 51.886719 582.476562 48.558594 L 585.539062 36.246094 C 585.753906 35.613281 585.753906 35.136719 585.753906 35.03125 C 585.753906 33.128906 584.324219 31.914062 582.632812 31.914062 C 579.199219 31.914062 577.296875 36.773438 577.296875 37.09375 C 577.296875 37.410156 577.667969 37.410156 577.71875 37.410156 C 578.035156 37.410156 578.035156 37.410156 578.300781 36.773438 C 579.148438 34.714844 580.679688 32.652344 582.527344 32.652344 C 583.003906 32.652344 583.636719 32.8125 583.636719 34.238281 C 583.636719 34.976562 583.53125 35.347656 583.375 35.929688 Z M 580.203125 48.453125 "/>
<path style=" stroke:none;fill-rule:nonzero;fill:rgb(0%,0%,0%);fill-opacity:1;" d="M 705.324219 44.964844 C 705.324219 44.015625 704.535156 43.222656 703.53125 43.222656 C 702.578125 43.222656 701.785156 44.015625 701.785156 44.964844 C 701.785156 45.96875 702.578125 46.761719 703.53125 46.761719 C 704.535156 46.761719 705.324219 45.96875 705.324219 44.964844 Z M 705.324219 44.964844 "/>
<path style=" stroke:none;fill-rule:nonzero;fill:rgb(0%,0%,0%);fill-opacity:1;" d="M 720.257812 44.964844 C 720.257812 44.015625 719.464844 43.222656 718.460938 43.222656 C 717.511719 43.222656 716.71875 44.015625 716.71875 44.964844 C 716.71875 45.96875 717.511719 46.761719 718.460938 46.761719 C 719.464844 46.761719 720.257812 45.96875 720.257812 44.964844 Z M 720.257812 44.964844 "/>
<path style=" stroke:none;fill-rule:nonzero;fill:rgb(0%,0%,0%);fill-opacity:1;" d="M 735.15625 44.964844 C 735.15625 44.015625 734.363281 43.222656 733.359375 43.222656 C 732.410156 43.222656 731.617188 44.015625 731.617188 44.964844 C 731.617188 45.96875 732.410156 46.761719 733.359375 46.761719 C 734.363281 46.761719 735.15625 45.96875 735.15625 44.964844 Z M 735.15625 44.964844 "/>
<path style=" stroke:none;fill-rule:nonzero;fill:rgb(0%,0%,0%);fill-opacity:1;" d="M 850.484375 44.808594 C 850.375 45.28125 850.164062 46.074219 850.164062 46.234375 C 850.164062 46.816406 850.640625 47.132812 851.167969 47.132812 C 851.539062 47.132812 852.171875 46.867188 852.386719 46.179688 C 852.4375 46.128906 852.808594 44.542969 853.019531 43.699219 L 853.757812 40.6875 C 853.96875 39.945312 854.179688 39.207031 854.339844 38.464844 C 854.445312 37.886719 854.761719 36.878906 854.761719 36.773438 C 855.292969 35.71875 857.035156 32.652344 860.257812 32.652344 C 861.738281 32.652344 862.054688 33.921875 862.054688 35.03125 C 862.054688 37.09375 860.417969 41.371094 859.886719 42.851562 C 859.570312 43.59375 859.519531 44.015625 859.519531 44.382812 C 859.519531 45.96875 860.734375 47.132812 862.265625 47.132812 C 865.4375 47.132812 866.707031 42.21875 866.707031 41.953125 C 866.707031 41.636719 866.386719 41.636719 866.28125 41.636719 C 865.964844 41.636719 865.964844 41.742188 865.753906 42.21875 C 865.121094 44.492188 864.011719 46.394531 862.371094 46.394531 C 861.789062 46.394531 861.527344 46.074219 861.527344 45.28125 C 861.527344 44.4375 861.84375 43.644531 862.160156 42.90625 C 862.796875 41.109375 864.222656 37.410156 864.222656 35.507812 C 864.222656 33.289062 862.742188 31.914062 860.363281 31.914062 C 857.300781 31.914062 855.660156 34.082031 855.132812 34.871094 C 854.921875 32.96875 853.546875 31.914062 852.015625 31.914062 C 850.484375 31.914062 849.847656 33.234375 849.476562 33.867188 C 848.949219 34.976562 848.472656 36.988281 848.472656 37.09375 C 848.472656 37.410156 848.84375 37.410156 848.898438 37.410156 C 849.214844 37.410156 849.265625 37.410156 849.476562 36.667969 C 850.058594 34.292969 850.695312 32.652344 851.910156 32.652344 C 852.597656 32.652344 852.964844 33.128906 852.964844 34.238281 C 852.964844 34.925781 852.859375 35.296875 852.4375 37.039062 Z M 850.484375 44.808594 "/>
<path style=" stroke:none;fill-rule:nonzero;fill:rgb(0%,0%,0%);fill-opacity:1;" d="M 38.9375 246.402344 C 38.9375 245.558594 38.9375 245.503906 38.144531 245.503906 C 36.082031 247.671875 33.121094 247.671875 32.066406 247.671875 L 32.066406 248.675781 C 32.699219 248.675781 34.707031 248.675781 36.453125 247.832031 L 36.453125 265.214844 C 36.453125 266.433594 36.347656 266.800781 33.335938 266.800781 L 32.226562 266.800781 L 32.226562 267.859375 C 33.441406 267.753906 36.347656 267.753906 37.667969 267.753906 C 39.042969 267.753906 41.949219 267.753906 43.109375 267.859375 L 43.109375 266.800781 L 42.054688 266.800781 C 39.042969 266.800781 38.9375 266.433594 38.9375 265.214844 Z M 38.9375 246.402344 "/>
<path style=" stroke:none;fill-rule:nonzero;fill:rgb(0%,0%,0%);fill-opacity:1;" d="M 161.765625 259.457031 C 161.765625 258.503906 160.972656 257.710938 159.96875 257.710938 C 159.019531 257.710938 158.226562 258.503906 158.226562 259.457031 C 158.226562 260.460938 159.019531 261.253906 159.96875 261.253906 C 160.972656 261.253906 161.765625 260.460938 161.765625 259.457031 Z M 161.765625 259.457031 "/>
<path style=" stroke:none;fill-rule:nonzero;fill:rgb(0%,0%,0%);fill-opacity:1;" d="M 176.699219 259.457031 C 176.699219 258.503906 175.90625 257.710938 174.902344 257.710938 C 173.953125 257.710938 173.160156 258.503906 173.160156 259.457031 C 173.160156 260.460938 173.953125 261.253906 174.902344 261.253906 C 175.90625 261.253906 176.699219 260.460938 176.699219 259.457031 Z M 176.699219 259.457031 "/>
<path style=" stroke:none;fill-rule:nonzero;fill:rgb(0%,0%,0%);fill-opacity:1;" d="M 191.597656 259.457031 C 191.597656 258.503906 190.804688 257.710938 189.800781 257.710938 C 188.851562 257.710938 188.058594 258.503906 188.058594 259.457031 C 188.058594 260.460938 188.851562 261.253906 189.800781 261.253906 C 190.804688 261.253906 191.597656 260.460938 191.597656 259.457031 Z M 191.597656 259.457031 "/>
<path style=" stroke:none;fill-rule:nonzero;fill:rgb(0%,0%,0%);fill-opacity:1;" d="M 313.476562 246.878906 C 313.476562 246.191406 313 245.664062 312.261719 245.664062 C 311.363281 245.664062 310.464844 246.5625 310.464844 247.460938 C 310.464844 248.09375 310.886719 248.675781 311.730469 248.675781 C 312.472656 248.675781 313.476562 247.882812 313.476562 246.878906 Z M 310.9375 259.507812 C 311.363281 258.503906 311.363281 258.453125 311.679688 257.554688 C 311.945312 256.867188 312.101562 256.390625 312.101562 255.757812 C 312.101562 254.277344 311.046875 253.007812 309.355469 253.007812 C 306.238281 253.007812 304.914062 257.871094 304.914062 258.1875 C 304.914062 258.503906 305.285156 258.503906 305.339844 258.503906 C 305.65625 258.503906 305.707031 258.453125 305.867188 257.925781 C 306.765625 254.753906 308.140625 253.75 309.25 253.75 C 309.511719 253.75 310.09375 253.75 310.09375 254.859375 C 310.09375 255.546875 309.882812 256.234375 309.722656 256.601562 C 309.460938 257.449219 307.980469 261.359375 307.398438 262.785156 C 307.082031 263.683594 306.660156 264.792969 306.660156 265.480469 C 306.660156 267.066406 307.769531 268.226562 309.40625 268.226562 C 312.578125 268.226562 313.792969 263.367188 313.792969 263.050781 C 313.792969 262.734375 313.476562 262.734375 313.371094 262.734375 C 313.054688 262.734375 313.054688 262.839844 312.894531 263.3125 C 312.261719 265.425781 311.203125 267.488281 309.460938 267.488281 C 308.878906 267.488281 308.667969 267.171875 308.667969 266.378906 C 308.667969 265.535156 308.878906 265.058594 309.617188 263.050781 Z M 310.9375 259.507812 "/>
<path style=" stroke:none;fill-rule:nonzero;fill:rgb(0%,0%,0%);fill-opacity:1;" d="M 431.453125 259.457031 C 431.453125 258.503906 430.660156 257.710938 429.65625 257.710938 C 428.707031 257.710938 427.914062 258.503906 427.914062 259.457031 C 427.914062 260.460938 428.707031 261.253906 429.65625 261.253906 C 430.660156 261.253906 431.453125 260.460938 431.453125 259.457031 Z M 431.453125 259.457031 "/>
<path style=" stroke:none;fill-rule:nonzero;fill:rgb(0%,0%,0%);fill-opacity:1;" d="M 446.386719 259.457031 C 446.386719 258.503906 445.59375 257.710938 444.589844 257.710938 C 443.636719 257.710938 442.847656 258.503906 442.847656 259.457031 C 442.847656 260.460938 443.636719 261.253906 444.589844 261.253906 C 445.59375 261.253906 446.386719 260.460938 446.386719 259.457031 Z M 446.386719 259.457031 "/>
<path style=" stroke:none;fill-rule:nonzero;fill:rgb(0%,0%,0%);fill-opacity:1;" d="M 461.285156 259.457031 C 461.285156 258.503906 460.492188 257.710938 459.488281 257.710938 C 458.539062 257.710938 457.746094 258.503906 457.746094 259.457031 C 457.746094 260.460938 458.539062 261.253906 459.488281 261.253906 C 460.492188 261.253906 461.285156 260.460938 461.285156 259.457031 Z M 461.285156 259.457031 "/>
<path style=" stroke:none;fill-rule:nonzero;fill:rgb(0%,0%,0%);fill-opacity:1;" d="M 586.96875 246.878906 C 586.96875 246.246094 586.492188 245.664062 585.699219 245.664062 C 584.90625 245.664062 583.902344 246.457031 583.902344 247.460938 C 583.902344 248.148438 584.378906 248.675781 585.171875 248.675781 C 586.070312 248.675781 586.96875 247.777344 586.96875 246.878906 Z M 580.203125 269.550781 C 579.570312 272.085938 577.984375 273.988281 576.082031 273.988281 C 575.921875 273.988281 575.394531 273.988281 574.8125 273.671875 C 575.816406 273.460938 576.292969 272.613281 576.292969 271.925781 C 576.292969 271.398438 575.921875 270.765625 575.023438 270.765625 C 574.179688 270.765625 573.226562 271.453125 573.226562 272.667969 C 573.226562 273.988281 574.550781 274.726562 576.1875 274.726562 C 578.511719 274.726562 581.628906 272.984375 582.476562 269.65625 L 585.539062 257.34375 C 585.753906 256.707031 585.753906 256.234375 585.753906 256.128906 C 585.753906 254.226562 584.324219 253.007812 582.632812 253.007812 C 579.199219 253.007812 577.296875 257.871094 577.296875 258.1875 C 577.296875 258.503906 577.667969 258.503906 577.71875 258.503906 C 578.035156 258.503906 578.035156 258.503906 578.300781 257.871094 C 579.148438 255.808594 580.679688 253.75 582.527344 253.75 C 583.003906 253.75 583.636719 253.90625 583.636719 255.335938 C 583.636719 256.074219 583.53125 256.445312 583.375 257.027344 Z M 580.203125 269.550781 "/>
<path style=" stroke:none;fill-rule:nonzero;fill:rgb(0%,0%,0%);fill-opacity:1;" d="M 705.324219 259.457031 C 705.324219 258.503906 704.535156 257.710938 703.53125 257.710938 C 702.578125 257.710938 701.785156 258.503906 701.785156 259.457031 C 701.785156 260.460938 702.578125 261.253906 703.53125 261.253906 C 704.535156 261.253906 705.324219 260.460938 705.324219 259.457031 Z M 705.324219 259.457031 "/>
<path style=" stroke:none;fill-rule:nonzero;fill:rgb(0%,0%,0%);fill-opacity:1;" d="M 720.257812 259.457031 C 720.257812 258.503906 719.464844 257.710938 718.460938 257.710938 C 717.511719 257.710938 716.71875 258.503906 716.71875 259.457031 C 716.71875 260.460938 717.511719 261.253906 718.460938 261.253906 C 719.464844 261.253906 720.257812 260.460938 720.257812 259.457031 Z M 720.257812 259.457031 "/>
<path style=" stroke:none;fill-rule:nonzero;fill:rgb(0%,0%,0%);fill-opacity:1;" d="M 735.15625 259.457031 C 735.15625 258.503906 734.363281 257.710938 733.359375 257.710938 C 732.410156 257.710938 731.617188 258.503906 731.617188 259.457031 C 731.617188 260.460938 732.410156 261.253906 733.359375 261.253906 C 734.363281 261.253906 735.15625 260.460938 735.15625 259.457031 Z M 735.15625 259.457031 "/>
<path style=" stroke:none;fill-rule:nonzero;fill:rgb(0%,0%,0%);fill-opacity:1;" d="M 850.484375 265.902344 C 850.375 266.378906 850.164062 267.171875 850.164062 267.332031 C 850.164062 267.910156 850.640625 268.226562 851.167969 268.226562 C 851.539062 268.226562 852.171875 267.964844 852.386719 267.277344 C 852.4375 267.222656 852.808594 265.640625 853.019531 264.792969 L 853.757812 261.78125 C 853.96875 261.042969 854.179688 260.300781 854.339844 259.5625 C 854.445312 258.980469 854.761719 257.976562 854.761719 257.871094 C 855.292969 256.8125 857.035156 253.75 860.257812 253.75 C 861.738281 253.75 862.054688 255.015625 862.054688 256.128906 C 862.054688 258.1875 860.417969 262.46875 859.886719 263.949219 C 859.570312 264.6875 859.519531 265.109375 859.519531 265.480469 C 859.519531 267.066406 860.734375 268.226562 862.265625 268.226562 C 865.4375 268.226562 866.707031 263.3125 866.707031 263.050781 C 866.707031 262.734375 866.386719 262.734375 866.28125 262.734375 C 865.964844 262.734375 865.964844 262.839844 865.753906 263.3125 C 865.121094 265.585938 864.011719 267.488281 862.371094 267.488281 C 861.789062 267.488281 861.527344 267.171875 861.527344 266.378906 C 861.527344 265.535156 861.84375 264.742188 862.160156 264 C 862.796875 262.203125 864.222656 258.503906 864.222656 256.601562 C 864.222656 254.382812 862.742188 253.007812 860.363281 253.007812 C 857.300781 253.007812 855.660156 255.175781 855.132812 255.96875 C 854.921875 254.066406 853.546875 253.007812 852.015625 253.007812 C 850.484375 253.007812 849.847656 254.332031 849.476562 254.964844 C 848.949219 256.074219 848.472656 258.082031 848.472656 258.1875 C 848.472656 258.503906 848.84375 258.503906 848.898438 258.503906 C 849.214844 258.503906 849.265625 258.503906 849.476562 257.765625 C 850.058594 255.386719 850.695312 253.75 851.910156 253.75 C 852.597656 253.75 852.964844 254.226562 852.964844 255.335938 C 852.964844 256.023438 852.859375 256.390625 852.4375 258.136719 Z M 850.484375 265.902344 "/>
<path style="fill:none;stroke-width:0.39848;stroke-linecap:butt;stroke-linejoin:miter;stroke:rgb(0%,0%,0%);stroke-opacity:1;stroke-miterlimit:10;" d="M -121.946 59.278272 L -121.946 8.174813 " transform="matrix(3.369696,0,0,-3.369696,448.362362,259.464603)"/>
<path style="fill:none;stroke-width:0.39848;stroke-linecap:round;stroke-linejoin:round;stroke:rgb(0%,0%,0%);stroke-opacity:1;stroke-miterlimit:10;" d="M -2.070327 2.391835 C -1.694736 0.956709 -0.850818 0.27856 -0.00110251 0.000344782 C -0.850818 -0.279029 -1.694736 -0.957179 -2.070327 -2.391145 " transform="matrix(0,3.369696,3.369696,0,37.440244,232.593559)"/>
<path style="fill:none;stroke-width:0.39848;stroke-linecap:butt;stroke-linejoin:miter;stroke:rgb(0%,0%,0%);stroke-opacity:1;stroke-miterlimit:10;" d="M -41.137293 59.278272 C -41.137293 22.026442 39.519555 45.176249 39.519555 8.324353 " transform="matrix(3.369696,0,0,-3.369696,448.362362,259.464603)"/>
<path style="fill:none;stroke-width:0.39848;stroke-linecap:round;stroke-linejoin:round;stroke:rgb(0%,0%,0%);stroke-opacity:1;stroke-miterlimit:10;" d="M -2.073079 2.389511 C -1.692852 0.957863 -0.850092 0.279713 0.000781909 0.00149849 C -0.850092 -0.280194 -1.692852 -0.954866 -2.073079 -2.389991 " transform="matrix(0,3.369696,3.369696,0,581.526201,232.087209)"/>
<path style="fill:none;stroke-width:0.39848;stroke-linecap:butt;stroke-linejoin:miter;stroke:rgb(0%,0%,0%);stroke-opacity:1;stroke-miterlimit:10;" d="M 39.519555 57.342359 C 39.519555 20.430184 -41.137293 44.835436 -41.137293 8.324353 " transform="matrix(3.369696,0,0,-3.369696,448.362362,259.464603)"/>
<path style="fill:none;stroke-width:0.39848;stroke-linecap:round;stroke-linejoin:round;stroke:rgb(0%,0%,0%);stroke-opacity:1;stroke-miterlimit:10;" d="M -2.073079 2.391255 C -1.692852 0.957288 -0.850092 0.27798 0.000781909 -0.000234807 C -0.850092 -0.27845 -1.692852 -0.956599 -2.073079 -2.391725 " transform="matrix(0,3.369696,3.369696,0,309.742979,232.087209)"/>
<path style="fill:none;stroke-width:0.39848;stroke-linecap:butt;stroke-linejoin:miter;stroke:rgb(0%,0%,0%);stroke-opacity:1;stroke-miterlimit:10;" d="M 121.446918 59.278272 L 121.446918 6.041831 " transform="matrix(3.369696,0,0,-3.369696,448.362362,259.464603)"/>
<path style="fill:none;stroke-width:0.39848;stroke-linecap:round;stroke-linejoin:round;stroke:rgb(0%,0%,0%);stroke-opacity:1;stroke-miterlimit:10;" d="M -2.072901 2.391378 C -1.692674 0.956252 -0.849914 0.278103 0.000960046 -0.000112153 C -0.849914 -0.278327 -1.692674 -0.956476 -2.072901 -2.391602 " transform="matrix(0,3.369696,3.369696,0,857.60194,239.774109)"/>
<path style="fill:none;stroke-width:0.3985;stroke-linecap:butt;stroke-linejoin:miter;stroke:rgb(0%,0%,0%);stroke-opacity:1;stroke-miterlimit:10;" d="M -28.348677 53.860035 L -28.348677 14.572599 " transform="matrix(3.369696,0,0,-3.369696,448.362362,259.464603)"/>
<path style="fill:none;stroke-width:0.3985;stroke-linecap:round;stroke-linejoin:round;stroke:rgb(0%,0%,0%);stroke-opacity:1;stroke-miterlimit:10;" d="M -2.070963 2.389632 C -1.694213 0.955665 -0.851454 0.280994 -0.000579457 -0.00185781 C -0.851454 -0.280073 -1.694213 -0.958222 -2.070963 -2.393348 " transform="matrix(0,3.369696,3.369696,0,352.842198,211.033203)"/>
<path style="fill:none;stroke-width:0.3985;stroke-linecap:butt;stroke-linejoin:miter;stroke:rgb(0%,0%,0%);stroke-opacity:1;stroke-miterlimit:10;" d="M -21.25999 48.187926 L -21.25999 20.242389 " transform="matrix(3.369696,0,0,-3.369696,448.362362,259.464603)"/>
<path style="fill:none;stroke-width:0.3985;stroke-linecap:round;stroke-linejoin:round;stroke:rgb(0%,0%,0%);stroke-opacity:1;stroke-miterlimit:10;" d="M -2.0703 2.391616 C -1.693551 0.95649 -0.850791 0.278341 0.0000831756 0.000125828 C -0.850791 -0.278089 -1.693551 -0.956238 -2.0703 -2.391364 " transform="matrix(0,3.369696,3.369696,0,376.722232,191.929407)"/>
<path style="fill:none;stroke-width:0.3985;stroke-linecap:butt;stroke-linejoin:miter;stroke:rgb(0%,0%,0%);stroke-opacity:1;stroke-miterlimit:10;" d="M -14.171304 42.518136 L -14.171304 25.911019 " transform="matrix(3.369696,0,0,-3.369696,448.362362,259.464603)"/>
<path style="fill:none;stroke-width:0.3985;stroke-linecap:round;stroke-linejoin:round;stroke:rgb(0%,0%,0%);stroke-opacity:1;stroke-miterlimit:10;" d="M -2.074286 2.388947 C -1.694059 0.958458 -0.851299 0.280309 -0.000424907 0.00209415 C -0.851299 -0.280758 -1.694059 -0.955429 -2.074286 -2.389396 " transform="matrix(0,3.369696,3.369696,0,400.602318,172.825651)"/>
<path style="fill:none;stroke-width:0.3985;stroke-linecap:butt;stroke-linejoin:miter;stroke:rgb(0%,0%,0%);stroke-opacity:1;stroke-miterlimit:10;" d="M 28.345745 53.860035 L 28.345745 14.572599 " transform="matrix(3.369696,0,0,-3.369696,448.362362,259.464603)"/>
<path style="fill:none;stroke-width:0.3985;stroke-linecap:round;stroke-linejoin:round;stroke:rgb(0%,0%,0%);stroke-opacity:1;stroke-miterlimit:10;" d="M -2.070963 2.390439 C -1.694213 0.956472 -0.851454 0.278323 -0.000579457 -0.00105103 C -0.851454 -0.279266 -1.694213 -0.957415 -2.070963 -2.392541 " transform="matrix(0,3.369696,3.369696,0,543.882448,211.033203)"/>
<path style="fill:none;stroke-width:0.3985;stroke-linecap:butt;stroke-linejoin:miter;stroke:rgb(0%,0%,0%);stroke-opacity:1;stroke-miterlimit:10;" d="M 21.261695 48.187926 L 21.261695 20.242389 " transform="matrix(3.369696,0,0,-3.369696,448.362362,259.464603)"/>
<path style="fill:none;stroke-width:0.3985;stroke-linecap:round;stroke-linejoin:round;stroke:rgb(0%,0%,0%);stroke-opacity:1;stroke-miterlimit:10;" d="M -2.0703 2.389599 C -1.693551 0.954473 -0.850791 0.279802 0.0000831756 0.00158694 C -0.850791 -0.280106 -1.693551 -0.954777 -2.0703 -2.389903 " transform="matrix(0,3.369696,3.369696,0,520.002465,191.929407)"/>
<path style="fill:none;stroke-width:0.3985;stroke-linecap:butt;stroke-linejoin:miter;stroke:rgb(0%,0%,0%);stroke-opacity:1;stroke-miterlimit:10;" d="M 14.174168 42.518136 L 14.174168 25.911019 " transform="matrix(3.369696,0,0,-3.369696,448.362362,259.464603)"/>
<path style="fill:none;stroke-width:0.3985;stroke-linecap:round;stroke-linejoin:round;stroke:rgb(0%,0%,0%);stroke-opacity:1;stroke-miterlimit:10;" d="M -2.074286 2.392268 C -1.694059 0.957142 -0.851299 0.278993 -0.000424907 0.000777842 C -0.851299 -0.278596 -1.694059 -0.956745 -2.074286 -2.390712 " transform="matrix(0,3.369696,3.369696,0,496.122379,172.825651)"/>
</g>
</svg>
