<?xml version="1.0" encoding="UTF-8"?>
<svg xmlns="http://www.w3.org/2000/svg" xmlns:xlink="http://www.w3.org/1999/xlink" width="499px" height="300px" viewBox="0 0 499 300" version="1.1">
<defs>
<clipPath id="clip1">
  <path d="M 0.460938 0.203125 L 496.894531 0.203125 L 496.894531 299.222656 L 0.460938 299.222656 Z M 0.460938 0.203125 "/>
</clipPath>
</defs>
<g id="surface1">
<path style=" stroke:none;fill-rule:nonzero;fill:rgb(80.000001%,80.000001%,100%);fill-opacity:1;" d="M 298.046875 149.714844 C 298.046875 67.90625 231.746094 1.597656 149.949219 1.597656 C 68.15625 1.597656 1.839844 67.90625 1.839844 149.714844 C 1.839844 231.519531 68.15625 297.828125 149.949219 297.828125 C 231.746094 297.828125 298.046875 231.519531 298.046875 149.714844 Z M 495.515625 149.714844 C 495.515625 67.90625 429.214844 1.597656 347.421875 1.597656 C 265.625 1.597656 199.308594 67.90625 199.308594 149.714844 C 199.308594 231.519531 265.625 297.828125 347.421875 297.828125 C 429.214844 297.828125 495.515625 231.519531 495.515625 149.714844 Z M 495.515625 149.714844 "/>
<g clip-path="url(#clip1)" clip-rule="nonzero">
<path style="fill:none;stroke-width:0.79701;stroke-linecap:butt;stroke-linejoin:miter;stroke:rgb(0%,0%,0%);stroke-opacity:1;stroke-miterlimit:10;" d="M 42.519975 -0.00014145 C 42.519975 23.484291 23.484807 42.519206 0.000660486 42.519206 C -23.482364 42.519206 -42.522018 23.484291 -42.522018 -0.00014145 C -42.522018 -23.483452 -23.482364 -42.518367 0.000660486 -42.518367 C 23.484807 -42.518367 42.519975 -23.483452 42.519975 -0.00014145 Z M 99.213889 -0.00014145 C 99.213889 23.484291 80.178721 42.519206 56.695696 42.519206 C 33.21155 42.519206 14.171896 23.484291 14.171896 -0.00014145 C 14.171896 -23.483452 33.21155 -42.518367 56.695696 -42.518367 C 80.178721 -42.518367 99.213889 -23.483452 99.213889 -0.00014145 Z M 99.213889 -0.00014145 " transform="matrix(3.483068,0,0,-3.483524,149.946918,149.714351)"/>
</g>
<path style=" stroke:none;fill-rule:nonzero;fill:rgb(0%,0%,0%);fill-opacity:1;" d="M 143.160156 157.585938 C 141.738281 159.878906 140.429688 160.371094 138.898438 160.480469 C 138.464844 160.535156 138.136719 160.535156 138.136719 161.191406 C 138.136719 161.410156 138.300781 161.574219 138.625 161.574219 C 139.554688 161.574219 140.59375 161.464844 141.574219 161.464844 C 142.722656 161.464844 143.921875 161.574219 145.070312 161.574219 C 145.289062 161.574219 145.726562 161.574219 145.726562 160.917969 C 145.726562 160.535156 145.398438 160.480469 145.179688 160.480469 C 144.359375 160.425781 143.542969 160.152344 143.542969 159.277344 C 143.542969 158.839844 143.757812 158.460938 144.03125 157.96875 L 146.652344 153.542969 L 155.390625 153.542969 C 155.445312 154.253906 155.9375 159.003906 155.9375 159.332031 C 155.9375 160.371094 154.132812 160.480469 153.425781 160.480469 C 152.933594 160.480469 152.605469 160.480469 152.605469 161.191406 C 152.605469 161.574219 152.988281 161.574219 153.097656 161.574219 C 154.515625 161.574219 155.992188 161.464844 157.410156 161.464844 C 158.285156 161.464844 160.46875 161.574219 161.339844 161.574219 C 161.558594 161.574219 161.996094 161.574219 161.996094 160.863281 C 161.996094 160.480469 161.613281 160.480469 161.179688 160.480469 C 158.992188 160.480469 158.992188 160.261719 158.9375 159.222656 L 156.808594 137.542969 C 156.753906 136.832031 156.753906 136.726562 156.15625 136.726562 C 155.609375 136.726562 155.445312 136.941406 155.226562 137.269531 Z M 147.308594 152.453125 L 154.132812 140.984375 L 155.28125 152.453125 Z M 147.308594 152.453125 "/>
<path style=" stroke:none;fill-rule:nonzero;fill:rgb(0%,0%,0%);fill-opacity:1;" d="M 338.953125 158.839844 C 338.570312 160.207031 338.515625 160.480469 335.785156 160.480469 C 335.183594 160.480469 334.855469 160.480469 334.855469 161.191406 C 334.855469 161.574219 335.128906 161.574219 335.785156 161.574219 L 348.179688 161.574219 C 353.640625 161.574219 357.734375 157.476562 357.734375 154.089844 C 357.734375 151.578125 355.769531 149.558594 352.382812 149.175781 C 355.988281 148.519531 359.648438 145.953125 359.648438 142.621094 C 359.648438 140.054688 357.351562 137.871094 353.203125 137.871094 L 341.519531 137.871094 C 340.863281 137.871094 340.480469 137.871094 340.480469 138.527344 C 340.480469 138.910156 340.808594 138.910156 341.464844 138.910156 C 341.519531 138.910156 342.226562 138.910156 342.773438 139.019531 C 343.429688 139.074219 343.757812 139.128906 343.757812 139.566406 C 343.757812 139.671875 343.703125 139.78125 343.59375 140.21875 Z M 344.195312 148.847656 L 346.324219 140.21875 C 346.652344 139.019531 346.707031 138.910156 348.234375 138.910156 L 352.710938 138.910156 C 355.769531 138.910156 356.480469 140.984375 356.480469 142.511719 C 356.480469 145.570312 353.476562 148.847656 349.273438 148.847656 Z M 342.609375 160.480469 C 342.121094 160.480469 342.066406 160.480469 341.847656 160.480469 C 341.519531 160.425781 341.410156 160.371094 341.410156 160.097656 C 341.410156 159.988281 341.410156 159.933594 341.574219 159.332031 L 343.976562 149.613281 L 350.527344 149.613281 C 353.859375 149.613281 354.515625 152.179688 354.515625 153.707031 C 354.515625 157.148438 351.457031 160.480469 347.359375 160.480469 Z M 342.609375 160.480469 "/>
</g>
</svg>
