<?xml version="1.0" encoding="UTF-8"?>
<svg xmlns="http://www.w3.org/2000/svg" xmlns:xlink="http://www.w3.org/1999/xlink" width="300px" height="300px" viewBox="0 0 300 300" version="1.1">
<defs>
<clipPath id="clip1">
  <path d="M 0 0 L 299.4375 0 L 299.4375 299.4375 L 0 299.4375 Z M 0 0 "/>
</clipPath>
</defs>
<g id="surface1">
<g clip-path="url(#clip1)" clip-rule="nonzero">
<path style="fill:none;stroke-width:0.3985;stroke-linecap:butt;stroke-linejoin:miter;stroke:rgb(0%,0%,0%);stroke-opacity:1;stroke-miterlimit:10;" d="M -0.0000938103 -0.00085315 L 113.386887 -0.00085315 L 113.386887 113.386128 L -0.0000938103 113.386128 Z M -0.0000938103 -0.00085315 " transform="matrix(2.631578,0,0,-2.631578,0.523684,298.907911)"/>
</g>
<path style="fill-rule:nonzero;fill:rgb(50.196081%,83.92157%,96.862745%);fill-opacity:0.7;stroke-width:0.3985;stroke-linecap:butt;stroke-linejoin:miter;stroke:rgb(0%,0%,0%);stroke-opacity:0.7;stroke-miterlimit:10;" d="M 86.582037 56.691895 C 86.582037 73.199633 73.201877 86.581277 56.694139 86.581277 C 40.1864 86.581277 26.804756 73.199633 26.804756 56.691895 C 26.804756 40.18861 40.1864 26.803997 56.694139 26.803997 C 73.201877 26.803997 86.582037 40.18861 86.582037 56.691895 Z M 86.582037 56.691895 " transform="matrix(2.631578,0,0,-2.631578,0.523684,298.907911)"/>
<path style=" stroke:none;fill-rule:nonzero;fill:rgb(0%,0%,0%);fill-opacity:0.7;" d="M 144.582031 155.667969 C 143.507812 157.398438 142.519531 157.765625 141.367188 157.851562 C 141.039062 157.890625 140.789062 157.890625 140.789062 158.386719 C 140.789062 158.550781 140.914062 158.671875 141.160156 158.671875 C 141.863281 158.671875 142.644531 158.589844 143.386719 158.589844 C 144.25 158.589844 145.15625 158.671875 146.023438 158.671875 C 146.1875 158.671875 146.515625 158.671875 146.515625 158.179688 C 146.515625 157.890625 146.269531 157.851562 146.105469 157.851562 C 145.488281 157.808594 144.867188 157.601562 144.867188 156.945312 C 144.867188 156.613281 145.035156 156.324219 145.238281 155.953125 L 147.21875 152.617188 L 153.808594 152.617188 C 153.851562 153.152344 154.21875 156.738281 154.21875 156.984375 C 154.21875 157.765625 152.859375 157.851562 152.324219 157.851562 C 151.953125 157.851562 151.707031 157.851562 151.707031 158.386719 C 151.707031 158.671875 151.996094 158.671875 152.078125 158.671875 C 153.148438 158.671875 154.261719 158.589844 155.332031 158.589844 C 155.992188 158.589844 157.640625 158.671875 158.300781 158.671875 C 158.464844 158.671875 158.792969 158.671875 158.792969 158.136719 C 158.792969 157.851562 158.503906 157.851562 158.175781 157.851562 C 156.527344 157.851562 156.527344 157.683594 156.488281 156.902344 L 154.878906 140.546875 C 154.839844 140.011719 154.839844 139.929688 154.386719 139.929688 C 153.972656 139.929688 153.851562 140.09375 153.683594 140.339844 Z M 147.710938 151.792969 L 152.859375 143.144531 L 153.726562 151.792969 Z M 147.710938 151.792969 "/>
<path style="fill-rule:nonzero;fill:rgb(100%,87.450981%,87.450981%);fill-opacity:0.7;stroke-width:0.3985;stroke-linecap:butt;stroke-linejoin:miter;stroke:rgb(0%,0%,0%);stroke-opacity:0.7;stroke-miterlimit:10;" d="M 104.275791 85.039011 C 104.275791 93.292138 93.126648 99.985187 79.369457 99.985187 C 65.616719 99.985187 54.463123 93.292138 54.463123 85.039011 C 54.463123 76.788853 65.616719 70.095805 79.369457 70.095805 C 93.126648 70.095805 104.275791 76.788853 104.275791 85.039011 Z M 104.275791 85.039011 " transform="matrix(2.631578,0,0,-2.631578,0.523684,298.907911)"/>
<path style=" stroke:none;fill-rule:nonzero;fill:rgb(0%,0%,0%);fill-opacity:0.7;" d="M 222.855469 82.015625 C 222.570312 83.046875 222.527344 83.253906 220.46875 83.253906 C 220.015625 83.253906 219.765625 83.253906 219.765625 83.789062 C 219.765625 84.078125 219.972656 84.078125 220.46875 84.078125 L 229.820312 84.078125 C 233.9375 84.078125 237.027344 80.988281 237.027344 78.433594 C 237.027344 76.539062 235.546875 75.011719 232.992188 74.726562 C 235.710938 74.230469 238.472656 72.292969 238.472656 69.78125 C 238.472656 67.84375 236.742188 66.195312 233.609375 66.195312 L 224.792969 66.195312 C 224.300781 66.195312 224.011719 66.195312 224.011719 66.691406 C 224.011719 66.980469 224.257812 66.980469 224.753906 66.980469 C 224.792969 66.980469 225.328125 66.980469 225.742188 67.0625 C 226.234375 67.101562 226.484375 67.144531 226.484375 67.472656 C 226.484375 67.554688 226.441406 67.640625 226.359375 67.96875 Z M 226.8125 74.476562 L 228.417969 67.96875 C 228.664062 67.0625 228.707031 66.980469 229.859375 66.980469 L 233.238281 66.980469 C 235.546875 66.980469 236.082031 68.546875 236.082031 69.699219 C 236.082031 72.003906 233.816406 74.476562 230.644531 74.476562 Z M 225.617188 83.253906 C 225.246094 83.253906 225.207031 83.253906 225.039062 83.253906 C 224.792969 83.210938 224.710938 83.171875 224.710938 82.964844 C 224.710938 82.882812 224.710938 82.839844 224.835938 82.386719 L 226.648438 75.054688 L 231.589844 75.054688 C 234.105469 75.054688 234.597656 76.992188 234.597656 78.144531 C 234.597656 80.738281 232.292969 83.253906 229.203125 83.253906 Z M 225.617188 83.253906 "/>
<path style="fill-rule:nonzero;fill:rgb(78.039217%,75.686276%,39.215687%);fill-opacity:0.7;stroke-width:0.3985;stroke-linecap:butt;stroke-linejoin:miter;stroke:rgb(0%,0%,0%);stroke-opacity:0.7;stroke-miterlimit:10;" d="M 29.807648 19.840792 C 29.807648 25.343372 25.345616 29.805404 19.843036 29.805404 C 14.340457 29.805404 9.878424 25.343372 9.878424 19.840792 C 9.878424 14.338213 14.340457 9.880634 19.843036 9.880634 C 25.345616 9.880634 29.807648 14.338213 29.807648 19.840792 Z M 29.807648 19.840792 " transform="matrix(2.631578,0,0,-2.631578,0.523684,298.907911)"/>
<path style=" stroke:none;fill-rule:nonzero;fill:rgb(0%,0%,0%);fill-opacity:0.7;" d="M 62.332031 237.4375 C 62.332031 237.355469 62.289062 237.191406 62.042969 237.191406 C 61.960938 237.191406 61.960938 237.191406 61.671875 237.480469 L 59.820312 239.5 C 59.613281 239.128906 58.378906 237.191406 55.492188 237.191406 C 49.644531 237.191406 43.753906 242.957031 43.753906 249.054688 C 43.753906 253.382812 46.84375 256.222656 50.839844 256.222656 C 53.105469 256.222656 55.121094 255.195312 56.523438 253.957031 C 58.953125 251.816406 59.367188 249.425781 59.367188 249.34375 C 59.367188 249.097656 59.117188 249.097656 59.078125 249.097656 C 58.914062 249.097656 58.789062 249.136719 58.746094 249.34375 C 58.5 250.128906 57.882812 251.980469 56.070312 253.503906 C 54.257812 254.945312 52.609375 255.398438 51.25 255.398438 C 48.902344 255.398438 46.140625 254.039062 46.140625 249.960938 C 46.140625 248.480469 46.675781 244.234375 49.3125 241.144531 C 50.878906 239.292969 53.351562 237.972656 55.699219 237.972656 C 58.378906 237.972656 59.902344 239.992188 59.902344 243.042969 C 59.902344 244.113281 59.820312 244.113281 59.820312 244.402344 C 59.820312 244.648438 60.109375 244.648438 60.230469 244.648438 C 60.5625 244.648438 60.5625 244.605469 60.683594 244.113281 Z M 62.332031 237.4375 "/>
<path style=" stroke:none;fill-rule:nonzero;fill:rgb(0%,0%,0%);fill-opacity:1;" d="M 29.167969 16.699219 C 29.414062 15.628906 29.910156 14.847656 32.007812 14.765625 C 32.132812 14.765625 32.421875 14.765625 32.421875 14.269531 C 32.421875 14.226562 32.421875 13.980469 32.09375 13.980469 C 31.226562 13.980469 30.320312 14.0625 29.414062 14.0625 C 28.550781 14.0625 27.558594 13.980469 26.695312 13.980469 C 26.53125 13.980469 26.242188 13.980469 26.242188 14.476562 C 26.242188 14.765625 26.488281 14.765625 26.695312 14.765625 C 28.179688 14.804688 28.464844 15.339844 28.464844 15.917969 C 28.464844 16 28.425781 16.410156 28.382812 16.496094 L 26.035156 25.847656 C 25.171875 29.347656 22.121094 31.613281 19.527344 31.613281 C 17.753906 31.613281 16.3125 30.460938 16.3125 28.234375 C 16.3125 28.152344 16.3125 27.328125 16.601562 26.175781 L 19.15625 16 C 19.402344 15.050781 19.445312 14.765625 21.339844 14.765625 C 22.039062 14.765625 22.246094 14.765625 22.246094 14.269531 C 22.246094 13.980469 21.957031 13.980469 21.875 13.980469 C 21.132812 13.980469 19.238281 14.0625 18.539062 14.0625 C 17.753906 14.0625 15.902344 13.980469 15.160156 13.980469 C 14.953125 13.980469 14.664062 13.980469 14.664062 14.476562 C 14.664062 14.765625 14.871094 14.765625 15.367188 14.765625 C 15.449219 14.765625 15.941406 14.765625 16.355469 14.847656 C 16.847656 14.886719 17.097656 14.929688 17.097656 15.257812 C 17.097656 15.421875 16.808594 16.496094 16.644531 17.113281 L 16.066406 19.417969 C 15.820312 20.449219 14.582031 25.394531 14.460938 25.886719 C 14.296875 26.628906 14.296875 27 14.296875 27.410156 C 14.296875 30.582031 16.644531 32.4375 19.402344 32.4375 C 22.699219 32.4375 25.953125 29.472656 26.820312 26.011719 Z M 29.167969 16.699219 "/>
</g>
</svg>
