<?xml version="1.0" encoding="UTF-8"?>
<svg xmlns="http://www.w3.org/2000/svg" xmlns:xlink="http://www.w3.org/1999/xlink" width="300pt" height="300pt" viewBox="0 0 300 300" version="1.1">
<defs>
<clipPath id="clip1">
  <path d="M 0 0 L 299.921875 0 L 299.921875 299.921875 L 0 299.921875 Z M 0 0 "/>
</clipPath>
</defs>
<g id="surface1">
<g clip-path="url(#clip1)" clip-rule="nonzero">
<path style="fill:none;stroke-width:0.3985;stroke-linecap:butt;stroke-linejoin:miter;stroke:rgb(0%,0%,0%);stroke-opacity:1;stroke-miterlimit:10;" d="M 0.00106652 -0.000944957 L 113.386974 -0.000944957 L 113.386974 113.384963 L 0.00106652 113.384963 Z M 0.00106652 -0.000944957 " transform="matrix(2.635841,0,0,-2.635841,0.524533,299.39204)"/>
</g>
<path style="fill-rule:nonzero;fill:rgb(50.196078%,83.921569%,96.862745%);fill-opacity:0.701961;stroke-width:0.3985;stroke-linecap:butt;stroke-linejoin:miter;stroke:rgb(0%,0%,0%);stroke-opacity:0.701961;stroke-miterlimit:10;" d="M 86.582492 56.692009 C 86.582492 73.199729 73.20174 86.580481 56.694021 86.580481 C 40.186301 86.580481 26.805549 73.199729 26.805549 56.692009 C 26.805549 40.188735 40.186301 26.803537 56.694021 26.803537 C 73.20174 26.803537 86.582492 40.188735 86.582492 56.692009 Z M 86.582492 56.692009 " transform="matrix(2.635841,0,0,-2.635841,0.524533,299.39204)"/>
<path style=" stroke:none;fill-rule:nonzero;fill:rgb(0%,0%,0%);fill-opacity:0.701961;" d="M 144.816406 155.917969 C 143.742188 157.652344 142.75 158.023438 141.597656 158.105469 C 141.265625 158.148438 141.019531 158.148438 141.019531 158.640625 C 141.019531 158.808594 141.140625 158.929688 141.390625 158.929688 C 142.089844 158.929688 142.875 158.847656 143.617188 158.847656 C 144.484375 158.847656 145.390625 158.929688 146.257812 158.929688 C 146.425781 158.929688 146.753906 158.929688 146.753906 158.433594 C 146.753906 158.148438 146.507812 158.105469 146.339844 158.105469 C 145.722656 158.0625 145.105469 157.859375 145.105469 157.199219 C 145.105469 156.867188 145.269531 156.578125 145.476562 156.207031 L 147.457031 152.863281 L 154.058594 152.863281 C 154.097656 153.402344 154.46875 156.992188 154.46875 157.238281 C 154.46875 158.023438 153.109375 158.105469 152.574219 158.105469 C 152.199219 158.105469 151.953125 158.105469 151.953125 158.640625 C 151.953125 158.929688 152.242188 158.929688 152.324219 158.929688 C 153.398438 158.929688 154.511719 158.847656 155.585938 158.847656 C 156.246094 158.847656 157.894531 158.929688 158.554688 158.929688 C 158.71875 158.929688 159.050781 158.929688 159.050781 158.394531 C 159.050781 158.105469 158.761719 158.105469 158.433594 158.105469 C 156.78125 158.105469 156.78125 157.941406 156.738281 157.15625 L 155.128906 140.773438 C 155.089844 140.238281 155.089844 140.15625 154.636719 140.15625 C 154.222656 140.15625 154.097656 140.320312 153.933594 140.570312 Z M 147.949219 152.039062 L 153.109375 143.375 L 153.976562 152.039062 Z M 147.949219 152.039062 "/>
<path style="fill-rule:nonzero;fill:rgb(100%,87.45098%,87.45098%);fill-opacity:0.701961;stroke-width:0.3985;stroke-linecap:butt;stroke-linejoin:miter;stroke:rgb(0%,0%,0%);stroke-opacity:0.701961;stroke-miterlimit:10;" d="M 104.275792 85.039227 C 104.275792 93.292346 93.126894 99.984945 79.36972 99.984945 C 65.616992 99.984945 54.463648 93.292346 54.463648 85.039227 C 54.463648 76.789072 65.616992 70.096473 79.36972 70.096473 C 93.126894 70.096473 104.275792 76.789072 104.275792 85.039227 Z M 104.275792 85.039227 " transform="matrix(2.635841,0,0,-2.635841,0.524533,299.39204)"/>
<path style=" stroke:none;fill-rule:nonzero;fill:rgb(0%,0%,0%);fill-opacity:0.701961;" d="M 223.21875 82.148438 C 222.929688 83.179688 222.886719 83.386719 220.824219 83.386719 C 220.371094 83.386719 220.125 83.386719 220.125 83.921875 C 220.125 84.210938 220.328125 84.210938 220.824219 84.210938 L 230.191406 84.210938 C 234.316406 84.210938 237.414062 81.117188 237.414062 78.558594 C 237.414062 76.660156 235.925781 75.132812 233.367188 74.847656 C 236.09375 74.351562 238.855469 72.410156 238.855469 69.894531 C 238.855469 67.953125 237.125 66.304688 233.988281 66.304688 L 225.15625 66.304688 C 224.664062 66.304688 224.375 66.304688 224.375 66.800781 C 224.375 67.089844 224.621094 67.089844 225.117188 67.089844 C 225.15625 67.089844 225.695312 67.089844 226.105469 67.171875 C 226.601562 67.210938 226.847656 67.253906 226.847656 67.582031 C 226.847656 67.664062 226.808594 67.75 226.726562 68.078125 Z M 227.179688 74.597656 L 228.789062 68.078125 C 229.035156 67.171875 229.078125 67.089844 230.234375 67.089844 L 233.617188 67.089844 C 235.925781 67.089844 236.464844 68.65625 236.464844 69.8125 C 236.464844 72.121094 234.195312 74.597656 231.015625 74.597656 Z M 225.984375 83.386719 C 225.613281 83.386719 225.570312 83.386719 225.40625 83.386719 C 225.15625 83.347656 225.074219 83.304688 225.074219 83.097656 C 225.074219 83.015625 225.074219 82.972656 225.199219 82.519531 L 227.015625 75.175781 L 231.964844 75.175781 C 234.484375 75.175781 234.976562 77.113281 234.976562 78.269531 C 234.976562 80.871094 232.667969 83.386719 229.574219 83.386719 Z M 225.984375 83.386719 "/>
<path style="fill-rule:nonzero;fill:rgb(78.039216%,75.686275%,39.215686%);fill-opacity:0.701961;stroke-width:0.3985;stroke-linecap:butt;stroke-linejoin:miter;stroke:rgb(0%,0%,0%);stroke-opacity:0.701961;stroke-miterlimit:10;" d="M 29.806548 19.841218 C 29.806548 25.343792 25.345803 29.804536 19.84323 29.804536 C 14.340657 29.804536 9.87843 25.343792 9.87843 19.841218 C 9.87843 14.338645 14.340657 9.880864 19.84323 9.880864 C 25.345803 9.880864 29.806548 14.338645 29.806548 19.841218 Z M 29.806548 19.841218 " transform="matrix(2.635841,0,0,-2.635841,0.524533,299.39204)"/>
<path style=" stroke:none;fill-rule:nonzero;fill:rgb(0%,0%,0%);fill-opacity:0.701961;" d="M 62.433594 237.824219 C 62.433594 237.742188 62.390625 237.574219 62.144531 237.574219 C 62.0625 237.574219 62.0625 237.574219 61.773438 237.863281 L 59.914062 239.886719 C 59.710938 239.515625 58.472656 237.574219 55.582031 237.574219 C 49.722656 237.574219 43.824219 243.351562 43.824219 249.460938 C 43.824219 253.792969 46.917969 256.640625 50.921875 256.640625 C 53.191406 256.640625 55.210938 255.609375 56.613281 254.371094 C 59.050781 252.222656 59.460938 249.832031 59.460938 249.75 C 59.460938 249.5 59.214844 249.5 59.171875 249.5 C 59.007812 249.5 58.882812 249.542969 58.84375 249.75 C 58.59375 250.53125 57.976562 252.390625 56.160156 253.914062 C 54.34375 255.359375 52.695312 255.8125 51.332031 255.8125 C 48.980469 255.8125 46.214844 254.453125 46.214844 250.367188 C 46.214844 248.882812 46.753906 244.632812 49.394531 241.535156 C 50.960938 239.679688 53.4375 238.359375 55.789062 238.359375 C 58.472656 238.359375 60 240.382812 60 243.433594 C 60 244.507812 59.914062 244.507812 59.914062 244.796875 C 59.914062 245.042969 60.203125 245.042969 60.328125 245.042969 C 60.660156 245.042969 60.660156 245.003906 60.78125 244.507812 Z M 62.433594 237.824219 "/>
<path style=" stroke:none;fill-rule:nonzero;fill:rgb(0%,0%,0%);fill-opacity:1;" d="M 29.214844 16.726562 C 29.460938 15.65625 29.957031 14.871094 32.0625 14.789062 C 32.183594 14.789062 32.472656 14.789062 32.472656 14.292969 C 32.472656 14.25 32.472656 14.003906 32.144531 14.003906 C 31.277344 14.003906 30.371094 14.085938 29.460938 14.085938 C 28.59375 14.085938 27.605469 14.003906 26.738281 14.003906 C 26.574219 14.003906 26.285156 14.003906 26.285156 14.5 C 26.285156 14.789062 26.53125 14.789062 26.738281 14.789062 C 28.222656 14.828125 28.511719 15.367188 28.511719 15.941406 C 28.511719 16.027344 28.472656 16.4375 28.429688 16.519531 L 26.078125 25.886719 C 25.210938 29.394531 22.160156 31.664062 19.558594 31.664062 C 17.785156 31.664062 16.339844 30.507812 16.339844 28.28125 C 16.339844 28.199219 16.339844 27.375 16.628906 26.21875 L 19.1875 16.027344 C 19.433594 15.078125 19.476562 14.789062 21.375 14.789062 C 22.074219 14.789062 22.28125 14.789062 22.28125 14.292969 C 22.28125 14.003906 21.992188 14.003906 21.910156 14.003906 C 21.167969 14.003906 19.269531 14.085938 18.570312 14.085938 C 17.785156 14.085938 15.925781 14.003906 15.183594 14.003906 C 14.976562 14.003906 14.691406 14.003906 14.691406 14.5 C 14.691406 14.789062 14.894531 14.789062 15.390625 14.789062 C 15.472656 14.789062 15.96875 14.789062 16.382812 14.871094 C 16.875 14.910156 17.125 14.953125 17.125 15.28125 C 17.125 15.449219 16.835938 16.519531 16.671875 17.140625 L 16.09375 19.449219 C 15.84375 20.480469 14.605469 25.433594 14.484375 25.929688 C 14.316406 26.671875 14.316406 27.042969 14.316406 27.457031 C 14.316406 30.632812 16.671875 32.488281 19.433594 32.488281 C 22.734375 32.488281 25.996094 29.519531 26.863281 26.054688 Z M 29.214844 16.726562 "/>
</g>
</svg>
